<svg width="500" height="312" viewBox="0 0 500 312" fill="none" xmlns="http://www.w3.org/2000/svg">
<g clip-path="url(#clip0)">
<path d="M323.939 12.5403C323.939 15.0223 321.93 17.0292 319.446 17.0292C316.962 17.0292 314.953 15.0223 314.953 12.5403C314.953 10.0584 316.962 8.05145 319.446 8.05145C321.93 8.05145 323.939 10.0584 323.939 12.5403Z" fill="#FFC557"/>
<path d="M340.806 37.2528C342.67 37.2528 344.182 35.7429 344.182 33.8802C344.182 32.0176 342.67 30.5077 340.806 30.5077C338.942 30.5077 337.43 32.0176 337.43 33.8802C337.43 35.7429 338.942 37.2528 340.806 37.2528Z" stroke="#FFC557" stroke-miterlimit="10"/>
<path d="M422.644 86.2266C422.644 87.1766 421.871 87.9485 420.92 87.9485C419.969 87.9485 419.197 87.1766 419.197 86.2266C419.197 85.2766 419.969 84.5047 420.92 84.5047C421.871 84.5047 422.644 85.2766 422.644 86.2266Z" stroke="#648AC9" stroke-width="0.8104" stroke-miterlimit="10"/>
<path d="M22.5484 210.597C26.0014 210.597 28.8006 207.8 28.8006 204.35C28.8006 200.901 26.0014 198.104 22.5484 198.104C19.0954 198.104 16.2961 200.901 16.2961 204.35C16.2961 207.8 19.0954 210.597 22.5484 210.597Z" fill="#FFC557"/>
<path d="M56.0085 24.5344C57.8729 24.5344 59.3843 23.0244 59.3843 21.1618C59.3843 19.2992 57.8729 17.7892 56.0085 17.7892C54.1442 17.7892 52.6328 19.2992 52.6328 21.1618C52.6328 23.0244 54.1442 24.5344 56.0085 24.5344Z" fill="#FFC557"/>
<path d="M437.858 169.033C439.512 169.033 440.854 167.693 440.854 166.041C440.854 164.388 439.512 163.048 437.858 163.048C436.204 163.048 434.863 164.388 434.863 166.041C434.863 167.693 436.204 169.033 437.858 169.033Z" fill="#FFC557"/>
<path d="M15.167 252.897H492.571" stroke="#95B1DB" stroke-miterlimit="10"/>
<path d="M43.6468 88.1742C45.0976 88.1742 46.2737 86.9992 46.2737 85.5497C46.2737 84.1003 45.0976 82.9253 43.6468 82.9253C42.196 82.9253 41.0199 84.1003 41.0199 85.5497C41.0199 86.9992 42.196 88.1742 43.6468 88.1742Z" stroke="#95B1DB" stroke-width="2" stroke-miterlimit="10"/>
<path d="M465.601 200.479C465.601 202.142 464.258 203.483 462.594 203.483C460.93 203.483 459.586 202.142 459.586 200.479C459.586 198.816 460.93 197.475 462.594 197.475C464.258 197.475 465.601 198.828 465.601 200.479Z" fill="#839DC9"/>
<path d="M479.912 139.167C479.912 140.046 479.199 140.746 478.331 140.746C477.463 140.746 476.75 140.034 476.75 139.167C476.75 138.3 477.463 137.587 478.331 137.587C479.211 137.587 479.912 138.3 479.912 139.167Z" fill="#839DC9"/>
<path d="M261.381 254.63H85.5105V44.0218C85.5105 33.239 93.8191 24.0713 104.6 24.0713L261.381 24.5106V254.63Z" fill="#95B1DB"/>
<path opacity="0.65" d="M88.7555 254.63H261.381V45.4231L116.486 26.2563L88.7555 254.63Z" fill="#849CC7"/>
<path d="M334.53 42.573C334.53 32.2058 326.126 23.81 315.749 23.81H121.36V23.9406L102.829 23.8456C114.157 23.8456 121.324 31.8377 121.324 41.4805L121.372 41.4211V261.197C121.372 275.709 133.139 287.466 147.664 287.466H290.218L335.314 286.836L334.53 42.573Z" fill="#E0EBFB"/>
<path d="M183.24 89.5166C193.902 78.8642 193.902 61.5931 183.24 50.9407C172.577 40.2882 155.29 40.2882 144.628 50.9407C133.965 61.5931 133.965 78.8642 144.628 89.5166C155.29 100.169 172.577 100.169 183.24 89.5166Z" fill="#CBD9EC"/>
<path d="M230.738 78.8521C231.012 77.1658 231.154 76.1445 231.154 76.1445C231.154 76.1445 232.236 66.3711 227.957 60.0178C227.327 59.0915 229.3 61.9772 229.3 61.9772C229.3 61.9772 226.495 57.904 225.817 57.5715C225.14 57.239 227.695 61.7872 227.695 61.7872C227.695 61.7872 224.878 56.9302 224.058 56.9896C223.238 57.049 225.461 62.6779 225.461 62.6779C225.461 62.6779 223.749 56.4908 222.929 56.4908C222.014 56.4908 223.476 71.05 221.883 69.3399C221.348 68.7699 219.03 64.7917 217.853 65.0292C216.677 65.2667 222.18 74.2207 222.18 74.2207C222.299 74.4938 222.18 74.9332 222.061 75.2182L230.738 78.8521Z" fill="#F38C84"/>
<path d="M221.3 74.9213L217.307 85.4072C214.585 92.188 207.762 99.1707 201.45 96.8906L181.291 89.5873C179.009 88.4829 176.631 87.6992 174.397 87.4854C174.254 87.4379 174.171 87.4141 174.171 87.4141L168.656 84.7184L156.603 86.9985L152.336 90.1811C141.614 92.2355 118.828 99.4438 118.828 99.4438C123.535 102.769 127.6 108.837 127.6 108.837C127.6 108.837 126.721 110.286 125.484 112.305C128.706 116.366 132.283 120.534 137.977 123.028C139.284 123.598 141.935 124.228 143.564 124.714L139.475 167.062L183.87 167.774C183.87 167.774 190.634 137.647 191.929 118.373L192.726 118.67C203.09 122.304 214.501 118.611 222.334 109.752C228.729 102.52 231.891 79.3271 231.891 79.3271L221.3 74.9213Z" fill="#D1892A"/>
<path opacity="0.2" d="M143.564 124.703C141.935 124.204 139.284 123.586 137.977 123.016C132.283 120.523 128.706 116.342 125.484 112.293C126.721 110.274 127.6 108.825 127.6 108.825L143.564 124.703Z" fill="#FF768F"/>
<path opacity="0.2" d="M191.941 118.409L163.176 167.572L183.87 167.762C183.882 167.762 190.931 135.094 191.941 118.409Z" fill="#FF768F"/>
<path d="M168.038 74.1969L169.844 87.2954C169.844 87.2954 152.514 101.249 153.536 90.0267L155.735 74.6482L168.038 74.1969Z" fill="#F38C84"/>
<path d="M166.885 60.6353L168.406 75.1113C168.406 75.1113 153.988 92.9599 155.248 75.5151L158.314 60.2197L166.885 60.6353Z" fill="#05093D"/>
<path d="M151.825 66.953L154.333 66.2523L154.915 69.2331L152.407 69.9337C151.634 70.1475 150.886 69.6606 150.719 68.8412C150.565 68.0099 151.052 67.1668 151.825 66.953Z" fill="#F38C84" stroke="#F38C84" stroke-width="1.1297" stroke-miterlimit="10"/>
<path d="M152.05 67.7011L153.084 67.4161L153.322 68.6512L152.288 68.9362C151.967 69.0312 151.658 68.8174 151.587 68.4849C151.527 68.1405 151.729 67.7961 152.05 67.7011Z" fill="#CA5C3B"/>
<path d="M171.592 66.1573L169.048 66.5017L168.834 63.4498L171.389 63.1054C172.174 62.9985 172.863 63.5923 172.911 64.4354C172.97 65.2786 172.376 66.0505 171.592 66.1573Z" fill="#F38C84" stroke="#F38C84" stroke-width="1.1297" stroke-miterlimit="10"/>
<path d="M171.485 64.0792L170.427 64.1979L170.498 65.4567L171.556 65.338C171.877 65.3023 172.126 64.9817 172.115 64.6373C172.091 64.2929 171.817 64.0317 171.485 64.0792Z" fill="#CA5C3B"/>
<path d="M161.916 77.4508L161.857 77.4626C155.842 77.712 153.287 73.6744 153.192 68.5562L153.18 68.1643C153.085 63.046 155.866 54.8639 160.609 54.4839L160.597 54.4245C165.339 54.0564 170.272 61.6922 170.379 66.8105L170.391 67.2024C170.486 72.3206 168.668 77.0114 161.916 77.4508Z" fill="#F38C84" stroke="#F38C84" stroke-width="1.1297" stroke-miterlimit="10"/>
<path d="M162.356 74.1019C160.264 74.2919 158.528 72.9857 158.481 71.1806L158.469 70.9312L166.041 70.2543L166.052 70.5037C166.1 72.3088 164.448 73.9238 162.356 74.1019Z" fill="white"/>
<path d="M160.086 66.4899C160.086 66.858 159.872 67.1668 159.586 67.1668C159.313 67.1668 159.087 66.8699 159.087 66.4899C159.087 66.1217 159.301 65.813 159.586 65.813C159.86 65.813 160.086 66.1099 160.086 66.4899Z" fill="#05093D"/>
<path d="M164.543 66.0149C164.543 66.3949 164.317 66.6918 164.044 66.6918C163.77 66.6918 163.544 66.383 163.544 66.0149C163.544 65.6349 163.77 65.338 164.044 65.338C164.329 65.338 164.543 65.6349 164.543 66.0149Z" fill="#05093D"/>
<path d="M162.926 69.2449L161.167 69.3399C160.953 69.3518 160.787 69.0906 160.87 68.8412L161.56 66.6442C161.643 66.3592 161.964 66.3355 162.094 66.5967L163.164 68.6987C163.283 68.9362 163.152 69.2331 162.926 69.2449Z" fill="#CA5C3B"/>
<path d="M157.257 64.5898C156.769 65.0173 157.411 63.2835 158.112 63.0223C158.814 62.761 159.563 63.0342 159.788 63.6398C159.788 63.6279 158.421 63.5804 157.257 64.5898Z" fill="#05093D"/>
<path d="M165.411 63.2598C165.981 63.5567 164.971 62.0248 164.222 61.9179C163.485 61.8229 162.808 62.2623 162.724 62.8916C162.736 62.9035 164.044 62.5354 165.411 63.2598Z" fill="#05093D"/>
<path d="M169.06 57.2034C169 57.0727 168.941 56.9421 168.881 56.8234C169.488 56.5502 169.856 56.3602 169.856 56.3602C169.856 56.3602 169.143 46.1593 167.978 46.005C167.526 45.9456 155.01 48.8788 151.848 57.1796C151.765 57.4053 151.777 57.619 151.872 57.8209C151.789 57.9871 151.718 58.1534 151.658 58.3315C151.183 59.6022 151.123 61.0035 151.313 62.3335C151.409 62.9629 152.55 66.5611 153.132 66.6205C153.394 66.6442 154.832 61.9891 155.688 59.4359C157.126 59.6259 158.802 59.6378 160.502 59.4122C162.427 59.1509 164.353 58.5928 165.946 58.0228C167.158 59.6497 169.702 62.9035 170.13 62.9154C170.546 62.9154 169.44 58.0821 169.06 57.2034Z" fill="#05093D"/>
<path d="M205.159 50.3157L205.646 51.8239C205.717 52.0376 205.907 52.1801 206.133 52.1801H207.714C208.202 52.1801 208.416 52.8095 208.011 53.0945L206.728 54.0208C206.549 54.1514 206.478 54.377 206.537 54.5908L207.025 56.099C207.179 56.5621 206.644 56.954 206.24 56.669L204.957 55.7427C204.778 55.6121 204.541 55.6121 204.362 55.7427L203.079 56.669C202.674 56.954 202.14 56.574 202.294 56.099L202.781 54.5908C202.853 54.377 202.769 54.1514 202.591 54.0208L201.307 53.0945C200.903 52.8095 201.117 52.1801 201.605 52.1801H203.186C203.411 52.1801 203.602 52.0376 203.673 51.8239L204.16 50.3157C204.35 49.8526 205.004 49.8526 205.159 50.3157Z" fill="#3A5785"/>
<path d="M215.524 50.3157L216.011 51.8239C216.082 52.0376 216.272 52.1801 216.498 52.1801H218.079C218.566 52.1801 218.78 52.8095 218.376 53.0945L217.093 54.0208C216.914 54.1514 216.843 54.377 216.902 54.5908L217.39 56.099C217.544 56.5621 217.009 56.954 216.605 56.669L215.321 55.7427C215.143 55.6121 214.905 55.6121 214.727 55.7427L213.443 56.669C213.039 56.954 212.504 56.574 212.659 56.099L213.146 54.5908C213.218 54.377 213.134 54.1514 212.956 54.0208L211.672 53.0945C211.268 52.8095 211.482 52.1801 211.97 52.1801H213.55C213.776 52.1801 213.966 52.0376 214.038 51.8239L214.525 50.3157C214.715 49.8526 215.369 49.8526 215.524 50.3157Z" fill="#3A5785"/>
<path d="M225.889 50.3157L226.376 51.8239C226.447 52.0376 226.637 52.1801 226.863 52.1801H228.444C228.931 52.1801 229.145 52.8095 228.741 53.0945L227.458 54.0208C227.279 54.1514 227.208 54.377 227.267 54.5908L227.755 56.099C227.909 56.5621 227.374 56.954 226.97 56.669L225.686 55.7427C225.508 55.6121 225.27 55.6121 225.092 55.7427L223.808 56.669C223.404 56.954 222.869 56.574 223.024 56.099L223.511 54.5908C223.583 54.377 223.499 54.1514 223.321 54.0208L222.037 53.0945C221.633 52.8095 221.847 52.1801 222.334 52.1801H223.915C224.141 52.1801 224.331 52.0376 224.403 51.8239L224.89 50.3157C225.08 49.8526 225.734 49.8526 225.889 50.3157Z" fill="#3A5785"/>
<path d="M236.253 50.3157L236.741 51.8239C236.812 52.0376 237.002 52.1801 237.228 52.1801H238.809C239.296 52.1801 239.51 52.8095 239.106 53.0945L237.822 54.0208C237.644 54.1514 237.573 54.377 237.632 54.5908L238.12 56.099C238.274 56.5621 237.739 56.954 237.335 56.669L236.051 55.7427C235.873 55.6121 235.635 55.6121 235.457 55.7427L234.173 56.669C233.769 56.954 233.234 56.574 233.389 56.099L233.876 54.5908C233.947 54.377 233.864 54.1514 233.686 54.0208L232.402 53.0945C231.998 52.8095 232.212 52.1801 232.699 52.1801H234.28C234.506 52.1801 234.696 52.0376 234.768 51.8239L235.255 50.3157C235.445 49.8526 236.099 49.8526 236.253 50.3157Z" fill="#3A5785"/>
<path d="M246.618 50.3157L247.106 51.8239C247.177 52.0376 247.367 52.1801 247.593 52.1801H249.174C249.661 52.1801 249.875 52.8095 249.471 53.0945L248.187 54.0208C248.009 54.1514 247.938 54.377 247.997 54.5908L248.484 56.099C248.639 56.5621 248.104 56.954 247.7 56.669L246.416 55.7427C246.238 55.6121 246 55.6121 245.822 55.7427L244.538 56.669C244.134 56.954 243.599 56.574 243.754 56.099L244.241 54.5908C244.312 54.377 244.229 54.1514 244.051 54.0208L242.767 53.0945C242.363 52.8095 242.577 52.1801 243.064 52.1801H244.645C244.871 52.1801 245.061 52.0376 245.132 51.8239L245.62 50.3157C245.81 49.8526 246.464 49.8526 246.618 50.3157Z" fill="#CBD9EC"/>
<path d="M254.725 67.238H200.333C198.538 67.238 197.088 65.7892 197.088 63.996C197.088 62.2029 198.538 60.7541 200.333 60.7541H254.725C256.52 60.7541 257.97 62.2029 257.97 63.996C257.97 65.7773 256.508 67.238 254.725 67.238Z" fill="white"/>
<path d="M313.337 73.9238H292.856V94.385H313.337V73.9238Z" stroke="white" stroke-width="3" stroke-miterlimit="10"/>
<path d="M131.974 107.863H311.839" stroke="white" stroke-miterlimit="10"/>
<path d="M197.421 75.4201H278.367" stroke="white" stroke-width="3" stroke-miterlimit="10"/>
<path d="M197.421 84.4097H278.367" stroke="white" stroke-width="3" stroke-miterlimit="10"/>
<path d="M197.421 93.3874H278.367" stroke="white" stroke-width="3" stroke-miterlimit="10"/>
<path d="M183.236 167.384C193.898 156.731 193.898 139.46 183.236 128.808C172.574 118.155 155.286 118.155 144.624 128.808C133.962 139.46 133.962 156.731 144.624 167.384C155.286 178.036 172.574 178.036 183.236 167.384Z" fill="#CBD9EC"/>
<path d="M154.57 134.108C155.093 131.531 156.651 126.686 160.835 125.629C164.876 124.608 168.442 124.869 172.376 127.588C179.983 132.861 175.336 160.091 175.336 160.091C175.336 160.091 172.471 166.29 151.468 158.191C151.456 158.191 153.881 137.528 154.57 134.108Z" fill="#05093D"/>
<path d="M158.006 143.893C158.006 143.893 155.997 159.509 155.795 160.768C155.795 160.768 162.57 168.843 169.5 161.896C169.5 161.896 168.323 158.108 166.195 148.358L158.006 143.893Z" fill="#FBB78B" stroke="#FBB78B" stroke-width="1.2036" stroke-miterlimit="10" stroke-linecap="round" stroke-linejoin="round"/>
<path d="M163.485 165.53C163.485 165.53 162.831 168.843 169.761 161.896C169.761 161.896 169.191 158.761 168.727 156.992L163.485 165.53Z" fill="#05093D"/>
<path d="M166.73 148.501C166.171 150.543 162.677 152.241 160.739 151.838C158.386 151.339 157.34 147.147 157.566 145.425C157.756 143.976 161.785 143.192 163.687 143.715C165.589 144.226 167.301 146.458 166.73 148.501Z" fill="#05093D"/>
<path d="M154.986 136.103L157.697 136.578L157.174 139.606L154.463 139.131C153.631 138.989 153.073 138.193 153.215 137.362C153.358 136.519 154.154 135.96 154.986 136.103Z" fill="#FBB78B" stroke="#FBB78B" stroke-width="1.1709" stroke-miterlimit="10"/>
<path d="M154.737 136.887L155.854 137.077L155.64 138.324L154.523 138.134C154.178 138.074 153.952 137.742 154.012 137.397C154.059 137.065 154.392 136.827 154.737 136.887Z" fill="#E6795C" stroke="#E6795C" stroke-width="1.1586" stroke-miterlimit="10"/>
<path d="M172.673 142.444L170.046 141.613L170.974 138.692L173.6 139.523C174.409 139.772 174.86 140.639 174.599 141.447C174.337 142.254 173.482 142.706 172.673 142.444Z" fill="#FBB78B" stroke="#FBB78B" stroke-width="1.1709" stroke-miterlimit="10"/>
<path d="M173.375 140.354L172.293 139.998L171.889 141.197L172.97 141.554C173.303 141.661 173.66 141.482 173.767 141.15C173.886 140.829 173.707 140.461 173.375 140.354Z" fill="#E6795C" stroke="#E6795C" stroke-width="1.1586" stroke-miterlimit="10"/>
<path d="M167.158 130.035C172.032 131.578 173.957 136.649 172.412 141.53L172.293 141.898C170.748 146.767 165.506 149.902 161.429 148.536L161.393 148.513C158.22 147.278 153.976 141.316 155.521 136.447L155.64 136.079C157.185 131.21 162.285 128.491 167.158 130.035Z" fill="#FBB78B" stroke="#FBB78B" stroke-width="1.1709" stroke-miterlimit="10"/>
<path d="M162.392 144.986L162.748 145.069C164.008 145.366 165.28 144.594 165.577 143.335L160.644 142.159C160.347 143.418 161.132 144.689 162.392 144.986Z" fill="white"/>
<path d="M165.304 140.129C165.221 140.485 165.363 140.829 165.637 140.889C165.91 140.948 166.195 140.722 166.278 140.366C166.362 140.01 166.219 139.666 165.946 139.606C165.684 139.535 165.387 139.772 165.304 140.129Z" fill="#05093D"/>
<path d="M161.476 139.202C161.369 139.547 161.488 139.903 161.75 139.986C162.011 140.069 162.32 139.856 162.439 139.511C162.546 139.167 162.427 138.81 162.166 138.727C161.892 138.644 161.595 138.858 161.476 139.202Z" fill="#05093D"/>
<path d="M162.677 141.661L163.961 142.005C164.115 142.052 164.282 141.874 164.258 141.672L164.115 139.903C164.091 139.677 163.866 139.606 163.735 139.784L162.594 141.209C162.475 141.364 162.522 141.613 162.677 141.661Z" fill="#EB8383"/>
<path d="M160.68 137.445C160.264 137.575 161.12 136.685 161.619 136.709C162.118 136.732 162.51 137.1 162.487 137.528C162.487 137.528 161.667 137.124 160.68 137.445Z" fill="#05093D"/>
<path d="M167.764 139.107C168.073 139.416 167.729 138.229 167.265 138.015C166.813 137.801 166.29 137.955 166.112 138.347C166.124 138.347 167.027 138.371 167.764 139.107Z" fill="#05093D"/>
<path d="M161.488 129.5C157.804 135.604 173.577 139.309 173.577 139.309C173.577 139.309 176.085 127.446 162.95 127.101C154.463 126.888 161.845 128.895 161.488 129.5Z" fill="#05093D"/>
<path d="M162.606 129.346C162.606 129.346 158.79 134.761 157.827 135.687C156.722 136.744 154.998 135.521 154.998 135.521C154.998 135.521 155.545 127.054 162.606 129.346Z" fill="#05093D"/>
<path d="M176.964 146.589C176.964 148.358 175.526 149.795 173.755 149.795C171.984 149.795 170.546 148.358 170.546 146.589C170.546 144.819 171.984 143.382 173.755 143.382C175.526 143.382 176.964 144.819 176.964 146.589Z" fill="#FCCC4F"/>
<path d="M173.909 142.967C173.909 143.323 173.624 143.608 173.268 143.608C172.911 143.608 172.626 143.323 172.626 142.967C172.626 142.611 172.911 142.326 173.268 142.326C173.624 142.326 173.909 142.611 173.909 142.967Z" fill="#FCCC4F"/>
<path d="M155.498 144.226C154.642 145.769 152.692 146.339 151.147 145.484C149.602 144.629 149.031 142.682 149.887 141.138C150.743 139.594 152.692 139.024 154.238 139.879C155.783 140.734 156.353 142.682 155.498 144.226Z" fill="#FCCC4F"/>
<path d="M154.57 139.582C154.404 139.891 154.012 140.01 153.703 139.832C153.394 139.665 153.275 139.274 153.453 138.965C153.619 138.656 154.012 138.537 154.321 138.715C154.63 138.882 154.737 139.274 154.57 139.582Z" fill="#FCCC4F"/>
<path d="M190.752 178.462L183.858 161.516C181.481 157.823 179.294 156.754 176.334 157.158C175.383 157.288 174.599 157.562 173.91 157.93L169.143 158.868C162.261 163.535 156.139 156.718 156.139 156.718C150.874 152.562 139.605 160.495 139.605 160.495L140.889 167.798C140.889 167.798 145.739 185.944 145.774 186.549C146.072 192.237 145.703 202.142 145.786 201.987C145.87 201.833 176.418 205.918 176.655 205.467C176.893 205.015 176.929 201.583 177.487 189.126C177.559 187.487 177.594 185.872 177.582 184.269L190.752 178.462Z" fill="#FCCC4F"/>
<path d="M161.381 203.068C156.686 199.28 152.098 195.361 148.449 190.539C146.167 187.535 143.754 183.842 142.945 180.089C142.743 179.139 141.923 176.372 142.934 175.636C143.361 175.315 147.082 177.536 147.534 177.75C159.158 183.521 167.764 195.574 170.7 208.162C170.867 208.899 171.996 208.578 171.829 207.854C170.07 200.313 166.076 193.271 161.346 187.179C156.199 180.564 149.233 177.085 141.674 173.819C141.305 173.665 140.758 173.831 140.794 174.318C141.899 187.262 150.945 196.121 160.561 203.887C161.132 204.362 161.964 203.543 161.381 203.068Z" fill="white"/>
<path d="M137.347 151.529C147.26 167.822 158.695 184.804 178.212 189.946C178.735 190.088 179.08 189.542 178.866 189.091C174.646 180.042 169.345 171.586 162.879 163.974C156.853 156.873 149.578 149.095 141.008 145.104C140.33 144.784 139.736 145.793 140.414 146.114C148.592 149.914 155.604 157.324 161.429 164.069C166.73 170.209 173.553 178.367 176.204 186.229C177.071 188.782 177.559 188.283 174.86 187.772C172.352 187.286 169.488 185.528 167.265 184.222C163.176 181.823 159.479 178.818 156.127 175.47C148.948 168.285 143.575 159.569 138.334 150.947C137.965 150.306 136.955 150.888 137.347 151.529Z" fill="white"/>
<path d="M171.378 158.524C174.088 170.292 183.573 179.697 196.268 178.284C197.005 178.201 197.017 177.037 196.268 177.12C184.096 178.474 175.098 169.473 172.507 158.215C172.329 157.478 171.211 157.787 171.378 158.524Z" fill="white"/>
<path d="M205.159 128.182L205.646 129.69C205.717 129.904 205.908 130.047 206.133 130.047H207.714C208.202 130.047 208.416 130.676 208.011 130.961L206.728 131.887C206.549 132.018 206.478 132.243 206.538 132.457L207.025 133.965C207.179 134.429 206.645 134.82 206.24 134.535L204.957 133.609C204.778 133.478 204.541 133.478 204.362 133.609L203.079 134.535C202.675 134.82 202.14 134.44 202.294 133.965L202.782 132.457C202.853 132.243 202.77 132.018 202.591 131.887L201.308 130.961C200.903 130.676 201.117 130.047 201.605 130.047H203.186C203.411 130.047 203.602 129.904 203.673 129.69L204.16 128.182C204.35 127.719 205.004 127.719 205.159 128.182Z" fill="#3A5785"/>
<path d="M215.524 128.182L216.011 129.69C216.082 129.904 216.272 130.047 216.498 130.047H218.079C218.567 130.047 218.781 130.676 218.376 130.961L217.093 131.887C216.914 132.018 216.843 132.243 216.902 132.457L217.39 133.965C217.544 134.429 217.009 134.82 216.605 134.535L215.322 133.609C215.143 133.478 214.906 133.478 214.727 133.609L213.444 134.535C213.039 134.82 212.505 134.44 212.659 133.965L213.146 132.457C213.218 132.243 213.134 132.018 212.956 131.887L211.672 130.961C211.268 130.676 211.482 130.047 211.97 130.047H213.551C213.776 130.047 213.967 129.904 214.038 129.69L214.525 128.182C214.715 127.719 215.369 127.719 215.524 128.182Z" fill="#3A5785"/>
<path d="M225.889 128.182L226.376 129.69C226.447 129.904 226.637 130.047 226.863 130.047H228.444C228.932 130.047 229.146 130.676 228.741 130.961L227.458 131.887C227.279 132.018 227.208 132.243 227.267 132.457L227.755 133.965C227.909 134.429 227.374 134.82 226.97 134.535L225.687 133.609C225.508 133.478 225.271 133.478 225.092 133.609L223.809 134.535C223.404 134.82 222.87 134.44 223.024 133.965L223.511 132.457C223.583 132.243 223.499 132.018 223.321 131.887L222.037 130.961C221.633 130.676 221.847 130.047 222.335 130.047H223.916C224.141 130.047 224.332 129.904 224.403 129.69L224.89 128.182C225.08 127.719 225.734 127.719 225.889 128.182Z" fill="#3A5785"/>
<path d="M236.253 128.182L236.741 129.69C236.812 129.904 237.002 130.047 237.228 130.047H238.809C239.296 130.047 239.51 130.676 239.106 130.961L237.823 131.887C237.644 132.018 237.573 132.243 237.632 132.457L238.12 133.965C238.274 134.429 237.739 134.82 237.335 134.535L236.051 133.609C235.873 133.478 235.635 133.478 235.457 133.609L234.173 134.535C233.769 134.82 233.234 134.44 233.389 133.965L233.876 132.457C233.948 132.243 233.864 132.018 233.686 131.887L232.402 130.961C231.998 130.676 232.212 130.047 232.699 130.047H234.28C234.506 130.047 234.696 129.904 234.768 129.69L235.255 128.182C235.445 127.719 236.099 127.719 236.253 128.182Z" fill="#3A5785"/>
<path d="M246.618 128.182L247.106 129.69C247.177 129.904 247.367 130.047 247.593 130.047H249.174C249.661 130.047 249.875 130.676 249.471 130.961L248.187 131.887C248.009 132.018 247.938 132.243 247.997 132.457L248.485 133.965C248.639 134.429 248.104 134.82 247.7 134.535L246.416 133.609C246.238 133.478 246 133.478 245.822 133.609L244.538 134.535C244.134 134.82 243.599 134.44 243.754 133.965L244.241 132.457C244.312 132.243 244.229 132.018 244.051 131.887L242.767 130.961C242.363 130.676 242.577 130.047 243.064 130.047H244.645C244.871 130.047 245.061 129.904 245.133 129.69L245.62 128.182C245.81 127.719 246.464 127.719 246.618 128.182Z" fill="#3A5785"/>
<path d="M254.725 145.104H200.333C198.538 145.104 197.088 143.656 197.088 141.862C197.088 140.069 198.538 138.62 200.333 138.62H254.725C256.52 138.62 257.97 140.069 257.97 141.862C257.97 143.656 256.508 145.104 254.725 145.104Z" fill="white"/>
<path d="M313.337 151.802H292.856V172.263H313.337V151.802Z" stroke="white" stroke-width="3" stroke-miterlimit="10"/>
<path d="M131.974 185.742H311.839" stroke="white" stroke-miterlimit="10"/>
<path d="M197.421 153.298H278.367" stroke="white" stroke-width="3" stroke-miterlimit="10"/>
<path d="M197.421 162.276H278.367" stroke="white" stroke-width="3" stroke-miterlimit="10"/>
<path d="M197.421 171.266H278.367" stroke="white" stroke-width="3" stroke-miterlimit="10"/>
<path d="M183.24 245.758C193.903 235.106 193.903 217.835 183.24 207.182C172.578 196.53 155.291 196.53 144.628 207.182C133.966 217.835 133.966 235.106 144.628 245.758C155.291 256.411 172.578 256.411 183.24 245.758Z" fill="#FCFCFC"/>
<path d="M160.026 206.535C160.026 206.535 149.15 210.775 145.798 222.555C142.446 234.324 137.787 245.011 129.169 245.641C120.54 246.282 111.482 252.362 110.959 254.238C110.436 256.115 138.761 296.752 162.356 286.729L165.387 265.306L165.791 281.967C165.791 281.967 166.54 285.091 174.884 279.604C183.24 274.13 185.808 199.291 160.026 206.535Z" fill="#A34E65"/>
<path d="M166.148 205.93C152.859 203.246 144.871 212.877 142.672 224.906C142.03 228.445 141.662 232.067 140.592 235.511C138.548 242.078 134.34 244.881 127.505 245.118C120.124 245.38 114.169 244.905 108.879 250.866C107.845 252.03 109.557 253.752 110.591 252.576C119.268 242.779 135.481 252.885 141.686 239.489C144.229 234.003 144.277 227.816 145.703 222.033C148.033 212.651 155.462 206.227 165.482 208.245C167.027 208.566 167.669 206.239 166.148 205.93Z" fill="#A34E65"/>
<path d="M168.953 224.111C168.953 224.111 170.843 240.404 171.152 241.651C171.152 241.651 166.207 247.196 159.028 243.206C159.028 243.206 159.812 238.373 161.084 228.398L168.953 224.111Z" fill="#FFBBAA" stroke="#FFBBAA" stroke-width="1.2122" stroke-miterlimit="10" stroke-linecap="round" stroke-linejoin="round"/>
<path d="M162.094 213.661C158.956 214.349 157.839 219.147 158.992 224.36L159.075 224.764C160.216 229.965 163.485 232.625 166.16 232.792C168.311 232.922 170.676 227.863 169.523 222.65L169.785 221.843C168.644 216.641 165.232 212.972 162.094 213.661Z" fill="#05093D"/>
<path d="M155.711 222.781L158.338 221.89L157.34 218.969L154.713 219.859C153.905 220.133 153.477 221.011 153.75 221.819C154.024 222.615 154.903 223.054 155.711 222.781Z" fill="#FFBBAA" stroke="#FFBBAA" stroke-width="1.1792" stroke-miterlimit="10"/>
<path d="M173.707 215.501L171.045 216.261L171.889 219.23L174.551 218.47C175.372 218.233 175.847 217.378 175.621 216.558C175.383 215.751 174.528 215.276 173.707 215.501Z" fill="#FFBBAA" stroke="#FFBBAA" stroke-width="1.1792" stroke-miterlimit="10"/>
<path d="M174.04 216.261L172.935 216.57L173.28 217.793L174.385 217.484C174.73 217.389 174.92 217.033 174.825 216.701C174.73 216.368 174.385 216.166 174.04 216.261Z" fill="#F08992" stroke="#F08992" stroke-width="1.1746" stroke-miterlimit="10" stroke-linecap="round" stroke-linejoin="round"/>
<path d="M154.963 220.679L156.044 220.287L156.472 221.486L155.391 221.878C155.058 221.997 154.689 221.819 154.57 221.498C154.451 221.166 154.63 220.798 154.963 220.679Z" fill="#F08992" stroke="#F08992" stroke-width="1.1746" stroke-miterlimit="10" stroke-linecap="round" stroke-linejoin="round"/>
<path d="M162.13 210.514C157.114 211.701 154.772 216.534 155.925 221.403L156.009 221.771C157.162 226.64 163.307 230.5 166.54 229.633C169.856 228.73 174.409 222.448 173.268 217.579L173.184 217.211C172.031 212.319 167.146 209.326 162.13 210.514Z" fill="#FFBBAA" stroke="#FFBBAA" stroke-width="1.1626" stroke-miterlimit="10"/>
<path d="M165.589 225.5L165.957 225.405C167.253 225.061 168.038 223.731 167.681 222.425L162.605 223.766C162.962 225.073 164.293 225.845 165.589 225.5Z" fill="white"/>
<path d="M165.862 219.634C165.957 220.002 166.266 220.239 166.54 220.168C166.825 220.097 166.968 219.741 166.873 219.373C166.778 219.004 166.469 218.767 166.195 218.838C165.91 218.909 165.767 219.266 165.862 219.634Z" fill="#05093D"/>
<path d="M161.916 220.667C161.987 221.047 162.273 221.308 162.558 221.249C162.843 221.201 163.022 220.845 162.95 220.477C162.879 220.097 162.594 219.836 162.308 219.895C162.023 219.943 161.845 220.299 161.916 220.667Z" fill="#05093D"/>
<path d="M164.222 222.318L165.565 222.009C165.732 221.973 165.791 221.736 165.684 221.558L164.686 220.014C164.555 219.812 164.317 219.859 164.27 220.085L163.925 221.938C163.889 222.151 164.056 222.365 164.222 222.318Z" fill="#F08992"/>
<path d="M160.311 219.456C160.002 219.776 160.335 218.541 160.811 218.316C161.274 218.09 161.809 218.233 162.011 218.636C162.011 218.636 161.072 218.684 160.311 219.456Z" fill="#05093D"/>
<path d="M167.61 217.484C168.038 217.615 167.134 216.701 166.623 216.736C166.1 216.772 165.708 217.152 165.732 217.603C165.732 217.603 166.576 217.176 167.61 217.484Z" fill="#05093D"/>
<path d="M171.318 240.724C169.666 243.373 164.365 245.546 159.194 237.744C159.194 237.744 150.826 232.388 144.776 242.304C139.32 251.258 139.249 251.531 139.249 251.531L150.576 261.221L151.361 282.252L183.846 283.309C183.846 283.309 180.388 268.287 180.994 265.864C181.101 265.461 190.966 249.286 190.966 249.286C190.966 249.286 178.022 229.965 171.318 240.724Z" fill="#D1892A"/>
<path d="M155.046 219.004C155.046 219.004 160.787 217.223 162.13 210.502C162.13 210.502 168.24 216.261 173.066 215.228C173.066 215.228 168.252 206.369 161.619 209.1C154.986 211.844 155.093 215.893 155.046 219.004Z" fill="#A34E65"/>
<path d="M205.159 206.559L205.646 208.067C205.717 208.281 205.908 208.424 206.133 208.424H207.714C208.202 208.424 208.416 209.053 208.011 209.338L206.728 210.264C206.549 210.395 206.478 210.62 206.538 210.834L207.025 212.342C207.179 212.806 206.645 213.197 206.24 212.912L204.957 211.986C204.778 211.855 204.541 211.855 204.362 211.986L203.079 212.912C202.675 213.197 202.14 212.817 202.294 212.342L202.782 210.834C202.853 210.62 202.77 210.395 202.591 210.264L201.308 209.338C200.903 209.053 201.117 208.424 201.605 208.424H203.186C203.411 208.424 203.602 208.281 203.673 208.067L204.16 206.559C204.35 206.084 205.004 206.084 205.159 206.559Z" fill="#3A5785"/>
<path d="M215.524 206.559L216.011 208.067C216.082 208.281 216.272 208.424 216.498 208.424H218.079C218.567 208.424 218.781 209.053 218.376 209.338L217.093 210.264C216.914 210.395 216.843 210.62 216.902 210.834L217.39 212.342C217.544 212.806 217.009 213.197 216.605 212.912L215.322 211.986C215.143 211.855 214.906 211.855 214.727 211.986L213.444 212.912C213.039 213.197 212.505 212.817 212.659 212.342L213.146 210.834C213.218 210.62 213.134 210.395 212.956 210.264L211.672 209.338C211.268 209.053 211.482 208.424 211.97 208.424H213.551C213.776 208.424 213.967 208.281 214.038 208.067L214.525 206.559C214.715 206.084 215.369 206.084 215.524 206.559Z" fill="#3A5785"/>
<path d="M225.889 206.559L226.376 208.067C226.447 208.281 226.637 208.424 226.863 208.424H228.444C228.932 208.424 229.146 209.053 228.741 209.338L227.458 210.264C227.279 210.395 227.208 210.62 227.267 210.834L227.755 212.342C227.909 212.806 227.374 213.197 226.97 212.912L225.687 211.986C225.508 211.855 225.271 211.855 225.092 211.986L223.809 212.912C223.404 213.197 222.87 212.817 223.024 212.342L223.511 210.834C223.583 210.62 223.499 210.395 223.321 210.264L222.037 209.338C221.633 209.053 221.847 208.424 222.335 208.424H223.916C224.141 208.424 224.332 208.281 224.403 208.067L224.89 206.559C225.08 206.084 225.734 206.084 225.889 206.559Z" fill="#3A5785"/>
<path d="M236.253 206.559L236.741 208.067C236.812 208.281 237.002 208.424 237.228 208.424H238.809C239.296 208.424 239.51 209.053 239.106 209.338L237.823 210.264C237.644 210.395 237.573 210.62 237.632 210.834L238.12 212.342C238.274 212.806 237.739 213.197 237.335 212.912L236.051 211.986C235.873 211.855 235.635 211.855 235.457 211.986L234.173 212.912C233.769 213.197 233.234 212.817 233.389 212.342L233.876 210.834C233.948 210.62 233.864 210.395 233.686 210.264L232.402 209.338C231.998 209.053 232.212 208.424 232.699 208.424H234.28C234.506 208.424 234.696 208.281 234.768 208.067L235.255 206.559C235.445 206.084 236.099 206.084 236.253 206.559Z" fill="#CBD9EC"/>
<path d="M246.618 206.559L247.106 208.067C247.177 208.281 247.367 208.424 247.593 208.424H249.174C249.661 208.424 249.875 209.053 249.471 209.338L248.187 210.264C248.009 210.395 247.938 210.62 247.997 210.834L248.485 212.342C248.639 212.806 248.104 213.197 247.7 212.912L246.416 211.986C246.238 211.855 246 211.855 245.822 211.986L244.538 212.912C244.134 213.197 243.599 212.817 243.754 212.342L244.241 210.834C244.312 210.62 244.229 210.395 244.051 210.264L242.767 209.338C242.363 209.053 242.577 208.424 243.064 208.424H244.645C244.871 208.424 245.061 208.281 245.133 208.067L245.62 206.559C245.81 206.084 246.464 206.084 246.618 206.559Z" fill="#CBD9EC"/>
<path d="M254.725 223.481H200.333C198.538 223.481 197.088 222.033 197.088 220.239C197.088 218.446 198.538 216.998 200.333 216.998H254.725C256.52 216.998 257.97 218.446 257.97 220.239C257.97 222.021 256.508 223.481 254.725 223.481Z" fill="white"/>
<path d="M313.337 230.167H292.856V250.628H313.337V230.167Z" stroke="white" stroke-width="3" stroke-miterlimit="10"/>
<path d="M131.974 264.107H311.839" stroke="white" stroke-miterlimit="10"/>
<path d="M197.421 231.664H278.367" stroke="white" stroke-width="3" stroke-miterlimit="10"/>
<path d="M197.421 240.653H278.367" stroke="white" stroke-width="3" stroke-miterlimit="10"/>
<path d="M197.421 249.631H278.367" stroke="white" stroke-width="3" stroke-miterlimit="10"/>
<path d="M144.217 287.572C151.254 287.572 161.453 278.132 161.453 271.101H355.557C355.557 271.101 354.808 287.572 336.075 287.572H144.217Z" fill="#CEDDF4"/>
<path d="M396.149 151.66L382.266 91.903C382.075 90.3473 384.892 86.6066 386.271 85.8229C390.027 83.6734 394.651 83.3647 398.883 84.2434C412.683 87.1054 424.403 142.207 422.097 140.877C422.097 140.877 401.391 151.683 394.699 147.289" fill="#020F2B"/>
<path d="M397.254 97.0806C397.242 97.2944 397.409 97.4607 397.623 97.4607C398.49 97.4607 400.499 97.2706 400.784 99.5507C401.07 101.855 398.883 103.137 397.563 103.22C397.183 103.244 396.303 103.315 396.042 103.6C395.245 104.467 394.877 106.343 394.271 108.695C392.928 113.884 397.005 116.247 397.005 116.247C397.005 116.247 383.407 122.933 383.525 116.236C383.525 116.236 384.595 103.921 384.536 103.85C383.478 102.793 379.353 102.33 381.945 93.5537C384.346 85.4191 390.324 86.001 391.834 86.2622C393.118 86.4879 397.563 86.761 397.254 97.0806Z" fill="#F1ABA5"/>
<path d="M387.626 85.4666C387.626 85.4666 395.97 96.4869 397.432 97.4013C397.432 97.4013 403.126 83.9466 387.626 85.4666Z" fill="#020F2B"/>
<path d="M399.798 100.204C399.798 100.204 398.431 97.3182 396.696 101.189L399.798 100.204Z" fill="#EC7165"/>
<path d="M389.695 97.0925C388.565 97.0688 387.626 97.9594 387.603 99.0876C387.579 100.216 388.47 101.154 389.599 101.178C390.729 101.201 391.668 100.311 391.691 99.1826C391.715 98.0544 390.824 97.1163 389.695 97.0925Z" fill="#F79288"/>
<path d="M381.184 97.8525C382.123 97.6863 382.836 96.8788 382.86 95.8931C382.872 95.1331 382.479 94.4562 381.861 94.0999C381.861 94.0999 380.994 96.3563 381.184 97.8525Z" fill="#F79288"/>
<path d="M382.896 96.8075L386.01 98.3632C386.01 98.3632 384.488 99.4676 383.668 98.862C382.848 98.2563 382.896 96.8075 382.896 96.8075Z" fill="white"/>
<path d="M385.285 94.5512L384.797 96.7719L383.716 96.2969C383.514 96.2137 383.478 95.9406 383.656 95.81L385.285 94.5512Z" fill="#EC7165"/>
<path d="M389.278 93.7081C389.552 94.0881 389.397 92.7699 388.946 92.4611C388.506 92.1643 387.935 92.2236 387.662 92.6037C387.674 92.6155 388.637 92.8055 389.278 93.7081Z" fill="black"/>
<path d="M383.407 91.4874C382.955 91.618 383.906 90.6799 384.441 90.7274C384.976 90.763 385.38 91.1786 385.344 91.6418C385.344 91.6418 384.476 91.1905 383.407 91.4874Z" fill="black"/>
<path d="M387.484 95.3468C387.329 95.715 387.068 95.9644 386.889 95.8931C386.711 95.8219 386.687 95.4656 386.83 95.0856C386.984 94.7175 387.246 94.4681 387.424 94.5393C387.614 94.6106 387.638 94.9787 387.484 95.3468Z" fill="black"/>
<path d="M384.607 93.9693C384.464 94.3256 384.203 94.5512 384.037 94.4918C383.858 94.4206 383.846 94.0762 383.989 93.7199C384.132 93.3637 384.393 93.138 384.56 93.1974C384.726 93.2805 384.75 93.6249 384.607 93.9693Z" fill="black"/>
<path d="M384.536 103.85C384.536 103.85 388.423 104.586 390.384 104.467C392.333 104.336 382.527 115.594 384.536 103.85Z" fill="black"/>
<path d="M411.922 302.69C434.314 302.69 452.466 301.648 452.466 300.362C452.466 299.077 434.314 298.035 411.922 298.035C389.53 298.035 371.378 299.077 371.378 300.362C371.378 301.648 389.53 302.69 411.922 302.69Z" fill="#839DC9"/>
<path d="M386.663 283.119L385.249 293.142C385.249 293.142 382.979 299.792 380.875 297.215C378.771 294.638 376.691 293.285 376.691 293.285L376.001 282.87L386.663 283.119Z" fill="#F1A9A5"/>
<path d="M381.16 283.499L380.792 297.132C380.792 297.132 387.448 298.13 384.976 293.676L386.426 284.224L381.16 283.499Z" fill="#F79288"/>
<path d="M420.183 282.347L423.309 292.346C423.309 292.346 425.686 294.425 426.542 294.377C428.099 294.282 428.919 291.586 428.919 291.586L429.181 282.347H420.183Z" fill="#F1A9A5"/>
<path d="M424.676 279.675L426.863 296.206C426.863 296.206 431.332 297.381 428.86 292.94L429.407 280.222L424.676 279.675Z" fill="#F79288"/>
<path d="M376.001 293.225L367.598 300.03C367.17 300.35 367.479 300.885 368.085 300.885L380.483 300.98C380.78 300.98 381.053 300.849 381.148 300.647L382.087 298.735C382.361 298.177 382.895 298.141 382.848 298.723L383.311 300.576C383.288 300.873 386.247 300.79 386.283 300.528C386.449 298.89 386.105 293.51 385.808 292.014C385.76 291.8 385.546 291.622 385.249 291.586C384.987 291.551 384.714 291.622 384.56 291.776C383.727 292.584 381.041 295.018 379.615 294.531C378.664 294.199 377.416 293.605 377.035 293.273C376.774 293.023 376.287 293.023 376.001 293.225Z" fill="#D1892A"/>
<path d="M429.026 291.242L433.793 299.222C434.304 299.994 434.019 300.92 433.103 301.467C431.618 302.357 430.393 304.127 429.454 304.15C427.755 304.198 425.128 302.417 423.582 301.74C422.548 301.288 421.74 300.635 421.871 299.768L423.059 291.764C423.071 291.669 423.25 291.634 423.333 291.705L425.163 293.356C425.758 293.902 427.386 293.831 427.79 293.178C428.076 292.714 428.753 291.218 428.753 291.218C428.812 291.159 428.979 291.159 429.026 291.242Z" fill="#D1892A"/>
<path d="M403.732 150.686C407.583 157.49 409.616 162.466 411.827 171.111C414.394 181.134 442.161 265.959 443.373 284.2C440.212 284.96 419.208 284.853 417.211 284.734C410.852 266.529 394.77 207.402 392.036 195.943C391.62 194.185 388.886 194.565 389.1 196.37C390.645 209.469 398.99 264.629 403.138 284.77C401.474 285.613 377.392 285.423 375.478 285.186C373.398 262.717 362.332 177.69 379.032 150.128C386.675 149.083 395.994 150.46 403.732 150.686Z" fill="#2D4773"/>
<path d="M380.043 153.12C380.043 153.12 373.244 169.936 373.244 193.651C373.244 217.378 381.029 277.478 381.029 277.478" stroke="white" stroke-width="0.3961" stroke-miterlimit="10"/>
<path d="M427.125 277.49L399.964 152.348" stroke="white" stroke-width="0.3961" stroke-miterlimit="10"/>
<path d="M395.21 153.013C395.21 153.013 395.436 174.745 405.206 173.035" stroke="white" stroke-width="0.3961" stroke-miterlimit="10"/>
<path opacity="0.21" d="M379.151 153.56L410.579 177.203C410.579 177.203 411.886 164.449 406.312 153.975L379.151 153.56Z" fill="black"/>
<path d="M374.943 174.021C384.702 175.731 383.133 154.106 383.133 154.106" stroke="white" stroke-width="0.3961" stroke-miterlimit="10"/>
<path d="M393.76 113.575C393.76 113.575 395.757 113.005 395.424 113.421C395.091 113.849 394.39 114.312 393.677 114.787L393.76 113.575Z" fill="#C20034"/>
<path d="M401.688 277.609L374.563 277.621" stroke="white" stroke-width="0.3961" stroke-miterlimit="10"/>
<path d="M442.506 277.383L414.478 277.621" stroke="white" stroke-width="0.3961" stroke-miterlimit="10"/>
<path d="M413.075 191.454C413.075 191.287 413.241 189.518 413.241 189.518L412.433 192.071L413.075 191.454Z" fill="#D15449"/>
<path d="M408.035 193.971L407.476 194.411C407.476 194.411 408.059 195.468 408.309 195.384C408.309 195.396 407.892 194.898 408.035 193.971Z" fill="#D15449"/>
<path d="M348.912 131.911C348.912 131.911 369.452 160.376 374.266 156.98C374.266 156.98 379.793 153.085 377.012 137.184C377.012 135.64 377 134.571 377.059 134.322C377.059 134.322 378.248 118.622 380.839 115.369C381.124 115.012 381.98 114.347 381.861 114.324C373.969 112.352 370.95 132.16 368.786 141.328C368.691 141.708 353.643 127.054 353.643 127.054C353.643 127.054 345.751 116.639 345.204 117.233C344.407 118.1 347.462 122.743 347.462 122.743C347.462 122.743 347.26 123.278 346.666 123.539C346.072 123.8 345.739 124.204 345.537 125C345.335 125.795 344.538 126.258 344.407 126.721C344.265 127.196 347.225 130.688 348.912 131.911Z" fill="#F1ABA5"/>
<path d="M353.358 126.995C353.358 126.995 351.765 122.482 351.099 122.613C350.434 122.743 347.51 124.002 347.581 125.13C347.652 126.258 350.172 125.332 350.172 125.332C350.172 125.332 349.709 127.85 350.969 128.182C352.229 128.526 353.358 126.995 353.358 126.995Z" fill="#F1ABA5"/>
<path d="M349.447 125.142C349.447 125.142 349.519 126.27 348.58 126.472C348.58 126.472 348.377 127.671 347.189 127.398C347.189 127.398 347.522 127.933 346.785 128.063C346.785 128.063 349.911 131.448 349.447 125.142Z" fill="#F79288"/>
<path d="M350.053 122.969C349.53 123.42 348.984 123.788 348.425 124.144C348.175 124.334 347.807 124.477 347.629 124.643C347.534 124.726 347.474 124.81 347.486 124.833C347.498 124.845 347.474 124.821 347.534 124.869C347.831 125.178 348.496 125.285 349.114 125.332C349.269 125.38 349.435 125.273 349.78 125.522C349.958 125.688 349.911 125.938 349.887 126.009L349.816 126.246C349.685 126.555 349.59 126.876 349.435 127.185L349.388 127.173L349.566 126.187C349.578 126.033 349.673 125.843 349.578 125.736C349.459 125.653 349.281 125.688 349.114 125.676C348.461 125.676 347.736 125.641 347.189 125.19C347.058 125.071 346.987 124.869 347.046 124.691C347.094 124.513 347.236 124.382 347.367 124.287C347.641 124.085 347.95 123.966 348.247 123.812L350.03 122.909L350.053 122.969Z" fill="#EC7165"/>
<path d="M347.403 122.601C347.617 122.577 347.759 122.613 347.89 122.648C348.021 122.696 348.104 122.779 348.211 122.85C348.271 122.957 348.366 123.04 348.401 123.171C348.437 123.301 348.473 123.444 348.425 123.634L348.389 123.669C348.033 123.337 347.688 122.993 347.367 122.636L347.403 122.601Z" fill="#EC7165"/>
<path d="M346.048 124.275C346.404 124.429 346.69 124.619 346.975 124.809C347.26 125 347.51 125.213 347.795 125.391C348.033 125.617 348.33 125.819 348.556 126.033C348.663 126.14 348.77 126.211 348.889 126.246C349.019 126.306 349.162 126.318 349.329 126.246L349.364 126.27C349.126 126.579 348.663 126.531 348.378 126.353C348.069 126.175 347.783 125.973 347.51 125.771C346.963 125.332 346.452 124.845 346.012 124.311L346.048 124.275Z" fill="#EC7165"/>
<path d="M348.651 126.472C348.722 126.876 348.758 127.398 348.259 127.802C348.021 128.004 347.664 128.004 347.403 127.945C347.129 127.885 346.916 127.766 346.725 127.636C346.369 127.327 346.155 127.006 345.893 126.662C345.656 126.318 345.442 125.95 345.299 125.558L345.335 125.534L346.155 126.413C346.44 126.686 346.678 127.03 346.999 127.256C347.308 127.481 347.724 127.671 348.068 127.481C348.413 127.28 348.52 126.852 348.591 126.472H348.651Z" fill="#EC7165"/>
<path d="M347.272 127.196C347.391 127.458 347.403 127.743 347.343 128.028C347.308 128.17 347.284 128.325 347.141 128.491C347.094 128.574 346.88 128.669 346.832 128.681C346.749 128.716 346.666 128.728 346.583 128.752C346.25 128.847 345.917 128.645 345.727 128.574C345.632 128.503 345.513 128.431 345.37 128.325C345.239 128.194 345.192 128.051 345.18 127.897L345.216 127.861C345.37 128.063 345.596 128.146 345.834 128.194C346.072 128.277 346.297 128.325 346.535 128.313C346.797 128.325 346.951 128.146 347.046 127.909C347.141 127.683 347.213 127.446 347.225 127.208L347.272 127.196Z" fill="#EC7165"/>
<path d="M381.861 114.324C381.861 114.324 376.75 113.611 374.718 117.767C372.685 121.924 368.168 140.509 368.168 140.509L355.593 128.467L350.719 137.314C350.719 137.314 368.608 159.877 373.755 158.286C378.878 156.707 381.921 120 381.861 114.324Z" fill="#E69D2F"/>
<path d="M381.041 115.202C381.267 115.737 374.706 131.341 374.979 136.625C375.241 141.946 378.878 150.9 378.605 151.695C378.605 151.695 382.741 154.949 405.527 151.363C412.528 145.235 406.383 124.418 404.03 117.827C404.03 117.827 399.548 115.582 397.611 115.44C397.587 115.452 390.027 117.874 381.041 115.202Z" fill="#E69D2F"/>
<path d="M397.647 115.428L394.413 111.212C394.413 111.212 390.562 113.944 384.797 115.962L384.892 117.471C385.083 120.439 388.351 122.173 390.919 120.665C393.617 119.097 396.482 117.15 397.647 115.428Z" fill="#FFEBF1"/>
<path d="M384.025 110.975C384.025 110.975 383.062 114.632 384.881 116.022L384.358 117.292C383.751 119.038 381.172 118.729 381.017 116.901C380.958 116.176 380.958 115.523 381.065 115L384.025 110.975Z" fill="#FFEBF1"/>
<path d="M400.273 198.983L429.716 180.137L417.497 161.089L394.39 175.873C390.883 178.118 389.861 182.773 392.107 186.264L400.273 198.983Z" fill="#FFC557"/>
<path opacity="0.6" d="M410.71 164.829C410.71 164.829 415.452 167.026 411.791 180.481C411.601 181.193 411.435 182.001 411.577 182.725L412.398 188.509C412.516 189.126 412.6 189.957 412.077 190.314C411.423 190.753 407.667 194.197 407.215 194.339C406.288 194.648 407.298 190.076 407.144 187.677C407.12 187.25 407.013 189.197 406.954 190.052L406.835 191.929C405.717 191.418 405.741 189.257 405.563 188.532C405.325 187.559 405.515 186.929 405.634 186.704C406.145 185.635 407.12 183.521 407.275 181.621C407.37 180.505 406.585 176.348 405.931 168.618L410.71 164.829Z" fill="#4E7A8F"/>
<path d="M411.316 132.1C420.112 181.205 414.394 190.539 413.824 190.919C413.099 191.394 408.998 195.17 408.499 195.336C407.488 195.669 408.594 190.669 408.427 188.033C408.404 187.558 408.285 189.707 408.225 190.634L408.095 192.688C406.87 192.13 406.894 189.767 406.704 188.959C406.442 187.89 406.656 187.202 406.775 186.952C407.334 185.788 408.404 183.461 408.57 181.383C408.665 180.16 400.333 140.27 398.859 134.416C396.862 126.448 399.37 117.304 402.175 116.995C405.67 116.627 410.591 128.039 411.316 132.1Z" fill="#F1ABA5"/>
<path d="M417.497 178.569C417.14 177.061 419.042 148.418 412.635 129.667C409.771 121.294 405.658 116.616 402.175 116.996C399.37 117.304 396.862 126.448 398.859 134.417C400.321 140.271 403.411 166.432 405.979 179.804L417.497 178.569Z" fill="#E69D2F"/>
<path d="M405.86 77.8308L411.72 71.9762H433.793C438.286 71.9762 441.923 68.3424 441.923 63.8535V62.096C441.923 57.6071 438.286 53.9733 433.793 53.9733H414.002C409.509 53.9733 405.872 57.6071 405.872 62.096V77.8308H405.86Z" fill="#FFC557"/>
<path d="M430.215 62.7373C430.215 63.8535 431.119 64.7679 432.248 64.7679C433.377 64.7679 434.28 63.8654 434.28 62.7373C434.28 61.621 433.377 60.7066 432.248 60.7066C431.119 60.7066 430.215 61.621 430.215 62.7373Z" fill="#FAFAFA"/>
<path d="M422.774 62.7373C422.774 63.8535 423.678 64.7679 424.807 64.7679C425.924 64.7679 426.839 63.8654 426.839 62.7373C426.839 61.621 425.936 60.7066 424.807 60.7066C423.678 60.7184 422.774 61.621 422.774 62.7373Z" fill="#FAFAFA"/>
<path d="M415.333 62.7373C415.333 63.8535 416.237 64.7679 417.366 64.7679C418.483 64.7679 419.399 63.8654 419.399 62.7373C419.399 61.621 418.495 60.7066 417.366 60.7066C416.237 60.7184 415.333 61.621 415.333 62.7373Z" fill="#FAFAFA"/>
<path d="M52.7398 289.615C78.8212 289.615 99.9643 288.397 99.9643 286.896C99.9643 285.394 78.8212 284.176 52.7398 284.176C26.6584 284.176 5.51526 285.394 5.51526 286.896C5.51526 288.397 26.6584 289.615 52.7398 289.615Z" fill="#839DC9"/>
<path d="M94.2588 279.331L92.8205 276.481L84.2029 276.79L84.0009 279.331L88.0541 286.349L95.3405 280.744L94.2588 279.331Z" fill="#F0A5A9"/>
<path d="M89.0051 276.766L88.6485 283.392C88.6485 283.392 86.4139 282.122 83.787 279.782L84.1436 276.03L89.0051 276.766Z" fill="#E6777D"/>
<path d="M94.7819 279.236C94.7819 279.236 92.2501 279.189 89.3022 281.421C87.5431 282.751 84.9043 280.008 84.0841 279.295C83.9177 279.153 83.6919 279.284 83.6681 279.533L82.6459 288.807H108.297C108.594 288.807 108.832 288.499 108.832 288.107V286.159C108.832 285.862 108.677 285.589 108.463 285.494L94.7819 279.236Z" fill="#2D4773"/>
<path d="M96.2201 279.723L92.0956 282.11" stroke="white" stroke-width="0.4846" stroke-miterlimit="10"/>
<path d="M98.0268 280.649L93.8904 283.024" stroke="white" stroke-width="0.4846" stroke-miterlimit="10"/>
<path d="M52.4784 279.331L51.0283 276.481L43.1238 275.293L42.2205 279.331L46.2618 286.349L53.5601 280.744L52.4784 279.331Z" fill="#F0A5A9"/>
<path d="M46.3568 276.576L47.07 282.834C47.07 282.834 44.8354 281.564 42.2085 279.224L42.9336 276.018L46.3568 276.576Z" fill="#E6777D"/>
<path d="M53.0013 279.236C53.0013 279.236 50.4695 279.189 47.5217 281.421C45.7625 282.751 43.1238 280.008 42.3036 279.295C42.1372 279.153 41.9114 279.284 41.8876 279.533L40.8654 288.807H66.5161C66.8133 288.807 67.051 288.499 67.051 288.107V286.159C67.051 285.862 66.8965 285.589 66.6825 285.494L53.0013 279.236Z" fill="#2D4773"/>
<path d="M55.0221 279.913L50.8856 282.3" stroke="white" stroke-width="0.4846" stroke-miterlimit="10"/>
<path d="M56.8168 280.827L52.6923 283.214" stroke="white" stroke-width="0.4846" stroke-miterlimit="10"/>
<path d="M83.6562 70.2187C85.4391 67.3805 86.0216 63.141 82.9074 61.2528C81.2789 60.2672 79.175 60.4928 77.7249 61.6922C77.0593 62.2504 76.5482 62.951 76.144 63.7229C75.514 62.8323 74.575 62.2266 73.422 62.2504C72.4355 62.2741 71.2706 63.0341 70.5455 64.0317C69.5471 63.7229 68.406 63.6873 67.5502 63.901C65.3512 64.4592 64.959 67.3449 66.1714 69.043C64.6024 71.145 64.1507 74.0782 66.3853 81.4052L66.4091 81.4765L69.4401 83.1034L69.5233 82.9253L69.6065 82.7471L69.3688 82.6165L72.3879 72.855C72.7802 72.5819 75.2882 70.9193 76.6076 71.9406C77.9389 72.9738 79.4722 73.9713 80.6727 73.4963C81.2076 73.2825 81.6831 72.76 82.0396 72.2731C82.8123 71.8219 83.3353 71.0737 83.6562 70.2187ZM82.3368 62.2622C83.5017 62.9629 83.9652 64.091 84.0009 65.3261C83.4779 62.8916 81.1719 61.7041 78.8541 62.3335C79.912 61.6922 81.2195 61.5972 82.3368 62.2622ZM67.4075 81.4646C67.7641 81.5715 68.2634 81.809 68.7388 82.284L68.0851 81.9277L67.4075 81.4646Z" fill="#020F2B"/>
<path d="M92.6661 167.145C92.6661 167.145 95.9586 206.559 96.2795 217.449C96.5886 228.338 94.4015 276.897 94.4015 276.897L80.6846 277.134C80.6846 277.134 71.1042 195.681 57.7677 169.413L92.6661 167.145Z" fill="#D1892A"/>
<path d="M76.0251 169.223C76.0251 169.223 85.4154 214.765 85.4154 221.748C85.4154 228.742 86.8061 276.79 86.8061 276.79" stroke="white" stroke-width="0.4846" stroke-miterlimit="10"/>
<path d="M79.9714 271.826H94.5085" stroke="white" stroke-width="0.4846" stroke-miterlimit="10"/>
<path d="M92.6899 167.145C92.6899 167.145 85.0589 200.004 77.3209 223.244C71.0567 242.031 57.1972 278.001 57.1972 278.001L41.8163 277.621L55.1766 223.802C55.8897 221 56.3414 218.138 56.5197 215.24C57.2091 204.327 54.9626 182.262 54.0236 168.131L92.6899 167.145Z" fill="#E69D2F"/>
<path d="M65.9693 167.751C65.9693 167.751 69.5709 210.335 66.3378 216.962C63.1047 223.588 47.3077 277.514 47.3077 277.514" stroke="#020F2B" stroke-width="0.4846" stroke-miterlimit="10"/>
<path d="M43.3496 272.752H58.79" stroke="#020F2B" stroke-width="0.4846" stroke-miterlimit="10"/>
<path d="M78.8898 167.382L67.4076 182.44" stroke="#020F2B" stroke-width="0.4846" stroke-miterlimit="10"/>
<path d="M74.2541 105.12C74.2541 105.12 73.8143 101.581 77.0949 101.071C80.3636 100.56 89.1952 98.2207 111.625 105.868C111.625 105.868 115.512 84.1722 115.547 82.4147C115.642 77.8427 117.093 71.9169 120.635 68.7818C120.92 68.5205 121.134 80.1108 121.265 86.2979C121.265 86.2979 124.248 117.423 120.611 120.558C116.974 123.693 70.6287 115.784 74.2541 105.12Z" fill="#F0A5A9"/>
<path d="M80.8867 99.7407C80.8867 99.7407 68.2277 97.6388 68.5961 107.507C68.9646 117.376 93.6288 124.061 100.333 122.458L98.2526 100.548L80.8867 99.7407Z" fill="#2D4773"/>
<path d="M100.238 122.138C98.2645 124.501 79.0086 119.549 76.8928 116.331C76.8928 116.331 76.56 105.56 77.3802 105.334C85.7482 103.078 100.238 122.138 100.238 122.138Z" fill="#020F2B" stroke="#020F2B" stroke-width="0.5144" stroke-miterlimit="10"/>
<path d="M62.867 98.6244C62.867 98.6244 45.6437 100.382 44.5501 114.632C43.4685 128.883 52.3714 168.368 52.3714 168.368L95.5308 166.991L93.1773 118.005C92.999 114.371 91.8816 110.856 89.9323 107.804C88.1256 104.99 86.0217 101.807 84.8211 101.653L65.5058 96.6888L62.867 98.6244Z" fill="#2D4773"/>
<path d="M59.313 103.992C48.8411 99.8001 45.0969 107.507 44.562 114.644C43.4803 128.895 52.3832 168.38 52.3832 168.38L95.5426 167.002" fill="#263C61"/>
<path d="M82.1229 148.299C82.2179 149.047 82.0991 149.688 81.8614 149.724C81.6118 149.76 81.3384 149.178 81.2433 148.429C81.1482 147.681 81.267 147.04 81.5048 147.004C81.7425 146.969 82.0278 147.551 82.1229 148.299Z" fill="white"/>
<path d="M68.299 85.7279L67.2887 95.4181L77.2851 103.743L78.759 99.4201L77.9864 91.4161L69.9275 84.1247C69.9275 84.1247 68.6913 85.0035 68.5368 85.3241C68.3822 85.6447 68.299 85.7279 68.299 85.7279Z" fill="#F0A5A9"/>
<path d="M69.9275 84.1247L77.9864 91.4161L78.557 96.1781C78.557 96.1781 71.2469 94.1712 70.9854 88.1267" fill="#020F2B"/>
<path d="M78.7709 110.001C78.866 110.749 78.7472 111.39 78.5094 111.426C78.2598 111.462 77.9864 110.88 77.8913 110.132C77.7963 109.383 77.9151 108.742 78.1529 108.707C78.3906 108.671 78.664 109.253 78.7709 110.001Z" fill="white"/>
<path d="M79.4366 117.661C79.5317 118.409 79.4128 119.05 79.1751 119.086C78.9255 119.121 78.6521 118.539 78.557 117.791C78.4619 117.043 78.5808 116.402 78.8185 116.366C79.0562 116.331 79.3415 116.912 79.4366 117.661Z" fill="white"/>
<path d="M80.1022 125.32C80.1973 126.068 80.0785 126.71 79.8407 126.745C79.5911 126.781 79.3177 126.199 79.2226 125.451C79.1276 124.703 79.2464 124.061 79.4841 124.026C79.7338 123.99 80.0071 124.572 80.1022 125.32Z" fill="white"/>
<path d="M80.7797 132.98C80.8748 133.728 80.756 134.369 80.5182 134.405C80.2686 134.44 79.9952 133.858 79.9001 133.11C79.805 132.362 79.9239 131.721 80.1616 131.685C80.3994 131.65 80.6846 132.232 80.7797 132.98Z" fill="white"/>
<path d="M81.4454 140.639C81.5405 141.387 81.4216 142.029 81.1839 142.064C80.9343 142.1 80.6609 141.518 80.5658 140.77C80.4707 140.022 80.5896 139.381 80.8273 139.345C81.0769 139.309 81.3503 139.891 81.4454 140.639Z" fill="white"/>
<path d="M82.7885 155.958C82.8836 156.707 82.7647 157.348 82.527 157.383C82.2774 157.419 82.004 156.837 81.9089 156.089C81.8138 155.341 81.9327 154.7 82.1704 154.664C82.42 154.628 82.6934 155.21 82.7885 155.958Z" fill="white"/>
<path d="M83.466 163.618C83.5611 164.366 83.4422 165.007 83.2045 165.043C82.9549 165.079 82.6815 164.497 82.5864 163.749C82.4913 163 82.6102 162.359 82.8479 162.324C83.0856 162.288 83.359 162.87 83.466 163.618Z" fill="white"/>
<path d="M66.9796 94.7056L61.6545 97.1756L74.9554 108.469L77.2851 103.755L66.9796 94.7056Z" fill="white"/>
<path d="M78.759 98.3869C78.9968 98.4701 81.0888 99.907 81.0888 99.907L81.172 107.032L77.297 103.755L78.759 98.3869Z" fill="white"/>
<path d="M90.4553 147.824L100.059 117.72C100.594 116.046 101.795 114.704 103.364 114.027L123.024 105.536C123.606 105.286 124.201 105.856 123.999 106.474L114.299 135.972C113.776 137.564 112.647 138.858 111.161 139.547L91.4419 148.75C90.8713 149.023 90.2532 148.453 90.4553 147.824Z" fill="#2D4773"/>
<path d="M92.1075 149.593L101.712 119.489C102.247 117.815 103.447 116.473 105.016 115.796L124.676 107.305C125.259 107.056 125.853 107.626 125.651 108.243L115.952 137.742C115.429 139.333 114.299 140.627 112.814 141.316L93.0941 150.52C92.5235 150.793 91.9054 150.211 92.1075 149.593Z" fill="white"/>
<path d="M97.0166 127.553L104.267 129.69L95.1147 133.395L97.0166 127.553Z" fill="#020F2B"/>
<path d="M105.527 121.116L122.56 113.849" stroke="#1D254A" stroke-width="0.5144" stroke-miterlimit="10"/>
<path d="M105.527 124.323L119.589 118.527" stroke="#1D254A" stroke-width="0.5144" stroke-miterlimit="10"/>
<path d="M97.9081 142.421L116.118 134.452L114.929 138.264L96.3866 146.577L97.9081 142.421Z" fill="#FFC557"/>
<path d="M104.339 132.849C103.281 133.799 84.1911 153.358 75.0386 162.169C72.5663 164.544 68.62 163.962 66.8846 160.97L50.8142 134.06L66.0406 122.256C66.1476 122.423 74.1115 135.937 75.942 142.717C76.5482 144.95 77.5942 144.772 79.4009 143.667L93.2961 135.105C93.2961 135.105 93.2723 132.683 93.5814 131.757C94.1638 130.011 96.9571 127.671 96.9571 127.671L95.7447 131.377C95.5307 132.006 94.8175 132.445 95.9349 132.588L104.755 126.056C104.755 126.056 105.563 125.997 104.802 126.852C104.041 127.719 103.209 128.621 103.316 128.693C103.423 128.752 105.836 127.066 105.943 127.719C106.05 128.372 103.97 129.928 104.053 129.987C104.136 130.046 106.407 128.194 106.526 128.8C106.656 129.405 104.933 130.569 104.85 130.818C104.766 131.056 106.716 129.56 106.799 129.892C106.906 130.213 104.945 132.303 104.339 132.849Z" fill="#F0A5A9"/>
<path d="M62.0112 110.298C62.0112 110.298 57.6727 98.1257 49.3047 103.256C40.9367 108.386 47.1295 133.372 51.7889 138.49L69.7611 125.997L62.0112 110.298Z" fill="#2D4773"/>
<path d="M69.143 81.429C69.0479 81.6902 68.7269 81.7615 68.5368 81.5715C67.883 80.9302 66.5755 80.0515 66.1119 82.6046C65.4701 86.0841 69.1073 85.4903 69.4045 85.9535C69.9869 86.9035 71.8768 90.098 74.682 91.333C76.3936 92.093 78.9254 92.2118 80.7916 90.4186C82.6578 88.6254 83.5017 89.8486 82.7172 70.6818C82.7172 70.6818 81.8614 72.3325 80.6252 72.76C79.389 73.1875 77.4159 71.4775 76.0133 71.0856C74.8722 70.765 72.6613 69.9337 71.3182 73.8882C70.7001 75.717 69.7135 79.9208 69.143 81.429Z" fill="#F0A5A9"/>
<path d="M82.0633 80.2771C82.0633 80.2771 81.7543 78.6621 81.0768 80.3365" stroke="#1D254A" stroke-width="0.328" stroke-miterlimit="10"/>
<path d="M76.5719 80.3721L67.883 80.5977C67.883 80.5977 66.207 80.4315 65.8029 81.904" stroke="#1D254A" stroke-width="0.328" stroke-miterlimit="10"/>
<path d="M83.3709 82.5928C84.1127 82.5928 84.714 81.2104 84.714 79.5052C84.714 77.8 84.1127 76.4176 83.3709 76.4176C82.6291 76.4176 82.0277 77.8 82.0277 79.5052C82.0277 81.2104 82.6291 82.5928 83.3709 82.5928Z" stroke="#1D254A" stroke-width="0.3361" stroke-miterlimit="10"/>
<path d="M78.7947 83.5784C80.0486 83.5784 81.065 81.9196 81.065 79.8733C81.065 77.8271 80.0486 76.1682 78.7947 76.1682C77.5409 76.1682 76.5244 77.8271 76.5244 79.8733C76.5244 81.9196 77.5409 83.5784 78.7947 83.5784Z" stroke="#1D254A" stroke-width="0.328" stroke-miterlimit="10"/>
<path d="M82.6458 84.4809C82.6458 84.4809 81.5166 85.0391 78.7589 84.7778C78.7589 84.7778 80.2447 86.7847 81.3264 86.3929C82.408 86.0128 82.6458 84.4809 82.6458 84.4809Z" fill="white"/>
<path d="M66.6467 82.3434L68.5604 83.7922C68.5723 83.7922 67.8473 80.3008 66.6467 82.3434Z" fill="#E6777D"/>
<path d="M80.3874 80.4077C80.3874 80.8234 80.2209 81.1677 80.0189 81.1677C79.8168 81.1677 79.6504 80.8234 79.6504 80.4077C79.6504 79.9921 79.8168 79.6477 80.0189 79.6477C80.2209 79.6596 80.3874 79.9921 80.3874 80.4077Z" fill="#020F2B"/>
<path d="M82.8003 80.0396C82.8003 80.4552 82.6339 80.7996 82.4318 80.7996C82.2298 80.7996 82.0634 80.4552 82.0634 80.0396C82.0634 79.624 82.2298 79.2796 82.4318 79.2796C82.6339 79.2796 82.8003 79.624 82.8003 80.0396Z" fill="#020F2B"/>
<path d="M77.2731 77.142C76.7264 77.522 77.5822 75.7882 78.331 75.5982C79.0799 75.4082 79.8168 75.7882 79.9832 76.4414C79.9832 76.4414 78.5925 76.2276 77.2731 77.142Z" fill="#020F2B"/>
<path d="M82.9191 76.9639C82.1346 76.857 81.5641 76.9995 81.5641 76.9995C81.6711 76.3701 82.2416 75.9426 82.931 75.9189" fill="#020F2B"/>
<path d="M81.671 80.0158L82.8003 83.2222C82.824 83.2697 82.7884 83.329 82.7289 83.3409L81.3977 83.4478C81.3501 83.4478 81.3145 83.4122 81.3145 83.3647L81.5165 80.0514C81.5284 79.9564 81.6354 79.9327 81.671 80.0158Z" fill="#E6777D"/>
<path d="M58.5165 59.3409L52.6447 53.4745H30.536C26.0311 53.4745 22.382 49.8288 22.382 45.328V43.5586C22.382 39.0579 26.0311 35.4122 30.536 35.4122H50.3744C54.8793 35.4122 58.5284 39.0579 58.5284 43.5586V59.3409H58.5165Z" fill="#E69D2F"/>
<path d="M32.0931 46.2543C33.2157 46.2543 34.1257 45.3452 34.1257 44.2236C34.1257 43.1021 33.2157 42.193 32.0931 42.193C30.9706 42.193 30.0605 43.1021 30.0605 44.2236C30.0605 45.3452 30.9706 46.2543 32.0931 46.2543Z" fill="#FAFAFA"/>
<path d="M41.5784 44.2236C41.5784 45.3399 40.6632 46.2543 39.5459 46.2543C38.4286 46.2543 37.5133 45.3399 37.5133 44.2236C37.5133 43.1074 38.4286 42.193 39.5459 42.193C40.6751 42.193 41.5784 43.1074 41.5784 44.2236Z" fill="#FAFAFA"/>
<path d="M46.9986 46.2543C48.1212 46.2543 49.0312 45.3452 49.0312 44.2236C49.0312 43.1021 48.1212 42.193 46.9986 42.193C45.8761 42.193 44.9661 43.1021 44.9661 44.2236C44.9661 45.3452 45.8761 46.2543 46.9986 46.2543Z" fill="#FAFAFA"/>
<path d="M478.444 171.262C483.633 163.181 481.283 152.426 473.193 147.241C465.104 142.056 454.339 144.404 449.15 152.486C443.96 160.568 446.31 171.323 454.4 176.508C462.489 181.692 473.254 179.344 478.444 171.262Z" fill="#DAE5F7"/>
<path d="M468.109 179.222H447.867C445.418 179.222 443.445 177.239 443.445 174.805V147.658C443.445 145.211 445.43 143.24 447.867 143.24H468.109C470.558 143.24 472.531 145.223 472.531 147.658V174.805C472.531 177.239 470.558 179.222 468.109 179.222Z" fill="#839DC9"/>
<path d="M465.756 176.265H448.211C447.569 176.265 447.046 175.766 447.046 175.137V147.183C447.046 146.565 447.569 146.054 448.211 146.054H468.275C468.917 146.054 469.44 146.553 469.44 147.183V172.714C468.977 173.154 466.207 175.826 465.756 176.265Z" fill="white" stroke="white" stroke-width="0.161" stroke-miterlimit="10"/>
<path d="M469.012 172.548L465.387 176.17L465.304 173.866C465.28 173.083 465.922 172.429 466.706 172.465L469.012 172.548Z" fill="#D8CFCE"/>
<path d="M450.101 146.886C449.471 146.886 448.972 146.375 448.972 145.758V142.29C448.972 141.661 449.483 141.162 450.101 141.162C450.731 141.162 451.23 141.672 451.23 142.29V145.758C451.23 146.375 450.731 146.886 450.101 146.886Z" fill="#839DC9"/>
<path opacity="0.37" d="M450.101 148.394C449.471 148.394 448.972 147.883 448.972 147.266V143.798C448.972 143.169 449.483 142.67 450.101 142.67C450.731 142.67 451.23 143.181 451.23 143.798V147.266C451.23 147.883 450.731 148.394 450.101 148.394Z" fill="#839DC9"/>
<path d="M457.352 146.886C456.722 146.886 456.223 146.375 456.223 145.758V142.29C456.223 141.661 456.734 141.162 457.352 141.162C457.982 141.162 458.481 141.672 458.481 142.29V145.758C458.493 146.375 457.982 146.886 457.352 146.886Z" fill="#839DC9"/>
<path opacity="0.37" d="M457.352 148.394C456.722 148.394 456.223 147.883 456.223 147.266V143.798C456.223 143.169 456.734 142.67 457.352 142.67C457.982 142.67 458.481 143.181 458.481 143.798V147.266C458.493 147.883 457.982 148.394 457.352 148.394Z" fill="#839DC9"/>
<path d="M464.614 146.886C463.984 146.886 463.485 146.375 463.485 145.758V142.29C463.485 141.661 463.996 141.162 464.614 141.162C465.244 141.162 465.743 141.672 465.743 142.29V145.758C465.743 146.375 465.232 146.886 464.614 146.886Z" fill="#839DC9"/>
<path opacity="0.37" d="M464.614 148.394C463.984 148.394 463.485 147.883 463.485 147.266V143.798C463.485 143.169 463.996 142.67 464.614 142.67C465.244 142.67 465.743 143.181 465.743 143.798V147.266C465.743 147.883 465.232 148.394 464.614 148.394Z" fill="#839DC9"/>
<path d="M451.67 161.041C451.67 161.706 451.135 162.24 450.47 162.24C449.804 162.24 449.269 161.706 449.269 161.041C449.269 160.376 449.804 159.842 450.47 159.842C451.135 159.842 451.67 160.376 451.67 161.041Z" stroke="#7289B5" stroke-width="1.03" stroke-miterlimit="10"/>
<path d="M451.67 166.183C451.67 166.848 451.135 167.382 450.47 167.382C449.804 167.382 449.269 166.848 449.269 166.183C449.269 165.518 449.804 164.984 450.47 164.984C451.135 164.984 451.67 165.518 451.67 166.183Z" stroke="#7289B5" stroke-width="1.03" stroke-miterlimit="10"/>
<path d="M451.67 171.325C451.67 171.99 451.135 172.524 450.47 172.524C449.804 172.524 449.269 171.99 449.269 171.325C449.269 170.66 449.804 170.126 450.47 170.126C451.135 170.126 451.67 170.66 451.67 171.325Z" stroke="#7289B5" stroke-width="1.03" stroke-miterlimit="10"/>
<path d="M464.353 161.421H454.677C454.404 161.421 454.19 161.207 454.19 160.934C454.19 160.661 454.404 160.447 454.677 160.447H464.353C464.626 160.447 464.84 160.661 464.84 160.934C464.84 161.207 464.614 161.421 464.353 161.421Z" fill="#7289B5"/>
<path d="M464.353 166.706H454.677C454.404 166.706 454.19 166.492 454.19 166.219C454.19 165.946 454.404 165.732 454.677 165.732H464.353C464.626 165.732 464.84 165.946 464.84 166.219C464.84 166.492 464.614 166.706 464.353 166.706Z" fill="#7289B5"/>
<path d="M464.353 171.99H454.677C454.404 171.99 454.19 171.776 454.19 171.503C454.19 171.23 454.404 171.016 454.677 171.016H464.353C464.626 171.016 464.84 171.23 464.84 171.503C464.84 171.776 464.614 171.99 464.353 171.99Z" fill="#7289B5"/>
<path d="M450.517 161.528C450.446 161.528 450.363 161.492 450.315 161.433L449.055 159.984C448.936 159.854 448.936 159.64 449.055 159.509C449.174 159.379 449.352 159.379 449.471 159.509L450.529 160.72L452.36 158.618C452.478 158.488 452.657 158.488 452.776 158.618C452.895 158.749 452.895 158.963 452.776 159.093L450.743 161.433C450.672 161.492 450.6 161.528 450.517 161.528Z" fill="#1B1A4D" stroke="#1B1A4D" stroke-width="0.7725" stroke-miterlimit="10" stroke-linecap="round" stroke-linejoin="round"/>
<path d="M450.517 166.682C450.446 166.682 450.363 166.646 450.315 166.587L449.055 165.138C448.936 165.007 448.936 164.794 449.055 164.663C449.174 164.532 449.352 164.532 449.471 164.663L450.529 165.874L452.36 163.772C452.478 163.642 452.657 163.642 452.776 163.772C452.895 163.903 452.895 164.117 452.776 164.247L450.743 166.587C450.672 166.646 450.6 166.682 450.517 166.682Z" fill="#1B1A4D" stroke="#1B1A4D" stroke-width="0.7725" stroke-miterlimit="10" stroke-linecap="round" stroke-linejoin="round"/>
<path opacity="0.74" d="M469.063 169.535C473.579 168.465 476.371 163.939 475.299 159.428C474.227 154.916 469.698 152.126 465.182 153.197C460.666 154.268 457.874 158.793 458.946 163.305C460.017 167.817 464.547 170.606 469.063 169.535Z" fill="white"/>
<path d="M469.063 169.535C473.579 168.465 476.371 163.939 475.299 159.428C474.227 154.916 469.698 152.126 465.182 153.197C460.666 154.268 457.874 158.793 458.946 163.305C460.017 167.817 464.547 170.606 469.063 169.535Z" stroke="#FFD375" stroke-width="2.7834" stroke-miterlimit="10"/>
<path d="M473.256 167.691L479.793 173.593" stroke="#FFD375" stroke-width="3.7378" stroke-miterlimit="10" stroke-linecap="round"/>
<path d="M437.359 109.526C444.58 109.526 450.434 103.678 450.434 96.4631C450.434 89.2487 444.58 83.4003 437.359 83.4003C430.138 83.4003 424.284 89.2487 424.284 96.4631C424.284 103.678 430.138 109.526 437.359 109.526Z" fill="#B4CEF7"/>
<path d="M435.956 98.957H431.226V103.683H435.956V98.957Z" stroke="white" stroke-width="0.7004" stroke-miterlimit="10"/>
<path d="M432.212 100.703L433.056 102.246L437.609 97.1638" stroke="white" stroke-width="0.7004" stroke-miterlimit="10" stroke-linecap="round"/>
<path d="M435.956 89.5161H431.226V94.2425H435.956V89.5161Z" stroke="white" stroke-width="0.7004" stroke-miterlimit="10"/>
<path d="M432.212 91.2617L433.056 92.8055L437.609 87.7229" stroke="white" stroke-width="0.7004" stroke-miterlimit="10" stroke-linecap="round"/>
<g opacity="0.57">
<path opacity="0.57" d="M450.909 92.5799H439.879C439.392 92.5799 438.999 92.188 438.999 91.7011C438.999 91.2142 439.392 90.8224 439.879 90.8224H450.909C451.397 90.8224 451.789 91.2142 451.789 91.7011C451.789 92.188 451.397 92.5799 450.909 92.5799Z" fill="white" stroke="white" stroke-width="0.6619" stroke-miterlimit="10"/>
<path opacity="0.57" d="M451.777 101.95H439.915C439.415 101.95 439.011 101.546 439.011 101.047C439.011 100.548 439.415 100.144 439.915 100.144H451.777C452.276 100.144 452.681 100.548 452.681 101.047C452.681 101.546 452.276 101.95 451.777 101.95Z" fill="white" stroke="white" stroke-width="0.6619" stroke-miterlimit="10"/>
</g>
</g>
<defs>
<clipPath id="clip0">
<rect width="500" height="312" fill="white"/>
</clipPath>
</defs>
</svg>
