<svg xmlns="http://www.w3.org/2000/svg" xmlns:xlink="http://www.w3.org/1999/xlink" viewBox="0 0 595.28 841.89"><defs><style>.cls-1,.cls-18,.cls-65,.cls-93{fill:none;}.cls-14,.cls-2,.cls-21,.cls-6,.cls-9{fill:#e5e5e5;}.cls-3{fill:#b6333b;}.cls-4{fill:#1f263c;}.cls-5{clip-path:url(#clip-path);}.cls-6{font-size:31.31px;}.cls-6,.cls-66{font-family:Montserrat-Bold, Montserrat;font-weight:700;}.cls-7{letter-spacing:-0.01em;}.cls-8{letter-spacing:-0.02em;}.cls-9{font-size:12.52px;font-family:Montserrat-Light, Montserrat;}.cls-49,.cls-50,.cls-51,.cls-54,.cls-55,.cls-56,.cls-59,.cls-60,.cls-61,.cls-9{font-weight:300;}.cls-10{letter-spacing:-0.01em;}.cls-11{letter-spacing:-0.01em;}.cls-12{letter-spacing:-0.01em;}.cls-13{letter-spacing:0em;}.cls-103,.cls-14,.cls-32,.cls-62,.cls-94{font-size:15.89px;font-family:Averta-ExtraBold, Averta;font-weight:800;}.cls-103,.cls-14{letter-spacing:0.02em;}.cls-15{letter-spacing:-0.02em;}.cls-16,.cls-32,.cls-62{letter-spacing:0.02em;}.cls-17,.cls-94{letter-spacing:-0.02em;}.cls-18{stroke:#e5e5e5;}.cls-18,.cls-65,.cls-93{stroke-miterlimit:10;}.cls-19{letter-spacing:0em;}.cls-20{letter-spacing:0.02em;}.cls-21{font-size:10.23px;}.cls-21,.cls-34{font-family:Montserrat-Medium, Montserrat;font-weight:500;}.cls-22{letter-spacing:-0.01em;}.cls-23{letter-spacing:-0.01em;}.cls-24{letter-spacing:-0.02em;}.cls-25{letter-spacing:-0.01em;}.cls-26{fill:#b3abab;}.cls-27{letter-spacing:0em;}.cls-28{letter-spacing:0em;}.cls-29{font-size:6.62px;}.cls-29,.cls-41,.cls-44{fill:#cb3842;}.cls-29,.cls-41{font-family:Montserrat-SemiBold, Montserrat;}.cls-29,.cls-41,.cls-45,.cls-52{font-weight:600;}.cls-30{letter-spacing:-0.02em;}.cls-31{letter-spacing:-0.01em;}.cls-32,.cls-34{fill:#fff;}.cls-33{letter-spacing:0em;}.cls-34{font-size:10.14px;}.cls-35{letter-spacing:-0.06em;}.cls-36{letter-spacing:-0.01em;}.cls-37{letter-spacing:-0.01em;}.cls-38{letter-spacing:-0.02em;}.cls-39{letter-spacing:-0.01em;}.cls-40{letter-spacing:-0.02em;}.cls-41{font-size:6.56px;}.cls-42{letter-spacing:-0.02em;}.cls-43{letter-spacing:-0.01em;}.cls-45,.cls-52{font-size:8.48px;fill:#231f20;font-family:Averta-Semibold, Averta;}.cls-45{letter-spacing:-0.07em;}.cls-46,.cls-51{letter-spacing:0.02em;}.cls-47{letter-spacing:0.01em;}.cls-48,.cls-49,.cls-52{letter-spacing:0.02em;}.cls-49,.cls-50,.cls-51,.cls-54,.cls-55,.cls-56,.cls-59,.cls-60,.cls-61{font-family:Averta-Light, Averta;}.cls-50,.cls-53{letter-spacing:0.01em;}.cls-54{letter-spacing:0.01em;}.cls-55{letter-spacing:0em;}.cls-57{letter-spacing:0em;}.cls-58{letter-spacing:-0.01em;}.cls-59{letter-spacing:0.02em;}.cls-60{letter-spacing:0em;}.cls-61{letter-spacing:0em;}.cls-103,.cls-62,.cls-94{fill:#11172d;}.cls-63{letter-spacing:0em;}.cls-64{letter-spacing:0.01em;}.cls-65{stroke:#141b31;stroke-width:0.4px;}.cls-66{font-size:11px;}.cls-66,.cls-71,.cls-86{fill:#141b31;}.cls-67{letter-spacing:-0.01em;}.cls-68{letter-spacing:0em;}.cls-69{letter-spacing:-0.02em;}.cls-70{letter-spacing:-0.01em;}.cls-71{font-size:8px;}.cls-71,.cls-86{font-family:Montserrat-Regular, Montserrat;}.cls-72{letter-spacing:-0.02em;}.cls-73{letter-spacing:-0.01em;}.cls-74{letter-spacing:0em;}.cls-75{letter-spacing:-0.01em;}.cls-76{letter-spacing:0em;}.cls-77{letter-spacing:-0.01em;}.cls-78{letter-spacing:-0.02em;}.cls-79{letter-spacing:-0.01em;}.cls-80{letter-spacing:0em;}.cls-81{letter-spacing:-0.02em;}.cls-82{letter-spacing:0.02em;}.cls-83{letter-spacing:-0.01em;}.cls-84{letter-spacing:-0.01em;}.cls-85{letter-spacing:-0.02em;}.cls-86{font-size:6.67px;}.cls-87{letter-spacing:-0.02em;}.cls-88{letter-spacing:-0.01em;}.cls-89{letter-spacing:0em;}.cls-90{letter-spacing:0em;}.cls-91{letter-spacing:-0.02em;}.cls-92{letter-spacing:-0.01em;}.cls-93{stroke:#11172d;}.cls-95{letter-spacing:0em;}.cls-96{letter-spacing:-0.02em;}.cls-97{letter-spacing:0em;}.cls-98{letter-spacing:-0.02em;}.cls-99{letter-spacing:0em;}.cls-100{letter-spacing:-0.02em;}.cls-101{letter-spacing:-0.03em;}.cls-102{letter-spacing:0em;}.cls-104{clip-path:url(#clip-path-2);}.cls-105{clip-path:url(#clip-path-3);}</style><clipPath id="clip-path"><rect class="cls-1" x="30.82" y="36.76" width="211.01" height="262.96"/></clipPath><clipPath id="clip-path-2"><rect class="cls-1" x="-654.65" y="25.01" width="252.96" height="250.16"/></clipPath><clipPath id="clip-path-3"><circle class="cls-1" cx="845.08" cy="114.96" r="93.29"/></clipPath></defs><g id="PRINT"><rect class="cls-2" width="595.28" height="841.89"/><rect class="cls-3" x="30.82" y="36.76" width="210.7" height="769.55"/><rect class="cls-3" x="241.53" y="36.76" width="317.35" height="116.38"/><rect class="cls-4" x="241.53" y="153.14" width="317.35" height="47.8"/><text class="cls-6" transform="translate(268.12 75.93)">ƏLİ<tspan class="cls-7" x="0" y="40.25">Q</tspan><tspan x="26.11" y="40.25">ASIM</tspan><tspan class="cls-8" x="110.23" y="40.25">O</tspan><tspan x="135.93" y="40.25">V</tspan></text><text class="cls-9" transform="translate(269.34 139.12)">Doğum ta<tspan class="cls-10" x="63.85" y="0">r</tspan><tspan x="68.67" y="0">ixi: 15</tspan><tspan class="cls-11" x="98.84" y="0">.</tspan><tspan x="101.21" y="0">1</tspan><tspan class="cls-12" x="105.63" y="0">0.</tspan><tspan x="116.1" y="0">19</tspan><tspan class="cls-13" x="128.05" y="0">9</tspan><tspan x="135.58" y="0">2</tspan></text><text class="cls-14" transform="translate(42.08 334.05)">H<tspan class="cls-15" x="11.64" y="0">A</tspan><tspan class="cls-16" x="22.33" y="0">QQIM</tspan><tspan class="cls-17" x="67.93" y="0">D</tspan><tspan class="cls-16" x="78.95" y="0">A</tspan></text><line class="cls-18" x1="42.08" y1="338.58" x2="131.51" y2="338.58"/><path class="cls-2" d="M43.14,359.24l.25-.46a3.2,3.2,0,0,0,2,.68c1.16,0,1.66-.44,1.66-1,0-1.53-3.8-.59-3.8-2.66,0-.82.7-1.54,2.27-1.54a3.8,3.8,0,0,1,1.92.5l-.22.47a3.45,3.45,0,0,0-1.7-.46c-1.12,0-1.63.45-1.63,1,0,1.54,3.8.61,3.8,2.65,0,.82-.72,1.53-2.3,1.53A3.58,3.58,0,0,1,43.14,359.24Z"/><path class="cls-2" d="M48.92,354.5a.42.42,0,0,1,.84,0,.42.42,0,0,1-.84,0Zm.1,1.21h.63v4.21H49Z"/><path class="cls-2" d="M54.67,359.45v.47H50.89v-.38l2.92-3.35H51v-.48h3.67v.38l-2.92,3.36Z"/><path class="cls-2" d="M55.8,354.5a.42.42,0,0,1,.84,0,.42.42,0,0,1-.84,0Zm.1,1.21h.63v4.21H55.9Z"/><path class="cls-2" d="M62.54,357.48v2.44h-.62v-2.38a1.24,1.24,0,0,0-1.4-1.35,1.45,1.45,0,0,0-1.62,1.52v2.21h-.62v-4.21h.6v.78a2,2,0,0,1,1.76-.81A1.69,1.69,0,0,1,62.54,357.48Z"/><path class="cls-2" d="M68,357.81l-1.09.91v1.2h-.63V354h.63v4l2.77-2.3h.77l-2,1.72,2.17,2.49h-.77Z"/><path class="cls-2" d="M71.38,354.5a.4.4,0,0,1,.43-.38.39.39,0,0,1,.42.38.4.4,0,0,1-.42.38A.41.41,0,0,1,71.38,354.5Zm.11,1.21h.63v4.21h-.63Z"/><path class="cls-2" d="M81.52,357.48v2.44h-.63v-2.38a1.21,1.21,0,0,0-1.33-1.35A1.42,1.42,0,0,0,78,357.71v2.21h-.63v-2.38A1.21,1.21,0,0,0,76,356.19a1.42,1.42,0,0,0-1.55,1.52v2.21h-.63v-4.21h.6v.77a2,2,0,0,1,1.71-.8,1.69,1.69,0,0,1,1.64.89,2.1,2.1,0,0,1,1.84-.89A1.67,1.67,0,0,1,81.52,357.48Z"/><path class="cls-2" d="M83.12,354.5a.42.42,0,0,1,.84,0,.42.42,0,0,1-.84,0Zm.1,1.21h.63v4.21h-.63Z"/><path class="cls-2" d="M91.79,355.71v4.21h-.6v-.77a1.91,1.91,0,0,1-1.67.81,1.72,1.72,0,0,1-2-1.81v-2.44h.63v2.39a1.23,1.23,0,0,0,1.39,1.35,1.44,1.44,0,0,0,1.58-1.53v-2.21Z"/><path class="cls-2" d="M97.84,355.71v3.7c0,1.45-.78,2.1-2.32,2.1a3.43,3.43,0,0,1-2.16-.65l.32-.43a2.93,2.93,0,0,0,1.82.58c1.18,0,1.71-.49,1.71-1.53v-.54a2.2,2.2,0,1,1-1.8-3.26,2.17,2.17,0,0,1,1.83.84v-.81Zm-.61,2a1.77,1.77,0,1,0-1.76,1.55A1.59,1.59,0,0,0,97.23,357.71Zm-3-3.63h.44c0,.42.41.67.9.67s.88-.25.9-.67h.44c0,.63-.6,1-1.34,1S94.22,354.71,94.2,354.08Z"/><path class="cls-2" d="M103.78,355.71v4.21h-.6v-.77a1.91,1.91,0,0,1-1.67.81,1.72,1.72,0,0,1-2-1.81v-2.44h.63v2.39a1.23,1.23,0,0,0,1.39,1.35,1.44,1.44,0,0,0,1.58-1.53v-2.21Z"/><path class="cls-2" d="M107.87,355.68v.55h-.15a1.42,1.42,0,0,0-1.56,1.55v2.14h-.63v-4.21h.6v.83A1.79,1.79,0,0,1,107.87,355.68Z"/><path class="cls-2" d="M109,354h.63v5.93H109Z"/><path class="cls-2" d="M115.55,355.71v4.21H115v-.77a1.88,1.88,0,0,1-1.66.81,1.72,1.72,0,0,1-2-1.81v-2.44H112v2.39a1.23,1.23,0,0,0,1.39,1.35,1.44,1.44,0,0,0,1.58-1.53v-2.21Z"/><path class="cls-2" d="M124,357.82a2.14,2.14,0,0,1-2.31,2.14,2.07,2.07,0,0,1-1.79-.87v.83h-.6V354H120v2.52a2.1,2.1,0,0,1,1.76-.83A2.14,2.14,0,0,1,124,357.82Zm-.62,0a1.73,1.73,0,1,0-1.73,1.64A1.62,1.62,0,0,0,123.4,357.82Z"/><path class="cls-2" d="M125.2,354.5a.39.39,0,0,1,.42-.38.4.4,0,0,1,.43.38.41.41,0,0,1-.43.38A.4.4,0,0,1,125.2,354.5Zm.1,1.21h.63v4.21h-.63Z"/><path class="cls-2" d="M130,355.68v.55h-.15a1.42,1.42,0,0,0-1.56,1.55v2.14h-.62v-4.21h.6v.83A1.78,1.78,0,0,1,130,355.68Z"/><path class="cls-2" d="M134.66,360l-.11.38c.49,0,.75.29.75.64s-.41.7-1,.7a1.36,1.36,0,0,1-.74-.19l.15-.3a1.08,1.08,0,0,0,.59.15c.35,0,.54-.13.54-.37s-.18-.37-.54-.37h-.21l.19-.65a3.2,3.2,0,0,1-1.7-.51l.29-.45a2.93,2.93,0,0,0,1.65.47c.88,0,1.24-.27,1.24-.68,0-1.1-3-.24-3-1.9,0-.69.65-1.2,1.84-1.2a3.4,3.4,0,0,1,1.64.39l-.28.46a2.5,2.5,0,0,0-1.36-.36c-.84,0-1.21.3-1.21.7,0,1.13,3,.28,3,1.89C136.38,359.45,135.75,359.91,134.66,360Z"/><path class="cls-2" d="M137.44,354.5a.42.42,0,0,1,.84,0,.42.42,0,0,1-.84,0Zm.1,1.21h.63v4.21h-.63Z"/><path class="cls-2" d="M142.25,355.68v.55h-.15a1.42,1.42,0,0,0-1.56,1.55v2.14h-.63v-4.21h.6v.83A1.79,1.79,0,0,1,142.25,355.68Z"/><path class="cls-2" d="M145.1,357.81l-1.09.91v1.2h-.63V354H144v4l2.77-2.3h.77l-2,1.72,2.17,2.49H147Z"/><path class="cls-2" d="M152.54,357.83a2.13,2.13,0,0,1-2.26,2.13,2.1,2.1,0,0,1-2.25-2.13c0-.05,0-.12,0-.18h3.88a1.66,1.66,0,0,0-1.83-1.46,1.93,1.93,0,0,0-1.42.55l-.35-.37a2.39,2.39,0,0,1,1.79-.69A2.2,2.2,0,0,1,152.54,357.83Zm-.62.24h-3.29a1.67,1.67,0,0,0,3.29,0Z"/><path class="cls-2" d="M156.27,359.66a1.61,1.61,0,0,1-1,.3c-.88,0-1.36-.45-1.36-1.22v-2.55h-.83v-.48h.83v-.92h.62v.92H156v.48h-1.42v2.51a.71.71,0,0,0,.81.77,1.15,1.15,0,0,0,.69-.21Z"/><path class="cls-2" d="M161.47,354v5.93h-.6v-.83a2.06,2.06,0,0,1-1.79.87,2.15,2.15,0,1,1,0-4.28,2.08,2.08,0,0,1,1.76.83V354Zm-.62,3.83a1.73,1.73,0,1,0-1.72,1.64A1.61,1.61,0,0,0,160.85,357.82Z"/><path class="cls-2" d="M167.26,357.83A2.13,2.13,0,0,1,165,360a2.1,2.1,0,0,1-2.25-2.13c0-.05,0-.12,0-.18h3.88a1.66,1.66,0,0,0-1.83-1.46,1.93,1.93,0,0,0-1.42.55l-.35-.37a2.4,2.4,0,0,1,1.79-.69A2.2,2.2,0,0,1,167.26,357.83Zm-.62.24h-3.29a1.67,1.67,0,0,0,3.29,0Z"/><path class="cls-2" d="M170.45,354.5a.43.43,0,1,1,.43.38A.41.41,0,0,1,170.45,354.5Zm.11,1.21h.62v4.21h-.62Z"/><path class="cls-2" d="M174.36,360l-.11.38c.49,0,.75.29.75.64s-.4.7-1,.7a1.34,1.34,0,0,1-.74-.19l.15-.3a1,1,0,0,0,.58.15c.35,0,.55-.13.55-.37s-.18-.37-.55-.37h-.2L174,360a3.13,3.13,0,0,1-1.69-.51l.28-.45a2.93,2.93,0,0,0,1.65.47c.88,0,1.24-.27,1.24-.68,0-1.1-3-.24-3-1.9,0-.69.66-1.2,1.84-1.2a3.4,3.4,0,0,1,1.64.39l-.27.46a2.53,2.53,0,0,0-1.37-.36c-.84,0-1.21.3-1.21.7,0,1.13,3,.28,3,1.89C176.09,359.45,175.45,359.91,174.36,360Z"/><path class="cls-2" d="M177.24,354h.63v5.93h-.63Z"/><path class="cls-2" d="M183.66,357.83A2.13,2.13,0,0,1,181.4,360a2.1,2.1,0,0,1-2.25-2.13c0-.05,0-.12,0-.18H183a1.66,1.66,0,0,0-1.83-1.46,1.93,1.93,0,0,0-1.42.55l-.35-.37a2.4,2.4,0,0,1,1.79-.69A2.2,2.2,0,0,1,183.66,357.83Zm-.62.24h-3.29a1.67,1.67,0,0,0,3.29,0Z"/><path class="cls-2" d="M192.6,357.48v2.44H192v-2.38a1.21,1.21,0,0,0-1.33-1.35,1.42,1.42,0,0,0-1.55,1.52v2.21h-.63v-2.38a1.21,1.21,0,0,0-1.34-1.35,1.42,1.42,0,0,0-1.55,1.52v2.21h-.63v-4.21h.6v.77a2,2,0,0,1,1.71-.8,1.69,1.69,0,0,1,1.64.89,2.1,2.1,0,0,1,1.84-.89A1.67,1.67,0,0,1,192.6,357.48Z"/><path class="cls-2" d="M198.37,357.83A2.13,2.13,0,0,1,196.1,360a2.11,2.11,0,0,1-2.25-2.13c0-.05,0-.12,0-.18h3.88a1.66,1.66,0,0,0-1.82-1.46,1.9,1.9,0,0,0-1.42.55l-.36-.37a2.4,2.4,0,0,1,1.79-.69A2.21,2.21,0,0,1,198.37,357.83Zm-.63.24h-3.29a1.67,1.67,0,0,0,3.29,0Z"/><path class="cls-2" d="M201.37,357.81l-1.1.91v1.2h-.62V354h.62v4l2.77-2.3h.78l-2,1.72,2.17,2.49h-.76Z"/><path class="cls-2" d="M206.86,354.5a.42.42,0,0,1,.84,0,.42.42,0,0,1-.84,0Zm.1,1.21h.63v4.21H207Z"/><path class="cls-2" d="M208.69,359.44,209,359a3,3,0,0,0,1.65.47c.88,0,1.25-.27,1.25-.68,0-1.1-3-.24-3-1.9,0-.69.65-1.2,1.83-1.2a3.37,3.37,0,0,1,1.64.39l-.27.46a2.53,2.53,0,0,0-1.37-.36c-.83,0-1.21.3-1.21.7,0,1.13,3,.28,3,1.89,0,.73-.7,1.2-1.91,1.2A3.3,3.3,0,0,1,208.69,359.44Z"/><path class="cls-2" d="M216.09,359.66a1.61,1.61,0,0,1-1,.3c-.87,0-1.36-.45-1.36-1.22v-2.55h-.82v-.48h.82v-.92h.63v.92h1.41v.48h-1.41v2.51a.71.71,0,0,0,.8.77,1.13,1.13,0,0,0,.69-.21Z"/><path class="cls-2" d="M221.11,357.83a2.13,2.13,0,0,1-2.27,2.13,2.11,2.11,0,0,1-2.25-2.13c0-.05,0-.12,0-.18h3.88a1.66,1.66,0,0,0-1.82-1.46,1.9,1.9,0,0,0-1.42.55l-.36-.37a2.41,2.41,0,0,1,1.8-.69A2.21,2.21,0,0,1,221.11,357.83Zm-.63.24H217.2a1.66,1.66,0,0,0,3.28,0Z"/><path class="cls-2" d="M226.15,355.71l-2.31,4.71a1.58,1.58,0,0,1-1.55,1.09,1.73,1.73,0,0,1-1.13-.38l.29-.43a1.21,1.21,0,0,0,.85.32c.41,0,.7-.17,1-.7l.2-.41-2.07-4.2h.66l1.74,3.58,1.75-3.58Z"/><path class="cls-2" d="M226.93,354.5a.43.43,0,1,1,.43.38A.41.41,0,0,1,226.93,354.5Zm.11,1.21h.62v4.21H227Z"/><path class="cls-2" d="M229.07,357.51h2.31V358h-2.31Z"/><path class="cls-2" d="M51.25,368.48v2.44h-.62v-2.38a1.21,1.21,0,0,0-1.33-1.35,1.42,1.42,0,0,0-1.56,1.52v2.21h-.62v-2.38a1.22,1.22,0,0,0-1.34-1.35,1.42,1.42,0,0,0-1.56,1.52v2.21H43.6v-4.21h.6v.77a1.93,1.93,0,0,1,1.7-.8,1.69,1.69,0,0,1,1.65.89,2.08,2.08,0,0,1,1.83-.89A1.67,1.67,0,0,1,51.25,368.48Z"/><path class="cls-2" d="M52.85,365.5a.43.43,0,0,1,.85,0,.43.43,0,0,1-.85,0Zm.11,1.21h.62v4.21H53Z"/><path class="cls-2" d="M61.67,369.84l.47.29a2.12,2.12,0,0,1-1.82.83h0l-.11.38c.49,0,.75.29.75.64s-.4.7-1,.7a1.39,1.39,0,0,1-.75-.19l.15-.3a1.08,1.08,0,0,0,.59.15c.35,0,.54-.13.54-.37s-.17-.37-.54-.37h-.21l.2-.66a2.14,2.14,0,0,1-2-2.12,2.19,2.19,0,0,1,2.39-2.14,2.1,2.1,0,0,1,1.82.83l-.47.29a1.64,1.64,0,1,0,0,2Z"/><path class="cls-2" d="M66.87,368.31v2.61h-.6v-.66a1.79,1.79,0,0,1-1.6.7c-1.05,0-1.69-.5-1.69-1.22s.46-1.19,1.79-1.19h1.47v-.26c0-.72-.45-1.11-1.31-1.11a2.58,2.58,0,0,0-1.55.49l-.28-.42a3.16,3.16,0,0,1,1.89-.57C66.19,366.68,66.87,367.23,66.87,368.31Zm-.63,1.35V369H64.79c-.9,0-1.19.32-1.19.75s.43.79,1.17.79A1.48,1.48,0,0,0,66.24,369.66Z"/><path class="cls-2" d="M71,370.66a1.61,1.61,0,0,1-1,.3c-.88,0-1.36-.45-1.36-1.22v-2.55h-.83v-.48h.83v-.92h.62v.92h1.41v.48H69.3v2.51a.71.71,0,0,0,.81.77,1.15,1.15,0,0,0,.69-.21Z"/><path class="cls-2" d="M76.22,365v5.93h-.6v-.83a2.06,2.06,0,0,1-1.79.87,2.15,2.15,0,1,1,0-4.28,2.08,2.08,0,0,1,1.76.83V365Zm-.62,3.83a1.73,1.73,0,1,0-1.72,1.64A1.61,1.61,0,0,0,75.6,368.82Z"/><path class="cls-2" d="M78,366.71h.63v4.21H78Z"/><path class="cls-2" d="M82.68,366.68v.55h-.15A1.43,1.43,0,0,0,81,368.78v2.14h-.62v-4.21h.6v.83A1.79,1.79,0,0,1,82.68,366.68Z"/><path class="cls-2" d="M91.46,368.48v2.44h-.63v-2.38a1.21,1.21,0,0,0-1.33-1.35A1.42,1.42,0,0,0,88,368.71v2.21h-.63v-2.38A1.21,1.21,0,0,0,86,367.19a1.42,1.42,0,0,0-1.55,1.52v2.21H83.8v-4.21h.6v.77a2,2,0,0,1,1.71-.8,1.7,1.7,0,0,1,1.65.89,2.07,2.07,0,0,1,1.83-.89A1.67,1.67,0,0,1,91.46,368.48Z"/><path class="cls-2" d="M96.67,368.31v2.61h-.61v-.66a1.77,1.77,0,0,1-1.59.7c-1,0-1.69-.5-1.69-1.22s.45-1.19,1.79-1.19H96v-.26c0-.72-.45-1.11-1.32-1.11a2.55,2.55,0,0,0-1.54.49l-.28-.42a3.14,3.14,0,0,1,1.89-.57C96,366.68,96.67,367.23,96.67,368.31ZM96,369.66V369H94.58c-.9,0-1.19.32-1.19.75s.43.79,1.18.79A1.5,1.5,0,0,0,96,369.66Z"/><path class="cls-2" d="M102.62,366.71v5.76H102v-2.34a2.08,2.08,0,0,1-1.76.83,2.15,2.15,0,1,1,0-4.28,2.08,2.08,0,0,1,1.79.87v-.84Zm-.62,2.11a1.73,1.73,0,1,0-1.72,1.64A1.62,1.62,0,0,0,102,368.82Z"/><path class="cls-2" d="M107.33,365.5a.43.43,0,1,1,.43.38A.41.41,0,0,1,107.33,365.5Zm.11,1.21h.62v4.21h-.62Z"/><path class="cls-2" d="M109.17,370.44l.28-.45a3,3,0,0,0,1.65.47c.88,0,1.24-.27,1.24-.68,0-1.1-3-.24-3-1.9,0-.69.65-1.2,1.83-1.2a3.4,3.4,0,0,1,1.64.39l-.27.46a2.53,2.53,0,0,0-1.37-.36c-.84,0-1.21.3-1.21.7,0,1.13,3,.28,3,1.89,0,.73-.71,1.2-1.91,1.2A3.3,3.3,0,0,1,109.17,370.44Z"/><path class="cls-2" d="M116.57,370.66a1.61,1.61,0,0,1-1,.3c-.87,0-1.36-.45-1.36-1.22v-2.55h-.83v-.48h.83v-.92h.63v.92h1.41v.48h-1.41v2.51a.71.71,0,0,0,.8.77,1.13,1.13,0,0,0,.69-.21Z"/><path class="cls-2" d="M121.59,368.83a2.13,2.13,0,0,1-2.27,2.13,2.11,2.11,0,0,1-2.25-2.13c0-.05,0-.12,0-.18H121a1.66,1.66,0,0,0-1.82-1.46,1.9,1.9,0,0,0-1.42.55l-.36-.37a2.4,2.4,0,0,1,1.79-.69A2.21,2.21,0,0,1,121.59,368.83Zm-.63.24h-3.29a1.67,1.67,0,0,0,3.29,0Z"/><path class="cls-2" d="M126.63,366.71l-2.32,4.71a1.57,1.57,0,0,1-1.54,1.09,1.71,1.71,0,0,1-1.13-.38l.29-.43a1.21,1.21,0,0,0,.85.32c.41,0,.69-.17,1-.7l.2-.41-2.07-4.2h.65l1.75,3.58,1.75-3.58Z"/><path class="cls-2" d="M127.41,365.5a.39.39,0,0,1,.42-.38.4.4,0,0,1,.43.38.41.41,0,0,1-.43.38A.4.4,0,0,1,127.41,365.5Zm.1,1.21h.63v4.21h-.63Z"/><path class="cls-2" d="M132.22,366.68v.55h-.15a1.42,1.42,0,0,0-1.56,1.55v2.14h-.62v-4.21h.6v.83A1.78,1.78,0,0,1,132.22,366.68Z"/><path class="cls-2" d="M137.36,368.83a2.13,2.13,0,0,1-2.27,2.13,2.11,2.11,0,0,1-2.25-2.13c0-.05,0-.12,0-.18h3.88a1.66,1.66,0,0,0-1.82-1.46,1.9,1.9,0,0,0-1.42.55l-.36-.37a2.4,2.4,0,0,1,1.79-.69A2.21,2.21,0,0,1,137.36,368.83Zm-.63.24h-3.29a1.67,1.67,0,0,0,3.29,0Z"/><path class="cls-2" d="M146.29,368.48v2.44h-.62v-2.38a1.22,1.22,0,0,0-1.34-1.35,1.42,1.42,0,0,0-1.55,1.52v2.21h-.62v-2.38a1.22,1.22,0,0,0-1.34-1.35,1.42,1.42,0,0,0-1.56,1.52v2.21h-.62v-4.21h.6v.77a1.93,1.93,0,0,1,1.7-.8,1.69,1.69,0,0,1,1.65.89,2.08,2.08,0,0,1,1.83-.89A1.67,1.67,0,0,1,146.29,368.48Z"/><path class="cls-2" d="M148.53,370.52a1.11,1.11,0,0,1-.12.46l-.37,1.11h-.42l.3-1.16a.41.41,0,0,1-.32-.41.47.47,0,0,1,.93,0Z"/><path class="cls-2" d="M157.64,368.82a2.15,2.15,0,0,1-2.31,2.14,2.06,2.06,0,0,1-1.79-.87v.83h-.6V365h.62v2.52a2.12,2.12,0,0,1,1.77-.83A2.15,2.15,0,0,1,157.64,368.82Zm-.63,0a1.73,1.73,0,1,0-1.73,1.64A1.62,1.62,0,0,0,157,368.82Z"/><path class="cls-2" d="M163.1,366.71v4.21h-.6v-.77a1.91,1.91,0,0,1-1.67.81,1.71,1.71,0,0,1-2-1.81v-2.44h.62v2.39a1.23,1.23,0,0,0,1.39,1.35,1.43,1.43,0,0,0,1.58-1.53v-2.21Z"/><path class="cls-2" d="M167.19,366.68v.55H167a1.42,1.42,0,0,0-1.56,1.55v2.14h-.62v-4.21h.6v.83A1.78,1.78,0,0,1,167.19,366.68Z"/><path class="cls-2" d="M171.81,368.31v2.61h-.6v-.66a1.78,1.78,0,0,1-1.59.7c-1.05,0-1.69-.5-1.69-1.22s.45-1.19,1.78-1.19h1.48v-.26c0-.72-.45-1.11-1.31-1.11a2.56,2.56,0,0,0-1.55.49l-.28-.42a3.14,3.14,0,0,1,1.89-.57C171.13,366.68,171.81,367.23,171.81,368.31Zm-.62,1.35V369h-1.46c-.9,0-1.19.32-1.19.75s.43.79,1.17.79A1.5,1.5,0,0,0,171.19,369.66Z"/><path class="cls-2" d="M177.77,365v5.93h-.6v-.83a2.07,2.07,0,0,1-1.79.87,2.15,2.15,0,1,1,0-4.28,2.1,2.1,0,0,1,1.76.83V365Zm-.62,3.83a1.73,1.73,0,1,0-1.72,1.64A1.61,1.61,0,0,0,177.15,368.82Z"/><path class="cls-2" d="M183,368.31v2.61h-.6v-.66a1.8,1.8,0,0,1-1.6.7c-1,0-1.69-.5-1.69-1.22s.46-1.19,1.79-1.19h1.47v-.26c0-.72-.45-1.11-1.31-1.11a2.56,2.56,0,0,0-1.55.49l-.28-.42a3.16,3.16,0,0,1,1.89-.57C182.34,366.68,183,367.23,183,368.31Zm-.63,1.35V369h-1.45c-.9,0-1.2.32-1.2.75s.44.79,1.18.79A1.5,1.5,0,0,0,182.39,369.66Z"/><path class="cls-2" d="M189.22,371l-.1.38c.48,0,.75.29.75.64s-.41.7-1,.7a1.36,1.36,0,0,1-.74-.19l.15-.3a1,1,0,0,0,.58.15c.35,0,.55-.13.55-.37s-.18-.37-.55-.37h-.2l.18-.65a3.13,3.13,0,0,1-1.69-.51l.28-.45a3,3,0,0,0,1.65.47c.88,0,1.24-.27,1.24-.68,0-1.1-3-.24-3-1.9,0-.69.65-1.2,1.83-1.2a3.4,3.4,0,0,1,1.64.39l-.27.46a2.53,2.53,0,0,0-1.37-.36c-.84,0-1.21.3-1.21.7,0,1.13,3,.28,3,1.89C191,370.45,190.31,370.91,189.22,371Z"/><path class="cls-2" d="M192,365.5a.43.43,0,0,1,.85,0,.43.43,0,0,1-.85,0Zm.11,1.21h.62v4.21h-.62Z"/><path class="cls-2" d="M196.82,366.68v.55h-.15a1.42,1.42,0,0,0-1.56,1.55v2.14h-.63v-4.21h.6v.83A1.79,1.79,0,0,1,196.82,366.68Z"/><path class="cls-2" d="M199.67,368.81l-1.1.91v1.2H198V365h.62v4l2.77-2.3h.78l-2,1.72,2.17,2.49h-.76Z"/><path class="cls-2" d="M207.11,368.83a2.13,2.13,0,0,1-2.27,2.13,2.11,2.11,0,0,1-2.25-2.13c0-.05,0-.12,0-.18h3.88a1.66,1.66,0,0,0-1.82-1.46,1.9,1.9,0,0,0-1.42.55l-.36-.37a2.41,2.41,0,0,1,1.8-.69A2.21,2.21,0,0,1,207.11,368.83Zm-.63.24h-3.29a1.67,1.67,0,0,0,3.29,0Z"/><path class="cls-2" d="M210.83,370.66a1.61,1.61,0,0,1-1,.3c-.87,0-1.36-.45-1.36-1.22v-2.55h-.82v-.48h.82v-.92h.63v.92h1.41v.48h-1.41v2.51a.71.71,0,0,0,.8.77,1.13,1.13,0,0,0,.69-.21Z"/><path class="cls-2" d="M211.86,365.5a.4.4,0,0,1,.43-.38.39.39,0,0,1,.42.38.4.4,0,0,1-.42.38A.41.41,0,0,1,211.86,365.5Zm.11,1.21h.63v4.21H212Z"/><path class="cls-2" d="M218.61,368.48v2.44H218v-2.38a1.23,1.23,0,0,0-1.39-1.35,1.45,1.45,0,0,0-1.62,1.52v2.21h-.63v-4.21h.6v.78a2,2,0,0,1,1.77-.81A1.69,1.69,0,0,1,218.61,368.48Z"/><path class="cls-2" d="M220.21,365.5a.42.42,0,0,1,.84,0,.42.42,0,0,1-.84,0Zm.1,1.21h.63v4.21h-.63Z"/><path class="cls-2" d="M226,370.45v.47h-3.78v-.38l2.92-3.35h-2.86v-.48h3.67v.38L223,370.45Z"/><path class="cls-2" d="M231.16,368.83A2.13,2.13,0,0,1,228.9,371a2.1,2.1,0,0,1-2.25-2.13c0-.05,0-.12,0-.18h3.88a1.67,1.67,0,0,0-1.83-1.46,1.91,1.91,0,0,0-1.42.55l-.35-.37a2.39,2.39,0,0,1,1.79-.69A2.2,2.2,0,0,1,231.16,368.83Zm-.62.24h-3.29a1.67,1.67,0,0,0,3.29,0Z"/><path class="cls-2" d="M47.83,376v5.93h-.6v-.83a2.06,2.06,0,0,1-1.79.87,2.15,2.15,0,1,1,0-4.28,2.12,2.12,0,0,1,1.77.83V376Zm-.62,3.83a1.72,1.72,0,1,0-1.72,1.64A1.61,1.61,0,0,0,47.21,379.82Z"/><path class="cls-2" d="M53.6,379.83A2.14,2.14,0,0,1,51.33,382a2.11,2.11,0,0,1-2.25-2.13c0-.05,0-.12,0-.18H53a1.66,1.66,0,0,0-1.83-1.46,1.93,1.93,0,0,0-1.42.55l-.35-.37a2.4,2.4,0,0,1,1.79-.69A2.21,2.21,0,0,1,53.6,379.83Zm-.63.24H49.68a1.67,1.67,0,0,0,3.29,0Z"/><path class="cls-2" d="M58.61,377.71l-2.31,4.71a1.58,1.58,0,0,1-1.55,1.09,1.71,1.71,0,0,1-1.13-.38l.29-.43a1.21,1.21,0,0,0,.85.32c.41,0,.7-.17,1-.7l.2-.41-2.07-4.2h.65l1.75,3.58L58,377.71Z"/><path class="cls-2" d="M63.38,379.83A2.13,2.13,0,0,1,61.12,382a2.1,2.1,0,0,1-2.25-2.13c0-.05,0-.12,0-.18h3.88a1.67,1.67,0,0,0-1.83-1.46,1.91,1.91,0,0,0-1.42.55l-.35-.37a2.37,2.37,0,0,1,1.79-.69A2.21,2.21,0,0,1,63.38,379.83Zm-.62.24H59.47a1.67,1.67,0,0,0,3.29,0Z"/><path class="cls-2" d="M67,377.68v.55h-.15a1.42,1.42,0,0,0-1.56,1.55v2.14h-.63v-4.21h.6v.83A1.79,1.79,0,0,1,67,377.68Z"/><path class="cls-2" d="M74.07,379.83A2.13,2.13,0,0,1,71.8,382a2.1,2.1,0,0,1-2.25-2.13c0-.05,0-.12,0-.18h3.88a1.66,1.66,0,0,0-1.82-1.46,1.9,1.9,0,0,0-1.42.55l-.36-.37a2.4,2.4,0,0,1,1.79-.69A2.21,2.21,0,0,1,74.07,379.83Zm-.63.24H70.15a1.67,1.67,0,0,0,3.29,0Z"/><path class="cls-2" d="M75.32,376h.62v5.93h-.62Z"/><path class="cls-2" d="M81.16,379.31v2.61h-.6v-.66A1.78,1.78,0,0,1,79,382c-1,0-1.7-.5-1.7-1.22s.46-1.19,1.79-1.19h1.48v-.26c0-.72-.45-1.11-1.32-1.11a2.53,2.53,0,0,0-1.54.49l-.28-.42a3.11,3.11,0,0,1,1.88-.57C80.48,377.68,81.16,378.23,81.16,379.31Zm-.62,1.35V380H79.08c-.9,0-1.19.32-1.19.75s.43.79,1.17.79A1.5,1.5,0,0,0,80.54,380.66Z"/><path class="cls-2" d="M86.65,377.71l-2.07,4.21h-.64l-2.06-4.21h.66l1.73,3.59L86,377.71Z"/><path class="cls-2" d="M91.41,379.83A2.13,2.13,0,0,1,89.15,382a2.1,2.1,0,0,1-2.25-2.13c0-.05,0-.12,0-.18h3.88A1.66,1.66,0,0,0,89,378.19a1.93,1.93,0,0,0-1.42.55l-.35-.37a2.4,2.4,0,0,1,1.79-.69A2.2,2.2,0,0,1,91.41,379.83Zm-.62.24H87.5a1.67,1.67,0,0,0,3.29,0Z"/><path class="cls-2" d="M98.58,380H94.7a1.67,1.67,0,0,0,1.83,1.47A1.94,1.94,0,0,0,98,380.9l.35.37a2.4,2.4,0,0,1-1.79.69,2.21,2.21,0,0,1-2.44-2.14,2.14,2.14,0,0,1,2.27-2.14,2.1,2.1,0,0,1,2.25,2.14C98.59,379.87,98.58,379.93,98.58,380Zm-3.88-.42H98a1.67,1.67,0,0,0-3.29,0Z"/><path class="cls-2" d="M104.07,376v5.93h-.6v-.83a2,2,0,0,1-1.79.87,2.15,2.15,0,1,1,0-4.28,2.12,2.12,0,0,1,1.77.83V376Zm-.61,3.83a1.73,1.73,0,1,0-1.72,1.64A1.62,1.62,0,0,0,103.46,379.82Z"/><path class="cls-2" d="M109.84,379.83a2.13,2.13,0,0,1-2.27,2.13,2.11,2.11,0,0,1-2.25-2.13c0-.05,0-.12,0-.18h3.88a1.66,1.66,0,0,0-1.82-1.46,1.9,1.9,0,0,0-1.42.55l-.35-.37a2.37,2.37,0,0,1,1.79-.69A2.21,2.21,0,0,1,109.84,379.83Zm-.63.24h-3.29a1.67,1.67,0,0,0,3.29,0Z"/><path class="cls-2" d="M117.67,379.82a2.15,2.15,0,0,1-2.31,2.14,2.06,2.06,0,0,1-1.79-.87v.83H113V376h.62v2.52a2.12,2.12,0,0,1,1.77-.83A2.15,2.15,0,0,1,117.67,379.82Zm-.63,0a1.73,1.73,0,1,0-1.73,1.64A1.62,1.62,0,0,0,117,379.82Z"/><path class="cls-2" d="M118.81,376.5a.43.43,0,1,1,.43.38A.41.41,0,0,1,118.81,376.5Zm.11,1.21h.63v4.21h-.63Z"/><path class="cls-2" d="M121.26,376h.63v5.93h-.63Z"/><path class="cls-2" d="M127.66,379.83a2.13,2.13,0,0,1-2.27,2.13,2.1,2.1,0,0,1-2.25-2.13c0-.05,0-.12,0-.18H127a1.66,1.66,0,0,0-1.82-1.46,1.9,1.9,0,0,0-1.42.55l-.36-.37a2.4,2.4,0,0,1,1.79-.69A2.21,2.21,0,0,1,127.66,379.83Zm-.63.24h-3.29a1.67,1.67,0,0,0,3.29,0Z"/><path class="cls-2" d="M128.44,379.82a2.19,2.19,0,0,1,2.39-2.14,2.08,2.08,0,0,1,1.81.83l-.46.29a1.64,1.64,0,0,0-1.35-.62,1.64,1.64,0,1,0,0,3.28,1.64,1.64,0,0,0,1.35-.62l.46.29a2.1,2.1,0,0,1-1.81.83A2.19,2.19,0,0,1,128.44,379.82Z"/><path class="cls-2" d="M137.81,379.83a2.13,2.13,0,0,1-2.26,2.13,2.1,2.1,0,0,1-2.25-2.13v-.18h3.89a1.66,1.66,0,0,0-1.83-1.46,1.91,1.91,0,0,0-1.42.55l-.35-.37a2.39,2.39,0,0,1,1.79-.69A2.21,2.21,0,0,1,137.81,379.83Zm-.62.24H133.9a1.67,1.67,0,0,0,3.29,0Z"/><path class="cls-2" d="M142.83,377.71l-2.32,4.71a1.57,1.57,0,0,1-1.55,1.09,1.69,1.69,0,0,1-1.12-.38l.29-.43a1.2,1.2,0,0,0,.84.32c.42,0,.7-.17,1-.7l.2-.41-2.07-4.2h.65l1.74,3.58,1.75-3.58Z"/><path class="cls-2" d="M143.58,376.5a.42.42,0,0,1,.84,0,.42.42,0,0,1-.84,0Zm.1,1.21h.63v4.21h-.63Z"/><path class="cls-2" d="M153.68,379.48v2.44h-.62v-2.38a1.22,1.22,0,0,0-1.34-1.35,1.42,1.42,0,0,0-1.55,1.52v2.21h-.62v-2.38a1.22,1.22,0,0,0-1.34-1.35,1.42,1.42,0,0,0-1.56,1.52v2.21H146v-4.21h.6v.77a1.93,1.93,0,0,1,1.7-.8,1.69,1.69,0,0,1,1.65.89,2.07,2.07,0,0,1,1.83-.89A1.67,1.67,0,0,1,153.68,379.48Z"/><path class="cls-2" d="M159.42,379.83a2.13,2.13,0,0,1-2.27,2.13,2.1,2.1,0,0,1-2.24-2.13v-.18h3.89a1.68,1.68,0,0,0-1.83-1.46,1.91,1.91,0,0,0-1.42.55l-.35-.37a2.39,2.39,0,0,1,1.79-.69A2.21,2.21,0,0,1,159.42,379.83Zm-.62.24h-3.29a1.67,1.67,0,0,0,3.29,0Z"/><path class="cls-2" d="M164,382l-.11.38c.49,0,.75.29.75.64s-.4.7-1,.7a1.39,1.39,0,0,1-.75-.19l.16-.3a1,1,0,0,0,.58.15c.35,0,.54-.13.54-.37s-.17-.37-.54-.37h-.21l.19-.65a3.13,3.13,0,0,1-1.69-.51l.28-.45a2.93,2.93,0,0,0,1.65.47c.88,0,1.24-.27,1.24-.68,0-1.1-3-.24-3-1.9,0-.69.66-1.2,1.84-1.2a3.4,3.4,0,0,1,1.64.39l-.27.46a2.56,2.56,0,0,0-1.37-.36c-.84,0-1.21.3-1.21.7,0,1.13,3,.28,3,1.89C165.71,381.45,165.07,381.91,164,382Z"/><path class="cls-2" d="M171,377.71v4.21h-.6v-.77a1.91,1.91,0,0,1-1.67.81,1.72,1.72,0,0,1-2-1.81v-2.44h.63v2.39a1.23,1.23,0,0,0,1.39,1.35,1.44,1.44,0,0,0,1.58-1.53v-2.21Zm-3.28-1.17a.37.37,0,0,1,.38-.35.37.37,0,0,1,.38.35.36.36,0,0,1-.38.34A.35.35,0,0,1,167.74,376.54Zm1.57,0a.37.37,0,0,1,.38-.35.37.37,0,0,1,.38.35.35.35,0,0,1-.38.34A.36.36,0,0,1,169.31,376.54Z"/><path class="cls-2" d="M177.44,379.82a2.14,2.14,0,0,1-2.31,2.14,2.07,2.07,0,0,1-1.79-.87v.83h-.6V376h.63v2.52a2.1,2.1,0,0,1,1.76-.83A2.14,2.14,0,0,1,177.44,379.82Zm-.62,0a1.73,1.73,0,1,0-1.73,1.64A1.62,1.62,0,0,0,176.82,379.82Z"/><path class="cls-2" d="M183,379.48v2.44h-.62v-2.38a1.24,1.24,0,0,0-1.4-1.35,1.45,1.45,0,0,0-1.62,1.52v2.21h-.63V376h.63v2.46a2,2,0,0,1,1.74-.77A1.69,1.69,0,0,1,183,379.48Z"/><path class="cls-2" d="M188.7,379.83a2.13,2.13,0,0,1-2.26,2.13,2.1,2.1,0,0,1-2.25-2.13c0-.05,0-.12,0-.18h3.88a1.67,1.67,0,0,0-1.83-1.46,1.91,1.91,0,0,0-1.42.55l-.35-.37a2.39,2.39,0,0,1,1.79-.69A2.21,2.21,0,0,1,188.7,379.83Zm-.62.24h-3.29a1.67,1.67,0,0,0,3.29,0Z"/><path class="cls-2" d="M197.61,379.48v2.44H197v-2.38a1.21,1.21,0,0,0-1.33-1.35,1.42,1.42,0,0,0-1.55,1.52v2.21h-.63v-2.38a1.21,1.21,0,0,0-1.34-1.35,1.42,1.42,0,0,0-1.55,1.52v2.21H190v-4.21h.6v.77a2,2,0,0,1,1.7-.8,1.69,1.69,0,0,1,1.65.89,2.1,2.1,0,0,1,1.84-.89A1.67,1.67,0,0,1,197.61,379.48Z"/><path class="cls-2" d="M205.06,377.71l-2.32,4.71a1.57,1.57,0,0,1-1.55,1.09,1.73,1.73,0,0,1-1.13-.38l.3-.43a1.2,1.2,0,0,0,.84.32c.42,0,.7-.17,1-.7l.21-.41-2.07-4.2H201l1.74,3.58,1.75-3.58Z"/><path class="cls-2" d="M205.31,379.82a2.37,2.37,0,1,1,2.36,2.14A2.19,2.19,0,0,1,205.31,379.82Zm4.08,0a1.72,1.72,0,1,0-1.72,1.64A1.61,1.61,0,0,0,209.39,379.82Z"/><path class="cls-2" d="M214.07,381.92l-1.48-1.76-1.48,1.76h-.7l1.83-2.16-1.75-2.05h.71l1.39,1.65,1.4-1.65h.69l-1.75,2.05,1.85,2.16Z"/><path class="cls-2" d="M219.86,376v5.93h-.6v-.83a2.06,2.06,0,0,1-1.79.87,2.15,2.15,0,1,1,0-4.28,2.08,2.08,0,0,1,1.76.83V376Zm-.62,3.83a1.73,1.73,0,1,0-1.72,1.64A1.61,1.61,0,0,0,219.24,379.82Z"/><path class="cls-2" d="M225.76,377.71v4.21h-.6v-.77a1.91,1.91,0,0,1-1.67.81,1.72,1.72,0,0,1-2-1.81v-2.44h.63v2.39a1.23,1.23,0,0,0,1.39,1.35,1.44,1.44,0,0,0,1.58-1.53v-2.21Z"/><path class="cls-2" d="M229.82,377.68v.55h-.15a1.42,1.42,0,0,0-1.56,1.55v2.14h-.63v-4.21h.6v.83A1.81,1.81,0,0,1,229.82,377.68Z"/><path class="cls-2" d="M230.5,381.52a.44.44,0,0,1,.47-.43.45.45,0,0,1,.47.43.46.46,0,0,1-.47.44A.45.45,0,0,1,230.5,381.52Z"/><path class="cls-2" d="M43.73,387.32h2.51c2,0,3.31,1.15,3.31,2.8s-1.33,2.8-3.31,2.8H43.73Zm2.48,5.09c1.64,0,2.7-1,2.7-2.29s-1.06-2.29-2.7-2.29H44.38v4.58Z"/><path class="cls-2" d="M55,388.71v4.21h-.6v-.77a1.91,1.91,0,0,1-1.67.81,1.72,1.72,0,0,1-2-1.81v-2.44h.63v2.39a1.23,1.23,0,0,0,1.39,1.35,1.44,1.44,0,0,0,1.58-1.53v-2.21Zm-3.28-1.17a.38.38,0,0,1,.76,0,.38.38,0,0,1-.76,0Zm1.58,0a.38.38,0,0,1,.75,0,.38.38,0,0,1-.75,0Z"/><path class="cls-2" d="M58.12,393l-.11.38c.48,0,.75.29.75.64s-.41.7-1,.7a1.36,1.36,0,0,1-.74-.19l.15-.3a1.07,1.07,0,0,0,.58.15c.36,0,.55-.13.55-.37s-.18-.37-.55-.37h-.2l.19-.65a3.2,3.2,0,0,1-1.7-.51l.28-.45a3,3,0,0,0,1.65.47c.89,0,1.25-.27,1.25-.68,0-1.1-3-.24-3-1.9,0-.69.65-1.2,1.84-1.2a3.43,3.43,0,0,1,1.64.39l-.28.46a2.5,2.5,0,0,0-1.36-.36c-.84,0-1.21.3-1.21.7,0,1.13,3,.28,3,1.89C59.84,392.45,59.21,392.91,58.12,393Z"/><path class="cls-2" d="M65.11,388.71v4.21h-.6v-.77a1.88,1.88,0,0,1-1.66.81,1.72,1.72,0,0,1-2-1.81v-2.44h.62v2.39a1.24,1.24,0,0,0,1.4,1.35,1.44,1.44,0,0,0,1.58-1.53v-2.21Zm-3.27-1.17a.37.37,0,0,1,.38-.35.37.37,0,0,1,.38.35.36.36,0,0,1-.38.34A.35.35,0,0,1,61.84,387.54Zm1.57,0a.37.37,0,0,1,.38-.35.37.37,0,0,1,.38.35.35.35,0,0,1-.38.34A.36.36,0,0,1,63.41,387.54Z"/><path class="cls-2" d="M71.07,390.48v2.44h-.63v-2.38a1.23,1.23,0,0,0-1.39-1.35,1.45,1.45,0,0,0-1.62,1.52v2.21H66.8v-4.21h.6v.78a2,2,0,0,1,1.76-.81A1.7,1.7,0,0,1,71.07,390.48Z"/><path class="cls-2" d="M76.89,388.71v4.21h-.6v-.77a1.91,1.91,0,0,1-1.67.81,1.72,1.72,0,0,1-2-1.81v-2.44h.63v2.39a1.23,1.23,0,0,0,1.39,1.35,1.44,1.44,0,0,0,1.58-1.53v-2.21Zm-3.27-1.17a.36.36,0,0,1,.37-.35.37.37,0,0,1,.38.35.35.35,0,0,1-.38.34A.34.34,0,0,1,73.62,387.54Zm1.57,0a.37.37,0,0,1,.37-.35.36.36,0,0,1,.38.35.38.38,0,0,1-.75,0Z"/><path class="cls-2" d="M80.91,388.68v.55h-.15a1.42,1.42,0,0,0-1.56,1.55v2.14h-.62v-4.21h.6v.83A1.78,1.78,0,0,1,80.91,388.68Z"/><path class="cls-2" d="M86,390.83A2.13,2.13,0,0,1,83.71,393a2.11,2.11,0,0,1-2.25-2.13c0-.05,0-.12,0-.18h3.88a1.66,1.66,0,0,0-1.82-1.46,1.9,1.9,0,0,0-1.42.55l-.36-.37a2.41,2.41,0,0,1,1.8-.69A2.21,2.21,0,0,1,86,390.83Zm-.63.24H82.06a1.67,1.67,0,0,0,3.29,0Z"/><path class="cls-2" d="M94.85,390.48v2.44h-.63v-2.38a1.21,1.21,0,0,0-1.33-1.35,1.42,1.42,0,0,0-1.55,1.52v2.21h-.63v-2.38a1.21,1.21,0,0,0-1.34-1.35,1.42,1.42,0,0,0-1.55,1.52v2.21h-.63v-4.21h.6v.77a2,2,0,0,1,1.7-.8,1.69,1.69,0,0,1,1.65.89,2.1,2.1,0,0,1,1.84-.89A1.67,1.67,0,0,1,94.85,390.48Z"/><path class="cls-2" d="M100.12,390.81l-1.1.91v1.2H98.4V387H99v4l2.77-2.3h.78l-2,1.72,2.17,2.49H102Z"/><path class="cls-2" d="M103.46,387.5a.42.42,0,0,1,.84,0,.42.42,0,0,1-.84,0Zm.1,1.21h.63v4.21h-.63Z"/><path class="cls-2" d="M106.4,392.52a1.11,1.11,0,0,1-.12.46l-.37,1.11h-.42l.3-1.16a.41.41,0,0,1-.32-.41.47.47,0,0,1,.93,0Z"/><path class="cls-2" d="M109.17,390.12a3,3,0,0,1,3.24-2.85,3.18,3.18,0,0,1,2.26.82l-.42.38a2.55,2.55,0,0,0-1.82-.67,2.34,2.34,0,1,0,0,4.64,2.55,2.55,0,0,0,1.82-.67l.42.37a3.16,3.16,0,0,1-2.27.83A3,3,0,0,1,109.17,390.12Z"/><path class="cls-2" d="M121.05,387.32l-2.73,5.6h-.64l-2.74-5.6h.71l2.36,4.86,2.38-4.86Z"/><path class="cls-2" d="M121.34,390.51h2.31V391h-2.31Z"/><path class="cls-2" d="M129.31,387v5.93h-.6v-.83a2.06,2.06,0,0,1-1.79.87,2.15,2.15,0,1,1,0-4.28,2.08,2.08,0,0,1,1.76.83V387Zm-.62,3.83a1.73,1.73,0,1,0-1.72,1.64A1.61,1.61,0,0,0,128.69,390.82Z"/><path class="cls-2" d="M135,390.83a2.13,2.13,0,0,1-2.27,2.13,2.11,2.11,0,0,1-2.25-2.13c0-.05,0-.12,0-.18h3.88a1.66,1.66,0,0,0-1.82-1.46,1.9,1.9,0,0,0-1.42.55l-.36-.37a2.4,2.4,0,0,1,1.79-.69A2.21,2.21,0,0,1,135,390.83Zm-.63.24h-3.29a1.67,1.67,0,0,0,3.29,0Z"/><path class="cls-2" d="M142.4,388.71v5.76h-.63v-2.34A2.1,2.1,0,0,1,140,393a2.15,2.15,0,1,1,0-4.28,2.08,2.08,0,0,1,1.79.87v-.84Zm-.62,2.11a1.73,1.73,0,1,0-1.72,1.64A1.62,1.62,0,0,0,141.78,390.82Z"/><path class="cls-2" d="M148.12,391h-3.88a1.67,1.67,0,0,0,1.82,1.47,1.91,1.91,0,0,0,1.42-.56l.36.37a2.4,2.4,0,0,1-1.79.69,2.21,2.21,0,0,1-2.44-2.14,2.13,2.13,0,0,1,2.27-2.14,2.11,2.11,0,0,1,2.25,2.14C148.13,390.87,148.12,390.93,148.12,391Zm-3.88-.42h3.29a1.67,1.67,0,0,0-3.29,0Z"/><path class="cls-2" d="M153.15,388.71l-2.32,4.71a1.57,1.57,0,0,1-1.54,1.09,1.71,1.71,0,0,1-1.13-.38l.29-.43a1.21,1.21,0,0,0,.85.32c.41,0,.69-.17,1-.7l.2-.41-2.07-4.2H149l1.75,3.58,1.74-3.58Z"/><path class="cls-2" d="M158.07,387v5.93h-.6v-.83a2.07,2.07,0,0,1-1.79.87,2.15,2.15,0,1,1,0-4.28,2.1,2.1,0,0,1,1.76.83V387Zm-.62,3.83a1.73,1.73,0,1,0-1.72,1.64A1.61,1.61,0,0,0,157.45,390.82Z"/><path class="cls-2" d="M165.7,391h-3.88a1.67,1.67,0,0,0,1.83,1.47,1.94,1.94,0,0,0,1.42-.56l.35.37a2.4,2.4,0,0,1-1.79.69,2.21,2.21,0,0,1-2.44-2.14,2.14,2.14,0,0,1,2.27-2.14,2.1,2.1,0,0,1,2.25,2.14C165.71,390.87,165.7,390.93,165.7,391Zm-3.88-.42h3.29a1.67,1.67,0,0,0-3.29,0Z"/><path class="cls-2" d="M169.37,392.66a1.62,1.62,0,0,1-1,.3c-.87,0-1.35-.45-1.35-1.22v-2.55h-.83v-.48H167v-.92h.62v.92h1.41v.48h-1.41v2.51a.71.71,0,0,0,.81.77,1.1,1.1,0,0,0,.68-.21Z"/><path class="cls-2" d="M174.5,387v5.93h-.6v-.83a2.06,2.06,0,0,1-1.79.87,2.15,2.15,0,1,1,0-4.28,2.12,2.12,0,0,1,1.77.83V387Zm-.62,3.83a1.72,1.72,0,1,0-1.72,1.64A1.61,1.61,0,0,0,173.88,390.82Z"/><path class="cls-2" d="M176.08,387.5a.42.42,0,0,1,.84,0,.42.42,0,0,1-.84,0Zm.1,1.21h.63v4.21h-.63Z"/><path class="cls-2" d="M182.39,388.71l-2.32,4.71a1.57,1.57,0,0,1-1.55,1.09,1.73,1.73,0,0,1-1.13-.38l.3-.43a1.19,1.19,0,0,0,.84.32c.42,0,.7-.17,1-.7l.21-.41-2.08-4.2h.66l1.74,3.58,1.75-3.58Z"/><path class="cls-2" d="M183.1,387.5a.42.42,0,0,1,.84,0,.42.42,0,0,1-.84,0Zm.1,1.21h.63v4.21h-.63Z"/><path class="cls-2" d="M193.16,390.48v2.44h-.62v-2.38a1.21,1.21,0,0,0-1.33-1.35,1.42,1.42,0,0,0-1.56,1.52v2.21H189v-2.38a1.22,1.22,0,0,0-1.34-1.35,1.42,1.42,0,0,0-1.56,1.52v2.21h-.62v-4.21h.6v.77a1.94,1.94,0,0,1,1.7-.8,1.69,1.69,0,0,1,1.65.89,2.1,2.1,0,0,1,1.84-.89A1.66,1.66,0,0,1,193.16,390.48Z"/><path class="cls-2" d="M201.42,390.82a2.15,2.15,0,0,1-2.31,2.14,2.08,2.08,0,0,1-1.8-.87v.83h-.6V387h.63v2.52a2.1,2.1,0,0,1,1.77-.83A2.15,2.15,0,0,1,201.42,390.82Zm-.63,0a1.73,1.73,0,1,0-1.73,1.64A1.62,1.62,0,0,0,200.79,390.82Z"/><path class="cls-2" d="M206.1,390.31v2.61h-.6v-.66a1.78,1.78,0,0,1-1.59.7c-1,0-1.7-.5-1.7-1.22s.46-1.19,1.79-1.19h1.48v-.26c0-.72-.45-1.11-1.32-1.11a2.53,2.53,0,0,0-1.54.49l-.28-.42a3.11,3.11,0,0,1,1.88-.57C205.42,388.68,206.1,389.23,206.1,390.31Zm-.62,1.35V391H204c-.9,0-1.19.32-1.19.75s.43.79,1.17.79A1.5,1.5,0,0,0,205.48,391.66Z"/><path class="cls-2" d="M207.29,390.82a2.19,2.19,0,0,1,2.39-2.14,2.11,2.11,0,0,1,1.82.83l-.47.29a1.64,1.64,0,0,0-1.35-.62,1.64,1.64,0,1,0,0,3.28,1.64,1.64,0,0,0,1.35-.62l.47.29a2.13,2.13,0,0,1-1.82.83A2.2,2.2,0,0,1,207.29,390.82Z"/><path class="cls-2" d="M216.16,390.31v2.61h-.6v-.66a1.8,1.8,0,0,1-1.6.7c-1.05,0-1.69-.5-1.69-1.22s.45-1.19,1.79-1.19h1.47v-.26c0-.72-.45-1.11-1.31-1.11a2.56,2.56,0,0,0-1.55.49l-.28-.42a3.16,3.16,0,0,1,1.89-.57C215.48,388.68,216.16,389.23,216.16,390.31Zm-.63,1.35V391h-1.46c-.89,0-1.19.32-1.19.75s.44.79,1.18.79A1.5,1.5,0,0,0,215.53,391.66Z"/><path class="cls-2" d="M220.13,388.68v.55H220a1.42,1.42,0,0,0-1.56,1.55v2.14h-.63v-4.21h.6v.83A1.79,1.79,0,0,1,220.13,388.68Z"/><path class="cls-2" d="M221.19,388.71h.63v4.21h-.63Z"/><path class="cls-2" d="M227.73,388.71v5.76h-.63v-2.34a2.08,2.08,0,0,1-1.76.83,2.15,2.15,0,1,1,0-4.28,2.08,2.08,0,0,1,1.79.87v-.84Zm-.62,2.11a1.73,1.73,0,1,0-1.72,1.64A1.62,1.62,0,0,0,227.11,390.82Z"/><path class="cls-2" d="M229.07,390.51h2.31V391h-2.31Z"/><path class="cls-2" d="M43.6,398h.62v5.93H43.6Z"/><path class="cls-2" d="M49.6,401.31v2.61H49v-.66a1.79,1.79,0,0,1-1.6.7c-1,0-1.69-.5-1.69-1.22s.46-1.19,1.79-1.19H49v-.26c0-.72-.45-1.11-1.31-1.11a2.51,2.51,0,0,0-1.54.49l-.29-.42a3.16,3.16,0,0,1,1.89-.57C48.92,399.68,49.6,400.23,49.6,401.31ZM49,402.66V402H47.52c-.9,0-1.19.32-1.19.75s.43.79,1.17.79A1.49,1.49,0,0,0,49,402.66Z"/><path class="cls-2" d="M53.76,399.68v.55h-.14a1.43,1.43,0,0,0-1.57,1.55v2.14h-.62v-4.21H52v.83A1.78,1.78,0,0,1,53.76,399.68Z"/><path class="cls-2" d="M55,399.71h.63v4.21H55Z"/><path class="cls-2" d="M65.18,401.48v2.44h-.63v-2.38a1.21,1.21,0,0,0-1.33-1.35,1.42,1.42,0,0,0-1.55,1.52v2.21H61v-2.38a1.21,1.21,0,0,0-1.34-1.35,1.42,1.42,0,0,0-1.55,1.52v2.21h-.63v-4.21h.6v.77a2,2,0,0,1,1.7-.8,1.69,1.69,0,0,1,1.65.89,2.1,2.1,0,0,1,1.84-.89A1.67,1.67,0,0,1,65.18,401.48Z"/><path class="cls-2" d="M69.85,398.5a.42.42,0,0,1,.84,0,.42.42,0,0,1-.84,0Zm.1,1.21h.63v4.21H70Z"/><path class="cls-2" d="M73.88,404l-.1.38c.48,0,.74.29.74.64s-.4.7-1,.7a1.36,1.36,0,0,1-.74-.19l.15-.3a1,1,0,0,0,.58.15c.35,0,.55-.13.55-.37s-.18-.37-.55-.37h-.2l.18-.65a3.13,3.13,0,0,1-1.69-.51l.28-.45a3,3,0,0,0,1.65.47c.88,0,1.24-.27,1.24-.68,0-1.1-3-.24-3-1.9,0-.69.66-1.2,1.84-1.2a3.4,3.4,0,0,1,1.64.39l-.27.46a2.53,2.53,0,0,0-1.37-.36c-.84,0-1.21.3-1.21.7,0,1.13,3,.28,3,1.89C75.61,403.45,75,403.91,73.88,404Z"/><path class="cls-2" d="M82.28,403.66a1.61,1.61,0,0,1-1,.3c-.87,0-1.36-.45-1.36-1.22v-2.55h-.82v-.48h.82v-.92h.63v.92H82v.48H80.57v2.51a.71.71,0,0,0,.8.77,1.13,1.13,0,0,0,.69-.21Z"/><path class="cls-2" d="M87.43,401.83A2.14,2.14,0,0,1,85.16,404a2.1,2.1,0,0,1-2.25-2.13c0-.05,0-.12,0-.18H86.8A1.66,1.66,0,0,0,85,400.19a1.93,1.93,0,0,0-1.42.55l-.35-.37a2.4,2.4,0,0,1,1.79-.69A2.21,2.21,0,0,1,87.43,401.83Zm-.63.24H83.51a1.67,1.67,0,0,0,3.29,0Z"/><path class="cls-2" d="M88.19,403.44l.28-.45a2.93,2.93,0,0,0,1.65.47c.88,0,1.24-.27,1.24-.68,0-1.1-3-.24-3-1.9,0-.69.66-1.2,1.84-1.2a3.4,3.4,0,0,1,1.64.39l-.27.46a2.53,2.53,0,0,0-1.37-.36c-.84,0-1.21.3-1.21.7,0,1.13,3,.28,3,1.89,0,.73-.71,1.2-1.92,1.2A3.28,3.28,0,0,1,88.19,403.44Z"/><path class="cls-2" d="M97.08,399.71,95,403.92h-.65l-2.05-4.21H93l1.74,3.59,1.75-3.59Z"/><path class="cls-2" d="M98,398.5a.42.42,0,0,1,.84,0,.42.42,0,0,1-.84,0Zm.1,1.21h.63v4.21h-.63Z"/><path class="cls-2" d="M102.93,399.68v.55h-.15a1.42,1.42,0,0,0-1.56,1.55v2.14h-.63v-4.21h.6v.83A1.79,1.79,0,0,1,102.93,399.68Z"/><path class="cls-2" d="M104.08,398.5a.39.39,0,0,1,.42-.38.4.4,0,0,1,.43.38.41.41,0,0,1-.43.38A.4.4,0,0,1,104.08,398.5Zm.1,1.21h.63v4.21h-.63Z"/><path class="cls-2" d="M111,401.48v2.44h-.62v-2.38a1.24,1.24,0,0,0-1.4-1.35,1.45,1.45,0,0,0-1.62,1.52v2.21h-.63v-4.21h.6v.78a2,2,0,0,1,1.77-.81A1.69,1.69,0,0,1,111,401.48Z"/><path class="cls-2" d="M116.85,401.83a2.13,2.13,0,0,1-2.27,2.13,2.11,2.11,0,0,1-2.25-2.13c0-.05,0-.12,0-.18h3.88a1.66,1.66,0,0,0-1.82-1.46,1.9,1.9,0,0,0-1.42.55l-.36-.37a2.4,2.4,0,0,1,1.79-.69A2.21,2.21,0,0,1,116.85,401.83Zm-.63.24h-3.29a1.67,1.67,0,0,0,3.29,0Z"/><path class="cls-2" d="M125.1,399.71,123,403.92h-.65l-2-4.21H121l1.74,3.59,1.75-3.59Z"/><path class="cls-2" d="M130,401.83a2.13,2.13,0,0,1-2.26,2.13,2.1,2.1,0,0,1-2.25-2.13c0-.05,0-.12,0-.18h3.88a1.67,1.67,0,0,0-1.83-1.46,1.91,1.91,0,0,0-1.42.55l-.35-.37a2.39,2.39,0,0,1,1.79-.69A2.2,2.2,0,0,1,130,401.83Zm-.62.24h-3.29a1.67,1.67,0,0,0,3.29,0Z"/><path class="cls-2" d="M135.8,404l-.1.38c.48,0,.75.29.75.64s-.41.7-1,.7a1.36,1.36,0,0,1-.74-.19l.15-.3a1.07,1.07,0,0,0,.58.15c.36,0,.55-.13.55-.37s-.18-.37-.55-.37h-.2l.18-.65a3.16,3.16,0,0,1-1.69-.51L134,403a3,3,0,0,0,1.65.47c.89,0,1.25-.27,1.25-.68,0-1.1-3-.24-3-1.9,0-.69.65-1.2,1.83-1.2a3.4,3.4,0,0,1,1.64.39l-.27.46a2.53,2.53,0,0,0-1.37-.36c-.84,0-1.2.3-1.2.7,0,1.13,3,.28,3,1.89C137.53,403.45,136.9,403.91,135.8,404Z"/><path class="cls-2" d="M138.71,398.5a.42.42,0,0,1,.84,0,.42.42,0,0,1-.84,0Zm.1,1.21h.63v4.21h-.63Z"/><path class="cls-2" d="M143.65,399.68v.55h-.15a1.42,1.42,0,0,0-1.56,1.55v2.14h-.63v-4.21h.6v.83A1.81,1.81,0,0,1,143.65,399.68Z"/><path class="cls-2" d="M146.63,401.81l-1.1.91v1.2h-.62V398h.62v4l2.77-2.3h.78l-2,1.72,2.17,2.49h-.77Z"/><path class="cls-2" d="M154.2,401.83a2.13,2.13,0,0,1-2.27,2.13,2.11,2.11,0,0,1-2.25-2.13c0-.05,0-.12,0-.18h3.88a1.66,1.66,0,0,0-1.82-1.46,1.9,1.9,0,0,0-1.42.55l-.36-.37a2.4,2.4,0,0,1,1.79-.69A2.21,2.21,0,0,1,154.2,401.83Zm-.63.24h-3.29a1.67,1.67,0,0,0,3.29,0Z"/><path class="cls-2" d="M158.05,403.66a1.61,1.61,0,0,1-1,.3c-.88,0-1.36-.45-1.36-1.22v-2.55h-.83v-.48h.83v-.92h.63v.92h1.41v.48h-1.41v2.51a.71.71,0,0,0,.8.77,1.15,1.15,0,0,0,.69-.21Z"/><path class="cls-2" d="M159.21,398.5a.42.42,0,0,1,.84,0,.42.42,0,0,1-.84,0Zm.1,1.21h.63v4.21h-.63Z"/><path class="cls-2" d="M166.08,401.48v2.44h-.63v-2.38a1.23,1.23,0,0,0-1.39-1.35,1.45,1.45,0,0,0-1.62,1.52v2.21h-.63v-4.21h.6v.78a2,2,0,0,1,1.76-.81A1.7,1.7,0,0,1,166.08,401.48Z"/><path class="cls-2" d="M167.8,398.5a.43.43,0,0,1,.85,0,.43.43,0,0,1-.85,0Zm.11,1.21h.62v4.21h-.62Z"/><path class="cls-2" d="M173.68,403.45v.47H169.9v-.38l2.92-3.35H170v-.48h3.67v.38l-2.92,3.36Z"/><path class="cls-2" d="M174.94,398.5a.42.42,0,0,1,.84,0,.42.42,0,0,1-.84,0Zm.1,1.21h.63v4.21H175Z"/><path class="cls-2" d="M181.81,401.48v2.44h-.63v-2.38a1.23,1.23,0,0,0-1.39-1.35,1.45,1.45,0,0,0-1.62,1.52v2.21h-.63v-4.21h.6v.78a2,2,0,0,1,1.76-.81A1.7,1.7,0,0,1,181.81,401.48Z"/><path class="cls-2" d="M191.29,401.82A2.14,2.14,0,0,1,189,404a2.1,2.1,0,0,1-1.77-.83v2.34h-.62v-5.76h.6v.84a2.07,2.07,0,0,1,1.79-.87A2.15,2.15,0,0,1,191.29,401.82Zm-.63,0a1.73,1.73,0,1,0-1.73,1.64A1.63,1.63,0,0,0,190.66,401.82Z"/><path class="cls-2" d="M196.73,402h-3.88a1.67,1.67,0,0,0,1.83,1.47,1.94,1.94,0,0,0,1.42-.56l.35.37a2.39,2.39,0,0,1-1.79.69,2.21,2.21,0,0,1-2.44-2.14,2.14,2.14,0,0,1,2.27-2.14,2.1,2.1,0,0,1,2.25,2.14C196.74,401.87,196.73,401.93,196.73,402Zm-3.88-.42h3.29a1.67,1.67,0,0,0-3.29,0Z"/><path class="cls-2" d="M200.48,399.68v.55h-.15a1.42,1.42,0,0,0-1.56,1.55v2.14h-.62v-4.21h.6v.83A1.78,1.78,0,0,1,200.48,399.68Z"/><path class="cls-2" d="M201.13,403.44l.28-.45a3,3,0,0,0,1.65.47c.89,0,1.25-.27,1.25-.68,0-1.1-3-.24-3-1.9,0-.69.65-1.2,1.83-1.2a3.4,3.4,0,0,1,1.64.39l-.27.46a2.53,2.53,0,0,0-1.37-.36c-.83,0-1.2.3-1.2.7,0,1.13,3,.28,3,1.89,0,.73-.7,1.2-1.91,1.2A3.3,3.3,0,0,1,201.13,403.44Z"/><path class="cls-2" d="M210.92,401.82a2.14,2.14,0,0,1-2.31,2.14,2.1,2.1,0,0,1-1.77-.83v2.34h-.63v-5.76h.6v.84a2.1,2.1,0,0,1,1.8-.87A2.15,2.15,0,0,1,210.92,401.82Zm-.63,0a1.73,1.73,0,1,0-1.73,1.64A1.63,1.63,0,0,0,210.29,401.82Z"/><path class="cls-2" d="M216.36,402h-3.88a1.67,1.67,0,0,0,1.83,1.47,1.94,1.94,0,0,0,1.42-.56l.35.37a2.4,2.4,0,0,1-1.79.69,2.21,2.21,0,0,1-2.44-2.14,2.14,2.14,0,0,1,2.27-2.14,2.1,2.1,0,0,1,2.25,2.14C216.37,401.87,216.36,401.93,216.36,402Zm-3.88-.42h3.29a1.67,1.67,0,0,0-3.29,0Z"/><path class="cls-2" d="M219.49,401.81l-1.09.91v1.2h-.62V398h.62v4l2.77-2.3H222l-2,1.72,2.17,2.49h-.76Z"/><path class="cls-2" d="M225.65,403.66a1.61,1.61,0,0,1-1,.3c-.88,0-1.36-.45-1.36-1.22v-2.55h-.83v-.48h.83v-.92h.63v.92h1.41v.48h-1.41v2.51a.71.71,0,0,0,.8.77,1.15,1.15,0,0,0,.69-.21Z"/><path class="cls-2" d="M226.8,398.5a.43.43,0,1,1,.43.38A.41.41,0,0,1,226.8,398.5Zm.11,1.21h.63v4.21h-.63Z"/><path class="cls-2" d="M229.07,401.51h2.31V402h-2.31Z"/><path class="cls-2" d="M47.5,410.71l-2.07,4.21h-.64l-2.06-4.21h.65l1.74,3.59,1.76-3.59Z"/><path class="cls-2" d="M48.27,409.5a.43.43,0,1,1,.43.38A.41.41,0,0,1,48.27,409.5Zm.11,1.21H49v4.21h-.62Z"/><path class="cls-2" d="M55,412.48v2.44h-.63v-2.38A1.23,1.23,0,0,0,53,411.19a1.45,1.45,0,0,0-1.62,1.52v2.21h-.63v-4.21h.6v.78a2,2,0,0,1,1.77-.81A1.69,1.69,0,0,1,55,412.48Z"/><path class="cls-2" d="M60.79,412.83A2.13,2.13,0,0,1,58.52,415a2.11,2.11,0,0,1-2.25-2.13c0-.05,0-.12,0-.18h3.88a1.66,1.66,0,0,0-1.82-1.46,1.9,1.9,0,0,0-1.42.55l-.36-.37a2.41,2.41,0,0,1,1.8-.69A2.21,2.21,0,0,1,60.79,412.83Zm-.63.24H56.87a1.67,1.67,0,0,0,3.29,0Z"/><path class="cls-2" d="M68.56,410.71v4.21H68v-.77a1.91,1.91,0,0,1-1.67.81,1.72,1.72,0,0,1-2-1.81v-2.44H65v2.39a1.23,1.23,0,0,0,1.39,1.35,1.44,1.44,0,0,0,1.58-1.53v-2.21Z"/><path class="cls-2" d="M74.21,410.71l-2.32,4.71a1.56,1.56,0,0,1-1.54,1.09,1.71,1.71,0,0,1-1.13-.38l.29-.43a1.21,1.21,0,0,0,.85.32c.41,0,.7-.17,1-.7l.2-.41-2.07-4.2h.65l1.75,3.58,1.75-3.58Z"/><path class="cls-2" d="M79.26,410.71v3.7c0,1.45-.79,2.1-2.32,2.1a3.41,3.41,0,0,1-2.16-.65l.32-.43a2.93,2.93,0,0,0,1.82.58c1.17,0,1.71-.49,1.71-1.53v-.54a2.16,2.16,0,0,1-1.81.82,2.06,2.06,0,1,1,0-4.08,2.18,2.18,0,0,1,1.84.84v-.81Zm-.61,2a1.77,1.77,0,1,0-1.76,1.55A1.59,1.59,0,0,0,78.65,412.71Zm-3-3.63h.44c0,.42.4.67.9.67s.88-.25.9-.67h.44c0,.63-.6,1-1.34,1S75.64,409.71,75.62,409.08Z"/><path class="cls-2" d="M85.2,410.71v4.21h-.6v-.77a1.91,1.91,0,0,1-1.67.81,1.72,1.72,0,0,1-2-1.81v-2.44h.63v2.39A1.23,1.23,0,0,0,83,414.45a1.44,1.44,0,0,0,1.58-1.53v-2.21Z"/><path class="cls-2" d="M91.22,412.48v2.44h-.63v-2.38a1.23,1.23,0,0,0-1.39-1.35,1.45,1.45,0,0,0-1.62,1.52v2.21H87v-4.21h.6v.78a2,2,0,0,1,1.76-.81A1.7,1.7,0,0,1,91.22,412.48Z"/><path class="cls-2" d="M97.17,409v5.93h-.6v-.83a2,2,0,0,1-1.79.87,2.15,2.15,0,1,1,0-4.28,2.12,2.12,0,0,1,1.77.83V409Zm-.61,3.83a1.73,1.73,0,1,0-1.72,1.64A1.62,1.62,0,0,0,96.56,412.82Z"/><path class="cls-2" d="M103.1,410.71v4.21h-.6v-.77a1.89,1.89,0,0,1-1.67.81,1.71,1.71,0,0,1-2-1.81v-2.44h.62v2.39a1.24,1.24,0,0,0,1.4,1.35,1.43,1.43,0,0,0,1.57-1.53v-2.21Z"/><path class="cls-2" d="M107.19,410.68v.55h-.14a1.43,1.43,0,0,0-1.57,1.55v2.14h-.62v-4.21h.6v.83A1.78,1.78,0,0,1,107.19,410.68Z"/><path class="cls-2" d="M107.9,414.52a.44.44,0,0,1,.47-.43.45.45,0,0,1,.47.43.46.46,0,0,1-.47.44A.45.45,0,0,1,107.9,414.52Z"/><path class="cls-2" d="M43.18,424.12a3,3,0,0,1,3.24-2.85,3.18,3.18,0,0,1,2.26.82l-.42.38a2.55,2.55,0,0,0-1.82-.67,2.34,2.34,0,1,0,0,4.64,2.55,2.55,0,0,0,1.82-.67l.42.37a3.16,3.16,0,0,1-2.27.83A3,3,0,0,1,43.18,424.12Z"/><path class="cls-2" d="M55.2,421.32l-2.74,5.6h-.64l-2.74-5.6h.71l2.36,4.86,2.39-4.86Z"/><path class="cls-2" d="M55.61,424.51h2.31V425H55.61Z"/><path class="cls-2" d="M63.66,424.48v2.44H63v-2.38a1.23,1.23,0,0,0-1.39-1.35A1.46,1.46,0,0,0,60,424.71v2.21h-.62v-4.21H60v.78a2,2,0,0,1,1.76-.81A1.7,1.7,0,0,1,63.66,424.48Z"/><path class="cls-2" d="M65.32,421.5a.42.42,0,0,1,.84,0,.42.42,0,0,1-.84,0Zm.1,1.21h.63v4.21h-.63Z"/><path class="cls-2" d="M75.14,424.48v2.44h-.63v-2.38a1.23,1.23,0,0,0-1.39-1.35,1.46,1.46,0,0,0-1.63,1.52v2.21h-.62v-4.21h.6v.78a2,2,0,0,1,1.76-.81A1.7,1.7,0,0,1,75.14,424.48Z"/><path class="cls-2" d="M81,424.83A2.13,2.13,0,0,1,78.7,427a2.11,2.11,0,0,1-2.25-2.13c0-.05,0-.12,0-.18h3.88a1.66,1.66,0,0,0-1.82-1.46,1.9,1.9,0,0,0-1.42.55l-.36-.37a2.4,2.4,0,0,1,1.79-.69A2.21,2.21,0,0,1,81,424.83Zm-.63.24H77.05a1.67,1.67,0,0,0,3.29,0Z"/><path class="cls-2" d="M85.5,426.45v.47H81.73v-.38l2.92-3.35H81.78v-.48h3.67v.38l-2.92,3.36Z"/><path class="cls-2" d="M90.77,424.83A2.13,2.13,0,0,1,88.5,427a2.11,2.11,0,0,1-2.25-2.13c0-.05,0-.12,0-.18h3.88a1.66,1.66,0,0,0-1.82-1.46,1.9,1.9,0,0,0-1.42.55l-.36-.37a2.4,2.4,0,0,1,1.79-.69A2.21,2.21,0,0,1,90.77,424.83Zm-.63.24H86.85a1.67,1.67,0,0,0,3.29,0Z"/><path class="cls-2" d="M94.45,422.68v.55H94.3a1.43,1.43,0,0,0-1.57,1.55v2.14h-.62v-4.21h.6v.83A1.79,1.79,0,0,1,94.45,422.68Z"/><path class="cls-2" d="M99.83,421v5.93h-.6v-.83a2.06,2.06,0,0,1-1.79.87,2.15,2.15,0,1,1,0-4.28,2.1,2.1,0,0,1,1.76.83V421Zm-.62,3.83a1.73,1.73,0,1,0-1.72,1.64A1.61,1.61,0,0,0,99.21,424.82Z"/><path class="cls-2" d="M105.69,424.83a2.14,2.14,0,0,1-2.27,2.13,2.1,2.1,0,0,1-2.25-2.13c0-.05,0-.12,0-.18h3.88a1.66,1.66,0,0,0-1.83-1.46,1.93,1.93,0,0,0-1.42.55l-.35-.37a2.4,2.4,0,0,1,1.79-.69A2.21,2.21,0,0,1,105.69,424.83Zm-.63.24h-3.29a1.67,1.67,0,0,0,3.29,0Z"/><path class="cls-2" d="M111.3,424.48v2.44h-.63v-2.38a1.23,1.23,0,0,0-1.39-1.35,1.46,1.46,0,0,0-1.63,1.52v2.21H107v-4.21h.6v.78a2,2,0,0,1,1.76-.81A1.7,1.7,0,0,1,111.3,424.48Z"/><path class="cls-2" d="M117.79,424.81l-1.09.91v1.2h-.63V421h.63v4l2.77-2.3h.77l-2,1.72,2.17,2.49h-.77Z"/><path class="cls-2" d="M125.29,425h-3.88a1.67,1.67,0,0,0,1.82,1.47,1.91,1.91,0,0,0,1.42-.56l.36.37a2.41,2.41,0,0,1-1.8.69,2.21,2.21,0,0,1-2.43-2.14,2.13,2.13,0,0,1,2.27-2.14,2.11,2.11,0,0,1,2.25,2.14C125.3,424.87,125.29,424.93,125.29,425Zm-3.88-.42h3.29a1.67,1.67,0,0,0-3.29,0Z"/><path class="cls-2" d="M129.91,425.84l.47.29a2.12,2.12,0,0,1-1.82.83h0l-.1.38c.48,0,.75.29.75.64s-.41.7-1,.7a1.36,1.36,0,0,1-.74-.19l.15-.3a1.07,1.07,0,0,0,.58.15c.36,0,.55-.13.55-.37s-.18-.37-.55-.37H128l.19-.66a2.14,2.14,0,0,1-2-2.12,2.19,2.19,0,0,1,2.39-2.14,2.1,2.1,0,0,1,1.82.83l-.47.29a1.64,1.64,0,0,0-1.35-.62,1.64,1.64,0,1,0,0,3.28A1.64,1.64,0,0,0,129.91,425.84Z"/><path class="cls-2" d="M131.56,421.5a.43.43,0,0,1,.85,0,.43.43,0,0,1-.85,0Zm.11,1.21h.62v4.21h-.62Z"/><path class="cls-2" d="M136.44,422.68v.55h-.15a1.42,1.42,0,0,0-1.56,1.55v2.14h-.63v-4.21h.6v.83A1.79,1.79,0,0,1,136.44,422.68Z"/><path class="cls-2" d="M145.29,424.48v2.44h-.63v-2.38a1.21,1.21,0,0,0-1.33-1.35,1.42,1.42,0,0,0-1.55,1.52v2.21h-.63v-2.38a1.21,1.21,0,0,0-1.34-1.35,1.42,1.42,0,0,0-1.55,1.52v2.21h-.63v-4.21h.6v.77a2,2,0,0,1,1.7-.8,1.69,1.69,0,0,1,1.65.89,2.1,2.1,0,0,1,1.84-.89A1.67,1.67,0,0,1,145.29,424.48Z"/><path class="cls-2" d="M151.12,424.83a2.13,2.13,0,0,1-2.27,2.13,2.11,2.11,0,0,1-2.25-2.13c0-.05,0-.12,0-.18h3.88a1.66,1.66,0,0,0-1.82-1.46,1.9,1.9,0,0,0-1.42.55l-.36-.37a2.4,2.4,0,0,1,1.79-.69A2.21,2.21,0,0,1,151.12,424.83Zm-.63.24H147.2a1.67,1.67,0,0,0,3.29,0Z"/><path class="cls-2" d="M156.22,422.71l-2.32,4.71a1.56,1.56,0,0,1-1.54,1.09,1.71,1.71,0,0,1-1.13-.38l.29-.43a1.23,1.23,0,0,0,.85.32c.42,0,.7-.17,1-.7l.2-.41-2.07-4.2h.65l1.75,3.58,1.75-3.58Z"/><path class="cls-2" d="M161.09,424.83a2.13,2.13,0,0,1-2.27,2.13,2.1,2.1,0,0,1-2.25-2.13c0-.05,0-.12,0-.18h3.88a1.66,1.66,0,0,0-1.83-1.46,1.93,1.93,0,0,0-1.42.55l-.35-.37a2.4,2.4,0,0,1,1.79-.69A2.21,2.21,0,0,1,161.09,424.83Zm-.63.24h-3.29a1.67,1.67,0,0,0,3.29,0Z"/><path class="cls-2" d="M169.34,422.71l-2.07,4.21h-.64l-2.06-4.21h.66L167,426.3l1.76-3.59Z"/><path class="cls-2" d="M173.64,424.31v2.61H173v-.66a1.78,1.78,0,0,1-1.59.7c-1.06,0-1.7-.5-1.7-1.22s.46-1.19,1.79-1.19H173v-.26c0-.72-.45-1.11-1.31-1.11a2.53,2.53,0,0,0-1.54.49l-.28-.42a3.11,3.11,0,0,1,1.88-.57C173,422.68,173.64,423.23,173.64,424.31Zm-.63,1.35V425h-1.45c-.9,0-1.19.32-1.19.75s.43.79,1.17.79A1.48,1.48,0,0,0,173,425.66Z"/><path class="cls-2" d="M178.36,426.92l-1.47-1.76-1.49,1.76h-.7l1.83-2.16-1.74-2.05h.7l1.4,1.65,1.39-1.65H179l-1.75,2.05,1.85,2.16Z"/><path class="cls-2" d="M182.62,426.66a1.61,1.61,0,0,1-1,.3c-.87,0-1.36-.45-1.36-1.22v-2.55h-.82v-.48h.82v-.92h.63v.92h1.41v.48h-1.41v2.51a.71.71,0,0,0,.8.77,1.13,1.13,0,0,0,.69-.21Z"/><path class="cls-2" d="M190.33,424.31v2.61h-.6v-.66a1.78,1.78,0,0,1-1.59.7c-1,0-1.7-.5-1.7-1.22s.46-1.19,1.79-1.19h1.48v-.26c0-.72-.45-1.11-1.32-1.11a2.53,2.53,0,0,0-1.54.49l-.28-.42a3.14,3.14,0,0,1,1.89-.57C189.65,422.68,190.33,423.23,190.33,424.31Zm-.62,1.35V425h-1.46c-.9,0-1.19.32-1.19.75s.43.79,1.17.79A1.5,1.5,0,0,0,189.71,425.66Z"/><path class="cls-2" d="M195.91,422.71l-2.32,4.71a1.57,1.57,0,0,1-1.54,1.09,1.7,1.7,0,0,1-1.13-.38l.29-.43a1.2,1.2,0,0,0,.84.32c.42,0,.7-.17,1-.7l.2-.41-2.07-4.2h.65l1.75,3.58,1.74-3.58Z"/><path class="cls-2" d="M196.85,422.71h.63v4.21h-.63Z"/><path class="cls-2" d="M201.63,422.68v.55h-.15a1.43,1.43,0,0,0-1.57,1.55v2.14h-.62v-4.21h.6v.83A1.79,1.79,0,0,1,201.63,422.68Z"/><path class="cls-2" d="M207,421v5.93h-.6v-.83a2.07,2.07,0,0,1-1.79.87,2.15,2.15,0,1,1,0-4.28,2.1,2.1,0,0,1,1.76.83V421Zm-.62,3.83a1.73,1.73,0,1,0-1.72,1.64A1.61,1.61,0,0,0,206.39,424.82Z"/><path class="cls-2" d="M208.82,422.71h.62v4.21h-.62Z"/><path class="cls-2" d="M215.55,422.71v3.7c0,1.45-.79,2.1-2.32,2.1a3.41,3.41,0,0,1-2.16-.65l.31-.43a3,3,0,0,0,1.83.58c1.17,0,1.71-.49,1.71-1.53v-.54a2.16,2.16,0,0,1-1.81.82,2.06,2.06,0,1,1,0-4.08,2.18,2.18,0,0,1,1.84.84v-.81Zm-.61,2a1.77,1.77,0,1,0-1.76,1.55A1.59,1.59,0,0,0,214.94,424.71Zm-3-3.63h.45c0,.42.4.67.9.67s.88-.25.89-.67h.45c0,.63-.6,1-1.34,1S211.93,421.71,211.9,421.08Z"/><path class="cls-2" d="M217.37,422.71H218v4.21h-.62Z"/><path class="cls-2" d="M224.07,424.48v2.44h-.63v-2.38a1.23,1.23,0,0,0-1.39-1.35,1.45,1.45,0,0,0-1.62,1.52v2.21h-.63v-4.21h.6v.78a2,2,0,0,1,1.76-.81A1.7,1.7,0,0,1,224.07,424.48Z"/><path class="cls-2" d="M225.83,422.71h.63v4.21h-.63Z"/><path class="cls-2" d="M231.54,426.45v.47h-3.77v-.38l2.92-3.35h-2.87v-.48h3.67v.38l-2.92,3.36Z"/><path class="cls-2" d="M47.78,433.71v4.21h-.6v-.77a1.91,1.91,0,0,1-1.67.81,1.72,1.72,0,0,1-2-1.81v-2.44h.63v2.39a1.23,1.23,0,0,0,1.39,1.35,1.44,1.44,0,0,0,1.58-1.53v-2.21Zm-3.27-1.17a.36.36,0,0,1,.37-.35.37.37,0,0,1,.38.35.35.35,0,0,1-.38.34A.34.34,0,0,1,44.51,432.54Zm1.57,0a.37.37,0,0,1,.38-.35.36.36,0,0,1,.37.35.34.34,0,0,1-.37.34A.35.35,0,0,1,46.08,432.54Z"/><path class="cls-2" d="M53.13,436.84l.47.29a2.15,2.15,0,0,1-1.82.83h0l-.11.38c.49,0,.75.29.75.64s-.4.7-1,.7a1.36,1.36,0,0,1-.74-.19l.15-.3a1,1,0,0,0,.58.15c.35,0,.55-.13.55-.37s-.18-.37-.55-.37h-.2l.19-.66a2.14,2.14,0,0,1-2-2.12,2.19,2.19,0,0,1,2.39-2.14,2.12,2.12,0,0,1,1.82.83l-.47.29a1.64,1.64,0,0,0-1.35-.62,1.64,1.64,0,1,0,0,3.28A1.64,1.64,0,0,0,53.13,436.84Z"/><path class="cls-2" d="M59.32,433.71v4.21h-.6v-.77a1.88,1.88,0,0,1-1.66.81,1.72,1.72,0,0,1-2-1.81v-2.44h.63v2.39a1.23,1.23,0,0,0,1.39,1.35,1.44,1.44,0,0,0,1.58-1.53v-2.21Zm-3.27-1.17a.37.37,0,0,1,.38-.35.37.37,0,0,1,.38.35.36.36,0,0,1-.38.34A.35.35,0,0,1,56.05,432.54Zm1.57,0a.37.37,0,0,1,.38-.35.37.37,0,0,1,.38.35.35.35,0,0,1-.38.34A.36.36,0,0,1,57.62,432.54Z"/><path class="cls-2" d="M65.67,435.48v2.44h-.62v-2.38a1.24,1.24,0,0,0-1.4-1.35A1.45,1.45,0,0,0,62,435.71v2.21H61.4v-4.21H62v.78a2,2,0,0,1,1.77-.81A1.69,1.69,0,0,1,65.67,435.48Z"/><path class="cls-2" d="M75.31,437.66a1.61,1.61,0,0,1-1,.3c-.87,0-1.36-.45-1.36-1.22v-2.55h-.83v-.48H73v-.92h.63v.92H75v.48H73.6v2.51a.71.71,0,0,0,.8.77,1.15,1.15,0,0,0,.69-.21Z"/><path class="cls-2" d="M80.65,435.83A2.13,2.13,0,0,1,78.38,438a2.11,2.11,0,0,1-2.25-2.13c0-.05,0-.12,0-.18H80a1.66,1.66,0,0,0-1.82-1.46,1.9,1.9,0,0,0-1.42.55l-.36-.37a2.4,2.4,0,0,1,1.79-.69A2.21,2.21,0,0,1,80.65,435.83Zm-.63.24H76.73a1.67,1.67,0,0,0,3.29,0Z"/><path class="cls-2" d="M83.68,438l-.11.38c.49,0,.75.29.75.64s-.4.7-1,.7a1.42,1.42,0,0,1-.75-.19l.15-.3a1.1,1.1,0,0,0,.59.15c.35,0,.54-.13.54-.37s-.17-.37-.54-.37h-.21l.19-.65a3.13,3.13,0,0,1-1.69-.51l.28-.45a2.93,2.93,0,0,0,1.65.47c.88,0,1.24-.27,1.24-.68,0-1.1-3-.24-3-1.9,0-.69.66-1.2,1.84-1.2a3.4,3.4,0,0,1,1.64.39l-.28.46a2.5,2.5,0,0,0-1.36-.36c-.84,0-1.21.3-1.21.7,0,1.13,3,.28,3,1.89C85.41,437.45,84.77,437.91,83.68,438Z"/><path class="cls-2" d="M90.93,435.83A2.13,2.13,0,0,1,88.67,438a2.1,2.1,0,0,1-2.25-2.13c0-.05,0-.12,0-.18h3.88a1.66,1.66,0,0,0-1.83-1.46,1.91,1.91,0,0,0-1.42.55l-.35-.37a2.39,2.39,0,0,1,1.79-.69A2.2,2.2,0,0,1,90.93,435.83Zm-.62.24H87a1.67,1.67,0,0,0,3.29,0Z"/><path class="cls-2" d="M94.25,435.81l-1.09.91v1.2h-.62V432h.62v4l2.77-2.3h.78l-2,1.72,2.17,2.49h-.76Z"/><path class="cls-2" d="M99.88,435.81l-1.1.91v1.2h-.62V432h.62v4l2.77-2.3h.78l-2,1.72,2.17,2.49h-.77Z"/><path class="cls-2" d="M107.87,433.71v4.21h-.6v-.77a1.88,1.88,0,0,1-1.66.81,1.72,1.72,0,0,1-2-1.81v-2.44h.63v2.39a1.23,1.23,0,0,0,1.39,1.35,1.44,1.44,0,0,0,1.58-1.53v-2.21Zm-3.27-1.17a.37.37,0,0,1,.38-.35.37.37,0,0,1,.38.35.36.36,0,0,1-.38.34A.35.35,0,0,1,104.6,432.54Zm1.57,0a.37.37,0,0,1,.38-.35.37.37,0,0,1,.38.35.35.35,0,0,1-.38.34A.36.36,0,0,1,106.17,432.54Z"/><path class="cls-2" d="M112.29,433.68v.55h-.15a1.42,1.42,0,0,0-1.56,1.55v2.14H110v-4.21h.6v.83A1.79,1.79,0,0,1,112.29,433.68Z"/><path class="cls-2" d="M123,436h-3.88a1.67,1.67,0,0,0,1.82,1.47,1.91,1.91,0,0,0,1.42-.56l.35.37A2.36,2.36,0,0,1,121,438a2.21,2.21,0,0,1-2.44-2.14,2.13,2.13,0,0,1,2.27-2.14,2.11,2.11,0,0,1,2.25,2.14C123,435.87,123,435.93,123,436Zm-3.88-.42h3.29a1.67,1.67,0,0,0-3.29,0Z"/><path class="cls-2" d="M128.86,432v5.93h-.6v-.83a2.06,2.06,0,0,1-1.79.87,2.15,2.15,0,1,1,0-4.28,2.08,2.08,0,0,1,1.76.83V432Zm-.62,3.83a1.72,1.72,0,1,0-1.72,1.64A1.61,1.61,0,0,0,128.24,435.82Z"/><path class="cls-2" d="M130.82,432.5a.4.4,0,0,1,.43-.38.39.39,0,0,1,.42.38.4.4,0,0,1-.42.38A.41.41,0,0,1,130.82,432.5Zm.11,1.21h.63v4.21h-.63Z"/><path class="cls-2" d="M136,433.68v.55h-.15a1.42,1.42,0,0,0-1.56,1.55v2.14h-.62v-4.21h.59v.83A1.81,1.81,0,0,1,136,433.68Z"/><path class="cls-2" d="M141.42,435.83a2.13,2.13,0,0,1-2.27,2.13,2.11,2.11,0,0,1-2.25-2.13c0-.05,0-.12,0-.18h3.88a1.66,1.66,0,0,0-1.82-1.46,1.9,1.9,0,0,0-1.42.55l-.36-.37a2.4,2.4,0,0,1,1.79-.69A2.21,2.21,0,0,1,141.42,435.83Zm-.63.24H137.5a1.67,1.67,0,0,0,3.29,0Z"/><path class="cls-2" d="M150.68,435.48v2.44h-.63v-2.38a1.21,1.21,0,0,0-1.33-1.35,1.42,1.42,0,0,0-1.55,1.52v2.21h-.63v-2.38a1.21,1.21,0,0,0-1.34-1.35,1.42,1.42,0,0,0-1.55,1.52v2.21H143v-4.21h.6v.77a2,2,0,0,1,1.7-.8,1.69,1.69,0,0,1,1.65.89,2.1,2.1,0,0,1,1.84-.89A1.67,1.67,0,0,1,150.68,435.48Z"/><path class="cls-2" d="M152.3,437.52a.44.44,0,0,1,.46-.43.45.45,0,0,1,.48.43.46.46,0,0,1-.48.44A.45.45,0,0,1,152.3,437.52Z"/><path class="cls-2" d="M159.6,437.24l.26-.46a3.16,3.16,0,0,0,2,.68c1.15,0,1.65-.44,1.65-1,0-1.53-3.8-.59-3.8-2.66,0-.82.71-1.54,2.28-1.54a3.77,3.77,0,0,1,1.91.5l-.22.47a3.44,3.44,0,0,0-1.69-.46c-1.13,0-1.63.45-1.63,1,0,1.54,3.8.61,3.8,2.65,0,.82-.73,1.53-2.3,1.53A3.59,3.59,0,0,1,159.6,437.24Z"/><path class="cls-2" d="M165.7,432.5a.43.43,0,1,1,.43.38A.41.41,0,0,1,165.7,432.5Zm.11,1.21h.62v4.21h-.62Z"/><path class="cls-2" d="M171.78,437.45v.47H168v-.38l2.92-3.35h-2.87v-.48h3.67v.38l-2.92,3.36Z"/><path class="cls-2" d="M177.49,432v5.93h-.6v-.83a2.07,2.07,0,0,1-1.79.87,2.15,2.15,0,1,1,0-4.28,2.1,2.1,0,0,1,1.76.83V432Zm-.62,3.83a1.73,1.73,0,1,0-1.72,1.64A1.61,1.61,0,0,0,176.87,435.82Z"/><path class="cls-2" d="M183.6,435.83a2.13,2.13,0,0,1-2.26,2.13,2.1,2.1,0,0,1-2.25-2.13c0-.05,0-.12,0-.18H183a1.66,1.66,0,0,0-1.83-1.46,1.93,1.93,0,0,0-1.42.55l-.35-.37a2.4,2.4,0,0,1,1.79-.69A2.2,2.2,0,0,1,183.6,435.83Zm-.62.24h-3.29a1.67,1.67,0,0,0,3.29,0Z"/><path class="cls-2" d="M189.47,435.48v2.44h-.62v-2.38a1.23,1.23,0,0,0-1.39-1.35,1.46,1.46,0,0,0-1.63,1.52v2.21h-.62v-4.21h.59v.78a2,2,0,0,1,1.77-.81A1.69,1.69,0,0,1,189.47,435.48Z"/><path class="cls-2" d="M204.32,435.48v2.44h-.62v-2.38a1.22,1.22,0,0,0-1.34-1.35,1.42,1.42,0,0,0-1.55,1.52v2.21h-.62v-2.38a1.22,1.22,0,0,0-1.34-1.35,1.42,1.42,0,0,0-1.56,1.52v2.21h-.62v-4.21h.6v.77a1.93,1.93,0,0,1,1.7-.8,1.69,1.69,0,0,1,1.65.89,2.08,2.08,0,0,1,1.83-.89A1.67,1.67,0,0,1,204.32,435.48Z"/><path class="cls-2" d="M210.53,433.71v4.21h-.6v-.77a1.91,1.91,0,0,1-1.67.81,1.72,1.72,0,0,1-2-1.81v-2.44h.63v2.39a1.23,1.23,0,0,0,1.39,1.35,1.44,1.44,0,0,0,1.58-1.53v-2.21Zm-3.27-1.17a.36.36,0,0,1,.37-.35.37.37,0,0,1,.38.35.35.35,0,0,1-.38.34A.34.34,0,0,1,207.26,432.54Zm1.57,0a.37.37,0,0,1,.38-.35.36.36,0,0,1,.37.35.34.34,0,0,1-.37.34A.35.35,0,0,1,208.83,432.54Z"/><path class="cls-2" d="M212,437.44l.28-.45a3,3,0,0,0,1.65.47c.89,0,1.25-.27,1.25-.68,0-1.1-3-.24-3-1.9,0-.69.65-1.2,1.83-1.2a3.44,3.44,0,0,1,1.65.39l-.28.46a2.51,2.51,0,0,0-1.37-.36c-.83,0-1.2.3-1.2.7,0,1.13,3,.28,3,1.89,0,.73-.7,1.2-1.91,1.2A3.3,3.3,0,0,1,212,437.44Z"/><path class="cls-2" d="M221.94,435.82a2.14,2.14,0,0,1-2.31,2.14,2.07,2.07,0,0,1-1.79-.87v.83h-.6V432h.63v2.52a2.1,2.1,0,0,1,1.76-.83A2.14,2.14,0,0,1,221.94,435.82Zm-.62,0a1.73,1.73,0,1,0-1.73,1.64A1.62,1.62,0,0,0,221.32,435.82Z"/><path class="cls-2" d="M227.59,435.83a2.13,2.13,0,0,1-2.26,2.13,2.1,2.1,0,0,1-2.25-2.13c0-.05,0-.12,0-.18H227a1.67,1.67,0,0,0-1.83-1.46,1.91,1.91,0,0,0-1.42.55l-.35-.37a2.39,2.39,0,0,1,1.79-.69A2.2,2.2,0,0,1,227.59,435.83Zm-.62.24h-3.29a1.67,1.67,0,0,0,3.29,0Z"/><path class="cls-2" d="M231.64,437.66a1.61,1.61,0,0,1-1,.3c-.87,0-1.36-.45-1.36-1.22v-2.55h-.83v-.48h.83v-.92h.63v.92h1.41v.48h-1.41v2.51a.71.71,0,0,0,.8.77,1.15,1.15,0,0,0,.69-.21Z"/><path class="cls-2" d="M46.55,448.92l-1.47-1.76-1.48,1.76h-.71l1.84-2.16L43,444.71h.71l1.39,1.65,1.39-1.65h.69l-1.75,2.05,1.86,2.16Z"/><path class="cls-2" d="M52.19,446.83A2.13,2.13,0,0,1,49.92,449a2.11,2.11,0,0,1-2.25-2.13c0-.05,0-.12,0-.18h3.88a1.66,1.66,0,0,0-1.82-1.46,1.9,1.9,0,0,0-1.42.55l-.36-.37a2.4,2.4,0,0,1,1.79-.69A2.21,2.21,0,0,1,52.19,446.83Zm-.63.24H48.27a1.67,1.67,0,0,0,3.29,0Z"/><path class="cls-2" d="M58.17,446.82A2.15,2.15,0,0,1,55.86,449a2.06,2.06,0,0,1-1.79-.87v.83h-.6V443h.62v2.52a2.12,2.12,0,0,1,1.77-.83A2.15,2.15,0,0,1,58.17,446.82Zm-.63,0a1.73,1.73,0,1,0-1.73,1.64A1.62,1.62,0,0,0,57.54,446.82Z"/><path class="cls-2" d="M63.49,446.83A2.13,2.13,0,0,1,61.23,449,2.1,2.1,0,0,1,59,446.83c0-.05,0-.12,0-.18h3.88A1.66,1.66,0,0,0,61,445.19a1.93,1.93,0,0,0-1.42.55l-.35-.37a2.4,2.4,0,0,1,1.79-.69A2.2,2.2,0,0,1,63.49,446.83Zm-.62.24H59.58a1.67,1.67,0,0,0,3.29,0Z"/><path class="cls-2" d="M67.11,444.68v.55H67a1.42,1.42,0,0,0-1.56,1.55v2.14h-.63v-4.21h.6v.83A1.8,1.8,0,0,1,67.11,444.68Z"/><path class="cls-2" d="M74.12,446.31v2.61h-.6v-.66a1.78,1.78,0,0,1-1.59.7c-1.05,0-1.7-.5-1.7-1.22s.46-1.19,1.79-1.19H73.5v-.26c0-.72-.45-1.11-1.32-1.11a2.53,2.53,0,0,0-1.54.49l-.28-.42a3.11,3.11,0,0,1,1.88-.57C73.44,444.68,74.12,445.23,74.12,446.31Zm-.62,1.35V447H72c-.9,0-1.19.32-1.19.75s.43.79,1.17.79A1.5,1.5,0,0,0,73.5,447.66Z"/><path class="cls-2" d="M75.83,443h.62v5.93h-.62Z"/><path class="cls-2" d="M85.85,446.48v2.44h-.62v-2.38a1.21,1.21,0,0,0-1.33-1.35,1.42,1.42,0,0,0-1.56,1.52v2.21h-.62v-2.38a1.22,1.22,0,0,0-1.34-1.35,1.42,1.42,0,0,0-1.56,1.52v2.21H78.2v-4.21h.6v.77a1.94,1.94,0,0,1,1.7-.8,1.69,1.69,0,0,1,1.65.89,2.08,2.08,0,0,1,1.83-.89A1.67,1.67,0,0,1,85.85,446.48Z"/><path class="cls-2" d="M91.06,446.31v2.61h-.6v-.66a1.79,1.79,0,0,1-1.6.7c-1,0-1.69-.5-1.69-1.22s.46-1.19,1.79-1.19h1.47v-.26c0-.72-.45-1.11-1.31-1.11a2.58,2.58,0,0,0-1.55.49l-.28-.42a3.16,3.16,0,0,1,1.89-.57C90.38,444.68,91.06,445.23,91.06,446.31Zm-.63,1.35V447H89c-.9,0-1.19.32-1.19.75s.43.79,1.17.79A1.48,1.48,0,0,0,90.43,447.66Z"/><path class="cls-2" d="M97,444.71v5.76h-.62v-2.34a2.12,2.12,0,0,1-1.77.83,2.15,2.15,0,1,1,0-4.28,2.08,2.08,0,0,1,1.79.87v-.84Zm-.62,2.11a1.72,1.72,0,1,0-1.71,1.64A1.62,1.62,0,0,0,96.39,446.82Z"/><path class="cls-2" d="M105.3,443v5.93h-.6v-.83a2.06,2.06,0,0,1-1.79.87,2.15,2.15,0,1,1,0-4.28,2.12,2.12,0,0,1,1.77.83V443Zm-.61,3.83a1.73,1.73,0,1,0-1.72,1.64A1.61,1.61,0,0,0,104.69,446.82Z"/><path class="cls-2" d="M107,443.5a.42.42,0,0,1,.84,0,.42.42,0,0,1-.84,0Zm.1,1.21h.63v4.21h-.63Z"/><path class="cls-2" d="M109.42,443h.63v5.93h-.63Z"/><path class="cls-2" d="M115.84,446.83a2.13,2.13,0,0,1-2.26,2.13,2.1,2.1,0,0,1-2.25-2.13c0-.05,0-.12,0-.18h3.88a1.66,1.66,0,0,0-1.83-1.46,1.93,1.93,0,0,0-1.42.55l-.35-.37a2.4,2.4,0,0,1,1.79-.69A2.2,2.2,0,0,1,115.84,446.83Zm-.62.24h-3.29a1.67,1.67,0,0,0,3.29,0Z"/><path class="cls-2" d="M120.89,444.71l-2.32,4.71a1.57,1.57,0,0,1-1.54,1.09,1.71,1.71,0,0,1-1.13-.38l.29-.43a1.21,1.21,0,0,0,.85.32c.41,0,.69-.17,1-.7l.2-.41-2.07-4.2h.65l1.75,3.58,1.74-3.58Z"/><path class="cls-2" d="M121.67,443.5a.42.42,0,0,1,.84,0,.42.42,0,0,1-.84,0Zm.1,1.21h.63v4.21h-.63Z"/><path class="cls-2" d="M126.35,443.5a.43.43,0,0,1,.85,0,.43.43,0,0,1-.85,0Zm.11,1.21h.62v4.21h-.62Z"/><path class="cls-2" d="M128.83,443h.63v5.93h-.63Z"/><path class="cls-2" d="M135.25,446.83A2.13,2.13,0,0,1,133,449a2.11,2.11,0,0,1-2.25-2.13c0-.05,0-.12,0-.18h3.88a1.66,1.66,0,0,0-1.82-1.46,1.9,1.9,0,0,0-1.42.55l-.35-.37a2.37,2.37,0,0,1,1.79-.69A2.21,2.21,0,0,1,135.25,446.83Zm-.63.24h-3.29a1.67,1.67,0,0,0,3.29,0Z"/><path class="cls-2" d="M136,448.52a.44.44,0,0,1,.47-.43.46.46,0,0,1,.48.43.47.47,0,0,1-.48.44A.45.45,0,0,1,136,448.52Z"/><path class="cls-2" d="M48.89,465.32v5.6h-.64v-2.58H44.38v2.58h-.65v-5.6h.65v2.5h3.87v-2.5Z"/><path class="cls-2" d="M50.3,468.82A2.37,2.37,0,1,1,52.66,471,2.19,2.19,0,0,1,50.3,468.82Zm4.08,0a1.72,1.72,0,1,0-1.72,1.64A1.61,1.61,0,0,0,54.38,468.82Zm-2.89-3.28a.37.37,0,0,1,.38-.35.37.37,0,0,1,.38.35.36.36,0,0,1-.38.34A.35.35,0,0,1,51.49,465.54Zm1.57,0a.37.37,0,0,1,.38-.35.37.37,0,0,1,.38.35.35.35,0,0,1-.38.34A.36.36,0,0,1,53.06,465.54Z"/><path class="cls-2" d="M58.63,466.68v.55h-.14a1.43,1.43,0,0,0-1.57,1.55v2.14H56.3v-4.21h.6v.83A1.78,1.78,0,0,1,58.63,466.68Z"/><path class="cls-2" d="M67.42,468.48v2.44H66.8v-2.38a1.22,1.22,0,0,0-1.34-1.35,1.42,1.42,0,0,0-1.55,1.52v2.21h-.62v-2.38a1.22,1.22,0,0,0-1.35-1.35,1.42,1.42,0,0,0-1.55,1.52v2.21h-.62v-4.21h.6v.77a1.93,1.93,0,0,1,1.7-.8,1.71,1.71,0,0,1,1.65.89,2.07,2.07,0,0,1,1.83-.89A1.67,1.67,0,0,1,67.42,468.48Z"/><path class="cls-2" d="M73.19,468.83A2.13,2.13,0,0,1,70.92,471a2.11,2.11,0,0,1-2.25-2.13c0-.05,0-.12,0-.18h3.88a1.66,1.66,0,0,0-1.82-1.46,1.9,1.9,0,0,0-1.42.55l-.36-.37a2.41,2.41,0,0,1,1.8-.69A2.21,2.21,0,0,1,73.19,468.83Zm-.63.24H69.27a1.67,1.67,0,0,0,3.29,0Z"/><path class="cls-2" d="M76.91,470.66a1.59,1.59,0,0,1-1,.3c-.87,0-1.36-.45-1.36-1.22v-2.55h-.82v-.48h.82v-.92h.63v.92h1.41v.48H75.2v2.51a.71.71,0,0,0,.8.77,1.13,1.13,0,0,0,.69-.21Z"/><path class="cls-2" d="M78.05,465h.63v5.93h-.63Z"/><path class="cls-2" d="M84.47,468.83A2.13,2.13,0,0,1,82.2,471,2.1,2.1,0,0,1,80,468.83v-.18h3.88A1.66,1.66,0,0,0,82,467.19a1.91,1.91,0,0,0-1.42.55l-.35-.37a2.37,2.37,0,0,1,1.79-.69A2.21,2.21,0,0,1,84.47,468.83Zm-.63.24H80.55a1.56,1.56,0,0,0,1.65,1.4A1.54,1.54,0,0,0,83.84,469.07Z"/><path class="cls-2" d="M86.15,470.52A1.11,1.11,0,0,1,86,471l-.37,1.11h-.42l.3-1.16a.41.41,0,0,1-.32-.41.47.47,0,0,1,.93,0Z"/><text class="cls-14" transform="translate(42.23 502.33)">DİL BİLİK<tspan class="cls-19" x="70.49" y="0">L</tspan><tspan class="cls-16" x="79.2" y="0">Ə</tspan><tspan class="cls-20" x="90.92" y="0">R</tspan><tspan x="101.43" y="0">İ</tspan></text><text class="cls-21" transform="translate(42.23 526.32)"><tspan class="cls-22">T</tspan><tspan x="5.87" y="0">ü</tspan><tspan class="cls-23" x="12.8" y="0">r</tspan><tspan class="cls-24" x="16.92" y="0">k</tspan><tspan class="cls-25" x="23" y="0">c</tspan><tspan x="28.75" y="0">ə</tspan></text><rect class="cls-26" x="42.23" y="530.7" width="190.16" height="7.1"/><text class="cls-21" transform="translate(42.23 563.46)">İ<tspan class="cls-27" x="3.17" y="0">n</tspan><tspan class="cls-28" x="10.17" y="0">gilis</tspan><tspan class="cls-25" x="30.91" y="0">c</tspan><tspan class="cls-28" x="36.67" y="0">ə</tspan></text><rect class="cls-26" x="42.23" y="567.84" width="190.16" height="7.1"/><text class="cls-21" transform="translate(42.23 600.59)">Rusca</text><rect class="cls-26" x="42.23" y="604.97" width="190.16" height="7.1"/><polygon class="cls-2" points="208.43 591.42 208.43 604.97 42.23 604.97 42.23 612.07 203.47 612.07 229.86 612.07 229.86 604.97 229.86 591.42 208.43 591.42"/><polygon class="cls-2" points="198.79 554.29 198.79 567.84 42.23 567.84 42.23 574.94 193.83 574.94 220.23 574.94 220.23 567.84 220.23 554.29 198.79 554.29"/><polygon class="cls-2" points="176.08 517.15 176.08 530.7 42.23 530.7 42.23 537.81 171.12 537.81 197.51 537.81 197.51 530.7 197.51 517.15 176.08 517.15"/><text class="cls-29" transform="translate(178.99 526.32)"><tspan class="cls-30">7</tspan><tspan class="cls-31" x="3.9" y="0">5</tspan><tspan x="7.7" y="0">%</tspan></text><text class="cls-29" transform="translate(201.7 563.46)">90%</text><text class="cls-29" transform="translate(211.34 600.59)">99%</text><text class="cls-32" transform="translate(43.59 652.33)">P<tspan class="cls-33" x="10" y="0">R</tspan><tspan x="20.2" y="0">OQRAM</tspan></text><text class="cls-34" transform="translate(43.09 675.36)"><tspan class="cls-35">W</tspan><tspan x="10.86" y="0">o</tspan><tspan class="cls-36" x="17.29" y="0">r</tspan><tspan x="21.33" y="0">d</tspan></text><rect class="cls-26" x="43.09" y="679.7" width="188.45" height="7.04"/><text class="cls-34" transform="translate(43.09 712.16)"><tspan class="cls-37">E</tspan><tspan class="cls-38" x="6.67" y="0">x</tspan><tspan class="cls-39" x="12.08" y="0">c</tspan><tspan x="17.79" y="0">el</tspan></text><rect class="cls-26" x="43.09" y="716.5" width="188.45" height="7.04"/><text class="cls-34" transform="translate(43.09 748.96)"><tspan class="cls-36">P</tspan><tspan class="cls-40" x="7.2" y="0">ow</tspan><tspan x="22.44" y="0">e</tspan><tspan class="cls-37" x="28.65" y="0">rP</tspan><tspan x="39.88" y="0">oint</tspan></text><rect class="cls-26" x="43.09" y="753.3" width="188.45" height="7.04"/><polygon class="cls-2" points="207.79 739.87 207.79 753.3 43.09 753.3 43.09 760.34 202.87 760.34 229.03 760.34 229.03 753.3 229.03 739.87 207.79 739.87"/><polygon class="cls-2" points="198.24 703.08 198.24 716.5 43.09 716.5 43.09 723.54 193.32 723.54 219.48 723.54 219.48 716.5 219.48 703.08 198.24 703.08"/><polygon class="cls-2" points="175.73 666.28 175.73 679.71 43.09 679.71 43.09 686.74 170.81 686.74 196.97 686.74 196.97 679.71 196.97 666.28 175.73 666.28"/><text class="cls-41" transform="translate(178.61 675.36)"><tspan class="cls-42">7</tspan><tspan class="cls-43" x="3.87" y="0">5</tspan><tspan x="7.63" y="0">%</tspan></text><text class="cls-41" transform="translate(201.12 712.16)">90%</text><text class="cls-41" transform="translate(210.67 748.96)">99%</text><text class="cls-34" transform="translate(43.09 780.25)">Outlook</text><rect class="cls-26" x="43.09" y="784.59" width="188.45" height="7.04"/><polygon class="cls-2" points="207.79 771.17 207.79 784.59 43.09 784.59 43.09 791.63 202.87 791.63 229.03 791.63 229.03 784.59 229.03 771.17 207.79 771.17"/><text class="cls-41" transform="translate(210.67 780.25)">99%</text><path class="cls-44" d="M263,216.46l0,0a7.41,7.41,0,0,0,.64-.61l.07-.07a3.85,3.85,0,0,1,.35-.35,1.18,1.18,0,0,1,1.79,0l1.84,1.84a1.22,1.22,0,0,1,.4.87,1.26,1.26,0,0,1-.4.88l-1.15,1.15a.21.21,0,0,0-.07.13.2.2,0,0,0,0,.08l0,0c.06.11.13.23.19.36a3.35,3.35,0,0,0,.2.37,11.73,11.73,0,0,0,2.58,2.84h0a7,7,0,0,0,1.6,1h0c.11,0,.14,0,.22-.05h0c.26-.29.52-.55.83-.85l.19-.2.1-.09a1.15,1.15,0,0,1,1.78,0l.91.91.17.16.15.15c.23.23.43.42.62.62h0a1.18,1.18,0,0,1,0,1.74l0,0L275,228.51a2.09,2.09,0,0,1-1.33.61,5.21,5.21,0,0,1-2.32-.41,13.9,13.9,0,0,1-4.16-2.49,15.41,15.41,0,0,1-4-5.12,7.82,7.82,0,0,1-.83-2.81v-.18A2.14,2.14,0,0,1,263,216.46Z"/><text class="cls-45" transform="translate(287.18 225.5)">T<tspan class="cls-46" x="4.41" y="0">el</tspan><tspan class="cls-47" x="11.83" y="0">ef</tspan><tspan class="cls-48" x="19.71" y="0" xml:space="preserve">on:   </tspan><tspan class="cls-49" x="39.99" y="0">+9</tspan><tspan class="cls-50" x="50.21" y="0">9</tspan><tspan class="cls-51" x="55.19" y="0">4xx xxx xx xx</tspan></text><path class="cls-44" d="M277,250.34a.13.13,0,0,1,0-.06s0,0,0-.06,0,0,0-.05,0,0,0,0l0,0,0-.05,0,0h0s0,0,0,0,0,0,0,0l-.05,0,0,0-.05,0-.05,0h-14l0,0-.05,0-.05,0-.05,0,0,0-.05,0h0l0,0,0,.05,0,0s0,0,0,0,0,0,0,.05,0,0,0,.06v.06a0,0,0,0,0,0,0v9.8a.56.56,0,0,0,.56.56h13.71a.56.56,0,0,0,.56-.56v-9.83Zm-2.09.59-5.32,4.54-5.33-4.54Zm-5.69,5.7a.59.59,0,0,0,.37.14.56.56,0,0,0,.36-.14"/><text class="cls-52" transform="translate(287.18 258.31)">Elekt<tspan class="cls-53" x="20.75" y="0">r</tspan><tspan class="cls-46" x="23.96" y="0" xml:space="preserve">on poçt:  </tspan><tspan class="cls-51" x="62.93" y="0">cvhazirlama@gmai</tspan><tspan class="cls-54" x="139.77" y="0">l</tspan><tspan class="cls-55" x="141.81" y="0">.</tspan><tspan class="cls-56" x="143.73" y="0">com</tspan></text><path class="cls-44" d="M268.59,278.78a7.1,7.1,0,1,0,7.09,7.1A7.1,7.1,0,0,0,268.59,278.78Zm6,6.56h-1.71a9.31,9.31,0,0,0-1.38-4.73A6,6,0,0,1,274.58,285.34ZM268.05,280v5.39h-2.66C265.53,282.65,266.65,280.41,268.05,280Zm0,6.47v5.39c-1.4-.46-2.52-2.7-2.66-5.39Zm1.08,5.39v-5.39h2.66C271.66,289.11,270.53,291.35,269.13,291.81Zm0-6.47V280c1.4.46,2.53,2.7,2.66,5.39Zm-3.44-4.73a9.41,9.41,0,0,0-1.37,4.73h-1.71A6,6,0,0,1,265.69,280.61Zm-3.08,5.81h1.71a9.41,9.41,0,0,0,1.37,4.73A6,6,0,0,1,262.61,286.42Zm8.88,4.73a9.31,9.31,0,0,0,1.38-4.73h1.71A6,6,0,0,1,271.49,291.15Z"/><text class="cls-52" transform="translate(288.29 289.15)">Ü<tspan class="cls-57" x="6.28" y="0">n</tspan><tspan class="cls-58" x="11.34" y="0">v</tspan><tspan x="15.81" y="0" xml:space="preserve">an:   </tspan><tspan class="cls-56" x="36.2" y="0">Bakı </tspan><tspan class="cls-59" x="56.14" y="0">ş</tspan><tspan class="cls-56" x="59.97" y="0">əhəri, A</tspan><tspan class="cls-60" x="90.11" y="0">z</tspan><tspan class="cls-56" x="94" y="0">ərba</tspan><tspan class="cls-61" x="112.51" y="0">y</tspan><tspan class="cls-56" x="116.91" y="0">can</tspan></text><text class="cls-62" transform="translate(261.51 344.25)">İŞ <tspan class="cls-17" x="18.66" y="0">T</tspan><tspan x="27.62" y="0">ƏC</tspan><tspan class="cls-63" x="50.93" y="0">R</tspan><tspan x="61.22" y="0">Ü</tspan><tspan class="cls-64" x="72.62" y="0">B</tspan><tspan x="82.82" y="0">ƏSİ</tspan></text><line class="cls-65" x1="266.08" y1="362.57" x2="266.08" y2="568.38"/><circle class="cls-3" cx="266.08" cy="371.43" r="4.57"/><circle class="cls-3" cx="266.08" cy="486.46" r="4.57"/><line class="cls-65" x1="266.08" y1="468.99" x2="535.38" y2="468.99"/><line class="cls-65" x1="266.08" y1="568.38" x2="535.38" y2="568.38"/><text class="cls-66" transform="translate(290.9 384.36)">A<tspan class="cls-67" x="8.43" y="0">r</tspan><tspan x="13.09" y="0">az Ma</tspan><tspan class="cls-68" x="46.25" y="0">r</tspan><tspan class="cls-69" x="50.95" y="0">k</tspan><tspan x="57.96" y="0">et</tspan><tspan class="cls-70" x="0" y="14">K</tspan><tspan x="8.01" y="14">assir</tspan></text><text class="cls-71" transform="translate(291.96 411.63)">- Malın d<tspan class="cls-72" x="34.75" y="0">əy</tspan><tspan x="43.68" y="0">ə</tspan><tspan class="cls-73" x="48.51" y="0">r</tspan><tspan x="51.66" y="0">inin </tspan><tspan class="cls-74" x="68.89" y="0">h</tspan><tspan x="74.32" y="0">esablanması </tspan><tspan class="cls-72" x="126.86" y="0">v</tspan><tspan x="131.08" y="0">ə </tspan><tspan class="cls-75" x="138.01" y="0">k</tspan><tspan x="142.73" y="0">assa ə</tspan><tspan class="cls-76" x="166.93" y="0">m</tspan><tspan x="175.43" y="0">əli</tspan><tspan class="cls-77" x="184.57" y="0">y</tspan><tspan class="cls-78" x="188.86" y="0">y</tspan><tspan x="193.07" y="0">atının </tspan><tspan class="cls-72" x="218.27" y="0">y</tspan><tspan x="222.49" y="0">e</tspan><tspan class="cls-73" x="227.32" y="0">r</tspan><tspan x="230.46" y="0">i</tspan><tspan class="cls-74" x="232.62" y="0">n</tspan><tspan x="238.05" y="0">ə </tspan><tspan class="cls-72" x="0" y="10">y</tspan><tspan x="4.22" y="10">eti</tspan><tspan class="cls-73" x="14.45" y="10">r</tspan><tspan x="17.59" y="10">il</tspan><tspan class="cls-74" x="21.9" y="10">m</tspan><tspan x="30.4" y="10">əsi;</tspan><tspan x="0" y="20">- </tspan><tspan class="cls-79" x="5.15" y="20">K</tspan><tspan x="10.73" y="20">assa </tspan><tspan class="cls-76" x="30.09" y="20">h</tspan><tspan x="35.52" y="20">esa</tspan><tspan class="cls-80" x="48.98" y="20">b</tspan><tspan x="54.38" y="20">atını </tspan><tspan class="cls-81" x="74.17" y="20">t</tspan><tspan x="77.26" y="20">ə</tspan><tspan class="cls-82" x="82.09" y="20">r</tspan><tspan x="85.42" y="20">tib et</tspan><tspan class="cls-74" x="106.42" y="20">m</tspan><tspan x="114.93" y="20">ək;</tspan><tspan x="0" y="30">- Malın alınması zamanı s</tspan><tspan class="cls-75" x="100.73" y="30">a</tspan><tspan x="105.37" y="30">yının, </tspan><tspan class="cls-83" x="128.63" y="30">ç</tspan><tspan x="133.06" y="30">eşidinin </tspan><tspan class="cls-84" x="166.62" y="30">y</tspan><tspan class="cls-85" x="170.83" y="30">o</tspan><tspan x="175.7" y="30">xlanılmas</tspan></text><text class="cls-86" transform="translate(290.9 373.72)">05<tspan class="cls-87" x="8.19" y="0">/</tspan><tspan class="cls-88" x="10.29" y="0">0</tspan><tspan x="14.63" y="0">3/</tspan><tspan class="cls-89" x="20.62" y="0">2</tspan><tspan class="cls-90" x="24.38" y="0">0</tspan><tspan x="28.78" y="0">19–</tspan><tspan class="cls-91" x="38.58" y="0">P</tspan><tspan class="cls-92" x="43.21" y="0">r</tspan><tspan x="45.8" y="0">esent</tspan></text><text class="cls-66" transform="translate(290.9 497.11)">A<tspan class="cls-67" x="8.43" y="0">r</tspan><tspan x="13.09" y="0">az Ma</tspan><tspan class="cls-68" x="46.25" y="0">r</tspan><tspan class="cls-69" x="50.95" y="0">k</tspan><tspan x="57.96" y="0">et</tspan><tspan class="cls-70" x="0" y="14">K</tspan><tspan x="8.01" y="14">assir</tspan></text><text class="cls-71" transform="translate(291.96 524.38)">- Malın d<tspan class="cls-72" x="34.75" y="0">əy</tspan><tspan x="43.68" y="0">ə</tspan><tspan class="cls-73" x="48.51" y="0">r</tspan><tspan x="51.66" y="0">inin </tspan><tspan class="cls-74" x="68.89" y="0">h</tspan><tspan x="74.32" y="0">esablanması </tspan><tspan class="cls-72" x="126.86" y="0">v</tspan><tspan x="131.08" y="0">ə </tspan><tspan class="cls-75" x="138.01" y="0">k</tspan><tspan x="142.73" y="0">assa ə</tspan><tspan class="cls-76" x="166.93" y="0">m</tspan><tspan x="175.43" y="0">əli</tspan><tspan class="cls-77" x="184.57" y="0">y</tspan><tspan class="cls-78" x="188.86" y="0">y</tspan><tspan x="193.07" y="0">atının </tspan><tspan class="cls-72" x="218.27" y="0">y</tspan><tspan x="222.49" y="0">e</tspan><tspan class="cls-73" x="227.32" y="0">r</tspan><tspan x="230.46" y="0">i</tspan><tspan class="cls-74" x="232.62" y="0">n</tspan><tspan x="238.05" y="0">ə </tspan><tspan class="cls-72" x="0" y="10">y</tspan><tspan x="4.22" y="10">eti</tspan><tspan class="cls-73" x="14.45" y="10">r</tspan><tspan x="17.59" y="10">il</tspan><tspan class="cls-74" x="21.9" y="10">m</tspan><tspan x="30.4" y="10">əsi;</tspan><tspan x="0" y="20">- </tspan><tspan class="cls-79" x="5.15" y="20">K</tspan><tspan x="10.73" y="20">assa </tspan><tspan class="cls-76" x="30.09" y="20">h</tspan><tspan x="35.52" y="20">esa</tspan><tspan class="cls-80" x="48.98" y="20">b</tspan><tspan x="54.38" y="20">atını </tspan><tspan class="cls-81" x="74.17" y="20">t</tspan><tspan x="77.26" y="20">ə</tspan><tspan class="cls-82" x="82.09" y="20">r</tspan><tspan x="85.42" y="20">tib et</tspan><tspan class="cls-74" x="106.42" y="20">m</tspan><tspan x="114.93" y="20">ək;</tspan><tspan x="0" y="30">- Malın alınması zamanı s</tspan><tspan class="cls-75" x="100.73" y="30">a</tspan><tspan x="105.37" y="30">yının, </tspan><tspan class="cls-83" x="128.63" y="30">ç</tspan><tspan x="133.06" y="30">eşidinin </tspan><tspan class="cls-84" x="166.62" y="30">y</tspan><tspan class="cls-85" x="170.83" y="30">o</tspan><tspan x="175.7" y="30">xlanılmas</tspan></text><text class="cls-86" transform="translate(290.9 486.46)">05<tspan class="cls-87" x="8.19" y="0">/</tspan><tspan class="cls-88" x="10.29" y="0">0</tspan><tspan x="14.63" y="0">3/</tspan><tspan class="cls-89" x="20.62" y="0">2</tspan><tspan class="cls-90" x="24.38" y="0">0</tspan><tspan x="28.78" y="0">19–</tspan><tspan class="cls-91" x="38.58" y="0">P</tspan><tspan class="cls-92" x="43.21" y="0">r</tspan><tspan x="45.8" y="0">esent</tspan></text><line class="cls-93" x1="261.51" y1="354.86" x2="369.92" y2="354.86"/><line class="cls-65" x1="270.85" y1="681.89" x2="540.16" y2="681.89"/><text class="cls-94" transform="translate(270.85 606.94)">T<tspan class="cls-16" x="8.96" y="0">ƏHSİL</tspan></text><line class="cls-65" x1="270.85" y1="625.25" x2="270.85" y2="681.89"/><circle class="cls-3" cx="270.85" cy="634.78" r="4.57"/><text class="cls-66" transform="translate(295.68 651.38)">Ba<tspan class="cls-95" x="15.2" y="0">k</tspan><tspan x="22.42" y="0">ı D</tspan><tspan class="cls-96" x="37.93" y="0">ö</tspan><tspan class="cls-97" x="44.97" y="0">vlət Uni</tspan><tspan class="cls-98" x="89.28" y="0">v</tspan><tspan x="95.69" y="0">e</tspan><tspan class="cls-99" x="102.63" y="0">r</tspan><tspan x="107.35" y="0">si</tspan><tspan class="cls-100" x="116.5" y="0">t</tspan><tspan x="121.1" y="0">eti</tspan></text><text class="cls-71" transform="translate(296.74 665.44)"><tspan class="cls-101">T</tspan><tspan class="cls-102" x="4.36" y="0">a</tspan><tspan class="cls-73" x="9.08" y="0">r</tspan><tspan x="12.22" y="0">ix </tspan><tspan class="cls-75" x="20.74" y="0">f</tspan><tspan x="23.38" y="0">a</tspan><tspan class="cls-75" x="28.1" y="0">k</tspan><tspan x="32.82" y="0">ü</tspan><tspan class="cls-76" x="38.21" y="0">l</tspan><tspan class="cls-85" x="40.38" y="0">t</tspan><tspan x="43.47" y="0">əsi</tspan></text><text class="cls-86" transform="translate(295.68 636.4)">05<tspan class="cls-87" x="8.19" y="0">/</tspan><tspan class="cls-88" x="10.29" y="0">0</tspan><tspan x="14.63" y="0">3/</tspan><tspan class="cls-89" x="20.62" y="0">2</tspan><tspan class="cls-90" x="24.38" y="0">0</tspan><tspan x="28.78" y="0">19–</tspan></text><text class="cls-103" transform="translate(266.28 722.81)">HOBBİ</text><path class="cls-3" d="M341.86,759.2c-.58-1.06-2.29-1.23-3.83-.38s-2.29,2.4-1.7,3.45,2.29,1.23,3.82.38S342.45,760.25,341.86,759.2Z"/><path class="cls-3" d="M355.4,757.27c-.58-1-2.3-1.22-3.82-.37s-2.3,2.39-1.72,3.45,2.3,1.22,3.84.37S356,758.33,355.4,757.27Z"/><polygon class="cls-3" points="355.6 745.56 355.6 757.78 355.13 757.78 355.13 748.62 342 751.03 342 760.2 341.53 760.2 341.53 747.97 355.6 745.56"/><path class="cls-3" d="M291.91,744.39a14,14,0,0,0-1.41.92l0,0-1.8,1.8-1.59-.36-4.28-1-4-.9-3,1.29,8.92,4.85-5.26,5.26v0a9.49,9.49,0,0,0-.56.93l-3.58-1.15-1.58,1.57,3.93,2.4-.41.41.53.53.4-.4,2.37,3.89,1.59-1.58L281,759.41c.52-.32.91-.6.93-.62l0,0,5.25-5.24,4.84,8.91,1.29-3-1.87-8.23-.36-1.58,1.82-1.81v0a15.1,15.1,0,0,0,.91-1.42c.64-1.17.75-1.89.35-2.29S293.05,743.76,291.91,744.39Z"/><path class="cls-3" d="M418.5,762.32s-7.52-.39-10.4,1.25c-2.88-1.64-10.39-1.25-10.39-1.25V750h1l.12,8.87.5-11.66c.74-.08,6.59-.57,8.73,1.58,2.14-2.15,8-1.66,8.74-1.58l.12,12.32.5-9.53h1Z"/><path class="cls-3" d="M469.31,749.63a5.71,5.71,0,1,0,5.71,5.71A5.72,5.72,0,0,0,469.31,749.63Zm0,11a5.29,5.29,0,1,1,5.29-5.29A5.29,5.29,0,0,1,469.33,760.66Z"/><path class="cls-3" d="M478.06,748.17h-.17a1,1,0,0,0-.92-.61h-1.26a1,1,0,0,0-.92.61H473.6l-1.14-2.07a.66.66,0,0,0-.59-.33h-4.28a.66.66,0,0,0-.56.29l-1.38,2.11h-.54a.72.72,0,0,0-.71-.61h-2.35a.73.73,0,0,0-.71.61h-.15a1.81,1.81,0,0,0-1.8,1.8v10.8a1.81,1.81,0,0,0,1.8,1.8h16.87a1.81,1.81,0,0,0,1.8-1.8V750A1.81,1.81,0,0,0,478.06,748.17Zm-16.34,2.42a.8.8,0,1,1,.79.79A.8.8,0,0,1,461.72,750.59Zm7.59,11.11a6.36,6.36,0,1,1,6.36-6.36A6.38,6.38,0,0,1,469.31,761.7Z"/><line class="cls-93" x1="270.3" y1="613.14" x2="327.08" y2="613.14"/><line class="cls-93" x1="266.08" y1="729.68" x2="322.85" y2="729.68"/><rect class="cls-4" x="241.53" y="799.77" width="317.35" height="6.53"/></g></svg>