<svg xmlns="http://www.w3.org/2000/svg" xmlns:xlink="http://www.w3.org/1999/xlink" viewBox="0 0 1079 1080"><defs><style>.cls-1,.cls-34,.cls-35{fill:none;}.cls-2{fill:#f9f9fa;}.cls-3{fill:#e0e0df;}.cls-4{fill:#2b2c2b;}.cls-129,.cls-5{fill:#afa48d;}.cls-6{fill:#414142;}.cls-7{font-size:22.5px;letter-spacing:-0.03em;}.cls-11,.cls-12,.cls-13,.cls-137,.cls-138,.cls-22,.cls-36,.cls-44,.cls-7{fill:#fff;}.cls-114,.cls-129,.cls-36,.cls-7,.cls-80{font-family:Montserrat-Medium, Montserrat;font-weight:500;}.cls-8{letter-spacing:0em;}.cls-9{letter-spacing:-0.01em;}.cls-10{letter-spacing:-0.01em;}.cls-11,.cls-22{font-size:58.13px;}.cls-11,.cls-13,.cls-22,.cls-76,.cls-83{font-family:Montserrat-SemiBold, Montserrat;font-weight:600;}.cls-12{font-size:22px;font-family:Montserrat-Regular, Montserrat;}.cls-13{font-size:39.76px;}.cls-14{letter-spacing:0em;}.cls-15{letter-spacing:-0.01em;}.cls-16{letter-spacing:-0.01em;}.cls-17{letter-spacing:-0.01em;}.cls-18{letter-spacing:-0.01em;}.cls-19{letter-spacing:-0.02em;}.cls-20{letter-spacing:0em;}.cls-21{letter-spacing:0em;}.cls-22{letter-spacing:0em;}.cls-23{letter-spacing:0em;}.cls-24,.cls-28,.cls-55{fill:#fafbfc;}.cls-113,.cls-126,.cls-136,.cls-25,.cls-73,.cls-76{fill:#282d32;}.cls-26{clip-path:url(#clip-path);}.cls-27{fill:url(#New_Pattern_Swatch_1);}.cls-126,.cls-136,.cls-28,.cls-55,.cls-73{font-size:10.02px;}.cls-126,.cls-130,.cls-136,.cls-28,.cls-55,.cls-73{font-family:Montserrat-Bold, Montserrat;}.cls-126,.cls-130,.cls-136,.cls-138,.cls-28,.cls-55,.cls-73{font-weight:700;}.cls-28{letter-spacing:0.09em;}.cls-29,.cls-55{letter-spacing:0.1em;}.cls-30{letter-spacing:0.06em;}.cls-126,.cls-31{letter-spacing:0.09em;}.cls-32{letter-spacing:0.09em;}.cls-33{letter-spacing:0.09em;}.cls-34{stroke:#e5e3e1;stroke-width:0.5px;}.cls-34,.cls-35{stroke-miterlimit:10;}.cls-35{stroke:#afa48d;stroke-width:1.5px;}.cls-129,.cls-36,.cls-76,.cls-83{font-size:8.02px;}.cls-37{letter-spacing:0.01em;}.cls-38{letter-spacing:-0.01em;}.cls-39{letter-spacing:0em;}.cls-40{letter-spacing:0em;}.cls-41{letter-spacing:0.01em;}.cls-42{letter-spacing:0.01em;}.cls-43{letter-spacing:0em;}.cls-45{letter-spacing:-0.02em;}.cls-46{letter-spacing:0em;}.cls-47{letter-spacing:-0.03em;}.cls-48{letter-spacing:-0.01em;}.cls-49{letter-spacing:-0.01em;}.cls-50{letter-spacing:-0.01em;}.cls-51{letter-spacing:-0.01em;}.cls-52{letter-spacing:-0.02em;}.cls-53{letter-spacing:-0.01em;}.cls-54{letter-spacing:-0.01em;}.cls-56{letter-spacing:0.1em;}.cls-57{letter-spacing:-0.01em;}.cls-58{letter-spacing:-0.01em;}.cls-59{letter-spacing:-0.01em;}.cls-60{letter-spacing:0.08em;}.cls-61{letter-spacing:-0.01em;}.cls-62{letter-spacing:0em;}.cls-63{letter-spacing:-0.02em;}.cls-64{letter-spacing:0.01em;}.cls-65{letter-spacing:-0.01em;}.cls-66{letter-spacing:-0.02em;}.cls-67{letter-spacing:-0.01em;}.cls-68{letter-spacing:0.09em;}.cls-69{letter-spacing:0.1em;}.cls-70{letter-spacing:0em;}.cls-71{letter-spacing:-0.01em;}.cls-72{letter-spacing:-0.02em;}.cls-73{letter-spacing:0.08em;}.cls-74{letter-spacing:0.09em;}.cls-75{letter-spacing:0.08em;}.cls-76{letter-spacing:0.1em;}.cls-77{letter-spacing:0.09em;}.cls-78{letter-spacing:0.1em;}.cls-79{letter-spacing:0.08em;}.cls-80{font-size:7.01px;}.cls-130,.cls-133,.cls-80,.cls-83{fill:#6c6c6e;}.cls-81{letter-spacing:-0.01em;}.cls-82{letter-spacing:0em;}.cls-84{letter-spacing:0em;}.cls-85{letter-spacing:-0.02em;}.cls-86{letter-spacing:-0.01em;}.cls-87{letter-spacing:-0.01em;}.cls-88{letter-spacing:0.15em;}.cls-89{letter-spacing:0.15em;}.cls-90{letter-spacing:0em;}.cls-91{letter-spacing:0.01em;}.cls-92{letter-spacing:-0.01em;}.cls-93{letter-spacing:0.01em;}.cls-94{letter-spacing:-0.02em;}.cls-95{letter-spacing:0.01em;}.cls-96{letter-spacing:-0.01em;}.cls-97{letter-spacing:0.07em;}.cls-98{letter-spacing:-0.01em;}.cls-99{letter-spacing:0.07em;}.cls-100{letter-spacing:0.24em;}.cls-101{letter-spacing:-0.01em;}.cls-102{letter-spacing:0.24em;}.cls-103{letter-spacing:-0.02em;}.cls-104{letter-spacing:-0.02em;}.cls-105{letter-spacing:0.01em;}.cls-106{letter-spacing:-0.02em;}.cls-107{letter-spacing:0em;}.cls-108{letter-spacing:0em;}.cls-109{letter-spacing:0em;}.cls-110{letter-spacing:0.05em;}.cls-111{letter-spacing:0.1em;}.cls-112{letter-spacing:0.1em;}.cls-113{font-size:36.07px;font-family:Montserrat-Light, Montserrat;font-weight:300;}.cls-113,.cls-117{letter-spacing:0.1em;}.cls-114{letter-spacing:0.09em;}.cls-115{letter-spacing:0.09em;}.cls-116{letter-spacing:0.09em;}.cls-118{letter-spacing:0.1em;}.cls-119{letter-spacing:0.06em;}.cls-120{letter-spacing:0.09em;}.cls-121{letter-spacing:0.09em;}.cls-122{letter-spacing:0.27em;}.cls-123{letter-spacing:0.27em;}.cls-124{letter-spacing:0.21em;}.cls-125{letter-spacing:0.21em;}.cls-127,.cls-136{letter-spacing:0.1em;}.cls-128{letter-spacing:0.1em;}.cls-131{letter-spacing:0.01em;}.cls-132{letter-spacing:-0.01em;}.cls-134{letter-spacing:0.02em;}.cls-135{letter-spacing:-0.01em;}.cls-137{fill-rule:evenodd;}.cls-138{font-size:30.55px;font-family:Averta-Bold, Averta;}.cls-139{letter-spacing:0em;}.cls-140{letter-spacing:0em;}.cls-141{letter-spacing:0.01em;}.cls-142{letter-spacing:0em;}</style><clipPath id="clip-path"><rect class="cls-1" x="451.14" y="149.22" width="213.81" height="217.81"/></clipPath><pattern id="New_Pattern_Swatch_1" data-name="New Pattern Swatch 1" width="10.71" height="10.71" patternTransform="translate(66.71 6.83)" patternUnits="userSpaceOnUse" viewBox="0 0 10.71 10.71"><rect class="cls-1" width="10.71" height="10.71"/><rect class="cls-2" x="5.35" width="5.35" height="5.35"/><rect class="cls-3" width="5.35" height="5.35"/><polygon class="cls-2" points="5.35 10.71 0 10.71 0 5.35 5.35 5.35 5.35 10.71"/><polygon class="cls-3" points="10.71 10.71 5.35 10.71 5.35 5.35 10.71 5.35 10.71 10.71"/></pattern></defs><g id="PRINT"><rect class="cls-4" x="85.21" y="181.33" width="260.32" height="56.71"/><rect class="cls-5" x="40.07" y="69.8" width="143.79" height="5.3"/><rect class="cls-6" x="183.81" y="69.8" width="143.79" height="5.3"/><rect class="cls-6" x="40.07" y="90.37" width="143.76" height="38.31"/><text class="cls-7" transform="translate(52.13 117.53)">K<tspan class="cls-8" x="15.62" y="0">OD: 11</tspan><tspan class="cls-9" x="80.91" y="0">.</tspan><tspan class="cls-10" x="85.75" y="0">0</tspan><tspan class="cls-8" x="100.53" y="0">3</tspan></text><rect class="cls-5" x="40.07" y="169.58" width="80.21" height="80.21"/><text class="cls-11" transform="translate(48.78 226.69)">15</text><text class="cls-12" transform="translate(67.92 240.86) scale(0.58)">azn</text><text class="cls-13" transform="translate(139 219.7) scale(0.58)"><tspan class="cls-14">A</tspan><tspan class="cls-15" x="29.7" y="0">z</tspan><tspan x="50.54" y="0">ə</tspan><tspan class="cls-16" x="75.27" y="0">r</tspan><tspan class="cls-17" x="91.77" y="0">b</tspan><tspan class="cls-18" x="118.77" y="0">a</tspan><tspan class="cls-19" x="142.51" y="0">y</tspan><tspan x="164.9" y="0">ca</tspan><tspan class="cls-20" x="212.14" y="0">n</tspan><tspan class="cls-21" x="239.57" y="0">dilli</tspan></text><rect class="cls-4" x="85.21" y="305.1" width="260.32" height="56.71"/><rect class="cls-5" x="40.07" y="293.35" width="80.21" height="80.21"/><text class="cls-22" transform="translate(48.78 350.46)">2<tspan class="cls-23" x="33.66" y="0">0</tspan></text><text class="cls-13" transform="translate(139 343.47) scale(0.58)">İ<tspan class="cls-20" x="12.68" y="0">n</tspan><tspan class="cls-21" x="40.12" y="0">gilisdilli</tspan></text><text class="cls-12" transform="translate(67.92 366.87) scale(0.58)">azn</text><path class="cls-4" d="M58.34,424.41c0,3-2.2,4.88-5.84,4.88H49v4.25H47v-14H52.5C56.14,419.53,58.34,421.37,58.34,424.41Zm-2,0c0-2-1.34-3.14-3.9-3.14H49v6.28h3.41C55,427.55,56.34,426.41,56.34,424.41Z"/><path class="cls-4" d="M66.52,422.83v1.86a3.54,3.54,0,0,0-.45,0c-2,0-3.34,1.26-3.34,3.58v5.29H60.81V422.93h1.84v1.78C63.33,423.47,64.65,422.83,66.52,422.83Z"/><path class="cls-4" d="M67.79,428.23a5.52,5.52,0,1,1,5.52,5.43A5.27,5.27,0,0,1,67.79,428.23Zm9.09,0A3.58,3.58,0,1,0,73.31,432,3.49,3.49,0,0,0,76.88,428.23Z"/><path class="cls-4" d="M83.63,422v.92h3.09v1.58h-3v9H81.75v-9H80v-1.58h1.8V422a3.19,3.19,0,0,1,3.51-3.42,3.6,3.6,0,0,1,2.16.62l-.58,1.46a2.49,2.49,0,0,0-1.49-.5C84.21,420.15,83.63,420.79,83.63,422Z"/><path class="cls-4" d="M97.92,428.87H89.31a3.61,3.61,0,0,0,3.85,3.1,3.92,3.92,0,0,0,3.06-1.28l1.06,1.24a5.29,5.29,0,0,1-4.18,1.73c-3.42,0-5.71-2.27-5.71-5.43a5.19,5.19,0,0,1,5.33-5.4A5.11,5.11,0,0,1,98,428.29C98,428.45,97.94,428.69,97.92,428.87Zm-8.61-1.38h6.81a3.43,3.43,0,0,0-6.81,0Z"/><path class="cls-4" d="M99.27,432.42l.8-1.53A6.79,6.79,0,0,0,103.8,432c1.78,0,2.52-.54,2.52-1.44,0-2.39-6.71-.33-6.71-4.55,0-1.9,1.7-3.18,4.43-3.18a7.71,7.71,0,0,1,3.86,1l-.82,1.52a5.54,5.54,0,0,0-3.06-.84c-1.68,0-2.5.62-2.5,1.46,0,2.5,6.72.46,6.72,4.58,0,1.92-1.76,3.15-4.58,3.15A7.69,7.69,0,0,1,99.27,432.42Z"/><path class="cls-4" d="M109.29,432.42l.8-1.53a6.76,6.76,0,0,0,3.72,1.11c1.79,0,2.53-.54,2.53-1.44,0-2.39-6.71-.33-6.71-4.55,0-1.9,1.7-3.18,4.43-3.18a7.71,7.71,0,0,1,3.86,1l-.82,1.52a5.55,5.55,0,0,0-3.07-.84c-1.68,0-2.5.62-2.5,1.46,0,2.5,6.73.46,6.73,4.58,0,1.92-1.76,3.15-4.58,3.15A7.66,7.66,0,0,1,109.29,432.42Z"/><path class="cls-4" d="M120.43,419.85a1.18,1.18,0,0,1,2.36,0,1.18,1.18,0,1,1-2.36,0Zm.22,3.08h1.92v10.61h-1.92Z"/><path class="cls-4" d="M125.25,428.23a5.52,5.52,0,1,1,5.52,5.43A5.27,5.27,0,0,1,125.25,428.23Zm9.09,0a3.58,3.58,0,1,0-3.57,3.74A3.49,3.49,0,0,0,134.34,428.23Z"/><path class="cls-4" d="M149,427.43v6.11h-1.92v-5.89c0-2.08-1-3.1-2.86-3.1-2,0-3.37,1.22-3.37,3.52v5.47h-1.92V422.93h1.84v1.6a4.56,4.56,0,0,1,3.83-1.7C147.18,422.83,149,424.31,149,427.43Z"/><path class="cls-4" d="M161,427.13v6.41h-1.82v-1.4a4,4,0,0,1-3.49,1.52c-2.4,0-3.92-1.28-3.92-3.13,0-1.7,1.1-3.1,4.26-3.1h3v-.38c0-1.62-.94-2.56-2.85-2.56a5.38,5.38,0,0,0-3.36,1.14l-.8-1.44a7.07,7.07,0,0,1,4.39-1.36C159.32,422.83,161,424.23,161,427.13ZM159,430.3v-1.49h-3c-1.9,0-2.44.75-2.44,1.64,0,1.06.89,1.73,2.35,1.73A3.09,3.09,0,0,0,159,430.3Z"/><path class="cls-4" d="M164.51,418.69h1.93v14.85h-1.93Z"/><path class="cls-4" d="M178.37,426.53a7.08,7.08,0,0,1,7.43-7.16,6.92,6.92,0,0,1,5.32,2.18l-1.3,1.26a5.19,5.19,0,0,0-3.94-1.66,5.39,5.39,0,1,0,0,10.77,5.18,5.18,0,0,0,3.94-1.69l1.3,1.27a7,7,0,0,1-5.35,2.2A7.08,7.08,0,0,1,178.37,426.53Z"/><path class="cls-4" d="M206,419.53l-6.15,14h-2l-6.16-14h2.16l5,11.5,5.09-11.5Z"/><path class="cls-4" d="M227,427.43v6.11h-1.92v-5.89c0-2.08-1-3.1-2.86-3.1-2,0-3.37,1.22-3.37,3.52v5.47h-1.92V418.69h1.92v5.74a4.62,4.62,0,0,1,3.75-1.6C225.18,422.83,227,424.31,227,427.43Z"/><path class="cls-4" d="M239,427.13v6.41h-1.82v-1.4a4,4,0,0,1-3.49,1.52c-2.4,0-3.92-1.28-3.92-3.13,0-1.7,1.1-3.1,4.26-3.1h3v-.38c0-1.62-.94-2.56-2.85-2.56a5.38,5.38,0,0,0-3.36,1.14l-.8-1.44a7.07,7.07,0,0,1,4.39-1.36C237.32,422.83,239,424.23,239,427.13ZM237,430.3v-1.49h-3c-1.9,0-2.44.75-2.44,1.64,0,1.06.89,1.73,2.35,1.73A3.09,3.09,0,0,0,237,430.3Z"/><path class="cls-4" d="M250.38,432v1.58h-8.89V432.3l6.27-7.79h-6.15v-1.58h8.61v1.26L244,432Z"/><path class="cls-4" d="M252.93,422.93h1.92v10.61h-1.92Z"/><path class="cls-4" d="M264.22,422.83v1.86a3.46,3.46,0,0,0-.45,0c-2,0-3.33,1.26-3.33,3.58v5.29h-1.93V422.93h1.84v1.78C261,423.47,262.35,422.83,264.22,422.83Z"/><path class="cls-4" d="M266.57,418.69h1.93v14.85h-1.93Z"/><path class="cls-4" d="M280.56,427.13v6.41h-1.82v-1.4a3.93,3.93,0,0,1-3.48,1.52c-2.41,0-3.93-1.28-3.93-3.13,0-1.7,1.11-3.1,4.27-3.1h3v-.38c0-1.62-.94-2.56-2.84-2.56a5.36,5.36,0,0,0-3.36,1.14l-.81-1.44a7.07,7.07,0,0,1,4.39-1.36C278.92,422.83,280.56,424.23,280.56,427.13Zm-1.92,3.17v-1.49h-3c-1.91,0-2.45.75-2.45,1.64,0,1.06.89,1.73,2.35,1.73A3.09,3.09,0,0,0,278.64,430.3Z"/><path class="cls-4" d="M301.72,427.43v6.11H299.8v-5.89c0-2.08-1-3.1-2.74-3.1-1.92,0-3.18,1.22-3.18,3.52v5.47H292v-5.89c0-2.08-1-3.1-2.74-3.1-1.92,0-3.18,1.22-3.18,3.52v5.47h-1.93V422.93H286v1.58a4.3,4.3,0,0,1,3.66-1.68,3.92,3.92,0,0,1,3.68,2,4.78,4.78,0,0,1,4.08-2C300,422.83,301.72,424.31,301.72,427.43Z"/><path class="cls-4" d="M313.66,427.13v6.41h-1.82v-1.4a3.94,3.94,0,0,1-3.49,1.52c-2.4,0-3.92-1.28-3.92-3.13,0-1.7,1.1-3.1,4.26-3.1h3.05v-.38c0-1.62-.94-2.56-2.84-2.56a5.39,5.39,0,0,0-3.37,1.14l-.8-1.44a7.07,7.07,0,0,1,4.39-1.36C312,422.83,313.66,424.23,313.66,427.13Zm-1.92,3.17v-1.49h-3c-1.9,0-2.44.75-2.44,1.64,0,1.06.89,1.73,2.35,1.73A3.09,3.09,0,0,0,311.74,430.3Z"/><path class="cls-4" d="M333.12,433.54l-3.06-4.07L327,433.54h-2.14l4.18-5.43-4-5.18h2.14l2.92,3.82,2.91-3.82h2.1l-4,5.18,4.23,5.43Z"/><path class="cls-4" d="M337.17,419.85a1.18,1.18,0,1,1,2.36,0,1.18,1.18,0,1,1-2.36,0Zm.22,3.08h1.92v10.61h-1.92Z"/><path class="cls-4" d="M353,418.69v14.85h-1.84v-1.69a4.47,4.47,0,0,1-3.79,1.81,5.42,5.42,0,0,1,0-10.83,4.53,4.53,0,0,1,3.71,1.7v-5.84Zm-1.9,9.54a3.58,3.58,0,1,0-3.56,3.74A3.49,3.49,0,0,0,351.08,428.23Z"/><path class="cls-4" d="M374.22,427.43v6.11H372.3v-5.89c0-2.08-1-3.1-2.74-3.1-1.92,0-3.18,1.22-3.18,3.52v5.47h-1.92v-5.89c0-2.08-1-3.1-2.74-3.1-1.93,0-3.19,1.22-3.19,3.52v5.47h-1.92V422.93h1.84v1.58a4.31,4.31,0,0,1,3.66-1.68,3.93,3.93,0,0,1,3.69,2,4.78,4.78,0,0,1,4.08-2C372.46,422.83,374.22,424.31,374.22,427.43Z"/><path class="cls-4" d="M387.4,428.23a5.2,5.2,0,0,1-5.33,5.41,5.12,5.12,0,0,1-5.24-5.47c0-.16,0-.4,0-.58h8.61a3.6,3.6,0,0,0-3.84-3.1,4,4,0,0,0-3.07,1.28l-1.06-1.24a5.32,5.32,0,0,1,4.18-1.72C385.12,422.81,387.4,425.07,387.4,428.23Zm-1.92.74h-6.81a3.43,3.43,0,0,0,6.81,0Z"/><path class="cls-4" d="M389.37,427.21h5.39v1.66h-5.39Z"/><path class="cls-4" d="M52.72,456.92a3.62,3.62,0,0,1-2.32.74A3,3,0,0,1,47,454.34v-5.83h-1.8v-1.58H47v-2.32H49v2.32h3v1.58H49v5.75A1.57,1.57,0,0,0,50.62,456a2.48,2.48,0,0,0,1.5-.5Z"/><path class="cls-4" d="M54.59,443.85a1.18,1.18,0,0,1,2.36,0,1.18,1.18,0,0,1-2.36,0Zm.22,3.08h1.92v10.61H54.81Z"/><path class="cls-4" d="M70.23,451.43v6.11H68.31v-5.89c0-2.08-1-3.1-2.86-3.1-2,0-3.36,1.22-3.36,3.52v5.47H60.17V446.93H62v1.6a4.54,4.54,0,0,1,3.82-1.7C68.41,446.83,70.23,448.31,70.23,451.43Z"/><path class="cls-4" d="M83.63,442.69v14.85H81.79v-1.69A4.46,4.46,0,0,1,78,457.66a5.42,5.42,0,0,1,0-10.83,4.51,4.51,0,0,1,3.7,1.7v-5.84Zm-1.9,9.54A3.57,3.57,0,1,0,78.17,456,3.49,3.49,0,0,0,81.73,452.23Z"/><path class="cls-4" d="M96.63,452.23a5.19,5.19,0,0,1-5.32,5.41,5.13,5.13,0,0,1-5.25-5.47c0-.16,0-.4,0-.58h8.61a3.59,3.59,0,0,0-3.84-3.1,4,4,0,0,0-3.06,1.28l-1.06-1.24a5.32,5.32,0,0,1,4.18-1.72C94.35,446.81,96.63,449.07,96.63,452.23Zm-1.92.74h-6.8a3.42,3.42,0,0,0,6.8,0Z"/><path class="cls-4" d="M114.57,452.23a5.15,5.15,0,0,1-5.36,5.43,4.51,4.51,0,0,1-3.7-1.73v5.49h-1.92V446.93h1.84v1.68a4.51,4.51,0,0,1,3.78-1.78A5.14,5.14,0,0,1,114.57,452.23Zm-1.94,0a3.57,3.57,0,1,0-3.58,3.74A3.5,3.5,0,0,0,112.63,452.23Z"/><path class="cls-4" d="M126.55,452.87H118a3.59,3.59,0,0,0,3.84,3.1,3.92,3.92,0,0,0,3.06-1.28l1.06,1.24a5.29,5.29,0,0,1-4.18,1.73c-3.42,0-5.7-2.27-5.7-5.43a5.19,5.19,0,0,1,5.32-5.4,5.11,5.11,0,0,1,5.24,5.46C126.59,452.45,126.57,452.69,126.55,452.87Zm-8.6-1.38h6.8a3.42,3.42,0,0,0-6.8,0Z"/><path class="cls-4" d="M132.65,457.64l-.24.9c1.16.12,1.74.78,1.74,1.66,0,1.12-1,1.82-2.48,1.82a3.36,3.36,0,0,1-1.78-.44l.42-1a2.64,2.64,0,0,0,1.36.34c.76,0,1.12-.3,1.12-.8s-.34-.78-1.14-.78h-.55l.45-1.72a7.14,7.14,0,0,1-3.86-1.22l.79-1.53a6.79,6.79,0,0,0,3.73,1.11c1.78,0,2.52-.54,2.52-1.44,0-2.39-6.71-.33-6.71-4.55,0-1.9,1.71-3.18,4.43-3.18a7.71,7.71,0,0,1,3.86,1l-.82,1.52a5.54,5.54,0,0,0-3.06-.84c-1.68,0-2.5.62-2.5,1.46,0,2.5,6.72.46,6.72,4.58C136.65,456.3,135.13,457.48,132.65,457.64Z"/><path class="cls-4" d="M148.4,452.23a5.19,5.19,0,0,1-5.32,5.41,5.12,5.12,0,0,1-5.24-5.47c0-.16,0-.4,0-.58h8.6a3.59,3.59,0,0,0-3.84-3.1,4,4,0,0,0-3.06,1.28l-1.06-1.24a5.32,5.32,0,0,1,4.18-1.72C146.12,446.81,148.4,449.07,148.4,452.23Zm-1.92.74h-6.8a3.42,3.42,0,0,0,6.8,0Z"/><path class="cls-4" d="M155,452.59l-2.2,2.05v2.9h-1.92V442.69h1.92v9.52l5.78-5.28h2.32l-4.46,4.38,4.9,6.23h-2.36Z"/><path class="cls-4" d="M171.14,451.13v6.41h-1.82v-1.4a3.93,3.93,0,0,1-3.48,1.52c-2.4,0-3.92-1.28-3.92-3.13,0-1.7,1.1-3.1,4.26-3.1h3v-.38c0-1.62-.94-2.56-2.84-2.56a5.36,5.36,0,0,0-3.36,1.14l-.8-1.44a7.06,7.06,0,0,1,4.38-1.36C169.5,446.83,171.14,448.23,171.14,451.13Zm-1.92,3.17v-1.49h-3c-1.9,0-2.44.75-2.44,1.64,0,1.06.88,1.73,2.34,1.73A3.09,3.09,0,0,0,169.22,454.3Z"/><path class="cls-4" d="M180.18,446.83v1.86a3.39,3.39,0,0,0-.44,0c-2.06,0-3.34,1.26-3.34,3.58v5.29h-1.92V446.93h1.84v1.78C177,447.47,178.32,446.83,180.18,446.83Z"/><path class="cls-4" d="M191.1,452.59l-2.2,2.05v2.9H187V442.69h1.92v9.52l5.78-5.28H197l-4.46,4.38,4.9,6.23h-2.36Z"/><path class="cls-4" d="M197.66,452.23a5.51,5.51,0,1,1,5.52,5.43A5.27,5.27,0,0,1,197.66,452.23Zm9.08,0a3.57,3.57,0,1,0-3.56,3.74A3.48,3.48,0,0,0,206.74,452.23Z"/><path class="cls-4" d="M228.72,451.43v6.11H226.8v-5.89c0-2.08-1-3.1-2.74-3.1-1.92,0-3.18,1.22-3.18,3.52v5.47H219v-5.89c0-2.08-1-3.1-2.74-3.1-1.92,0-3.18,1.22-3.18,3.52v5.47h-1.92V446.93H213v1.58a4.3,4.3,0,0,1,3.66-1.68,3.92,3.92,0,0,1,3.68,2,4.78,4.78,0,0,1,4.08-2C227,446.83,228.72,448.31,228.72,451.43Z"/><path class="cls-4" d="M240.44,451.13v6.41h-1.82v-1.4a3.93,3.93,0,0,1-3.48,1.52c-2.4,0-3.92-1.28-3.92-3.13,0-1.7,1.1-3.1,4.26-3.1h3v-.38c0-1.62-.94-2.56-2.84-2.56a5.36,5.36,0,0,0-3.36,1.14l-.8-1.44a7.06,7.06,0,0,1,4.38-1.36C238.8,446.83,240.44,448.23,240.44,451.13Zm-1.92,3.17v-1.49h-3c-1.9,0-2.44.75-2.44,1.64,0,1.06.88,1.73,2.34,1.73A3.09,3.09,0,0,0,238.52,454.3Z"/><path class="cls-4" d="M253.84,451.43v6.11h-1.92v-5.89c0-2.08-1-3.1-2.86-3.1-2,0-3.37,1.22-3.37,3.52v5.47h-1.92V446.93h1.84v1.6a4.56,4.56,0,0,1,3.83-1.7C252,446.83,253.84,448.31,253.84,451.43Z"/><path class="cls-4" d="M267.23,442.69v14.85H265.4v-1.69a4.49,4.49,0,0,1-3.79,1.81,5.42,5.42,0,0,1,0-10.83,4.51,4.51,0,0,1,3.7,1.7v-5.84Zm-1.9,9.54a3.57,3.57,0,1,0-3.56,3.74A3.49,3.49,0,0,0,265.33,452.23Z"/><path class="cls-4" d="M279.05,451.13v6.41h-1.82v-1.4a3.93,3.93,0,0,1-3.48,1.52c-2.4,0-3.92-1.28-3.92-3.13,0-1.7,1.1-3.1,4.26-3.1h3v-.38c0-1.62-.94-2.56-2.84-2.56a5.36,5.36,0,0,0-3.36,1.14l-.8-1.44a7.06,7.06,0,0,1,4.38-1.36C277.41,446.83,279.05,448.23,279.05,451.13Zm-1.92,3.17v-1.49h-3c-1.9,0-2.44.75-2.44,1.64,0,1.06.88,1.73,2.34,1.73A3.09,3.09,0,0,0,277.13,454.3Z"/><path class="cls-4" d="M300,451.43v6.11h-1.92v-5.89c0-2.08-1-3.1-2.74-3.1-1.92,0-3.18,1.22-3.18,3.52v5.47h-1.92v-5.89c0-2.08-1-3.1-2.74-3.1-1.92,0-3.18,1.22-3.18,3.52v5.47h-1.92V446.93h1.84v1.58a4.3,4.3,0,0,1,3.66-1.68,3.92,3.92,0,0,1,3.68,2,4.78,4.78,0,0,1,4.08-2C298.23,446.83,300,448.31,300,451.43Z"/><path class="cls-4" d="M303.31,446.93h1.92v10.61h-1.92Z"/><path class="cls-4" d="M316.52,456v1.58h-8.88V456.3l6.26-7.79h-6.14v-1.58h8.61v1.26L310.1,456Z"/><path class="cls-4" d="M329.35,456.92a3.62,3.62,0,0,1-2.32.74,3,3,0,0,1-3.36-3.32v-5.83h-1.8v-1.58h1.8v-2.32h1.92v2.32h3v1.58h-3v5.75a1.57,1.57,0,0,0,1.66,1.78,2.48,2.48,0,0,0,1.5-.5Z"/><path class="cls-4" d="M340.67,452.23a5.19,5.19,0,0,1-5.32,5.41,5.12,5.12,0,0,1-5.25-5.47c0-.16,0-.4,0-.58h8.61a3.59,3.59,0,0,0-3.84-3.1,4,4,0,0,0-3.07,1.28l-1.06-1.24a5.33,5.33,0,0,1,4.19-1.72C338.39,446.81,340.67,449.07,340.67,452.23Zm-1.92.74h-6.81a3.43,3.43,0,0,0,6.81,0Z"/><path class="cls-4" d="M348.8,446.83v1.86a3.39,3.39,0,0,0-.44,0c-2.06,0-3.34,1.26-3.34,3.58v5.29H343.1V446.93h1.84v1.78C345.62,447.47,346.94,446.83,348.8,446.83Z"/><path class="cls-4" d="M360.42,452.23a5.19,5.19,0,0,1-5.32,5.41,5.12,5.12,0,0,1-5.24-5.47c0-.16,0-.4,0-.58h8.6a3.59,3.59,0,0,0-3.84-3.1,4,4,0,0,0-3.06,1.28l-1.06-1.24a5.32,5.32,0,0,1,4.18-1.72C358.14,446.81,360.42,449.07,360.42,452.23Zm-1.92.74h-6.8a3.42,3.42,0,0,0,6.8,0Z"/><path class="cls-4" d="M365,446v.92h3.08v1.58h-3v9h-1.92v-9h-1.8v-1.58h1.8V446a3.19,3.19,0,0,1,3.5-3.42,3.58,3.58,0,0,1,2.16.62l-.58,1.46a2.49,2.49,0,0,0-1.48-.5C365.6,444.15,365,444.79,365,446Z"/><path class="cls-4" d="M371.08,443.85a1.18,1.18,0,0,1,2.36,0,1.18,1.18,0,1,1-2.36,0Zm.22,3.08h1.92v10.61H371.3Z"/><path class="cls-4" d="M386.72,451.43v6.11H384.8v-5.89c0-2.08-1-3.1-2.86-3.1-2,0-3.36,1.22-3.36,3.52v5.47h-1.92V446.93h1.84v1.6a4.54,4.54,0,0,1,3.82-1.7C384.9,446.83,386.72,448.31,386.72,451.43Z"/><path class="cls-4" d="M389.37,451.21h5.39v1.66h-5.39Z"/><path class="cls-4" d="M56.76,466.69v14.85H54.92v-1.69a4.46,4.46,0,0,1-3.78,1.81,5.42,5.42,0,0,1,0-10.83,4.51,4.51,0,0,1,3.7,1.7v-5.84Zm-1.9,9.54A3.58,3.58,0,1,0,51.3,480,3.49,3.49,0,0,0,54.86,476.23Z"/><path class="cls-4" d="M70,476.23a5.2,5.2,0,0,1-5.33,5.41,5.12,5.12,0,0,1-5.24-5.47c0-.16,0-.4,0-.58h8.61a3.6,3.6,0,0,0-3.84-3.1,4,4,0,0,0-3.07,1.28l-1.06-1.24a5.32,5.32,0,0,1,4.18-1.72C67.7,470.81,70,473.07,70,476.23Zm-1.92.74H61.25a3.43,3.43,0,0,0,6.81,0Z"/><path class="cls-4" d="M82.7,475.43v6.11H80.78v-5.89c0-2.08-1-3.1-2.86-3.1-2,0-3.36,1.22-3.36,3.52v5.47H72.63V470.93h1.85v1.6a4.53,4.53,0,0,1,3.82-1.7C80.88,470.83,82.7,472.31,82.7,475.43Z"/><path class="cls-4" d="M91.75,474.53a7.08,7.08,0,0,1,7.42-7.16,6.92,6.92,0,0,1,5.32,2.18l-1.3,1.26a5.19,5.19,0,0,0-3.94-1.66,5.39,5.39,0,1,0,0,10.77,5.18,5.18,0,0,0,3.94-1.69l1.3,1.27a7,7,0,0,1-5.34,2.2A7.08,7.08,0,0,1,91.75,474.53Z"/><path class="cls-4" d="M119.37,467.53l-6.14,14h-2l-6.16-14h2.16l5,11.5,5.08-11.5Z"/><path class="cls-4" d="M120.61,467.53h1.68l-.14,5.4h-1.42Z"/><path class="cls-4" d="M135.43,475.43v6.11h-1.92v-5.89c0-2.08-1-3.1-2.86-3.1-2,0-3.36,1.22-3.36,3.52v5.47h-1.92V470.93h1.84v1.6a4.54,4.54,0,0,1,3.82-1.7C133.61,470.83,135.43,472.31,135.43,475.43Z"/><path class="cls-4" d="M138.77,467.85a1.18,1.18,0,0,1,2.36,0,1.18,1.18,0,1,1-2.36,0Zm.22,3.08h1.92v10.61H139Z"/><path class="cls-4" d="M152.43,480v1.58h-8.88V480.3l6.26-7.79h-6.14v-1.58h8.6v1.26L146,480Z"/><path class="cls-4" d="M154.77,467.85a1.18,1.18,0,0,1,2.36,0,1.18,1.18,0,1,1-2.36,0Zm.22,3.08h1.92v10.61H155Z"/><path class="cls-4" d="M176.93,470.93v14.49H175v-5.49a4.51,4.51,0,0,1-3.7,1.73,5.42,5.42,0,0,1,0-10.83,4.51,4.51,0,0,1,3.78,1.78v-1.68Zm-1.9,5.3a3.57,3.57,0,1,0-3.56,3.74A3.5,3.5,0,0,0,175,476.23Z"/><path class="cls-4" d="M190.45,470.93v10.61h-1.82v-1.61a4.29,4.29,0,0,1-3.6,1.73c-2.74,0-4.56-1.5-4.56-4.63v-6.1h1.92v5.88c0,2.08,1,3.12,2.86,3.12,2,0,3.28-1.24,3.28-3.52v-5.48Z"/><path class="cls-4" d="M199.81,470.83v1.86a3.39,3.39,0,0,0-.44,0c-2.06,0-3.34,1.26-3.34,3.58v5.29h-1.92V470.93H196v1.78C196.63,471.47,198,470.83,199.81,470.83Z"/><path class="cls-4" d="M212.19,470.93v10.61h-1.82v-1.61a4.29,4.29,0,0,1-3.6,1.73c-2.74,0-4.56-1.5-4.56-4.63v-6.1h1.92v5.88c0,2.08,1,3.12,2.86,3.12,2,0,3.28-1.24,3.28-3.52v-5.48Z"/><path class="cls-4" d="M215.85,466.69h1.92v14.85h-1.92Z"/><path class="cls-4" d="M231.31,470.93v10.61h-1.82v-1.61a4.29,4.29,0,0,1-3.6,1.73c-2.74,0-4.56-1.5-4.56-4.63v-6.1h1.92v5.88c0,2.08,1,3.12,2.86,3.12,2,0,3.28-1.24,3.28-3.52v-5.48Z"/><path class="cls-4" d="M238.59,481.64l-.24.9c1.16.12,1.74.78,1.74,1.66,0,1.12-1,1.82-2.48,1.82a3.36,3.36,0,0,1-1.78-.44l.42-1a2.64,2.64,0,0,0,1.36.34c.76,0,1.12-.3,1.12-.8s-.34-.78-1.14-.78h-.54l.44-1.72a7.17,7.17,0,0,1-3.86-1.22l.8-1.53a6.73,6.73,0,0,0,3.72,1.11c1.78,0,2.52-.54,2.52-1.44,0-2.39-6.7-.33-6.7-4.55,0-1.9,1.7-3.18,4.42-3.18a7.71,7.71,0,0,1,3.86,1l-.82,1.52a5.54,5.54,0,0,0-3.06-.84c-1.68,0-2.5.62-2.5,1.46,0,2.5,6.72.46,6.72,4.58C242.59,480.3,241.07,481.48,238.59,481.64Z"/><path class="cls-4" d="M260.73,470.93l-4.65,10.61h-2l-4.64-10.61h2l3.64,8.5,3.73-8.5Z"/><path class="cls-4" d="M271.81,476.23a5.2,5.2,0,0,1-5.33,5.41,5.12,5.12,0,0,1-5.24-5.47c0-.16,0-.4,0-.58h8.61a3.6,3.6,0,0,0-3.85-3.1,4,4,0,0,0-3.06,1.28l-1.06-1.24a5.32,5.32,0,0,1,4.18-1.72C269.52,470.81,271.81,473.07,271.81,476.23Zm-1.92.74h-6.81a3.43,3.43,0,0,0,6.81,0Z"/><path class="cls-4" d="M283,470v.92h3.08v1.58h-3v9H281.1v-9h-1.8v-1.58h1.8V470a3.19,3.19,0,0,1,3.5-3.42,3.58,3.58,0,0,1,2.16.62l-.58,1.46a2.49,2.49,0,0,0-1.48-.5C283.56,468.15,283,468.79,283,470Z"/><path class="cls-4" d="M286.74,476.23a5.51,5.51,0,1,1,5.52,5.43A5.27,5.27,0,0,1,286.74,476.23Zm9.08,0a3.57,3.57,0,1,0-3.56,3.74A3.48,3.48,0,0,0,295.82,476.23Z"/><path class="cls-4" d="M306.12,470.83v1.86a3.39,3.39,0,0,0-.44,0c-2.06,0-3.34,1.26-3.34,3.58v5.29h-1.92V470.93h1.84v1.78C302.94,471.47,304.26,470.83,306.12,470.83Z"/><path class="cls-4" d="M326.08,475.43v6.11h-1.92v-5.89c0-2.08-1-3.1-2.74-3.1-1.92,0-3.18,1.22-3.18,3.52v5.47h-1.92v-5.89c0-2.08-1-3.1-2.74-3.1-1.92,0-3.18,1.22-3.18,3.52v5.47h-1.92V470.93h1.84v1.58a4.3,4.3,0,0,1,3.66-1.68,3.92,3.92,0,0,1,3.68,2,4.78,4.78,0,0,1,4.08-2C324.32,470.83,326.08,472.31,326.08,475.43Z"/><path class="cls-4" d="M338,475.13v6.41H336.2v-1.4a3.93,3.93,0,0,1-3.48,1.52c-2.4,0-3.92-1.28-3.92-3.13,0-1.7,1.1-3.1,4.26-3.1h3v-.38c0-1.62-.94-2.56-2.84-2.56a5.36,5.36,0,0,0-3.36,1.14l-.8-1.44a7.06,7.06,0,0,1,4.38-1.36C336.38,470.83,338,472.23,338,475.13Zm-1.92,3.17v-1.49h-3c-1.9,0-2.44.75-2.44,1.64,0,1.06.88,1.73,2.34,1.73A3.09,3.09,0,0,0,336.1,478.3Z"/><path class="cls-4" d="M358.92,476.23a5.17,5.17,0,0,1-5.36,5.43,4.46,4.46,0,0,1-3.78-1.81v1.69h-1.84V466.69h1.92v5.84a4.51,4.51,0,0,1,3.7-1.7A5.14,5.14,0,0,1,358.92,476.23Zm-1.94,0A3.57,3.57,0,1,0,353.4,480,3.49,3.49,0,0,0,357,476.23Z"/><path class="cls-4" d="M369.88,475.13v6.41h-1.82v-1.4a3.93,3.93,0,0,1-3.48,1.52c-2.4,0-3.93-1.28-3.93-3.13,0-1.7,1.11-3.1,4.27-3.1h3v-.38c0-1.62-.94-2.56-2.84-2.56a5.36,5.36,0,0,0-3.36,1.14l-.81-1.44a7.11,7.11,0,0,1,4.39-1.36C368.24,470.83,369.88,472.23,369.88,475.13ZM368,478.3v-1.49h-3c-1.9,0-2.44.75-2.44,1.64,0,1.06.88,1.73,2.34,1.73A3.09,3.09,0,0,0,368,478.3Z"/><path class="cls-4" d="M380.2,481.54l-3.06-4.07-3.1,4.07H371.9l4.18-5.43-4-5.18h2.13l2.93,3.82,2.9-3.82h2.1l-4,5.18,4.22,5.43Z"/><path class="cls-4" d="M384.48,470.93h1.92v10.61h-1.92Z"/><path class="cls-4" d="M389.38,475.21h5.38v1.66h-5.38Z"/><path class="cls-4" d="M64.36,499.43v6.11H62.44v-5.89c0-2.08-1-3.1-2.74-3.1-1.92,0-3.18,1.22-3.18,3.52v5.47H54.6v-5.89c0-2.08-1-3.1-2.74-3.1-1.92,0-3.18,1.22-3.18,3.52v5.47H46.75V494.93H48.6v1.58a4.28,4.28,0,0,1,3.66-1.68,3.92,3.92,0,0,1,3.68,2,4.78,4.78,0,0,1,4.08-2C62.6,494.83,64.36,496.31,64.36,499.43Z"/><path class="cls-4" d="M67.89,494.93h1.92v10.61H67.89Z"/><path class="cls-4" d="M83.54,499.43v6.11H81.62v-5.89c0-2.08-1-3.1-2.86-3.1-2,0-3.36,1.22-3.36,3.52v5.47H73.47V494.93h1.84v1.6a4.56,4.56,0,0,1,3.83-1.7C81.72,494.83,83.54,496.31,83.54,499.43Z"/><path class="cls-4" d="M97.16,490.69v14.85H95.32v-1.69a4.47,4.47,0,0,1-3.79,1.81,5.42,5.42,0,0,1,0-10.83,4.54,4.54,0,0,1,3.71,1.7v-5.84Zm-1.9,9.54A3.58,3.58,0,1,0,91.69,504,3.49,3.49,0,0,0,95.26,500.23Z"/><path class="cls-4" d="M109.2,499.13v6.41h-1.83v-1.4a3.93,3.93,0,0,1-3.48,1.52c-2.4,0-3.92-1.28-3.92-3.13,0-1.7,1.1-3.1,4.26-3.1h3v-.38c0-1.62-.94-2.56-2.84-2.56a5.36,5.36,0,0,0-3.36,1.14l-.8-1.44a7.06,7.06,0,0,1,4.38-1.36C107.56,494.83,109.2,496.23,109.2,499.13Zm-1.93,3.17v-1.49h-3c-1.9,0-2.44.75-2.44,1.64,0,1.06.88,1.73,2.34,1.73A3.09,3.09,0,0,0,107.27,502.3Z"/><path class="cls-4" d="M122.82,499.43v6.11H120.9v-5.89c0-2.08-1.05-3.1-2.87-3.1-2,0-3.36,1.22-3.36,3.52v5.47h-1.92V494.93h1.84v1.6a4.54,4.54,0,0,1,3.82-1.7C121,494.83,122.82,496.31,122.82,499.43Z"/><path class="cls-4" d="M142.65,494.93v9.17c0,3.74-1.9,5.44-5.5,5.44a7.85,7.85,0,0,1-5.06-1.58l.92-1.48a6.47,6.47,0,0,0,4.08,1.38c2.5,0,3.64-1.16,3.64-3.56v-.84a4.85,4.85,0,0,1-3.82,1.64,5.14,5.14,0,1,1,0-10.27,4.84,4.84,0,0,1,3.92,1.74v-1.64Zm-1.88,5a3.66,3.66,0,0,0-7.3,0,3.65,3.65,0,0,0,7.3,0Z"/><path class="cls-4" d="M156.19,494.93v10.61h-1.82v-1.61a4.29,4.29,0,0,1-3.6,1.73c-2.74,0-4.56-1.5-4.56-4.63v-6.1h1.92v5.88c0,2.08,1,3.12,2.86,3.12,2,0,3.28-1.24,3.28-3.52v-5.48Zm-7.86-2.9a1,1,0,1,1,2,0,1,1,0,0,1-2,0Zm3.72,0a1,1,0,1,1,2,0,1,1,0,0,1-2,0Z"/><path class="cls-4" d="M158.87,500.23a5.3,5.3,0,0,1,5.6-5.4,4.73,4.73,0,0,1,4.32,2.26l-1.46.94a3.3,3.3,0,0,0-2.88-1.52,3.73,3.73,0,0,0,0,7.46,3.28,3.28,0,0,0,2.88-1.52l1.46.93a4.74,4.74,0,0,1-4.32,2.28A5.32,5.32,0,0,1,158.87,500.23Z"/><path class="cls-4" d="M171.13,490.69h1.92v14.85h-1.92Z"/><path class="cls-4" d="M186.29,500.23a5.19,5.19,0,0,1-5.32,5.41,5.12,5.12,0,0,1-5.24-5.47c0-.16,0-.4,0-.58h8.6a3.59,3.59,0,0,0-3.84-3.1,4,4,0,0,0-3.06,1.28l-1.06-1.24a5.32,5.32,0,0,1,4.18-1.72C184,494.81,186.29,497.07,186.29,500.23Zm-1.92.74h-6.8a3.42,3.42,0,0,0,6.8,0Z"/><path class="cls-4" d="M199,499.43v6.11h-1.92v-5.89c0-2.08-1-3.1-2.86-3.1-2,0-3.36,1.22-3.36,3.52v5.47H189V494.93h1.84v1.6a4.54,4.54,0,0,1,3.82-1.7C197.19,494.83,199,496.31,199,499.43Z"/><path class="cls-4" d="M212.63,490.69v14.85h-1.84v-1.69a4.46,4.46,0,0,1-3.78,1.81,5.42,5.42,0,0,1,0-10.83,4.51,4.51,0,0,1,3.7,1.7v-5.84Zm-1.9,9.54a3.57,3.57,0,1,0-3.56,3.74A3.49,3.49,0,0,0,210.73,500.23Z"/><path class="cls-4" d="M216.05,491.85a1.18,1.18,0,0,1,2.36,0,1.18,1.18,0,1,1-2.36,0Zm.22,3.08h1.92v10.61h-1.92Z"/><path class="cls-4" d="M227.55,494.83v1.86a3.39,3.39,0,0,0-.44,0c-2.06,0-3.34,1.26-3.34,3.58v5.29h-1.92V494.93h1.84v1.78C224.37,495.47,225.69,494.83,227.55,494.83Z"/><path class="cls-4" d="M229.69,491.85a1.18,1.18,0,0,1,2.36,0,1.18,1.18,0,1,1-2.36,0Zm.22,3.08h1.92v10.61h-1.92Z"/><path class="cls-4" d="M246.47,500.23a5.17,5.17,0,0,1-5.36,5.43,4.46,4.46,0,0,1-3.78-1.81v1.69h-1.84V490.69h1.92v5.84a4.51,4.51,0,0,1,3.7-1.7A5.14,5.14,0,0,1,246.47,500.23Zm-1.94,0A3.57,3.57,0,1,0,241,504,3.49,3.49,0,0,0,244.53,500.23Z"/><path class="cls-4" d="M250.67,504.27a4.09,4.09,0,0,1-.34,1.45l-.94,2.78h-1.26l.74-3a1.28,1.28,0,0,1-.84-1.25,1.3,1.3,0,0,1,1.34-1.35A1.29,1.29,0,0,1,250.67,504.27Z"/><path class="cls-4" d="M258.58,500.23a5.51,5.51,0,1,1,5.52,5.43A5.27,5.27,0,0,1,258.58,500.23Zm9.08,0A3.57,3.57,0,1,0,264.1,504,3.48,3.48,0,0,0,267.66,500.23ZM261.2,492a1,1,0,1,1,2,0,1,1,0,0,1-2,0Zm3.72,0a1,1,0,1,1,2,0,1,1,0,0,1-2,0Z"/><path class="cls-4" d="M280,504v1.58h-8.88V504.3l6.26-7.79H271.2v-1.58h8.6v1.26L273.54,504Z"/><path class="cls-4" d="M291.94,500.23a5.19,5.19,0,0,1-5.32,5.41,5.12,5.12,0,0,1-5.24-5.47c0-.16,0-.4,0-.58H290a3.59,3.59,0,0,0-3.84-3.1,4,4,0,0,0-3.06,1.28l-1.06-1.24a5.32,5.32,0,0,1,4.18-1.72C289.66,494.81,291.94,497.07,291.94,500.23ZM290,501h-6.8a3.42,3.42,0,0,0,6.8,0Z"/><path class="cls-4" d="M294.6,490.69h1.92v14.85H294.6Z"/><path class="cls-4" d="M316.32,490.69v14.85h-1.84v-1.69a4.46,4.46,0,0,1-3.78,1.81,5.42,5.42,0,0,1,0-10.83,4.51,4.51,0,0,1,3.7,1.7v-5.84Zm-1.9,9.54a3.58,3.58,0,1,0-3.56,3.74A3.49,3.49,0,0,0,314.42,500.23Z"/><path class="cls-4" d="M319.73,491.85a1.19,1.19,0,1,1,1.18,1.18A1.16,1.16,0,0,1,319.73,491.85Zm.22,3.08h1.93v10.61H320Z"/><path class="cls-4" d="M333.4,504v1.58h-8.89V504.3l6.27-7.79h-6.15v-1.58h8.61v1.26L327,504Z"/><path class="cls-4" d="M344.36,499.13v6.41h-1.82v-1.4a3.93,3.93,0,0,1-3.48,1.52c-2.41,0-3.93-1.28-3.93-3.13,0-1.7,1.1-3.1,4.27-3.1h3v-.38c0-1.62-.94-2.56-2.84-2.56a5.41,5.41,0,0,0-3.37,1.14l-.8-1.44a7.07,7.07,0,0,1,4.39-1.36C342.72,494.83,344.36,496.23,344.36,499.13Zm-1.92,3.17v-1.49h-3c-1.91,0-2.45.75-2.45,1.64,0,1.06.89,1.73,2.35,1.73A3.09,3.09,0,0,0,342.44,502.3Z"/><path class="cls-4" d="M357.1,494.93,352,506.6c-.94,2.24-2.17,2.94-3.79,2.94a4,4,0,0,1-2.72-1l.82-1.44a2.71,2.71,0,0,0,1.9.78c.93,0,1.51-.42,2-1.64l.34-.74-4.68-10.59h2l3.71,8.49,3.66-8.49Z"/><path class="cls-4" d="M369,499.43v6.11H367v-5.89c0-2.08-1-3.1-2.86-3.1-2,0-3.37,1.22-3.37,3.52v5.47h-1.92V494.93h1.84v1.6a4.56,4.56,0,0,1,3.83-1.7C367.14,494.83,369,496.31,369,499.43Z"/><path class="cls-4" d="M372.51,490.69h1.93v14.85h-1.93Z"/><path class="cls-4" d="M386.5,499.13v6.41h-1.82v-1.4a4,4,0,0,1-3.49,1.52c-2.4,0-3.92-1.28-3.92-3.13,0-1.7,1.1-3.1,4.26-3.1h3.05v-.38c0-1.62-.94-2.56-2.85-2.56a5.38,5.38,0,0,0-3.36,1.14l-.8-1.44a7.07,7.07,0,0,1,4.39-1.36C384.86,494.83,386.5,496.23,386.5,499.13Zm-1.92,3.17v-1.49h-3c-1.9,0-2.44.75-2.44,1.64,0,1.06.89,1.73,2.35,1.73A3.09,3.09,0,0,0,384.58,502.3Z"/><path class="cls-4" d="M389.37,499.21h5.39v1.66h-5.39Z"/><path class="cls-4" d="M52.46,518.83v1.86a3.39,3.39,0,0,0-.44,0c-2.06,0-3.34,1.26-3.34,3.58v5.29H46.75V518.93H48.6v1.78C49.27,519.47,50.6,518.83,52.46,518.83Z"/><path class="cls-4" d="M54.63,518.93h1.92v10.61H54.63Z"/><path class="cls-4" d="M77.63,523.43v6.11H75.71v-5.89c0-2.08-1-3.1-2.74-3.1-1.92,0-3.18,1.22-3.18,3.52v5.47H67.87v-5.89c0-2.08-1-3.1-2.74-3.1-1.92,0-3.18,1.22-3.18,3.52v5.47H60V518.93h1.84v1.58a4.3,4.3,0,0,1,3.66-1.68,3.92,3.92,0,0,1,3.68,2,4.78,4.78,0,0,1,4.08-2C75.87,518.83,77.63,520.31,77.63,523.43Z"/><path class="cls-4" d="M81,518.93h1.92v10.61H81Z"/><path class="cls-4" d="M94.25,528v1.58H85.37V528.3l6.26-7.79H85.49v-1.58h8.6v1.26L87.83,528Z"/><path class="cls-4" d="M100.89,515.85a1.18,1.18,0,1,1,2.36,0,1.18,1.18,0,1,1-2.36,0Zm.22,3.08H103v10.61h-1.92Z"/><path class="cls-4" d="M106.51,514.69h1.92v14.85h-1.92Z"/><path class="cls-4" d="M121.49,524.23a5.19,5.19,0,0,1-5.32,5.41,5.12,5.12,0,0,1-5.24-5.47c0-.16,0-.4,0-.58h8.6a3.59,3.59,0,0,0-3.84-3.1,4,4,0,0,0-3.06,1.28l-1.06-1.24a5.32,5.32,0,0,1,4.18-1.72C119.21,518.81,121.49,521.07,121.49,524.23Zm-1.92.74h-6.8a3.42,3.42,0,0,0,6.8,0Z"/><path class="cls-4" d="M128.23,515.85a1.18,1.18,0,1,1,2.36,0,1.18,1.18,0,1,1-2.36,0Zm.22,3.08h1.92v10.61h-1.92Z"/><path class="cls-4" d="M137.47,529.64l-.24.9c1.16.12,1.74.78,1.74,1.66,0,1.12-1,1.82-2.48,1.82a3.36,3.36,0,0,1-1.78-.44l.42-1a2.64,2.64,0,0,0,1.36.34c.76,0,1.12-.3,1.12-.8s-.34-.78-1.14-.78h-.54l.44-1.72a7.17,7.17,0,0,1-3.86-1.22l.8-1.53A6.73,6.73,0,0,0,137,528c1.78,0,2.52-.54,2.52-1.44,0-2.39-6.7-.33-6.7-4.55,0-1.9,1.7-3.18,4.42-3.18a7.71,7.71,0,0,1,3.86,1l-.82,1.52a5.54,5.54,0,0,0-3.06-.84c-1.68,0-2.5.62-2.5,1.46,0,2.5,6.72.46,6.72,4.58C141.47,528.3,140,529.48,137.47,529.64Z"/><path class="cls-4" d="M165.78,523.43v6.11h-1.92v-5.89c0-2.08-1-3.1-2.74-3.1-1.92,0-3.18,1.22-3.18,3.52v5.47H156v-5.89c0-2.08-1-3.1-2.75-3.1-1.92,0-3.18,1.22-3.18,3.52v5.47h-1.92V518.93H150v1.58a4.3,4.3,0,0,1,3.66-1.68,3.91,3.91,0,0,1,3.68,2,4.81,4.81,0,0,1,4.09-2C164,518.83,165.78,520.31,165.78,523.43Z"/><path class="cls-4" d="M179,518.93v10.61h-1.82v-1.61a4.29,4.29,0,0,1-3.6,1.73c-2.74,0-4.56-1.5-4.56-4.63v-6.1H171v5.88c0,2.08,1,3.12,2.86,3.12,2,0,3.28-1.24,3.28-3.52v-5.48Zm-7.86-2.9a1,1,0,1,1,2,0,1,1,0,0,1-2,0Zm3.72,0a1,1,0,1,1,2,0,1,1,0,0,1-2,0Z"/><path class="cls-4" d="M188.19,518.83v1.86a3.39,3.39,0,0,0-.44,0c-2.06,0-3.34,1.26-3.34,3.58v5.29h-1.92V518.93h1.84v1.78C185,519.47,186.33,518.83,188.19,518.83Z"/><path class="cls-4" d="M198.75,523.13v6.41h-1.82v-1.4a3.93,3.93,0,0,1-3.48,1.52c-2.4,0-3.92-1.28-3.92-3.13,0-1.7,1.1-3.1,4.26-3.1h3v-.38c0-1.62-.94-2.56-2.84-2.56a5.36,5.36,0,0,0-3.36,1.14l-.8-1.44a7.06,7.06,0,0,1,4.38-1.36C197.11,518.83,198.75,520.23,198.75,523.13Zm-1.92,3.17v-1.49h-3c-1.9,0-2.44.75-2.44,1.64,0,1.06.88,1.73,2.34,1.73A3.09,3.09,0,0,0,196.83,526.3Z"/><path class="cls-4" d="M201.2,524.23a5.3,5.3,0,0,1,5.61-5.4,4.73,4.73,0,0,1,4.32,2.26l-1.46.94a3.31,3.31,0,0,0-2.89-1.52,3.73,3.73,0,0,0,0,7.46,3.29,3.29,0,0,0,2.89-1.52l1.46.93a4.74,4.74,0,0,1-4.32,2.28A5.32,5.32,0,0,1,201.2,524.23Z"/><path class="cls-4" d="M213.2,515.85a1.18,1.18,0,1,1,2.36,0,1.18,1.18,0,1,1-2.36,0Zm.22,3.08h1.92v10.61h-1.92Z"/><path class="cls-4" d="M228.4,524.23a5.19,5.19,0,0,1-5.32,5.41,5.12,5.12,0,0,1-5.24-5.47c0-.16,0-.4,0-.58h8.6a3.59,3.59,0,0,0-3.84-3.1,4,4,0,0,0-3.06,1.28l-1.06-1.24a5.32,5.32,0,0,1,4.18-1.72C226.12,518.81,228.4,521.07,228.4,524.23Zm-1.92.74h-6.8a3.42,3.42,0,0,0,6.8,0Z"/><path class="cls-4" d="M236.84,528.92a3.62,3.62,0,0,1-2.32.74,3,3,0,0,1-3.36-3.32v-5.83h-1.8v-1.58h1.8v-2.32h1.92v2.32h3v1.58h-3v5.75a1.57,1.57,0,0,0,1.66,1.78,2.48,2.48,0,0,0,1.5-.5Z"/><path class="cls-4" d="M239,514.69h1.92v14.85H239Z"/><path class="cls-4" d="M254,524.23a5.19,5.19,0,0,1-5.32,5.41,5.12,5.12,0,0,1-5.25-5.47c0-.16,0-.4,0-.58H252a3.59,3.59,0,0,0-3.84-3.1,4,4,0,0,0-3.07,1.28l-1.06-1.24a5.33,5.33,0,0,1,4.19-1.72C251.68,518.81,254,521.07,254,524.23ZM252,525h-6.81a3.43,3.43,0,0,0,6.81,0Z"/><path class="cls-4" d="M262.13,518.83v1.86a3.39,3.39,0,0,0-.44,0c-2.06,0-3.34,1.26-3.34,3.58v5.29h-1.92V518.93h1.84v1.78C259,519.47,260.27,518.83,262.13,518.83Z"/><path class="cls-4" d="M264.09,515.85a1.18,1.18,0,1,1,2.36,0,1.18,1.18,0,1,1-2.36,0Zm.22,3.08h1.92v10.61h-1.92Z"/><path class="cls-4" d="M279.77,523.43v6.11h-1.92v-5.89c0-2.08-1-3.1-2.86-3.1-2,0-3.36,1.22-3.36,3.52v5.47h-1.92V518.93h1.84v1.6a4.54,4.54,0,0,1,3.82-1.7C278,518.83,279.77,520.31,279.77,523.43Z"/><path class="cls-4" d="M293.21,514.69v14.85h-1.84v-1.69a4.46,4.46,0,0,1-3.78,1.81,5.42,5.42,0,0,1,0-10.83,4.51,4.51,0,0,1,3.7,1.7v-5.84Zm-1.9,9.54a3.57,3.57,0,1,0-3.56,3.74A3.49,3.49,0,0,0,291.31,524.23Z"/><path class="cls-4" d="M306.25,524.23a5.19,5.19,0,0,1-5.32,5.41,5.12,5.12,0,0,1-5.24-5.47c0-.16,0-.4,0-.58h8.6a3.59,3.59,0,0,0-3.84-3.1,4,4,0,0,0-3.06,1.28l-1.06-1.24a5.32,5.32,0,0,1,4.18-1.72C304,518.81,306.25,521.07,306.25,524.23Zm-1.92.74h-6.8a3.42,3.42,0,0,0,6.8,0Z"/><path class="cls-4" d="M323.09,518.93v10.61h-1.82v-1.61a4.29,4.29,0,0,1-3.6,1.73c-2.74,0-4.56-1.5-4.56-4.63v-6.1H315v5.88c0,2.08,1,3.12,2.86,3.12,2,0,3.28-1.24,3.28-3.52v-5.48Zm-7.86-2.9a1,1,0,1,1,2,0,1,1,0,0,1-2,0Zm3.72,0a1,1,0,1,1,2,0,1,1,0,1,1-2,0Z"/><path class="cls-4" d="M325.23,528.42l.8-1.53a6.73,6.73,0,0,0,3.72,1.11c1.78,0,2.52-.54,2.52-1.44,0-2.39-6.7-.33-6.7-4.55,0-1.9,1.7-3.18,4.42-3.18a7.71,7.71,0,0,1,3.86,1l-.82,1.52a5.54,5.54,0,0,0-3.06-.84c-1.68,0-2.5.62-2.5,1.46,0,2.5,6.72.46,6.72,4.58,0,1.92-1.76,3.15-4.58,3.15A7.65,7.65,0,0,1,325.23,528.42Z"/><path class="cls-4" d="M342.37,528.92a3.62,3.62,0,0,1-2.32.74,3,3,0,0,1-3.36-3.32v-5.83h-1.8v-1.58h1.8v-2.32h1.92v2.32h3v1.58h-3v5.75a1.57,1.57,0,0,0,1.66,1.78,2.48,2.48,0,0,0,1.5-.5Z"/><path class="cls-4" d="M354.39,518.93v10.61h-1.83v-1.61a4.29,4.29,0,0,1-3.6,1.73c-2.74,0-4.56-1.5-4.56-4.63v-6.1h1.92v5.88c0,2.08,1,3.12,2.86,3.12,2,0,3.29-1.24,3.29-3.52v-5.48Zm-7.87-2.9a1,1,0,1,1,2,0,1,1,0,1,1-2,0Zm3.72,0a1,1,0,1,1,2,0,1,1,0,1,1-2,0Z"/><path class="cls-4" d="M367.92,523.43v6.11H366v-5.89c0-2.08-1-3.1-2.86-3.1-2,0-3.36,1.22-3.36,3.52v5.47h-1.92V518.93h1.84v1.6a4.54,4.54,0,0,1,3.82-1.7C366.1,518.83,367.92,520.31,367.92,523.43Z"/><path class="cls-4" d="M371.3,514.69h1.92v14.85H371.3Z"/><path class="cls-4" d="M386.58,518.93v10.61h-1.82v-1.61a4.29,4.29,0,0,1-3.6,1.73c-2.74,0-4.56-1.5-4.56-4.63v-6.1h1.92v5.88c0,2.08,1,3.12,2.86,3.12,2,0,3.28-1.24,3.28-3.52v-5.48Zm-7.86-2.9a1,1,0,1,1,2,0,1,1,0,0,1-2,0Zm3.72,0a1,1,0,1,1,2,0,1,1,0,1,1-2,0Z"/><path class="cls-4" d="M389.38,523.21h5.38v1.66h-5.38Z"/><path class="cls-4" d="M56.14,542.93,51,554.6c-.94,2.24-2.17,2.94-3.79,2.94a4,4,0,0,1-2.72-1l.82-1.44a2.71,2.71,0,0,0,1.9.78c.92,0,1.51-.42,2-1.64l.34-.74-4.68-10.59h2l3.71,8.49,3.66-8.49Z"/><path class="cls-4" d="M67.82,542.93v10.61H66v-1.61a4.29,4.29,0,0,1-3.6,1.73c-2.75,0-4.57-1.5-4.57-4.63v-6.1h1.92v5.88c0,2.08,1,3.12,2.86,3.12,2,0,3.29-1.24,3.29-3.52v-5.48ZM60,540a1,1,0,1,1,2,0,1,1,0,1,1-2,0Zm3.73,0a1,1,0,1,1,2,0,1,1,0,1,1-2,0Z"/><path class="cls-4" d="M81.54,547.43v6.11H79.62v-5.89c0-2.08-1-3.1-2.86-3.1-2,0-3.36,1.22-3.36,3.52v5.47H71.47V542.93h1.84v1.6a4.56,4.56,0,0,1,3.83-1.7C79.72,542.83,81.54,544.31,81.54,547.43Z"/><path class="cls-4" d="M95,542.93v10.61H93.16v-1.61a4.29,4.29,0,0,1-3.6,1.73c-2.75,0-4.57-1.5-4.57-4.63v-6.1h1.92v5.88c0,2.08,1,3.12,2.86,3.12,2,0,3.29-1.24,3.29-3.52v-5.48ZM87.11,540a1,1,0,1,1,2,0,1,1,0,1,1-2,0Zm3.73,0a1,1,0,1,1,2,0,1,1,0,0,1-2,0Z"/><path class="cls-4" d="M106.5,552v1.58H97.61V552.3l6.27-7.79H97.73v-1.58h8.61v1.26L100.07,552Z"/><path class="cls-4" d="M118.94,542.93v10.61h-1.82v-1.61a4.29,4.29,0,0,1-3.6,1.73c-2.75,0-4.57-1.5-4.57-4.63v-6.1h1.92v5.88c0,2.08,1,3.12,2.86,3.12,2,0,3.29-1.24,3.29-3.52v-5.48Zm-7.87-2.9a1,1,0,1,1,2,0,1,1,0,1,1-2,0Zm3.73,0a1,1,0,1,1,2,0,1,1,0,0,1-2,0Z"/><path class="cls-4" d="M127,548.23a5.52,5.52,0,1,1,5.53,5.43A5.28,5.28,0,0,1,127,548.23Zm9.09,0a3.58,3.58,0,1,0-7.15,0,3.58,3.58,0,1,0,7.15,0Z"/><path class="cls-4" d="M146.38,542.83v1.86a3.39,3.39,0,0,0-.44,0c-2.06,0-3.34,1.26-3.34,3.58v5.29h-1.93V542.93h1.85v1.78C143.19,543.47,144.52,542.83,146.38,542.83Z"/><path class="cls-4" d="M155.14,552.92a3.63,3.63,0,0,1-2.33.74,3,3,0,0,1-3.36-3.32v-5.83h-1.8v-1.58h1.8v-2.32h1.92v2.32h3v1.58h-3v5.75A1.57,1.57,0,0,0,153,552a2.48,2.48,0,0,0,1.5-.5Z"/><path class="cls-4" d="M165.86,547.13v6.41H164v-1.4a3.92,3.92,0,0,1-3.48,1.52c-2.4,0-3.92-1.28-3.92-3.13,0-1.7,1.1-3.1,4.26-3.1h3.05v-.38c0-1.62-.95-2.56-2.85-2.56a5.36,5.36,0,0,0-3.36,1.14l-.8-1.44a7.06,7.06,0,0,1,4.38-1.36C164.22,542.83,165.86,544.23,165.86,547.13Zm-1.92,3.17v-1.49h-3c-1.9,0-2.44.75-2.44,1.64,0,1.06.88,1.73,2.34,1.73A3.11,3.11,0,0,0,163.94,550.3Z"/><path class="cls-4" d="M178.6,542.93l-5.14,11.67c-.94,2.24-2.17,2.94-3.79,2.94a4,4,0,0,1-2.72-1l.82-1.44a2.71,2.71,0,0,0,1.9.78c.93,0,1.51-.42,2-1.64l.34-.74-4.68-10.59h2l3.71,8.49,3.66-8.49Z"/><path class="cls-4" d="M188.46,547.13v6.41h-1.83v-1.4a3.93,3.93,0,0,1-3.48,1.52c-2.4,0-3.92-1.28-3.92-3.13,0-1.7,1.1-3.1,4.26-3.1h3v-.38c0-1.62-.94-2.56-2.84-2.56a5.36,5.36,0,0,0-3.36,1.14l-.8-1.44a7.06,7.06,0,0,1,4.38-1.36C186.81,542.83,188.46,544.23,188.46,547.13Zm-1.93,3.17v-1.49h-3c-1.9,0-2.44.75-2.44,1.64,0,1.06.88,1.73,2.34,1.73A3.09,3.09,0,0,0,186.53,550.3Z"/><path class="cls-4" d="M204.87,550.45l1.47.93a4.73,4.73,0,0,1-4.29,2.28l-.24.88c1.16.12,1.74.78,1.74,1.66,0,1.12-1,1.82-2.48,1.82a3.36,3.36,0,0,1-1.78-.44l.42-1a2.64,2.64,0,0,0,1.36.34c.76,0,1.12-.3,1.12-.8s-.34-.78-1.14-.78h-.54l.46-1.78a5.41,5.41,0,0,1,1-10.75,4.75,4.75,0,0,1,4.33,2.26l-1.47.94a3.3,3.3,0,0,0-2.88-1.52,3.73,3.73,0,0,0,0,7.46A3.28,3.28,0,0,0,204.87,550.45Z"/><path class="cls-4" d="M208.81,542.93h1.92v10.61h-1.92Z"/><path class="cls-4" d="M221.15,553.54l-3.06-4.07-3.1,4.07h-2.14l4.18-5.43-4-5.18h2.14l2.92,3.82,2.9-3.82h2.1l-4,5.18,4.23,5.43Z"/><path class="cls-4" d="M233.64,547.13v6.41h-1.83v-1.4a3.92,3.92,0,0,1-3.48,1.52c-2.4,0-3.92-1.28-3.92-3.13,0-1.7,1.1-3.1,4.26-3.1h3.05v-.38c0-1.62-.95-2.56-2.85-2.56a5.36,5.36,0,0,0-3.36,1.14l-.8-1.44a7.07,7.07,0,0,1,4.39-1.36C232,542.83,233.64,544.23,233.64,547.13Zm-1.92,3.17v-1.49h-3c-1.9,0-2.44.75-2.44,1.64,0,1.06.88,1.73,2.34,1.73A3.1,3.1,0,0,0,231.72,550.3Z"/><path class="cls-4" d="M242.9,542.83v1.86a3.54,3.54,0,0,0-.45,0c-2,0-3.34,1.26-3.34,3.58v5.29h-1.92V542.93H239v1.78C239.71,543.47,241,542.83,242.9,542.83Z"/><path class="cls-4" d="M255.16,538.69v14.85h-1.84v-1.69a4.47,4.47,0,0,1-3.79,1.81,5.42,5.42,0,0,1,0-10.83,4.54,4.54,0,0,1,3.71,1.7v-5.84Zm-1.9,9.54a3.58,3.58,0,1,0-3.57,3.74A3.49,3.49,0,0,0,253.26,548.23Z"/><path class="cls-4" d="M267.2,547.13v6.41h-1.83v-1.4a3.93,3.93,0,0,1-3.48,1.52c-2.4,0-3.92-1.28-3.92-3.13,0-1.7,1.1-3.1,4.26-3.1h3v-.38c0-1.62-.94-2.56-2.84-2.56a5.36,5.36,0,0,0-3.36,1.14l-.8-1.44a7.06,7.06,0,0,1,4.38-1.36C265.56,542.83,267.2,544.23,267.2,547.13Zm-1.93,3.17v-1.49h-3c-1.9,0-2.44.75-2.44,1.64,0,1.06.88,1.73,2.34,1.73A3.09,3.09,0,0,0,265.27,550.3Z"/><path class="cls-4" d="M287.12,548.23a5.18,5.18,0,0,1-5.37,5.43,4.46,4.46,0,0,1-3.78-1.81v1.69h-1.84V538.69h1.92v5.84a4.51,4.51,0,0,1,3.7-1.7A5.15,5.15,0,0,1,287.12,548.23Zm-1.94,0a3.58,3.58,0,1,0-3.59,3.74A3.5,3.5,0,0,0,285.18,548.23Z"/><path class="cls-4" d="M289.55,539.85a1.18,1.18,0,1,1,2.36,0,1.18,1.18,0,1,1-2.36,0Zm.22,3.08h1.92v10.61h-1.92Z"/><path class="cls-4" d="M295.35,538.69h1.92v14.85h-1.92Z"/><path class="cls-4" d="M310.52,548.23a5.2,5.2,0,0,1-5.33,5.41,5.12,5.12,0,0,1-5.24-5.47c0-.16,0-.4,0-.58h8.61a3.61,3.61,0,0,0-3.85-3.1,4,4,0,0,0-3.06,1.28l-1.06-1.24a5.32,5.32,0,0,1,4.18-1.72C308.23,542.81,310.52,545.07,310.52,548.23Zm-1.92.74h-6.81a3.43,3.43,0,0,0,6.81,0Z"/><path class="cls-4" d="M318.87,542.83v1.86a3.39,3.39,0,0,0-.44,0c-2.06,0-3.34,1.26-3.34,3.58v5.29h-1.92V542.93H315v1.78C315.69,543.47,317,542.83,318.87,542.83Z"/><path class="cls-4" d="M320,552.42l.8-1.53a6.73,6.73,0,0,0,3.72,1.11c1.78,0,2.53-.54,2.53-1.44,0-2.39-6.71-.33-6.71-4.55,0-1.9,1.7-3.18,4.42-3.18a7.75,7.75,0,0,1,3.87,1l-.82,1.52a5.57,5.57,0,0,0-3.07-.84c-1.68,0-2.5.62-2.5,1.46,0,2.5,6.73.46,6.73,4.58,0,1.92-1.76,3.15-4.59,3.15A7.65,7.65,0,0,1,320,552.42Z"/><path class="cls-4" d="M331.11,539.85a1.18,1.18,0,1,1,2.36,0,1.18,1.18,0,1,1-2.36,0Zm.22,3.08h1.92v10.61h-1.92Z"/><path class="cls-4" d="M347,547.43v6.11h-1.92v-5.89c0-2.08-1-3.1-2.87-3.1-2,0-3.36,1.22-3.36,3.52v5.47h-1.92V542.93h1.84v1.6a4.54,4.54,0,0,1,3.82-1.7C345.16,542.83,347,544.31,347,547.43Z"/><path class="cls-4" d="M350.31,539.85a1.18,1.18,0,1,1,2.36,0,1.18,1.18,0,1,1-2.36,0Zm.22,3.08h1.92v10.61h-1.92Z"/><path class="cls-4" d="M364,552v1.58h-8.89V552.3l6.26-7.79h-6.14v-1.58h8.61v1.26L357.55,552Z"/><path class="cls-4" d="M365.69,552.27a1.33,1.33,0,0,1,1.36-1.35,1.31,1.31,0,0,1,1.32,1.35,1.34,1.34,0,0,1-1.32,1.39A1.36,1.36,0,0,1,365.69,552.27Z"/><path class="cls-5" d="M778.07,549.25c.34.23,1.16-.53,1.1.55,0,.63,0,1.27,0,1.91v363.6c-.6.18-1.21.36-1.82.52L703.4,934.74l-171.81,44q-85.91,22-171.8,44-89.21,22.82-178.39,45.66c-8.92,2.29-17.93,4.29-26.73,7.06q-76.21,0-152.43,0c-1.87,0-2.24-.37-2.24-2.24Q.09,910.94.05,748.67l85.26-21.84,174-44.51,174.21-44.58,167.37-42.86q77.37-19.82,154.74-39.64C763.1,553.31,770.71,551.75,778.07,549.25Z"/><path class="cls-5" d="M1080.48,836.11V998.66c-.61.17-1.21.36-1.82.52l-88.2,22.59q-89.38,22.88-178.77,45.74c-8.85,2.27-17.67,4.67-26.51,7-4.6,0-9.2-.08-13.79,0-1.56,0-2-.23-2-1.91.08-16.68.05-33.36.05-50V915.22a5.6,5.6,0,0,0,2.62-.37q57.39-14.73,114.79-29.4,85.3-21.83,170.62-43.65C1065.14,839.85,1072.72,837.6,1080.48,836.11Z"/><rect class="cls-24" x="451.14" y="33.85" width="599.31" height="840.7"/><rect class="cls-25" x="451.14" y="367.03" width="213.94" height="507.52"/><rect class="cls-5" x="1001.32" y="33.85" width="49.14" height="115.37"/><rect class="cls-5" x="1001.32" y="862.94" width="49.14" height="11.61"/><g class="cls-26"><rect class="cls-27" x="451.14" y="149.22" width="213.81" height="217.81"/></g><rect class="cls-5" x="665.09" y="122.83" width="7.74" height="701.44"/><rect class="cls-5" x="664.95" y="33.85" width="8.02" height="44.89"/><text class="cls-28" transform="translate(489.76 409.61)">C<tspan class="cls-29" x="8.2" y="0">ON</tspan><tspan class="cls-30" x="26.75" y="0">T</tspan><tspan class="cls-31" x="33.6" y="0">A</tspan><tspan class="cls-32" x="42.18" y="0">C</tspan><tspan class="cls-33" x="50.45" y="0">T</tspan><tspan class="cls-29" x="57.6" y="0">S</tspan></text><line class="cls-34" x1="489.76" y1="418.94" x2="634.56" y2="418.94"/><line class="cls-35" x1="489.76" y1="418.94" x2="556.9" y2="418.94"/><text class="cls-36" transform="translate(517.49 448.03)">00<tspan class="cls-37" x="10.69" y="0">0</tspan><tspan class="cls-38" x="16.1" y="0">-</tspan><tspan class="cls-39" x="19.06" y="0">21</tspan><tspan class="cls-40" x="26.63" y="0">3</tspan><tspan x="31.18" y="0">3</tspan><tspan class="cls-41" x="35.76" y="0">-</tspan><tspan x="38.89" y="0">44</tspan><tspan class="cls-42" x="49.61" y="0">4</tspan><tspan class="cls-37" x="55.06" y="0">-</tspan><tspan class="cls-43" x="58.18" y="0">4</tspan><tspan x="63.52" y="0">56</tspan></text><path class="cls-5" d="M491,450.24l-.05-.09a9,9,0,0,1,0-8.93l.05-.09a8.93,8.93,0,0,1,7.72-4.47h.11a8.91,8.91,0,0,1,7.71,4.47l.06.09a9,9,0,0,1,0,8.93l-.06.09a8.9,8.9,0,0,1-7.71,4.46h-.11A8.92,8.92,0,0,1,491,450.24Z"/><path class="cls-44" d="M494,441.42h0c.17-.15.33-.31.48-.47l.05-.05.27-.27a.89.89,0,0,1,1.35,0l1.39,1.39a.89.89,0,0,1,.31.65,1,1,0,0,1-.31.67l-.86.87a.15.15,0,0,0-.06.1.15.15,0,0,0,0,.06h0a2.44,2.44,0,0,1,.14.28l.15.27a8.72,8.72,0,0,0,2,2.15h0a5.45,5.45,0,0,0,1.22.75h0c.09,0,.11,0,.17,0h0c.2-.22.39-.41.63-.64l.15-.15.07-.07a.88.88,0,0,1,1.35,0l.69.69.12.12.12.12.46.46h0a.92.92,0,0,1,.29.65,1,1,0,0,1-.29.66h0l-.86.87a1.58,1.58,0,0,1-1,.46,3.86,3.86,0,0,1-1.76-.31,10.67,10.67,0,0,1-3.15-1.89,11.58,11.58,0,0,1-3-3.87,5.75,5.75,0,0,1-.63-2.12c0-.05,0-.1,0-.14A1.64,1.64,0,0,1,494,441.42Zm9.39,7.58a.17.17,0,0,0-.06-.08h0l-.44-.44-.12-.12-.13-.13-.69-.69a.44.44,0,0,0-.1-.08.27.27,0,0,0-.11.08l-.08.07-.14.14h0a8.56,8.56,0,0,0-.6.62l-.05.05a.92.92,0,0,1-1,.21h-.05a5.91,5.91,0,0,1-1.42-.87l0,0a9.79,9.79,0,0,1-2.12-2.33c-.08-.13-.14-.25-.19-.35l-.11-.22v0l0,0a1,1,0,0,1-.11-.43.91.91,0,0,1,.3-.67l.86-.87a.39.39,0,0,0,.07-.09.18.18,0,0,0,0-.07h0l-1.4-1.41c-.07-.07-.11-.07-.11-.07a.32.32,0,0,0-.11.07l0,0-.22.22,0,.05a6.56,6.56,0,0,1-.53.52.8.8,0,0,0-.27.65v.09a5.12,5.12,0,0,0,.56,1.82,10.76,10.76,0,0,0,2.81,3.6,10.1,10.1,0,0,0,2.91,1.76,3.16,3.16,0,0,0,1.41.25.69.69,0,0,0,.5-.23l.86-.85A.22.22,0,0,0,503.35,449Z"/><text class="cls-36" transform="translate(517.49 480.18)">al<tspan class="cls-45" x="7.03" y="0">e</tspan><tspan class="cls-46" x="11.82" y="0">x</tspan><tspan class="cls-47" x="16.24" y="0">.</tspan><tspan x="17.8" y="0">williams@mail</tspan><tspan class="cls-48" x="77.26" y="0">.</tspan><tspan class="cls-49" x="78.98" y="0">c</tspan><tspan x="83.5" y="0">om</tspan></text><path class="cls-5" d="M491,482.38l-.05-.08a8.94,8.94,0,0,1,0-8.92l.05-.09a8.92,8.92,0,0,1,7.72-4.46h.11a8.9,8.9,0,0,1,7.71,4.46l.06.09a8.94,8.94,0,0,1,0,8.92l-.06.08a8.9,8.9,0,0,1-7.71,4.46h-.11A8.92,8.92,0,0,1,491,482.38Z"/><path class="cls-44" d="M504.4,474.11v-.05a.06.06,0,0,0,0,0v0l0,0,0,0a.05.05,0,0,0,0,0v0h0l0,0,0,0,0,0,0,0H493.43l0,0,0,0,0,0,0,0h0v0l0,0,0,0a.05.05,0,0,1,0,0,128446406395.24,128446406395.24,0,0,0,0,.08v7.48a.42.42,0,0,0,.42.43H504a.43.43,0,0,0,.43-.43v-7.43Zm-1.57.44-4,3.44-4-3.44ZM494,481.12v-6.07l4.48,3.82a.42.42,0,0,0,.28.1.41.41,0,0,0,.27-.1l4.49-3.82v6.07Z"/><text class="cls-36" transform="translate(517.49 512.34)"><tspan class="cls-50">y</tspan><tspan x="4.36" y="0">ou</tspan><tspan class="cls-51" x="14.88" y="0">r</tspan><tspan class="cls-38" x="18.09" y="0">-</tspan><tspan class="cls-50" x="21.06" y="0">w</tspan><tspan x="28.15" y="0">ebsi</tspan><tspan class="cls-52" x="44.77" y="0">t</tspan><tspan x="47.95" y="0">e</tspan><tspan class="cls-53" x="52.85" y="0">.</tspan><tspan class="cls-54" x="54.58" y="0">c</tspan><tspan x="59.09" y="0">om</tspan></text><path class="cls-5" d="M491,514.55l-.05-.09a9,9,0,0,1,0-8.93l.05-.09a8.93,8.93,0,0,1,7.72-4.47h.11a8.91,8.91,0,0,1,7.71,4.47l.06.09a9,9,0,0,1,0,8.93l-.06.09a8.9,8.9,0,0,1-7.71,4.46h-.11A8.92,8.92,0,0,1,491,514.55Z"/><path class="cls-44" d="M498.8,504.62a5.37,5.37,0,1,0,5.36,5.37A5.38,5.38,0,0,0,498.8,504.62Zm4.53,5H502a7.07,7.07,0,0,0-1-3.58A4.58,4.58,0,0,1,503.33,509.58Zm-4.94-4.08v4.08h-2C496.48,507.55,497.33,505.85,498.39,505.5Zm0,4.9v4.08c-1.06-.35-1.91-2.05-2-4.08Zm.81,4.08V510.4h2C501.12,512.43,500.27,514.13,499.2,514.48Zm0-4.9V505.5c1.07.35,1.92,2.05,2,4.08ZM496.6,506a7.17,7.17,0,0,0-1,3.58h-1.29A4.55,4.55,0,0,1,496.6,506Zm-2.33,4.4h1.29a7.11,7.11,0,0,0,1,3.58A4.53,4.53,0,0,1,494.27,510.4ZM501,514a7,7,0,0,0,1-3.58h1.3A4.57,4.57,0,0,1,501,514Z"/><text class="cls-55" transform="translate(489.76 562.19)">SKIL<tspan class="cls-56" x="27.16" y="0">L</tspan><tspan x="34.17" y="0">S</tspan></text><line class="cls-34" x1="489.76" y1="571.52" x2="634.56" y2="571.52"/><line class="cls-35" x1="489.76" y1="571.52" x2="556.9" y2="571.52"/><circle class="cls-5" cx="491.27" cy="593.14" r="1.5"/><path class="cls-5" d="M492.77,615a1.51,1.51,0,1,1-1.5-1.5A1.5,1.5,0,0,1,492.77,615Z"/><circle class="cls-5" cx="491.27" cy="636.9" r="1.5"/><circle class="cls-5" cx="491.27" cy="658.78" r="1.5"/><circle class="cls-5" cx="491.27" cy="680.66" r="1.5"/><circle class="cls-5" cx="491.27" cy="702.53" r="1.5"/><text class="cls-36" transform="translate(511.98 596.34)">UI/<tspan class="cls-57" x="11.65" y="0">U</tspan><tspan class="cls-39" x="17.91" y="0">X</tspan></text><text class="cls-36" transform="translate(511.98 617.37)"><tspan class="cls-58">V</tspan><tspan x="5.6" y="0">isual Design</tspan></text><text class="cls-36" transform="translate(511.98 639.25)"><tspan class="cls-59">W</tspan><tspan class="cls-46" x="8.91" y="0">i</tspan><tspan class="cls-53" x="11.15" y="0">r</tspan><tspan x="14.34" y="0">e</tspan><tspan class="cls-60" x="19.25" y="0">f</tspan><tspan class="cls-61" x="22.72" y="0">r</tspan><tspan x="25.94" y="0">a</tspan><tspan class="cls-62" x="30.73" y="0">m</tspan><tspan x="39.23" y="0">es</tspan></text><text class="cls-36" transform="translate(511.98 661.13)">S<tspan class="cls-63" x="4.98" y="0">t</tspan><tspan x="8.15" y="0">o</tspan><tspan class="cls-64" x="13.24" y="0">r</tspan><tspan x="16.65" y="0">yb</tspan><tspan class="cls-40" x="26.6" y="0">o</tspan><tspan x="31.65" y="0">a</tspan><tspan class="cls-53" x="36.44" y="0">r</tspan><tspan x="39.63" y="0">ds</tspan></text><text class="cls-36" transform="translate(511.98 683.01)">User Fl<tspan class="cls-50" x="28.03" y="0">o</tspan><tspan class="cls-65" x="33" y="0">w</tspan><tspan x="40.15" y="0">s</tspan></text><text class="cls-36" transform="translate(511.98 704.88)"><tspan class="cls-66">P</tspan><tspan class="cls-67" x="5.64" y="0">r</tspan><tspan x="8.83" y="0">o</tspan><tspan class="cls-54" x="13.92" y="0">c</tspan><tspan x="18.43" y="0">ess Fl</tspan><tspan class="cls-50" x="40.85" y="0">o</tspan><tspan class="cls-65" x="45.82" y="0">w</tspan><tspan x="52.97" y="0">s</tspan></text><text class="cls-55" transform="translate(489.76 747.68)">INTERE<tspan class="cls-68" x="44.4" y="0">S</tspan><tspan class="cls-69" x="51.7" y="0">T</tspan><tspan x="58.84" y="0">S</tspan></text><line class="cls-34" x1="489.76" y1="757.01" x2="634.56" y2="757.01"/><line class="cls-35" x1="489.76" y1="757.01" x2="556.9" y2="757.01"/><circle class="cls-5" cx="491.27" cy="778.11" r="1.5"/><circle class="cls-5" cx="491.27" cy="799.98" r="1.5"/><circle class="cls-5" cx="491.27" cy="821.86" r="1.5"/><text class="cls-36" transform="translate(511.98 781.3)">P<tspan class="cls-70" x="5.79" y="0">h</tspan><tspan x="11.27" y="0">o</tspan><tspan class="cls-52" x="16.36" y="0">t</tspan><tspan class="cls-46" x="19.54" y="0">og</tspan><tspan class="cls-54" x="30.16" y="0">r</tspan><tspan x="33.38" y="0">ap</tspan><tspan class="cls-71" x="43.64" y="0">h</tspan><tspan x="49.02" y="0">y</tspan></text><text class="cls-36" transform="translate(511.98 802.34)"><tspan class="cls-50">P</tspan><tspan x="5.67" y="0">ainti</tspan><tspan class="cls-62" x="23.71" y="0">n</tspan><tspan x="29.2" y="0">g</tspan></text><text class="cls-36" transform="translate(511.98 824.22)"><tspan class="cls-72">F</tspan><tspan x="4.95" y="0">oot</tspan><tspan class="cls-40" x="18.45" y="0">b</tspan><tspan x="23.88" y="0">all</tspan></text><text class="cls-73" transform="translate(698.86 287.9)">W<tspan class="cls-29" x="12.43" y="0">ORK </tspan><tspan class="cls-74" x="42.51" y="0">E</tspan><tspan class="cls-75" x="50.16" y="0">X</tspan><tspan class="cls-31" x="58.1" y="0">P</tspan><tspan class="cls-29" x="66.34" y="0">ERIENCE</tspan></text><text class="cls-76" transform="translate(698.86 492.45)">2<tspan class="cls-77" x="5.44" y="0">0</tspan><tspan class="cls-78" x="11.6" y="0">15</tspan><tspan class="cls-79" x="20.94" y="0">-</tspan><tspan x="24.71" y="0">2</tspan><tspan class="cls-77" x="30.15" y="0">0</tspan><tspan class="cls-78" x="36.31" y="0">17</tspan></text><text class="cls-80" transform="translate(698.86 507.91)">2 <tspan class="cls-81" x="5.91" y="0">ye</tspan><tspan x="13.92" y="0">a</tspan><tspan class="cls-82" x="18.11" y="0">r</tspan><tspan x="20.97" y="0">s</tspan></text><text class="cls-83" transform="translate(764.99 492.45)"><tspan class="cls-50">P</tspan><tspan class="cls-71" x="5.7" y="0">r</tspan><tspan class="cls-46" x="8.99" y="0">o</tspan><tspan class="cls-54" x="14.16" y="0">f</tspan><tspan x="17.05" y="0">essional </tspan><tspan class="cls-50" x="52.67" y="0">P</tspan><tspan class="cls-71" x="58.37" y="0">r</tspan><tspan x="61.65" y="0">odu</tspan><tspan class="cls-41" x="77.79" y="0">c</tspan><tspan x="82.5" y="0">t Desig</tspan><tspan class="cls-84" x="111.73" y="0">n</tspan><tspan x="117.26" y="0">er | T</tspan><tspan class="cls-84" x="137.3" y="0">h</tspan><tspan class="cls-39" x="142.83" y="0">e </tspan><tspan class="cls-85" x="150.03" y="0">C</tspan><tspan x="155.69" y="0">om</tspan><tspan class="cls-65" x="169.31" y="0">p</tspan><tspan class="cls-46" x="174.75" y="0">a</tspan><tspan class="cls-71" x="179.61" y="0">n</tspan><tspan x="185.03" y="0">y</tspan></text><text class="cls-80" transform="translate(764.99 508.01)"><tspan class="cls-86">L</tspan><tspan x="4.12" y="0">o</tspan><tspan class="cls-87" x="8.57" y="0">r</tspan><tspan x="11.36" y="0">em</tspan><tspan class="cls-88" x="23.07" y="0"> </tspan><tspan x="26.02" y="0">ipsum</tspan><tspan class="cls-88" x="48.43" y="0"> </tspan><tspan x="51.38" y="0">dolor</tspan><tspan class="cls-88" x="69.9" y="0"> </tspan><tspan x="72.85" y="0">sit</tspan><tspan class="cls-89" x="81.22" y="0"> </tspan><tspan x="84.17" y="0">a</tspan><tspan class="cls-90" x="88.36" y="0">m</tspan><tspan x="95.8" y="0">e</tspan><tspan class="cls-91" x="100.09" y="0">t</tspan><tspan x="103.06" y="0">,</tspan><tspan class="cls-88" x="104.66" y="0"> </tspan><tspan class="cls-92" x="107.6" y="0">c</tspan><tspan x="111.55" y="0">onse</tspan><tspan class="cls-93" x="128.59" y="0">c</tspan><tspan class="cls-94" x="132.64" y="0">t</tspan><tspan x="135.42" y="0">etuer</tspan><tspan class="cls-88" x="154.54" y="0"> </tspan><tspan class="cls-90" x="157.48" y="0">a</tspan><tspan x="161.7" y="0">dipisci</tspan><tspan class="cls-90" x="184.65" y="0">n</tspan><tspan x="189.45" y="0">g</tspan><tspan class="cls-88" x="194.29" y="0"> </tspan><tspan x="197.24" y="0">eli</tspan><tspan class="cls-95" x="205.44" y="0">t</tspan><tspan x="208.42" y="0">,</tspan><tspan class="cls-88" x="210.01" y="0"> </tspan><tspan x="212.96" y="0">sed</tspan><tspan class="cls-88" x="225.55" y="0"> </tspan><tspan x="228.49" y="0">diam </tspan><tspan class="cls-90" x="0" y="14.03">n</tspan><tspan x="4.8" y="14.03">onum</tspan><tspan class="cls-96" x="26.19" y="14.03">m</tspan><tspan x="33.54" y="14.03">y</tspan><tspan class="cls-97" x="37.46" y="14.03"> </tspan><tspan x="39.84" y="14.03">nibh</tspan><tspan class="cls-97" x="56.14" y="14.03"> </tspan><tspan x="58.52" y="14.03">euis</tspan><tspan class="cls-90" x="73.03" y="14.03">m</tspan><tspan x="80.47" y="14.03">od</tspan><tspan class="cls-97" x="89.71" y="14.03"> </tspan><tspan x="92.09" y="14.03">ti</tspan><tspan class="cls-90" x="96.95" y="14.03">n</tspan><tspan x="101.75" y="14.03">cidunt</tspan><tspan class="cls-97" x="124.93" y="14.03"> </tspan><tspan x="127.31" y="14.03">ut</tspan><tspan class="cls-97" x="134.97" y="14.03"> </tspan><tspan x="137.35" y="14.03">l</tspan><tspan class="cls-90" x="139.31" y="14.03">a</tspan><tspan x="143.52" y="14.03">o</tspan><tspan class="cls-98" x="147.98" y="14.03">r</tspan><tspan x="150.77" y="14.03">eet</tspan><tspan class="cls-97" x="162.26" y="14.03"> </tspan><tspan x="164.65" y="14.03">dolo</tspan><tspan class="cls-98" x="180.29" y="14.03">r</tspan><tspan x="183.09" y="14.03">e</tspan><tspan class="cls-97" x="187.38" y="14.03"> </tspan><tspan x="189.76" y="14.03">m</tspan><tspan class="cls-90" x="197.18" y="14.03">a</tspan><tspan x="201.39" y="14.03">gna</tspan><tspan class="cls-99" x="215.21" y="14.03"> </tspan><tspan x="217.59" y="14.03">aliquam </tspan><tspan x="0" y="28.06">e</tspan><tspan class="cls-92" x="4.29" y="28.06">r</tspan><tspan x="7.11" y="28.06">at</tspan><tspan class="cls-100" x="14.21" y="28.06"> </tspan><tspan class="cls-81" x="17.81" y="28.06">v</tspan><tspan x="21.63" y="28.06">olut</tspan><tspan class="cls-101" x="35.69" y="28.06">p</tspan><tspan x="40.44" y="28.06">a</tspan><tspan class="cls-91" x="44.63" y="28.06">t</tspan><tspan x="47.61" y="28.06">.</tspan><tspan class="cls-102" x="49.2" y="28.06"> </tspan><tspan x="52.8" y="28.06">Ut</tspan><tspan class="cls-100" x="61.25" y="28.06"> </tspan><tspan x="64.85" y="28.06">wisi</tspan><tspan class="cls-100" x="78.58" y="28.06"> </tspan><tspan x="82.18" y="28.06">enim</tspan><tspan class="cls-102" x="100.62" y="28.06"> </tspan><tspan class="cls-90" x="104.22" y="28.06">a</tspan><tspan x="108.44" y="28.06">d</tspan><tspan class="cls-100" x="113.22" y="28.06"> </tspan><tspan x="116.82" y="28.06">minim</tspan><tspan class="cls-100" x="140.34" y="28.06"> </tspan><tspan class="cls-103" x="143.94" y="28.06">v</tspan><tspan x="147.75" y="28.06">eniam,</tspan><tspan class="cls-100" x="171.98" y="28.06"> </tspan><tspan x="175.58" y="28.06">quis</tspan><tspan class="cls-102" x="190.58" y="28.06"> </tspan><tspan class="cls-90" x="194.18" y="28.06">n</tspan><tspan x="198.98" y="28.06">ostrud</tspan><tspan class="cls-100" x="222.26" y="28.06"> </tspan><tspan class="cls-81" x="225.86" y="28.06">e</tspan><tspan class="cls-104" x="230.05" y="28.06">x</tspan><tspan x="233.79" y="28.06">e</tspan><tspan class="cls-98" x="238.09" y="28.06">r</tspan><tspan x="240.88" y="28.06">ci </tspan><tspan x="0" y="42.09">tation ulla</tspan><tspan class="cls-90" x="35.93" y="42.09">m</tspan><tspan class="cls-92" x="43.37" y="42.09">c</tspan><tspan x="47.32" y="42.09">o</tspan><tspan class="cls-86" x="51.77" y="42.09">r</tspan><tspan x="54.6" y="42.09">per suscipit lobo</tspan><tspan class="cls-105" x="113.36" y="42.09">r</tspan><tspan x="116.34" y="42.09">tis nisl ut </tspan><tspan class="cls-92" x="150.23" y="42.09">c</tspan><tspan x="154.18" y="42.09">onsequa</tspan><tspan class="cls-91" x="184.95" y="42.09">t</tspan><tspan x="187.92" y="42.09">. </tspan></text><text class="cls-80" transform="translate(783.2 572.2)"><tspan class="cls-86">L</tspan><tspan x="4.12" y="0">o</tspan><tspan class="cls-87" x="8.57" y="0">r</tspan><tspan x="11.36" y="0">em ipsum dolor sit a</tspan><tspan class="cls-90" x="84.13" y="0">m</tspan><tspan x="91.56" y="0">e</tspan><tspan class="cls-91" x="95.86" y="0">t</tspan><tspan x="98.83" y="0">.</tspan></text><text class="cls-80" transform="translate(783.2 593.58)"><tspan class="cls-106">C</tspan><tspan x="4.92" y="0">onse</tspan><tspan class="cls-93" x="21.96" y="0">c</tspan><tspan class="cls-94" x="26.01" y="0">t</tspan><tspan class="cls-107" x="28.79" y="0">etuer </tspan><tspan class="cls-90" x="49.79" y="0">a</tspan><tspan class="cls-108" x="54" y="0">dipisci</tspan><tspan class="cls-90" x="76.96" y="0">n</tspan><tspan x="81.76" y="0">g elit</tspan></text><text class="cls-80" transform="translate(783.2 614.95)">Sed diam <tspan class="cls-109" x="35.56" y="0">n</tspan><tspan x="40.35" y="0">onum</tspan><tspan class="cls-96" x="61.75" y="0">m</tspan><tspan class="cls-108" x="69.09" y="0">y nibh euis</tspan><tspan class="cls-90" x="107.59" y="0">m</tspan><tspan x="115.03" y="0">od.</tspan></text><path class="cls-5" d="M769.81,612.91a1.77,1.77,0,1,1-1.77-1.77A1.76,1.76,0,0,1,769.81,612.91Z"/><path class="cls-5" d="M769.81,591.53a1.77,1.77,0,1,1-1.77-1.76A1.76,1.76,0,0,1,769.81,591.53Z"/><path class="cls-5" d="M769.81,570.15a1.77,1.77,0,1,1-1.77-1.76A1.76,1.76,0,0,1,769.81,570.15Z"/><text class="cls-76" transform="translate(698.86 324.1)">2<tspan class="cls-77" x="5.44" y="0">0</tspan><tspan class="cls-78" x="11.6" y="0">1</tspan><tspan class="cls-110" x="15.46" y="0">7</tspan><tspan class="cls-79" x="20.73" y="0">-</tspan><tspan x="24.5" y="0">2</tspan><tspan class="cls-111" x="29.94" y="0">0</tspan><tspan class="cls-112" x="36.1" y="0">2</tspan><tspan class="cls-78" x="41.54" y="0">0</tspan></text><text class="cls-80" transform="translate(698.86 339.57)">3 <tspan class="cls-81" x="5.9" y="0">ye</tspan><tspan x="13.9" y="0">a</tspan><tspan class="cls-82" x="18.1" y="0">r</tspan><tspan x="20.95" y="0">s</tspan></text><text class="cls-83" transform="translate(764.99 324.11)"><tspan class="cls-50">P</tspan><tspan class="cls-71" x="5.7" y="0">r</tspan><tspan class="cls-46" x="8.99" y="0">o</tspan><tspan class="cls-54" x="14.16" y="0">f</tspan><tspan x="17.05" y="0">essional </tspan><tspan class="cls-50" x="52.67" y="0">P</tspan><tspan class="cls-71" x="58.37" y="0">r</tspan><tspan x="61.65" y="0">odu</tspan><tspan class="cls-41" x="77.79" y="0">c</tspan><tspan x="82.5" y="0">t Desig</tspan><tspan class="cls-84" x="111.73" y="0">n</tspan><tspan x="117.26" y="0">er | T</tspan><tspan class="cls-84" x="137.3" y="0">h</tspan><tspan class="cls-39" x="142.83" y="0">e </tspan><tspan class="cls-85" x="150.03" y="0">C</tspan><tspan x="155.69" y="0">om</tspan><tspan class="cls-65" x="169.31" y="0">p</tspan><tspan class="cls-46" x="174.75" y="0">a</tspan><tspan class="cls-71" x="179.61" y="0">n</tspan><tspan x="185.03" y="0">y</tspan></text><text class="cls-80" transform="translate(764.99 339.66)"><tspan class="cls-86">L</tspan><tspan x="4.12" y="0">o</tspan><tspan class="cls-87" x="8.57" y="0">r</tspan><tspan x="11.36" y="0">em</tspan><tspan class="cls-88" x="23.07" y="0"> </tspan><tspan x="26.02" y="0">ipsum</tspan><tspan class="cls-88" x="48.43" y="0"> </tspan><tspan x="51.38" y="0">dolor</tspan><tspan class="cls-88" x="69.9" y="0"> </tspan><tspan x="72.85" y="0">sit</tspan><tspan class="cls-89" x="81.22" y="0"> </tspan><tspan x="84.17" y="0">a</tspan><tspan class="cls-90" x="88.36" y="0">m</tspan><tspan x="95.8" y="0">e</tspan><tspan class="cls-91" x="100.09" y="0">t</tspan><tspan x="103.06" y="0">,</tspan><tspan class="cls-88" x="104.66" y="0"> </tspan><tspan class="cls-92" x="107.6" y="0">c</tspan><tspan x="111.55" y="0">onse</tspan><tspan class="cls-93" x="128.59" y="0">c</tspan><tspan class="cls-94" x="132.64" y="0">t</tspan><tspan x="135.42" y="0">etuer</tspan><tspan class="cls-88" x="154.54" y="0"> </tspan><tspan class="cls-90" x="157.48" y="0">a</tspan><tspan x="161.7" y="0">dipisci</tspan><tspan class="cls-90" x="184.65" y="0">n</tspan><tspan x="189.45" y="0">g</tspan><tspan class="cls-88" x="194.29" y="0"> </tspan><tspan x="197.24" y="0">eli</tspan><tspan class="cls-95" x="205.44" y="0">t</tspan><tspan x="208.42" y="0">,</tspan><tspan class="cls-88" x="210.01" y="0"> </tspan><tspan x="212.96" y="0">sed</tspan><tspan class="cls-88" x="225.55" y="0"> </tspan><tspan x="228.49" y="0">diam </tspan><tspan class="cls-90" x="0" y="14.03">n</tspan><tspan x="4.8" y="14.03">onum</tspan><tspan class="cls-96" x="26.19" y="14.03">m</tspan><tspan x="33.54" y="14.03">y</tspan><tspan class="cls-97" x="37.46" y="14.03"> </tspan><tspan x="39.84" y="14.03">nibh</tspan><tspan class="cls-97" x="56.14" y="14.03"> </tspan><tspan x="58.52" y="14.03">euis</tspan><tspan class="cls-90" x="73.03" y="14.03">m</tspan><tspan x="80.47" y="14.03">od</tspan><tspan class="cls-97" x="89.71" y="14.03"> </tspan><tspan x="92.09" y="14.03">ti</tspan><tspan class="cls-90" x="96.95" y="14.03">n</tspan><tspan x="101.75" y="14.03">cidunt</tspan><tspan class="cls-97" x="124.93" y="14.03"> </tspan><tspan x="127.31" y="14.03">ut</tspan><tspan class="cls-97" x="134.97" y="14.03"> </tspan><tspan x="137.35" y="14.03">l</tspan><tspan class="cls-90" x="139.31" y="14.03">a</tspan><tspan x="143.52" y="14.03">o</tspan><tspan class="cls-98" x="147.98" y="14.03">r</tspan><tspan x="150.77" y="14.03">eet</tspan><tspan class="cls-97" x="162.26" y="14.03"> </tspan><tspan x="164.65" y="14.03">dolo</tspan><tspan class="cls-98" x="180.29" y="14.03">r</tspan><tspan x="183.09" y="14.03">e</tspan><tspan class="cls-97" x="187.38" y="14.03"> </tspan><tspan x="189.76" y="14.03">m</tspan><tspan class="cls-90" x="197.18" y="14.03">a</tspan><tspan x="201.39" y="14.03">gna</tspan><tspan class="cls-99" x="215.21" y="14.03"> </tspan><tspan x="217.59" y="14.03">aliquam </tspan><tspan x="0" y="28.06">e</tspan><tspan class="cls-92" x="4.29" y="28.06">r</tspan><tspan x="7.11" y="28.06">at</tspan><tspan class="cls-100" x="14.21" y="28.06"> </tspan><tspan class="cls-81" x="17.81" y="28.06">v</tspan><tspan x="21.63" y="28.06">olut</tspan><tspan class="cls-101" x="35.69" y="28.06">p</tspan><tspan x="40.44" y="28.06">a</tspan><tspan class="cls-91" x="44.63" y="28.06">t</tspan><tspan x="47.61" y="28.06">.</tspan><tspan class="cls-102" x="49.2" y="28.06"> </tspan><tspan x="52.8" y="28.06">Ut</tspan><tspan class="cls-100" x="61.25" y="28.06"> </tspan><tspan x="64.85" y="28.06">wisi</tspan><tspan class="cls-100" x="78.58" y="28.06"> </tspan><tspan x="82.18" y="28.06">enim</tspan><tspan class="cls-102" x="100.62" y="28.06"> </tspan><tspan class="cls-90" x="104.22" y="28.06">a</tspan><tspan x="108.44" y="28.06">d</tspan><tspan class="cls-100" x="113.22" y="28.06"> </tspan><tspan x="116.82" y="28.06">minim</tspan><tspan class="cls-100" x="140.34" y="28.06"> </tspan><tspan class="cls-103" x="143.94" y="28.06">v</tspan><tspan x="147.75" y="28.06">eniam,</tspan><tspan class="cls-100" x="171.98" y="28.06"> </tspan><tspan x="175.58" y="28.06">quis</tspan><tspan class="cls-102" x="190.58" y="28.06"> </tspan><tspan class="cls-90" x="194.18" y="28.06">n</tspan><tspan x="198.98" y="28.06">ostrud</tspan><tspan class="cls-100" x="222.26" y="28.06"> </tspan><tspan class="cls-81" x="225.86" y="28.06">e</tspan><tspan class="cls-104" x="230.05" y="28.06">x</tspan><tspan x="233.79" y="28.06">e</tspan><tspan class="cls-98" x="238.09" y="28.06">r</tspan><tspan x="240.88" y="28.06">ci </tspan><tspan x="0" y="42.09">tation ulla</tspan><tspan class="cls-90" x="35.93" y="42.09">m</tspan><tspan class="cls-92" x="43.37" y="42.09">c</tspan><tspan x="47.32" y="42.09">o</tspan><tspan class="cls-86" x="51.77" y="42.09">r</tspan><tspan x="54.6" y="42.09">per suscipit lobo</tspan><tspan class="cls-105" x="113.36" y="42.09">r</tspan><tspan x="116.34" y="42.09">tis nisl ut </tspan><tspan class="cls-92" x="150.23" y="42.09">c</tspan><tspan x="154.18" y="42.09">onsequa</tspan><tspan class="cls-91" x="184.95" y="42.09">t</tspan><tspan x="187.92" y="42.09">. </tspan></text><text class="cls-80" transform="translate(783.2 403.86)"><tspan class="cls-86">L</tspan><tspan x="4.12" y="0">o</tspan><tspan class="cls-87" x="8.57" y="0">r</tspan><tspan x="11.36" y="0">em ipsum dolor sit a</tspan><tspan class="cls-90" x="84.13" y="0">m</tspan><tspan x="91.56" y="0">e</tspan><tspan class="cls-91" x="95.86" y="0">t</tspan><tspan x="98.83" y="0">.</tspan></text><text class="cls-80" transform="translate(783.2 425.23)"><tspan class="cls-106">C</tspan><tspan x="4.92" y="0">onse</tspan><tspan class="cls-93" x="21.96" y="0">c</tspan><tspan class="cls-94" x="26.01" y="0">t</tspan><tspan class="cls-107" x="28.79" y="0">etuer </tspan><tspan class="cls-90" x="49.79" y="0">a</tspan><tspan class="cls-108" x="54" y="0">dipisci</tspan><tspan class="cls-90" x="76.96" y="0">n</tspan><tspan x="81.76" y="0">g elit</tspan></text><text class="cls-80" transform="translate(783.2 446.61)">Sed diam <tspan class="cls-109" x="35.56" y="0">n</tspan><tspan x="40.35" y="0">onum</tspan><tspan class="cls-96" x="61.75" y="0">m</tspan><tspan class="cls-108" x="69.09" y="0">y nibh euis</tspan><tspan class="cls-90" x="107.59" y="0">m</tspan><tspan x="115.03" y="0">od.</tspan></text><path class="cls-5" d="M769.81,444.56A1.77,1.77,0,1,1,768,442.8,1.76,1.76,0,0,1,769.81,444.56Z"/><path class="cls-5" d="M769.81,423.18a1.77,1.77,0,1,1-1.77-1.76A1.77,1.77,0,0,1,769.81,423.18Z"/><path class="cls-5" d="M769.81,401.81A1.77,1.77,0,1,1,768,400,1.76,1.76,0,0,1,769.81,401.81Z"/><line class="cls-34" x1="698.93" y1="298.21" x2="1011.84" y2="298.21"/><line class="cls-35" x1="698.93" y1="298.21" x2="821.35" y2="298.21"/><text class="cls-113" transform="translate(698.89 108.61)">EMİL<tspan class="cls-114"><tspan x="0" y="40.08">F</tspan><tspan class="cls-115" x="26.23" y="40.08">Ə</tspan><tspan class="cls-116" x="58.94" y="40.08">T</tspan><tspan class="cls-117" x="83.26" y="40.08">UL</tspan><tspan class="cls-118" x="140.44" y="40.08">L</tspan><tspan class="cls-119" x="165.58" y="40.08">A</tspan><tspan class="cls-120" x="194.08" y="40.08">Y</tspan><tspan class="cls-121" x="220.59" y="40.08">E</tspan><tspan class="cls-117" x="248.01" y="40.08">V</tspan></tspan></text><line class="cls-34" x1="698.93" y1="196.84" x2="1011.84" y2="196.84"/><line class="cls-35" x1="698.93" y1="196.84" x2="821.35" y2="196.84"/><text class="cls-80" transform="translate(698.86 218.29)"><tspan class="cls-86">L</tspan><tspan x="4.12" y="0">o</tspan><tspan class="cls-87" x="8.57" y="0">r</tspan><tspan x="11.36" y="0">em</tspan><tspan class="cls-122" x="23.07" y="0"> </tspan><tspan x="26.87" y="0">ipsum</tspan><tspan class="cls-123" x="49.29" y="0"> </tspan><tspan class="cls-108" x="53.08" y="0">dolor</tspan><tspan class="cls-123" x="71.61" y="0"> </tspan><tspan x="75.41" y="0">sit</tspan><tspan class="cls-122" x="83.78" y="0"> </tspan><tspan x="87.58" y="0">a</tspan><tspan class="cls-90" x="91.78" y="0">m</tspan><tspan x="99.21" y="0">e</tspan><tspan class="cls-91" x="103.5" y="0">t</tspan><tspan x="106.48" y="0">,</tspan><tspan class="cls-122" x="108.07" y="0"> </tspan><tspan class="cls-92" x="111.87" y="0">c</tspan><tspan x="115.82" y="0">onse</tspan><tspan class="cls-93" x="132.86" y="0">c</tspan><tspan class="cls-94" x="136.91" y="0">t</tspan><tspan x="139.69" y="0">etuer</tspan><tspan class="cls-122" x="158.8" y="0"> </tspan><tspan class="cls-109" x="162.6" y="0">a</tspan><tspan class="cls-108" x="166.82" y="0">dipisci</tspan><tspan class="cls-90" x="189.78" y="0">n</tspan><tspan x="194.57" y="0">g</tspan><tspan class="cls-122" x="199.41" y="0"> </tspan><tspan x="203.21" y="0">eli</tspan><tspan class="cls-95" x="211.42" y="0">t</tspan><tspan x="214.39" y="0">,</tspan><tspan class="cls-122" x="215.98" y="0"> </tspan><tspan x="219.78" y="0">sed</tspan><tspan class="cls-122" x="232.37" y="0"> </tspan><tspan x="236.17" y="0">diam </tspan><tspan class="cls-90" x="0" y="14.03">n</tspan><tspan x="4.8" y="14.03">onum</tspan><tspan class="cls-96" x="26.19" y="14.03">m</tspan><tspan x="33.54" y="14.03">y</tspan><tspan class="cls-124" x="37.46" y="14.03"> </tspan><tspan x="40.8" y="14.03">nibh</tspan><tspan class="cls-125" x="57.1" y="14.03"> </tspan><tspan x="60.44" y="14.03">euis</tspan><tspan class="cls-90" x="74.96" y="14.03">m</tspan><tspan x="82.39" y="14.03">od</tspan><tspan class="cls-124" x="91.63" y="14.03"> </tspan><tspan x="94.97" y="14.03">ti</tspan><tspan class="cls-90" x="99.83" y="14.03">n</tspan><tspan x="104.63" y="14.03">cidunt</tspan><tspan class="cls-125" x="127.81" y="14.03"> </tspan><tspan x="131.15" y="14.03">ut</tspan><tspan class="cls-124" x="138.81" y="14.03"> </tspan><tspan x="142.15" y="14.03">l</tspan><tspan class="cls-90" x="144.11" y="14.03">a</tspan><tspan x="148.32" y="14.03">o</tspan><tspan class="cls-98" x="152.78" y="14.03">r</tspan><tspan x="155.57" y="14.03">eet</tspan><tspan class="cls-125" x="167.06" y="14.03"> </tspan><tspan x="170.41" y="14.03">dolo</tspan><tspan class="cls-98" x="186.06" y="14.03">r</tspan><tspan x="188.85" y="14.03">e</tspan><tspan class="cls-124" x="193.14" y="14.03"> </tspan><tspan x="196.49" y="14.03">m</tspan><tspan class="cls-90" x="203.9" y="14.03">a</tspan><tspan x="208.12" y="14.03">gna</tspan><tspan class="cls-125" x="221.93" y="14.03"> </tspan><tspan x="225.27" y="14.03">aliquam </tspan><tspan x="0" y="28.06">e</tspan><tspan class="cls-92" x="4.29" y="28.06">r</tspan><tspan x="7.11" y="28.06">at </tspan><tspan class="cls-81" x="16.1" y="28.06">v</tspan><tspan x="19.91" y="28.06">olut</tspan><tspan class="cls-101" x="33.98" y="28.06">p</tspan><tspan x="38.73" y="28.06">a</tspan><tspan class="cls-91" x="42.92" y="28.06">t</tspan><tspan x="45.89" y="28.06">.</tspan></text><text class="cls-126" transform="translate(698.93 186.7)">P<tspan class="cls-127" x="8.24" y="0">ROFILE IN</tspan><tspan class="cls-32" x="69.76" y="0">F</tspan><tspan class="cls-128" x="77.1" y="0">O</tspan></text><text class="cls-129" transform="translate(698.93 691.29)">John Smith<tspan class="cls-130"><tspan x="0" y="18.04">Ge</tspan><tspan class="cls-131" x="11.24" y="18.04">n</tspan><tspan class="cls-46" x="16.83" y="18.04">e</tspan><tspan class="cls-65" x="21.88" y="18.04">r</tspan><tspan x="25.28" y="18.04">al Man</tspan><tspan class="cls-131" x="53.05" y="18.04">a</tspan><tspan class="cls-46" x="58.05" y="18.04">ger T</tspan><tspan class="cls-131" x="79.39" y="18.04">h</tspan><tspan class="cls-46" x="84.98" y="18.04">e </tspan><tspan class="cls-66" x="92.31" y="18.04">C</tspan><tspan class="cls-39" x="98.03" y="18.04">om</tspan><tspan class="cls-132" x="111.69" y="18.04">p</tspan><tspan class="cls-39" x="117.15" y="18.04">a</tspan><tspan class="cls-71" x="122.1" y="18.04">n</tspan><tspan class="cls-39" x="127.56" y="18.04">y</tspan></tspan><tspan class="cls-133"><tspan x="0" y="36.07">john.smith@gmail</tspan><tspan class="cls-53" x="75.17" y="36.07">.</tspan><tspan class="cls-61" x="76.89" y="36.07">c</tspan><tspan x="81.41" y="36.07">om</tspan><tspan x="0" y="54.11">0811 2234 3</tspan><tspan class="cls-43" x="44.49" y="54.11">4</tspan><tspan x="49.83" y="54.11">56 9999</tspan></tspan></text><text class="cls-129" transform="translate(698.93 770.1)">Ma<tspan class="cls-134" x="12.45" y="0">r</tspan><tspan class="cls-39" x="15.86" y="0">tha Ch</tspan><tspan class="cls-65" x="42.84" y="0">r</tspan><tspan class="cls-46" x="46.07" y="0">isti</tspan><tspan class="cls-70" x="57.88" y="0">n</tspan><tspan class="cls-39" x="63.36" y="0">e</tspan><tspan class="cls-130"><tspan x="0" y="18.04">Ge</tspan><tspan class="cls-131" x="11.24" y="18.04">n</tspan><tspan class="cls-46" x="16.83" y="18.04">e</tspan><tspan class="cls-65" x="21.88" y="18.04">r</tspan><tspan x="25.28" y="18.04">al Man</tspan><tspan class="cls-131" x="53.05" y="18.04">a</tspan><tspan class="cls-46" x="58.05" y="18.04">ger T</tspan><tspan class="cls-131" x="79.39" y="18.04">h</tspan><tspan class="cls-46" x="84.98" y="18.04">e </tspan><tspan class="cls-66" x="92.31" y="18.04">C</tspan><tspan class="cls-39" x="98.03" y="18.04">om</tspan><tspan class="cls-132" x="111.69" y="18.04">p</tspan><tspan class="cls-39" x="117.15" y="18.04">a</tspan><tspan class="cls-71" x="122.1" y="18.04">n</tspan><tspan class="cls-39" x="127.56" y="18.04">y</tspan></tspan><tspan class="cls-133"><tspan x="0" y="36.07">ma</tspan><tspan class="cls-64" x="13.27" y="36.07">r</tspan><tspan x="16.67" y="36.07">tha</tspan><tspan class="cls-53" x="30.25" y="36.07">.</tspan><tspan class="cls-135" x="31.97" y="36.07">c</tspan><tspan x="36.49" y="36.07">h</tspan><tspan class="cls-65" x="41.95" y="36.07">r</tspan><tspan class="cls-46" x="45.18" y="36.07">isti</tspan><tspan class="cls-70" x="56.99" y="36.07">n</tspan><tspan class="cls-39" x="62.47" y="36.07">e@gmail</tspan><tspan class="cls-53" x="98.94" y="36.07">.</tspan><tspan class="cls-54" x="100.66" y="36.07">c</tspan><tspan x="105.17" y="36.07">om</tspan><tspan x="0" y="54.11">0811 2234 3</tspan><tspan class="cls-43" x="44.49" y="54.11">4</tspan><tspan x="49.83" y="54.11">56 9999</tspan></tspan></text><line class="cls-34" x1="698.19" y1="667.1" x2="1011.1" y2="667.1"/><line class="cls-35" x1="698.19" y1="667.1" x2="820.61" y2="667.1"/><text class="cls-136" transform="translate(698.19 656.96)">REFERENCES</text><path class="cls-44" d="M850.47,1031.16a20.26,20.26,0,1,1,20.26-20.26A20.28,20.28,0,0,1,850.47,1031.16Zm0-39a18.72,18.72,0,1,0,18.72,18.72A18.74,18.74,0,0,0,850.47,992.18Z"/><path class="cls-137" d="M861.16,1010.36a10.5,10.5,0,0,0-21-.19c0,.15,0,.3,0,.45a10.36,10.36,0,0,0,1.5,5.38l-1.89,5.59,5.81-1.85a10.51,10.51,0,0,0,15.57-9.12Zm-10.49,9a8.79,8.79,0,0,1-4.86-1.45l-3.39,1.08,1.1-3.25a8.66,8.66,0,0,1-1.68-5.14,8.06,8.06,0,0,1,0-.85,8.83,8.83,0,0,1,17.58.17c0,.23,0,.45,0,.68A8.8,8.8,0,0,1,850.67,1019.38Z"/><path class="cls-137" d="M855.48,1012.73c-.26-.13-1.53-.75-1.76-.83s-.41-.13-.58.12-.67.83-.82,1-.3.19-.56.06a6.94,6.94,0,0,1-2.07-1.26,7.79,7.79,0,0,1-1.43-1.77c-.14-.25,0-.39.12-.52s.25-.3.38-.45l.1-.12a2.72,2.72,0,0,0,.16-.3.47.47,0,0,0,0-.45c-.06-.13-.58-1.39-.8-1.9s-.42-.42-.58-.42l-.49,0a1,1,0,0,0-.69.31,2.91,2.91,0,0,0-.89,2.14,3.22,3.22,0,0,0,.13.87,5.77,5.77,0,0,0,.92,1.77,10.53,10.53,0,0,0,4.39,3.85c2.62,1,2.62.68,3.09.64a2.61,2.61,0,0,0,1.74-1.22A2.19,2.19,0,0,0,856,1013,1.4,1.4,0,0,0,855.48,1012.73Z"/><rect class="cls-44" x="898.46" y="1006.28" width="4.03" height="13.03"/><path class="cls-44" d="M900.45,1004.57a2.41,2.41,0,1,0-2.38-2.4A2.4,2.4,0,0,0,900.45,1004.57Z"/><path class="cls-44" d="M908.94,1012.47c0-1.83.84-2.92,2.46-2.92s2.19,1,2.19,2.92v6.84h4v-8.25c0-3.49-2-5.18-4.75-5.18a4.53,4.53,0,0,0-3.92,2.15v-1.75h-3.87v13h3.87Z"/><path class="cls-44" d="M907.84,1031.16a20.26,20.26,0,1,1,20.26-20.26A20.28,20.28,0,0,1,907.84,1031.16Zm0-39a18.72,18.72,0,1,0,18.72,18.72A18.74,18.74,0,0,0,907.84,992.18Z"/><path class="cls-44" d="M962.23,1022.48H967V1010.6h3.31l.35-4H967v-2.26c0-.94.19-1.31,1.09-1.31h2.57v-4.13h-3.28c-3.54,0-5.13,1.56-5.13,4.53v3.17h-2.47v4h2.47Z"/><path class="cls-44" d="M965.2,1031.16a20.26,20.26,0,1,1,20.26-20.26A20.28,20.28,0,0,1,965.2,1031.16Zm0-39a18.72,18.72,0,1,0,18.73,18.72A18.74,18.74,0,0,0,965.2,992.18Z"/><path class="cls-44" d="M1022.27,1001.37c2.85,0,3.19,0,4.32.06a5.81,5.81,0,0,1,2,.37,3.54,3.54,0,0,1,2,2,5.81,5.81,0,0,1,.37,2c0,1.13.06,1.47.06,4.32s0,3.19-.06,4.32a5.81,5.81,0,0,1-.37,2,3.54,3.54,0,0,1-2,2,5.81,5.81,0,0,1-2,.37c-1.13,0-1.46.06-4.32.06s-3.19,0-4.32-.06a5.87,5.87,0,0,1-2-.37,3.16,3.16,0,0,1-1.23-.8,3.28,3.28,0,0,1-.8-1.23,5.81,5.81,0,0,1-.37-2c-.05-1.13-.06-1.47-.06-4.32s0-3.19.06-4.32a5.81,5.81,0,0,1,.37-2,3.28,3.28,0,0,1,.8-1.23,3.16,3.16,0,0,1,1.23-.8,5.87,5.87,0,0,1,2-.37c1.13,0,1.47-.06,4.32-.06m0-1.93c-2.9,0-3.27,0-4.41.07a7.94,7.94,0,0,0-2.59.49,5.25,5.25,0,0,0-1.89,1.24,5.09,5.09,0,0,0-1.23,1.89,7.66,7.66,0,0,0-.5,2.59c0,1.14-.07,1.51-.07,4.41s0,3.27.07,4.41a7.66,7.66,0,0,0,.5,2.59,5.09,5.09,0,0,0,1.23,1.89,5.25,5.25,0,0,0,1.89,1.24,7.94,7.94,0,0,0,2.59.49c1.14,0,1.51.07,4.41.07s3.27,0,4.41-.07a7.88,7.88,0,0,0,2.59-.49,5.56,5.56,0,0,0,3.13-3.13,7.94,7.94,0,0,0,.49-2.59c.06-1.14.07-1.51.07-4.41s0-3.27-.07-4.41a7.94,7.94,0,0,0-.49-2.59,5.56,5.56,0,0,0-3.13-3.13,7.88,7.88,0,0,0-2.59-.49c-1.14,0-1.51-.07-4.41-.07"/><path class="cls-44" d="M1022.27,1004.64a5.49,5.49,0,1,0,5.49,5.49,5.49,5.49,0,0,0-5.49-5.49m0,9.05a3.56,3.56,0,1,1,3.56-3.56,3.56,3.56,0,0,1-3.56,3.56"/><path class="cls-44" d="M1029.26,1004.43a1.29,1.29,0,1,1-1.28-1.29,1.29,1.29,0,0,1,1.28,1.29"/><path class="cls-44" d="M1022.27,1031.16a20.26,20.26,0,1,1,20.26-20.26A20.28,20.28,0,0,1,1022.27,1031.16Zm0-39A18.72,18.72,0,1,0,1041,1010.9,18.74,18.74,0,0,0,1022.27,992.18Z"/><text class="cls-138" transform="translate(97.98 992.74)">CV <tspan class="cls-139" x="0" y="36.66">H</tspan><tspan x="22.18" y="36.66">AZI</tspan><tspan class="cls-140" x="71.93" y="36.66">R</tspan><tspan class="cls-141" x="91.89" y="36.66">L</tspan><tspan x="109.57" y="36.66">A</tspan><tspan class="cls-139" x="130.9" y="36.66">M</tspan><tspan class="cls-142" x="157.58" y="36.66">A</tspan></text><path class="cls-44" d="M71.65,968.49l-4.42,5.72H45.3a3.1,3.1,0,0,0-3.11,3.1v43.87a3.1,3.1,0,0,0,3.11,3.1H68.88L71,1030H36.47V968.49Z"/><path class="cls-44" d="M71.5,1030,53.57,982.5,60,985.33l10.14,26.89a1.43,1.43,0,0,0,2.68,0l10.07-26.89,6.42-2.83Z"/><polygon class="cls-44" points="70.07 985.33 72.72 985.33 74.14 1001.76 71.77 1005.07 69.06 1001.81 70.07 985.33"/><polygon class="cls-44" points="71.41 981.91 69.66 983.74 70.11 985.06 72.72 985.06 73.16 983.71 71.41 981.91"/><polygon class="cls-44" points="71.65 981.73 77.42 980.42 74.89 985.33 71.65 981.73"/><polygon class="cls-44" points="71.15 981.73 65.38 980.42 67.92 985.33 71.15 981.73"/></g></svg>