<svg xmlns="http://www.w3.org/2000/svg" viewBox="0 0 1079 1080"><defs><style>.cls-1{fill:#2b2c2b;}.cls-2{fill:#f6947d;}.cls-3{fill:#414142;}.cls-4{font-size:22.5px;font-family:Montserrat-Medium, Montserrat;font-weight:500;letter-spacing:-0.03em;}.cls-10,.cls-102,.cls-124,.cls-19,.cls-20,.cls-21,.cls-26,.cls-29,.cls-34,.cls-4,.cls-75,.cls-78,.cls-8,.cls-81,.cls-86,.cls-9{fill:#fff;}.cls-5{letter-spacing:0em;}.cls-6{letter-spacing:-0.01em;}.cls-7{letter-spacing:0em;}.cls-8{font-size:58.13px;}.cls-10,.cls-124,.cls-8{font-family:Montserrat-SemiBold, Montserrat;}.cls-10,.cls-124,.cls-29,.cls-8{font-weight:600;}.cls-9{font-size:22px;}.cls-102,.cls-115,.cls-34,.cls-86,.cls-9{font-family:Montserrat-Regular, Montserrat;}.cls-10{font-size:39.76px;}.cls-11{letter-spacing:0em;}.cls-12{letter-spacing:-0.01em;}.cls-13{letter-spacing:-0.01em;}.cls-14{letter-spacing:-0.01em;}.cls-15{letter-spacing:-0.01em;}.cls-16{letter-spacing:-0.02em;}.cls-17{letter-spacing:0em;}.cls-18{letter-spacing:0em;}.cls-20{fill-rule:evenodd;}.cls-21{font-size:30.55px;}.cls-21,.cls-51{font-family:Averta-Bold, Averta;}.cls-21,.cls-51,.cls-81{font-weight:700;}.cls-22{letter-spacing:0em;}.cls-23{letter-spacing:0em;}.cls-24{letter-spacing:0.01em;}.cls-25{letter-spacing:0em;}.cls-26{stroke:#bcb5b5;}.cls-26,.cls-58{stroke-miterlimit:10;}.cls-27,.cls-59,.cls-69,.cls-79{fill:#1c1a1e;}.cls-28{fill:#787878;}.cls-29,.cls-69,.cls-75,.cls-78{font-size:14.08px;}.cls-29{font-family:Averta-Semibold, Averta;letter-spacing:0.02em;}.cls-30{letter-spacing:-0.02em;}.cls-31,.cls-69,.cls-75{letter-spacing:0.02em;}.cls-32{letter-spacing:-0.02em;}.cls-33{letter-spacing:0.02em;}.cls-34{font-size:9.75px;}.cls-35{letter-spacing:-0.01em;}.cls-36{letter-spacing:-0.02em;}.cls-37{letter-spacing:-0.02em;}.cls-38{letter-spacing:0em;}.cls-39{letter-spacing:-0.02em;}.cls-40{letter-spacing:-0.02em;}.cls-41{letter-spacing:-0.01em;}.cls-42{letter-spacing:-0.01em;}.cls-43{letter-spacing:-0.01em;}.cls-44{letter-spacing:-0.01em;}.cls-45{letter-spacing:-0.01em;}.cls-46{letter-spacing:-0.02em;}.cls-47{letter-spacing:0.01em;}.cls-48{letter-spacing:0em;}.cls-49{letter-spacing:0em;}.cls-50,.cls-51{fill:#fafaf9;}.cls-51{font-size:11.02px;}.cls-52{letter-spacing:-0.02em;}.cls-53{letter-spacing:0em;}.cls-54{letter-spacing:-0.01em;}.cls-55{letter-spacing:-0.04em;}.cls-56{letter-spacing:-0.01em;}.cls-57{letter-spacing:-0.02em;}.cls-58{fill:none;stroke:#fafaf9;}.cls-59{font-size:8.67px;font-family:Averta-Regular, Averta;letter-spacing:0.02em;}.cls-60{letter-spacing:0.01em;}.cls-61{letter-spacing:0.02em;}.cls-62{letter-spacing:0.02em;}.cls-63{letter-spacing:0.01em;}.cls-64{letter-spacing:0em;}.cls-65{letter-spacing:0.02em;}.cls-66{letter-spacing:0.02em;}.cls-67{letter-spacing:0em;}.cls-68{letter-spacing:0em;}.cls-69,.cls-75,.cls-78,.cls-79{font-family:Averta-ExtraBold, Averta;font-weight:800;}.cls-70{letter-spacing:0.04em;}.cls-71,.cls-78{letter-spacing:-0.02em;}.cls-72{letter-spacing:-0.09em;}.cls-73{letter-spacing:0em;}.cls-74{letter-spacing:0.02em;}.cls-76{letter-spacing:0em;}.cls-77{letter-spacing:0.01em;}.cls-79{font-size:19.76px;letter-spacing:-0.02em;}.cls-80{letter-spacing:0.02em;}.cls-81{font-size:11.82px;font-family:Montserrat-Bold, Montserrat;}.cls-82{letter-spacing:-0.01em;}.cls-83{letter-spacing:0em;}.cls-84{letter-spacing:-0.02em;}.cls-85{letter-spacing:-0.01em;}.cls-86{font-size:8.6px;}.cls-87{letter-spacing:-0.01em;}.cls-88{letter-spacing:0em;}.cls-89{letter-spacing:-0.01em;}.cls-90{letter-spacing:0em;}.cls-91{letter-spacing:-0.01em;}.cls-92{letter-spacing:0em;}.cls-93{letter-spacing:-0.02em;}.cls-94{letter-spacing:-0.02em;}.cls-95{letter-spacing:-0.01em;}.cls-96{letter-spacing:0em;}.cls-97{letter-spacing:-0.01em;}.cls-98{letter-spacing:0em;}.cls-99{letter-spacing:-0.02em;}.cls-100{letter-spacing:0.01em;}.cls-101{letter-spacing:-0.01em;}.cls-102{font-size:7.16px;}.cls-103{letter-spacing:-0.02em;}.cls-104{letter-spacing:-0.01em;}.cls-105{letter-spacing:0em;}.cls-106{letter-spacing:0em;}.cls-107{letter-spacing:0em;}.cls-108{letter-spacing:-0.02em;}.cls-109{letter-spacing:-0.01em;}.cls-110{letter-spacing:-0.01em;}.cls-111{letter-spacing:0em;}.cls-112{letter-spacing:0em;}.cls-113{letter-spacing:-0.02em;}.cls-114{letter-spacing:-0.03em;}.cls-115{font-size:7.66px;}.cls-115,.cls-123{fill:#242942;}.cls-116{letter-spacing:-0.01em;}.cls-117{letter-spacing:-0.01em;}.cls-118{letter-spacing:-0.02em;}.cls-119{letter-spacing:-0.01em;}.cls-120{letter-spacing:0em;}.cls-121{letter-spacing:0em;}.cls-122{letter-spacing:0em;}.cls-124{font-size:6.09px;}.cls-125{letter-spacing:-0.02em;}.cls-126{letter-spacing:-0.01em;}.cls-127{letter-spacing:0em;}.cls-128{letter-spacing:0em;}.cls-129{letter-spacing:-0.01em;}.cls-130{letter-spacing:-0.01em;}</style></defs><g id="PRINT"><rect class="cls-1" x="85.21" y="181.33" width="260.32" height="56.71"/><rect class="cls-2" x="40.07" y="69.8" width="143.79" height="5.3"/><rect class="cls-3" x="183.81" y="69.8" width="143.79" height="5.3"/><rect class="cls-3" x="40.07" y="90.37" width="143.76" height="38.31"/><text class="cls-4" transform="translate(52.13 117.53)">K<tspan class="cls-5" x="15.62" y="0">OD: 11</tspan><tspan class="cls-6" x="80.91" y="0">.</tspan><tspan class="cls-7" x="85.75" y="0">00</tspan></text><rect class="cls-2" x="40.07" y="169.58" width="80.21" height="80.21"/><text class="cls-8" transform="translate(48.78 226.69)">12</text><text class="cls-9" transform="translate(67.92 240.86) scale(0.58)">azn</text><text class="cls-10" transform="translate(139 219.7) scale(0.58)"><tspan class="cls-11">A</tspan><tspan class="cls-12" x="29.7" y="0">z</tspan><tspan x="50.54" y="0">ə</tspan><tspan class="cls-13" x="75.27" y="0">r</tspan><tspan class="cls-14" x="91.77" y="0">b</tspan><tspan class="cls-15" x="118.77" y="0">a</tspan><tspan class="cls-16" x="142.51" y="0">y</tspan><tspan x="164.9" y="0">ca</tspan><tspan class="cls-17" x="212.14" y="0">n</tspan><tspan class="cls-18" x="239.57" y="0">dilli</tspan></text><rect class="cls-1" x="85.21" y="305.1" width="260.32" height="56.71"/><rect class="cls-2" x="40.07" y="293.35" width="80.21" height="80.21"/><text class="cls-8" transform="translate(48.78 350.46)">17</text><text class="cls-10" transform="translate(139 343.47) scale(0.58)">İ<tspan class="cls-17" x="12.68" y="0">n</tspan><tspan class="cls-18" x="40.12" y="0">gilisdilli</tspan></text><text class="cls-9" transform="translate(67.92 366.87) scale(0.58)">azn</text><path class="cls-1" d="M58.34,424.41c0,3-2.2,4.88-5.84,4.88H49v4.25H47v-14H52.5C56.14,419.53,58.34,421.37,58.34,424.41Zm-2,0c0-2-1.34-3.14-3.9-3.14H49v6.28h3.41C55,427.55,56.34,426.41,56.34,424.41Z"/><path class="cls-1" d="M66.51,422.83v1.86a3.39,3.39,0,0,0-.44,0c-2.06,0-3.34,1.26-3.34,3.58v5.29H60.81V422.93h1.84v1.78C63.33,423.47,64.65,422.83,66.51,422.83Z"/><path class="cls-1" d="M67.79,428.23a5.52,5.52,0,1,1,5.52,5.43A5.27,5.27,0,0,1,67.79,428.23Zm9.09,0A3.58,3.58,0,1,0,73.31,432,3.49,3.49,0,0,0,76.88,428.23Z"/><path class="cls-1" d="M83.63,422v.92h3.08v1.58h-3v9H81.75v-9H80v-1.58h1.8V422a3.19,3.19,0,0,1,3.5-3.42,3.61,3.61,0,0,1,2.17.62l-.58,1.46a2.52,2.52,0,0,0-1.49-.5C84.21,420.15,83.63,420.79,83.63,422Z"/><path class="cls-1" d="M97.92,428.87H89.31a3.59,3.59,0,0,0,3.85,3.1,3.92,3.92,0,0,0,3.06-1.28l1.06,1.24a5.3,5.3,0,0,1-4.19,1.73c-3.42,0-5.7-2.27-5.7-5.43a5.19,5.19,0,0,1,5.32-5.4A5.11,5.11,0,0,1,98,428.29C98,428.45,97.94,428.69,97.92,428.87Zm-8.61-1.38h6.81a3.43,3.43,0,0,0-6.81,0Z"/><path class="cls-1" d="M99.27,432.42l.8-1.53a6.76,6.76,0,0,0,3.72,1.11c1.79,0,2.53-.54,2.53-1.44,0-2.39-6.71-.33-6.71-4.55,0-1.9,1.7-3.18,4.43-3.18a7.71,7.71,0,0,1,3.86,1l-.82,1.52a5.55,5.55,0,0,0-3.07-.84c-1.67,0-2.5.62-2.5,1.46,0,2.5,6.73.46,6.73,4.58,0,1.92-1.76,3.15-4.58,3.15A7.66,7.66,0,0,1,99.27,432.42Z"/><path class="cls-1" d="M109.29,432.42l.8-1.53a6.73,6.73,0,0,0,3.72,1.11c1.78,0,2.53-.54,2.53-1.44,0-2.39-6.71-.33-6.71-4.55,0-1.9,1.7-3.18,4.42-3.18a7.75,7.75,0,0,1,3.87,1l-.82,1.52a5.57,5.57,0,0,0-3.07-.84c-1.68,0-2.5.62-2.5,1.46,0,2.5,6.73.46,6.73,4.58,0,1.92-1.76,3.15-4.59,3.15A7.65,7.65,0,0,1,109.29,432.42Z"/><path class="cls-1" d="M120.43,419.85a1.18,1.18,0,0,1,2.36,0,1.18,1.18,0,1,1-2.36,0Zm.22,3.08h1.92v10.61h-1.92Z"/><path class="cls-1" d="M125.25,428.23a5.52,5.52,0,1,1,5.52,5.43A5.27,5.27,0,0,1,125.25,428.23Zm9.09,0a3.58,3.58,0,1,0-3.57,3.74A3.49,3.49,0,0,0,134.34,428.23Z"/><path class="cls-1" d="M149,427.43v6.11h-1.92v-5.89c0-2.08-1-3.1-2.87-3.1-2,0-3.36,1.22-3.36,3.52v5.47h-1.92V422.93h1.84v1.6a4.54,4.54,0,0,1,3.82-1.7C147.18,422.83,149,424.31,149,427.43Z"/><path class="cls-1" d="M161,427.13v6.41h-1.83v-1.4a3.92,3.92,0,0,1-3.48,1.52c-2.4,0-3.92-1.28-3.92-3.13,0-1.7,1.1-3.1,4.26-3.1h3v-.38c0-1.62-.95-2.56-2.85-2.56a5.36,5.36,0,0,0-3.36,1.14l-.8-1.44a7.07,7.07,0,0,1,4.39-1.36C159.32,422.83,161,424.23,161,427.13ZM159,430.3v-1.49h-3c-1.9,0-2.44.75-2.44,1.64,0,1.06.88,1.73,2.34,1.73A3.1,3.1,0,0,0,159,430.3Z"/><path class="cls-1" d="M164.51,418.69h1.92v14.85h-1.92Z"/><path class="cls-1" d="M178.37,426.53a7.08,7.08,0,0,1,7.42-7.16,6.93,6.93,0,0,1,5.33,2.18l-1.3,1.26a5.19,5.19,0,0,0-3.94-1.66,5.39,5.39,0,1,0,0,10.77,5.18,5.18,0,0,0,3.94-1.69l1.3,1.27a7,7,0,0,1-5.35,2.2A7.08,7.08,0,0,1,178.37,426.53Z"/><path class="cls-1" d="M206,419.53l-6.15,14h-2l-6.16-14h2.16l5,11.5,5.09-11.5Z"/><path class="cls-1" d="M227,427.43v6.11h-1.92v-5.89c0-2.08-1-3.1-2.87-3.1-2,0-3.36,1.22-3.36,3.52v5.47h-1.92V418.69h1.92v5.74a4.6,4.6,0,0,1,3.74-1.6C225.18,422.83,227,424.31,227,427.43Z"/><path class="cls-1" d="M239,427.13v6.41h-1.83v-1.4a3.92,3.92,0,0,1-3.48,1.52c-2.4,0-3.92-1.28-3.92-3.13,0-1.7,1.1-3.1,4.26-3.1h3v-.38c0-1.62-.95-2.56-2.85-2.56a5.36,5.36,0,0,0-3.36,1.14l-.8-1.44a7.07,7.07,0,0,1,4.39-1.36C237.32,422.83,239,424.23,239,427.13ZM237,430.3v-1.49h-3c-1.9,0-2.44.75-2.44,1.64,0,1.06.88,1.73,2.34,1.73A3.1,3.1,0,0,0,237,430.3Z"/><path class="cls-1" d="M250.38,432v1.58h-8.89V432.3l6.26-7.79h-6.14v-1.58h8.61v1.26L244,432Z"/><path class="cls-1" d="M252.93,422.93h1.92v10.61h-1.92Z"/><path class="cls-1" d="M264.21,422.83v1.86a3.31,3.31,0,0,0-.44,0c-2.06,0-3.34,1.26-3.34,3.58v5.29h-1.92V422.93h1.84v1.78C261,423.47,262.35,422.83,264.21,422.83Z"/><path class="cls-1" d="M266.57,418.69h1.93v14.85h-1.93Z"/><path class="cls-1" d="M280.56,427.13v6.41h-1.82v-1.4a3.94,3.94,0,0,1-3.49,1.52c-2.4,0-3.92-1.28-3.92-3.13,0-1.7,1.1-3.1,4.26-3.1h3.05v-.38c0-1.62-.94-2.56-2.85-2.56a5.38,5.38,0,0,0-3.36,1.14l-.8-1.44a7.07,7.07,0,0,1,4.39-1.36C278.92,422.83,280.56,424.23,280.56,427.13Zm-1.92,3.17v-1.49h-3c-1.9,0-2.44.75-2.44,1.64,0,1.06.89,1.73,2.35,1.73A3.09,3.09,0,0,0,278.64,430.3Z"/><path class="cls-1" d="M301.72,427.43v6.11H299.8v-5.89c0-2.08-1-3.1-2.74-3.1-1.92,0-3.18,1.22-3.18,3.52v5.47H292v-5.89c0-2.08-1-3.1-2.74-3.1-1.93,0-3.18,1.22-3.18,3.52v5.47h-1.93V422.93H286v1.58a4.28,4.28,0,0,1,3.66-1.68,3.92,3.92,0,0,1,3.68,2,4.78,4.78,0,0,1,4.08-2C300,422.83,301.72,424.31,301.72,427.43Z"/><path class="cls-1" d="M313.66,427.13v6.41h-1.82v-1.4a4,4,0,0,1-3.49,1.52c-2.4,0-3.92-1.28-3.92-3.13,0-1.7,1.1-3.1,4.26-3.1h3.05v-.38c0-1.62-.95-2.56-2.85-2.56a5.36,5.36,0,0,0-3.36,1.14l-.8-1.44a7.07,7.07,0,0,1,4.39-1.36C312,422.83,313.66,424.23,313.66,427.13Zm-1.92,3.17v-1.49h-3c-1.9,0-2.44.75-2.44,1.64,0,1.06.88,1.73,2.34,1.73A3.1,3.1,0,0,0,311.74,430.3Z"/><path class="cls-1" d="M333.12,433.54l-3.07-4.07-3.1,4.07h-2.14l4.18-5.43-4-5.18h2.14l2.92,3.82,2.9-3.82h2.11l-4,5.18,4.23,5.43Z"/><path class="cls-1" d="M337.17,419.85a1.18,1.18,0,1,1,2.36,0,1.18,1.18,0,1,1-2.36,0Zm.22,3.08h1.92v10.61h-1.92Z"/><path class="cls-1" d="M353,418.69v14.85h-1.84v-1.69a4.47,4.47,0,0,1-3.79,1.81,5.42,5.42,0,0,1,0-10.83,4.54,4.54,0,0,1,3.71,1.7v-5.84Zm-1.9,9.54a3.58,3.58,0,1,0-3.57,3.74A3.49,3.49,0,0,0,351.08,428.23Z"/><path class="cls-1" d="M374.22,427.43v6.11H372.3v-5.89c0-2.08-1-3.1-2.74-3.1-1.92,0-3.18,1.22-3.18,3.52v5.47h-1.92v-5.89c0-2.08-1-3.1-2.75-3.1-1.92,0-3.18,1.22-3.18,3.52v5.47h-1.92V422.93h1.84v1.58a4.3,4.3,0,0,1,3.66-1.68,3.91,3.91,0,0,1,3.68,2,4.81,4.81,0,0,1,4.09-2C372.46,422.83,374.22,424.31,374.22,427.43Z"/><path class="cls-1" d="M387.4,428.23a5.2,5.2,0,0,1-5.33,5.41,5.12,5.12,0,0,1-5.24-5.47c0-.16,0-.4,0-.58h8.61a3.6,3.6,0,0,0-3.85-3.1,4,4,0,0,0-3.06,1.28l-1.06-1.24a5.32,5.32,0,0,1,4.18-1.72C385.12,422.81,387.4,425.07,387.4,428.23Zm-1.92.74h-6.81a3.43,3.43,0,0,0,6.81,0Z"/><path class="cls-1" d="M389.37,427.21h5.38v1.66h-5.38Z"/><path class="cls-1" d="M52.71,456.92a3.62,3.62,0,0,1-2.32.74A3,3,0,0,1,47,454.34v-5.83h-1.8v-1.58H47v-2.32H49v2.32h3v1.58H49v5.75A1.57,1.57,0,0,0,50.62,456a2.53,2.53,0,0,0,1.5-.5Z"/><path class="cls-1" d="M54.59,443.85a1.18,1.18,0,0,1,2.36,0,1.18,1.18,0,0,1-2.36,0Zm.22,3.08h1.92v10.61H54.81Z"/><path class="cls-1" d="M70.23,451.43v6.11H68.31v-5.89c0-2.08-1-3.1-2.86-3.1-2,0-3.36,1.22-3.36,3.52v5.47H60.17V446.93H62v1.6a4.54,4.54,0,0,1,3.82-1.7C68.41,446.83,70.23,448.31,70.23,451.43Z"/><path class="cls-1" d="M83.63,442.69v14.85H81.79v-1.69A4.46,4.46,0,0,1,78,457.66a5.42,5.42,0,0,1,0-10.83,4.51,4.51,0,0,1,3.7,1.7v-5.84Zm-1.9,9.54A3.57,3.57,0,1,0,78.17,456,3.49,3.49,0,0,0,81.73,452.23Z"/><path class="cls-1" d="M96.63,452.23a5.19,5.19,0,0,1-5.32,5.41,5.13,5.13,0,0,1-5.25-5.47c0-.16,0-.4,0-.58h8.61a3.59,3.59,0,0,0-3.84-3.1,4,4,0,0,0-3.07,1.28l-1-1.24a5.32,5.32,0,0,1,4.18-1.72C94.35,446.81,96.63,449.07,96.63,452.23Zm-1.92.74h-6.8a3.42,3.42,0,0,0,6.8,0Z"/><path class="cls-1" d="M114.57,452.23a5.15,5.15,0,0,1-5.36,5.43,4.51,4.51,0,0,1-3.7-1.73v5.49h-1.92V446.93h1.84v1.68a4.51,4.51,0,0,1,3.78-1.78A5.14,5.14,0,0,1,114.57,452.23Zm-1.94,0a3.57,3.57,0,1,0-3.58,3.74A3.5,3.5,0,0,0,112.63,452.23Z"/><path class="cls-1" d="M126.55,452.87H118a3.59,3.59,0,0,0,3.84,3.1,3.92,3.92,0,0,0,3.06-1.28l1.06,1.24a5.29,5.29,0,0,1-4.18,1.73c-3.42,0-5.7-2.27-5.7-5.43a5.19,5.19,0,0,1,5.32-5.4,5.11,5.11,0,0,1,5.24,5.46C126.59,452.45,126.57,452.69,126.55,452.87Zm-8.6-1.38h6.8a3.42,3.42,0,0,0-6.8,0Z"/><path class="cls-1" d="M132.65,457.64l-.24.9c1.16.12,1.74.78,1.74,1.66,0,1.12-1,1.82-2.48,1.82a3.37,3.37,0,0,1-1.79-.44l.42-1a2.68,2.68,0,0,0,1.37.34c.75,0,1.12-.3,1.12-.8s-.34-.78-1.14-.78h-.55l.44-1.72a7.17,7.17,0,0,1-3.86-1.22l.8-1.53a6.77,6.77,0,0,0,3.73,1.11c1.78,0,2.52-.54,2.52-1.44,0-2.39-6.71-.33-6.71-4.55,0-1.9,1.7-3.18,4.43-3.18a7.71,7.71,0,0,1,3.86,1l-.82,1.52a5.55,5.55,0,0,0-3.07-.84c-1.67,0-2.5.62-2.5,1.46,0,2.5,6.73.46,6.73,4.58C136.65,456.3,135.13,457.48,132.65,457.64Z"/><path class="cls-1" d="M148.4,452.23a5.19,5.19,0,0,1-5.32,5.41,5.12,5.12,0,0,1-5.24-5.47c0-.16,0-.4,0-.58h8.6a3.59,3.59,0,0,0-3.84-3.1,4,4,0,0,0-3.06,1.28l-1.06-1.24a5.32,5.32,0,0,1,4.18-1.72C146.12,446.81,148.4,449.07,148.4,452.23Zm-1.92.74h-6.8a3.42,3.42,0,0,0,6.8,0Z"/><path class="cls-1" d="M155,452.59l-2.2,2.05v2.9h-1.92V442.69h1.92v9.52l5.78-5.28h2.32l-4.46,4.38,4.9,6.23h-2.36Z"/><path class="cls-1" d="M171.14,451.13v6.41h-1.82v-1.4a3.93,3.93,0,0,1-3.48,1.52c-2.4,0-3.92-1.28-3.92-3.13,0-1.7,1.1-3.1,4.26-3.1h3v-.38c0-1.62-.94-2.56-2.84-2.56a5.36,5.36,0,0,0-3.36,1.14l-.8-1.44a7.06,7.06,0,0,1,4.38-1.36C169.5,446.83,171.14,448.23,171.14,451.13Zm-1.92,3.17v-1.49h-3c-1.9,0-2.44.75-2.44,1.64,0,1.06.88,1.73,2.34,1.73A3.09,3.09,0,0,0,169.22,454.3Z"/><path class="cls-1" d="M180.18,446.83v1.86a3.39,3.39,0,0,0-.44,0c-2.06,0-3.34,1.26-3.34,3.58v5.29h-1.92V446.93h1.84v1.78C177,447.47,178.32,446.83,180.18,446.83Z"/><path class="cls-1" d="M191.1,452.59l-2.2,2.05v2.9H187V442.69h1.92v9.52l5.78-5.28H197l-4.46,4.38,4.9,6.23h-2.36Z"/><path class="cls-1" d="M197.66,452.23a5.51,5.51,0,1,1,5.52,5.43A5.27,5.27,0,0,1,197.66,452.23Zm9.08,0a3.57,3.57,0,1,0-3.56,3.74A3.48,3.48,0,0,0,206.74,452.23Z"/><path class="cls-1" d="M228.72,451.43v6.11H226.8v-5.89c0-2.08-1-3.1-2.74-3.1-1.92,0-3.18,1.22-3.18,3.52v5.47H219v-5.89c0-2.08-1-3.1-2.74-3.1-1.92,0-3.18,1.22-3.18,3.52v5.47h-1.92V446.93H213v1.58a4.3,4.3,0,0,1,3.66-1.68,3.92,3.92,0,0,1,3.68,2,4.78,4.78,0,0,1,4.08-2C227,446.83,228.72,448.31,228.72,451.43Z"/><path class="cls-1" d="M240.44,451.13v6.41h-1.82v-1.4a3.93,3.93,0,0,1-3.48,1.52c-2.4,0-3.93-1.28-3.93-3.13,0-1.7,1.11-3.1,4.27-3.1h3v-.38c0-1.62-.94-2.56-2.84-2.56a5.36,5.36,0,0,0-3.36,1.14l-.81-1.44a7.11,7.11,0,0,1,4.39-1.36C238.8,446.83,240.44,448.23,240.44,451.13Zm-1.92,3.17v-1.49h-3c-1.9,0-2.44.75-2.44,1.64,0,1.06.88,1.73,2.34,1.73A3.09,3.09,0,0,0,238.52,454.3Z"/><path class="cls-1" d="M253.84,451.43v6.11h-1.92v-5.89c0-2.08-1-3.1-2.87-3.1-2,0-3.36,1.22-3.36,3.52v5.47h-1.92V446.93h1.84v1.6a4.54,4.54,0,0,1,3.82-1.7C252,446.83,253.84,448.31,253.84,451.43Z"/><path class="cls-1" d="M267.23,442.69v14.85h-1.84v-1.69a4.46,4.46,0,0,1-3.78,1.81,5.42,5.42,0,0,1,0-10.83,4.51,4.51,0,0,1,3.7,1.7v-5.84Zm-1.9,9.54a3.57,3.57,0,1,0-3.56,3.74A3.49,3.49,0,0,0,265.33,452.23Z"/><path class="cls-1" d="M279.05,451.13v6.41h-1.82v-1.4a3.93,3.93,0,0,1-3.48,1.52c-2.4,0-3.92-1.28-3.92-3.13,0-1.7,1.1-3.1,4.26-3.1h3v-.38c0-1.62-.94-2.56-2.84-2.56a5.36,5.36,0,0,0-3.36,1.14l-.8-1.44a7.06,7.06,0,0,1,4.38-1.36C277.41,446.83,279.05,448.23,279.05,451.13Zm-1.92,3.17v-1.49h-3c-1.9,0-2.44.75-2.44,1.64,0,1.06.88,1.73,2.34,1.73A3.09,3.09,0,0,0,277.13,454.3Z"/><path class="cls-1" d="M300,451.43v6.11h-1.92v-5.89c0-2.08-1-3.1-2.74-3.1-1.92,0-3.18,1.22-3.18,3.52v5.47h-1.92v-5.89c0-2.08-1-3.1-2.74-3.1-1.92,0-3.18,1.22-3.18,3.52v5.47h-1.92V446.93h1.84v1.58a4.3,4.3,0,0,1,3.66-1.68,3.92,3.92,0,0,1,3.68,2,4.78,4.78,0,0,1,4.08-2C298.23,446.83,300,448.31,300,451.43Z"/><path class="cls-1" d="M303.3,446.93h1.93v10.61H303.3Z"/><path class="cls-1" d="M316.52,456v1.58h-8.88V456.3l6.26-7.79h-6.14v-1.58h8.61v1.26L310.1,456Z"/><path class="cls-1" d="M329.35,456.92a3.62,3.62,0,0,1-2.32.74,3,3,0,0,1-3.36-3.32v-5.83h-1.8v-1.58h1.8v-2.32h1.92v2.32h3v1.58h-3v5.75a1.57,1.57,0,0,0,1.66,1.78,2.48,2.48,0,0,0,1.5-.5Z"/><path class="cls-1" d="M340.67,452.23a5.2,5.2,0,0,1-5.33,5.41,5.12,5.12,0,0,1-5.24-5.47c0-.16,0-.4,0-.58h8.61a3.6,3.6,0,0,0-3.84-3.1,4,4,0,0,0-3.07,1.28l-1.06-1.24a5.32,5.32,0,0,1,4.18-1.72C338.39,446.81,340.67,449.07,340.67,452.23Zm-1.92.74h-6.81a3.43,3.43,0,0,0,6.81,0Z"/><path class="cls-1" d="M348.8,446.83v1.86a3.39,3.39,0,0,0-.44,0c-2.06,0-3.34,1.26-3.34,3.58v5.29H343.1V446.93h1.84v1.78C345.62,447.47,346.94,446.83,348.8,446.83Z"/><path class="cls-1" d="M360.42,452.23a5.19,5.19,0,0,1-5.32,5.41,5.12,5.12,0,0,1-5.24-5.47c0-.16,0-.4,0-.58h8.6a3.59,3.59,0,0,0-3.84-3.1,4,4,0,0,0-3.06,1.28l-1.06-1.24a5.32,5.32,0,0,1,4.18-1.72C358.14,446.81,360.42,449.07,360.42,452.23Zm-1.92.74h-6.8a3.42,3.42,0,0,0,6.8,0Z"/><path class="cls-1" d="M365,446v.92h3.08v1.58h-3v9h-1.92v-9h-1.8v-1.58h1.8V446a3.19,3.19,0,0,1,3.5-3.42,3.58,3.58,0,0,1,2.16.62l-.58,1.46a2.49,2.49,0,0,0-1.48-.5C365.6,444.15,365,444.79,365,446Z"/><path class="cls-1" d="M371.08,443.85a1.18,1.18,0,0,1,2.36,0,1.18,1.18,0,1,1-2.36,0Zm.22,3.08h1.92v10.61H371.3Z"/><path class="cls-1" d="M386.72,451.43v6.11H384.8v-5.89c0-2.08-1-3.1-2.86-3.1-2,0-3.36,1.22-3.36,3.52v5.47h-1.92V446.93h1.84v1.6a4.54,4.54,0,0,1,3.82-1.7C384.9,446.83,386.72,448.31,386.72,451.43Z"/><path class="cls-1" d="M389.37,451.21h5.38v1.66h-5.38Z"/><path class="cls-1" d="M56.76,466.69v14.85H54.92v-1.69a4.47,4.47,0,0,1-3.79,1.81,5.42,5.42,0,0,1,0-10.83,4.53,4.53,0,0,1,3.71,1.7v-5.84Zm-1.9,9.54A3.58,3.58,0,1,0,51.29,480,3.49,3.49,0,0,0,54.86,476.23Z"/><path class="cls-1" d="M70,476.23a5.2,5.2,0,0,1-5.33,5.41,5.12,5.12,0,0,1-5.24-5.47c0-.16,0-.4,0-.58h8.61a3.6,3.6,0,0,0-3.85-3.1,4,4,0,0,0-3.06,1.28l-1.06-1.24a5.32,5.32,0,0,1,4.18-1.72C67.7,470.81,70,473.07,70,476.23Zm-1.92.74H61.25a3.43,3.43,0,0,0,6.81,0Z"/><path class="cls-1" d="M82.7,475.43v6.11H80.78v-5.89c0-2.08-1-3.1-2.86-3.1-2,0-3.37,1.22-3.37,3.52v5.47H72.63V470.93h1.84v1.6a4.54,4.54,0,0,1,3.82-1.7C80.88,470.83,82.7,472.31,82.7,475.43Z"/><path class="cls-1" d="M91.75,474.53a7.08,7.08,0,0,1,7.42-7.16,6.92,6.92,0,0,1,5.32,2.18l-1.3,1.26a5.19,5.19,0,0,0-3.94-1.66,5.39,5.39,0,1,0,0,10.77,5.18,5.18,0,0,0,3.94-1.69l1.3,1.27a7,7,0,0,1-5.34,2.2A7.08,7.08,0,0,1,91.75,474.53Z"/><path class="cls-1" d="M119.37,467.53l-6.14,14h-2l-6.16-14h2.16l5,11.5,5.08-11.5Z"/><path class="cls-1" d="M120.61,467.53h1.68l-.14,5.4h-1.42Z"/><path class="cls-1" d="M135.43,475.43v6.11h-1.92v-5.89c0-2.08-1-3.1-2.86-3.1-2,0-3.36,1.22-3.36,3.52v5.47h-1.92V470.93h1.84v1.6a4.54,4.54,0,0,1,3.82-1.7C133.61,470.83,135.43,472.31,135.43,475.43Z"/><path class="cls-1" d="M138.77,467.85a1.18,1.18,0,0,1,2.36,0,1.18,1.18,0,1,1-2.36,0Zm.22,3.08h1.92v10.61H139Z"/><path class="cls-1" d="M152.43,480v1.58h-8.88V480.3l6.26-7.79h-6.14v-1.58h8.6v1.26L146,480Z"/><path class="cls-1" d="M154.77,467.85a1.18,1.18,0,0,1,2.36,0,1.18,1.18,0,1,1-2.36,0Zm.22,3.08h1.92v10.61H155Z"/><path class="cls-1" d="M176.93,470.93v14.49H175v-5.49a4.51,4.51,0,0,1-3.7,1.73,5.42,5.42,0,0,1,0-10.83,4.51,4.51,0,0,1,3.78,1.78v-1.68Zm-1.9,5.3a3.57,3.57,0,1,0-3.56,3.74A3.5,3.5,0,0,0,175,476.23Z"/><path class="cls-1" d="M190.45,470.93v10.61h-1.82v-1.61a4.29,4.29,0,0,1-3.6,1.73c-2.74,0-4.56-1.5-4.56-4.63v-6.1h1.92v5.88c0,2.08,1,3.12,2.86,3.12,2,0,3.28-1.24,3.28-3.52v-5.48Z"/><path class="cls-1" d="M199.81,470.83v1.86a3.39,3.39,0,0,0-.44,0c-2.06,0-3.34,1.26-3.34,3.58v5.29h-1.92V470.93H196v1.78C196.63,471.47,198,470.83,199.81,470.83Z"/><path class="cls-1" d="M212.19,470.93v10.61h-1.82v-1.61a4.29,4.29,0,0,1-3.6,1.73c-2.74,0-4.56-1.5-4.56-4.63v-6.1h1.92v5.88c0,2.08,1,3.12,2.86,3.12,2,0,3.28-1.24,3.28-3.52v-5.48Z"/><path class="cls-1" d="M215.85,466.69h1.92v14.85h-1.92Z"/><path class="cls-1" d="M231.31,470.93v10.61h-1.82v-1.61a4.29,4.29,0,0,1-3.6,1.73c-2.74,0-4.56-1.5-4.56-4.63v-6.1h1.92v5.88c0,2.08,1,3.12,2.86,3.12,2,0,3.28-1.24,3.28-3.52v-5.48Z"/><path class="cls-1" d="M238.59,481.64l-.24.9c1.16.12,1.74.78,1.74,1.66,0,1.12-1,1.82-2.48,1.82a3.36,3.36,0,0,1-1.78-.44l.42-1a2.64,2.64,0,0,0,1.36.34c.76,0,1.12-.3,1.12-.8s-.34-.78-1.14-.78h-.54l.44-1.72a7.17,7.17,0,0,1-3.86-1.22l.8-1.53a6.73,6.73,0,0,0,3.72,1.11c1.78,0,2.52-.54,2.52-1.44,0-2.39-6.7-.33-6.7-4.55,0-1.9,1.7-3.18,4.42-3.18a7.71,7.71,0,0,1,3.86,1l-.82,1.52a5.54,5.54,0,0,0-3.06-.84c-1.68,0-2.5.62-2.5,1.46,0,2.5,6.72.46,6.72,4.58C242.59,480.3,241.07,481.48,238.59,481.64Z"/><path class="cls-1" d="M260.72,470.93l-4.64,10.61h-2l-4.64-10.61h2l3.64,8.5,3.72-8.5Z"/><path class="cls-1" d="M271.8,476.23a5.19,5.19,0,0,1-5.32,5.41,5.12,5.12,0,0,1-5.24-5.47c0-.16,0-.4,0-.58h8.6a3.59,3.59,0,0,0-3.84-3.1,4,4,0,0,0-3.06,1.28l-1.06-1.24a5.32,5.32,0,0,1,4.18-1.72C269.52,470.81,271.8,473.07,271.8,476.23Zm-1.92.74h-6.8a3.42,3.42,0,0,0,6.8,0Z"/><path class="cls-1" d="M283,470v.92h3.08v1.58h-3v9H281.1v-9h-1.8v-1.58h1.8V470a3.19,3.19,0,0,1,3.5-3.42,3.58,3.58,0,0,1,2.16.62l-.58,1.46a2.49,2.49,0,0,0-1.48-.5C283.56,468.15,283,468.79,283,470Z"/><path class="cls-1" d="M286.74,476.23a5.51,5.51,0,1,1,5.52,5.43A5.27,5.27,0,0,1,286.74,476.23Zm9.08,0a3.57,3.57,0,1,0-3.56,3.74A3.48,3.48,0,0,0,295.82,476.23Z"/><path class="cls-1" d="M306.12,470.83v1.86a3.39,3.39,0,0,0-.44,0c-2.06,0-3.34,1.26-3.34,3.58v5.29h-1.92V470.93h1.84v1.78C302.94,471.47,304.26,470.83,306.12,470.83Z"/><path class="cls-1" d="M326.08,475.43v6.11h-1.92v-5.89c0-2.08-1-3.1-2.74-3.1-1.92,0-3.18,1.22-3.18,3.52v5.47h-1.92v-5.89c0-2.08-1-3.1-2.74-3.1-1.92,0-3.18,1.22-3.18,3.52v5.47h-1.92V470.93h1.84v1.58a4.3,4.3,0,0,1,3.66-1.68,3.92,3.92,0,0,1,3.68,2,4.78,4.78,0,0,1,4.08-2C324.32,470.83,326.08,472.31,326.08,475.43Z"/><path class="cls-1" d="M338,475.13v6.41H336.2v-1.4a3.93,3.93,0,0,1-3.48,1.52c-2.4,0-3.92-1.28-3.92-3.13,0-1.7,1.1-3.1,4.26-3.1h3v-.38c0-1.62-.94-2.56-2.84-2.56a5.36,5.36,0,0,0-3.36,1.14l-.8-1.44a7.06,7.06,0,0,1,4.38-1.36C336.38,470.83,338,472.23,338,475.13Zm-1.92,3.17v-1.49h-3c-1.9,0-2.44.75-2.44,1.64,0,1.06.88,1.73,2.34,1.73A3.09,3.09,0,0,0,336.1,478.3Z"/><path class="cls-1" d="M358.92,476.23a5.17,5.17,0,0,1-5.36,5.43,4.45,4.45,0,0,1-3.78-1.81v1.69h-1.85V466.69h1.93v5.84a4.51,4.51,0,0,1,3.7-1.7A5.14,5.14,0,0,1,358.92,476.23Zm-1.94,0A3.57,3.57,0,1,0,353.4,480,3.49,3.49,0,0,0,357,476.23Z"/><path class="cls-1" d="M369.88,475.13v6.41h-1.82v-1.4a3.93,3.93,0,0,1-3.48,1.52c-2.41,0-3.93-1.28-3.93-3.13,0-1.7,1.1-3.1,4.27-3.1h3v-.38c0-1.62-.94-2.56-2.84-2.56a5.41,5.41,0,0,0-3.37,1.14l-.8-1.44a7.07,7.07,0,0,1,4.39-1.36C368.24,470.83,369.88,472.23,369.88,475.13ZM368,478.3v-1.49h-3c-1.91,0-2.45.75-2.45,1.64,0,1.06.89,1.73,2.35,1.73A3.09,3.09,0,0,0,368,478.3Z"/><path class="cls-1" d="M380.2,481.54l-3.06-4.07-3.1,4.07h-2.15l4.19-5.43-4-5.18h2.14l2.93,3.82,2.9-3.82h2.1l-4,5.18,4.22,5.43Z"/><path class="cls-1" d="M384.47,470.93h1.93v10.61h-1.93Z"/><path class="cls-1" d="M389.38,475.21h5.38v1.66h-5.38Z"/><path class="cls-1" d="M64.36,499.43v6.11H62.44v-5.89c0-2.08-1-3.1-2.74-3.1-1.92,0-3.18,1.22-3.18,3.52v5.47H54.6v-5.89c0-2.08-1-3.1-2.74-3.1-1.93,0-3.19,1.22-3.19,3.52v5.47H46.75V494.93h1.84v1.58a4.31,4.31,0,0,1,3.66-1.68,3.93,3.93,0,0,1,3.69,2,4.78,4.78,0,0,1,4.08-2C62.6,494.83,64.36,496.31,64.36,499.43Z"/><path class="cls-1" d="M67.89,494.93h1.92v10.61H67.89Z"/><path class="cls-1" d="M83.54,499.43v6.11H81.62v-5.89c0-2.08-1-3.1-2.87-3.1-2,0-3.36,1.22-3.36,3.52v5.47H73.47V494.93h1.84v1.6a4.54,4.54,0,0,1,3.82-1.7C81.72,494.83,83.54,496.31,83.54,499.43Z"/><path class="cls-1" d="M97.16,490.69v14.85H95.32v-1.69a4.48,4.48,0,0,1-3.79,1.81,5.42,5.42,0,0,1,0-10.83,4.54,4.54,0,0,1,3.71,1.7v-5.84Zm-1.91,9.54A3.57,3.57,0,1,0,91.69,504,3.49,3.49,0,0,0,95.25,500.23Z"/><path class="cls-1" d="M109.2,499.13v6.41h-1.83v-1.4a3.93,3.93,0,0,1-3.48,1.52c-2.4,0-3.92-1.28-3.92-3.13,0-1.7,1.1-3.1,4.26-3.1h3v-.38c0-1.62-.94-2.56-2.84-2.56a5.36,5.36,0,0,0-3.36,1.14l-.8-1.44a7.06,7.06,0,0,1,4.38-1.36C107.55,494.83,109.2,496.23,109.2,499.13Zm-1.93,3.17v-1.49h-3c-1.9,0-2.44.75-2.44,1.64,0,1.06.88,1.73,2.34,1.73A3.09,3.09,0,0,0,107.27,502.3Z"/><path class="cls-1" d="M122.82,499.43v6.11h-1.93v-5.89c0-2.08-1-3.1-2.86-3.1-2,0-3.36,1.22-3.36,3.52v5.47h-1.92V494.93h1.84v1.6a4.54,4.54,0,0,1,3.82-1.7C121,494.83,122.82,496.31,122.82,499.43Z"/><path class="cls-1" d="M142.65,494.93v9.17c0,3.74-1.9,5.44-5.5,5.44a7.85,7.85,0,0,1-5.06-1.58l.92-1.48a6.47,6.47,0,0,0,4.08,1.38c2.5,0,3.64-1.16,3.64-3.56v-.84a4.85,4.85,0,0,1-3.82,1.64,5.14,5.14,0,1,1,0-10.27,4.84,4.84,0,0,1,3.92,1.74v-1.64Zm-1.88,5a3.66,3.66,0,0,0-7.3,0,3.65,3.65,0,0,0,7.3,0Z"/><path class="cls-1" d="M156.19,494.93v10.61h-1.82v-1.61a4.29,4.29,0,0,1-3.6,1.73c-2.74,0-4.56-1.5-4.56-4.63v-6.1h1.92v5.88c0,2.08,1,3.12,2.86,3.12,2,0,3.28-1.24,3.28-3.52v-5.48Zm-7.86-2.9a1,1,0,1,1,2,0,1,1,0,0,1-2,0Zm3.72,0a1,1,0,1,1,2,0,1,1,0,0,1-2,0Z"/><path class="cls-1" d="M158.87,500.23a5.3,5.3,0,0,1,5.6-5.4,4.73,4.73,0,0,1,4.32,2.26l-1.46.94a3.3,3.3,0,0,0-2.88-1.52,3.73,3.73,0,0,0,0,7.46,3.28,3.28,0,0,0,2.88-1.52l1.46.93a4.74,4.74,0,0,1-4.32,2.28A5.32,5.32,0,0,1,158.87,500.23Z"/><path class="cls-1" d="M171.13,490.69h1.92v14.85h-1.92Z"/><path class="cls-1" d="M186.29,500.23a5.19,5.19,0,0,1-5.32,5.41,5.12,5.12,0,0,1-5.24-5.47c0-.16,0-.4,0-.58h8.6a3.59,3.59,0,0,0-3.84-3.1,4,4,0,0,0-3.06,1.28l-1.06-1.24a5.32,5.32,0,0,1,4.18-1.72C184,494.81,186.29,497.07,186.29,500.23Zm-1.92.74h-6.8a3.42,3.42,0,0,0,6.8,0Z"/><path class="cls-1" d="M199,499.43v6.11h-1.92v-5.89c0-2.08-1-3.1-2.86-3.1-2,0-3.36,1.22-3.36,3.52v5.47H189V494.93h1.84v1.6a4.54,4.54,0,0,1,3.82-1.7C197.19,494.83,199,496.31,199,499.43Z"/><path class="cls-1" d="M212.63,490.69v14.85h-1.84v-1.69a4.46,4.46,0,0,1-3.78,1.81,5.42,5.42,0,0,1,0-10.83,4.51,4.51,0,0,1,3.7,1.7v-5.84Zm-1.9,9.54a3.57,3.57,0,1,0-3.56,3.74A3.49,3.49,0,0,0,210.73,500.23Z"/><path class="cls-1" d="M216.05,491.85a1.18,1.18,0,0,1,2.36,0,1.18,1.18,0,1,1-2.36,0Zm.22,3.08h1.92v10.61h-1.92Z"/><path class="cls-1" d="M227.55,494.83v1.86a3.39,3.39,0,0,0-.44,0c-2.06,0-3.34,1.26-3.34,3.58v5.29h-1.92V494.93h1.84v1.78C224.37,495.47,225.69,494.83,227.55,494.83Z"/><path class="cls-1" d="M229.69,491.85a1.18,1.18,0,0,1,2.36,0,1.18,1.18,0,1,1-2.36,0Zm.22,3.08h1.92v10.61h-1.92Z"/><path class="cls-1" d="M246.47,500.23a5.17,5.17,0,0,1-5.36,5.43,4.46,4.46,0,0,1-3.78-1.81v1.69h-1.84V490.69h1.92v5.84a4.51,4.51,0,0,1,3.7-1.7A5.14,5.14,0,0,1,246.47,500.23Zm-1.94,0A3.57,3.57,0,1,0,241,504,3.49,3.49,0,0,0,244.53,500.23Z"/><path class="cls-1" d="M250.67,504.27a4.09,4.09,0,0,1-.34,1.45l-.94,2.78h-1.26l.74-3a1.28,1.28,0,0,1-.84-1.25,1.3,1.3,0,0,1,1.34-1.35A1.29,1.29,0,0,1,250.67,504.27Z"/><path class="cls-1" d="M258.58,500.23a5.51,5.51,0,1,1,5.52,5.43A5.27,5.27,0,0,1,258.58,500.23Zm9.08,0A3.57,3.57,0,1,0,264.1,504,3.48,3.48,0,0,0,267.66,500.23ZM261.2,492a1,1,0,1,1,2,0,1,1,0,0,1-2,0Zm3.72,0a1,1,0,1,1,2,0,1,1,0,0,1-2,0Z"/><path class="cls-1" d="M280,504v1.58h-8.88V504.3l6.26-7.79H271.2v-1.58h8.6v1.26L273.54,504Z"/><path class="cls-1" d="M291.94,500.23a5.19,5.19,0,0,1-5.32,5.41,5.12,5.12,0,0,1-5.24-5.47c0-.16,0-.4,0-.58H290a3.59,3.59,0,0,0-3.84-3.1,4,4,0,0,0-3.06,1.28l-1.06-1.24a5.32,5.32,0,0,1,4.18-1.72C289.66,494.81,291.94,497.07,291.94,500.23ZM290,501h-6.8a3.42,3.42,0,0,0,6.8,0Z"/><path class="cls-1" d="M294.6,490.69h1.92v14.85H294.6Z"/><path class="cls-1" d="M316.32,490.69v14.85h-1.84v-1.69a4.46,4.46,0,0,1-3.78,1.81,5.42,5.42,0,0,1,0-10.83,4.51,4.51,0,0,1,3.7,1.7v-5.84Zm-1.9,9.54a3.58,3.58,0,1,0-3.56,3.74A3.49,3.49,0,0,0,314.42,500.23Z"/><path class="cls-1" d="M319.73,491.85a1.18,1.18,0,1,1,2.36,0,1.18,1.18,0,1,1-2.36,0Zm.22,3.08h1.93v10.61H320Z"/><path class="cls-1" d="M333.4,504v1.58h-8.89V504.3l6.27-7.79h-6.15v-1.58h8.61v1.26L327,504Z"/><path class="cls-1" d="M344.36,499.13v6.41h-1.82v-1.4a4,4,0,0,1-3.49,1.52c-2.4,0-3.92-1.28-3.92-3.13,0-1.7,1.1-3.1,4.26-3.1h3.05v-.38c0-1.62-.94-2.56-2.85-2.56a5.38,5.38,0,0,0-3.36,1.14l-.8-1.44a7.07,7.07,0,0,1,4.39-1.36C342.72,494.83,344.36,496.23,344.36,499.13Zm-1.92,3.17v-1.49h-3c-1.9,0-2.44.75-2.44,1.64,0,1.06.89,1.73,2.35,1.73A3.09,3.09,0,0,0,342.44,502.3Z"/><path class="cls-1" d="M357.1,494.93,352,506.6c-.95,2.24-2.17,2.94-3.79,2.94a4,4,0,0,1-2.72-1l.82-1.44a2.71,2.71,0,0,0,1.9.78c.92,0,1.5-.42,2-1.64l.34-.74-4.68-10.59h2l3.7,8.49,3.67-8.49Z"/><path class="cls-1" d="M369,499.43v6.11H367v-5.89c0-2.08-1-3.1-2.87-3.1-2,0-3.36,1.22-3.36,3.52v5.47h-1.92V494.93h1.84v1.6a4.54,4.54,0,0,1,3.82-1.7C367.14,494.83,369,496.31,369,499.43Z"/><path class="cls-1" d="M372.51,490.69h1.92v14.85h-1.92Z"/><path class="cls-1" d="M386.5,499.13v6.41h-1.83v-1.4a3.92,3.92,0,0,1-3.48,1.52c-2.4,0-3.92-1.28-3.92-3.13,0-1.7,1.1-3.1,4.26-3.1h3.05v-.38c0-1.62-.95-2.56-2.85-2.56a5.36,5.36,0,0,0-3.36,1.14l-.8-1.44a7.07,7.07,0,0,1,4.39-1.36C384.86,494.83,386.5,496.23,386.5,499.13Zm-1.92,3.17v-1.49h-3c-1.9,0-2.44.75-2.44,1.64,0,1.06.88,1.73,2.34,1.73A3.1,3.1,0,0,0,384.58,502.3Z"/><path class="cls-1" d="M389.37,499.21h5.38v1.66h-5.38Z"/><path class="cls-1" d="M52.46,518.83v1.86a3.54,3.54,0,0,0-.45,0c-2,0-3.34,1.26-3.34,3.58v5.29H46.75V518.93h1.84v1.78C49.27,519.47,50.59,518.83,52.46,518.83Z"/><path class="cls-1" d="M54.63,518.93h1.92v10.61H54.63Z"/><path class="cls-1" d="M77.63,523.43v6.11H75.71v-5.89c0-2.08-1-3.1-2.74-3.1-1.92,0-3.18,1.22-3.18,3.52v5.47H67.87v-5.89c0-2.08-1-3.1-2.74-3.1-1.92,0-3.18,1.22-3.18,3.52v5.47H60V518.93h1.84v1.58a4.3,4.3,0,0,1,3.66-1.68,3.92,3.92,0,0,1,3.68,2,4.78,4.78,0,0,1,4.08-2C75.87,518.83,77.63,520.31,77.63,523.43Z"/><path class="cls-1" d="M81,518.93h1.92v10.61H81Z"/><path class="cls-1" d="M94.25,528v1.58H85.37V528.3l6.26-7.79H85.49v-1.58h8.6v1.26L87.83,528Z"/><path class="cls-1" d="M100.89,515.85a1.18,1.18,0,1,1,2.36,0,1.18,1.18,0,1,1-2.36,0Zm.22,3.08H103v10.61h-1.92Z"/><path class="cls-1" d="M106.51,514.69h1.92v14.85h-1.92Z"/><path class="cls-1" d="M121.49,524.23a5.19,5.19,0,0,1-5.32,5.41,5.12,5.12,0,0,1-5.24-5.47c0-.16,0-.4,0-.58h8.6a3.59,3.59,0,0,0-3.84-3.1,4,4,0,0,0-3.06,1.28l-1.06-1.24a5.32,5.32,0,0,1,4.18-1.72C119.21,518.81,121.49,521.07,121.49,524.23Zm-1.92.74h-6.8a3.42,3.42,0,0,0,6.8,0Z"/><path class="cls-1" d="M128.23,515.85a1.18,1.18,0,1,1,2.36,0,1.18,1.18,0,1,1-2.36,0Zm.22,3.08h1.92v10.61h-1.92Z"/><path class="cls-1" d="M137.47,529.64l-.24.9c1.16.12,1.74.78,1.74,1.66,0,1.12-1,1.82-2.48,1.82a3.36,3.36,0,0,1-1.78-.44l.42-1a2.64,2.64,0,0,0,1.36.34c.76,0,1.12-.3,1.12-.8s-.34-.78-1.14-.78h-.54l.44-1.72a7.17,7.17,0,0,1-3.86-1.22l.8-1.53A6.73,6.73,0,0,0,137,528c1.78,0,2.52-.54,2.52-1.44,0-2.39-6.7-.33-6.7-4.55,0-1.9,1.7-3.18,4.42-3.18a7.71,7.71,0,0,1,3.86,1l-.82,1.52a5.54,5.54,0,0,0-3.06-.84c-1.68,0-2.5.62-2.5,1.46,0,2.5,6.72.46,6.72,4.58C141.47,528.3,140,529.48,137.47,529.64Z"/><path class="cls-1" d="M165.78,523.43v6.11h-1.92v-5.89c0-2.08-1-3.1-2.74-3.1-1.92,0-3.19,1.22-3.19,3.52v5.47H156v-5.89c0-2.08-1-3.1-2.74-3.1-1.92,0-3.18,1.22-3.18,3.52v5.47h-1.92V518.93H150v1.58a4.3,4.3,0,0,1,3.66-1.68,3.92,3.92,0,0,1,3.68,2,4.81,4.81,0,0,1,4.09-2C164,518.83,165.78,520.31,165.78,523.43Z"/><path class="cls-1" d="M179,518.93v10.61h-1.82v-1.61a4.29,4.29,0,0,1-3.6,1.73c-2.74,0-4.56-1.5-4.56-4.63v-6.1H171v5.88c0,2.08,1,3.12,2.86,3.12,2,0,3.28-1.24,3.28-3.52v-5.48Zm-7.86-2.9a1,1,0,1,1,2,0,1,1,0,0,1-2,0Zm3.72,0a1,1,0,1,1,2,0,1,1,0,0,1-2,0Z"/><path class="cls-1" d="M188.19,518.83v1.86a3.39,3.39,0,0,0-.44,0c-2.06,0-3.34,1.26-3.34,3.58v5.29h-1.92V518.93h1.84v1.78C185,519.47,186.33,518.83,188.19,518.83Z"/><path class="cls-1" d="M198.75,523.13v6.41h-1.82v-1.4a3.93,3.93,0,0,1-3.48,1.52c-2.4,0-3.92-1.28-3.92-3.13,0-1.7,1.1-3.1,4.26-3.1h3v-.38c0-1.62-.94-2.56-2.84-2.56a5.36,5.36,0,0,0-3.36,1.14l-.8-1.44a7.06,7.06,0,0,1,4.38-1.36C197.11,518.83,198.75,520.23,198.75,523.13Zm-1.92,3.17v-1.49h-3c-1.9,0-2.44.75-2.44,1.64,0,1.06.88,1.73,2.34,1.73A3.09,3.09,0,0,0,196.83,526.3Z"/><path class="cls-1" d="M201.2,524.23a5.3,5.3,0,0,1,5.6-5.4,4.73,4.73,0,0,1,4.33,2.26l-1.46.94a3.31,3.31,0,0,0-2.89-1.52,3.73,3.73,0,0,0,0,7.46,3.29,3.29,0,0,0,2.89-1.52l1.46.93a4.75,4.75,0,0,1-4.33,2.28A5.32,5.32,0,0,1,201.2,524.23Z"/><path class="cls-1" d="M213.2,515.85a1.18,1.18,0,1,1,2.36,0,1.18,1.18,0,1,1-2.36,0Zm.22,3.08h1.92v10.61h-1.92Z"/><path class="cls-1" d="M228.4,524.23a5.19,5.19,0,0,1-5.32,5.41,5.12,5.12,0,0,1-5.24-5.47c0-.16,0-.4,0-.58h8.6a3.59,3.59,0,0,0-3.84-3.1,4,4,0,0,0-3.06,1.28l-1.06-1.24a5.32,5.32,0,0,1,4.18-1.72C226.12,518.81,228.4,521.07,228.4,524.23Zm-1.92.74h-6.8a3.42,3.42,0,0,0,6.8,0Z"/><path class="cls-1" d="M236.84,528.92a3.62,3.62,0,0,1-2.32.74,3,3,0,0,1-3.36-3.32v-5.83h-1.8v-1.58h1.8v-2.32h1.92v2.32h3v1.58h-3v5.75a1.57,1.57,0,0,0,1.66,1.78,2.48,2.48,0,0,0,1.5-.5Z"/><path class="cls-1" d="M239,514.69h1.92v14.85H239Z"/><path class="cls-1" d="M254,524.23a5.2,5.2,0,0,1-5.33,5.41,5.12,5.12,0,0,1-5.24-5.47c0-.16,0-.4,0-.58H252a3.6,3.6,0,0,0-3.84-3.1,4,4,0,0,0-3.07,1.28l-1.06-1.24a5.32,5.32,0,0,1,4.18-1.72C251.68,518.81,254,521.07,254,524.23ZM252,525h-6.81a3.43,3.43,0,0,0,6.81,0Z"/><path class="cls-1" d="M262.13,518.83v1.86a3.39,3.39,0,0,0-.44,0c-2.06,0-3.34,1.26-3.34,3.58v5.29h-1.92V518.93h1.84v1.78C259,519.47,260.27,518.83,262.13,518.83Z"/><path class="cls-1" d="M264.09,515.85a1.18,1.18,0,1,1,2.36,0,1.18,1.18,0,1,1-2.36,0Zm.22,3.08h1.92v10.61h-1.92Z"/><path class="cls-1" d="M279.77,523.43v6.11h-1.92v-5.89c0-2.08-1-3.1-2.86-3.1-2,0-3.36,1.22-3.36,3.52v5.47h-1.92V518.93h1.84v1.6a4.54,4.54,0,0,1,3.82-1.7C278,518.83,279.77,520.31,279.77,523.43Z"/><path class="cls-1" d="M293.21,514.69v14.85h-1.84v-1.69a4.46,4.46,0,0,1-3.78,1.81,5.42,5.42,0,0,1,0-10.83,4.51,4.51,0,0,1,3.7,1.7v-5.84Zm-1.9,9.54a3.57,3.57,0,1,0-3.56,3.74A3.49,3.49,0,0,0,291.31,524.23Z"/><path class="cls-1" d="M306.25,524.23a5.19,5.19,0,0,1-5.32,5.41,5.12,5.12,0,0,1-5.24-5.47c0-.16,0-.4,0-.58h8.6a3.59,3.59,0,0,0-3.84-3.1,4,4,0,0,0-3.06,1.28l-1.06-1.24a5.32,5.32,0,0,1,4.18-1.72C304,518.81,306.25,521.07,306.25,524.23Zm-1.92.74h-6.8a3.42,3.42,0,0,0,6.8,0Z"/><path class="cls-1" d="M323.09,518.93v10.61h-1.82v-1.61a4.29,4.29,0,0,1-3.6,1.73c-2.74,0-4.56-1.5-4.56-4.63v-6.1H315v5.88c0,2.08,1,3.12,2.86,3.12,2,0,3.28-1.24,3.28-3.52v-5.48Zm-7.86-2.9a1,1,0,1,1,2,0,1,1,0,0,1-2,0Zm3.72,0a1,1,0,1,1,2,0,1,1,0,1,1-2,0Z"/><path class="cls-1" d="M325.23,528.42l.8-1.53a6.73,6.73,0,0,0,3.72,1.11c1.78,0,2.52-.54,2.52-1.44,0-2.39-6.7-.33-6.7-4.55,0-1.9,1.7-3.18,4.42-3.18a7.71,7.71,0,0,1,3.86,1l-.82,1.52a5.54,5.54,0,0,0-3.06-.84c-1.68,0-2.5.62-2.5,1.46,0,2.5,6.72.46,6.72,4.58,0,1.92-1.76,3.15-4.58,3.15A7.65,7.65,0,0,1,325.23,528.42Z"/><path class="cls-1" d="M342.37,528.92a3.62,3.62,0,0,1-2.32.74,3,3,0,0,1-3.36-3.32v-5.83h-1.81v-1.58h1.81v-2.32h1.92v2.32h3v1.58h-3v5.75a1.57,1.57,0,0,0,1.66,1.78,2.48,2.48,0,0,0,1.5-.5Z"/><path class="cls-1" d="M354.38,518.93v10.61h-1.82v-1.61a4.29,4.29,0,0,1-3.6,1.73c-2.74,0-4.56-1.5-4.56-4.63v-6.1h1.92v5.88c0,2.08,1,3.12,2.86,3.12,2,0,3.28-1.24,3.28-3.52v-5.48Zm-7.86-2.9a1,1,0,1,1,2,0,1,1,0,1,1-2,0Zm3.72,0a1,1,0,1,1,2,0,1,1,0,0,1-2,0Z"/><path class="cls-1" d="M367.92,523.43v6.11H366v-5.89c0-2.08-1-3.1-2.86-3.1-2,0-3.36,1.22-3.36,3.52v5.47h-1.92V518.93h1.84v1.6a4.54,4.54,0,0,1,3.82-1.7C366.1,518.83,367.92,520.31,367.92,523.43Z"/><path class="cls-1" d="M371.3,514.69h1.92v14.85H371.3Z"/><path class="cls-1" d="M386.58,518.93v10.61h-1.82v-1.61a4.29,4.29,0,0,1-3.6,1.73c-2.74,0-4.56-1.5-4.56-4.63v-6.1h1.92v5.88c0,2.08,1,3.12,2.86,3.12,2,0,3.28-1.24,3.28-3.52v-5.48Zm-7.86-2.9a1,1,0,1,1,2,0,1,1,0,0,1-2,0Zm3.72,0a1,1,0,1,1,2,0,1,1,0,1,1-2,0Z"/><path class="cls-1" d="M389.38,523.21h5.38v1.66h-5.38Z"/><path class="cls-1" d="M56.14,542.93,51,554.6c-1,2.24-2.17,2.94-3.79,2.94a4,4,0,0,1-2.72-1l.82-1.44a2.71,2.71,0,0,0,1.9.78c.92,0,1.5-.42,2-1.64l.34-.74-4.68-10.59h2l3.7,8.49,3.67-8.49Z"/><path class="cls-1" d="M67.82,542.93v10.61H66v-1.61a4.33,4.33,0,0,1-3.61,1.73c-2.74,0-4.56-1.5-4.56-4.63v-6.1h1.92v5.88c0,2.08,1,3.12,2.86,3.12,2,0,3.29-1.24,3.29-3.52v-5.48ZM60,540a1,1,0,1,1,2,0,1,1,0,0,1-2,0Zm3.72,0a1,1,0,1,1,2,0,1,1,0,0,1-2,0Z"/><path class="cls-1" d="M81.54,547.43v6.11H79.62v-5.89c0-2.08-1-3.1-2.87-3.1-2,0-3.36,1.22-3.36,3.52v5.47H71.47V542.93h1.84v1.6a4.54,4.54,0,0,1,3.82-1.7C79.72,542.83,81.54,544.31,81.54,547.43Z"/><path class="cls-1" d="M95,542.93v10.61H93.16v-1.61a4.31,4.31,0,0,1-3.61,1.73c-2.74,0-4.56-1.5-4.56-4.63v-6.1h1.92v5.88c0,2.08,1,3.12,2.86,3.12,2,0,3.29-1.24,3.29-3.52v-5.48ZM87.11,540a1,1,0,1,1,2,0,1,1,0,0,1-2,0Zm3.73,0a1,1,0,1,1,2,0,1,1,0,0,1-2,0Z"/><path class="cls-1" d="M106.5,552v1.58H97.61V552.3l6.27-7.79H97.73v-1.58h8.61v1.26L100.07,552Z"/><path class="cls-1" d="M118.94,542.93v10.61h-1.82v-1.61a4.31,4.31,0,0,1-3.61,1.73c-2.74,0-4.56-1.5-4.56-4.63v-6.1h1.92v5.88c0,2.08,1,3.12,2.86,3.12,2,0,3.29-1.24,3.29-3.52v-5.48Zm-7.87-2.9a1,1,0,1,1,2,0,1,1,0,1,1-2,0Zm3.72,0a1,1,0,1,1,2,0,1,1,0,0,1-2,0Z"/><path class="cls-1" d="M127,548.23a5.52,5.52,0,1,1,5.52,5.43A5.27,5.27,0,0,1,127,548.23Zm9.09,0a3.58,3.58,0,1,0-3.57,3.74A3.49,3.49,0,0,0,136.08,548.23Z"/><path class="cls-1" d="M146.38,542.83v1.86a3.54,3.54,0,0,0-.45,0c-2.05,0-3.34,1.26-3.34,3.58v5.29h-1.92V542.93h1.84v1.78C143.19,543.47,144.51,542.83,146.38,542.83Z"/><path class="cls-1" d="M155.13,552.92a3.62,3.62,0,0,1-2.32.74,3,3,0,0,1-3.36-3.32v-5.83h-1.8v-1.58h1.8v-2.32h1.92v2.32h3v1.58h-3v5.75A1.57,1.57,0,0,0,153,552a2.53,2.53,0,0,0,1.5-.5Z"/><path class="cls-1" d="M165.86,547.13v6.41H164v-1.4a3.93,3.93,0,0,1-3.48,1.52c-2.4,0-3.92-1.28-3.92-3.13,0-1.7,1.1-3.1,4.26-3.1h3v-.38c0-1.62-.94-2.56-2.84-2.56a5.36,5.36,0,0,0-3.36,1.14l-.8-1.44a7.06,7.06,0,0,1,4.38-1.36C164.21,542.83,165.86,544.23,165.86,547.13Zm-1.93,3.17v-1.49h-3c-1.9,0-2.44.75-2.44,1.64,0,1.06.88,1.73,2.34,1.73A3.09,3.09,0,0,0,163.93,550.3Z"/><path class="cls-1" d="M178.6,542.93l-5.14,11.67c-1,2.24-2.17,2.94-3.79,2.94a4,4,0,0,1-2.72-1l.82-1.44a2.71,2.71,0,0,0,1.9.78c.92,0,1.5-.42,2-1.64l.34-.74-4.68-10.59h2l3.7,8.49,3.67-8.49Z"/><path class="cls-1" d="M188.46,547.13v6.41h-1.83v-1.4a3.93,3.93,0,0,1-3.48,1.52c-2.4,0-3.92-1.28-3.92-3.13,0-1.7,1.1-3.1,4.26-3.1h3v-.38c0-1.62-.94-2.56-2.84-2.56a5.36,5.36,0,0,0-3.36,1.14l-.8-1.44a7.06,7.06,0,0,1,4.38-1.36C186.81,542.83,188.46,544.23,188.46,547.13Zm-1.93,3.17v-1.49h-3c-1.9,0-2.44.75-2.44,1.64,0,1.06.88,1.73,2.34,1.73A3.09,3.09,0,0,0,186.53,550.3Z"/><path class="cls-1" d="M204.87,550.45l1.47.93a4.73,4.73,0,0,1-4.29,2.28l-.24.88c1.16.12,1.74.78,1.74,1.66,0,1.12-1,1.82-2.48,1.82a3.36,3.36,0,0,1-1.78-.44l.42-1a2.64,2.64,0,0,0,1.36.34c.76,0,1.12-.3,1.12-.8s-.34-.78-1.14-.78h-.54l.46-1.78a5.41,5.41,0,0,1,1-10.75,4.75,4.75,0,0,1,4.33,2.26l-1.47.94a3.3,3.3,0,0,0-2.88-1.52,3.73,3.73,0,0,0,0,7.46A3.28,3.28,0,0,0,204.87,550.45Z"/><path class="cls-1" d="M208.81,542.93h1.92v10.61h-1.92Z"/><path class="cls-1" d="M221.15,553.54l-3.06-4.07-3.1,4.07h-2.14l4.18-5.43-4-5.18h2.14l2.92,3.82,2.9-3.82h2.1l-4,5.18,4.23,5.43Z"/><path class="cls-1" d="M233.64,547.13v6.41h-1.83v-1.4a3.93,3.93,0,0,1-3.48,1.52c-2.4,0-3.92-1.28-3.92-3.13,0-1.7,1.1-3.1,4.26-3.1h3v-.38c0-1.62-.94-2.56-2.84-2.56a5.36,5.36,0,0,0-3.36,1.14l-.8-1.44a7.06,7.06,0,0,1,4.38-1.36C232,542.83,233.64,544.23,233.64,547.13Zm-1.93,3.17v-1.49h-3c-1.9,0-2.44.75-2.44,1.64,0,1.06.88,1.73,2.34,1.73A3.09,3.09,0,0,0,231.71,550.3Z"/><path class="cls-1" d="M242.89,542.83v1.86a3.39,3.39,0,0,0-.44,0c-2.06,0-3.34,1.26-3.34,3.58v5.29h-1.92V542.93H239v1.78C239.71,543.47,241,542.83,242.89,542.83Z"/><path class="cls-1" d="M255.16,538.69v14.85h-1.84v-1.69a4.48,4.48,0,0,1-3.79,1.81,5.42,5.42,0,0,1,0-10.83,4.54,4.54,0,0,1,3.71,1.7v-5.84Zm-1.91,9.54a3.57,3.57,0,1,0-3.56,3.74A3.49,3.49,0,0,0,253.25,548.23Z"/><path class="cls-1" d="M267.2,547.13v6.41h-1.83v-1.4a3.93,3.93,0,0,1-3.48,1.52c-2.4,0-3.92-1.28-3.92-3.13,0-1.7,1.1-3.1,4.26-3.1h3v-.38c0-1.62-.94-2.56-2.84-2.56a5.36,5.36,0,0,0-3.36,1.14l-.8-1.44a7.06,7.06,0,0,1,4.38-1.36C265.55,542.83,267.2,544.23,267.2,547.13Zm-1.93,3.17v-1.49h-3c-1.9,0-2.44.75-2.44,1.64,0,1.06.88,1.73,2.34,1.73A3.09,3.09,0,0,0,265.27,550.3Z"/><path class="cls-1" d="M287.12,548.23a5.18,5.18,0,0,1-5.37,5.43,4.46,4.46,0,0,1-3.78-1.81v1.69h-1.84V538.69h1.92v5.84a4.51,4.51,0,0,1,3.7-1.7A5.15,5.15,0,0,1,287.12,548.23Zm-1.95,0a3.57,3.57,0,1,0-3.58,3.74A3.49,3.49,0,0,0,285.17,548.23Z"/><path class="cls-1" d="M289.55,539.85a1.18,1.18,0,1,1,2.36,0,1.18,1.18,0,1,1-2.36,0Zm.22,3.08h1.92v10.61h-1.92Z"/><path class="cls-1" d="M295.35,538.69h1.92v14.85h-1.92Z"/><path class="cls-1" d="M310.51,548.23a5.19,5.19,0,0,1-5.32,5.41,5.12,5.12,0,0,1-5.24-5.47c0-.16,0-.4,0-.58h8.6a3.59,3.59,0,0,0-3.84-3.1,4,4,0,0,0-3.06,1.28l-1.06-1.24a5.32,5.32,0,0,1,4.18-1.72C308.23,542.81,310.51,545.07,310.51,548.23Zm-1.92.74h-6.8a3.42,3.42,0,0,0,6.8,0Z"/><path class="cls-1" d="M318.87,542.83v1.86a3.39,3.39,0,0,0-.44,0c-2.06,0-3.34,1.26-3.34,3.58v5.29h-1.92V542.93H315v1.78C315.69,543.47,317,542.83,318.87,542.83Z"/><path class="cls-1" d="M320,552.42l.8-1.53a6.73,6.73,0,0,0,3.72,1.11c1.78,0,2.52-.54,2.52-1.44,0-2.39-6.7-.33-6.7-4.55,0-1.9,1.7-3.18,4.42-3.18a7.71,7.71,0,0,1,3.86,1l-.81,1.52a5.59,5.59,0,0,0-3.07-.84c-1.68,0-2.5.62-2.5,1.46,0,2.5,6.73.46,6.73,4.58,0,1.92-1.77,3.15-4.59,3.15A7.65,7.65,0,0,1,320,552.42Z"/><path class="cls-1" d="M331.11,539.85a1.18,1.18,0,1,1,2.36,0,1.18,1.18,0,1,1-2.36,0Zm.22,3.08h1.92v10.61h-1.92Z"/><path class="cls-1" d="M347,547.43v6.11h-1.93v-5.89c0-2.08-1-3.1-2.86-3.1-2,0-3.36,1.22-3.36,3.52v5.47h-1.92V542.93h1.84v1.6a4.54,4.54,0,0,1,3.82-1.7C345.16,542.83,347,544.31,347,547.43Z"/><path class="cls-1" d="M350.31,539.85a1.18,1.18,0,1,1,2.36,0,1.18,1.18,0,1,1-2.36,0Zm.22,3.08h1.92v10.61h-1.92Z"/><path class="cls-1" d="M364,552v1.58h-8.88V552.3l6.26-7.79h-6.14v-1.58h8.61v1.26L357.55,552Z"/><path class="cls-1" d="M365.69,552.27a1.33,1.33,0,0,1,1.36-1.35,1.31,1.31,0,0,1,1.32,1.35,1.34,1.34,0,0,1-1.32,1.39A1.36,1.36,0,0,1,365.69,552.27Z"/><path class="cls-2" d="M778.07,549.25c.34.23,1.16-.53,1.1.55,0,.63,0,1.27,0,1.91v363.6c-.6.18-1.21.36-1.82.52L703.4,934.74l-171.81,44q-85.91,22-171.8,44-89.21,22.82-178.39,45.66c-8.92,2.29-17.93,4.29-26.73,7.06q-76.21,0-152.43,0c-1.87,0-2.24-.37-2.24-2.24Q.09,910.94.05,748.67l85.26-21.84,174-44.51,174.21-44.58,167.37-42.86q77.37-19.82,154.74-39.64C763.1,553.31,770.71,551.75,778.07,549.25Z"/><path class="cls-2" d="M1080.48,836.11V998.66c-.61.17-1.21.36-1.82.52l-88.2,22.59q-89.38,22.88-178.77,45.74c-8.85,2.27-17.67,4.67-26.51,7-4.6,0-9.2-.08-13.79,0-1.56,0-2-.23-2-1.91.08-16.68.05-33.36.05-50V915.22a5.6,5.6,0,0,0,2.62-.37q57.39-14.73,114.79-29.4,85.3-21.83,170.62-43.65C1065.14,839.85,1072.72,837.6,1080.48,836.11Z"/><path class="cls-19" d="M850.47,1031.16a20.26,20.26,0,1,1,20.26-20.26A20.28,20.28,0,0,1,850.47,1031.16Zm0-39a18.72,18.72,0,1,0,18.72,18.72A18.74,18.74,0,0,0,850.47,992.18Z"/><path class="cls-20" d="M861.16,1010.36a10.5,10.5,0,0,0-21-.19c0,.15,0,.3,0,.45a10.36,10.36,0,0,0,1.5,5.38l-1.89,5.59,5.81-1.85a10.51,10.51,0,0,0,15.57-9.12Zm-10.49,9a8.79,8.79,0,0,1-4.86-1.45l-3.39,1.08,1.1-3.25a8.66,8.66,0,0,1-1.68-5.14,8.06,8.06,0,0,1,0-.85,8.83,8.83,0,0,1,17.58.17c0,.23,0,.45,0,.68A8.8,8.8,0,0,1,850.67,1019.38Z"/><path class="cls-20" d="M855.48,1012.73c-.26-.13-1.53-.75-1.76-.83s-.41-.13-.58.12-.67.83-.82,1-.3.19-.56.06a6.94,6.94,0,0,1-2.07-1.26,7.79,7.79,0,0,1-1.43-1.77c-.14-.25,0-.39.12-.52s.25-.3.38-.45l.1-.12a2.72,2.72,0,0,0,.16-.3.47.47,0,0,0,0-.45c-.06-.13-.58-1.39-.8-1.9s-.42-.42-.58-.42l-.49,0a1,1,0,0,0-.69.31,2.91,2.91,0,0,0-.89,2.14,3.22,3.22,0,0,0,.13.87,5.77,5.77,0,0,0,.92,1.77,10.53,10.53,0,0,0,4.39,3.85c2.62,1,2.62.68,3.09.64a2.61,2.61,0,0,0,1.74-1.22A2.19,2.19,0,0,0,856,1013,1.4,1.4,0,0,0,855.48,1012.73Z"/><rect class="cls-19" x="898.46" y="1006.28" width="4.03" height="13.03"/><path class="cls-19" d="M900.45,1004.57a2.41,2.41,0,1,0-2.38-2.4A2.4,2.4,0,0,0,900.45,1004.57Z"/><path class="cls-19" d="M908.94,1012.47c0-1.83.84-2.92,2.46-2.92s2.19,1,2.19,2.92v6.84h4v-8.25c0-3.49-2-5.18-4.75-5.18a4.53,4.53,0,0,0-3.92,2.15v-1.75h-3.87v13h3.87Z"/><path class="cls-19" d="M907.84,1031.16a20.26,20.26,0,1,1,20.26-20.26A20.28,20.28,0,0,1,907.84,1031.16Zm0-39a18.72,18.72,0,1,0,18.72,18.72A18.74,18.74,0,0,0,907.84,992.18Z"/><path class="cls-19" d="M962.23,1022.48H967V1010.6h3.31l.35-4H967v-2.26c0-.94.19-1.31,1.09-1.31h2.57v-4.13h-3.28c-3.54,0-5.13,1.56-5.13,4.53v3.17h-2.47v4h2.47Z"/><path class="cls-19" d="M965.2,1031.16a20.26,20.26,0,1,1,20.26-20.26A20.28,20.28,0,0,1,965.2,1031.16Zm0-39a18.72,18.72,0,1,0,18.73,18.72A18.74,18.74,0,0,0,965.2,992.18Z"/><path class="cls-19" d="M1022.27,1001.37c2.85,0,3.19,0,4.32.06a5.81,5.81,0,0,1,2,.37,3.54,3.54,0,0,1,2,2,5.81,5.81,0,0,1,.37,2c0,1.13.06,1.47.06,4.32s0,3.19-.06,4.32a5.81,5.81,0,0,1-.37,2,3.54,3.54,0,0,1-2,2,5.81,5.81,0,0,1-2,.37c-1.13,0-1.46.06-4.32.06s-3.19,0-4.32-.06a5.87,5.87,0,0,1-2-.37,3.16,3.16,0,0,1-1.23-.8,3.28,3.28,0,0,1-.8-1.23,5.81,5.81,0,0,1-.37-2c-.05-1.13-.06-1.47-.06-4.32s0-3.19.06-4.32a5.81,5.81,0,0,1,.37-2,3.28,3.28,0,0,1,.8-1.23,3.16,3.16,0,0,1,1.23-.8,5.87,5.87,0,0,1,2-.37c1.13,0,1.47-.06,4.32-.06m0-1.93c-2.9,0-3.27,0-4.41.07a7.94,7.94,0,0,0-2.59.49,5.25,5.25,0,0,0-1.89,1.24,5.09,5.09,0,0,0-1.23,1.89,7.66,7.66,0,0,0-.5,2.59c0,1.14-.07,1.51-.07,4.41s0,3.27.07,4.41a7.66,7.66,0,0,0,.5,2.59,5.09,5.09,0,0,0,1.23,1.89,5.25,5.25,0,0,0,1.89,1.24,7.94,7.94,0,0,0,2.59.49c1.14,0,1.51.07,4.41.07s3.27,0,4.41-.07a7.88,7.88,0,0,0,2.59-.49,5.56,5.56,0,0,0,3.13-3.13,7.94,7.94,0,0,0,.49-2.59c.06-1.14.07-1.51.07-4.41s0-3.27-.07-4.41a7.94,7.94,0,0,0-.49-2.59,5.56,5.56,0,0,0-3.13-3.13,7.88,7.88,0,0,0-2.59-.49c-1.14,0-1.51-.07-4.41-.07"/><path class="cls-19" d="M1022.27,1004.64a5.49,5.49,0,1,0,5.49,5.49,5.49,5.49,0,0,0-5.49-5.49m0,9.05a3.56,3.56,0,1,1,3.56-3.56,3.56,3.56,0,0,1-3.56,3.56"/><path class="cls-19" d="M1029.26,1004.43a1.29,1.29,0,1,1-1.28-1.29,1.29,1.29,0,0,1,1.28,1.29"/><path class="cls-19" d="M1022.27,1031.16a20.26,20.26,0,1,1,20.26-20.26A20.28,20.28,0,0,1,1022.27,1031.16Zm0-39A18.72,18.72,0,1,0,1041,1010.9,18.74,18.74,0,0,0,1022.27,992.18Z"/><text class="cls-21" transform="translate(97.98 992.74)">CV <tspan class="cls-22" x="0" y="36.66">H</tspan><tspan x="22.18" y="36.66">AZI</tspan><tspan class="cls-23" x="71.93" y="36.66">R</tspan><tspan class="cls-24" x="91.89" y="36.66">L</tspan><tspan x="109.57" y="36.66">A</tspan><tspan class="cls-22" x="130.9" y="36.66">M</tspan><tspan class="cls-25" x="157.58" y="36.66">A</tspan></text><path class="cls-19" d="M71.65,968.49l-4.42,5.72H45.3a3.1,3.1,0,0,0-3.11,3.1v43.87a3.1,3.1,0,0,0,3.11,3.1H68.88L71,1030H36.47V968.49Z"/><path class="cls-19" d="M71.5,1030,53.57,982.5,60,985.33l10.14,26.89a1.43,1.43,0,0,0,2.68,0l10.07-26.89,6.42-2.83Z"/><polygon class="cls-19" points="70.07 985.33 72.72 985.33 74.14 1001.76 71.77 1005.07 69.06 1001.81 70.07 985.33"/><polygon class="cls-19" points="71.41 981.91 69.66 983.74 70.11 985.06 72.72 985.06 73.16 983.71 71.41 981.91"/><polygon class="cls-19" points="71.65 981.73 77.42 980.42 74.89 985.33 71.65 981.73"/><polygon class="cls-19" points="71.15 981.73 65.38 980.42 67.92 985.33 71.15 981.73"/><rect class="cls-26" x="395.88" y="57.87" width="643.73" height="911.94"/><circle class="cls-2" cx="739.06" cy="171.5" r="20.03"/><circle class="cls-2" cx="853" cy="171.5" r="20.03"/><circle class="cls-2" cx="981.37" cy="171.5" r="20.03"/><rect class="cls-27" x="395.88" y="261.91" width="644.27" height="499.05"/><polygon class="cls-2" points="671.32 954.5 425.44 954.5 425.44 698.27 548.38 752.43 671.32 698.27 671.32 954.5"/><rect class="cls-2" x="395.88" y="954.49" width="643.73" height="15.32"/><polygon class="cls-2" points="671.17 506.63 548.38 560.79 425.59 506.63 425.59 363.71 548.38 417.87 671.17 363.71 671.17 506.63"/><polygon class="cls-28" points="671.17 337.07 548.38 391.23 425.59 337.07 425.59 84.74 671.17 84.74 671.17 337.07"/><rect class="cls-2" x="690.22" y="257.78" width="329" height="8.27"/><rect class="cls-2" x="690.22" y="539.59" width="329" height="8.27"/><text class="cls-29" transform="translate(507.25 583.02)">H<tspan class="cls-30" x="10.6" y="0">A</tspan><tspan class="cls-31" x="20.19" y="0">QQIM</tspan><tspan class="cls-32" x="62" y="0">D</tspan><tspan class="cls-33" x="72.15" y="0">A</tspan></text><text class="cls-34" transform="translate(449.16 622.05) scale(1.1 1)">Sizin <tspan class="cls-35" x="25.38" y="0">k</tspan><tspan x="31.16" y="0">imi uğu</tspan><tspan class="cls-35" x="69.11" y="0">r</tspan><tspan x="72.94" y="0">lu bir şi</tspan><tspan class="cls-35" x="107.76" y="0">r</tspan><tspan class="cls-36" x="111.59" y="0">k</tspan><tspan x="117.25" y="0">ə</tspan><tspan class="cls-37" x="123.14" y="0">t</tspan><tspan x="126.91" y="0">də işlə</tspan><tspan class="cls-38" x="157.86" y="0">m</tspan><tspan x="168.22" y="0">ək </tspan><tspan x="0.86" y="16.25">is</tspan><tspan class="cls-39" x="8.25" y="16.25">t</tspan><tspan class="cls-40" x="12.02" y="16.25">ə</tspan><tspan x="17.76" y="16.25">yimi ça</tspan><tspan class="cls-39" x="52.43" y="16.25">t</tspan><tspan x="56.2" y="16.25">dı</tspan><tspan class="cls-35" x="65.43" y="16.25">r</tspan><tspan x="69.26" y="16.25">m</tspan><tspan class="cls-38" x="79.61" y="16.25">a</tspan><tspan x="85.38" y="16.25">q is</tspan><tspan class="cls-39" x="101.93" y="16.25">t</tspan><tspan class="cls-40" x="105.71" y="16.25">ə</tspan><tspan x="111.45" y="16.25">yi</tspan><tspan class="cls-41" x="119.35" y="16.25">r</tspan><tspan x="123.14" y="16.25">əm, bu</tspan><tspan class="cls-42" x="157.16" y="16.25">r</tspan><tspan class="cls-38" x="160.98" y="16.25">a</tspan><tspan x="166.75" y="16.25">da </tspan><tspan x="-1.75" y="32.5">şi</tspan><tspan class="cls-35" x="5.64" y="32.5">r</tspan><tspan class="cls-36" x="9.47" y="32.5">k</tspan><tspan x="15.13" y="32.5">ətini</tspan><tspan class="cls-43" x="36.82" y="32.5">z</tspan><tspan x="41.71" y="32.5">ə d</tspan><tspan class="cls-44" x="56.76" y="32.5">əy</tspan><tspan x="67.64" y="32.5">ər əl</tspan><tspan class="cls-45" x="88.5" y="32.5">a</tspan><tspan class="cls-44" x="94.16" y="32.5">v</tspan><tspan x="99.3" y="32.5">ə edə bilə</tspan><tspan class="cls-43" x="146.42" y="32.5">c</tspan><tspan class="cls-44" x="151.82" y="32.5">ə</tspan><tspan x="157.56" y="32.5">yi</tspan><tspan class="cls-38" x="165.47" y="32.5">m</tspan><tspan x="175.83" y="32.5">ə </tspan><tspan x="-2.8" y="48.74">şüb</tspan><tspan class="cls-38" x="15.14" y="48.74">h</tspan><tspan x="21.76" y="48.74">əm </tspan><tspan class="cls-44" x="40.54" y="48.74">y</tspan><tspan class="cls-37" x="45.68" y="48.74">ox</tspan><tspan x="56.63" y="48.74">du</tspan><tspan class="cls-45" x="69.8" y="48.74">r</tspan><tspan x="73.61" y="48.74">. Düşünü</tspan><tspan class="cls-41" x="117.34" y="48.74">r</tspan><tspan x="121.12" y="48.74">əm </tspan><tspan class="cls-35" x="139.9" y="48.74">k</tspan><tspan x="145.69" y="48.74">i, </tspan><tspan class="cls-35" x="152.93" y="48.74">C</tspan><tspan class="cls-46" x="159.86" y="48.74">V</tspan><tspan class="cls-47" x="166.45" y="48.74">-</tspan><tspan x="170.27" y="48.74">də </tspan><tspan x="-7.76" y="64.99">q</tspan><tspan class="cls-45" x="-1.16" y="64.99">e</tspan><tspan class="cls-44" x="4.64" y="64.99">y</tspan><tspan x="9.77" y="64.99">d e</tspan><tspan class="cls-37" x="24.83" y="64.99">t</tspan><tspan x="28.6" y="64.99">diyim </tspan><tspan class="cls-48" x="58.63" y="64.99">b</tspan><tspan class="cls-38" x="65.21" y="64.99">a</tspan><tspan x="70.99" y="64.99">ca</tspan><tspan class="cls-35" x="82.23" y="64.99">r</tspan><tspan x="86.06" y="64.99">ıqla</tspan><tspan class="cls-35" x="103.66" y="64.99">r</tspan><tspan x="107.49" y="64.99">ım iş </tspan><tspan class="cls-37" x="132.96" y="64.99">t</tspan><tspan x="136.73" y="64.99">ə</tspan><tspan class="cls-45" x="142.62" y="64.99">s</tspan><tspan x="147.29" y="64.99">vi</tspan><tspan class="cls-35" x="155.2" y="64.99">r</tspan><tspan x="159.03" y="64.99">i</tspan><tspan class="cls-38" x="161.65" y="64.99">n</tspan><tspan x="168.27" y="64.99">ə </tspan><tspan class="cls-44" x="176.71" y="64.99">v</tspan><tspan x="181.85" y="64.99">ə </tspan><tspan x="2.5" y="81.24">şi</tspan><tspan class="cls-35" x="9.89" y="81.24">r</tspan><tspan class="cls-36" x="13.72" y="81.24">k</tspan><tspan x="19.37" y="81.24">ətinizin pe</tspan><tspan class="cls-49" x="70.32" y="81.24">r</tspan><tspan x="74.19" y="81.24">spektivi</tspan><tspan class="cls-38" x="111.8" y="81.24">n</tspan><tspan x="118.42" y="81.24">ə u</tspan><tspan class="cls-40" x="133.42" y="81.24">y</tspan><tspan x="138.56" y="81.24">ğu</tspan><tspan class="cls-38" x="151.81" y="81.24">n</tspan><tspan x="158.43" y="81.24">du</tspan><tspan class="cls-45" x="171.6" y="81.24">r</tspan><tspan x="175.41" y="81.24">.</tspan></text><path class="cls-50" d="M504.15,431.23h14.09v3.91h-9.79v5.29h7.85v3.84h-7.85v5.11h10.44v3.89H504.15Z"/><path class="cls-50" d="M522.77,431.23h4.36v18.15h9.81v3.89H522.77Z"/><path class="cls-50" d="M562.68,431.23v22h-4.33V439.58h-.05l-5.38,9.51h-2.83l-5.38-9.51h0v13.69h-4.34v-22h4.4l6.77,12.54h.06l6.73-12.54Z"/><path class="cls-50" d="M567.32,426.46a2.52,2.52,0,1,1,2.52,2.48A2.5,2.5,0,0,1,567.32,426.46Zm.35,4.77h4.39v22h-4.39Z"/><path class="cls-50" d="M588.82,453.27l-4.94-7.54h-2.53v7.54h-4.3v-22h8.33c5.32,0,7.68,3.12,7.68,7.35,0,3.51-1.71,5.69-4.51,6.63v.06l5.44,8Zm-7.47-11.39h3.06c2.7,0,4.14-1.35,4.14-3.39s-1.41-3.38-4-3.38h-3.24Z"/><path class="cls-50" d="M490.57,473.07h-6.08v-3.91H501v3.91h-6.1V491.2h-4.35Z"/><path class="cls-50" d="M515.18,486.8h-8.46l-1.5,4.4h-4.56l8.17-22H513l8.2,22h-4.56Zm-1.28-3.73L511,474.42h0L508,483.07Z"/><path class="cls-50" d="M533.35,491.42c-6.35,0-11.25-4.14-11.25-11.2,0-6.44,4.18-11.32,11.06-11.32a11.78,11.78,0,0,1,8.76,3.77l-3.09,2.63a8,8,0,0,0-5.67-2.29c-3.62,0-6.51,2.71-6.51,7.21,0,4,2.56,7.21,6.7,7.21a8.19,8.19,0,0,0,4.47-1.26v-3.24h-5v-3.74H542v9.5a14.37,14.37,0,0,1-8.68,2.73ZM533,467.07a4.84,4.84,0,0,1-5.06-4.67H531a2,2,0,0,0,2,2,1.92,1.92,0,0,0,2-2H538a4.85,4.85,0,0,1-5.06,4.67Z"/><path class="cls-50" d="M546.5,469.16h4.39v22H546.5Z"/><path class="cls-50" d="M572.77,469.16l-7.33,12.36v9.68H561v-9.68l-7.29-12.36h5l4.49,8h.06l4.44-8Z"/><path class="cls-50" d="M575.49,469.16h14.09v3.91h-9.79v5.29h7.85v3.84h-7.85v5.11h10.44v3.89H575.49Z"/><path class="cls-50" d="M612.57,469.16l-8.16,22h-3.84l-8.19-22h4.73L602.44,485h0l5.39-15.83Z"/><text class="cls-51" transform="translate(486.96 513.84)">Doğum <tspan class="cls-52" x="40.38" y="0">t</tspan><tspan class="cls-53" x="44.26" y="0">arixi: 1</tspan><tspan class="cls-54" x="77.39" y="0">5</tspan><tspan class="cls-55" x="83.4" y="0">.</tspan><tspan x="85.94" y="0">1</tspan><tspan class="cls-56" x="90.47" y="0">0</tspan><tspan class="cls-55" x="97.29" y="0">.</tspan><tspan x="99.82" y="0">19</tspan><tspan class="cls-57" x="110.76" y="0">9</tspan><tspan x="116.98" y="0">2</tspan></text><line class="cls-58" x1="476.94" y1="497.35" x2="619.82" y2="497.35"/><path class="cls-19" d="M729.77,163.34l0,0c.33-.28.63-.59.92-.89l.1-.1c.17-.18.33-.34.51-.51a1.72,1.72,0,0,1,2.6,0l2.68,2.68a1.74,1.74,0,0,1,.59,1.26,1.83,1.83,0,0,1-.59,1.28L735,168.72a.25.25,0,0,0-.11.19.27.27,0,0,0,0,.11l0,0c.1.16.19.34.28.52a4.63,4.63,0,0,0,.29.53,16.79,16.79,0,0,0,3.76,4.13v0a9.71,9.71,0,0,0,2.33,1.43h0c.16.05.2.05.32-.06h0c.37-.42.75-.8,1.2-1.24l.28-.29.13-.13a1.71,1.71,0,0,1,2.61,0l1.32,1.32.24.24.23.22.89.9h0a1.81,1.81,0,0,1,.57,1.26,1.86,1.86,0,0,1-.56,1.27l0,0-1.65,1.66a3.06,3.06,0,0,1-1.93.9,7.55,7.55,0,0,1-3.37-.6,20.13,20.13,0,0,1-6.05-3.63,22.33,22.33,0,0,1-5.82-7.44,11.27,11.27,0,0,1-1.21-4.08,2.53,2.53,0,0,1,0-.27A3.14,3.14,0,0,1,729.77,163.34Z"/><text class="cls-59" transform="translate(704.19 213.11)">+9<tspan class="cls-60" x="10.43" y="0">9</tspan><tspan class="cls-61" x="15.5" y="0">4</tspan><tspan class="cls-62" x="20.58" y="0">xx xxx xx xx</tspan></text><path class="cls-19" d="M863.88,164.33a.31.31,0,0,0,0-.09.17.17,0,0,0,0-.07l0-.08a.09.09,0,0,0,0-.07l0-.07,0-.07,0,0,0,0-.06-.06-.06,0-.07,0-.07,0-.07,0-.08,0H843l-.08,0-.07,0-.07,0-.07,0-.06,0-.06.06,0,0,0,0,0,.07,0,.07a.15.15,0,0,0,0,.07l0,.08s0,.05,0,.07a.31.31,0,0,0,0,.09v14.3a.82.82,0,0,0,.82.82h19.93a.82.82,0,0,0,.82-.82v-14.3Zm-3,.86-7.74,6.6-7.75-6.6Zm-8.27,8.3a.8.8,0,0,0,.53.19.84.84,0,0,0,.53-.19"/><text class="cls-59" transform="translate(801.75 213.11)">cvhazirlama@gmai<tspan class="cls-63" x="80.33" y="0">l</tspan><tspan class="cls-64" x="82.59" y="0">.</tspan><tspan class="cls-65" x="84.7" y="0">com</tspan></text><path class="cls-19" d="M981.37,161.18a10.32,10.32,0,1,0,10.3,10.32A10.33,10.33,0,0,0,981.37,161.18Zm8.7,9.54h-2.48a13.64,13.64,0,0,0-2-6.88A8.73,8.73,0,0,1,990.07,170.72Zm-9.49-7.84v7.84h-3.87C976.91,166.81,978.54,163.55,980.58,162.88Zm0,9.4v7.85c-2-.68-3.67-3.94-3.87-7.85Zm1.57,7.85v-7.85H986C985.83,176.19,984.19,179.45,982.15,180.13Zm0-9.41v-7.84c2,.67,3.68,3.93,3.87,7.84Zm-5-6.88a13.64,13.64,0,0,0-2,6.88h-2.49A8.74,8.74,0,0,1,977.15,163.84Zm-4.49,8.44h2.49a13.71,13.71,0,0,0,2,6.89A8.77,8.77,0,0,1,972.66,172.28Zm12.93,6.89a13.71,13.71,0,0,0,2-6.89h2.48A8.76,8.76,0,0,1,985.59,179.17Z"/><text class="cls-59" transform="translate(929.42 213.11)">Bakı <tspan class="cls-66" x="20.78" y="0">ş</tspan><tspan class="cls-62" x="24.75" y="0">əhəri, A</tspan><tspan class="cls-67" x="56.35" y="0">z</tspan><tspan x="60.45" y="0">ərba</tspan><tspan class="cls-68" x="79.68" y="0">y</tspan><tspan x="84.22" y="0">can</tspan></text><text class="cls-69" transform="translate(785.24 114.59)">Ə<tspan class="cls-70" x="10.38" y="0">L</tspan><tspan class="cls-71" x="18.65" y="0">A</tspan><tspan x="28.12" y="0">QƏ </tspan><tspan class="cls-72" x="54" y="0">V</tspan><tspan x="62.41" y="0">ASİ</tspan><tspan class="cls-71" x="85.24" y="0">T</tspan><tspan x="93.18" y="0">Ə</tspan><tspan class="cls-73" x="103.56" y="0">L</tspan><tspan x="111.28" y="0">Ə</tspan><tspan class="cls-74" x="121.66" y="0">R</tspan><tspan x="130.98" y="0">İ</tspan></text><rect class="cls-27" x="803.91" y="120.38" width="98.19" height="4"/><text class="cls-75" transform="translate(804.72 292.33)">İŞ <tspan class="cls-71" x="16.54" y="0">T</tspan><tspan x="24.47" y="0">ƏC</tspan><tspan class="cls-76" x="45.13" y="0">R</tspan><tspan class="cls-33" x="54.24" y="0">Ü</tspan><tspan class="cls-77" x="64.34" y="0">B</tspan><tspan x="73.39" y="0">ƏSİ</tspan></text><rect class="cls-19" x="821.62" y="298.85" width="62.76" height="2.56"/><text class="cls-78" transform="translate(828.27 585.12)">T<tspan class="cls-31" x="7.93" y="0">ƏHSİL</tspan></text><rect class="cls-19" x="821.62" y="591.64" width="62.76" height="2.56"/><text class="cls-79" transform="translate(733.51 797.3)">T<tspan class="cls-80" x="11.14" y="0">ƏHSİL</tspan></text><rect class="cls-27" x="724.18" y="806.45" width="88.07" height="3.59"/><circle class="cls-2" cx="700.04" cy="327.91" r="4.91"/><circle class="cls-2" cx="700.04" cy="440.72" r="4.91"/><text class="cls-81" transform="translate(716.89 341.81)">A<tspan class="cls-82" x="9.06" y="0">r</tspan><tspan x="14.07" y="0">az Ma</tspan><tspan class="cls-83" x="49.72" y="0">r</tspan><tspan class="cls-84" x="54.77" y="0">k</tspan><tspan x="62.3" y="0">et</tspan><tspan class="cls-85" x="0" y="15.05">K</tspan><tspan x="8.61" y="15.05">assir</tspan></text><text class="cls-86" transform="translate(718.03 371.12)">- Malın d<tspan class="cls-87" x="37.35" y="0">əy</tspan><tspan class="cls-88" x="46.95" y="0">ə</tspan><tspan class="cls-89" x="52.14" y="0">r</tspan><tspan x="55.52" y="0">inin </tspan><tspan class="cls-90" x="74.04" y="0">h</tspan><tspan x="79.88" y="0">esablanması </tspan><tspan class="cls-87" x="136.36" y="0">v</tspan><tspan x="140.89" y="0">ə </tspan><tspan class="cls-91" x="148.34" y="0">k</tspan><tspan x="153.42" y="0">assa ə</tspan><tspan class="cls-90" x="179.42" y="0">m</tspan><tspan x="188.56" y="0">əli</tspan><tspan class="cls-92" x="198.38" y="0">y</tspan><tspan class="cls-93" x="203" y="0">y</tspan><tspan x="207.52" y="0">atının </tspan><tspan class="cls-94" x="234.61" y="0">y</tspan><tspan x="239.14" y="0">e</tspan><tspan class="cls-89" x="244.33" y="0">r</tspan><tspan x="247.71" y="0">i</tspan><tspan class="cls-90" x="250.02" y="0">n</tspan><tspan x="255.86" y="0">ə </tspan><tspan class="cls-87" x="0" y="10.75">y</tspan><tspan x="4.53" y="10.75">eti</tspan><tspan class="cls-95" x="15.53" y="10.75">r</tspan><tspan x="18.91" y="10.75">il</tspan><tspan class="cls-96" x="23.53" y="10.75">m</tspan><tspan x="32.67" y="10.75">əsi;</tspan><tspan x="0" y="21.5">- </tspan><tspan class="cls-97" x="5.54" y="21.5">K</tspan><tspan x="11.53" y="21.5">assa </tspan><tspan class="cls-96" x="32.34" y="21.5">h</tspan><tspan x="38.18" y="21.5">esa</tspan><tspan class="cls-98" x="52.65" y="21.5">b</tspan><tspan x="58.45" y="21.5">atını </tspan><tspan class="cls-99" x="79.72" y="21.5">t</tspan><tspan x="83.05" y="21.5">ə</tspan><tspan class="cls-100" x="88.24" y="21.5">r</tspan><tspan x="91.82" y="21.5">tib et</tspan><tspan class="cls-96" x="114.39" y="21.5">m</tspan><tspan x="123.53" y="21.5">ək;</tspan><tspan x="0" y="32.25">- Malın alınması zamanı s</tspan><tspan class="cls-91" x="108.27" y="32.25">a</tspan><tspan x="113.25" y="32.25">yının, </tspan><tspan class="cls-101" x="138.26" y="32.25">ç</tspan><tspan class="cls-88" x="143.02" y="32.25">eşidinin </tspan><tspan class="cls-87" x="179.08" y="32.25">y</tspan><tspan class="cls-99" x="183.62" y="32.25">o</tspan><tspan x="188.84" y="32.25">xlanılmas</tspan></text><text class="cls-102" transform="translate(716.89 330.36)">05<tspan class="cls-103" x="8.8" y="0">/</tspan><tspan class="cls-104" x="11.05" y="0">0</tspan><tspan x="15.73" y="0">3/</tspan><tspan class="cls-105" x="22.17" y="0">2</tspan><tspan class="cls-106" x="26.21" y="0">0</tspan><tspan class="cls-107" x="30.94" y="0">19–</tspan><tspan class="cls-108" x="41.47" y="0">P</tspan><tspan class="cls-109" x="46.45" y="0">r</tspan><tspan x="49.23" y="0">esent</tspan></text><text class="cls-81" transform="translate(716.89 452.16)">A<tspan class="cls-82" x="9.06" y="0">r</tspan><tspan x="14.07" y="0">az Ma</tspan><tspan class="cls-83" x="49.72" y="0">r</tspan><tspan class="cls-84" x="54.77" y="0">k</tspan><tspan x="62.3" y="0">et</tspan><tspan class="cls-85" x="0" y="15.05">K</tspan><tspan x="8.61" y="15.05">assir</tspan></text><text class="cls-86" transform="translate(718.03 481.48)">- Malın d<tspan class="cls-87" x="37.35" y="0">əy</tspan><tspan class="cls-88" x="46.95" y="0">ə</tspan><tspan class="cls-89" x="52.14" y="0">r</tspan><tspan x="55.52" y="0">inin </tspan><tspan class="cls-90" x="74.04" y="0">h</tspan><tspan x="79.88" y="0">esablanması </tspan><tspan class="cls-87" x="136.36" y="0">v</tspan><tspan x="140.89" y="0">ə </tspan><tspan class="cls-91" x="148.34" y="0">k</tspan><tspan x="153.42" y="0">assa ə</tspan><tspan class="cls-90" x="179.42" y="0">m</tspan><tspan x="188.56" y="0">əli</tspan><tspan class="cls-92" x="198.38" y="0">y</tspan><tspan class="cls-93" x="203" y="0">y</tspan><tspan x="207.52" y="0">atının </tspan><tspan class="cls-94" x="234.61" y="0">y</tspan><tspan x="239.14" y="0">e</tspan><tspan class="cls-89" x="244.33" y="0">r</tspan><tspan x="247.71" y="0">i</tspan><tspan class="cls-90" x="250.02" y="0">n</tspan><tspan x="255.86" y="0">ə </tspan><tspan class="cls-87" x="0" y="10.75">y</tspan><tspan x="4.53" y="10.75">eti</tspan><tspan class="cls-95" x="15.53" y="10.75">r</tspan><tspan x="18.91" y="10.75">il</tspan><tspan class="cls-96" x="23.53" y="10.75">m</tspan><tspan x="32.67" y="10.75">əsi;</tspan><tspan x="0" y="21.5">- </tspan><tspan class="cls-97" x="5.54" y="21.5">K</tspan><tspan x="11.53" y="21.5">assa </tspan><tspan class="cls-96" x="32.34" y="21.5">h</tspan><tspan x="38.18" y="21.5">esa</tspan><tspan class="cls-98" x="52.65" y="21.5">b</tspan><tspan x="58.45" y="21.5">atını </tspan><tspan class="cls-99" x="79.72" y="21.5">t</tspan><tspan x="83.05" y="21.5">ə</tspan><tspan class="cls-100" x="88.24" y="21.5">r</tspan><tspan x="91.82" y="21.5">tib et</tspan><tspan class="cls-96" x="114.39" y="21.5">m</tspan><tspan x="123.53" y="21.5">ək;</tspan><tspan x="0" y="32.25">- Malın alınması zamanı s</tspan><tspan class="cls-91" x="108.27" y="32.25">a</tspan><tspan x="113.25" y="32.25">yının, </tspan><tspan class="cls-101" x="138.26" y="32.25">ç</tspan><tspan class="cls-88" x="143.02" y="32.25">eşidinin </tspan><tspan class="cls-87" x="179.08" y="32.25">y</tspan><tspan class="cls-99" x="183.62" y="32.25">o</tspan><tspan x="188.84" y="32.25">xlanılmas</tspan></text><text class="cls-102" transform="translate(716.89 440.72)">05<tspan class="cls-103" x="8.8" y="0">/</tspan><tspan class="cls-104" x="11.05" y="0">0</tspan><tspan x="15.73" y="0">3/</tspan><tspan class="cls-105" x="22.17" y="0">2</tspan><tspan class="cls-106" x="26.21" y="0">0</tspan><tspan class="cls-107" x="30.94" y="0">19–</tspan><tspan class="cls-108" x="41.47" y="0">P</tspan><tspan class="cls-109" x="46.45" y="0">r</tspan><tspan x="49.23" y="0">esent</tspan></text><circle class="cls-2" cx="698.9" cy="620.43" r="4.91"/><text class="cls-81" transform="translate(725.58 638.28)">Ba<tspan class="cls-83" x="16.34" y="0">k</tspan><tspan x="24.1" y="0">ı D</tspan><tspan class="cls-110" x="40.77" y="0">ö</tspan><tspan class="cls-111" x="48.33" y="0">vlət Uni</tspan><tspan class="cls-110" x="95.96" y="0">v</tspan><tspan x="102.85" y="0">e</tspan><tspan class="cls-112" x="110.31" y="0">r</tspan><tspan x="115.38" y="0">si</tspan><tspan class="cls-113" x="125.22" y="0">t</tspan><tspan x="130.16" y="0">eti</tspan></text><text class="cls-86" transform="translate(726.72 653.39)"><tspan class="cls-114">T</tspan><tspan x="4.69" y="0">a</tspan><tspan class="cls-95" x="9.76" y="0">r</tspan><tspan x="13.14" y="0">ix </tspan><tspan class="cls-91" x="22.3" y="0">f</tspan><tspan x="25.13" y="0">a</tspan><tspan class="cls-91" x="30.2" y="0">k</tspan><tspan x="35.28" y="0">ü</tspan><tspan class="cls-96" x="41.07" y="0">l</tspan><tspan class="cls-99" x="43.4" y="0">t</tspan><tspan x="46.73" y="0">əsi</tspan></text><text class="cls-102" transform="translate(725.58 622.18)">05<tspan class="cls-103" x="8.8" y="0">/</tspan><tspan class="cls-104" x="11.05" y="0">0</tspan><tspan x="15.73" y="0">3/</tspan><tspan class="cls-105" x="22.17" y="0">2</tspan><tspan class="cls-106" x="26.21" y="0">0</tspan><tspan class="cls-107" x="30.94" y="0">19–</tspan></text><circle class="cls-2" cx="698.9" cy="689.27" r="4.91"/><text class="cls-81" transform="translate(725.58 707.78)">Ba<tspan class="cls-83" x="16.34" y="0">k</tspan><tspan x="24.1" y="0">ı D</tspan><tspan class="cls-110" x="40.77" y="0">ö</tspan><tspan class="cls-111" x="48.33" y="0">vlət Uni</tspan><tspan class="cls-110" x="95.96" y="0">v</tspan><tspan x="102.85" y="0">e</tspan><tspan class="cls-112" x="110.31" y="0">r</tspan><tspan x="115.38" y="0">si</tspan><tspan class="cls-113" x="125.22" y="0">t</tspan><tspan x="130.16" y="0">eti</tspan></text><text class="cls-86" transform="translate(726.72 722.9)"><tspan class="cls-114">T</tspan><tspan x="4.69" y="0">a</tspan><tspan class="cls-95" x="9.76" y="0">r</tspan><tspan x="13.14" y="0">ix </tspan><tspan class="cls-91" x="22.3" y="0">f</tspan><tspan x="25.13" y="0">a</tspan><tspan class="cls-91" x="30.2" y="0">k</tspan><tspan x="35.28" y="0">ü</tspan><tspan class="cls-96" x="41.07" y="0">l</tspan><tspan class="cls-99" x="43.4" y="0">t</tspan><tspan x="46.73" y="0">əsi</tspan></text><text class="cls-102" transform="translate(725.58 691.68)">05<tspan class="cls-103" x="8.8" y="0">/</tspan><tspan class="cls-104" x="11.05" y="0">0</tspan><tspan x="15.73" y="0">3/</tspan><tspan class="cls-105" x="22.17" y="0">2</tspan><tspan class="cls-106" x="26.21" y="0">0</tspan><tspan class="cls-107" x="30.94" y="0">19–</tspan></text><text class="cls-115" transform="translate(689.99 826.91) scale(1.1 1)"><tspan class="cls-116">T</tspan><tspan x="4.29" y="0">ü</tspan><tspan class="cls-117" x="9.45" y="0">r</tspan><tspan class="cls-118" x="12.46" y="0">k</tspan><tspan class="cls-119" x="16.9" y="0">c</tspan><tspan class="cls-120" x="21.15" y="0">ə</tspan></text><rect class="cls-2" x="690" y="830.94" width="174.89" height="6.53"/><text class="cls-115" transform="translate(689.99 861.06) scale(1.1 1)">İ<tspan class="cls-121" x="2.31" y="0">n</tspan><tspan x="7.52" y="0">gilis</tspan><tspan class="cls-119" x="22.7" y="0">c</tspan><tspan class="cls-122" x="26.95" y="0">ə</tspan></text><rect class="cls-2" x="690" y="865.09" width="174.89" height="6.53"/><text class="cls-115" transform="translate(689.99 895.21) scale(1.1 1)">Rusca</text><rect class="cls-2" x="690" y="899.24" width="174.89" height="6.53"/><polygon class="cls-123" points="842.84 886.78 842.84 899.24 690 899.24 690 905.77 838.28 905.77 862.56 905.77 862.56 899.24 862.56 886.78 842.84 886.78"/><polygon class="cls-123" points="833.98 852.63 833.98 865.09 690 865.09 690 871.62 829.42 871.62 853.7 871.62 853.7 865.09 853.7 852.63 833.98 852.63"/><polygon class="cls-123" points="813.09 818.47 813.09 830.94 690 830.94 690 837.47 808.53 837.47 832.81 837.47 832.81 830.94 832.81 818.47 813.09 818.47"/><text class="cls-124" transform="translate(815.77 826.91)"><tspan class="cls-125">7</tspan><tspan class="cls-126" x="3.59" y="0">5</tspan><tspan x="7.08" y="0">%</tspan></text><text class="cls-124" transform="translate(836.66 861.06)">90%</text><text class="cls-124" transform="translate(845.52 895.21)">99%</text><text class="cls-115" transform="translate(689.99 929.36) scale(1.1 1)"><tspan class="cls-127">A</tspan><tspan class="cls-119" x="5.49" y="0">z</tspan><tspan class="cls-120" x="9.33" y="0">ə</tspan><tspan class="cls-117" x="13.96" y="0">r</tspan><tspan class="cls-128" x="16.97" y="0">b</tspan><tspan class="cls-129" x="22.14" y="0">a</tspan><tspan class="cls-130" x="26.59" y="0">y</tspan><tspan x="30.63" y="0">ca</tspan><tspan class="cls-121" x="39.46" y="0">n</tspan><tspan x="44.66" y="0">ca</tspan></text><rect class="cls-2" x="690" y="933.39" width="174.89" height="6.53"/><polygon class="cls-123" points="842.84 920.93 842.84 933.39 690 933.39 690 939.92 838.28 939.92 862.56 939.92 862.56 933.39 862.56 920.93 842.84 920.93"/><text class="cls-124" transform="translate(845.52 929.36)">99%</text></g></svg>