<svg xmlns="http://www.w3.org/2000/svg" xmlns:xlink="http://www.w3.org/1999/xlink" viewBox="0 0 1079 1080"><defs><style>.cls-1,.cls-106,.cls-2,.cls-67,.cls-96,.cls-97{fill:none;}.cls-1{stroke:#fff;stroke-width:2px;}.cls-1,.cls-106,.cls-67,.cls-96,.cls-97{stroke-miterlimit:10;}.cls-3{clip-path:url(#clip-path);}.cls-4{fill:#2b2c2b;}.cls-5{fill:#108cb8;}.cls-6{fill:#414142;}.cls-7{font-size:22.5px;letter-spacing:-0.03em;}.cls-11,.cls-12,.cls-13,.cls-22,.cls-23,.cls-24,.cls-7{fill:#fff;}.cls-111,.cls-7{font-family:Montserrat-Medium, Montserrat;font-weight:500;}.cls-8{letter-spacing:0em;}.cls-9{letter-spacing:-0.01em;}.cls-10{fill:#1eab4b;}.cls-11{font-size:58.13px;}.cls-11,.cls-13{font-family:Montserrat-SemiBold, Montserrat;font-weight:600;}.cls-12{font-size:22px;}.cls-12,.cls-32,.cls-74,.cls-88{font-family:Montserrat-Regular, Montserrat;}.cls-13{font-size:39.76px;}.cls-14{letter-spacing:0em;}.cls-15{letter-spacing:-0.01em;}.cls-16{letter-spacing:-0.01em;}.cls-17{letter-spacing:-0.01em;}.cls-18{letter-spacing:-0.01em;}.cls-19{letter-spacing:-0.02em;}.cls-20{letter-spacing:0em;}.cls-21{letter-spacing:0em;}.cls-23{fill-rule:evenodd;}.cls-24{font-size:30.55px;font-family:Averta-Bold, Averta;}.cls-24,.cls-68{font-weight:700;}.cls-25{letter-spacing:0em;}.cls-26{letter-spacing:0em;}.cls-27{letter-spacing:0.01em;}.cls-28{letter-spacing:0em;}.cls-29,.cls-32,.cls-53,.cls-55{fill:#e5e6e6;}.cls-30{fill:#111426;}.cls-31{clip-path:url(#clip-path-2);}.cls-32{font-size:9.63px;}.cls-33{letter-spacing:-0.01em;}.cls-34{letter-spacing:0em;}.cls-35{letter-spacing:-0.02em;}.cls-36{letter-spacing:-0.02em;}.cls-37{letter-spacing:0em;}.cls-38{letter-spacing:-0.02em;}.cls-39{letter-spacing:-0.01em;}.cls-40{letter-spacing:0em;}.cls-41{letter-spacing:-0.01em;}.cls-42{letter-spacing:-0.01em;}.cls-43{letter-spacing:-0.02em;}.cls-44{letter-spacing:-0.01em;}.cls-45{letter-spacing:-0.02em;}.cls-46{letter-spacing:-0.01em;}.cls-47{letter-spacing:-0.01em;}.cls-48{letter-spacing:-0.02em;}.cls-49{letter-spacing:0.01em;}.cls-50{letter-spacing:0em;}.cls-51{letter-spacing:0em;}.cls-52{letter-spacing:0em;}.cls-53{font-size:17.01px;letter-spacing:0.02em;}.cls-53,.cls-63,.cls-98{font-family:Averta-ExtraBold, Averta;font-weight:800;}.cls-54{letter-spacing:-0.02em;}.cls-55{font-size:12.84px;font-family:Averta-Light, Averta;font-weight:300;letter-spacing:0.02em;}.cls-56{letter-spacing:0.01em;}.cls-57{letter-spacing:0.02em;}.cls-58{letter-spacing:0.01em;}.cls-59{letter-spacing:0em;}.cls-60{letter-spacing:0.02em;}.cls-61{letter-spacing:0em;}.cls-62{letter-spacing:0em;}.cls-63,.cls-98{font-size:16.88px;fill:#11172d;}.cls-63,.cls-99{letter-spacing:0.02em;}.cls-64,.cls-98{letter-spacing:-0.02em;}.cls-65{letter-spacing:0em;}.cls-66{letter-spacing:0.01em;}.cls-67{stroke:#141b31;stroke-width:0.4px;}.cls-68{font-size:11.68px;font-family:Montserrat-Bold, Montserrat;}.cls-68,.cls-74,.cls-88{fill:#141b31;}.cls-69{letter-spacing:-0.01em;}.cls-70{letter-spacing:0em;}.cls-71{letter-spacing:0em;}.cls-72{letter-spacing:-0.02em;}.cls-73{letter-spacing:-0.01em;}.cls-74{font-size:8.5px;}.cls-75{letter-spacing:-0.02em;}.cls-76{letter-spacing:-0.01em;}.cls-77{letter-spacing:0em;}.cls-78{letter-spacing:-0.01em;}.cls-79{letter-spacing:0em;}.cls-80{letter-spacing:0em;}.cls-81{letter-spacing:-0.02em;}.cls-82{letter-spacing:-0.01em;}.cls-83{letter-spacing:-0.01em;}.cls-84{letter-spacing:0em;}.cls-85{letter-spacing:-0.02em;}.cls-86{letter-spacing:0.01em;}.cls-87{letter-spacing:-0.01em;}.cls-88{font-size:7.08px;}.cls-89{letter-spacing:-0.02em;}.cls-90{letter-spacing:-0.01em;}.cls-91{letter-spacing:0em;}.cls-92{letter-spacing:0em;}.cls-93{letter-spacing:0em;}.cls-94{letter-spacing:-0.02em;}.cls-95{letter-spacing:-0.01em;}.cls-106,.cls-96,.cls-97{stroke:#11172d;}.cls-97{stroke-dasharray:7.05 7.05;}.cls-100{letter-spacing:-0.01em;}.cls-101{letter-spacing:-0.02em;}.cls-102{letter-spacing:0em;}.cls-103{letter-spacing:-0.02em;}.cls-104{letter-spacing:-0.03em;}.cls-105{letter-spacing:-0.01em;}.cls-106{stroke-dasharray:7.14 7.14;}.cls-107{font-size:39.38px;font-family:Nivea;}.cls-107,.cls-111{fill:#fafaf9;}.cls-108{letter-spacing:0em;}.cls-109{letter-spacing:0em;}.cls-110{letter-spacing:-0.03em;}.cls-111{font-size:13.98px;}.cls-112{letter-spacing:-0.01em;}.cls-113{letter-spacing:-0.01em;}.cls-114{letter-spacing:0em;}.cls-115{letter-spacing:-0.01em;}.cls-116{letter-spacing:-0.01em;}.cls-117{letter-spacing:0em;}</style><clipPath id="clip-path"><circle class="cls-1" cx="-667.73" cy="330.44" r="76.29"/></clipPath><clipPath id="clip-path-2"><polygon class="cls-2" points="577.66 156.97 687.06 218.69 688.31 344.29 580.16 408.18 470.76 346.46 469.51 220.85 577.66 156.97"/></clipPath></defs><g id="PRINT"><g class="cls-3"><rect class="cls-1" x="-797.87" y="53.48" width="634.13" height="900.75"/></g><circle class="cls-1" cx="-667.73" cy="330.44" r="76.29"/><rect class="cls-4" x="85.21" y="181.33" width="260.32" height="56.71"/><rect class="cls-5" x="40.07" y="69.8" width="143.79" height="5.3"/><rect class="cls-6" x="183.81" y="69.8" width="143.79" height="5.3"/><rect class="cls-6" x="40.07" y="90.37" width="143.76" height="38.31"/><text class="cls-7" transform="translate(52.14 117.53)">K<tspan class="cls-8" x="15.62" y="0">OD: 1</tspan><tspan class="cls-9" x="72.58" y="0">0.</tspan><tspan class="cls-8" x="92.16" y="0">05</tspan></text><rect class="cls-10" x="40.07" y="169.58" width="80.21" height="80.21"/><text class="cls-11" transform="translate(48.78 226.69)">10</text><text class="cls-12" transform="translate(67.92 240.86) scale(0.58)">azn</text><text class="cls-13" transform="translate(139 219.7) scale(0.58)"><tspan class="cls-14">A</tspan><tspan class="cls-15" x="29.7" y="0">z</tspan><tspan x="50.54" y="0">ə</tspan><tspan class="cls-16" x="75.27" y="0">r</tspan><tspan class="cls-17" x="91.77" y="0">b</tspan><tspan class="cls-18" x="118.77" y="0">a</tspan><tspan class="cls-19" x="142.51" y="0">y</tspan><tspan x="164.9" y="0">ca</tspan><tspan class="cls-20" x="212.14" y="0">n</tspan><tspan class="cls-21" x="239.57" y="0">dilli</tspan></text><rect class="cls-4" x="85.21" y="305.1" width="260.32" height="56.71"/><rect class="cls-10" x="40.07" y="293.35" width="80.21" height="80.21"/><text class="cls-11" transform="translate(48.78 350.46)">15</text><text class="cls-13" transform="translate(139 343.47) scale(0.58)">İ<tspan class="cls-20" x="12.68" y="0">n</tspan><tspan class="cls-21" x="40.12" y="0">gilisdilli</tspan></text><text class="cls-12" transform="translate(67.92 366.87) scale(0.58)">azn</text><path class="cls-4" d="M58.34,424.41c0,3-2.2,4.88-5.84,4.88H49v4.25H47v-14H52.5C56.14,419.53,58.34,421.37,58.34,424.41Zm-2,0c0-2-1.34-3.14-3.9-3.14H49v6.28h3.4C55,427.55,56.34,426.41,56.34,424.41Z"/><path class="cls-4" d="M66.52,422.83v1.86a3.39,3.39,0,0,0-.44,0c-2.06,0-3.34,1.26-3.34,3.58v5.29H60.82V422.93h1.84v1.78C63.34,423.47,64.66,422.83,66.52,422.83Z"/><path class="cls-4" d="M67.8,428.23a5.51,5.51,0,1,1,5.52,5.43A5.27,5.27,0,0,1,67.8,428.23Zm9.08,0a3.57,3.57,0,1,0-7.14,0,3.57,3.57,0,1,0,7.14,0Z"/><path class="cls-4" d="M83.64,422v.92h3.08v1.58h-3v9H81.76v-9H80v-1.58h1.8V422a3.19,3.19,0,0,1,3.5-3.42,3.58,3.58,0,0,1,2.16.62l-.58,1.46a2.49,2.49,0,0,0-1.48-.5C84.22,420.15,83.64,420.79,83.64,422Z"/><path class="cls-4" d="M97.92,428.87h-8.6A3.6,3.6,0,0,0,93.16,432a3.93,3.93,0,0,0,3.06-1.29l1.06,1.25a5.32,5.32,0,0,1-4.18,1.72c-3.42,0-5.7-2.27-5.7-5.43a5.19,5.19,0,0,1,5.32-5.4A5.11,5.11,0,0,1,98,428.29C98,428.45,97.94,428.69,97.92,428.87Zm-8.6-1.38h6.8a3.42,3.42,0,0,0-6.8,0Z"/><path class="cls-4" d="M99.28,432.42l.8-1.53A6.73,6.73,0,0,0,103.8,432c1.78,0,2.52-.54,2.52-1.44,0-2.39-6.7-.33-6.7-4.55,0-1.9,1.7-3.18,4.42-3.18a7.71,7.71,0,0,1,3.86,1l-.82,1.52a5.54,5.54,0,0,0-3.06-.84c-1.68,0-2.5.62-2.5,1.46,0,2.5,6.72.46,6.72,4.59,0,1.92-1.76,3.14-4.58,3.14A7.65,7.65,0,0,1,99.28,432.42Z"/><path class="cls-4" d="M109.3,432.42l.8-1.53a6.73,6.73,0,0,0,3.72,1.11c1.78,0,2.52-.54,2.52-1.44,0-2.39-6.7-.33-6.7-4.55,0-1.9,1.7-3.18,4.42-3.18a7.71,7.71,0,0,1,3.86,1l-.82,1.52a5.54,5.54,0,0,0-3.06-.84c-1.68,0-2.5.62-2.5,1.46,0,2.5,6.72.46,6.72,4.59,0,1.92-1.76,3.14-4.58,3.14A7.65,7.65,0,0,1,109.3,432.42Z"/><path class="cls-4" d="M120.44,419.85a1.18,1.18,0,1,1,2.36,0,1.18,1.18,0,1,1-2.36,0Zm.22,3.08h1.92v10.61h-1.92Z"/><path class="cls-4" d="M125.26,428.23a5.51,5.51,0,1,1,5.52,5.43A5.27,5.27,0,0,1,125.26,428.23Zm9.08,0a3.57,3.57,0,1,0-7.14,0,3.57,3.57,0,1,0,7.14,0Z"/><path class="cls-4" d="M149,427.43v6.11h-1.92v-5.89c0-2.08-1-3.1-2.86-3.1-2,0-3.36,1.22-3.36,3.52v5.47h-1.92V422.93h1.84v1.6a4.54,4.54,0,0,1,3.82-1.7C147.18,422.83,149,424.31,149,427.43Z"/><path class="cls-4" d="M161,427.13v6.41h-1.82v-1.4a3.93,3.93,0,0,1-3.48,1.52c-2.4,0-3.92-1.28-3.92-3.13,0-1.7,1.1-3.1,4.26-3.1h3v-.38c0-1.62-.94-2.56-2.84-2.56a5.36,5.36,0,0,0-3.36,1.14l-.8-1.44a7.06,7.06,0,0,1,4.38-1.36C159.32,422.83,161,424.23,161,427.13ZM159,430.3v-1.49h-3c-1.9,0-2.44.75-2.44,1.64,0,1.07.88,1.73,2.34,1.73A3.07,3.07,0,0,0,159,430.3Z"/><path class="cls-4" d="M164.52,418.69h1.92v14.85h-1.92Z"/><path class="cls-4" d="M178.38,426.53a7.08,7.08,0,0,1,7.42-7.16,6.92,6.92,0,0,1,5.32,2.18l-1.3,1.26a5.19,5.19,0,0,0-3.94-1.66,5.39,5.39,0,1,0,0,10.77,5.18,5.18,0,0,0,3.94-1.69l1.3,1.27a7,7,0,0,1-5.34,2.2A7.08,7.08,0,0,1,178.38,426.53Z"/><path class="cls-4" d="M206,419.53l-6.14,14h-2l-6.16-14h2.16l5,11.5,5.08-11.5Z"/><path class="cls-4" d="M227,427.43v6.11h-1.92v-5.89c0-2.08-1-3.1-2.86-3.1-2,0-3.36,1.22-3.36,3.52v5.47h-1.92V418.69h1.92v5.74a4.6,4.6,0,0,1,3.74-1.6C225.18,422.83,227,424.31,227,427.43Z"/><path class="cls-4" d="M239,427.13v6.41h-1.82v-1.4a3.93,3.93,0,0,1-3.48,1.52c-2.4,0-3.92-1.28-3.92-3.13,0-1.7,1.1-3.1,4.26-3.1h3v-.38c0-1.62-.94-2.56-2.84-2.56a5.36,5.36,0,0,0-3.36,1.14l-.8-1.44a7.06,7.06,0,0,1,4.38-1.36C237.32,422.83,239,424.23,239,427.13ZM237,430.3v-1.49h-3c-1.9,0-2.44.75-2.44,1.64,0,1.07.88,1.73,2.34,1.73A3.07,3.07,0,0,0,237,430.3Z"/><path class="cls-4" d="M250.38,432v1.58H241.5V432.3l6.26-7.79h-6.14v-1.58h8.6v1.26L244,432Z"/><path class="cls-4" d="M252.94,422.93h1.92v10.61h-1.92Z"/><path class="cls-4" d="M264.22,422.83v1.86a3.39,3.39,0,0,0-.44,0c-2.06,0-3.34,1.26-3.34,3.58v5.29h-1.92V422.93h1.84v1.78C261,423.47,262.36,422.83,264.22,422.83Z"/><path class="cls-4" d="M266.58,418.69h1.92v14.85h-1.92Z"/><path class="cls-4" d="M280.56,427.13v6.41h-1.82v-1.4a3.93,3.93,0,0,1-3.48,1.52c-2.4,0-3.92-1.28-3.92-3.13,0-1.7,1.1-3.1,4.26-3.1h3v-.38c0-1.62-.94-2.56-2.84-2.56a5.36,5.36,0,0,0-3.36,1.14l-.8-1.44a7.06,7.06,0,0,1,4.38-1.36C278.92,422.83,280.56,424.23,280.56,427.13Zm-1.92,3.17v-1.49h-3c-1.9,0-2.44.75-2.44,1.64,0,1.07.88,1.73,2.34,1.73A3.07,3.07,0,0,0,278.64,430.3Z"/><path class="cls-4" d="M301.72,427.43v6.11H299.8v-5.89c0-2.08-1-3.1-2.74-3.1-1.92,0-3.18,1.22-3.18,3.52v5.47H292v-5.89c0-2.08-1-3.1-2.74-3.1-1.92,0-3.18,1.22-3.18,3.52v5.47h-1.92V422.93H286v1.58a4.3,4.3,0,0,1,3.66-1.68,3.92,3.92,0,0,1,3.68,2,4.78,4.78,0,0,1,4.08-2C300,422.83,301.72,424.31,301.72,427.43Z"/><path class="cls-4" d="M313.66,427.13v6.41h-1.82v-1.4a3.93,3.93,0,0,1-3.48,1.52c-2.4,0-3.92-1.28-3.92-3.13,0-1.7,1.1-3.1,4.26-3.1h3v-.38c0-1.62-.94-2.56-2.84-2.56a5.36,5.36,0,0,0-3.36,1.14l-.8-1.44a7.06,7.06,0,0,1,4.38-1.36C312,422.83,313.66,424.23,313.66,427.13Zm-1.92,3.17v-1.49h-3c-1.9,0-2.44.75-2.44,1.64,0,1.07.88,1.73,2.34,1.73A3.07,3.07,0,0,0,311.74,430.3Z"/><path class="cls-4" d="M333.12,433.54l-3.06-4.06-3.1,4.06h-2.14l4.18-5.43-4-5.18h2.14l2.92,3.82,2.9-3.82h2.1l-4,5.18,4.22,5.43Z"/><path class="cls-4" d="M337.18,419.85a1.18,1.18,0,0,1,2.36,0,1.18,1.18,0,1,1-2.36,0Zm.22,3.08h1.92v10.61H337.4Z"/><path class="cls-4" d="M353,418.69v14.85h-1.84v-1.69a4.46,4.46,0,0,1-3.78,1.81,5.42,5.42,0,0,1,0-10.83,4.51,4.51,0,0,1,3.7,1.7v-5.84Zm-1.9,9.54a3.57,3.57,0,1,0-3.56,3.75A3.49,3.49,0,0,0,351.08,428.23Z"/><path class="cls-4" d="M374.22,427.43v6.11H372.3v-5.89c0-2.08-1-3.1-2.74-3.1-1.92,0-3.18,1.22-3.18,3.52v5.47h-1.92v-5.89c0-2.08-1-3.1-2.74-3.1-1.92,0-3.18,1.22-3.18,3.52v5.47h-1.92V422.93h1.84v1.58a4.3,4.3,0,0,1,3.66-1.68,3.92,3.92,0,0,1,3.68,2,4.78,4.78,0,0,1,4.08-2C372.46,422.83,374.22,424.31,374.22,427.43Z"/><path class="cls-4" d="M387.4,428.23a5.19,5.19,0,0,1-5.32,5.41,5.11,5.11,0,0,1-5.24-5.47c0-.16,0-.4,0-.58h8.6a3.59,3.59,0,0,0-3.84-3.1,4,4,0,0,0-3.06,1.28l-1.06-1.24a5.32,5.32,0,0,1,4.18-1.72C385.12,422.81,387.4,425.07,387.4,428.23Zm-1.92.75h-6.8a3.42,3.42,0,0,0,6.8,0Z"/><path class="cls-4" d="M389.38,427.21h5.38v1.66h-5.38Z"/><path class="cls-4" d="M52.72,456.92a3.62,3.62,0,0,1-2.32.74A3,3,0,0,1,47,454.34v-5.83h-1.8v-1.58H47v-2.32H49v2.32h3v1.58H49v5.75A1.57,1.57,0,0,0,50.62,456a2.48,2.48,0,0,0,1.5-.5Z"/><path class="cls-4" d="M54.59,443.85a1.18,1.18,0,0,1,2.36,0,1.18,1.18,0,0,1-2.36,0Zm.22,3.08h1.92v10.61H54.81Z"/><path class="cls-4" d="M70.23,451.43v6.11H68.31v-5.89c0-2.08-1-3.1-2.86-3.1-2,0-3.36,1.22-3.36,3.52v5.47H60.17V446.93H62v1.6a4.54,4.54,0,0,1,3.82-1.7C68.41,446.83,70.23,448.31,70.23,451.43Z"/><path class="cls-4" d="M83.63,442.69v14.85H81.79v-1.69A4.46,4.46,0,0,1,78,457.66a5.42,5.42,0,0,1,0-10.83,4.51,4.51,0,0,1,3.7,1.7v-5.84Zm-1.9,9.54A3.57,3.57,0,1,0,78.17,456,3.49,3.49,0,0,0,81.73,452.23Z"/><path class="cls-4" d="M96.63,452.23a5.19,5.19,0,0,1-5.32,5.41,5.11,5.11,0,0,1-5.24-5.47c0-.16,0-.4,0-.58h8.6a3.59,3.59,0,0,0-3.84-3.1,4,4,0,0,0-3.06,1.28l-1.06-1.24a5.32,5.32,0,0,1,4.18-1.72C94.35,446.81,96.63,449.07,96.63,452.23Zm-1.92.75h-6.8a3.42,3.42,0,0,0,6.8,0Z"/><path class="cls-4" d="M114.57,452.23a5.15,5.15,0,0,1-5.36,5.43,4.53,4.53,0,0,1-3.7-1.72v5.48h-1.92V446.93h1.84v1.68a4.51,4.51,0,0,1,3.78-1.78A5.14,5.14,0,0,1,114.57,452.23Zm-1.94,0a3.57,3.57,0,1,0-3.58,3.75A3.5,3.5,0,0,0,112.63,452.23Z"/><path class="cls-4" d="M126.55,452.87H118a3.6,3.6,0,0,0,3.84,3.11,3.93,3.93,0,0,0,3.06-1.29l1.06,1.25a5.32,5.32,0,0,1-4.18,1.72c-3.42,0-5.7-2.27-5.7-5.43a5.19,5.19,0,0,1,5.32-5.4,5.11,5.11,0,0,1,5.24,5.46C126.59,452.45,126.57,452.69,126.55,452.87Zm-8.6-1.38h6.8a3.42,3.42,0,0,0-6.8,0Z"/><path class="cls-4" d="M132.65,457.64l-.24.9c1.16.12,1.74.78,1.74,1.66,0,1.12-1,1.82-2.48,1.82a3.36,3.36,0,0,1-1.78-.44l.42-1a2.64,2.64,0,0,0,1.36.34c.76,0,1.12-.3,1.12-.8s-.34-.78-1.14-.78h-.54l.44-1.72a7.17,7.17,0,0,1-3.86-1.22l.8-1.53a6.73,6.73,0,0,0,3.72,1.11c1.78,0,2.52-.54,2.52-1.44,0-2.39-6.7-.33-6.7-4.55,0-1.9,1.7-3.18,4.42-3.18a7.71,7.71,0,0,1,3.86,1l-.82,1.52a5.54,5.54,0,0,0-3.06-.84c-1.68,0-2.5.62-2.5,1.46,0,2.5,6.72.46,6.72,4.59C136.65,456.3,135.13,457.48,132.65,457.64Z"/><path class="cls-4" d="M148.41,452.23a5.19,5.19,0,0,1-5.32,5.41,5.12,5.12,0,0,1-5.25-5.47c0-.16,0-.4,0-.58h8.61a3.59,3.59,0,0,0-3.84-3.1,4,4,0,0,0-3.07,1.28l-1.06-1.24a5.33,5.33,0,0,1,4.19-1.72C146.13,446.81,148.41,449.07,148.41,452.23Zm-1.92.75h-6.8a3.42,3.42,0,0,0,6.8,0Z"/><path class="cls-4" d="M155,452.59l-2.2,2.05v2.9h-1.92V442.69h1.92v9.52l5.79-5.28h2.32l-4.47,4.38,4.91,6.23h-2.37Z"/><path class="cls-4" d="M171.14,451.13v6.41h-1.82v-1.4a3.93,3.93,0,0,1-3.48,1.52c-2.4,0-3.92-1.28-3.92-3.13,0-1.7,1.1-3.1,4.26-3.1h3v-.38c0-1.62-.94-2.56-2.84-2.56a5.36,5.36,0,0,0-3.36,1.14l-.8-1.44a7.06,7.06,0,0,1,4.38-1.36C169.5,446.83,171.14,448.23,171.14,451.13Zm-1.92,3.17v-1.49h-3c-1.9,0-2.44.75-2.44,1.64,0,1.07.88,1.73,2.34,1.73A3.07,3.07,0,0,0,169.22,454.3Z"/><path class="cls-4" d="M180.18,446.83v1.86a3.39,3.39,0,0,0-.44,0c-2.06,0-3.34,1.26-3.34,3.58v5.29h-1.92V446.93h1.84v1.78C177,447.47,178.32,446.83,180.18,446.83Z"/><path class="cls-4" d="M191.1,452.59l-2.2,2.05v2.9H187V442.69h1.92v9.52l5.79-5.28H197l-4.46,4.38,4.9,6.23h-2.36Z"/><path class="cls-4" d="M197.66,452.23a5.51,5.51,0,1,1,5.52,5.43A5.27,5.27,0,0,1,197.66,452.23Zm9.08,0a3.57,3.57,0,1,0-7.14,0,3.57,3.57,0,1,0,7.14,0Z"/><path class="cls-4" d="M228.72,451.43v6.11H226.8v-5.89c0-2.08-1-3.1-2.74-3.1-1.92,0-3.18,1.22-3.18,3.52v5.47H219v-5.89c0-2.08-1-3.1-2.74-3.1-1.92,0-3.18,1.22-3.18,3.52v5.47h-1.92V446.93H213v1.58a4.3,4.3,0,0,1,3.66-1.68,3.92,3.92,0,0,1,3.68,2,4.78,4.78,0,0,1,4.08-2C227,446.83,228.72,448.31,228.72,451.43Z"/><path class="cls-4" d="M240.44,451.13v6.41h-1.82v-1.4a3.93,3.93,0,0,1-3.48,1.52c-2.4,0-3.92-1.28-3.92-3.13,0-1.7,1.1-3.1,4.26-3.1h3v-.38c0-1.62-.94-2.56-2.84-2.56a5.36,5.36,0,0,0-3.36,1.14l-.8-1.44a7.06,7.06,0,0,1,4.38-1.36C238.8,446.83,240.44,448.23,240.44,451.13Zm-1.92,3.17v-1.49h-3c-1.9,0-2.44.75-2.44,1.64,0,1.07.88,1.73,2.34,1.73A3.07,3.07,0,0,0,238.52,454.3Z"/><path class="cls-4" d="M253.84,451.43v6.11h-1.92v-5.89c0-2.08-1-3.1-2.86-3.1-2,0-3.36,1.22-3.36,3.52v5.47h-1.92V446.93h1.84v1.6a4.54,4.54,0,0,1,3.82-1.7C252,446.83,253.84,448.31,253.84,451.43Z"/><path class="cls-4" d="M267.24,442.69v14.85H265.4v-1.69a4.46,4.46,0,0,1-3.78,1.81,5.42,5.42,0,0,1,0-10.83,4.51,4.51,0,0,1,3.7,1.7v-5.84Zm-1.9,9.54a3.58,3.58,0,1,0-7.15,0,3.58,3.58,0,1,0,7.15,0Z"/><path class="cls-4" d="M279.05,451.13v6.41h-1.82v-1.4a3.93,3.93,0,0,1-3.48,1.52c-2.4,0-3.92-1.28-3.92-3.13,0-1.7,1.1-3.1,4.26-3.1h3v-.38c0-1.62-.94-2.56-2.84-2.56a5.36,5.36,0,0,0-3.36,1.14l-.8-1.44a7.06,7.06,0,0,1,4.38-1.36C277.41,446.83,279.05,448.23,279.05,451.13Zm-1.92,3.17v-1.49h-3c-1.9,0-2.44.75-2.44,1.64,0,1.07.88,1.73,2.34,1.73A3.07,3.07,0,0,0,277.13,454.3Z"/><path class="cls-4" d="M300,451.43v6.11h-1.92v-5.89c0-2.08-1-3.1-2.74-3.1-1.92,0-3.18,1.22-3.18,3.52v5.47h-1.92v-5.89c0-2.08-1-3.1-2.74-3.1-1.92,0-3.18,1.22-3.18,3.52v5.47h-1.92V446.93h1.84v1.58a4.3,4.3,0,0,1,3.66-1.68,3.92,3.92,0,0,1,3.68,2,4.78,4.78,0,0,1,4.08-2C298.23,446.83,300,448.31,300,451.43Z"/><path class="cls-4" d="M303.31,446.93h1.92v10.61h-1.92Z"/><path class="cls-4" d="M316.53,456v1.58h-8.89V456.3l6.27-7.79h-6.14v-1.58h8.6v1.26L310.11,456Z"/><path class="cls-4" d="M329.35,456.92a3.62,3.62,0,0,1-2.32.74,3,3,0,0,1-3.36-3.32v-5.83h-1.8v-1.58h1.8v-2.32h1.92v2.32h3v1.58h-3v5.75a1.57,1.57,0,0,0,1.66,1.78,2.48,2.48,0,0,0,1.5-.5Z"/><path class="cls-4" d="M340.67,452.23a5.19,5.19,0,0,1-5.32,5.41,5.11,5.11,0,0,1-5.24-5.47c0-.16,0-.4,0-.58h8.6a3.59,3.59,0,0,0-3.84-3.1,4,4,0,0,0-3.06,1.28l-1.06-1.24a5.32,5.32,0,0,1,4.18-1.72C338.39,446.81,340.67,449.07,340.67,452.23Zm-1.92.75H332a3.42,3.42,0,0,0,6.8,0Z"/><path class="cls-4" d="M348.81,446.83v1.86a3.39,3.39,0,0,0-.44,0c-2.06,0-3.34,1.26-3.34,3.58v5.29H343.1V446.93H345v1.78C345.63,447.47,347,446.83,348.81,446.83Z"/><path class="cls-4" d="M360.43,452.23a5.2,5.2,0,0,1-5.33,5.41,5.11,5.11,0,0,1-5.24-5.47c0-.16,0-.4,0-.58h8.61a3.6,3.6,0,0,0-3.85-3.1,4,4,0,0,0-3.06,1.28l-1.06-1.24a5.32,5.32,0,0,1,4.18-1.72C358.14,446.81,360.43,449.07,360.43,452.23Zm-1.92.75H351.7a3.43,3.43,0,0,0,6.81,0Z"/><path class="cls-4" d="M365,446v.92h3.08v1.58h-3v9h-1.92v-9h-1.8v-1.58h1.8V446a3.19,3.19,0,0,1,3.5-3.42,3.58,3.58,0,0,1,2.16.62l-.58,1.46a2.49,2.49,0,0,0-1.48-.5C365.6,444.15,365,444.79,365,446Z"/><path class="cls-4" d="M371.08,443.85a1.18,1.18,0,0,1,2.36,0,1.18,1.18,0,1,1-2.36,0Zm.22,3.08h1.92v10.61H371.3Z"/><path class="cls-4" d="M386.72,451.43v6.11H384.8v-5.89c0-2.08-1-3.1-2.86-3.1-2,0-3.36,1.22-3.36,3.52v5.47h-1.92V446.93h1.84v1.6a4.54,4.54,0,0,1,3.82-1.7C384.9,446.83,386.72,448.31,386.72,451.43Z"/><path class="cls-4" d="M389.38,451.21h5.38v1.66h-5.38Z"/><path class="cls-4" d="M56.76,466.69v14.85H54.92v-1.69a4.46,4.46,0,0,1-3.78,1.81,5.42,5.42,0,0,1,0-10.83,4.51,4.51,0,0,1,3.7,1.7v-5.84Zm-1.9,9.54A3.57,3.57,0,1,0,51.3,480,3.49,3.49,0,0,0,54.86,476.23Z"/><path class="cls-4" d="M70,476.23a5.19,5.19,0,0,1-5.32,5.41,5.11,5.11,0,0,1-5.24-5.47c0-.16,0-.4,0-.58h8.6a3.59,3.59,0,0,0-3.84-3.1,4,4,0,0,0-3.06,1.28l-1.06-1.24a5.32,5.32,0,0,1,4.18-1.72C67.7,470.81,70,473.07,70,476.23Zm-1.92.75h-6.8a3.42,3.42,0,0,0,6.8,0Z"/><path class="cls-4" d="M82.7,475.43v6.11H80.78v-5.89c0-2.08-1-3.1-2.86-3.1-2,0-3.36,1.22-3.36,3.52v5.47H72.64V470.93h1.84v1.6a4.54,4.54,0,0,1,3.82-1.7C80.88,470.83,82.7,472.31,82.7,475.43Z"/><path class="cls-4" d="M91.75,474.53a7.08,7.08,0,0,1,7.42-7.16,6.94,6.94,0,0,1,5.33,2.18l-1.31,1.26a5.19,5.19,0,0,0-3.94-1.66,5.39,5.39,0,1,0,0,10.77,5.18,5.18,0,0,0,3.94-1.69l1.31,1.27a7,7,0,0,1-5.35,2.2A7.08,7.08,0,0,1,91.75,474.53Z"/><path class="cls-4" d="M119.38,467.53l-6.15,14h-2l-6.16-14h2.16l5,11.5,5.09-11.5Z"/><path class="cls-4" d="M120.61,467.53h1.68l-.14,5.4h-1.42Z"/><path class="cls-4" d="M135.44,475.43v6.11h-1.92v-5.89c0-2.08-1-3.1-2.87-3.1-2,0-3.36,1.22-3.36,3.52v5.47h-1.92V470.93h1.84v1.6a4.54,4.54,0,0,1,3.82-1.7C133.62,470.83,135.44,472.31,135.44,475.43Z"/><path class="cls-4" d="M138.77,467.85a1.18,1.18,0,0,1,2.36,0,1.18,1.18,0,1,1-2.36,0Zm.22,3.08h1.92v10.61H139Z"/><path class="cls-4" d="M152.44,480v1.58h-8.89V480.3l6.26-7.79h-6.14v-1.58h8.61v1.26L146,480Z"/><path class="cls-4" d="M154.77,467.85a1.18,1.18,0,0,1,2.36,0,1.18,1.18,0,1,1-2.36,0Zm.22,3.08h1.92v10.61H155Z"/><path class="cls-4" d="M176.93,470.93v14.49H175v-5.48a4.53,4.53,0,0,1-3.7,1.72,5.42,5.42,0,0,1,0-10.83,4.51,4.51,0,0,1,3.78,1.78v-1.68Zm-1.9,5.3a3.57,3.57,0,1,0-3.56,3.75A3.5,3.5,0,0,0,175,476.23Z"/><path class="cls-4" d="M190.45,470.93v10.61h-1.82v-1.6a4.31,4.31,0,0,1-3.6,1.72c-2.74,0-4.56-1.5-4.56-4.63v-6.1h1.92v5.88c0,2.08,1,3.13,2.86,3.13,2,0,3.28-1.25,3.28-3.53v-5.48Z"/><path class="cls-4" d="M199.81,470.83v1.86a3.39,3.39,0,0,0-.44,0c-2.06,0-3.34,1.26-3.34,3.58v5.29h-1.92V470.93H196v1.78C196.63,471.47,198,470.83,199.81,470.83Z"/><path class="cls-4" d="M212.19,470.93v10.61h-1.82v-1.6a4.31,4.31,0,0,1-3.6,1.72c-2.74,0-4.56-1.5-4.56-4.63v-6.1h1.92v5.88c0,2.08,1,3.13,2.86,3.13,2,0,3.28-1.25,3.28-3.53v-5.48Z"/><path class="cls-4" d="M215.85,466.69h1.92v14.85h-1.92Z"/><path class="cls-4" d="M231.31,470.93v10.61h-1.82v-1.6a4.31,4.31,0,0,1-3.6,1.72c-2.74,0-4.56-1.5-4.56-4.63v-6.1h1.92v5.88c0,2.08,1,3.13,2.86,3.13,2,0,3.28-1.25,3.28-3.53v-5.48Z"/><path class="cls-4" d="M238.59,481.64l-.24.9c1.16.12,1.74.78,1.74,1.66,0,1.12-1,1.82-2.48,1.82a3.36,3.36,0,0,1-1.78-.44l.42-1a2.64,2.64,0,0,0,1.36.34c.76,0,1.12-.3,1.12-.8s-.34-.78-1.14-.78h-.54l.44-1.72a7.17,7.17,0,0,1-3.86-1.22l.8-1.53a6.73,6.73,0,0,0,3.72,1.11c1.78,0,2.52-.54,2.52-1.44,0-2.39-6.7-.33-6.7-4.55,0-1.9,1.7-3.18,4.42-3.18a7.71,7.71,0,0,1,3.86,1l-.82,1.52a5.54,5.54,0,0,0-3.06-.84c-1.68,0-2.5.62-2.5,1.46,0,2.5,6.72.46,6.72,4.59C242.59,480.3,241.07,481.48,238.59,481.64Z"/><path class="cls-4" d="M260.73,470.93l-4.64,10.61h-2l-4.65-10.61h2l3.65,8.51,3.72-8.51Z"/><path class="cls-4" d="M271.81,476.23a5.19,5.19,0,0,1-5.32,5.41,5.12,5.12,0,0,1-5.25-5.47c0-.16,0-.4,0-.58h8.61a3.59,3.59,0,0,0-3.84-3.1,4,4,0,0,0-3.07,1.28l-1.05-1.24a5.32,5.32,0,0,1,4.18-1.72C269.53,470.81,271.81,473.07,271.81,476.23Zm-1.92.75h-6.8a3.42,3.42,0,0,0,6.8,0Z"/><path class="cls-4" d="M283,470v.92h3.08v1.58h-3v9H281.1v-9h-1.8v-1.58h1.8V470a3.19,3.19,0,0,1,3.5-3.42,3.58,3.58,0,0,1,2.16.62l-.58,1.46a2.49,2.49,0,0,0-1.48-.5C283.56,468.15,283,468.79,283,470Z"/><path class="cls-4" d="M286.74,476.23a5.51,5.51,0,1,1,5.52,5.43A5.27,5.27,0,0,1,286.74,476.23Zm9.08,0a3.57,3.57,0,1,0-7.14,0,3.57,3.57,0,1,0,7.14,0Z"/><path class="cls-4" d="M306.12,470.83v1.86a3.39,3.39,0,0,0-.44,0c-2.06,0-3.34,1.26-3.34,3.58v5.29h-1.92V470.93h1.84v1.78C302.94,471.47,304.26,470.83,306.12,470.83Z"/><path class="cls-4" d="M326.08,475.43v6.11h-1.92v-5.89c0-2.08-1-3.1-2.74-3.1-1.92,0-3.18,1.22-3.18,3.52v5.47h-1.92v-5.89c0-2.08-1-3.1-2.74-3.1-1.92,0-3.18,1.22-3.18,3.52v5.47h-1.92V470.93h1.84v1.58a4.3,4.3,0,0,1,3.66-1.68,3.92,3.92,0,0,1,3.68,2,4.78,4.78,0,0,1,4.08-2C324.32,470.83,326.08,472.31,326.08,475.43Z"/><path class="cls-4" d="M338,475.13v6.41H336.2v-1.4a3.93,3.93,0,0,1-3.48,1.52c-2.4,0-3.92-1.28-3.92-3.13,0-1.7,1.1-3.1,4.26-3.1h3v-.38c0-1.62-.94-2.56-2.84-2.56a5.36,5.36,0,0,0-3.36,1.14l-.8-1.44a7.06,7.06,0,0,1,4.38-1.36C336.38,470.83,338,472.23,338,475.13Zm-1.92,3.17v-1.49h-3c-1.9,0-2.44.75-2.44,1.64,0,1.07.88,1.73,2.34,1.73A3.07,3.07,0,0,0,336.1,478.3Z"/><path class="cls-4" d="M358.92,476.23a5.16,5.16,0,0,1-5.36,5.43,4.46,4.46,0,0,1-3.78-1.81v1.69h-1.84V466.69h1.92v5.84a4.51,4.51,0,0,1,3.7-1.7A5.14,5.14,0,0,1,358.92,476.23Zm-1.94,0A3.57,3.57,0,1,0,353.4,480,3.49,3.49,0,0,0,357,476.23Z"/><path class="cls-4" d="M369.88,475.13v6.41h-1.82v-1.4a3.93,3.93,0,0,1-3.48,1.52c-2.4,0-3.92-1.28-3.92-3.13,0-1.7,1.1-3.1,4.26-3.1h3v-.38c0-1.62-.94-2.56-2.84-2.56a5.36,5.36,0,0,0-3.36,1.14l-.8-1.44a7.06,7.06,0,0,1,4.38-1.36C368.24,470.83,369.88,472.23,369.88,475.13ZM368,478.3v-1.49h-3c-1.9,0-2.44.75-2.44,1.64,0,1.07.88,1.73,2.34,1.73A3.07,3.07,0,0,0,368,478.3Z"/><path class="cls-4" d="M380.2,481.54l-3.06-4.06-3.1,4.06H371.9l4.18-5.43-4-5.18h2.14l2.92,3.82,2.9-3.82h2.1l-4,5.18,4.22,5.43Z"/><path class="cls-4" d="M384.48,470.93h1.92v10.61h-1.92Z"/><path class="cls-4" d="M389.38,475.21h5.38v1.66h-5.38Z"/><path class="cls-4" d="M64.36,499.43v6.11H62.44v-5.89c0-2.08-1-3.1-2.74-3.1-1.92,0-3.18,1.22-3.18,3.52v5.47H54.6v-5.89c0-2.08-1-3.1-2.74-3.1-1.92,0-3.18,1.22-3.18,3.52v5.47H46.76V494.93H48.6v1.58a4.3,4.3,0,0,1,3.66-1.68,3.92,3.92,0,0,1,3.68,2,4.78,4.78,0,0,1,4.08-2C62.6,494.83,64.36,496.31,64.36,499.43Z"/><path class="cls-4" d="M67.9,494.93h1.92v10.61H67.9Z"/><path class="cls-4" d="M83.54,499.43v6.11H81.62v-5.89c0-2.08-1-3.1-2.86-3.1-2,0-3.36,1.22-3.36,3.52v5.47H73.48V494.93h1.84v1.6a4.54,4.54,0,0,1,3.82-1.7C81.72,494.83,83.54,496.31,83.54,499.43Z"/><path class="cls-4" d="M97.16,490.69v14.85H95.32v-1.69a4.46,4.46,0,0,1-3.78,1.81,5.42,5.42,0,0,1,0-10.83,4.51,4.51,0,0,1,3.7,1.7v-5.84Zm-1.9,9.54A3.57,3.57,0,1,0,91.7,504,3.49,3.49,0,0,0,95.26,500.23Z"/><path class="cls-4" d="M109.2,499.13v6.41h-1.82v-1.4a3.93,3.93,0,0,1-3.48,1.52c-2.4,0-3.92-1.28-3.92-3.13,0-1.7,1.1-3.1,4.26-3.1h3v-.38c0-1.62-.94-2.56-2.84-2.56a5.36,5.36,0,0,0-3.36,1.14l-.81-1.44a7.11,7.11,0,0,1,4.39-1.36C107.56,494.83,109.2,496.23,109.2,499.13Zm-1.92,3.17v-1.49h-3c-1.9,0-2.44.75-2.44,1.64,0,1.07.88,1.73,2.34,1.73A3.07,3.07,0,0,0,107.28,502.3Z"/><path class="cls-4" d="M122.82,499.43v6.11H120.9v-5.89c0-2.08-1-3.1-2.86-3.1-2,0-3.36,1.22-3.36,3.52v5.47h-1.92V494.93h1.84v1.6a4.54,4.54,0,0,1,3.82-1.7C121,494.83,122.82,496.31,122.82,499.43Z"/><path class="cls-4" d="M142.65,494.93v9.17c0,3.74-1.9,5.44-5.5,5.44a7.85,7.85,0,0,1-5.06-1.58l.92-1.48a6.47,6.47,0,0,0,4.08,1.38c2.5,0,3.64-1.16,3.64-3.56v-.84a4.85,4.85,0,0,1-3.82,1.64,5.14,5.14,0,1,1,0-10.27,4.84,4.84,0,0,1,3.92,1.74v-1.64Zm-1.88,5a3.66,3.66,0,0,0-7.3,0,3.65,3.65,0,0,0,7.3,0Z"/><path class="cls-4" d="M156.19,494.93v10.61h-1.82v-1.6a4.31,4.31,0,0,1-3.6,1.72c-2.74,0-4.56-1.5-4.56-4.63v-6.1h1.92v5.88c0,2.08,1,3.13,2.86,3.13,2,0,3.28-1.25,3.28-3.53v-5.48Zm-7.86-2.9a1,1,0,1,1,2,0,1,1,0,0,1-2,0Zm3.72,0a1,1,0,1,1,2,0,1,1,0,0,1-2,0Z"/><path class="cls-4" d="M158.87,500.23a5.3,5.3,0,0,1,5.6-5.4,4.73,4.73,0,0,1,4.32,2.26l-1.46.94a3.3,3.3,0,0,0-2.88-1.52,3.74,3.74,0,0,0,0,7.47,3.29,3.29,0,0,0,2.88-1.53l1.46.93a4.74,4.74,0,0,1-4.32,2.28A5.32,5.32,0,0,1,158.87,500.23Z"/><path class="cls-4" d="M171.13,490.69h1.92v14.85h-1.92Z"/><path class="cls-4" d="M186.29,500.23a5.19,5.19,0,0,1-5.32,5.41,5.11,5.11,0,0,1-5.24-5.47c0-.16,0-.4,0-.58h8.6a3.59,3.59,0,0,0-3.84-3.1,4,4,0,0,0-3.06,1.28l-1.06-1.24a5.32,5.32,0,0,1,4.18-1.72C184,494.81,186.29,497.07,186.29,500.23Zm-1.92.75h-6.8a3.42,3.42,0,0,0,6.8,0Z"/><path class="cls-4" d="M199,499.43v6.11h-1.92v-5.89c0-2.08-1-3.1-2.86-3.1-2,0-3.36,1.22-3.36,3.52v5.47H189V494.93h1.84v1.6a4.54,4.54,0,0,1,3.82-1.7C197.19,494.83,199,496.31,199,499.43Z"/><path class="cls-4" d="M212.63,490.69v14.85h-1.84v-1.69a4.46,4.46,0,0,1-3.78,1.81,5.42,5.42,0,0,1,0-10.83,4.51,4.51,0,0,1,3.7,1.7v-5.84Zm-1.9,9.54a3.57,3.57,0,1,0-3.56,3.75A3.49,3.49,0,0,0,210.73,500.23Z"/><path class="cls-4" d="M216.05,491.85a1.18,1.18,0,0,1,2.36,0,1.18,1.18,0,1,1-2.36,0Zm.22,3.08h1.92v10.61h-1.92Z"/><path class="cls-4" d="M227.55,494.83v1.86a3.39,3.39,0,0,0-.44,0c-2.06,0-3.34,1.26-3.34,3.58v5.29h-1.92V494.93h1.84v1.78C224.37,495.47,225.69,494.83,227.55,494.83Z"/><path class="cls-4" d="M229.69,491.85a1.18,1.18,0,0,1,2.36,0,1.18,1.18,0,1,1-2.36,0Zm.22,3.08h1.92v10.61h-1.92Z"/><path class="cls-4" d="M246.47,500.23a5.16,5.16,0,0,1-5.36,5.43,4.46,4.46,0,0,1-3.78-1.81v1.69h-1.84V490.69h1.92v5.84a4.51,4.51,0,0,1,3.7-1.7A5.14,5.14,0,0,1,246.47,500.23Zm-1.94,0A3.57,3.57,0,1,0,241,504,3.49,3.49,0,0,0,244.53,500.23Z"/><path class="cls-4" d="M250.67,504.27a4,4,0,0,1-.34,1.45l-.94,2.78h-1.26l.74-3a1.28,1.28,0,0,1-.84-1.25,1.31,1.31,0,0,1,1.34-1.35A1.29,1.29,0,0,1,250.67,504.27Z"/><path class="cls-4" d="M258.58,500.23a5.52,5.52,0,1,1,5.52,5.43A5.27,5.27,0,0,1,258.58,500.23Zm9.09,0A3.58,3.58,0,1,0,264.1,504,3.49,3.49,0,0,0,267.67,500.23ZM261.2,492a1,1,0,1,1,2,0,1,1,0,0,1-2,0Zm3.73,0a1,1,0,1,1,2,0,1,1,0,0,1-2,0Z"/><path class="cls-4" d="M280,504v1.58h-8.88V504.3l6.26-7.79H271.2v-1.58h8.61v1.26L273.54,504Z"/><path class="cls-4" d="M291.94,500.23a5.19,5.19,0,0,1-5.32,5.41,5.11,5.11,0,0,1-5.24-5.47c0-.16,0-.4,0-.58H290a3.59,3.59,0,0,0-3.84-3.1,4,4,0,0,0-3.06,1.28l-1.06-1.24a5.32,5.32,0,0,1,4.18-1.72C289.66,494.81,291.94,497.07,291.94,500.23ZM290,501h-6.8a3.42,3.42,0,0,0,6.8,0Z"/><path class="cls-4" d="M294.6,490.69h1.92v14.85H294.6Z"/><path class="cls-4" d="M316.32,490.69v14.85h-1.84v-1.69a4.46,4.46,0,0,1-3.78,1.81,5.42,5.42,0,0,1,0-10.83,4.51,4.51,0,0,1,3.7,1.7v-5.84Zm-1.9,9.54a3.57,3.57,0,1,0-3.56,3.75A3.49,3.49,0,0,0,314.42,500.23Z"/><path class="cls-4" d="M319.74,491.85a1.18,1.18,0,1,1,2.36,0,1.18,1.18,0,1,1-2.36,0Zm.22,3.08h1.92v10.61H320Z"/><path class="cls-4" d="M333.4,504v1.58h-8.88V504.3l6.26-7.79h-6.14v-1.58h8.6v1.26L327,504Z"/><path class="cls-4" d="M344.36,499.13v6.41h-1.82v-1.4a3.93,3.93,0,0,1-3.48,1.52c-2.4,0-3.92-1.28-3.92-3.13,0-1.7,1.1-3.1,4.26-3.1h3v-.38c0-1.62-.94-2.56-2.84-2.56a5.36,5.36,0,0,0-3.36,1.14l-.8-1.44a7.06,7.06,0,0,1,4.38-1.36C342.72,494.83,344.36,496.23,344.36,499.13Zm-1.92,3.17v-1.49h-3c-1.9,0-2.44.75-2.44,1.64,0,1.07.88,1.73,2.34,1.73A3.07,3.07,0,0,0,342.44,502.3Z"/><path class="cls-4" d="M357.1,494.93,352,506.6c-.94,2.24-2.16,2.94-3.78,2.94a4,4,0,0,1-2.72-1l.82-1.44a2.71,2.71,0,0,0,1.9.78c.92,0,1.5-.42,2-1.64l.34-.74-4.68-10.59h2l3.7,8.49,3.66-8.49Z"/><path class="cls-4" d="M369,499.43v6.11H367v-5.89c0-2.08-1-3.1-2.86-3.1-2,0-3.36,1.22-3.36,3.52v5.47H358.9V494.93h1.84v1.6a4.54,4.54,0,0,1,3.82-1.7C367.14,494.83,369,496.31,369,499.43Z"/><path class="cls-4" d="M372.52,490.69h1.92v14.85h-1.92Z"/><path class="cls-4" d="M386.5,499.13v6.41h-1.82v-1.4a3.93,3.93,0,0,1-3.48,1.52c-2.4,0-3.92-1.28-3.92-3.13,0-1.7,1.1-3.1,4.26-3.1h3v-.38c0-1.62-.94-2.56-2.84-2.56a5.36,5.36,0,0,0-3.36,1.14l-.8-1.44a7.06,7.06,0,0,1,4.38-1.36C384.86,494.83,386.5,496.23,386.5,499.13Zm-1.92,3.17v-1.49h-3c-1.9,0-2.44.75-2.44,1.64,0,1.07.88,1.73,2.34,1.73A3.07,3.07,0,0,0,384.58,502.3Z"/><path class="cls-4" d="M389.38,499.21h5.38v1.66h-5.38Z"/><path class="cls-4" d="M52.46,518.83v1.86a3.39,3.39,0,0,0-.44,0c-2.06,0-3.34,1.26-3.34,3.58v5.29H46.76V518.93H48.6v1.78C49.28,519.47,50.6,518.83,52.46,518.83Z"/><path class="cls-4" d="M54.64,518.93h1.92v10.61H54.64Z"/><path class="cls-4" d="M77.64,523.43v6.11H75.72v-5.89c0-2.08-1-3.1-2.74-3.1-1.92,0-3.19,1.22-3.19,3.52v5.47H67.87v-5.89c0-2.08-1-3.1-2.74-3.1-1.92,0-3.18,1.22-3.18,3.52v5.47H60V518.93h1.84v1.58a4.3,4.3,0,0,1,3.66-1.68,3.92,3.92,0,0,1,3.68,2,4.81,4.81,0,0,1,4.09-2C75.88,518.83,77.64,520.31,77.64,523.43Z"/><path class="cls-4" d="M81,518.93h1.92v10.61H81Z"/><path class="cls-4" d="M94.25,528v1.58H85.37V528.3l6.26-7.79H85.49v-1.58h8.6v1.26L87.83,528Z"/><path class="cls-4" d="M100.89,515.85a1.18,1.18,0,1,1,2.36,0,1.18,1.18,0,1,1-2.36,0Zm.22,3.08H103v10.61h-1.92Z"/><path class="cls-4" d="M106.51,514.69h1.92v14.85h-1.92Z"/><path class="cls-4" d="M121.49,524.23a5.19,5.19,0,0,1-5.32,5.41,5.11,5.11,0,0,1-5.24-5.47c0-.16,0-.4,0-.58h8.6a3.59,3.59,0,0,0-3.84-3.1,4,4,0,0,0-3.06,1.28l-1.06-1.24a5.32,5.32,0,0,1,4.18-1.72C119.21,518.81,121.49,521.07,121.49,524.23Zm-1.92.75h-6.8a3.42,3.42,0,0,0,6.8,0Z"/><path class="cls-4" d="M128.23,515.85a1.18,1.18,0,1,1,2.36,0,1.18,1.18,0,1,1-2.36,0Zm.22,3.08h1.92v10.61h-1.92Z"/><path class="cls-4" d="M137.47,529.64l-.24.9c1.16.12,1.74.78,1.74,1.66,0,1.12-1,1.82-2.48,1.82a3.36,3.36,0,0,1-1.78-.44l.42-1a2.64,2.64,0,0,0,1.36.34c.76,0,1.12-.3,1.12-.8s-.34-.78-1.14-.78h-.54l.44-1.72a7.17,7.17,0,0,1-3.86-1.22l.8-1.53A6.73,6.73,0,0,0,137,528c1.78,0,2.52-.54,2.52-1.44,0-2.39-6.7-.33-6.7-4.55,0-1.9,1.7-3.18,4.42-3.18a7.71,7.71,0,0,1,3.86,1l-.82,1.52a5.54,5.54,0,0,0-3.06-.84c-1.68,0-2.5.62-2.5,1.46,0,2.5,6.72.46,6.72,4.59C141.47,528.3,140,529.48,137.47,529.64Z"/><path class="cls-4" d="M165.78,523.43v6.11h-1.92v-5.89c0-2.08-1-3.1-2.74-3.1-1.92,0-3.18,1.22-3.18,3.52v5.47H156v-5.89c0-2.08-1-3.1-2.74-3.1-1.92,0-3.18,1.22-3.18,3.52v5.47h-1.92V518.93H150v1.58a4.3,4.3,0,0,1,3.66-1.68,3.92,3.92,0,0,1,3.68,2,4.78,4.78,0,0,1,4.08-2C164,518.83,165.78,520.31,165.78,523.43Z"/><path class="cls-4" d="M179,518.93v10.61h-1.82v-1.6a4.31,4.31,0,0,1-3.6,1.72c-2.74,0-4.56-1.5-4.56-4.63v-6.1H171v5.88c0,2.08,1,3.13,2.86,3.13,2,0,3.28-1.25,3.28-3.53v-5.48Zm-7.86-2.9a1,1,0,1,1,2,0,1,1,0,0,1-2,0Zm3.72,0a1,1,0,1,1,2,0,1,1,0,0,1-2,0Z"/><path class="cls-4" d="M188.19,518.83v1.86a3.39,3.39,0,0,0-.44,0c-2.06,0-3.34,1.26-3.34,3.58v5.29h-1.92V518.93h1.84v1.78C185,519.47,186.33,518.83,188.19,518.83Z"/><path class="cls-4" d="M198.75,523.13v6.41h-1.82v-1.4a3.93,3.93,0,0,1-3.48,1.52c-2.4,0-3.92-1.28-3.92-3.13,0-1.7,1.1-3.1,4.26-3.1h3v-.38c0-1.62-.94-2.56-2.84-2.56a5.36,5.36,0,0,0-3.36,1.14l-.8-1.44a7.06,7.06,0,0,1,4.38-1.36C197.11,518.83,198.75,520.23,198.75,523.13Zm-1.92,3.17v-1.49h-3c-1.9,0-2.44.75-2.44,1.64,0,1.07.88,1.73,2.34,1.73A3.07,3.07,0,0,0,196.83,526.3Z"/><path class="cls-4" d="M201.21,524.23a5.3,5.3,0,0,1,5.6-5.4,4.73,4.73,0,0,1,4.32,2.26l-1.46.94a3.3,3.3,0,0,0-2.88-1.52,3.74,3.74,0,0,0,0,7.47,3.29,3.29,0,0,0,2.88-1.53l1.46.93a4.74,4.74,0,0,1-4.32,2.28A5.32,5.32,0,0,1,201.21,524.23Z"/><path class="cls-4" d="M213.2,515.85a1.18,1.18,0,1,1,2.36,0,1.18,1.18,0,1,1-2.36,0Zm.22,3.08h1.93v10.61h-1.93Z"/><path class="cls-4" d="M228.4,524.23a5.19,5.19,0,0,1-5.32,5.41,5.11,5.11,0,0,1-5.24-5.47c0-.16,0-.4,0-.58h8.6a3.59,3.59,0,0,0-3.84-3.1,4,4,0,0,0-3.06,1.28l-1.06-1.24a5.32,5.32,0,0,1,4.18-1.72C226.12,518.81,228.4,521.07,228.4,524.23Zm-1.92.75h-6.8a3.42,3.42,0,0,0,6.8,0Z"/><path class="cls-4" d="M236.84,528.92a3.62,3.62,0,0,1-2.32.74,3,3,0,0,1-3.36-3.32v-5.83h-1.8v-1.58h1.8v-2.32h1.92v2.32h3v1.58h-3v5.75a1.57,1.57,0,0,0,1.66,1.78,2.48,2.48,0,0,0,1.5-.5Z"/><path class="cls-4" d="M239,514.69h1.92v14.85H239Z"/><path class="cls-4" d="M254,524.23a5.19,5.19,0,0,1-5.32,5.41,5.11,5.11,0,0,1-5.24-5.47c0-.16,0-.4,0-.58H252a3.59,3.59,0,0,0-3.84-3.1,4,4,0,0,0-3.06,1.28l-1.06-1.24a5.32,5.32,0,0,1,4.18-1.72C251.68,518.81,254,521.07,254,524.23ZM252,525h-6.8a3.42,3.42,0,0,0,6.8,0Z"/><path class="cls-4" d="M262.14,518.83v1.86a3.39,3.39,0,0,0-.44,0c-2.06,0-3.34,1.26-3.34,3.58v5.29h-1.92V518.93h1.84v1.78C259,519.47,260.28,518.83,262.14,518.83Z"/><path class="cls-4" d="M264.09,515.85a1.18,1.18,0,1,1,2.36,0,1.18,1.18,0,1,1-2.36,0Zm.22,3.08h1.92v10.61h-1.92Z"/><path class="cls-4" d="M279.77,523.43v6.11h-1.92v-5.89c0-2.08-1-3.1-2.86-3.1-2,0-3.36,1.22-3.36,3.52v5.47h-1.92V518.93h1.84v1.6a4.54,4.54,0,0,1,3.82-1.7C278,518.83,279.77,520.31,279.77,523.43Z"/><path class="cls-4" d="M293.21,514.69v14.85h-1.84v-1.69a4.46,4.46,0,0,1-3.78,1.81,5.42,5.42,0,0,1,0-10.83,4.51,4.51,0,0,1,3.7,1.7v-5.84Zm-1.9,9.54a3.57,3.57,0,1,0-3.56,3.75A3.49,3.49,0,0,0,291.31,524.23Z"/><path class="cls-4" d="M306.25,524.23a5.19,5.19,0,0,1-5.32,5.41,5.11,5.11,0,0,1-5.24-5.47c0-.16,0-.4,0-.58h8.6a3.59,3.59,0,0,0-3.84-3.1,4,4,0,0,0-3.06,1.28l-1.06-1.24a5.32,5.32,0,0,1,4.18-1.72C304,518.81,306.25,521.07,306.25,524.23Zm-1.92.75h-6.8a3.42,3.42,0,0,0,6.8,0Z"/><path class="cls-4" d="M323.09,518.93v10.61h-1.82v-1.6a4.31,4.31,0,0,1-3.6,1.72c-2.74,0-4.56-1.5-4.56-4.63v-6.1H315v5.88c0,2.08,1,3.13,2.86,3.13,2,0,3.28-1.25,3.28-3.53v-5.48Zm-7.86-2.9a1,1,0,1,1,2,0,1,1,0,0,1-2,0Zm3.72,0a1,1,0,1,1,2,0,1,1,0,1,1-2,0Z"/><path class="cls-4" d="M325.23,528.42l.8-1.53a6.73,6.73,0,0,0,3.72,1.11c1.78,0,2.52-.54,2.52-1.44,0-2.39-6.7-.33-6.7-4.55,0-1.9,1.7-3.18,4.42-3.18a7.71,7.71,0,0,1,3.86,1l-.82,1.52a5.54,5.54,0,0,0-3.06-.84c-1.68,0-2.5.62-2.5,1.46,0,2.5,6.72.46,6.72,4.59,0,1.92-1.76,3.14-4.58,3.14A7.65,7.65,0,0,1,325.23,528.42Z"/><path class="cls-4" d="M342.37,528.92a3.62,3.62,0,0,1-2.32.74,3,3,0,0,1-3.36-3.32v-5.83h-1.8v-1.58h1.8v-2.32h1.92v2.32h3v1.58h-3v5.75a1.57,1.57,0,0,0,1.66,1.78,2.48,2.48,0,0,0,1.5-.5Z"/><path class="cls-4" d="M354.39,518.93v10.61h-1.82v-1.6a4.31,4.31,0,0,1-3.6,1.72c-2.74,0-4.56-1.5-4.56-4.63v-6.1h1.92v5.88c0,2.08,1,3.13,2.86,3.13,2,0,3.28-1.25,3.28-3.53v-5.48Zm-7.86-2.9a1,1,0,1,1,2,0,1,1,0,1,1-2,0Zm3.72,0a1,1,0,1,1,2,0,1,1,0,1,1-2,0Z"/><path class="cls-4" d="M367.93,523.43v6.11H366v-5.89c0-2.08-1-3.1-2.86-3.1-2,0-3.36,1.22-3.36,3.52v5.47h-1.92V518.93h1.84v1.6a4.54,4.54,0,0,1,3.82-1.7C366.1,518.83,367.93,520.31,367.93,523.43Z"/><path class="cls-4" d="M371.3,514.69h1.92v14.85H371.3Z"/><path class="cls-4" d="M386.58,518.93v10.61h-1.82v-1.6a4.31,4.31,0,0,1-3.6,1.72c-2.74,0-4.56-1.5-4.56-4.63v-6.1h1.92v5.88c0,2.08,1,3.13,2.86,3.13,2,0,3.28-1.25,3.28-3.53v-5.48Zm-7.86-2.9a1,1,0,1,1,2,0,1,1,0,0,1-2,0Zm3.72,0a1,1,0,1,1,2,0,1,1,0,1,1-2,0Z"/><path class="cls-4" d="M389.38,523.21h5.38v1.66h-5.38Z"/><path class="cls-4" d="M56.14,542.93,51,554.6c-.94,2.24-2.16,2.94-3.78,2.94a4,4,0,0,1-2.72-1l.82-1.44a2.71,2.71,0,0,0,1.9.78c.92,0,1.5-.42,2-1.64l.34-.74L44.9,542.93h2l3.7,8.49,3.66-8.49Z"/><path class="cls-4" d="M67.82,542.93v10.61H66v-1.6a4.31,4.31,0,0,1-3.6,1.72c-2.74,0-4.56-1.5-4.56-4.63v-6.1h1.92v5.88c0,2.08,1,3.13,2.86,3.13,2,0,3.28-1.25,3.28-3.53v-5.48ZM60,540a1,1,0,1,1,2,0,1,1,0,0,1-2,0Zm3.72,0a1,1,0,1,1,2,0,1,1,0,1,1-2,0Z"/><path class="cls-4" d="M81.54,547.43v6.11H79.62v-5.89c0-2.08-1-3.1-2.86-3.1-2,0-3.36,1.22-3.36,3.52v5.47H71.48V542.93h1.84v1.6a4.54,4.54,0,0,1,3.82-1.7C79.72,542.83,81.54,544.31,81.54,547.43Z"/><path class="cls-4" d="M95,542.93v10.61H93.16v-1.6a4.31,4.31,0,0,1-3.6,1.72c-2.74,0-4.56-1.5-4.56-4.63v-6.1h1.92v5.88c0,2.08,1,3.13,2.86,3.13,2,0,3.28-1.25,3.28-3.53v-5.48ZM87.12,540a1,1,0,1,1,2,0,1,1,0,0,1-2,0Zm3.72,0a1,1,0,1,1,2,0,1,1,0,0,1-2,0Z"/><path class="cls-4" d="M106.5,552v1.58H97.62V552.3l6.26-7.79H97.74v-1.58h8.6v1.26L100.08,552Z"/><path class="cls-4" d="M118.94,542.93v10.61h-1.82v-1.6a4.31,4.31,0,0,1-3.6,1.72c-2.74,0-4.56-1.5-4.56-4.63v-6.1h1.92v5.88c0,2.08,1,3.13,2.86,3.13,2,0,3.28-1.25,3.28-3.53v-5.48Zm-7.86-2.9a1,1,0,1,1,2,0,1,1,0,0,1-2,0Zm3.72,0a1,1,0,1,1,2,0,1,1,0,0,1-2,0Z"/><path class="cls-4" d="M127,548.23a5.51,5.51,0,1,1,5.52,5.43A5.27,5.27,0,0,1,127,548.23Zm9.08,0a3.57,3.57,0,1,0-7.14,0,3.57,3.57,0,1,0,7.14,0Z"/><path class="cls-4" d="M146.38,542.83v1.86a3.39,3.39,0,0,0-.44,0c-2.06,0-3.34,1.26-3.34,3.58v5.29h-1.92V542.93h1.84v1.78C143.2,543.47,144.52,542.83,146.38,542.83Z"/><path class="cls-4" d="M155.14,552.92a3.62,3.62,0,0,1-2.32.74,3,3,0,0,1-3.36-3.32v-5.83h-1.8v-1.58h1.8v-2.32h1.92v2.32h3v1.58h-3v5.75A1.57,1.57,0,0,0,153,552a2.48,2.48,0,0,0,1.5-.5Z"/><path class="cls-4" d="M165.86,547.13v6.41H164v-1.4a3.93,3.93,0,0,1-3.48,1.52c-2.4,0-3.92-1.28-3.92-3.13,0-1.7,1.1-3.1,4.26-3.1h3v-.38c0-1.62-.94-2.56-2.84-2.56a5.36,5.36,0,0,0-3.36,1.14l-.8-1.44a7.06,7.06,0,0,1,4.38-1.36C164.22,542.83,165.86,544.23,165.86,547.13Zm-1.92,3.17v-1.49h-3c-1.9,0-2.44.75-2.44,1.64,0,1.07.88,1.73,2.34,1.73A3.07,3.07,0,0,0,163.94,550.3Z"/><path class="cls-4" d="M178.6,542.93l-5.14,11.67c-.94,2.24-2.16,2.94-3.78,2.94a4,4,0,0,1-2.72-1l.82-1.44a2.71,2.71,0,0,0,1.9.78c.92,0,1.5-.42,2-1.64l.34-.74-4.68-10.59h2l3.7,8.49,3.66-8.49Z"/><path class="cls-4" d="M188.46,547.13v6.41h-1.82v-1.4a3.93,3.93,0,0,1-3.48,1.52c-2.4,0-3.93-1.28-3.93-3.13,0-1.7,1.11-3.1,4.27-3.1h3v-.38c0-1.62-.94-2.56-2.84-2.56a5.36,5.36,0,0,0-3.36,1.14l-.81-1.44a7.11,7.11,0,0,1,4.39-1.36C186.82,542.83,188.46,544.23,188.46,547.13Zm-1.92,3.17v-1.49h-3c-1.9,0-2.44.75-2.44,1.64,0,1.07.88,1.73,2.34,1.73A3.07,3.07,0,0,0,186.54,550.3Z"/><path class="cls-4" d="M204.88,550.45l1.46.93a4.7,4.7,0,0,1-4.28,2.28l-.24.88c1.16.12,1.74.78,1.74,1.66,0,1.12-1,1.82-2.48,1.82a3.36,3.36,0,0,1-1.78-.44l.42-1a2.64,2.64,0,0,0,1.36.34c.76,0,1.12-.3,1.12-.8s-.34-.78-1.14-.78h-.54l.46-1.78a5.24,5.24,0,0,1-4.57-5.35,5.3,5.3,0,0,1,5.61-5.4,4.73,4.73,0,0,1,4.32,2.26l-1.46.94a3.3,3.3,0,0,0-2.88-1.52,3.74,3.74,0,0,0,0,7.47A3.29,3.29,0,0,0,204.88,550.45Z"/><path class="cls-4" d="M208.81,542.93h1.93v10.61h-1.93Z"/><path class="cls-4" d="M221.16,553.54l-3.06-4.06-3.1,4.06h-2.15l4.19-5.43-4-5.18h2.13l2.93,3.82,2.9-3.82h2.1l-4,5.18,4.22,5.43Z"/><path class="cls-4" d="M233.64,547.13v6.41h-1.82v-1.4a3.93,3.93,0,0,1-3.48,1.52c-2.4,0-3.92-1.28-3.92-3.13,0-1.7,1.1-3.1,4.26-3.1h3v-.38c0-1.62-.94-2.56-2.84-2.56a5.36,5.36,0,0,0-3.36,1.14l-.8-1.44a7.06,7.06,0,0,1,4.38-1.36C232,542.83,233.64,544.23,233.64,547.13Zm-1.92,3.17v-1.49h-3c-1.9,0-2.44.75-2.44,1.64,0,1.07.88,1.73,2.34,1.73A3.07,3.07,0,0,0,231.72,550.3Z"/><path class="cls-4" d="M242.9,542.83v1.86a3.39,3.39,0,0,0-.44,0c-2.06,0-3.34,1.26-3.34,3.58v5.29H237.2V542.93H239v1.78C239.72,543.47,241,542.83,242.9,542.83Z"/><path class="cls-4" d="M255.16,538.69v14.85h-1.84v-1.69a4.46,4.46,0,0,1-3.78,1.81,5.42,5.42,0,0,1,0-10.83,4.51,4.51,0,0,1,3.7,1.7v-5.84Zm-1.9,9.54A3.57,3.57,0,1,0,249.7,552,3.49,3.49,0,0,0,253.26,548.23Z"/><path class="cls-4" d="M267.2,547.13v6.41h-1.82v-1.4a3.93,3.93,0,0,1-3.48,1.52c-2.4,0-3.92-1.28-3.92-3.13,0-1.7,1.1-3.1,4.26-3.1h3v-.38c0-1.62-.94-2.56-2.84-2.56a5.36,5.36,0,0,0-3.36,1.14l-.81-1.44a7.11,7.11,0,0,1,4.39-1.36C265.56,542.83,267.2,544.23,267.2,547.13Zm-1.92,3.17v-1.49h-3c-1.9,0-2.44.75-2.44,1.64,0,1.07.88,1.73,2.34,1.73A3.07,3.07,0,0,0,265.28,550.3Z"/><path class="cls-4" d="M287.12,548.23a5.16,5.16,0,0,1-5.36,5.43,4.46,4.46,0,0,1-3.78-1.81v1.69h-1.84V538.69h1.92v5.84a4.51,4.51,0,0,1,3.7-1.7A5.14,5.14,0,0,1,287.12,548.23Zm-1.94,0A3.57,3.57,0,1,0,281.6,552,3.49,3.49,0,0,0,285.18,548.23Z"/><path class="cls-4" d="M289.56,539.85a1.16,1.16,0,0,1,1.17-1.18,1.18,1.18,0,0,1,1.19,1.18,1.17,1.17,0,0,1-1.19,1.18A1.15,1.15,0,0,1,289.56,539.85Zm.21,3.08h1.93v10.61h-1.93Z"/><path class="cls-4" d="M295.35,538.69h1.93v14.85h-1.93Z"/><path class="cls-4" d="M310.52,548.23a5.19,5.19,0,0,1-5.32,5.41,5.12,5.12,0,0,1-5.25-5.47c0-.16,0-.4,0-.58h8.61a3.59,3.59,0,0,0-3.84-3.1,4,4,0,0,0-3.07,1.28l-1.05-1.24a5.32,5.32,0,0,1,4.18-1.72C308.24,542.81,310.52,545.07,310.52,548.23Zm-1.92.75h-6.8a3.42,3.42,0,0,0,6.8,0Z"/><path class="cls-4" d="M318.88,542.83v1.86a3.39,3.39,0,0,0-.44,0c-2.06,0-3.34,1.26-3.34,3.58v5.29h-1.92V542.93H315v1.78C315.7,543.47,317,542.83,318.88,542.83Z"/><path class="cls-4" d="M320,552.42l.8-1.53A6.73,6.73,0,0,0,324.5,552c1.78,0,2.52-.54,2.52-1.44,0-2.39-6.7-.33-6.7-4.55,0-1.9,1.7-3.18,4.42-3.18a7.71,7.71,0,0,1,3.86,1l-.82,1.52a5.54,5.54,0,0,0-3.06-.84c-1.68,0-2.5.62-2.5,1.46,0,2.5,6.72.46,6.72,4.59,0,1.92-1.76,3.14-4.58,3.14A7.65,7.65,0,0,1,320,552.42Z"/><path class="cls-4" d="M331.12,539.85a1.18,1.18,0,1,1,2.36,0,1.18,1.18,0,1,1-2.36,0Zm.22,3.08h1.92v10.61h-1.92Z"/><path class="cls-4" d="M347,547.43v6.11h-1.92v-5.89c0-2.08-1-3.1-2.86-3.1-2,0-3.36,1.22-3.36,3.52v5.47h-1.92V542.93h1.84v1.6a4.54,4.54,0,0,1,3.82-1.7C345.16,542.83,347,544.31,347,547.43Z"/><path class="cls-4" d="M350.32,539.85a1.18,1.18,0,1,1,2.36,0,1.18,1.18,0,1,1-2.36,0Zm.22,3.08h1.92v10.61h-1.92Z"/><path class="cls-4" d="M364,552v1.58H355.1V552.3l6.26-7.79h-6.14v-1.58h8.6v1.26L357.56,552Z"/><path class="cls-4" d="M365.69,552.27a1.34,1.34,0,0,1,1.37-1.35,1.31,1.31,0,0,1,1.32,1.35,1.34,1.34,0,0,1-1.32,1.39A1.36,1.36,0,0,1,365.69,552.27Z"/><path class="cls-10" d="M778.07,549.25c.34.23,1.16-.53,1.1.55,0,.63,0,1.27,0,1.91v363.6c-.6.18-1.21.36-1.82.52L703.4,934.74l-171.81,44q-85.91,22-171.8,44-89.21,22.82-178.39,45.66c-8.92,2.29-17.93,4.29-26.73,7.06q-76.21,0-152.43,0c-1.87,0-2.24-.37-2.24-2.24Q.09,910.94.05,748.67l85.26-21.84,174-44.51,174.21-44.58,167.37-42.86q77.37-19.82,154.74-39.64C763.1,553.31,770.71,551.75,778.07,549.25Z"/><path class="cls-10" d="M1080.48,836.11V998.66c-.61.17-1.21.36-1.82.52l-88.2,22.59q-89.38,22.88-178.77,45.74c-8.85,2.27-17.67,4.67-26.51,7-4.6,0-9.2-.08-13.79,0-1.56,0-2-.23-2-1.91.08-16.68.05-33.36.05-50V915.22a5.6,5.6,0,0,0,2.62-.37q57.39-14.73,114.79-29.4,85.3-21.83,170.62-43.65C1065.14,839.85,1072.72,837.6,1080.48,836.11Z"/><path class="cls-22" d="M850.47,1031.16a20.26,20.26,0,1,1,20.26-20.26A20.28,20.28,0,0,1,850.47,1031.16Zm0-39a18.72,18.72,0,1,0,18.72,18.72A18.74,18.74,0,0,0,850.47,992.18Z"/><path class="cls-23" d="M861.16,1010.36a10.5,10.5,0,0,0-21-.19c0,.15,0,.3,0,.45a10.36,10.36,0,0,0,1.5,5.38l-1.89,5.59,5.81-1.85a10.51,10.51,0,0,0,15.57-9.12Zm-10.49,9a8.79,8.79,0,0,1-4.86-1.45l-3.39,1.08,1.1-3.25a8.66,8.66,0,0,1-1.68-5.14,8.06,8.06,0,0,1,0-.85,8.83,8.83,0,0,1,17.58.17c0,.23,0,.45,0,.68A8.8,8.8,0,0,1,850.67,1019.38Z"/><path class="cls-23" d="M855.48,1012.73c-.26-.13-1.53-.75-1.76-.83s-.41-.13-.58.12-.67.83-.82,1-.3.19-.56.06a6.94,6.94,0,0,1-2.07-1.26,7.79,7.79,0,0,1-1.43-1.77c-.14-.25,0-.39.12-.52s.25-.3.38-.45l.1-.12a2.72,2.72,0,0,0,.16-.3.47.47,0,0,0,0-.45c-.06-.13-.58-1.39-.8-1.9s-.42-.42-.58-.42l-.49,0a1,1,0,0,0-.69.31,2.91,2.91,0,0,0-.89,2.14,3.22,3.22,0,0,0,.13.87,5.77,5.77,0,0,0,.92,1.77,10.53,10.53,0,0,0,4.39,3.85c2.62,1,2.62.68,3.09.64a2.61,2.61,0,0,0,1.74-1.22A2.19,2.19,0,0,0,856,1013,1.4,1.4,0,0,0,855.48,1012.73Z"/><rect class="cls-22" x="898.46" y="1006.28" width="4.03" height="13.03"/><path class="cls-22" d="M900.45,1004.57a2.41,2.41,0,1,0-2.38-2.4A2.4,2.4,0,0,0,900.45,1004.57Z"/><path class="cls-22" d="M908.94,1012.47c0-1.83.84-2.92,2.46-2.92s2.19,1,2.19,2.92v6.84h4v-8.25c0-3.49-2-5.18-4.75-5.18a4.53,4.53,0,0,0-3.92,2.15v-1.75h-3.87v13h3.87Z"/><path class="cls-22" d="M907.84,1031.16a20.26,20.26,0,1,1,20.26-20.26A20.28,20.28,0,0,1,907.84,1031.16Zm0-39a18.72,18.72,0,1,0,18.72,18.72A18.74,18.74,0,0,0,907.84,992.18Z"/><path class="cls-22" d="M962.23,1022.48H967V1010.6h3.31l.35-4H967v-2.26c0-.94.19-1.31,1.09-1.31h2.57v-4.13h-3.28c-3.54,0-5.13,1.56-5.13,4.53v3.17h-2.47v4h2.47Z"/><path class="cls-22" d="M965.2,1031.16a20.26,20.26,0,1,1,20.26-20.26A20.28,20.28,0,0,1,965.2,1031.16Zm0-39a18.72,18.72,0,1,0,18.73,18.72A18.74,18.74,0,0,0,965.2,992.18Z"/><path class="cls-22" d="M1022.27,1001.37c2.85,0,3.19,0,4.32.06a5.81,5.81,0,0,1,2,.37,3.54,3.54,0,0,1,2,2,5.81,5.81,0,0,1,.37,2c0,1.13.06,1.47.06,4.32s0,3.19-.06,4.32a5.81,5.81,0,0,1-.37,2,3.54,3.54,0,0,1-2,2,5.81,5.81,0,0,1-2,.37c-1.13,0-1.46.06-4.32.06s-3.19,0-4.32-.06a5.87,5.87,0,0,1-2-.37,3.16,3.16,0,0,1-1.23-.8,3.28,3.28,0,0,1-.8-1.23,5.81,5.81,0,0,1-.37-2c-.05-1.13-.06-1.47-.06-4.32s0-3.19.06-4.32a5.81,5.81,0,0,1,.37-2,3.28,3.28,0,0,1,.8-1.23,3.16,3.16,0,0,1,1.23-.8,5.87,5.87,0,0,1,2-.37c1.13,0,1.47-.06,4.32-.06m0-1.93c-2.9,0-3.27,0-4.41.07a7.94,7.94,0,0,0-2.59.49,5.25,5.25,0,0,0-1.89,1.24,5.09,5.09,0,0,0-1.23,1.89,7.66,7.66,0,0,0-.5,2.59c0,1.14-.07,1.51-.07,4.41s0,3.27.07,4.41a7.66,7.66,0,0,0,.5,2.59,5.09,5.09,0,0,0,1.23,1.89,5.25,5.25,0,0,0,1.89,1.24,7.94,7.94,0,0,0,2.59.49c1.14,0,1.51.07,4.41.07s3.27,0,4.41-.07a7.88,7.88,0,0,0,2.59-.49,5.56,5.56,0,0,0,3.13-3.13,7.94,7.94,0,0,0,.49-2.59c.06-1.14.07-1.51.07-4.41s0-3.27-.07-4.41a7.94,7.94,0,0,0-.49-2.59,5.56,5.56,0,0,0-3.13-3.13,7.88,7.88,0,0,0-2.59-.49c-1.14,0-1.51-.07-4.41-.07"/><path class="cls-22" d="M1022.27,1004.64a5.49,5.49,0,1,0,5.49,5.49,5.49,5.49,0,0,0-5.49-5.49m0,9.05a3.56,3.56,0,1,1,3.56-3.56,3.56,3.56,0,0,1-3.56,3.56"/><path class="cls-22" d="M1029.26,1004.43a1.29,1.29,0,1,1-1.28-1.29,1.29,1.29,0,0,1,1.28,1.29"/><path class="cls-22" d="M1022.27,1031.16a20.26,20.26,0,1,1,20.26-20.26A20.28,20.28,0,0,1,1022.27,1031.16Zm0-39A18.72,18.72,0,1,0,1041,1010.9,18.74,18.74,0,0,0,1022.27,992.18Z"/><text class="cls-24" transform="translate(97.98 992.74)">CV <tspan class="cls-25" x="0" y="36.66">H</tspan><tspan x="22.18" y="36.66">AZI</tspan><tspan class="cls-26" x="71.93" y="36.66">R</tspan><tspan class="cls-27" x="91.89" y="36.66">L</tspan><tspan x="109.57" y="36.66">A</tspan><tspan class="cls-25" x="130.9" y="36.66">M</tspan><tspan class="cls-28" x="157.58" y="36.66">A</tspan></text><path class="cls-22" d="M71.65,968.49l-4.42,5.72H45.3a3.1,3.1,0,0,0-3.11,3.1v43.87a3.1,3.1,0,0,0,3.11,3.1H68.88L71,1030H36.47V968.49Z"/><path class="cls-22" d="M71.5,1030,53.57,982.5,60,985.33l10.14,26.89a1.43,1.43,0,0,0,2.68,0l10.07-26.89,6.42-2.83Z"/><polygon class="cls-22" points="70.07 985.33 72.72 985.33 74.14 1001.76 71.77 1005.07 69.06 1001.81 70.07 985.33"/><polygon class="cls-22" points="71.41 981.91 69.66 983.74 70.11 985.06 72.72 985.06 73.16 983.71 71.41 981.91"/><polygon class="cls-22" points="71.65 981.73 77.42 980.42 74.89 985.33 71.65 981.73"/><polygon class="cls-22" points="71.15 981.73 65.38 980.42 67.92 985.33 71.15 981.73"/><rect class="cls-29" x="409.22" y="67.53" width="637.04" height="900.96"/><polygon class="cls-30" points="694.17 689.77 578.85 776.65 461.4 689.77 462.47 852.84 578.85 939.71 695.24 852.84 694.17 689.77"/><polygon class="cls-30" points="880.4 219.62 904.54 267.57 1046.26 183.57 1046.26 144.87 880.4 219.62"/><polygon class="cls-30" points="1004.58 920.94 979.87 873.27 836.95 957.75 856.59 968.49 1004.58 920.94"/><path class="cls-10" d="M408.88,195.12,616.38,67.53H1046.6V171.42c0-3.63-637.72,365.58-637.72,365.58Z"/><polygon class="cls-10" points="833.99 968.49 997.23 873.27 1046.26 904.1 1046.26 968.49 833.99 968.49"/><polygon class="cls-30" points="717.82 816.87 578.85 921.39 437.75 816.87 437.75 330.77 577.78 255.86 717.82 330.77 717.82 816.87"/><polygon class="cls-10" points="717.82 620.67 578.85 707.49 437.75 620.67 437.75 816.87 578.85 921.39 717.82 816.87 717.82 620.67"/><polygon class="cls-29" points="578.1 148.78 694.63 214.53 695.96 348.31 580.76 416.36 464.23 350.62 462.9 216.83 578.1 148.78"/><polygon class="cls-30" points="578.18 156.97 687.59 218.69 688.84 344.29 580.68 408.18 471.28 346.46 470.03 220.85 578.18 156.97"/><polygon class="cls-10" points="580.45 434.59 591.85 440.94 591.91 453.99 580.58 460.68 569.18 454.33 569.12 441.28 580.45 434.59"/><text class="cls-32" transform="translate(484.41 750.54) scale(1.1 1)">Sizin <tspan class="cls-33" x="25.07" y="0">k</tspan><tspan x="30.78" y="0">imi uğu</tspan><tspan class="cls-33" x="68.28" y="0">r</tspan><tspan class="cls-34" x="72.06" y="0">lu bir şi</tspan><tspan class="cls-33" x="106.46" y="0">r</tspan><tspan class="cls-35" x="110.25" y="0">k</tspan><tspan x="115.84" y="0">ə</tspan><tspan class="cls-36" x="121.65" y="0">t</tspan><tspan x="125.38" y="0">də işlə</tspan><tspan class="cls-37" x="155.96" y="0">m</tspan><tspan x="166.2" y="0">ək </tspan><tspan x="0.85" y="16.05">is</tspan><tspan class="cls-36" x="8.15" y="16.05">t</tspan><tspan class="cls-38" x="11.88" y="16.05">ə</tspan><tspan x="17.55" y="16.05">yimi ça</tspan><tspan class="cls-36" x="51.8" y="16.05">t</tspan><tspan x="55.52" y="16.05">dı</tspan><tspan class="cls-33" x="64.65" y="16.05">r</tspan><tspan x="68.43" y="16.05">m</tspan><tspan class="cls-37" x="78.65" y="16.05">a</tspan><tspan x="84.35" y="16.05">q is</tspan><tspan class="cls-36" x="100.7" y="16.05">t</tspan><tspan class="cls-39" x="104.43" y="16.05">ə</tspan><tspan class="cls-40" x="110.11" y="16.05">yi</tspan><tspan class="cls-41" x="117.92" y="16.05">r</tspan><tspan x="121.65" y="16.05">əm, bu</tspan><tspan class="cls-42" x="155.27" y="16.05">r</tspan><tspan class="cls-37" x="159.04" y="16.05">a</tspan><tspan x="164.74" y="16.05">da </tspan><tspan x="-1.73" y="32.1">şi</tspan><tspan class="cls-33" x="5.57" y="32.1">r</tspan><tspan class="cls-43" x="9.36" y="32.1">k</tspan><tspan x="14.94" y="32.1">ətini</tspan><tspan class="cls-42" x="36.37" y="32.1">z</tspan><tspan x="41.21" y="32.1">ə d</tspan><tspan class="cls-39" x="56.08" y="32.1">əy</tspan><tspan x="66.83" y="32.1">ər əl</tspan><tspan class="cls-44" x="87.44" y="32.1">a</tspan><tspan class="cls-38" x="93.02" y="32.1">v</tspan><tspan x="98.1" y="32.1">ə edə bilə</tspan><tspan class="cls-42" x="144.66" y="32.1">c</tspan><tspan class="cls-39" x="149.99" y="32.1">ə</tspan><tspan x="155.67" y="32.1">yi</tspan><tspan class="cls-37" x="163.48" y="32.1">m</tspan><tspan x="173.71" y="32.1">ə </tspan><tspan x="-2.76" y="48.16">şüb</tspan><tspan class="cls-37" x="14.96" y="48.16">h</tspan><tspan x="21.5" y="48.16">əm </tspan><tspan class="cls-39" x="40.06" y="48.16">y</tspan><tspan class="cls-45" x="45.13" y="48.16">ox</tspan><tspan x="55.95" y="48.16">du</tspan><tspan class="cls-46" x="68.96" y="48.16">r</tspan><tspan x="72.73" y="48.16">. Düşünü</tspan><tspan class="cls-41" x="115.92" y="48.16">r</tspan><tspan x="119.66" y="48.16">əm </tspan><tspan class="cls-47" x="138.22" y="48.16">k</tspan><tspan x="143.93" y="48.16">i, </tspan><tspan class="cls-33" x="151.09" y="48.16">C</tspan><tspan class="cls-48" x="157.93" y="48.16">V</tspan><tspan class="cls-49" x="164.44" y="48.16">-</tspan><tspan x="168.22" y="48.16">də </tspan><tspan x="-7.67" y="64.21">q</tspan><tspan class="cls-46" x="-1.14" y="64.21">e</tspan><tspan class="cls-39" x="4.58" y="64.21">y</tspan><tspan x="9.66" y="64.21">d e</tspan><tspan class="cls-36" x="24.53" y="64.21">t</tspan><tspan x="28.25" y="64.21">diyim </tspan><tspan class="cls-50" x="57.93" y="64.21">b</tspan><tspan class="cls-51" x="64.43" y="64.21">a</tspan><tspan class="cls-34" x="70.13" y="64.21">ca</tspan><tspan class="cls-47" x="81.23" y="64.21">r</tspan><tspan x="85.02" y="64.21">ıqla</tspan><tspan class="cls-33" x="102.41" y="64.21">r</tspan><tspan x="106.2" y="64.21">ım iş </tspan><tspan class="cls-36" x="131.36" y="64.21">t</tspan><tspan x="135.08" y="64.21">ə</tspan><tspan class="cls-46" x="140.9" y="64.21">s</tspan><tspan x="145.51" y="64.21">vi</tspan><tspan class="cls-33" x="153.33" y="64.21">r</tspan><tspan x="157.11" y="64.21">i</tspan><tspan class="cls-37" x="159.7" y="64.21">n</tspan><tspan x="166.24" y="64.21">ə </tspan><tspan class="cls-39" x="174.58" y="64.21">v</tspan><tspan x="179.66" y="64.21">ə </tspan><tspan x="2.47" y="80.26">şi</tspan><tspan class="cls-33" x="9.77" y="80.26">r</tspan><tspan class="cls-43" x="13.55" y="80.26">k</tspan><tspan x="19.14" y="80.26">ətinizin pe</tspan><tspan class="cls-52" x="69.47" y="80.26">r</tspan><tspan x="73.29" y="80.26">spektivi</tspan><tspan class="cls-37" x="110.45" y="80.26">n</tspan><tspan x="116.99" y="80.26">ə u</tspan><tspan class="cls-39" x="131.81" y="80.26">y</tspan><tspan x="136.89" y="80.26">ğu</tspan><tspan class="cls-37" x="149.98" y="80.26">n</tspan><tspan x="156.52" y="80.26">du</tspan><tspan class="cls-46" x="169.53" y="80.26">r</tspan><tspan x="173.3" y="80.26">.</tspan></text><text class="cls-53" transform="translate(528.88 729.43)">H<tspan class="cls-54" x="12.46" y="0">A</tspan><tspan x="23.89" y="0">QQIM</tspan><tspan class="cls-54" x="72.7" y="0">D</tspan><tspan x="84.49" y="0">A</tspan></text><path class="cls-29" d="M574.83,442.64l0,0a7.2,7.2,0,0,0,.56-.54l.07-.07.31-.31a1.05,1.05,0,0,1,1.59,0l1.63,1.64a1,1,0,0,1,.37.77,1.13,1.13,0,0,1-.36.78l-1,1a.19.19,0,0,0-.07.12.14.14,0,0,0,0,.07l0,0,.17.32a2.48,2.48,0,0,0,.17.32,10.42,10.42,0,0,0,2.3,2.53h0a5.9,5.9,0,0,0,1.43.88h0c.1,0,.13,0,.2,0h0c.23-.26.46-.49.74-.76a1.37,1.37,0,0,1,.17-.17l.08-.08a1,1,0,0,1,1.6,0l.8.8.15.15.14.14.54.54h0a1.11,1.11,0,0,1,.34.77,1.12,1.12,0,0,1-.34.78h0l-1,1a1.81,1.81,0,0,1-1.18.55,4.67,4.67,0,0,1-2.06-.36,12.62,12.62,0,0,1-3.71-2.23,13.66,13.66,0,0,1-3.56-4.55,6.89,6.89,0,0,1-.74-2.5v-.16A1.9,1.9,0,0,1,574.83,442.64Z"/><polygon class="cls-10" points="580.45 518.01 591.85 524.36 591.91 537.41 580.58 544.11 569.18 537.75 569.12 524.7 580.45 518.01"/><polygon class="cls-10" points="580.45 600.51 591.85 606.86 591.91 619.91 580.58 626.61 569.18 620.25 569.12 607.21 580.45 600.51"/><text class="cls-55" transform="translate(523.53 484.56)">+9<tspan class="cls-56" x="15.47" y="0">9</tspan><tspan class="cls-57" x="23" y="0">4xx xxx xx xx</tspan></text><text class="cls-55" transform="translate(506.24 563.18)">cvhazirlama@gmai<tspan class="cls-58" x="116.32" y="0">l</tspan><tspan class="cls-59" x="119.4" y="0">.</tspan><tspan class="cls-57" x="122.31" y="0">com</tspan></text><text class="cls-55" transform="translate(508.29 643.87)">Bakı <tspan class="cls-60" x="30.19" y="0">ş</tspan><tspan x="35.99" y="0">əhəri, A</tspan><tspan class="cls-61" x="81.61" y="0">z</tspan><tspan class="cls-57" x="87.5" y="0">ərba</tspan><tspan class="cls-62" x="115.52" y="0">y</tspan><tspan class="cls-57" x="122.18" y="0">can</tspan></text><path class="cls-29" d="M586,527.41v0s0,0,0,0,0,0,0,0l0,0,0,0,0,0,0,0h0l0,0,0,0,0,0,0,0h0l0,0H575.15l0,0h0l0,0,0,0,0,0,0,0h0v0l0,0,0,0a.05.05,0,0,0,0,0s0,0,0,0,0,0,0,0a.06.06,0,0,1,0,0v7.4a.43.43,0,0,0,.43.43h10.31a.43.43,0,0,0,.43-.43v-7.4Zm-1.57.45-4,3.41-4-3.41Zm-4.28,4.29a.41.41,0,0,0,.27.1.42.42,0,0,0,.28-.1"/><path class="cls-29" d="M580.52,607.58a6,6,0,1,0,6,6A6,6,0,0,0,580.52,607.58Zm5,5.52h-1.44a7.9,7.9,0,0,0-1.16-4A5.05,5.05,0,0,1,585.56,613.1Zm-5.5-4.54v4.54h-2.24C577.93,610.84,578.88,609,580.06,608.56Zm0,5.45v4.55c-1.18-.39-2.13-2.28-2.24-4.55Zm.91,4.55V614h2.24C583.1,616.28,582.15,618.17,581,618.56Zm0-5.46v-4.54c1.18.39,2.13,2.28,2.24,4.54Zm-2.9-4a7.9,7.9,0,0,0-1.16,4h-1.44A5.05,5.05,0,0,1,578.07,609.12Zm-2.6,4.89h1.44a7.94,7.94,0,0,0,1.16,4A5.07,5.07,0,0,1,575.47,614Zm7.49,4a7.94,7.94,0,0,0,1.16-4h1.44A5.07,5.07,0,0,1,583,618Z"/><text class="cls-63" transform="translate(735.12 383.71)">İŞ <tspan class="cls-64" x="19.82" y="0">T</tspan><tspan x="29.33" y="0">ƏC</tspan><tspan class="cls-65" x="54.08" y="0">R</tspan><tspan x="65.01" y="0">Ü</tspan><tspan class="cls-66" x="77.11" y="0">B</tspan><tspan x="87.95" y="0">ƏSİ</tspan></text><line class="cls-67" x1="739.97" y1="403.15" x2="739.97" y2="621.71"/><circle class="cls-10" cx="739.97" cy="412.57" r="4.85"/><circle class="cls-10" cx="739.97" cy="534.72" r="4.85"/><line class="cls-67" x1="739.97" y1="516.17" x2="1025.95" y2="516.17"/><line class="cls-67" x1="739.97" y1="621.71" x2="1025.95" y2="621.71"/><text class="cls-68" transform="translate(766.33 426.3)">A<tspan class="cls-69" x="8.95" y="0">r</tspan><tspan class="cls-70" x="13.9" y="0">az Ma</tspan><tspan class="cls-71" x="49.12" y="0">r</tspan><tspan class="cls-72" x="54.11" y="0">k</tspan><tspan x="61.55" y="0">et</tspan><tspan class="cls-73" x="0" y="14.87">K</tspan><tspan x="8.5" y="14.87">assir</tspan></text><text class="cls-74" transform="translate(767.46 455.26)">- Malın d<tspan class="cls-75" x="36.9" y="0">əy</tspan><tspan x="46.38" y="0">ə</tspan><tspan class="cls-76" x="51.51" y="0">r</tspan><tspan x="54.85" y="0">inin </tspan><tspan class="cls-77" x="73.15" y="0">h</tspan><tspan x="78.92" y="0">esablanması </tspan><tspan class="cls-75" x="134.72" y="0">v</tspan><tspan x="139.19" y="0">ə </tspan><tspan class="cls-78" x="146.55" y="0">k</tspan><tspan x="151.57" y="0">assa ə</tspan><tspan class="cls-79" x="177.26" y="0">m</tspan><tspan x="186.29" y="0">əli</tspan><tspan class="cls-80" x="195.99" y="0">y</tspan><tspan class="cls-81" x="200.55" y="0">y</tspan><tspan x="205.02" y="0">atının </tspan><tspan class="cls-75" x="231.78" y="0">y</tspan><tspan x="236.26" y="0">e</tspan><tspan class="cls-82" x="241.39" y="0">r</tspan><tspan x="244.73" y="0">i</tspan><tspan class="cls-77" x="247.01" y="0">n</tspan><tspan x="252.78" y="0">ə </tspan><tspan class="cls-75" x="0" y="10.62">y</tspan><tspan x="4.48" y="10.62">eti</tspan><tspan class="cls-76" x="15.34" y="10.62">r</tspan><tspan x="18.68" y="10.62">il</tspan><tspan class="cls-79" x="23.25" y="10.62">m</tspan><tspan x="32.28" y="10.62">əsi;</tspan><tspan x="0" y="21.24">- </tspan><tspan class="cls-83" x="5.47" y="21.24">K</tspan><tspan x="11.39" y="21.24">assa </tspan><tspan class="cls-77" x="31.95" y="21.24">h</tspan><tspan x="37.72" y="21.24">esa</tspan><tspan class="cls-84" x="52.02" y="21.24">b</tspan><tspan x="57.75" y="21.24">atını </tspan><tspan class="cls-85" x="78.76" y="21.24">t</tspan><tspan x="82.05" y="21.24">ə</tspan><tspan class="cls-86" x="87.18" y="21.24">r</tspan><tspan x="90.71" y="21.24">tib et</tspan><tspan class="cls-77" x="113.01" y="21.24">m</tspan><tspan x="122.04" y="21.24">ək;</tspan><tspan x="0" y="31.86">- Malın alınması zamanı s</tspan><tspan class="cls-78" x="106.96" y="31.86">a</tspan><tspan x="111.89" y="31.86">yının, </tspan><tspan class="cls-87" x="136.59" y="31.86">ç</tspan><tspan x="141.3" y="31.86">eşidinin </tspan><tspan class="cls-75" x="176.93" y="31.86">y</tspan><tspan class="cls-85" x="181.4" y="31.86">o</tspan><tspan x="186.57" y="31.86">xlanılmas</tspan></text><text class="cls-88" transform="translate(766.33 414.99)">05<tspan class="cls-89" x="8.69" y="0">/</tspan><tspan class="cls-90" x="10.92" y="0">0</tspan><tspan class="cls-91" x="15.54" y="0">3/</tspan><tspan class="cls-92" x="21.9" y="0">2</tspan><tspan class="cls-93" x="25.89" y="0">0</tspan><tspan x="30.56" y="0">19–</tspan><tspan class="cls-94" x="40.97" y="0">P</tspan><tspan class="cls-95" x="45.89" y="0">r</tspan><tspan x="48.63" y="0">esent</tspan></text><text class="cls-68" transform="translate(766.33 546.03)">A<tspan class="cls-69" x="8.95" y="0">r</tspan><tspan class="cls-70" x="13.9" y="0">az Ma</tspan><tspan class="cls-71" x="49.12" y="0">r</tspan><tspan class="cls-72" x="54.11" y="0">k</tspan><tspan x="61.55" y="0">et</tspan><tspan class="cls-73" x="0" y="14.87">K</tspan><tspan x="8.5" y="14.87">assir</tspan></text><text class="cls-74" transform="translate(767.46 574.99)">- Malın d<tspan class="cls-75" x="36.9" y="0">əy</tspan><tspan x="46.38" y="0">ə</tspan><tspan class="cls-76" x="51.51" y="0">r</tspan><tspan x="54.85" y="0">inin </tspan><tspan class="cls-77" x="73.15" y="0">h</tspan><tspan x="78.92" y="0">esablanması </tspan><tspan class="cls-75" x="134.72" y="0">v</tspan><tspan x="139.19" y="0">ə </tspan><tspan class="cls-78" x="146.55" y="0">k</tspan><tspan x="151.57" y="0">assa ə</tspan><tspan class="cls-79" x="177.26" y="0">m</tspan><tspan x="186.29" y="0">əli</tspan><tspan class="cls-80" x="195.99" y="0">y</tspan><tspan class="cls-81" x="200.55" y="0">y</tspan><tspan x="205.02" y="0">atının </tspan><tspan class="cls-75" x="231.78" y="0">y</tspan><tspan x="236.26" y="0">e</tspan><tspan class="cls-82" x="241.39" y="0">r</tspan><tspan x="244.73" y="0">i</tspan><tspan class="cls-77" x="247.01" y="0">n</tspan><tspan x="252.78" y="0">ə </tspan><tspan class="cls-75" x="0" y="10.62">y</tspan><tspan x="4.48" y="10.62">eti</tspan><tspan class="cls-76" x="15.34" y="10.62">r</tspan><tspan x="18.68" y="10.62">il</tspan><tspan class="cls-79" x="23.25" y="10.62">m</tspan><tspan x="32.28" y="10.62">əsi;</tspan><tspan x="0" y="21.24">- </tspan><tspan class="cls-83" x="5.47" y="21.24">K</tspan><tspan x="11.39" y="21.24">assa </tspan><tspan class="cls-77" x="31.95" y="21.24">h</tspan><tspan x="37.72" y="21.24">esa</tspan><tspan class="cls-84" x="52.02" y="21.24">b</tspan><tspan x="57.75" y="21.24">atını </tspan><tspan class="cls-85" x="78.76" y="21.24">t</tspan><tspan x="82.05" y="21.24">ə</tspan><tspan class="cls-86" x="87.18" y="21.24">r</tspan><tspan x="90.71" y="21.24">tib et</tspan><tspan class="cls-77" x="113.01" y="21.24">m</tspan><tspan x="122.04" y="21.24">ək;</tspan><tspan x="0" y="31.86">- Malın alınması zamanı s</tspan><tspan class="cls-78" x="106.96" y="31.86">a</tspan><tspan x="111.89" y="31.86">yının, </tspan><tspan class="cls-87" x="136.59" y="31.86">ç</tspan><tspan x="141.3" y="31.86">eşidinin </tspan><tspan class="cls-75" x="176.93" y="31.86">y</tspan><tspan class="cls-85" x="181.4" y="31.86">o</tspan><tspan x="186.57" y="31.86">xlanılmas</tspan></text><text class="cls-88" transform="translate(766.33 534.72)">05<tspan class="cls-89" x="8.69" y="0">/</tspan><tspan class="cls-90" x="10.92" y="0">0</tspan><tspan class="cls-91" x="15.54" y="0">3/</tspan><tspan class="cls-92" x="21.9" y="0">2</tspan><tspan class="cls-93" x="25.89" y="0">0</tspan><tspan x="30.56" y="0">19–</tspan><tspan class="cls-94" x="40.97" y="0">P</tspan><tspan class="cls-95" x="45.89" y="0">r</tspan><tspan x="48.63" y="0">esent</tspan></text><line class="cls-96" x1="735.12" y1="394.98" x2="738.62" y2="394.98"/><line class="cls-97" x1="745.66" y1="394.98" x2="1024" y2="394.98"/><line class="cls-96" x1="1027.52" y1="394.98" x2="1031.02" y2="394.98"/><line class="cls-67" x1="745.04" y1="742.24" x2="1031.02" y2="742.24"/><text class="cls-98" transform="translate(745.04 662.65)">T<tspan class="cls-99" x="9.51" y="0">ƏHSİL</tspan></text><line class="cls-67" x1="745.04" y1="682.1" x2="745.04" y2="742.24"/><circle class="cls-10" cx="745.04" cy="692.22" r="4.85"/><text class="cls-68" transform="translate(771.4 709.85)">Ba<tspan class="cls-71" x="16.14" y="0">k</tspan><tspan x="23.81" y="0">ı D</tspan><tspan class="cls-100" x="40.28" y="0">ö</tspan><tspan class="cls-70" x="47.75" y="0">vlət Uni</tspan><tspan class="cls-101" x="94.8" y="0">v</tspan><tspan x="101.61" y="0">e</tspan><tspan class="cls-102" x="108.98" y="0">r</tspan><tspan x="113.99" y="0">si</tspan><tspan class="cls-103" x="123.71" y="0">t</tspan><tspan x="128.59" y="0">eti</tspan></text><text class="cls-74" transform="translate(772.53 724.78)"><tspan class="cls-104">T</tspan><tspan x="4.63" y="0">a</tspan><tspan class="cls-76" x="9.64" y="0">r</tspan><tspan x="12.98" y="0">ix </tspan><tspan class="cls-78" x="22.03" y="0">f</tspan><tspan x="24.82" y="0">a</tspan><tspan class="cls-105" x="29.83" y="0">k</tspan><tspan x="34.86" y="0">ü</tspan><tspan class="cls-79" x="40.57" y="0">l</tspan><tspan class="cls-85" x="42.88" y="0">t</tspan><tspan x="46.16" y="0">əsi</tspan></text><text class="cls-88" transform="translate(771.4 693.94)">05<tspan class="cls-89" x="8.69" y="0">/</tspan><tspan class="cls-90" x="10.92" y="0">0</tspan><tspan class="cls-91" x="15.54" y="0">3/</tspan><tspan class="cls-92" x="21.9" y="0">2</tspan><tspan class="cls-93" x="25.89" y="0">0</tspan><tspan x="30.56" y="0">19–</tspan></text><line class="cls-67" x1="745.04" y1="833.45" x2="1031.02" y2="833.45"/><line class="cls-67" x1="745.04" y1="739.39" x2="745.04" y2="833.45"/><circle class="cls-10" cx="745.04" cy="770.92" r="4.85"/><text class="cls-68" transform="translate(771.4 789.21)">Ba<tspan class="cls-71" x="16.14" y="0">k</tspan><tspan x="23.81" y="0">ı D</tspan><tspan class="cls-100" x="40.28" y="0">ö</tspan><tspan class="cls-70" x="47.75" y="0">vlət Uni</tspan><tspan class="cls-101" x="94.8" y="0">v</tspan><tspan x="101.61" y="0">e</tspan><tspan class="cls-102" x="108.98" y="0">r</tspan><tspan x="113.99" y="0">si</tspan><tspan class="cls-103" x="123.71" y="0">t</tspan><tspan x="128.59" y="0">eti</tspan></text><text class="cls-74" transform="translate(772.53 804.15)"><tspan class="cls-104">T</tspan><tspan x="4.63" y="0">a</tspan><tspan class="cls-76" x="9.64" y="0">r</tspan><tspan x="12.98" y="0">ix </tspan><tspan class="cls-78" x="22.03" y="0">f</tspan><tspan x="24.82" y="0">a</tspan><tspan class="cls-105" x="29.83" y="0">k</tspan><tspan x="34.86" y="0">ü</tspan><tspan class="cls-79" x="40.57" y="0">l</tspan><tspan class="cls-85" x="42.88" y="0">t</tspan><tspan x="46.16" y="0">əsi</tspan></text><text class="cls-88" transform="translate(771.4 773.31)">05<tspan class="cls-89" x="8.69" y="0">/</tspan><tspan class="cls-90" x="10.92" y="0">0</tspan><tspan class="cls-91" x="15.54" y="0">3/</tspan><tspan class="cls-92" x="21.9" y="0">2</tspan><tspan class="cls-93" x="25.89" y="0">0</tspan><tspan x="30.56" y="0">19–</tspan></text><line class="cls-96" x1="744.46" y1="669.24" x2="747.96" y2="669.24"/><line class="cls-106" x1="755.09" y1="669.24" x2="1022.81" y2="669.24"/><line class="cls-96" x1="1026.37" y1="669.24" x2="1029.87" y2="669.24"/><text class="cls-107" transform="translate(705.91 133.25)">A<tspan class="cls-108" x="25.87" y="0">N</tspan><tspan class="cls-109" x="56.19" y="0">AR</tspan><tspan x="0" y="48.13">QASIM</tspan><tspan class="cls-110" x="122.15" y="48.13">O</tspan><tspan x="151.8" y="48.13">V</tspan></text><text class="cls-111" transform="translate(705.91 210.1)">Doğum ta<tspan class="cls-112" x="72.21" y="0">r</tspan><tspan x="77.84" y="0">ixi: 15</tspan><tspan class="cls-113" x="113.49" y="0">.</tspan><tspan class="cls-114" x="116.48" y="0">1</tspan><tspan class="cls-115" x="121.65" y="0">0</tspan><tspan class="cls-116" x="130.8" y="0">.</tspan><tspan x="133.8" y="0">19</tspan><tspan class="cls-117" x="147.59" y="0">9</tspan><tspan x="156.17" y="0">2</tspan></text></g></svg>