<svg xmlns="http://www.w3.org/2000/svg" xmlns:xlink="http://www.w3.org/1999/xlink" viewBox="0 0 1079 1080"><defs><style>.cls-1,.cls-32,.cls-40,.cls-43,.cls-89,.cls-90{fill:none;}.cls-2{fill:#2b2c2b;}.cls-3,.cls-31,.cls-38,.cls-44,.cls-46,.cls-82,.cls-83,.cls-86,.cls-91{fill:#104b89;}.cls-4{fill:#414142;}.cls-5{font-size:22.5px;font-family:Montserrat-Medium, Montserrat;font-weight:500;}.cls-10,.cls-11,.cls-12,.cls-21,.cls-23,.cls-24,.cls-25,.cls-5{fill:#fff;}.cls-6{letter-spacing:-0.03em;}.cls-7{letter-spacing:0em;}.cls-8{letter-spacing:-0.01em;}.cls-9{letter-spacing:0em;}.cls-10,.cls-21{font-size:58.13px;}.cls-10,.cls-12,.cls-21{font-family:Montserrat-SemiBold, Montserrat;}.cls-10,.cls-12,.cls-21,.cls-47,.cls-49,.cls-52,.cls-69,.cls-83{font-weight:600;}.cls-11{font-size:22px;font-family:Montserrat-Regular, Montserrat;}.cls-12{font-size:39.76px;}.cls-13{letter-spacing:0em;}.cls-14{letter-spacing:-0.01em;}.cls-15{letter-spacing:-0.01em;}.cls-16{letter-spacing:-0.01em;}.cls-17{letter-spacing:-0.01em;}.cls-18{letter-spacing:-0.02em;}.cls-19{letter-spacing:0em;}.cls-20{letter-spacing:0em;}.cls-21{letter-spacing:0em;}.cls-22{letter-spacing:0em;}.cls-24{fill-rule:evenodd;}.cls-25{font-size:30.55px;}.cls-25,.cls-31{font-family:Averta-Bold, Averta;font-weight:700;}.cls-26{letter-spacing:0em;}.cls-27{letter-spacing:0em;}.cls-28{letter-spacing:0.01em;}.cls-29{letter-spacing:0em;}.cls-30{clip-path:url(#clip-path);}.cls-31{font-size:28.32px;}.cls-32{stroke:#9d9fa2;stroke-width:4px;stroke-dasharray:0 10;}.cls-32,.cls-90{stroke-linecap:round;}.cls-32,.cls-40,.cls-43,.cls-89,.cls-90{stroke-miterlimit:10;}.cls-33,.cls-34{fill:#666769;}.cls-34,.cls-38{font-size:10.49px;}.cls-34,.cls-38,.cls-41,.cls-44,.cls-46,.cls-48,.cls-50,.cls-82,.cls-86,.cls-91{font-family:Averta-ExtraBold, Averta;font-weight:800;}.cls-34{letter-spacing:0.01em;}.cls-35{fill:#898b8e;}.cls-36{fill:#b3b5b6;}.cls-37{font-size:8.93px;fill:#024759;font-family:Averta-Regular, Averta;}.cls-39,.cls-41,.cls-48,.cls-50{fill:#595a5c;}.cls-40,.cls-90{stroke:#024759;}.cls-41{font-size:8.14px;}.cls-42{letter-spacing:-0.04em;}.cls-43{stroke:#104b89;}.cls-44{font-size:16.78px;}.cls-45{clip-path:url(#clip-path-5);}.cls-46{font-size:12.59px;}.cls-47,.cls-49{font-size:9.44px;fill:#231f20;}.cls-47,.cls-49,.cls-52,.cls-69,.cls-83{font-family:Averta-Semibold, Averta;}.cls-47{letter-spacing:0.01em;}.cls-48{font-size:10.77px;}.cls-49{letter-spacing:0.01em;}.cls-50{font-size:10.85px;}.cls-51{letter-spacing:-0.04em;}.cls-52{font-size:11.54px;}.cls-52,.cls-69{fill:#444445;}.cls-53{letter-spacing:0.01em;}.cls-54{letter-spacing:0em;}.cls-55{letter-spacing:-0.02em;}.cls-56{letter-spacing:-0.03em;}.cls-57{letter-spacing:-0.02em;}.cls-58{letter-spacing:-0.02em;}.cls-59{letter-spacing:-0.03em;}.cls-60{letter-spacing:-0.01em;}.cls-61{letter-spacing:-0.06em;}.cls-62{letter-spacing:-0.02em;}.cls-63{letter-spacing:-0.02em;}.cls-64{letter-spacing:-0.03em;}.cls-65{letter-spacing:0em;}.cls-66{letter-spacing:-0.07em;}.cls-67{letter-spacing:-0.03em;}.cls-68{letter-spacing:-0.02em;}.cls-69{font-size:13.01px;}.cls-70{letter-spacing:-0.02em;}.cls-71{letter-spacing:0em;}.cls-72{letter-spacing:-0.01em;}.cls-73{letter-spacing:-0.02em;}.cls-74{letter-spacing:-0.03em;}.cls-75{letter-spacing:-0.03em;}.cls-76{letter-spacing:-0.03em;}.cls-77{letter-spacing:-0.03em;}.cls-78{letter-spacing:0.01em;}.cls-79{letter-spacing:0em;}.cls-80{letter-spacing:-0.02em;}.cls-81{letter-spacing:0em;}.cls-82{font-size:17.93px;}.cls-83{font-size:14.12px;}.cls-84{letter-spacing:0em;}.cls-85{letter-spacing:0em;}.cls-86{font-size:12.17px;}.cls-87{fill:#438f9c;}.cls-88{fill:#64aeb6;}.cls-89{stroke:#b3b5b6;}.cls-90{stroke-width:2px;}.cls-91{font-size:16.72px;}.cls-92{clip-path:url(#clip-path-6);}.cls-93{clip-path:url(#clip-path-7);}</style><clipPath id="clip-path"><rect class="cls-1" x="432.06" y="52.91" width="624.32" height="893.61"/></clipPath><clipPath id="clip-path-5"><path class="cls-1" d="M454.87,108.52v70.26a74.12,74.12,0,0,0,130.5,0V108.52a74.12,74.12,0,0,0-130.5,0"/></clipPath><clipPath id="clip-path-6"><circle class="cls-1" cx="520.26" cy="141.56" r="79.73"/></clipPath><clipPath id="clip-path-7"><rect class="cls-1" x="401.71" y="58.47" width="237.11" height="166.18"/></clipPath></defs><g id="PRINT"><rect class="cls-2" x="85.21" y="181.33" width="260.32" height="56.71"/><rect class="cls-3" x="40.07" y="69.8" width="143.79" height="5.3"/><rect class="cls-4" x="183.81" y="69.8" width="143.79" height="5.3"/><rect class="cls-4" x="40.07" y="90.37" width="143.76" height="38.31"/><text class="cls-5" transform="translate(52.14 117.53)"><tspan class="cls-6">K</tspan><tspan class="cls-7" x="15.62" y="0">OD: 11</tspan><tspan class="cls-8" x="80.91" y="0">.</tspan><tspan class="cls-9" x="85.75" y="0">0</tspan><tspan x="100.69" y="0">1</tspan></text><rect class="cls-3" x="40.07" y="169.58" width="80.21" height="80.21"/><text class="cls-10" transform="translate(48.78 226.69)">15</text><text class="cls-11" transform="translate(67.92 240.86) scale(0.58)">azn</text><text class="cls-12" transform="translate(139 219.7) scale(0.58)"><tspan class="cls-13">A</tspan><tspan class="cls-14" x="29.7" y="0">z</tspan><tspan x="50.54" y="0">ə</tspan><tspan class="cls-15" x="75.27" y="0">r</tspan><tspan class="cls-16" x="91.77" y="0">b</tspan><tspan class="cls-17" x="118.77" y="0">a</tspan><tspan class="cls-18" x="142.51" y="0">y</tspan><tspan x="164.9" y="0">ca</tspan><tspan class="cls-19" x="212.14" y="0">n</tspan><tspan class="cls-20" x="239.57" y="0">dilli</tspan></text><rect class="cls-2" x="85.21" y="305.1" width="260.32" height="56.71"/><rect class="cls-3" x="40.07" y="293.35" width="80.21" height="80.21"/><text class="cls-21" transform="translate(48.78 350.46)">2<tspan class="cls-22" x="33.66" y="0">0</tspan></text><text class="cls-12" transform="translate(139 343.47) scale(0.58)">İ<tspan class="cls-19" x="12.68" y="0">n</tspan><tspan class="cls-20" x="40.12" y="0">gilisdilli</tspan></text><text class="cls-11" transform="translate(67.92 366.87) scale(0.58)">azn</text><path class="cls-2" d="M58.34,424.41c0,3-2.2,4.88-5.84,4.88H49v4.25H47v-14H52.5C56.14,419.53,58.34,421.37,58.34,424.41Zm-2,0c0-2-1.34-3.14-3.9-3.14H49v6.28h3.4C55,427.55,56.34,426.41,56.34,424.41Z"/><path class="cls-2" d="M66.52,422.83v1.86a3.39,3.39,0,0,0-.44,0c-2.06,0-3.34,1.26-3.34,3.58v5.29H60.82V422.93h1.84v1.78C63.34,423.47,64.66,422.83,66.52,422.83Z"/><path class="cls-2" d="M67.8,428.23a5.51,5.51,0,1,1,5.52,5.43A5.27,5.27,0,0,1,67.8,428.23Zm9.08,0a3.57,3.57,0,1,0-7.14,0,3.57,3.57,0,1,0,7.14,0Z"/><path class="cls-2" d="M83.64,422v.92h3.08v1.58h-3v9H81.76v-9H80v-1.58h1.8V422a3.19,3.19,0,0,1,3.5-3.42,3.58,3.58,0,0,1,2.16.62l-.58,1.46a2.49,2.49,0,0,0-1.48-.5C84.22,420.15,83.64,420.79,83.64,422Z"/><path class="cls-2" d="M97.92,428.87h-8.6A3.6,3.6,0,0,0,93.16,432a3.93,3.93,0,0,0,3.06-1.29l1.06,1.25a5.32,5.32,0,0,1-4.18,1.72c-3.42,0-5.7-2.26-5.7-5.43a5.19,5.19,0,0,1,5.32-5.4A5.11,5.11,0,0,1,98,428.29C98,428.45,97.94,428.69,97.92,428.87Zm-8.6-1.38h6.8a3.42,3.42,0,0,0-6.8,0Z"/><path class="cls-2" d="M99.28,432.42l.8-1.52a6.81,6.81,0,0,0,3.72,1.1c1.78,0,2.52-.54,2.52-1.44,0-2.39-6.7-.33-6.7-4.55,0-1.9,1.7-3.18,4.42-3.18a7.71,7.71,0,0,1,3.86,1l-.82,1.52a5.54,5.54,0,0,0-3.06-.84c-1.68,0-2.5.62-2.5,1.46,0,2.5,6.72.46,6.72,4.59,0,1.92-1.76,3.14-4.58,3.14A7.65,7.65,0,0,1,99.28,432.42Z"/><path class="cls-2" d="M109.3,432.42l.8-1.52a6.81,6.81,0,0,0,3.72,1.1c1.78,0,2.52-.54,2.52-1.44,0-2.39-6.7-.33-6.7-4.55,0-1.9,1.7-3.18,4.42-3.18a7.71,7.71,0,0,1,3.86,1l-.82,1.52a5.54,5.54,0,0,0-3.06-.84c-1.68,0-2.5.62-2.5,1.46,0,2.5,6.72.46,6.72,4.59,0,1.92-1.76,3.14-4.58,3.14A7.65,7.65,0,0,1,109.3,432.42Z"/><path class="cls-2" d="M120.44,419.85a1.18,1.18,0,1,1,2.36,0,1.18,1.18,0,1,1-2.36,0Zm.22,3.08h1.92v10.61h-1.92Z"/><path class="cls-2" d="M125.26,428.23a5.51,5.51,0,1,1,5.52,5.43A5.27,5.27,0,0,1,125.26,428.23Zm9.08,0a3.57,3.57,0,1,0-7.14,0,3.57,3.57,0,1,0,7.14,0Z"/><path class="cls-2" d="M149,427.43v6.11h-1.92v-5.89c0-2.08-1-3.1-2.86-3.1-2,0-3.36,1.22-3.36,3.52v5.47h-1.92V422.93h1.84v1.6a4.54,4.54,0,0,1,3.82-1.7C147.18,422.83,149,424.31,149,427.43Z"/><path class="cls-2" d="M161,427.13v6.41h-1.82v-1.4a3.93,3.93,0,0,1-3.48,1.52c-2.4,0-3.92-1.28-3.92-3.13,0-1.7,1.1-3.1,4.26-3.1h3v-.38c0-1.62-.94-2.56-2.84-2.56a5.36,5.36,0,0,0-3.36,1.14l-.8-1.44a7.06,7.06,0,0,1,4.38-1.36C159.32,422.83,161,424.23,161,427.13ZM159,430.3v-1.48h-3c-1.9,0-2.44.74-2.44,1.63,0,1.07.88,1.73,2.34,1.73A3.07,3.07,0,0,0,159,430.3Z"/><path class="cls-2" d="M164.52,418.69h1.92v14.85h-1.92Z"/><path class="cls-2" d="M178.38,426.53a7.08,7.08,0,0,1,7.42-7.16,6.92,6.92,0,0,1,5.32,2.18l-1.3,1.26a5.19,5.19,0,0,0-3.94-1.66,5.39,5.39,0,1,0,0,10.77,5.18,5.18,0,0,0,3.94-1.69l1.3,1.27a7,7,0,0,1-5.34,2.2A7.08,7.08,0,0,1,178.38,426.53Z"/><path class="cls-2" d="M206,419.53l-6.14,14h-2l-6.16-14h2.16l5,11.5,5.08-11.5Z"/><path class="cls-2" d="M227,427.43v6.11h-1.92v-5.89c0-2.08-1-3.1-2.86-3.1-2,0-3.36,1.22-3.36,3.52v5.47h-1.92V418.69h1.92v5.74a4.6,4.6,0,0,1,3.74-1.6C225.18,422.83,227,424.31,227,427.43Z"/><path class="cls-2" d="M239,427.13v6.41h-1.82v-1.4a3.93,3.93,0,0,1-3.48,1.52c-2.4,0-3.92-1.28-3.92-3.13,0-1.7,1.1-3.1,4.26-3.1h3v-.38c0-1.62-.94-2.56-2.84-2.56a5.36,5.36,0,0,0-3.36,1.14l-.8-1.44a7.06,7.06,0,0,1,4.38-1.36C237.32,422.83,239,424.23,239,427.13ZM237,430.3v-1.48h-3c-1.9,0-2.44.74-2.44,1.63,0,1.07.88,1.73,2.34,1.73A3.07,3.07,0,0,0,237,430.3Z"/><path class="cls-2" d="M250.38,432v1.58H241.5V432.3l6.26-7.79h-6.14v-1.58h8.6v1.26L244,432Z"/><path class="cls-2" d="M252.94,422.93h1.92v10.61h-1.92Z"/><path class="cls-2" d="M264.22,422.83v1.86a3.39,3.39,0,0,0-.44,0c-2.06,0-3.34,1.26-3.34,3.58v5.29h-1.92V422.93h1.84v1.78C261,423.47,262.36,422.83,264.22,422.83Z"/><path class="cls-2" d="M266.58,418.69h1.92v14.85h-1.92Z"/><path class="cls-2" d="M280.56,427.13v6.41h-1.82v-1.4a3.93,3.93,0,0,1-3.48,1.52c-2.4,0-3.92-1.28-3.92-3.13,0-1.7,1.1-3.1,4.26-3.1h3v-.38c0-1.62-.94-2.56-2.84-2.56a5.36,5.36,0,0,0-3.36,1.14l-.8-1.44a7.06,7.06,0,0,1,4.38-1.36C278.92,422.83,280.56,424.23,280.56,427.13Zm-1.92,3.17v-1.48h-3c-1.9,0-2.44.74-2.44,1.63,0,1.07.88,1.73,2.34,1.73A3.07,3.07,0,0,0,278.64,430.3Z"/><path class="cls-2" d="M301.72,427.43v6.11H299.8v-5.89c0-2.08-1-3.1-2.74-3.1-1.92,0-3.18,1.22-3.18,3.52v5.47H292v-5.89c0-2.08-1-3.1-2.74-3.1-1.92,0-3.18,1.22-3.18,3.52v5.47h-1.92V422.93H286v1.58a4.3,4.3,0,0,1,3.66-1.68,3.92,3.92,0,0,1,3.68,2,4.78,4.78,0,0,1,4.08-2C300,422.83,301.72,424.31,301.72,427.43Z"/><path class="cls-2" d="M313.66,427.13v6.41h-1.82v-1.4a3.93,3.93,0,0,1-3.48,1.52c-2.4,0-3.92-1.28-3.92-3.13,0-1.7,1.1-3.1,4.26-3.1h3v-.38c0-1.62-.94-2.56-2.84-2.56a5.36,5.36,0,0,0-3.36,1.14l-.8-1.44a7.06,7.06,0,0,1,4.38-1.36C312,422.83,313.66,424.23,313.66,427.13Zm-1.92,3.17v-1.48h-3c-1.9,0-2.44.74-2.44,1.63,0,1.07.88,1.73,2.34,1.73A3.07,3.07,0,0,0,311.74,430.3Z"/><path class="cls-2" d="M333.12,433.54l-3.06-4.06-3.1,4.06h-2.14l4.18-5.43-4-5.18h2.14l2.92,3.82,2.9-3.82h2.1l-4,5.18,4.22,5.43Z"/><path class="cls-2" d="M337.18,419.85a1.18,1.18,0,0,1,2.36,0,1.18,1.18,0,1,1-2.36,0Zm.22,3.08h1.92v10.61H337.4Z"/><path class="cls-2" d="M353,418.69v14.85h-1.84v-1.68a4.48,4.48,0,0,1-3.78,1.8,5.42,5.42,0,0,1,0-10.83,4.51,4.51,0,0,1,3.7,1.7v-5.84Zm-1.9,9.54a3.57,3.57,0,1,0-3.56,3.75A3.49,3.49,0,0,0,351.08,428.23Z"/><path class="cls-2" d="M374.22,427.43v6.11H372.3v-5.89c0-2.08-1-3.1-2.74-3.1-1.92,0-3.18,1.22-3.18,3.52v5.47h-1.92v-5.89c0-2.08-1-3.1-2.74-3.1-1.92,0-3.18,1.22-3.18,3.52v5.47h-1.92V422.93h1.84v1.58a4.3,4.3,0,0,1,3.66-1.68,3.92,3.92,0,0,1,3.68,2,4.78,4.78,0,0,1,4.08-2C372.46,422.83,374.22,424.31,374.22,427.43Z"/><path class="cls-2" d="M387.4,428.23a5.19,5.19,0,0,1-5.32,5.41,5.11,5.11,0,0,1-5.24-5.47c0-.16,0-.4,0-.58h8.6a3.59,3.59,0,0,0-3.84-3.1,4,4,0,0,0-3.06,1.28l-1.06-1.24a5.32,5.32,0,0,1,4.18-1.72C385.12,422.81,387.4,425.07,387.4,428.23Zm-1.92.75h-6.8a3.42,3.42,0,0,0,6.8,0Z"/><path class="cls-2" d="M389.38,427.21h5.38v1.66h-5.38Z"/><path class="cls-2" d="M52.72,456.92a3.62,3.62,0,0,1-2.32.74A3,3,0,0,1,47,454.34v-5.83h-1.8v-1.58H47v-2.32H49v2.32h3v1.58H49v5.75A1.56,1.56,0,0,0,50.62,456a2.42,2.42,0,0,0,1.5-.5Z"/><path class="cls-2" d="M54.59,443.85a1.18,1.18,0,0,1,2.36,0,1.18,1.18,0,0,1-2.36,0Zm.22,3.08h1.92v10.61H54.81Z"/><path class="cls-2" d="M70.23,451.43v6.11H68.31v-5.89c0-2.08-1-3.1-2.86-3.1-2,0-3.36,1.22-3.36,3.52v5.47H60.17V446.93H62v1.6a4.54,4.54,0,0,1,3.82-1.7C68.41,446.83,70.23,448.31,70.23,451.43Z"/><path class="cls-2" d="M83.63,442.69v14.85H81.79v-1.68a4.48,4.48,0,0,1-3.78,1.8,5.42,5.42,0,0,1,0-10.83,4.51,4.51,0,0,1,3.7,1.7v-5.84Zm-1.9,9.54A3.57,3.57,0,1,0,78.17,456,3.49,3.49,0,0,0,81.73,452.23Z"/><path class="cls-2" d="M96.63,452.23a5.19,5.19,0,0,1-5.32,5.41,5.11,5.11,0,0,1-5.24-5.47c0-.16,0-.4,0-.58h8.6a3.59,3.59,0,0,0-3.84-3.1,4,4,0,0,0-3.06,1.28l-1.06-1.24a5.32,5.32,0,0,1,4.18-1.72C94.35,446.81,96.63,449.07,96.63,452.23Zm-1.92.75h-6.8a3.42,3.42,0,0,0,6.8,0Z"/><path class="cls-2" d="M114.57,452.23a5.15,5.15,0,0,1-5.36,5.43,4.53,4.53,0,0,1-3.7-1.72v5.48h-1.92V446.93h1.84v1.68a4.51,4.51,0,0,1,3.78-1.78A5.14,5.14,0,0,1,114.57,452.23Zm-1.94,0a3.57,3.57,0,1,0-3.58,3.75A3.5,3.5,0,0,0,112.63,452.23Z"/><path class="cls-2" d="M126.55,452.87H118a3.6,3.6,0,0,0,3.84,3.11,3.93,3.93,0,0,0,3.06-1.29l1.06,1.25a5.32,5.32,0,0,1-4.18,1.72c-3.42,0-5.7-2.26-5.7-5.43a5.19,5.19,0,0,1,5.32-5.4,5.11,5.11,0,0,1,5.24,5.46C126.59,452.45,126.57,452.69,126.55,452.87Zm-8.6-1.38h6.8a3.42,3.42,0,0,0-6.8,0Z"/><path class="cls-2" d="M132.65,457.64l-.24.9c1.16.12,1.74.78,1.74,1.66,0,1.12-1,1.82-2.48,1.82a3.36,3.36,0,0,1-1.78-.44l.42-1a2.64,2.64,0,0,0,1.36.34c.76,0,1.12-.3,1.12-.8s-.34-.78-1.14-.78h-.54l.44-1.72a7.17,7.17,0,0,1-3.86-1.22l.8-1.52a6.81,6.81,0,0,0,3.72,1.1c1.78,0,2.52-.54,2.52-1.44,0-2.39-6.7-.33-6.7-4.55,0-1.9,1.7-3.18,4.42-3.18a7.71,7.71,0,0,1,3.86,1l-.82,1.52a5.54,5.54,0,0,0-3.06-.84c-1.68,0-2.5.62-2.5,1.46,0,2.5,6.72.46,6.72,4.59C136.65,456.3,135.13,457.48,132.65,457.64Z"/><path class="cls-2" d="M148.41,452.23a5.19,5.19,0,0,1-5.32,5.41,5.12,5.12,0,0,1-5.25-5.47c0-.16,0-.4,0-.58h8.61a3.59,3.59,0,0,0-3.84-3.1,4,4,0,0,0-3.07,1.28l-1.06-1.24a5.33,5.33,0,0,1,4.19-1.72C146.13,446.81,148.41,449.07,148.41,452.23Zm-1.92.75h-6.8a3.42,3.42,0,0,0,6.8,0Z"/><path class="cls-2" d="M155,452.59l-2.2,2.05v2.9h-1.92V442.69h1.92v9.52l5.79-5.28h2.32l-4.47,4.38,4.91,6.23h-2.37Z"/><path class="cls-2" d="M171.14,451.13v6.41h-1.82v-1.4a3.93,3.93,0,0,1-3.48,1.52c-2.4,0-3.92-1.28-3.92-3.13,0-1.7,1.1-3.1,4.26-3.1h3v-.38c0-1.62-.94-2.56-2.84-2.56a5.36,5.36,0,0,0-3.36,1.14l-.8-1.44a7.06,7.06,0,0,1,4.38-1.36C169.5,446.83,171.14,448.23,171.14,451.13Zm-1.92,3.17v-1.48h-3c-1.9,0-2.44.74-2.44,1.63,0,1.07.88,1.73,2.34,1.73A3.07,3.07,0,0,0,169.22,454.3Z"/><path class="cls-2" d="M180.18,446.83v1.86a3.39,3.39,0,0,0-.44,0c-2.06,0-3.34,1.26-3.34,3.58v5.29h-1.92V446.93h1.84v1.78C177,447.47,178.32,446.83,180.18,446.83Z"/><path class="cls-2" d="M191.1,452.59l-2.2,2.05v2.9H187V442.69h1.92v9.52l5.79-5.28H197l-4.46,4.38,4.9,6.23h-2.36Z"/><path class="cls-2" d="M197.66,452.23a5.51,5.51,0,1,1,5.52,5.43A5.27,5.27,0,0,1,197.66,452.23Zm9.08,0a3.57,3.57,0,1,0-7.14,0,3.57,3.57,0,1,0,7.14,0Z"/><path class="cls-2" d="M228.72,451.43v6.11H226.8v-5.89c0-2.08-1-3.1-2.74-3.1-1.92,0-3.18,1.22-3.18,3.52v5.47H219v-5.89c0-2.08-1-3.1-2.74-3.1-1.92,0-3.18,1.22-3.18,3.52v5.47h-1.92V446.93H213v1.58a4.3,4.3,0,0,1,3.66-1.68,3.92,3.92,0,0,1,3.68,2,4.78,4.78,0,0,1,4.08-2C227,446.83,228.72,448.31,228.72,451.43Z"/><path class="cls-2" d="M240.44,451.13v6.41h-1.82v-1.4a3.93,3.93,0,0,1-3.48,1.52c-2.4,0-3.92-1.28-3.92-3.13,0-1.7,1.1-3.1,4.26-3.1h3v-.38c0-1.62-.94-2.56-2.84-2.56a5.36,5.36,0,0,0-3.36,1.14l-.8-1.44a7.06,7.06,0,0,1,4.38-1.36C238.8,446.83,240.44,448.23,240.44,451.13Zm-1.92,3.17v-1.48h-3c-1.9,0-2.44.74-2.44,1.63,0,1.07.88,1.73,2.34,1.73A3.07,3.07,0,0,0,238.52,454.3Z"/><path class="cls-2" d="M253.84,451.43v6.11h-1.92v-5.89c0-2.08-1-3.1-2.86-3.1-2,0-3.36,1.22-3.36,3.52v5.47h-1.92V446.93h1.84v1.6a4.54,4.54,0,0,1,3.82-1.7C252,446.83,253.84,448.31,253.84,451.43Z"/><path class="cls-2" d="M267.24,442.69v14.85H265.4v-1.68a4.48,4.48,0,0,1-3.78,1.8,5.42,5.42,0,0,1,0-10.83,4.51,4.51,0,0,1,3.7,1.7v-5.84Zm-1.9,9.54a3.58,3.58,0,1,0-7.15,0,3.58,3.58,0,1,0,7.15,0Z"/><path class="cls-2" d="M279.05,451.13v6.41h-1.82v-1.4a3.93,3.93,0,0,1-3.48,1.52c-2.4,0-3.92-1.28-3.92-3.13,0-1.7,1.1-3.1,4.26-3.1h3v-.38c0-1.62-.94-2.56-2.84-2.56a5.36,5.36,0,0,0-3.36,1.14l-.8-1.44a7.06,7.06,0,0,1,4.38-1.36C277.41,446.83,279.05,448.23,279.05,451.13Zm-1.92,3.17v-1.48h-3c-1.9,0-2.44.74-2.44,1.63,0,1.07.88,1.73,2.34,1.73A3.07,3.07,0,0,0,277.13,454.3Z"/><path class="cls-2" d="M300,451.43v6.11h-1.92v-5.89c0-2.08-1-3.1-2.74-3.1-1.92,0-3.18,1.22-3.18,3.52v5.47h-1.92v-5.89c0-2.08-1-3.1-2.74-3.1-1.92,0-3.18,1.22-3.18,3.52v5.47h-1.92V446.93h1.84v1.58a4.3,4.3,0,0,1,3.66-1.68,3.92,3.92,0,0,1,3.68,2,4.78,4.78,0,0,1,4.08-2C298.23,446.83,300,448.31,300,451.43Z"/><path class="cls-2" d="M303.31,446.93h1.92v10.61h-1.92Z"/><path class="cls-2" d="M316.53,456v1.58h-8.88V456.3l6.26-7.79h-6.14v-1.58h8.6v1.26L310.11,456Z"/><path class="cls-2" d="M329.35,456.92a3.62,3.62,0,0,1-2.32.74,3,3,0,0,1-3.36-3.32v-5.83h-1.8v-1.58h1.8v-2.32h1.92v2.32h3v1.58h-3v5.75a1.56,1.56,0,0,0,1.66,1.78,2.42,2.42,0,0,0,1.5-.5Z"/><path class="cls-2" d="M340.67,452.23a5.19,5.19,0,0,1-5.32,5.41,5.11,5.11,0,0,1-5.24-5.47c0-.16,0-.4,0-.58h8.6a3.59,3.59,0,0,0-3.84-3.1,4,4,0,0,0-3.06,1.28l-1.06-1.24a5.32,5.32,0,0,1,4.18-1.72C338.39,446.81,340.67,449.07,340.67,452.23Zm-1.92.75H332a3.42,3.42,0,0,0,6.8,0Z"/><path class="cls-2" d="M348.81,446.83v1.86a3.39,3.39,0,0,0-.44,0c-2.06,0-3.34,1.26-3.34,3.58v5.29H343.1V446.93H345v1.78C345.63,447.47,347,446.83,348.81,446.83Z"/><path class="cls-2" d="M360.43,452.23a5.2,5.2,0,0,1-5.33,5.41,5.11,5.11,0,0,1-5.24-5.47c0-.16,0-.4,0-.58h8.61a3.6,3.6,0,0,0-3.85-3.1,4,4,0,0,0-3.06,1.28l-1.06-1.24a5.32,5.32,0,0,1,4.18-1.72C358.15,446.81,360.43,449.07,360.43,452.23Zm-1.92.75H351.7a3.43,3.43,0,0,0,6.81,0Z"/><path class="cls-2" d="M365,446v.92h3.08v1.58h-3v9h-1.92v-9h-1.8v-1.58h1.8V446a3.19,3.19,0,0,1,3.5-3.42,3.58,3.58,0,0,1,2.16.62l-.58,1.46a2.49,2.49,0,0,0-1.48-.5C365.6,444.15,365,444.79,365,446Z"/><path class="cls-2" d="M371.08,443.85a1.18,1.18,0,0,1,2.36,0,1.18,1.18,0,1,1-2.36,0Zm.22,3.08h1.92v10.61H371.3Z"/><path class="cls-2" d="M386.72,451.43v6.11H384.8v-5.89c0-2.08-1-3.1-2.86-3.1-2,0-3.36,1.22-3.36,3.52v5.47h-1.92V446.93h1.84v1.6a4.54,4.54,0,0,1,3.82-1.7C384.9,446.83,386.72,448.31,386.72,451.43Z"/><path class="cls-2" d="M389.38,451.21h5.38v1.66h-5.38Z"/><path class="cls-2" d="M56.76,466.69v14.85H54.92v-1.68a4.48,4.48,0,0,1-3.78,1.8,5.42,5.42,0,0,1,0-10.83,4.51,4.51,0,0,1,3.7,1.7v-5.84Zm-1.9,9.54A3.57,3.57,0,1,0,51.3,480,3.49,3.49,0,0,0,54.86,476.23Z"/><path class="cls-2" d="M70,476.23a5.19,5.19,0,0,1-5.32,5.41,5.11,5.11,0,0,1-5.24-5.47c0-.16,0-.4,0-.58h8.6a3.59,3.59,0,0,0-3.84-3.1,4,4,0,0,0-3.06,1.28l-1.06-1.24a5.32,5.32,0,0,1,4.18-1.72C67.7,470.81,70,473.07,70,476.23Zm-1.92.75h-6.8a3.42,3.42,0,0,0,6.8,0Z"/><path class="cls-2" d="M82.7,475.43v6.11H80.78v-5.89c0-2.08-1-3.1-2.86-3.1-2,0-3.36,1.22-3.36,3.52v5.47H72.64V470.93h1.84v1.6a4.54,4.54,0,0,1,3.82-1.7C80.88,470.83,82.7,472.31,82.7,475.43Z"/><path class="cls-2" d="M91.75,474.53a7.08,7.08,0,0,1,7.42-7.16,6.94,6.94,0,0,1,5.33,2.18l-1.31,1.26a5.19,5.19,0,0,0-3.94-1.66,5.39,5.39,0,1,0,0,10.77,5.18,5.18,0,0,0,3.94-1.69l1.31,1.27a7,7,0,0,1-5.35,2.2A7.08,7.08,0,0,1,91.75,474.53Z"/><path class="cls-2" d="M119.38,467.53l-6.15,14h-2l-6.16-14h2.16l5,11.5,5.09-11.5Z"/><path class="cls-2" d="M120.61,467.53h1.68l-.14,5.4h-1.42Z"/><path class="cls-2" d="M135.44,475.43v6.11h-1.92v-5.89c0-2.08-1-3.1-2.87-3.1-2,0-3.36,1.22-3.36,3.52v5.47h-1.92V470.93h1.84v1.6a4.54,4.54,0,0,1,3.82-1.7C133.62,470.83,135.44,472.31,135.44,475.43Z"/><path class="cls-2" d="M138.77,467.85a1.18,1.18,0,0,1,2.36,0,1.18,1.18,0,1,1-2.36,0Zm.22,3.08h1.92v10.61H139Z"/><path class="cls-2" d="M152.44,480v1.58h-8.89V480.3l6.26-7.79h-6.14v-1.58h8.61v1.26L146,480Z"/><path class="cls-2" d="M154.77,467.85a1.18,1.18,0,0,1,2.36,0,1.18,1.18,0,1,1-2.36,0Zm.22,3.08h1.92v10.61H155Z"/><path class="cls-2" d="M176.93,470.93v14.49H175v-5.48a4.53,4.53,0,0,1-3.7,1.72,5.42,5.42,0,0,1,0-10.83,4.51,4.51,0,0,1,3.78,1.78v-1.68Zm-1.9,5.3a3.57,3.57,0,1,0-3.56,3.75A3.5,3.5,0,0,0,175,476.23Z"/><path class="cls-2" d="M190.45,470.93v10.61h-1.82v-1.6a4.31,4.31,0,0,1-3.6,1.72c-2.74,0-4.56-1.5-4.56-4.63v-6.1h1.92v5.89c0,2.08,1,3.12,2.86,3.12,2,0,3.28-1.25,3.28-3.53v-5.48Z"/><path class="cls-2" d="M199.81,470.83v1.86a3.39,3.39,0,0,0-.44,0c-2.06,0-3.34,1.26-3.34,3.58v5.29h-1.92V470.93H196v1.78C196.63,471.47,198,470.83,199.81,470.83Z"/><path class="cls-2" d="M212.19,470.93v10.61h-1.82v-1.6a4.31,4.31,0,0,1-3.6,1.72c-2.74,0-4.56-1.5-4.56-4.63v-6.1h1.92v5.89c0,2.08,1,3.12,2.86,3.12,2,0,3.28-1.25,3.28-3.53v-5.48Z"/><path class="cls-2" d="M215.85,466.69h1.92v14.85h-1.92Z"/><path class="cls-2" d="M231.31,470.93v10.61h-1.82v-1.6a4.31,4.31,0,0,1-3.6,1.72c-2.74,0-4.56-1.5-4.56-4.63v-6.1h1.92v5.89c0,2.08,1,3.12,2.86,3.12,2,0,3.28-1.25,3.28-3.53v-5.48Z"/><path class="cls-2" d="M238.59,481.64l-.24.9c1.16.12,1.74.78,1.74,1.66,0,1.12-1,1.82-2.48,1.82a3.36,3.36,0,0,1-1.78-.44l.42-1a2.64,2.64,0,0,0,1.36.34c.76,0,1.12-.3,1.12-.8s-.34-.78-1.14-.78h-.54l.44-1.72a7.17,7.17,0,0,1-3.86-1.22l.8-1.52a6.81,6.81,0,0,0,3.72,1.1c1.78,0,2.52-.54,2.52-1.44,0-2.39-6.7-.33-6.7-4.55,0-1.9,1.7-3.18,4.42-3.18a7.71,7.71,0,0,1,3.86,1l-.82,1.52a5.54,5.54,0,0,0-3.06-.84c-1.68,0-2.5.62-2.5,1.46,0,2.5,6.72.46,6.72,4.59C242.59,480.3,241.07,481.48,238.59,481.64Z"/><path class="cls-2" d="M260.73,470.93l-4.64,10.61h-2l-4.65-10.61h2l3.65,8.51,3.72-8.51Z"/><path class="cls-2" d="M271.81,476.23a5.19,5.19,0,0,1-5.32,5.41,5.12,5.12,0,0,1-5.25-5.47c0-.16,0-.4,0-.58h8.61a3.59,3.59,0,0,0-3.84-3.1,4,4,0,0,0-3.07,1.28l-1.05-1.24a5.32,5.32,0,0,1,4.18-1.72C269.53,470.81,271.81,473.07,271.81,476.23Zm-1.92.75h-6.8a3.42,3.42,0,0,0,6.8,0Z"/><path class="cls-2" d="M283,470v.92h3.08v1.58h-3v9H281.1v-9h-1.8v-1.58h1.8V470a3.19,3.19,0,0,1,3.5-3.42,3.58,3.58,0,0,1,2.16.62l-.58,1.46a2.49,2.49,0,0,0-1.48-.5C283.56,468.15,283,468.79,283,470Z"/><path class="cls-2" d="M286.74,476.23a5.51,5.51,0,1,1,5.52,5.43A5.27,5.27,0,0,1,286.74,476.23Zm9.08,0a3.57,3.57,0,1,0-7.14,0,3.57,3.57,0,1,0,7.14,0Z"/><path class="cls-2" d="M306.12,470.83v1.86a3.39,3.39,0,0,0-.44,0c-2.06,0-3.34,1.26-3.34,3.58v5.29h-1.92V470.93h1.84v1.78C302.94,471.47,304.26,470.83,306.12,470.83Z"/><path class="cls-2" d="M326.08,475.43v6.11h-1.92v-5.89c0-2.08-1-3.1-2.74-3.1-1.92,0-3.18,1.22-3.18,3.52v5.47h-1.92v-5.89c0-2.08-1-3.1-2.74-3.1-1.92,0-3.18,1.22-3.18,3.52v5.47h-1.92V470.93h1.84v1.58a4.3,4.3,0,0,1,3.66-1.68,3.92,3.92,0,0,1,3.68,2,4.78,4.78,0,0,1,4.08-2C324.32,470.83,326.08,472.31,326.08,475.43Z"/><path class="cls-2" d="M338,475.13v6.41H336.2v-1.4a3.93,3.93,0,0,1-3.48,1.52c-2.4,0-3.92-1.28-3.92-3.13,0-1.7,1.1-3.1,4.26-3.1h3v-.38c0-1.62-.94-2.56-2.84-2.56a5.36,5.36,0,0,0-3.36,1.14l-.8-1.44a7.06,7.06,0,0,1,4.38-1.36C336.38,470.83,338,472.23,338,475.13Zm-1.92,3.17v-1.48h-3c-1.9,0-2.44.74-2.44,1.63,0,1.07.88,1.73,2.34,1.73A3.07,3.07,0,0,0,336.1,478.3Z"/><path class="cls-2" d="M358.92,476.23a5.16,5.16,0,0,1-5.36,5.43,4.48,4.48,0,0,1-3.78-1.8v1.68h-1.84V466.69h1.92v5.84a4.51,4.51,0,0,1,3.7-1.7A5.14,5.14,0,0,1,358.92,476.23Zm-1.94,0A3.57,3.57,0,1,0,353.4,480,3.49,3.49,0,0,0,357,476.23Z"/><path class="cls-2" d="M369.88,475.13v6.41h-1.82v-1.4a3.93,3.93,0,0,1-3.48,1.52c-2.4,0-3.92-1.28-3.92-3.13,0-1.7,1.1-3.1,4.26-3.1h3v-.38c0-1.62-.94-2.56-2.84-2.56a5.36,5.36,0,0,0-3.36,1.14l-.8-1.44a7.06,7.06,0,0,1,4.38-1.36C368.24,470.83,369.88,472.23,369.88,475.13ZM368,478.3v-1.48h-3c-1.9,0-2.44.74-2.44,1.63,0,1.07.88,1.73,2.34,1.73A3.07,3.07,0,0,0,368,478.3Z"/><path class="cls-2" d="M380.2,481.54l-3.06-4.06-3.1,4.06H371.9l4.18-5.43-4-5.18h2.14l2.92,3.82,2.9-3.82h2.1l-4,5.18,4.22,5.43Z"/><path class="cls-2" d="M384.48,470.93h1.92v10.61h-1.92Z"/><path class="cls-2" d="M389.38,475.21h5.38v1.66h-5.38Z"/><path class="cls-2" d="M64.36,499.43v6.11H62.44v-5.89c0-2.08-1-3.1-2.74-3.1-1.92,0-3.18,1.22-3.18,3.52v5.47H54.6v-5.89c0-2.08-1-3.1-2.74-3.1-1.92,0-3.18,1.22-3.18,3.52v5.47H46.76V494.93H48.6v1.58a4.3,4.3,0,0,1,3.66-1.68,3.92,3.92,0,0,1,3.68,2,4.78,4.78,0,0,1,4.08-2C62.6,494.83,64.36,496.31,64.36,499.43Z"/><path class="cls-2" d="M67.9,494.93h1.92v10.61H67.9Z"/><path class="cls-2" d="M83.54,499.43v6.11H81.62v-5.89c0-2.08-1-3.1-2.86-3.1-2,0-3.36,1.22-3.36,3.52v5.47H73.48V494.93h1.84v1.6a4.54,4.54,0,0,1,3.82-1.7C81.72,494.83,83.54,496.31,83.54,499.43Z"/><path class="cls-2" d="M97.16,490.69v14.85H95.32v-1.68a4.48,4.48,0,0,1-3.78,1.8,5.42,5.42,0,0,1,0-10.83,4.51,4.51,0,0,1,3.7,1.7v-5.84Zm-1.9,9.54A3.57,3.57,0,1,0,91.7,504,3.49,3.49,0,0,0,95.26,500.23Z"/><path class="cls-2" d="M109.2,499.13v6.41h-1.82v-1.4a3.93,3.93,0,0,1-3.48,1.52c-2.4,0-3.92-1.28-3.92-3.13,0-1.7,1.1-3.1,4.26-3.1h3v-.38c0-1.62-.94-2.56-2.84-2.56a5.36,5.36,0,0,0-3.36,1.14l-.81-1.44a7.11,7.11,0,0,1,4.39-1.36C107.56,494.83,109.2,496.23,109.2,499.13Zm-1.92,3.17v-1.48h-3c-1.9,0-2.44.74-2.44,1.63,0,1.07.88,1.73,2.34,1.73A3.07,3.07,0,0,0,107.28,502.3Z"/><path class="cls-2" d="M122.82,499.43v6.11H120.9v-5.89c0-2.08-1-3.1-2.86-3.1-2,0-3.36,1.22-3.36,3.52v5.47h-1.92V494.93h1.84v1.6a4.54,4.54,0,0,1,3.82-1.7C121,494.83,122.82,496.31,122.82,499.43Z"/><path class="cls-2" d="M142.65,494.93v9.17c0,3.74-1.9,5.44-5.5,5.44a7.85,7.85,0,0,1-5.06-1.58l.92-1.48a6.47,6.47,0,0,0,4.08,1.38c2.5,0,3.64-1.16,3.64-3.56v-.84a4.85,4.85,0,0,1-3.82,1.64,5.14,5.14,0,1,1,0-10.27,4.84,4.84,0,0,1,3.92,1.74v-1.64Zm-1.88,5a3.66,3.66,0,0,0-7.3,0,3.65,3.65,0,0,0,7.3,0Z"/><path class="cls-2" d="M156.19,494.93v10.61h-1.82v-1.6a4.31,4.31,0,0,1-3.6,1.72c-2.74,0-4.56-1.5-4.56-4.63v-6.1h1.92v5.89c0,2.08,1,3.12,2.86,3.12,2,0,3.28-1.25,3.28-3.53v-5.48Zm-7.86-2.9a1,1,0,1,1,2,0,1,1,0,0,1-2,0Zm3.72,0a1,1,0,1,1,2,0,1,1,0,0,1-2,0Z"/><path class="cls-2" d="M158.87,500.23a5.3,5.3,0,0,1,5.6-5.4,4.73,4.73,0,0,1,4.32,2.26l-1.46.94a3.3,3.3,0,0,0-2.88-1.52,3.74,3.74,0,0,0,0,7.47,3.29,3.29,0,0,0,2.88-1.53l1.46.93a4.74,4.74,0,0,1-4.32,2.28A5.31,5.31,0,0,1,158.87,500.23Z"/><path class="cls-2" d="M171.13,490.69h1.92v14.85h-1.92Z"/><path class="cls-2" d="M186.29,500.23a5.19,5.19,0,0,1-5.32,5.41,5.11,5.11,0,0,1-5.24-5.47c0-.16,0-.4,0-.58h8.6a3.59,3.59,0,0,0-3.84-3.1,4,4,0,0,0-3.06,1.28l-1.06-1.24a5.32,5.32,0,0,1,4.18-1.72C184,494.81,186.29,497.07,186.29,500.23Zm-1.92.75h-6.8a3.42,3.42,0,0,0,6.8,0Z"/><path class="cls-2" d="M199,499.43v6.11h-1.92v-5.89c0-2.08-1-3.1-2.86-3.1-2,0-3.36,1.22-3.36,3.52v5.47H189V494.93h1.84v1.6a4.54,4.54,0,0,1,3.82-1.7C197.19,494.83,199,496.31,199,499.43Z"/><path class="cls-2" d="M212.63,490.69v14.85h-1.84v-1.68a4.48,4.48,0,0,1-3.78,1.8,5.42,5.42,0,0,1,0-10.83,4.51,4.51,0,0,1,3.7,1.7v-5.84Zm-1.9,9.54a3.57,3.57,0,1,0-3.56,3.75A3.49,3.49,0,0,0,210.73,500.23Z"/><path class="cls-2" d="M216.05,491.85a1.18,1.18,0,0,1,2.36,0,1.18,1.18,0,1,1-2.36,0Zm.22,3.08h1.92v10.61h-1.92Z"/><path class="cls-2" d="M227.55,494.83v1.86a3.39,3.39,0,0,0-.44,0c-2.06,0-3.34,1.26-3.34,3.58v5.29h-1.92V494.93h1.84v1.78C224.37,495.47,225.69,494.83,227.55,494.83Z"/><path class="cls-2" d="M229.69,491.85a1.18,1.18,0,0,1,2.36,0,1.18,1.18,0,1,1-2.36,0Zm.22,3.08h1.92v10.61h-1.92Z"/><path class="cls-2" d="M246.47,500.23a5.16,5.16,0,0,1-5.36,5.43,4.48,4.48,0,0,1-3.78-1.8v1.68h-1.84V490.69h1.92v5.84a4.51,4.51,0,0,1,3.7-1.7A5.14,5.14,0,0,1,246.47,500.23Zm-1.94,0A3.57,3.57,0,1,0,241,504,3.49,3.49,0,0,0,244.53,500.23Z"/><path class="cls-2" d="M250.67,504.27a4,4,0,0,1-.34,1.45l-.94,2.78h-1.26l.74-3a1.28,1.28,0,0,1-.84-1.25,1.31,1.31,0,0,1,1.34-1.35A1.29,1.29,0,0,1,250.67,504.27Z"/><path class="cls-2" d="M258.58,500.23a5.52,5.52,0,1,1,5.52,5.43A5.27,5.27,0,0,1,258.58,500.23Zm9.09,0a3.58,3.58,0,1,0-7.15,0,3.58,3.58,0,1,0,7.15,0ZM261.2,492a1,1,0,1,1,2,0,1,1,0,0,1-2,0Zm3.73,0a1,1,0,1,1,2,0,1,1,0,0,1-2,0Z"/><path class="cls-2" d="M280,504v1.58h-8.88V504.3l6.26-7.79H271.2v-1.58h8.61v1.26L273.54,504Z"/><path class="cls-2" d="M291.94,500.23a5.19,5.19,0,0,1-5.32,5.41,5.11,5.11,0,0,1-5.24-5.47c0-.16,0-.4,0-.58H290a3.59,3.59,0,0,0-3.84-3.1,4,4,0,0,0-3.06,1.28l-1.06-1.24a5.32,5.32,0,0,1,4.18-1.72C289.66,494.81,291.94,497.07,291.94,500.23ZM290,501h-6.8a3.42,3.42,0,0,0,6.8,0Z"/><path class="cls-2" d="M294.6,490.69h1.92v14.85H294.6Z"/><path class="cls-2" d="M316.32,490.69v14.85h-1.84v-1.68a4.48,4.48,0,0,1-3.78,1.8,5.42,5.42,0,0,1,0-10.83,4.51,4.51,0,0,1,3.7,1.7v-5.84Zm-1.9,9.54a3.57,3.57,0,1,0-3.56,3.75A3.49,3.49,0,0,0,314.42,500.23Z"/><path class="cls-2" d="M319.74,491.85a1.18,1.18,0,1,1,2.36,0,1.18,1.18,0,1,1-2.36,0Zm.22,3.08h1.92v10.61H320Z"/><path class="cls-2" d="M333.4,504v1.58h-8.88V504.3l6.26-7.79h-6.14v-1.58h8.6v1.26L327,504Z"/><path class="cls-2" d="M344.36,499.13v6.41h-1.82v-1.4a3.93,3.93,0,0,1-3.48,1.52c-2.4,0-3.92-1.28-3.92-3.13,0-1.7,1.1-3.1,4.26-3.1h3v-.38c0-1.62-.94-2.56-2.84-2.56a5.36,5.36,0,0,0-3.36,1.14l-.8-1.44a7.06,7.06,0,0,1,4.38-1.36C342.72,494.83,344.36,496.23,344.36,499.13Zm-1.92,3.17v-1.48h-3c-1.9,0-2.44.74-2.44,1.63,0,1.07.88,1.73,2.34,1.73A3.07,3.07,0,0,0,342.44,502.3Z"/><path class="cls-2" d="M357.1,494.93,352,506.6c-.94,2.24-2.16,2.94-3.78,2.94a4,4,0,0,1-2.72-1l.82-1.44a2.71,2.71,0,0,0,1.9.78c.92,0,1.5-.42,2-1.64l.34-.74-4.68-10.59h2l3.7,8.49,3.66-8.49Z"/><path class="cls-2" d="M369,499.43v6.11H367v-5.89c0-2.08-1-3.1-2.86-3.1-2,0-3.36,1.22-3.36,3.52v5.47H358.9V494.93h1.84v1.6a4.54,4.54,0,0,1,3.82-1.7C367.14,494.83,369,496.31,369,499.43Z"/><path class="cls-2" d="M372.52,490.69h1.92v14.85h-1.92Z"/><path class="cls-2" d="M386.5,499.13v6.41h-1.82v-1.4a3.93,3.93,0,0,1-3.48,1.52c-2.4,0-3.92-1.28-3.92-3.13,0-1.7,1.1-3.1,4.26-3.1h3v-.38c0-1.62-.94-2.56-2.84-2.56a5.36,5.36,0,0,0-3.36,1.14l-.8-1.44a7.06,7.06,0,0,1,4.38-1.36C384.86,494.83,386.5,496.23,386.5,499.13Zm-1.92,3.17v-1.48h-3c-1.9,0-2.44.74-2.44,1.63,0,1.07.88,1.73,2.34,1.73A3.07,3.07,0,0,0,384.58,502.3Z"/><path class="cls-2" d="M389.38,499.21h5.38v1.66h-5.38Z"/><path class="cls-2" d="M52.46,518.83v1.86a3.39,3.39,0,0,0-.44,0c-2.06,0-3.34,1.26-3.34,3.58v5.29H46.76V518.93H48.6v1.78C49.28,519.47,50.6,518.83,52.46,518.83Z"/><path class="cls-2" d="M54.64,518.93h1.92v10.61H54.64Z"/><path class="cls-2" d="M77.64,523.43v6.11H75.72v-5.89c0-2.08-1-3.1-2.74-3.1-1.92,0-3.19,1.22-3.19,3.52v5.47H67.87v-5.89c0-2.08-1-3.1-2.74-3.1-1.92,0-3.18,1.22-3.18,3.52v5.47H60V518.93h1.84v1.58a4.3,4.3,0,0,1,3.66-1.68,3.92,3.92,0,0,1,3.68,2,4.81,4.81,0,0,1,4.09-2C75.88,518.83,77.64,520.31,77.64,523.43Z"/><path class="cls-2" d="M81,518.93h1.92v10.61H81Z"/><path class="cls-2" d="M94.25,528v1.58H85.37V528.3l6.26-7.79H85.49v-1.58h8.6v1.26L87.83,528Z"/><path class="cls-2" d="M100.89,515.85a1.18,1.18,0,1,1,2.36,0,1.18,1.18,0,1,1-2.36,0Zm.22,3.08H103v10.61h-1.92Z"/><path class="cls-2" d="M106.51,514.69h1.92v14.85h-1.92Z"/><path class="cls-2" d="M121.49,524.23a5.19,5.19,0,0,1-5.32,5.41,5.11,5.11,0,0,1-5.24-5.47c0-.16,0-.4,0-.58h8.6a3.59,3.59,0,0,0-3.84-3.1,4,4,0,0,0-3.06,1.28l-1.06-1.24a5.32,5.32,0,0,1,4.18-1.72C119.21,518.81,121.49,521.07,121.49,524.23Zm-1.92.75h-6.8a3.42,3.42,0,0,0,6.8,0Z"/><path class="cls-2" d="M128.23,515.85a1.18,1.18,0,1,1,2.36,0,1.18,1.18,0,1,1-2.36,0Zm.22,3.08h1.92v10.61h-1.92Z"/><path class="cls-2" d="M137.47,529.64l-.24.9c1.16.12,1.74.78,1.74,1.66,0,1.12-1,1.82-2.48,1.82a3.36,3.36,0,0,1-1.78-.44l.42-1a2.64,2.64,0,0,0,1.36.34c.76,0,1.12-.3,1.12-.8s-.34-.78-1.14-.78h-.54l.44-1.72a7.17,7.17,0,0,1-3.86-1.22l.8-1.52A6.81,6.81,0,0,0,137,528c1.78,0,2.52-.54,2.52-1.44,0-2.39-6.7-.33-6.7-4.55,0-1.9,1.7-3.18,4.42-3.18a7.71,7.71,0,0,1,3.86,1l-.82,1.52a5.54,5.54,0,0,0-3.06-.84c-1.68,0-2.5.62-2.5,1.46,0,2.5,6.72.46,6.72,4.59C141.47,528.3,140,529.48,137.47,529.64Z"/><path class="cls-2" d="M165.78,523.43v6.11h-1.92v-5.89c0-2.08-1-3.1-2.74-3.1-1.92,0-3.18,1.22-3.18,3.52v5.47H156v-5.89c0-2.08-1-3.1-2.74-3.1-1.92,0-3.18,1.22-3.18,3.52v5.47h-1.92V518.93H150v1.58a4.3,4.3,0,0,1,3.66-1.68,3.92,3.92,0,0,1,3.68,2,4.78,4.78,0,0,1,4.08-2C164,518.83,165.78,520.31,165.78,523.43Z"/><path class="cls-2" d="M179,518.93v10.61h-1.82v-1.6a4.31,4.31,0,0,1-3.6,1.72c-2.74,0-4.56-1.5-4.56-4.63v-6.1H171v5.89c0,2.08,1,3.12,2.86,3.12,2,0,3.28-1.25,3.28-3.53v-5.48Zm-7.86-2.9a1,1,0,1,1,2,0,1,1,0,0,1-2,0Zm3.72,0a1,1,0,1,1,2,0,1,1,0,0,1-2,0Z"/><path class="cls-2" d="M188.19,518.83v1.86a3.39,3.39,0,0,0-.44,0c-2.06,0-3.34,1.26-3.34,3.58v5.29h-1.92V518.93h1.84v1.78C185,519.47,186.33,518.83,188.19,518.83Z"/><path class="cls-2" d="M198.75,523.13v6.41h-1.82v-1.4a3.93,3.93,0,0,1-3.48,1.52c-2.4,0-3.92-1.28-3.92-3.13,0-1.7,1.1-3.1,4.26-3.1h3v-.38c0-1.62-.94-2.56-2.84-2.56a5.36,5.36,0,0,0-3.36,1.14l-.8-1.44a7.06,7.06,0,0,1,4.38-1.36C197.11,518.83,198.75,520.23,198.75,523.13Zm-1.92,3.17v-1.48h-3c-1.9,0-2.44.74-2.44,1.63,0,1.07.88,1.73,2.34,1.73A3.07,3.07,0,0,0,196.83,526.3Z"/><path class="cls-2" d="M201.21,524.23a5.3,5.3,0,0,1,5.6-5.4,4.73,4.73,0,0,1,4.32,2.26l-1.46.94a3.3,3.3,0,0,0-2.88-1.52,3.74,3.74,0,0,0,0,7.47,3.29,3.29,0,0,0,2.88-1.53l1.46.93a4.74,4.74,0,0,1-4.32,2.28A5.31,5.31,0,0,1,201.21,524.23Z"/><path class="cls-2" d="M213.2,515.85a1.18,1.18,0,1,1,2.36,0,1.18,1.18,0,1,1-2.36,0Zm.22,3.08h1.93v10.61h-1.93Z"/><path class="cls-2" d="M228.4,524.23a5.19,5.19,0,0,1-5.32,5.41,5.11,5.11,0,0,1-5.24-5.47c0-.16,0-.4,0-.58h8.6a3.59,3.59,0,0,0-3.84-3.1,4,4,0,0,0-3.06,1.28l-1.06-1.24a5.32,5.32,0,0,1,4.18-1.72C226.12,518.81,228.4,521.07,228.4,524.23Zm-1.92.75h-6.8a3.42,3.42,0,0,0,6.8,0Z"/><path class="cls-2" d="M236.84,528.92a3.62,3.62,0,0,1-2.32.74,3,3,0,0,1-3.36-3.32v-5.83h-1.8v-1.58h1.8v-2.32h1.92v2.32h3v1.58h-3v5.75a1.56,1.56,0,0,0,1.66,1.78,2.42,2.42,0,0,0,1.5-.5Z"/><path class="cls-2" d="M239,514.69h1.92v14.85H239Z"/><path class="cls-2" d="M254,524.23a5.19,5.19,0,0,1-5.32,5.41,5.11,5.11,0,0,1-5.24-5.47c0-.16,0-.4,0-.58H252a3.59,3.59,0,0,0-3.84-3.1,4,4,0,0,0-3.06,1.28l-1.06-1.24a5.32,5.32,0,0,1,4.18-1.72C251.68,518.81,254,521.07,254,524.23ZM252,525h-6.8a3.42,3.42,0,0,0,6.8,0Z"/><path class="cls-2" d="M262.14,518.83v1.86a3.39,3.39,0,0,0-.44,0c-2.06,0-3.34,1.26-3.34,3.58v5.29h-1.92V518.93h1.84v1.78C259,519.47,260.28,518.83,262.14,518.83Z"/><path class="cls-2" d="M264.09,515.85a1.18,1.18,0,1,1,2.36,0,1.18,1.18,0,1,1-2.36,0Zm.22,3.08h1.92v10.61h-1.92Z"/><path class="cls-2" d="M279.77,523.43v6.11h-1.92v-5.89c0-2.08-1-3.1-2.86-3.1-2,0-3.36,1.22-3.36,3.52v5.47h-1.92V518.93h1.84v1.6a4.54,4.54,0,0,1,3.82-1.7C278,518.83,279.77,520.31,279.77,523.43Z"/><path class="cls-2" d="M293.21,514.69v14.85h-1.84v-1.68a4.48,4.48,0,0,1-3.78,1.8,5.42,5.42,0,0,1,0-10.83,4.51,4.51,0,0,1,3.7,1.7v-5.84Zm-1.9,9.54a3.57,3.57,0,1,0-3.56,3.75A3.49,3.49,0,0,0,291.31,524.23Z"/><path class="cls-2" d="M306.25,524.23a5.19,5.19,0,0,1-5.32,5.41,5.11,5.11,0,0,1-5.24-5.47c0-.16,0-.4,0-.58h8.6a3.59,3.59,0,0,0-3.84-3.1,4,4,0,0,0-3.06,1.28l-1.06-1.24a5.32,5.32,0,0,1,4.18-1.72C304,518.81,306.25,521.07,306.25,524.23Zm-1.92.75h-6.8a3.42,3.42,0,0,0,6.8,0Z"/><path class="cls-2" d="M323.09,518.93v10.61h-1.82v-1.6a4.31,4.31,0,0,1-3.6,1.72c-2.74,0-4.56-1.5-4.56-4.63v-6.1H315v5.89c0,2.08,1,3.12,2.86,3.12,2,0,3.28-1.25,3.28-3.53v-5.48Zm-7.86-2.9a1,1,0,1,1,2,0,1,1,0,0,1-2,0Zm3.72,0a1,1,0,1,1,2,0,1,1,0,1,1-2,0Z"/><path class="cls-2" d="M325.23,528.42l.8-1.52a6.81,6.81,0,0,0,3.72,1.1c1.78,0,2.52-.54,2.52-1.44,0-2.39-6.7-.33-6.7-4.55,0-1.9,1.7-3.18,4.42-3.18a7.71,7.71,0,0,1,3.86,1l-.82,1.52a5.54,5.54,0,0,0-3.06-.84c-1.68,0-2.5.62-2.5,1.46,0,2.5,6.72.46,6.72,4.59,0,1.92-1.76,3.14-4.58,3.14A7.65,7.65,0,0,1,325.23,528.42Z"/><path class="cls-2" d="M342.37,528.92a3.62,3.62,0,0,1-2.32.74,3,3,0,0,1-3.36-3.32v-5.83h-1.8v-1.58h1.8v-2.32h1.92v2.32h3v1.58h-3v5.75a1.56,1.56,0,0,0,1.66,1.78,2.42,2.42,0,0,0,1.5-.5Z"/><path class="cls-2" d="M354.39,518.93v10.61h-1.82v-1.6a4.31,4.31,0,0,1-3.6,1.72c-2.74,0-4.56-1.5-4.56-4.63v-6.1h1.92v5.89c0,2.08,1,3.12,2.86,3.12,2,0,3.28-1.25,3.28-3.53v-5.48Zm-7.86-2.9a1,1,0,1,1,2,0,1,1,0,1,1-2,0Zm3.72,0a1,1,0,1,1,2,0,1,1,0,1,1-2,0Z"/><path class="cls-2" d="M367.93,523.43v6.11H366v-5.89c0-2.08-1-3.1-2.86-3.1-2,0-3.36,1.22-3.36,3.52v5.47h-1.92V518.93h1.84v1.6a4.54,4.54,0,0,1,3.82-1.7C366.1,518.83,367.93,520.31,367.93,523.43Z"/><path class="cls-2" d="M371.3,514.69h1.92v14.85H371.3Z"/><path class="cls-2" d="M386.58,518.93v10.61h-1.82v-1.6a4.31,4.31,0,0,1-3.6,1.72c-2.74,0-4.56-1.5-4.56-4.63v-6.1h1.92v5.89c0,2.08,1,3.12,2.86,3.12,2,0,3.28-1.25,3.28-3.53v-5.48Zm-7.86-2.9a1,1,0,1,1,2,0,1,1,0,0,1-2,0Zm3.72,0a1,1,0,1,1,2,0,1,1,0,1,1-2,0Z"/><path class="cls-2" d="M389.38,523.21h5.38v1.66h-5.38Z"/><path class="cls-2" d="M56.14,542.93,51,554.6c-.94,2.24-2.16,2.94-3.78,2.94a4,4,0,0,1-2.72-1l.82-1.44a2.71,2.71,0,0,0,1.9.78c.92,0,1.5-.42,2-1.64l.34-.74L44.9,542.93h2l3.7,8.49,3.66-8.49Z"/><path class="cls-2" d="M67.82,542.93v10.61H66v-1.6a4.31,4.31,0,0,1-3.6,1.72c-2.74,0-4.56-1.5-4.56-4.63v-6.1h1.92v5.89c0,2.08,1,3.12,2.86,3.12,2,0,3.28-1.25,3.28-3.53v-5.48ZM60,540a1,1,0,1,1,2,0,1,1,0,0,1-2,0Zm3.72,0a1,1,0,1,1,2,0,1,1,0,1,1-2,0Z"/><path class="cls-2" d="M81.54,547.43v6.11H79.62v-5.89c0-2.08-1-3.1-2.86-3.1-2,0-3.36,1.22-3.36,3.52v5.47H71.48V542.93h1.84v1.6a4.54,4.54,0,0,1,3.82-1.7C79.72,542.83,81.54,544.31,81.54,547.43Z"/><path class="cls-2" d="M95,542.93v10.61H93.16v-1.6a4.31,4.31,0,0,1-3.6,1.72c-2.74,0-4.56-1.5-4.56-4.63v-6.1h1.92v5.89c0,2.08,1,3.12,2.86,3.12,2,0,3.28-1.25,3.28-3.53v-5.48ZM87.12,540a1,1,0,1,1,2,0,1,1,0,0,1-2,0Zm3.72,0a1,1,0,1,1,2,0,1,1,0,0,1-2,0Z"/><path class="cls-2" d="M106.5,552v1.58H97.62V552.3l6.26-7.79H97.74v-1.58h8.6v1.26L100.08,552Z"/><path class="cls-2" d="M118.94,542.93v10.61h-1.82v-1.6a4.31,4.31,0,0,1-3.6,1.72c-2.74,0-4.56-1.5-4.56-4.63v-6.1h1.92v5.89c0,2.08,1,3.12,2.86,3.12,2,0,3.28-1.25,3.28-3.53v-5.48Zm-7.86-2.9a1,1,0,1,1,2,0,1,1,0,0,1-2,0Zm3.72,0a1,1,0,1,1,2,0,1,1,0,0,1-2,0Z"/><path class="cls-2" d="M127,548.23a5.51,5.51,0,1,1,5.52,5.43A5.27,5.27,0,0,1,127,548.23Zm9.08,0a3.57,3.57,0,1,0-7.14,0,3.57,3.57,0,1,0,7.14,0Z"/><path class="cls-2" d="M146.38,542.83v1.86a3.39,3.39,0,0,0-.44,0c-2.06,0-3.34,1.26-3.34,3.58v5.29h-1.92V542.93h1.84v1.78C143.2,543.47,144.52,542.83,146.38,542.83Z"/><path class="cls-2" d="M155.14,552.92a3.62,3.62,0,0,1-2.32.74,3,3,0,0,1-3.36-3.32v-5.83h-1.8v-1.58h1.8v-2.32h1.92v2.32h3v1.58h-3v5.75A1.56,1.56,0,0,0,153,552a2.42,2.42,0,0,0,1.5-.5Z"/><path class="cls-2" d="M165.86,547.13v6.41H164v-1.4a3.93,3.93,0,0,1-3.48,1.52c-2.4,0-3.92-1.28-3.92-3.13,0-1.7,1.1-3.1,4.26-3.1h3v-.38c0-1.62-.94-2.56-2.84-2.56a5.36,5.36,0,0,0-3.36,1.14l-.8-1.44a7.06,7.06,0,0,1,4.38-1.36C164.22,542.83,165.86,544.23,165.86,547.13Zm-1.92,3.17v-1.48h-3c-1.9,0-2.44.74-2.44,1.63,0,1.07.88,1.73,2.34,1.73A3.07,3.07,0,0,0,163.94,550.3Z"/><path class="cls-2" d="M178.6,542.93l-5.14,11.67c-.94,2.24-2.16,2.94-3.78,2.94a4,4,0,0,1-2.72-1l.82-1.44a2.71,2.71,0,0,0,1.9.78c.92,0,1.5-.42,2-1.64l.34-.74-4.68-10.59h2l3.7,8.49,3.66-8.49Z"/><path class="cls-2" d="M188.46,547.13v6.41h-1.82v-1.4a3.93,3.93,0,0,1-3.48,1.52c-2.4,0-3.93-1.28-3.93-3.13,0-1.7,1.11-3.1,4.27-3.1h3v-.38c0-1.62-.94-2.56-2.84-2.56a5.36,5.36,0,0,0-3.36,1.14l-.81-1.44a7.11,7.11,0,0,1,4.39-1.36C186.82,542.83,188.46,544.23,188.46,547.13Zm-1.92,3.17v-1.48h-3c-1.9,0-2.44.74-2.44,1.63,0,1.07.88,1.73,2.34,1.73A3.07,3.07,0,0,0,186.54,550.3Z"/><path class="cls-2" d="M204.88,550.45l1.46.93a4.7,4.7,0,0,1-4.28,2.28l-.24.88c1.16.12,1.74.78,1.74,1.66,0,1.12-1,1.82-2.48,1.82a3.36,3.36,0,0,1-1.78-.44l.42-1a2.64,2.64,0,0,0,1.36.34c.76,0,1.12-.3,1.12-.8s-.34-.78-1.14-.78h-.54l.46-1.78a5.24,5.24,0,0,1-4.57-5.35,5.3,5.3,0,0,1,5.61-5.4,4.73,4.73,0,0,1,4.32,2.26l-1.46.94a3.3,3.3,0,0,0-2.88-1.52,3.74,3.74,0,0,0,0,7.47A3.29,3.29,0,0,0,204.88,550.45Z"/><path class="cls-2" d="M208.81,542.93h1.93v10.61h-1.93Z"/><path class="cls-2" d="M221.16,553.54l-3.06-4.06-3.1,4.06h-2.15l4.19-5.43-4-5.18h2.13l2.93,3.82,2.9-3.82h2.1l-4,5.18,4.22,5.43Z"/><path class="cls-2" d="M233.64,547.13v6.41h-1.82v-1.4a3.93,3.93,0,0,1-3.48,1.52c-2.4,0-3.92-1.28-3.92-3.13,0-1.7,1.1-3.1,4.26-3.1h3v-.38c0-1.62-.94-2.56-2.84-2.56a5.36,5.36,0,0,0-3.36,1.14l-.8-1.44a7.06,7.06,0,0,1,4.38-1.36C232,542.83,233.64,544.23,233.64,547.13Zm-1.92,3.17v-1.48h-3c-1.9,0-2.44.74-2.44,1.63,0,1.07.88,1.73,2.34,1.73A3.07,3.07,0,0,0,231.72,550.3Z"/><path class="cls-2" d="M242.9,542.83v1.86a3.39,3.39,0,0,0-.44,0c-2.06,0-3.34,1.26-3.34,3.58v5.29H237.2V542.93H239v1.78C239.72,543.47,241,542.83,242.9,542.83Z"/><path class="cls-2" d="M255.16,538.69v14.85h-1.84v-1.68a4.48,4.48,0,0,1-3.78,1.8,5.42,5.42,0,0,1,0-10.83,4.51,4.51,0,0,1,3.7,1.7v-5.84Zm-1.9,9.54A3.57,3.57,0,1,0,249.7,552,3.49,3.49,0,0,0,253.26,548.23Z"/><path class="cls-2" d="M267.2,547.13v6.41h-1.82v-1.4a3.93,3.93,0,0,1-3.48,1.52c-2.4,0-3.92-1.28-3.92-3.13,0-1.7,1.1-3.1,4.26-3.1h3v-.38c0-1.62-.94-2.56-2.84-2.56a5.36,5.36,0,0,0-3.36,1.14l-.81-1.44a7.11,7.11,0,0,1,4.39-1.36C265.56,542.83,267.2,544.23,267.2,547.13Zm-1.92,3.17v-1.48h-3c-1.9,0-2.44.74-2.44,1.63,0,1.07.88,1.73,2.34,1.73A3.07,3.07,0,0,0,265.28,550.3Z"/><path class="cls-2" d="M287.12,548.23a5.16,5.16,0,0,1-5.36,5.43,4.48,4.48,0,0,1-3.78-1.8v1.68h-1.84V538.69h1.92v5.84a4.51,4.51,0,0,1,3.7-1.7A5.14,5.14,0,0,1,287.12,548.23Zm-1.94,0A3.57,3.57,0,1,0,281.6,552,3.49,3.49,0,0,0,285.18,548.23Z"/><path class="cls-2" d="M289.56,539.85a1.18,1.18,0,1,1,1.17,1.18A1.15,1.15,0,0,1,289.56,539.85Zm.21,3.08h1.93v10.61h-1.93Z"/><path class="cls-2" d="M295.35,538.69h1.93v14.85h-1.93Z"/><path class="cls-2" d="M310.52,548.23a5.19,5.19,0,0,1-5.32,5.41,5.12,5.12,0,0,1-5.25-5.47c0-.16,0-.4,0-.58h8.61a3.59,3.59,0,0,0-3.84-3.1,4,4,0,0,0-3.07,1.28l-1.05-1.24a5.32,5.32,0,0,1,4.18-1.72C308.24,542.81,310.52,545.07,310.52,548.23Zm-1.92.75h-6.8a3.42,3.42,0,0,0,6.8,0Z"/><path class="cls-2" d="M318.88,542.83v1.86a3.39,3.39,0,0,0-.44,0c-2.06,0-3.34,1.26-3.34,3.58v5.29h-1.92V542.93H315v1.78C315.7,543.47,317,542.83,318.88,542.83Z"/><path class="cls-2" d="M320,552.42l.8-1.52a6.81,6.81,0,0,0,3.72,1.1c1.78,0,2.52-.54,2.52-1.44,0-2.39-6.7-.33-6.7-4.55,0-1.9,1.7-3.18,4.42-3.18a7.71,7.71,0,0,1,3.86,1l-.82,1.52a5.54,5.54,0,0,0-3.06-.84c-1.68,0-2.5.62-2.5,1.46,0,2.5,6.72.46,6.72,4.59,0,1.92-1.76,3.14-4.58,3.14A7.65,7.65,0,0,1,320,552.42Z"/><path class="cls-2" d="M331.12,539.85a1.18,1.18,0,1,1,2.36,0,1.18,1.18,0,1,1-2.36,0Zm.22,3.08h1.92v10.61h-1.92Z"/><path class="cls-2" d="M347,547.43v6.11h-1.92v-5.89c0-2.08-1-3.1-2.86-3.1-2,0-3.36,1.22-3.36,3.52v5.47h-1.92V542.93h1.84v1.6a4.54,4.54,0,0,1,3.82-1.7C345.16,542.83,347,544.31,347,547.43Z"/><path class="cls-2" d="M350.32,539.85a1.18,1.18,0,1,1,2.36,0,1.18,1.18,0,1,1-2.36,0Zm.22,3.08h1.92v10.61h-1.92Z"/><path class="cls-2" d="M364,552v1.58H355.1V552.3l6.26-7.79h-6.14v-1.58h8.6v1.26L357.56,552Z"/><path class="cls-2" d="M365.69,552.27a1.34,1.34,0,0,1,1.37-1.35,1.31,1.31,0,0,1,1.32,1.35,1.34,1.34,0,0,1-1.32,1.39A1.36,1.36,0,0,1,365.69,552.27Z"/><path class="cls-3" d="M778.07,553.8c.34.23,1.16-.53,1.1.55,0,.63,0,1.27,0,1.91v363.6c-.6.18-1.21.36-1.82.52L703.4,939.29l-171.81,44q-85.91,22-171.8,44Q270.58,1050,181.4,1072.89c-8.92,2.29-17.93,4.29-26.73,7.06q-76.21,0-152.43,0c-1.87,0-2.24-.37-2.24-2.24Q.09,915.49.05,753.22l85.26-21.84,174-44.51,174.21-44.58,167.37-42.87q77.37-19.8,154.74-39.63C763.1,557.86,770.71,556.29,778.07,553.8Z"/><path class="cls-3" d="M1080.48,841.55V1004.1c-.61.17-1.21.36-1.82.51l-88.2,22.6q-89.38,22.86-178.77,45.73c-8.85,2.27-17.67,4.67-26.51,7-4.6,0-9.2-.07-13.79,0-1.56,0-2-.23-2-1.92.08-16.68.05-33.36.05-50V920.66a5.6,5.6,0,0,0,2.62-.38q57.39-14.71,114.79-29.39,85.3-21.84,170.62-43.65C1065.14,845.29,1072.72,843,1080.48,841.55Z"/><path class="cls-23" d="M850.47,1031.16a20.26,20.26,0,1,1,20.26-20.26A20.28,20.28,0,0,1,850.47,1031.16Zm0-39a18.72,18.72,0,1,0,18.72,18.72A18.74,18.74,0,0,0,850.47,992.18Z"/><path class="cls-24" d="M861.16,1010.36a10.5,10.5,0,0,0-21-.19c0,.15,0,.3,0,.45a10.36,10.36,0,0,0,1.5,5.38l-1.89,5.59,5.81-1.85a10.51,10.51,0,0,0,15.57-9.12Zm-10.49,9a8.79,8.79,0,0,1-4.86-1.45l-3.39,1.08,1.1-3.25a8.66,8.66,0,0,1-1.68-5.14,8.06,8.06,0,0,1,0-.85,8.83,8.83,0,0,1,17.58.17c0,.23,0,.45,0,.68A8.8,8.8,0,0,1,850.67,1019.38Z"/><path class="cls-24" d="M855.48,1012.73c-.26-.13-1.53-.75-1.76-.83s-.41-.13-.58.12-.67.83-.82,1-.3.19-.56.06a6.94,6.94,0,0,1-2.07-1.26,7.79,7.79,0,0,1-1.43-1.77c-.14-.25,0-.39.12-.52s.25-.3.38-.45l.1-.12a2.72,2.72,0,0,0,.16-.3.47.47,0,0,0,0-.45c-.06-.13-.58-1.39-.8-1.9s-.42-.42-.58-.42l-.49,0a1,1,0,0,0-.69.31,2.91,2.91,0,0,0-.89,2.14,3.22,3.22,0,0,0,.13.87,5.77,5.77,0,0,0,.92,1.77,10.53,10.53,0,0,0,4.39,3.85c2.62,1,2.62.68,3.09.64a2.61,2.61,0,0,0,1.74-1.22A2.19,2.19,0,0,0,856,1013,1.4,1.4,0,0,0,855.48,1012.73Z"/><rect class="cls-23" x="898.46" y="1006.28" width="4.03" height="13.03"/><path class="cls-23" d="M900.45,1004.57a2.41,2.41,0,1,0-2.38-2.4A2.4,2.4,0,0,0,900.45,1004.57Z"/><path class="cls-23" d="M908.94,1012.47c0-1.83.84-2.92,2.46-2.92s2.19,1,2.19,2.92v6.84h4v-8.25c0-3.49-2-5.18-4.75-5.18a4.53,4.53,0,0,0-3.92,2.15v-1.75h-3.87v13h3.87Z"/><path class="cls-23" d="M907.84,1031.16a20.26,20.26,0,1,1,20.26-20.26A20.28,20.28,0,0,1,907.84,1031.16Zm0-39a18.72,18.72,0,1,0,18.72,18.72A18.74,18.74,0,0,0,907.84,992.18Z"/><path class="cls-23" d="M962.23,1022.48H967V1010.6h3.31l.35-4H967v-2.26c0-.94.19-1.31,1.09-1.31h2.57v-4.13h-3.28c-3.54,0-5.13,1.56-5.13,4.53v3.17h-2.47v4h2.47Z"/><path class="cls-23" d="M965.2,1031.16a20.26,20.26,0,1,1,20.26-20.26A20.28,20.28,0,0,1,965.2,1031.16Zm0-39a18.72,18.72,0,1,0,18.73,18.72A18.74,18.74,0,0,0,965.2,992.18Z"/><path class="cls-23" d="M1022.27,1001.37c2.85,0,3.19,0,4.32.06a5.81,5.81,0,0,1,2,.37,3.54,3.54,0,0,1,2,2,5.81,5.81,0,0,1,.37,2c0,1.13.06,1.47.06,4.32s0,3.19-.06,4.32a5.81,5.81,0,0,1-.37,2,3.54,3.54,0,0,1-2,2,5.81,5.81,0,0,1-2,.37c-1.13,0-1.46.06-4.32.06s-3.19,0-4.32-.06a5.87,5.87,0,0,1-2-.37,3.16,3.16,0,0,1-1.23-.8,3.28,3.28,0,0,1-.8-1.23,5.81,5.81,0,0,1-.37-2c-.05-1.13-.06-1.47-.06-4.32s0-3.19.06-4.32a5.81,5.81,0,0,1,.37-2,3.28,3.28,0,0,1,.8-1.23,3.16,3.16,0,0,1,1.23-.8,5.87,5.87,0,0,1,2-.37c1.13,0,1.47-.06,4.32-.06m0-1.93c-2.9,0-3.27,0-4.41.07a7.94,7.94,0,0,0-2.59.49,5.25,5.25,0,0,0-1.89,1.24,5.09,5.09,0,0,0-1.23,1.89,7.66,7.66,0,0,0-.5,2.59c0,1.14-.07,1.51-.07,4.41s0,3.27.07,4.41a7.66,7.66,0,0,0,.5,2.59,5.09,5.09,0,0,0,1.23,1.89,5.25,5.25,0,0,0,1.89,1.24,7.94,7.94,0,0,0,2.59.49c1.14,0,1.51.07,4.41.07s3.27,0,4.41-.07a7.88,7.88,0,0,0,2.59-.49,5.56,5.56,0,0,0,3.13-3.13,7.94,7.94,0,0,0,.49-2.59c.06-1.14.07-1.51.07-4.41s0-3.27-.07-4.41a7.94,7.94,0,0,0-.49-2.59,5.56,5.56,0,0,0-3.13-3.13,7.88,7.88,0,0,0-2.59-.49c-1.14,0-1.51-.07-4.41-.07"/><path class="cls-23" d="M1022.27,1004.64a5.49,5.49,0,1,0,5.49,5.49,5.49,5.49,0,0,0-5.49-5.49m0,9.05a3.56,3.56,0,1,1,3.56-3.56,3.56,3.56,0,0,1-3.56,3.56"/><path class="cls-23" d="M1029.26,1004.43a1.29,1.29,0,1,1-1.28-1.29,1.29,1.29,0,0,1,1.28,1.29"/><path class="cls-23" d="M1022.27,1031.16a20.26,20.26,0,1,1,20.26-20.26A20.28,20.28,0,0,1,1022.27,1031.16Zm0-39A18.72,18.72,0,1,0,1041,1010.9,18.74,18.74,0,0,0,1022.27,992.18Z"/><text class="cls-25" transform="translate(97.98 992.74)">CV <tspan class="cls-26" x="0" y="36.66">H</tspan><tspan x="22.18" y="36.66">AZI</tspan><tspan class="cls-27" x="71.93" y="36.66">R</tspan><tspan class="cls-28" x="91.89" y="36.66">L</tspan><tspan x="109.57" y="36.66">A</tspan><tspan class="cls-26" x="130.9" y="36.66">M</tspan><tspan class="cls-29" x="157.58" y="36.66">A</tspan></text><path class="cls-23" d="M71.65,968.49l-4.42,5.72H45.3a3.1,3.1,0,0,0-3.11,3.1v43.87a3.1,3.1,0,0,0,3.11,3.1H68.88L71,1030H36.47V968.49Z"/><path class="cls-23" d="M71.5,1030,53.57,982.5,60,985.33l10.14,26.89a1.43,1.43,0,0,0,2.68,0l10.07-26.89,6.42-2.83Z"/><polygon class="cls-23" points="70.07 985.33 72.72 985.33 74.14 1001.76 71.77 1005.07 69.06 1001.81 70.07 985.33"/><polygon class="cls-23" points="71.41 981.91 69.66 983.74 70.11 985.06 72.72 985.06 73.16 983.71 71.41 981.91"/><polygon class="cls-23" points="71.65 981.73 77.42 980.42 74.89 985.33 71.65 981.73"/><polygon class="cls-23" points="71.15 981.73 65.38 980.42 67.92 985.33 71.15 981.73"/><rect class="cls-3" x="432.06" y="52.91" width="624.32" height="893.61"/><g class="cls-30"><path class="cls-23" d="M1043.08,71V927.33H448.29V293.69c0-48.69,25.6-61.81,78.66-61.81a87.4,87.4,0,0,0,87.41-87.4c0-48.73,11.06-69.06,50.57-72.92,3.51-.35,7.25-.52,11.24-.52Z"/></g><text class="cls-31" transform="translate(634.85 117.71)">ORXAN<tspan x="0" y="33.98">KAMALLI</tspan></text><line class="cls-32" x1="845.96" y1="83.83" x2="845.96" y2="168.28"/><g class="cls-30"><path class="cls-33" d="M1017.94,123.62v-.85a.4.4,0,0,1,.07-.19,2.4,2.4,0,0,1,3.7,0,.32.32,0,0,1,.07.19c0,.28,0,.56,0,.81.31.09.61.16.89.26a2.17,2.17,0,0,1,.83.54l2.36,2.37a2.44,2.44,0,0,1,.73,1.75c0,1.24,0,2.48,0,3.73a1,1,0,0,1-.79,1h-11.69a1,1,0,0,1-1-.95c0-1.29,0-2.58,0-3.87a2.35,2.35,0,0,1,.71-1.65c.76-.77,1.54-1.52,2.29-2.3a2.77,2.77,0,0,1,1.8-.84m-1,4.81a2.88,2.88,0,1,0,2.87-2.88,2.86,2.86,0,0,0-2.87,2.88"/><path class="cls-33" d="M1026.51,121.69a4,4,0,0,1,0,.69,1.34,1.34,0,0,1-1.41,1.05,1.5,1.5,0,0,1-.72-.2l-1.13-.65a1.33,1.33,0,0,1-.69-1.18c0-.17,0-.34,0-.51a.2.2,0,0,0-.13-.21,5.48,5.48,0,0,0-5.16,0,.17.17,0,0,0-.1.18,5.22,5.22,0,0,1,0,.79,1.23,1.23,0,0,1-.61.89c-.42.25-.84.5-1.28.73a1.41,1.41,0,0,1-2-.89,1.06,1.06,0,0,1,0-.25v-1a.88.88,0,0,1,.27-.66,8.86,8.86,0,0,1,4.59-2.48,8.52,8.52,0,0,1,2.85-.12,8.87,8.87,0,0,1,5.35,2.6.88.88,0,0,1,.26.64v.52Z"/><path class="cls-33" d="M1018.33,128.43a1.53,1.53,0,1,1,1.53,1.54,1.53,1.53,0,0,1-1.53-1.54"/><path class="cls-33" d="M1012.56,163a7.3,7.3,0,1,1,7.28,7.3,7.29,7.29,0,0,1-7.28-7.3m7.52-1.85a6.86,6.86,0,0,0-.13-.73c-.07-.26-.18-.51-.25-.78a1.09,1.09,0,0,1,.08-.88.83.83,0,0,0,.08-.62,2.76,2.76,0,0,0-.36-.68.45.45,0,0,0-.55-.22,5.81,5.81,0,0,0-4.49,3.56,1.69,1.69,0,0,0-.05,1.25,9.6,9.6,0,0,0,.52,1.13,2.24,2.24,0,0,0,1,1c.42.22.85.43,1.26.66a3.42,3.42,0,0,1,.4.26.29.29,0,0,1,.12.37l-.15.41a.62.62,0,0,0,0,.56,8.78,8.78,0,0,0,.49.79,1.41,1.41,0,0,1,.29.72c0,.23,0,.47,0,.71a5.82,5.82,0,0,0,1.43.17.17.17,0,0,0,.12-.06,4.09,4.09,0,0,0,.25-.46,1.64,1.64,0,0,1,.44-.61,1.45,1.45,0,0,0,.54-1.56.26.26,0,0,0-.11-.16,4.89,4.89,0,0,0-.63-.36,4.4,4.4,0,0,1-.87-.55,3.84,3.84,0,0,0-.69-.44.71.71,0,0,0-.72,0l-.32.13a.24.24,0,0,1-.29-.07c-.15-.25-.3-.49-.44-.74a.18.18,0,0,0-.19-.12l-.54,0c-.17,0-.23-.13-.18-.29a.65.65,0,0,1,.13-.23.75.75,0,0,1,1.25.17s.11-.09.12-.13,0-.28.06-.42a.58.58,0,0,1,0-.19,3.38,3.38,0,0,1,.78-1,1.12,1.12,0,0,1,.62-.29.44.44,0,0,0,.22-.1.58.58,0,0,1,.64-.21m3.79-.15a.94.94,0,0,0-.15.06.24.24,0,0,0-.15.27c0,.11,0,.15-.1.2a.23.23,0,0,0-.09.32.8.8,0,0,0,.31.27c.23.11.29.26.13.46a1.91,1.91,0,0,0-.37.85,1.74,1.74,0,0,1-.3.73,5.1,5.1,0,0,0-.33.53,1.19,1.19,0,0,0,.85,1.7c.24,0,.48,0,.71.09a.22.22,0,0,0,.24-.11,5.74,5.74,0,0,0,.26-6.32l-.08-.12a1.58,1.58,0,0,0-.36,1,.29.29,0,0,0,.08.21.25.25,0,0,1,.13.34c0,.12,0,.29-.16.32s-.21-.13-.28-.24-.23-.39-.34-.59m-3.26-3.78v.11c0,.42,0,.83-.05,1.25a3.21,3.21,0,0,0,0,.62c.05.3.26.4.53.25a1.33,1.33,0,0,0,.38-.33,1.65,1.65,0,0,1,.65-.52l.48-.24a.46.46,0,0,0,.25-.34,5.63,5.63,0,0,0-2.24-.8"/><path class="cls-33" d="M1013.06,90.3a1.58,1.58,0,0,1,1.13-.59h11.23a1.56,1.56,0,0,1,1.23.61.6.6,0,0,0-.13.09l-5.77,5.45a1.31,1.31,0,0,1-1.8,0l-5.78-5.46-.11-.1"/><path class="cls-33" d="M1013.06,99.45l4.27-4c.16.16.31.3.47.44l.62.6a2.12,2.12,0,0,0,2.86,0l1-.94.1-.09,4.29,4a2.61,2.61,0,0,1-.27.22,1.5,1.5,0,0,1-1,.35h-11.14a1.59,1.59,0,0,1-1.22-.58"/><path class="cls-33" d="M1012.72,91.06l4,3.81-4,3.81Z"/><path class="cls-33" d="M1027,91.06v7.62l-4-3.81c1.35-1.26,2.68-2.52,4-3.81"/></g><text class="cls-34" transform="translate(888.2 163.56)">Bakı şəhəri, Azərbaycan</text><text class="cls-34" transform="translate(921.54 131.31)">+99450 xxx xx xx</text><text class="cls-34" transform="translate(941.33 99.4)">cvhazirlama</text><rect class="cls-35" x="752.98" y="349.96" width="18.58" height="8.1"/><rect class="cls-35" x="775.11" y="349.96" width="18.58" height="8.1"/><rect class="cls-35" x="797.24" y="349.96" width="18.58" height="8.1"/><rect class="cls-35" x="819.37" y="349.96" width="18.58" height="8.1"/><rect class="cls-35" x="841.5" y="349.96" width="18.58" height="8.1"/><rect class="cls-35" x="863.63" y="349.96" width="18.58" height="8.1"/><rect class="cls-3" x="885.76" y="349.96" width="18.58" height="8.1"/><rect class="cls-36" x="907.89" y="349.96" width="18.58" height="8.1"/><rect class="cls-36" x="930.02" y="349.96" width="18.58" height="8.1"/><text class="cls-37" transform="translate(886 339.97)">70%</text><text class="cls-37" transform="translate(910.02 384.76)">90%</text><text class="cls-38" transform="translate(960.37 314.33)">Rusca<tspan x="0" y="44.05">İngiliscə</tspan><tspan x="0" y="88.1">Türkcə</tspan></text><rect class="cls-39" x="752.98" y="349.96" width="18.58" height="8.1"/><rect class="cls-3" x="775.11" y="349.96" width="18.58" height="8.1"/><rect class="cls-3" x="752.98" y="349.96" width="18.58" height="8.1"/><rect class="cls-3" x="797.24" y="349.96" width="18.58" height="8.1"/><rect class="cls-3" x="819.37" y="349.96" width="18.58" height="8.1"/><rect class="cls-3" x="841.5" y="349.96" width="18.58" height="8.1"/><rect class="cls-3" x="863.63" y="349.96" width="18.58" height="8.1"/><line class="cls-40" x1="904.33" y1="344.42" x2="904.33" y2="362.08"/><rect class="cls-35" x="752.98" y="306.48" width="18.58" height="8.1"/><rect class="cls-35" x="775.11" y="306.48" width="18.58" height="8.1"/><rect class="cls-35" x="797.24" y="306.48" width="18.58" height="8.1"/><rect class="cls-35" x="819.37" y="306.48" width="18.58" height="8.1"/><rect class="cls-35" x="841.5" y="306.48" width="18.58" height="8.1"/><rect class="cls-35" x="863.63" y="306.48" width="18.58" height="8.1"/><rect class="cls-36" x="885.76" y="306.48" width="18.58" height="8.1"/><rect class="cls-36" x="907.89" y="306.48" width="18.58" height="8.1"/><rect class="cls-36" x="930.02" y="306.48" width="18.58" height="8.1"/><text class="cls-37" transform="translate(817.67 296.48)">40%</text><rect class="cls-39" x="752.98" y="306.48" width="18.58" height="8.1"/><rect class="cls-3" x="775.11" y="306.48" width="18.58" height="8.1"/><rect class="cls-3" x="752.98" y="306.48" width="18.58" height="8.1"/><rect class="cls-3" x="797.24" y="306.48" width="18.58" height="8.1"/><rect class="cls-3" x="819.37" y="306.48" width="18.58" height="8.1"/><rect class="cls-36" x="841.5" y="306.48" width="18.58" height="8.1"/><rect class="cls-36" x="863.63" y="306.48" width="18.58" height="8.1"/><line class="cls-40" x1="837.94" y1="300.94" x2="837.94" y2="318.6"/><rect class="cls-36" x="752.98" y="393.75" width="18.58" height="8.1"/><rect class="cls-36" x="775.11" y="393.75" width="18.58" height="8.1"/><rect class="cls-36" x="797.24" y="393.75" width="18.58" height="8.1"/><rect class="cls-36" x="819.37" y="393.75" width="18.58" height="8.1"/><rect class="cls-36" x="841.5" y="393.75" width="18.58" height="8.1"/><rect class="cls-36" x="863.63" y="393.75" width="18.58" height="8.1"/><rect class="cls-36" x="885.76" y="393.75" width="18.58" height="8.1"/><rect class="cls-36" x="907.89" y="393.75" width="18.58" height="8.1"/><rect class="cls-36" x="930.02" y="393.75" width="18.58" height="8.1"/><rect class="cls-3" x="752.98" y="393.75" width="18.58" height="8.1"/><rect class="cls-3" x="775.11" y="393.75" width="18.58" height="8.1"/><rect class="cls-3" x="797.24" y="393.75" width="18.58" height="8.1"/><rect class="cls-3" x="819.37" y="393.75" width="18.58" height="8.1"/><rect class="cls-3" x="841.5" y="393.75" width="18.58" height="8.1"/><rect class="cls-3" x="863.63" y="393.75" width="18.58" height="8.1"/><rect class="cls-3" x="885.76" y="393.75" width="18.58" height="8.1"/><rect class="cls-3" x="907.89" y="393.75" width="18.58" height="8.1"/><line class="cls-40" x1="926.46" y1="389.78" x2="926.46" y2="407.44"/><rect class="cls-1" x="432.06" y="52.91" width="624.32" height="893.61"/><text class="cls-41" transform="translate(751.52 267.39)"><tspan class="cls-42"> </tspan><tspan x="1.63" y="0"> </tspan></text><line class="cls-43" x1="551.54" y1="269.37" x2="655.06" y2="269.37"/><g class="cls-30"><rect class="cls-3" x="665.13" y="258.55" width="21.64" height="21.64" rx="1.97" transform="translate(7.5 556.85) rotate(-45)"/><path class="cls-23" d="M683.22,275.67H669.07a.08.08,0,0,1,0-.05,5.25,5.25,0,0,1,1.1-3.32,5.64,5.64,0,0,1,2.54-1.73A9.84,9.84,0,0,1,676,270a10.05,10.05,0,0,1,3.4.5,5.81,5.81,0,0,1,2.44,1.51,4.66,4.66,0,0,1,1.24,2.53c.06.36.08.73.13,1.11m-1.16-1.06a.37.37,0,0,0,0-.11,3.5,3.5,0,0,0-1.27-2.09,6.12,6.12,0,0,0-3.07-1.22,11.17,11.17,0,0,0-2.77-.05,7.41,7.41,0,0,0-2.53.67,3.88,3.88,0,0,0-2,1.92,3,3,0,0,0-.26.88Z"/><path class="cls-23" d="M680.37,264.36a4.25,4.25,0,1,1-4.24-4.24,4.24,4.24,0,0,1,4.24,4.24m-4.25,3.18a3.18,3.18,0,1,0-3.18-3.18,3.18,3.18,0,0,0,3.18,3.18"/></g><line class="cls-43" x1="831.63" y1="272.87" x2="954.68" y2="272.87"/><text class="cls-44" transform="translate(751.2 276.4)">Dil biliyi</text><rect class="cls-1" x="432.06" y="52.91" width="624.32" height="893.61"/><rect class="cls-1" x="432.06" y="52.91" width="624.32" height="893.61"/><rect class="cls-3" x="965" y="262.05" width="21.64" height="21.64" rx="1.97" transform="translate(92.86 769.93) rotate(-45)"/><path class="cls-23" d="M980.58,278v2.36a.53.53,0,0,1-.27.55.55.55,0,0,1-.64-.12l-3.92-3.18a.61.61,0,0,0-.29-.11,6.34,6.34,0,1,1,5.22-2.19.36.36,0,0,0-.09.24c0,.82,0,1.63,0,2.45m-1.05,1.36c0-1.3,0-2.55,0-3.8a.17.17,0,0,0,0-.12l-1-.63a7.31,7.31,0,0,1-1.84,2.22l2.86,2.33m-7.33-7.71h-1.71a5.15,5.15,0,0,0,1.18,2.83l1-.6c-.15-.75-.3-1.48-.46-2.23m7.77-3.89c-.32.19-.62.37-.93.54-.09.06-.11.1-.08.2.11.41.23.81.31,1.21s.08.58.12.88h1.75a5.14,5.14,0,0,0-1.17-2.83m-1,6.12,1,.6a5.4,5.4,0,0,0,1.14-2.83h-1.71c-.14.74-.29,1.47-.43,2.23m-6.36-5.52-1-.6a5.52,5.52,0,0,0-1.17,2.83h1.71c.16-.75.31-1.48.46-2.23m5.33.46-1.62.31v1.48h2a6.19,6.19,0,0,0-.36-1.79m-4.67,1.76h2v-1.47l-1.63-.31a6.55,6.55,0,0,0-.36,1.78m2,2.54v-1.44h-2a6.4,6.4,0,0,0,.36,1.77l1.63-.33m1.06-1.45v1.45l1.62.33a6.06,6.06,0,0,0,.36-1.78ZM975.29,276V274.2l-1.19.24a5.73,5.73,0,0,0,1.19,1.53m1.06-9.64v1.75l1.18-.22a5.9,5.9,0,0,0-1.18-1.53m1.18,8.12-1.18-.23V276a5.45,5.45,0,0,0,1.18-1.51m-2.25-6.37v-1.75a6,6,0,0,0-1.18,1.52l1.18.23m4-1.06a5.42,5.42,0,0,0-1.63-.93l.92,1.36.71-.43m-6.86,8.26a5.19,5.19,0,0,0,1.62.93l-.91-1.35-.71.42m0-8.23.7.41.9-1.32a5.13,5.13,0,0,0-1.6.91"/><line class="cls-32" x1="724.15" y1="229.18" x2="724.15" y2="916.22"/><path class="cls-3" d="M727.89,633.33a3.75,3.75,0,1,1-3.74-3.74,3.74,3.74,0,0,1,3.74,3.74"/><path class="cls-3" d="M727.89,729.5a3.75,3.75,0,1,1-3.74-3.75,3.74,3.74,0,0,1,3.74,3.75"/><path class="cls-3" d="M727.89,228.19c0,2.95-3.4,5.1-6.48,2.75-2.36-3.09-.21-6.49,2.74-6.49a3.73,3.73,0,0,1,3.74,3.74"/><path class="cls-3" d="M727.89,268.57c0,2.95-3.4,5.1-6.48,2.74-2.36-3.08-.21-6.49,2.74-6.49a3.74,3.74,0,0,1,3.74,3.75"/><path class="cls-3" d="M727.89,445.06c0,2.95-3.4,5.1-6.48,2.74-2.36-3.08-.21-6.49,2.74-6.49a3.74,3.74,0,0,1,3.74,3.75"/><path class="cls-3" d="M461,482.2c0,2.94-3.4,5.1-6.49,2.74-2.35-3.09-.2-6.49,2.74-6.49A3.75,3.75,0,0,1,461,482.2"/><line class="cls-32" x1="637.11" y1="193.45" x2="1014.66" y2="193.45"/><path class="cls-3" d="M639.59,193.45a3.75,3.75,0,1,1-3.74-3.74,3.74,3.74,0,0,1,3.74,3.74"/><path class="cls-3" d="M1014.1,193.45a3.75,3.75,0,1,1-3.74-3.74,3.75,3.75,0,0,1,3.74,3.74"/><rect class="cls-1" x="432.06" y="52.91" width="624.32" height="893.61"/><rect class="cls-1" x="432.06" y="52.91" width="624.32" height="893.61"/><g class="cls-30"><path class="cls-23" d="M596.8,142a76.17,76.17,0,1,0-76.17,76.17A76.16,76.16,0,0,0,596.8,142"/></g><rect class="cls-1" x="432.06" y="58.24" width="624.32" height="882.97"/><text class="cls-44" transform="translate(466.29 272.32)">Haqqında</text><line class="cls-43" x1="531.29" y1="445.06" x2="653.77" y2="445.06"/><text class="cls-44" transform="translate(466.29 449.72)">Təhsil</text><text class="cls-44" transform="translate(466.29 632.19)">İş təcrübəsi</text><rect class="cls-3" x="664.55" y="433.93" width="21.64" height="21.64" rx="1.97" transform="translate(-116.67 607.82) rotate(-45)"/><path class="cls-23" d="M679.54,443.06c0,.33,0,.65,0,1a.39.39,0,0,1-.21.39.38.38,0,0,1-.43-.07l-1.5-1.12a.13.13,0,0,0-.2,0l-1.47,1.11a.42.42,0,0,1-.45.09.4.4,0,0,1-.21-.42v-.95h-1.79a.76.76,0,0,1-.21,0,.37.37,0,0,1-.23-.37.36.36,0,0,1,.28-.32.55.55,0,0,1,.18,0h1.76V440.1h-6.53c-.28,0-.47-.14-.47-.36s.19-.36.47-.36h6.54v-.71a.39.39,0,0,1,.41-.4h3.66a.38.38,0,0,1,.39.39c0,.23,0,.46,0,.72h1.23a1.77,1.77,0,0,1,1.78,1.15,1.93,1.93,0,0,1-.54,2.13l0,0a1.93,1.93,0,0,1,0,2.95l.1.09a1.92,1.92,0,0,1-.12,2.87,1.67,1.67,0,0,1-1,.35h-4.47a.36.36,0,0,1-.36-.36.37.37,0,0,1,.39-.36h4.2l.29,0a1,1,0,0,0,.89-.93,1.23,1.23,0,0,0-.13-.75A1,1,0,0,0,681,446h-6a.36.36,0,0,1-.35-.37.38.38,0,0,1,.37-.36h5.81a1,1,0,0,0,1.08-.86,1.07,1.07,0,0,0-1.08-1.35h-1.29m0-.76c.51,0,1,0,1.52,0a.88.88,0,0,0,.69-.44,1.27,1.27,0,0,0,.16-.83,1,1,0,0,0-.89-.9c-.33,0-.67,0-1,0h-.47Z"/><path class="cls-23" d="M669.45,442.81l-.22.13c-.15.09-.16.14-.07.3l1,1.73.57,1a.37.37,0,1,1-.64.37l-1.57-2.72-.08-.16a.77.77,0,0,1,.33-1.08l.3-.18a3,3,0,0,1-.17-.47.92.92,0,0,1,.43-1c.18-.12.36-.22.55-.33a1,1,0,0,1,1.38.37l2.73,4.71c.43.76.86,1.52,1.31,2.26a2.66,2.66,0,0,1,.37,1.1c.09.64.19,1.28.29,1.92a.37.37,0,0,1-.17.41.37.37,0,0,1-.44-.05l-1.93-1.54a.89.89,0,0,1-.16-.21l-3.72-6.43-.09-.13"/><text class="cls-46" transform="translate(470.08 487.04)">Azərbaycan Dövlət Pedaqoji Universiteti</text><text class="cls-47" transform="translate(470.67 502.32)">2010 - 2014</text><text class="cls-48" transform="translate(470.67 516.27)">Fizika fakültəsi (Fizikanın tədrisi metodikası və<tspan x="0" y="12.92">metodologiyası)</tspan></text><path class="cls-3" d="M461,553.49c0,3-3.4,5.1-6.49,2.74-2.35-3.08-.2-6.49,2.74-6.49a3.75,3.75,0,0,1,3.75,3.75"/><text class="cls-46" transform="translate(470.08 558.33)">Azərbaycan Dövlət Pedaqoji Universiteti</text><text class="cls-47" transform="translate(470.67 573.62)">2014 - 2018</text><text class="cls-48" transform="translate(470.67 587.56)">Fizika fakültəsi (Fizika müəllimliyi)</text><path class="cls-3" d="M461,661.55c0,2.94-3.41,5.1-6.49,2.74-2.36-3.08-.21-6.49,2.74-6.49a3.75,3.75,0,0,1,3.75,3.75"/><path class="cls-3" d="M753.73,694.42c0,3.15-3.63,5.44-6.93,2.93-2.52-3.3-.22-6.94,2.93-6.94a4,4,0,0,1,4,4"/><path class="cls-3" d="M753.73,717.24c0,3.15-3.63,5.45-6.93,2.93-2.52-3.3-.22-6.93,2.93-6.93a4,4,0,0,1,4,4"/><path class="cls-3" d="M753.73,740.06c0,3.15-3.63,5.45-6.93,2.94-2.52-3.3-.22-6.94,2.93-6.94a4,4,0,0,1,4,4"/><path class="cls-3" d="M753.73,762.86c0,3.15-3.63,5.45-6.93,2.93-2.52-3.3-.22-6.93,2.93-6.93a4,4,0,0,1,4,4"/><path class="cls-3" d="M753.73,785.71c0,3.15-3.63,5.45-6.93,2.93-2.52-3.3-.22-6.93,2.93-6.93a4,4,0,0,1,4,4"/><text class="cls-46" transform="translate(470.08 665.3)">Bir tələbə könüllü proqramı<tspan x="0" y="14.68">Fəal könüllü</tspan></text><text class="cls-47" transform="translate(470.67 695.81)">19.09.2015</text><path class="cls-3" d="M461,719.77c0,3-3.41,5.1-6.49,2.75-2.36-3.09-.21-6.49,2.74-6.49a3.74,3.74,0,0,1,3.75,3.74"/><text class="cls-46" transform="translate(470.08 723.52)">Bakı Marafonu 2017 (könüllü)</text><text class="cls-47" transform="translate(470.67 741.57)">01.12.2016-31.05.2017</text><path class="cls-3" d="M461,780.31c0,3-3.41,5.1-6.49,2.75-2.36-3.09-.21-6.49,2.74-6.49a3.74,3.74,0,0,1,3.75,3.74"/><text class="cls-46" transform="translate(470.08 784.06)">Bir tələbə könüllü proqramı<tspan x="0" y="14.68">Fəal könüllü</tspan></text><text class="cls-47" transform="translate(470.67 814.57)">12.2016</text><path class="cls-3" d="M461,834.9c0,2.94-3.41,5.09-6.49,2.74-2.36-3.09-.21-6.49,2.74-6.49A3.75,3.75,0,0,1,461,834.9"/><text class="cls-46" transform="translate(470.08 838.64)">Bakı Marafonu 2017 (könüllü)</text><text class="cls-49" transform="translate(470.67 855.12)">30.04.2017</text><path class="cls-3" d="M461,877.57c0,2.95-3.41,5.1-6.49,2.75-2.36-3.09-.21-6.49,2.74-6.49a3.74,3.74,0,0,1,3.75,3.74"/><text class="cls-46" transform="translate(470.08 881.32)">Bakı Marafonu 2017 (könüllü)</text><text class="cls-49" transform="translate(470.67 895.57)">30.11.2019</text><rect class="cls-36" x="755.07" y="537.6" width="194.56" height="8.32"/><rect class="cls-3" x="755.07" y="537.6" width="138.65" height="8.32"/><line class="cls-43" x1="893.71" y1="545.92" x2="893.71" y2="526.65"/><path class="cls-3" d="M896.49,525.82a2.78,2.78,0,1,1-2.78-2.77,2.77,2.77,0,0,1,2.78,2.77"/><text class="cls-50" transform="translate(897.22 533.35)"><tspan class="cls-51">70 </tspan><tspan x="13.04" y="0">%</tspan></text><text class="cls-38" transform="translate(957.61 546.64)">Excel</text><rect class="cls-36" x="755.07" y="500.69" width="194.56" height="8.32"/><rect class="cls-3" x="755.07" y="500.69" width="164.45" height="8.32"/><line class="cls-43" x1="920.07" y1="509.01" x2="920.07" y2="489.74"/><path class="cls-3" d="M922.84,488.91a2.77,2.77,0,1,1-2.77-2.77,2.77,2.77,0,0,1,2.77,2.77"/><text class="cls-50" transform="translate(925.66 491.77)"><tspan class="cls-51">80</tspan><tspan x="11.81" y="0">%</tspan></text><text class="cls-38" transform="translate(957.61 509.73)">Word</text><rect class="cls-36" x="755.07" y="572.7" width="194.56" height="8.32"/><line class="cls-43" x1="906.25" y1="581.01" x2="906.25" y2="561.74"/><path class="cls-3" d="M909,560.91a2.77,2.77,0,1,1-2.77-2.77,2.77,2.77,0,0,1,2.77,2.77"/><text class="cls-50" transform="translate(909.69 568.45)"><tspan class="cls-51">75</tspan><tspan x="9.93" y="0">%</tspan></text><text class="cls-38" transform="translate(957.61 581.01)">PowerPoint</text><line class="cls-43" x1="874.68" y1="458.26" x2="955.01" y2="458.26"/><text class="cls-44" transform="translate(753.56 461.79)">Proqram biliyi</text><rect class="cls-3" x="966.19" y="447.44" width="21.64" height="21.64" rx="1.97" transform="translate(-37.89 825.05) rotate(-45)"/><path class="cls-23" d="M977,463.83h-5.46c-1.06,0-1.46-.4-1.46-1.45v-8.26c0-1,.41-1.42,1.44-1.42h11c1,0,1.44.41,1.44,1.42v8.31c0,1-.42,1.39-1.41,1.4H977m.06-10.2H971.5c-.39,0-.52.11-.52.5q0,4.14,0,8.26c0,.4.14.51.52.51h11c.41,0,.55-.12.54-.53q0-4.11,0-8.22c0-.41-.14-.53-.54-.52-1.82,0-3.64,0-5.46,0"/><rect class="cls-23" x="980.34" y="454.55" width="1.8" height="7.35"/><rect class="cls-23" x="974.74" y="455.53" width="1.79" height="6.45"/><rect class="cls-23" x="977.47" y="457.4" width="1.82" height="4.57"/><rect class="cls-23" x="971.97" y="459.18" width="1.81" height="2.71"/><rect class="cls-3" x="755.07" y="572.7" width="151.18" height="8.32"/><rect class="cls-36" x="755.07" y="606.26" width="194.56" height="8.32"/><line class="cls-43" x1="906.25" y1="614.58" x2="906.25" y2="595.31"/><path class="cls-3" d="M909,594.47a2.77,2.77,0,1,1-2.77-2.77,2.78,2.78,0,0,1,2.77,2.77"/><text class="cls-50" transform="translate(909.69 602.01)"><tspan class="cls-51">75</tspan><tspan x="9.93" y="0">%</tspan></text><text class="cls-38" transform="translate(957.61 614.58)">Outlook</text><rect class="cls-3" x="755.07" y="606.26" width="151.18" height="8.32"/><circle class="cls-23" cx="520.26" cy="141.56" r="76.41"/><text class="cls-52" transform="translate(466.95 301.14)"><tspan class="cls-53">S</tspan><tspan x="6.94" y="0">izin kimi uğurlu bir müəssi</tspan><tspan class="cls-54" x="146.84" y="0">s</tspan><tspan x="151.97" y="0">ədə işləmək </tspan><tspan x="0" y="12.59">is</tspan><tspan class="cls-55" x="8.31" y="12.59">t</tspan><tspan class="cls-56" x="12.26" y="12.59">ə</tspan><tspan x="18.34" y="12.59">yimi ça</tspan><tspan class="cls-57" x="57.41" y="12.59">t</tspan><tspan x="61.38" y="12.59">dırmaq is</tspan><tspan class="cls-58" x="111.88" y="12.59">t</tspan><tspan class="cls-59" x="115.82" y="12.59">ə</tspan><tspan x="121.91" y="12.59">yi</tspan><tspan class="cls-60" x="131.21" y="12.59">r</tspan><tspan x="135.35" y="12.59">əm. Düşünü</tspan><tspan class="cls-60" x="198.88" y="12.59">r</tspan><tspan x="203.01" y="12.59">əm </tspan><tspan x="0" y="25.17">ki, C</tspan><tspan class="cls-61" x="23.56" y="25.17">V</tspan><tspan x="30.85" y="25.17">-də q</tspan><tspan class="cls-62" x="59.38" y="25.17">e</tspan><tspan class="cls-58" x="65.57" y="25.17">y</tspan><tspan x="71.47" y="25.17">d e</tspan><tspan class="cls-63" x="88.19" y="25.17">t</tspan><tspan x="92.16" y="25.17">diyim bacarıqlarım iş </tspan><tspan class="cls-55" x="0" y="37.76">t</tspan><tspan x="3.94" y="37.76">ə</tspan><tspan class="cls-54" x="10.42" y="37.76">s</tspan><tspan x="15.55" y="37.76">virinə </tspan><tspan class="cls-64" x="48.68" y="37.76">v</tspan><tspan x="54.5" y="37.76">ə müəssi</tspan><tspan class="cls-54" x="101.04" y="37.76">s</tspan><tspan x="106.17" y="37.76">ənizin perspek</tspan><tspan class="cls-65" x="184.25" y="37.76">t</tspan><tspan x="188.41" y="37.76">ivinə </tspan><tspan x="0" y="50.34">u</tspan><tspan class="cls-55" x="6.66" y="50.34">y</tspan><tspan x="12.57" y="50.34">ğundu</tspan><tspan class="cls-66" x="46.9" y="50.34">r</tspan><tspan x="50.41" y="50.34">.</tspan><tspan x="0" y="75.51">C</tspan><tspan class="cls-61" x="8.42" y="75.51">V</tspan><tspan x="15.71" y="75.51">-ni n</tspan><tspan class="cls-60" x="40.32" y="75.51">ə</tspan><tspan class="cls-62" x="46.64" y="75.51">z</tspan><tspan x="51.99" y="75.51">ə</tspan><tspan class="cls-60" x="58.47" y="75.51">r</tspan><tspan x="62.61" y="75.51">dən </tspan><tspan class="cls-67" x="86.17" y="75.51">k</tspan><tspan x="92.02" y="75.51">eçirm</tspan><tspan class="cls-56" x="122.42" y="75.51">ə</tspan><tspan class="cls-62" x="128.5" y="75.51">y</tspan><tspan x="134.38" y="75.51">ə </tspan><tspan class="cls-67" x="143.95" y="75.51">v</tspan><tspan x="149.79" y="75.51">axt ayı</tspan><tspan class="cls-60" x="186.58" y="75.51">r</tspan><tspan x="190.71" y="75.51">dığınız </tspan><tspan x="0" y="88.1">üçün </tspan><tspan class="cls-55" x="29.4" y="88.1">t</tspan><tspan x="33.34" y="88.1">ə</tspan><tspan class="cls-54" x="39.82" y="88.1">ş</tspan><tspan x="44.95" y="88.1">əkkür edi</tspan><tspan class="cls-60" x="94.58" y="88.1">r</tspan><tspan x="98.71" y="88.1">əm. </tspan><tspan class="cls-53" x="121.73" y="88.1">S</tspan><tspan x="128.67" y="88.1">i</tspan><tspan class="cls-68" x="131.81" y="88.1">z</tspan><tspan x="137.24" y="88.1">dən müsb</tspan><tspan class="cls-65" x="190.15" y="88.1">ə</tspan><tspan x="196.58" y="88.1">t </tspan><tspan x="0" y="100.68">ca</tspan><tspan class="cls-67" x="13.19" y="100.68">v</tspan><tspan x="19.03" y="100.68">ab almağı </tspan><tspan class="cls-54" x="77.16" y="100.68">s</tspan><tspan x="82.28" y="100.68">əbrsizliklə g</tspan><tspan class="cls-60" x="146.32" y="100.68">ö</tspan><tspan x="153.09" y="100.68">zl</tspan><tspan class="cls-59" x="161.86" y="100.68">ə</tspan><tspan x="167.95" y="100.68">yi</tspan><tspan class="cls-60" x="177.25" y="100.68">r</tspan><tspan x="181.39" y="100.68">əm .</tspan></text><text class="cls-69" transform="translate(760.29 698.42)">Əla ünsiy<tspan class="cls-70" x="55.94" y="0">y</tspan><tspan class="cls-71" x="62.58" y="0">ə</tspan><tspan x="69.83" y="0">t qabiliy</tspan><tspan class="cls-70" x="119.68" y="0">y</tspan><tspan class="cls-71" x="126.31" y="0">ət</tspan><tspan x="138.25" y="0">i</tspan><tspan x="0" y="23.07">Sü</tspan><tspan class="cls-72" x="15.21" y="23.07">r</tspan><tspan class="cls-71" x="19.87" y="23.07">ə</tspan><tspan x="27.12" y="23.07">tli mənim</tspan><tspan class="cls-71" x="84.34" y="23.07">s</tspan><tspan x="90.12" y="23.07">əmə qabiliy</tspan><tspan class="cls-73" x="161.51" y="23.07">y</tspan><tspan class="cls-71" x="168.14" y="23.07">ət</tspan><tspan x="180.08" y="23.07">i </tspan><tspan x="0" y="46.15">Sərbəst </tspan><tspan class="cls-74" x="49.29" y="46.15">v</tspan><tspan x="55.85" y="46.15">ə </tspan><tspan class="cls-75" x="66.64" y="46.15">k</tspan><tspan x="73.24" y="46.15">ollek</tspan><tspan class="cls-71" x="102.39" y="46.15">t</tspan><tspan x="107.08" y="46.15">i</tspan><tspan class="cls-76" x="110.62" y="46.15">v</tspan><tspan x="117.21" y="46.15">də işləmə bacarığı </tspan><tspan x="0" y="69.22">K</tspan><tspan class="cls-72" x="8.64" y="69.22">r</tspan><tspan x="13.3" y="69.22">ea</tspan><tspan class="cls-71" x="28.57" y="69.22">t</tspan><tspan x="33.25" y="69.22">iv düşüncə </tspan><tspan class="cls-77" x="101.59" y="69.22">v</tspan><tspan x="108.15" y="69.22">ə dəqiqlik</tspan><tspan class="cls-78" x="0" y="92.29">C</tspan><tspan class="cls-79" x="9.67" y="92.29">iddi, məsuliy</tspan><tspan class="cls-70" x="85.84" y="92.29">y</tspan><tspan class="cls-71" x="92.47" y="92.29">ə</tspan><tspan x="99.72" y="92.29">tli, i</tspan><tspan class="cls-72" x="121.67" y="92.29">ş</tspan><tspan x="127.33" y="92.29">gü</tspan><tspan class="cls-80" x="142.75" y="92.29">z</tspan><tspan class="cls-81" x="148.87" y="92.29">ar </tspan></text><line class="cls-43" x1="563.89" y1="632.19" x2="653.37" y2="632.19"/><rect class="cls-3" x="664.55" y="621.37" width="21.64" height="21.64" rx="1.97" transform="translate(-249.21 662.7) rotate(-45)"/><path class="cls-23" d="M675.37,633.42a1.65,1.65,0,1,0-1.65-1.65A1.65,1.65,0,0,0,675.37,633.42Z"/><path class="cls-23" d="M668.68,633.42l1.09.18a6,6,0,0,0,.65,1.55l-.63.88a.41.41,0,0,0,0,.53l1.17,1.17a.41.41,0,0,0,.53,0l.88-.63a5.64,5.64,0,0,0,1.55.64l.18,1.1a.4.4,0,0,0,.41.34h1.65a.4.4,0,0,0,.4-.34l.18-1.1a5.4,5.4,0,0,0,1.55-.64l.88.63a.41.41,0,0,0,.53,0l1.17-1.17a.41.41,0,0,0,0-.53l-.63-.88a6,6,0,0,0,.65-1.55l1.09-.18a.43.43,0,0,0,.35-.41v-1.65a.41.41,0,0,0-.35-.4l-1.09-.18a5.72,5.72,0,0,0-.65-1.55l.63-.89a.41.41,0,0,0,0-.53l-1.17-1.16a.42.42,0,0,0-.53,0l-.88.63a5.7,5.7,0,0,0-1.55-.64l-.18-1.09a.41.41,0,0,0-.4-.35h-1.65a.41.41,0,0,0-.41.35l-.18,1.09a6,6,0,0,0-1.55.64l-.88-.63a.42.42,0,0,0-.53,0l-1.17,1.16a.41.41,0,0,0,0,.53l.63.89a5.72,5.72,0,0,0-.65,1.55l-1.09.18a.4.4,0,0,0-.34.4V633A.42.42,0,0,0,668.68,633.42Zm6.69-5.77a4.54,4.54,0,1,1-4.53,4.54A4.55,4.55,0,0,1,675.37,627.65Z"/><path class="cls-23" d="M678.12,634.66a2.94,2.94,0,0,0-.84-1.33,2.46,2.46,0,0,1-1.91.92,2.43,2.43,0,0,1-1.9-.92,2.88,2.88,0,0,0-.85,1.33,3.67,3.67,0,0,0,5.5,0Z"/><line class="cls-43" x1="855.82" y1="659.86" x2="952.17" y2="659.86"/><text class="cls-82" transform="translate(756.25 663.63)">Bacarıqlar</text><rect class="cls-3" x="964.12" y="648.3" width="23.13" height="23.13" rx="2.1" transform="translate(-180.83 883.15) rotate(-45)"/><path class="cls-23" d="M980.3,658.63a1.26,1.26,0,0,0-.49-.84,8,8,0,0,1-3.13-4.86l0-.12a.57.57,0,0,0-.64-.47v5a2.27,2.27,0,0,0,.61,1.5,1.4,1.4,0,0,1,.29,1,1.24,1.24,0,0,1-1.23,1.24h0a1.24,1.24,0,0,1-1.23-1.24,1.4,1.4,0,0,1,.29-1,2.27,2.27,0,0,0,.61-1.5v-5a.57.57,0,0,0-.64.47l0,.12a8,8,0,0,1-3.13,4.86,1.26,1.26,0,0,0-.49.84,1.3,1.3,0,0,0,.3,1,5,5,0,0,0,.72.68,3.55,3.55,0,0,1,1.47,2.67h-.47a.24.24,0,0,0-.23.23v2.1a.23.23,0,0,0,.23.23h5.2a.23.23,0,0,0,.23-.23v-2.1a.24.24,0,0,0-.23-.23h-.47a3.55,3.55,0,0,1,1.47-2.67,5,5,0,0,0,.72-.68A1.3,1.3,0,0,0,980.3,658.63Z"/><text class="cls-83" transform="translate(635.85 170.35)">x<tspan class="cls-84" x="7.44" y="0">x.</tspan><tspan class="cls-85" x="18.56" y="0">x</tspan><tspan class="cls-84" x="26" y="0">x.</tspan><tspan x="37.12" y="0">xxxx</tspan></text><rect class="cls-36" x="897.74" y="306.5" width="6.6" height="8.07"/><text class="cls-86" transform="translate(745.05 874.55) scale(1.01 1)">Film</text><text class="cls-86" transform="translate(745.05 911.33) scale(1.01 1)">Musiqi</text><text class="cls-86" transform="translate(745.21 893.05) scale(1.01 1)">İdman</text><text class="cls-86" transform="translate(745.21 858.2) scale(1.01 1)">Kitab</text><path class="cls-36" d="M964.25,912.48h-.51c0-33.11-27.27-60.05-60.78-60.05s-60.78,26.94-60.78,60.05h-.51c0-33.39,27.49-60.56,61.29-60.56s61.29,27.17,61.29,60.56"/><path class="cls-36" d="M951.12,912.48h-.52c0-26-21.37-47.08-47.64-47.08s-47.64,21.12-47.64,47.08h-.52c0-26.24,21.61-47.59,48.16-47.59s48.16,21.35,48.16,47.59"/><path class="cls-36" d="M938.25,912.48h-.52a34.77,34.77,0,0,0-69.54,0h-.52a35.29,35.29,0,0,1,70.58,0"/><path class="cls-36" d="M925.15,912.48h-.51a21.68,21.68,0,0,0-43.36,0h-.52a22.2,22.2,0,0,1,44.39,0"/><path class="cls-3" d="M845.53,912.48h-7.21c0-35.22,29-63.87,64.64-63.87a64.83,64.83,0,0,1,44.23,17.29,63.33,63.33,0,0,1,20.26,42.22l-7.19.48c-2-29.65-27.19-52.87-57.3-52.87-31.67,0-57.43,25.46-57.43,56.75"/><path class="cls-3" d="M858.66,912.48h-7.21c0-28.06,23.11-50.89,51.51-50.89a51.59,51.59,0,0,1,29.63,9.26l-4.15,5.82a44.35,44.35,0,0,0-25.48-8c-24.42,0-44.3,19.64-44.3,43.77"/><path class="cls-87" d="M871.54,912.48h-7.22a38,38,0,0,1,21-34l3.29,6.34a30.92,30.92,0,0,0-17.09,27.64"/><path class="cls-88" d="M884.63,912.48h-7.21a25,25,0,0,1,6.94-17.3l5.25,4.89a17.93,17.93,0,0,0-5,12.41"/><rect class="cls-36" x="838.32" y="917.96" width="129.68" height="0.61"/><line class="cls-89" x1="787.09" y1="908.76" x2="879.76" y2="908.76"/><line class="cls-89" x1="786.78" y1="889.8" x2="879.76" y2="889.8"/><line class="cls-89" x1="786.47" y1="871.56" x2="882.62" y2="871.56"/><line class="cls-89" x1="785.95" y1="854.72" x2="883.51" y2="854.72"/><line class="cls-90" x1="816.6" y1="819.33" x2="952.77" y2="819.33"/><text class="cls-91" transform="translate(745.08 822.3) scale(1.01 1)">Hobbilər</text><path class="cls-3" d="M976.68,834.88a2.25,2.25,0,0,1-3.15,0l-14.16-14a2.18,2.18,0,0,1,0-3.11l14.16-14a2.25,2.25,0,0,1,3.15,0l14.17,14a2.18,2.18,0,0,1,0,3.11Z"/><path class="cls-23" d="M983.8,817.17a4.51,4.51,0,0,0-3.18-3.68,4.69,4.69,0,0,0-4.84,1c-.22.2-.43.42-.64.64l0,0-.57-.55a4.82,4.82,0,0,0-7.11.32,4.68,4.68,0,0,0,.33,6.38l4.79,4.73,1.89,1.88a.9.9,0,0,0,1.32,0l1.89-1.87,4.79-4.74a4.48,4.48,0,0,0,1.35-4.16M981.3,820c-.37.39-.75.76-1.15,1.15l-5,5-1.8-1.78L969,820.14a3,3,0,1,1,4.31-4.29c.25.24.5.48.74.73l.37.36a.89.89,0,0,0,1.35,0l.42-.41.69-.69a3.18,3.18,0,0,1,2.19-.89,3.06,3.06,0,0,1,2.75,1.71,3,3,0,0,1-.54,3.38"/></g></svg>