<svg xmlns="http://www.w3.org/2000/svg" xmlns:xlink="http://www.w3.org/1999/xlink" viewBox="0 0 595.28 841.89"><defs><style>.cls-1,.cls-115,.cls-34,.cls-87{fill:none;}.cls-2{clip-path:url(#clip-path);}.cls-24,.cls-27,.cls-3,.cls-35,.cls-5,.cls-53,.cls-55,.cls-9{fill:#fff;}.cls-19,.cls-4,.cls-63{fill:#0f1322;}.cls-116,.cls-125,.cls-126,.cls-5,.cls-53,.cls-83{font-size:15.89px;font-family:Averta-ExtraBold, Averta;font-weight:800;}.cls-125,.cls-128,.cls-5{letter-spacing:0.02em;}.cls-6{letter-spacing:0em;}.cls-53,.cls-7,.cls-83{letter-spacing:0.02em;}.cls-8{letter-spacing:0.02em;}.cls-9{font-size:11.49px;}.cls-129,.cls-55,.cls-9{font-family:Montserrat-Medium, Montserrat;font-weight:500;}.cls-10{letter-spacing:-0.01em;}.cls-11{letter-spacing:0em;}.cls-12{letter-spacing:-0.01em;}.cls-13{letter-spacing:-0.02em;}.cls-14{letter-spacing:-0.01em;}.cls-15{fill:#b3abab;}.cls-16{letter-spacing:0em;}.cls-17{letter-spacing:-0.01em;}.cls-18{fill:#c59e30;}.cls-19{font-size:7.43px;}.cls-19,.cls-63{font-family:Montserrat-SemiBold, Montserrat;}.cls-19,.cls-63,.cls-66,.cls-73{font-weight:600;}.cls-20{letter-spacing:-0.02em;}.cls-21{letter-spacing:-0.01em;}.cls-22{clip-path:url(#clip-path-2);}.cls-23{fill:#a8822e;}.cls-24{font-size:31.31px;}.cls-24,.cls-88{font-family:Montserrat-Bold, Montserrat;font-weight:700;}.cls-25{letter-spacing:-0.01em;}.cls-26{letter-spacing:-0.02em;}.cls-27{font-size:12.52px;font-family:Montserrat-Light, Montserrat;}.cls-27,.cls-70,.cls-71,.cls-72,.cls-75,.cls-76,.cls-77,.cls-80,.cls-81,.cls-82{font-weight:300;}.cls-28{letter-spacing:-0.01em;}.cls-29{letter-spacing:-0.01em;}.cls-30{letter-spacing:-0.01em;}.cls-31{letter-spacing:0em;}.cls-32{letter-spacing:-0.02em;}.cls-116,.cls-33{letter-spacing:-0.02em;}.cls-34{stroke:#fff;}.cls-115,.cls-34,.cls-87{stroke-miterlimit:10;}.cls-35{font-size:7px;}.cls-108,.cls-35,.cls-93{font-family:Montserrat-Regular, Montserrat;}.cls-36{letter-spacing:-0.01em;}.cls-37{letter-spacing:-0.01em;}.cls-38{letter-spacing:-0.02em;}.cls-39{letter-spacing:-0.02em;}.cls-40{letter-spacing:0em;}.cls-41{letter-spacing:-0.02em;}.cls-42{letter-spacing:-0.01em;}.cls-43{letter-spacing:-0.01em;}.cls-44{letter-spacing:0em;}.cls-45{letter-spacing:-0.01em;}.cls-46{letter-spacing:-0.01em;}.cls-47{letter-spacing:-0.01em;}.cls-48{letter-spacing:-0.02em;}.cls-49{letter-spacing:0.01em;}.cls-50{letter-spacing:0em;}.cls-51{letter-spacing:0em;}.cls-52{letter-spacing:-0.02em;}.cls-54{letter-spacing:0em;}.cls-55{font-size:11.49px;}.cls-56{letter-spacing:-0.05em;}.cls-57{letter-spacing:-0.01em;}.cls-58{letter-spacing:0em;}.cls-59{letter-spacing:-0.02em;}.cls-60{letter-spacing:-0.01em;}.cls-61{letter-spacing:-0.01em;}.cls-62{letter-spacing:-0.02em;}.cls-63{font-size:7.44px;}.cls-64{letter-spacing:-0.02em;}.cls-65{letter-spacing:-0.01em;}.cls-66,.cls-73{font-size:8.48px;fill:#231f20;font-family:Averta-Semibold, Averta;}.cls-66{letter-spacing:-0.07em;}.cls-67,.cls-72{letter-spacing:0.02em;}.cls-68{letter-spacing:0.01em;}.cls-69,.cls-70,.cls-73{letter-spacing:0.02em;}.cls-70,.cls-71,.cls-72,.cls-75,.cls-76,.cls-77,.cls-80,.cls-81,.cls-82{font-family:Averta-Light, Averta;}.cls-71,.cls-74{letter-spacing:0.01em;}.cls-75{letter-spacing:0.01em;}.cls-76{letter-spacing:0em;}.cls-78{letter-spacing:0em;}.cls-79{letter-spacing:-0.01em;}.cls-80{letter-spacing:0.02em;}.cls-81{letter-spacing:0em;}.cls-82{letter-spacing:0em;}.cls-116,.cls-125,.cls-126,.cls-83{fill:#11172d;}.cls-84{letter-spacing:0em;}.cls-85{letter-spacing:0.01em;}.cls-86{letter-spacing:0.04em;}.cls-87{stroke:#141b31;stroke-width:0.4px;}.cls-129,.cls-88{font-size:11px;}.cls-108,.cls-129,.cls-88,.cls-93{fill:#141b31;}.cls-89{letter-spacing:-0.01em;}.cls-90{letter-spacing:0em;}.cls-91{letter-spacing:-0.02em;}.cls-92{letter-spacing:-0.01em;}.cls-93{font-size:8px;}.cls-94{letter-spacing:-0.02em;}.cls-95{letter-spacing:-0.01em;}.cls-96{letter-spacing:0em;}.cls-97{letter-spacing:-0.01em;}.cls-98{letter-spacing:0em;}.cls-99{letter-spacing:-0.01em;}.cls-100{letter-spacing:-0.02em;}.cls-101{letter-spacing:-0.01em;}.cls-102{letter-spacing:0em;}.cls-103{letter-spacing:-0.02em;}.cls-104{letter-spacing:0.02em;}.cls-105{letter-spacing:-0.01em;}.cls-106{letter-spacing:-0.01em;}.cls-107{letter-spacing:-0.02em;}.cls-108{font-size:6.67px;}.cls-109{letter-spacing:-0.02em;}.cls-110{letter-spacing:-0.01em;}.cls-111{letter-spacing:0em;}.cls-112{letter-spacing:0em;}.cls-113{letter-spacing:-0.02em;}.cls-114{letter-spacing:-0.01em;}.cls-115{stroke:#11172d;}.cls-117{letter-spacing:0em;}.cls-118{letter-spacing:-0.02em;}.cls-119{letter-spacing:0em;}.cls-120{letter-spacing:-0.02em;}.cls-121{letter-spacing:0em;}.cls-122{letter-spacing:-0.02em;}.cls-123{letter-spacing:-0.03em;}.cls-124{letter-spacing:0em;}.cls-126{letter-spacing:0.01em;}.cls-127{letter-spacing:0.02em;}.cls-130{letter-spacing:-0.01em;}.cls-131{letter-spacing:0em;}.cls-132{letter-spacing:0em;}.cls-133{letter-spacing:-0.01em;}.cls-134{letter-spacing:-0.02em;}.cls-135{letter-spacing:0em;}.cls-136{letter-spacing:0em;}.cls-137{clip-path:url(#clip-path-3);}</style><clipPath id="clip-path"><rect class="cls-1" x="718" y="36.76" width="211.01" height="262.96"/></clipPath><clipPath id="clip-path-2"><rect class="cls-1" x="32.53" y="25.01" width="252.96" height="250.16"/></clipPath><clipPath id="clip-path-3"><rect class="cls-1" x="-631.97" y="26.18" width="285.93" height="341.21"/></clipPath></defs><g id="PRINT"><rect class="cls-3" width="595.28" height="841.89"/><rect class="cls-4" x="32.53" y="24.93" width="252.97" height="801.32"/><text class="cls-5" transform="translate(53.07 495.7)">DİL BİLİK<tspan class="cls-6" x="70.49" y="0">L</tspan><tspan class="cls-7" x="79.2" y="0">Ə</tspan><tspan class="cls-8" x="90.92" y="0">R</tspan><tspan x="101.43" y="0">İ</tspan></text><text class="cls-9" transform="translate(53.08 524.61)"><tspan class="cls-10">T</tspan><tspan class="cls-11" x="6.6" y="0">ü</tspan><tspan class="cls-12" x="14.38" y="0">r</tspan><tspan class="cls-13" x="19.01" y="0">k</tspan><tspan class="cls-14" x="25.83" y="0">c</tspan><tspan x="32.3" y="0">ə</tspan></text><rect class="cls-15" x="53.07" y="529.53" width="213.64" height="7.98"/><text class="cls-9" transform="translate(53.08 566.33)">İ<tspan class="cls-16" x="3.56" y="0">n</tspan><tspan x="11.42" y="0">gilis</tspan><tspan class="cls-17" x="34.73" y="0">c</tspan><tspan x="41.2" y="0">ə</tspan></text><rect class="cls-15" x="53.07" y="571.25" width="213.64" height="7.98"/><text class="cls-9" transform="translate(53.08 608.05)">Rusca</text><rect class="cls-15" x="53.07" y="612.97" width="213.64" height="7.98"/><polygon class="cls-18" points="239.79 597.75 239.79 612.97 53.08 612.97 53.08 620.95 234.22 620.95 263.87 620.95 263.87 612.97 263.87 597.75 239.79 597.75"/><polygon class="cls-18" points="228.96 556.03 228.96 571.25 53.08 571.25 53.08 579.23 223.39 579.23 253.04 579.23 253.04 571.25 253.04 556.03 228.96 556.03"/><polygon class="cls-18" points="203.44 514.31 203.44 529.53 53.08 529.53 53.08 537.51 197.87 537.51 227.53 537.51 227.53 529.53 227.53 514.31 203.44 514.31"/><text class="cls-19" transform="translate(206.72 524.61)"><tspan class="cls-20">7</tspan><tspan class="cls-21" x="4.39" y="0">5</tspan><tspan x="8.65" y="0">%</tspan></text><text class="cls-19" transform="translate(232.23 566.33)">90%</text><text class="cls-19" transform="translate(243.06 608.05)">99%</text><polygon class="cls-18" points="554.06 0 595.28 37.96 595.28 0 554.06 0"/><polygon class="cls-18" points="554.06 841.89 595.28 803.93 595.28 841.89 554.06 841.89"/><rect class="cls-18" x="18.4" y="279.3" width="281.23" height="70.34"/><polygon class="cls-23" points="18.4 279.3 32.53 268.13 32.53 279.3 18.4 279.3"/><polyline class="cls-23" points="285.5 279.3 299.63 279.3 285.5 268.13"/><polygon class="cls-23" points="18.4 349.64 32.53 360.8 32.53 349.64 18.4 349.64"/><polyline class="cls-23" points="285.5 349.64 299.63 349.64 285.5 360.8"/><text class="cls-24" transform="translate(54.58 314.77)">ƏLİ <tspan class="cls-25" x="63.61" y="0">Q</tspan><tspan x="89.72" y="0">ASIM</tspan><tspan class="cls-26" x="173.84" y="0">O</tspan><tspan x="199.54" y="0">V</tspan></text><text class="cls-27" transform="translate(89.85 338.99)">Doğum ta<tspan class="cls-28" x="63.85" y="0">r</tspan><tspan x="68.67" y="0">ixi: 15</tspan><tspan class="cls-29" x="98.84" y="0">.</tspan><tspan x="101.21" y="0">1</tspan><tspan class="cls-30" x="105.63" y="0">0.</tspan><tspan x="116.1" y="0">19</tspan><tspan class="cls-31" x="128.05" y="0">9</tspan><tspan x="135.58" y="0">2</tspan></text><text class="cls-5" transform="translate(52.43 380.21)">H<tspan class="cls-32" x="11.64" y="0">A</tspan><tspan class="cls-7" x="22.33" y="0">QQIM</tspan><tspan class="cls-33" x="67.93" y="0">D</tspan><tspan class="cls-7" x="78.95" y="0">A</tspan></text><line class="cls-34" x1="52.43" y1="385.53" x2="141.86" y2="385.53"/><text class="cls-35" transform="translate(53.08 401.18) scale(1.1 1)">Sizin <tspan class="cls-36" x="18.22" y="0">k</tspan><tspan x="22.37" y="0">imi uğu</tspan><tspan class="cls-36" x="49.62" y="0">r</tspan><tspan x="52.37" y="0">lu bir şi</tspan><tspan class="cls-37" x="77.38" y="0">r</tspan><tspan class="cls-38" x="80.13" y="0">k</tspan><tspan x="84.19" y="0">ə</tspan><tspan class="cls-39" x="88.42" y="0">t</tspan><tspan x="91.13" y="0">də işlə</tspan><tspan class="cls-40" x="113.35" y="0">m</tspan><tspan x="120.79" y="0">ək is</tspan><tspan class="cls-39" x="136.37" y="0">t</tspan><tspan class="cls-41" x="139.08" y="0">ə</tspan><tspan x="143.2" y="0">yimi ça</tspan><tspan class="cls-39" x="168.09" y="0">t</tspan><tspan x="170.8" y="0">dı</tspan><tspan class="cls-36" x="177.43" y="0">r</tspan><tspan x="180.18" y="0">m</tspan><tspan class="cls-40" x="187.61" y="0">a</tspan><tspan x="191.75" y="0">q </tspan><tspan x="0" y="10">is</tspan><tspan class="cls-39" x="5.31" y="10">t</tspan><tspan class="cls-41" x="8.02" y="10">ə</tspan><tspan x="12.14" y="10">yi</tspan><tspan class="cls-42" x="17.82" y="10">r</tspan><tspan x="20.53" y="10">əm, bu</tspan><tspan class="cls-43" x="44.96" y="10">r</tspan><tspan class="cls-44" x="47.71" y="10">a</tspan><tspan x="51.85" y="10">da şi</tspan><tspan class="cls-36" x="67.86" y="10">r</tspan><tspan class="cls-38" x="70.62" y="10">k</tspan><tspan x="74.68" y="10">ətini</tspan><tspan class="cls-43" x="90.25" y="10">z</tspan><tspan x="93.76" y="10">ə d</tspan><tspan class="cls-45" x="104.57" y="10">əy</tspan><tspan x="112.39" y="10">ər əl</tspan><tspan class="cls-46" x="127.37" y="10">a</tspan><tspan class="cls-45" x="131.43" y="10">v</tspan><tspan x="135.12" y="10">ə edə bilə</tspan><tspan class="cls-43" x="168.95" y="10">c</tspan><tspan class="cls-41" x="172.83" y="10">ə</tspan><tspan x="176.96" y="10">yi</tspan><tspan class="cls-40" x="182.63" y="10">m</tspan><tspan x="190.07" y="10">ə </tspan><tspan x="0" y="20">şüb</tspan><tspan class="cls-40" x="12.88" y="20">h</tspan><tspan x="17.63" y="20">əm </tspan><tspan class="cls-41" x="31.12" y="20">y</tspan><tspan class="cls-39" x="34.81" y="20">ox</tspan><tspan x="42.67" y="20">du</tspan><tspan class="cls-46" x="52.13" y="20">r</tspan><tspan x="54.86" y="20">. Düşünü</tspan><tspan class="cls-47" x="86.26" y="20">r</tspan><tspan x="88.97" y="20">əm </tspan><tspan class="cls-36" x="102.46" y="20">k</tspan><tspan x="106.62" y="20">i, </tspan><tspan class="cls-36" x="111.82" y="20">C</tspan><tspan class="cls-48" x="116.79" y="20">V</tspan><tspan class="cls-49" x="121.52" y="20">-</tspan><tspan x="124.27" y="20">də q</tspan><tspan class="cls-46" x="139.82" y="20">e</tspan><tspan class="cls-45" x="143.98" y="20">y</tspan><tspan x="147.67" y="20">d e</tspan><tspan class="cls-39" x="158.48" y="20">t</tspan><tspan x="161.19" y="20">diyim </tspan><tspan class="cls-50" x="0" y="30">b</tspan><tspan class="cls-40" x="4.72" y="30">a</tspan><tspan x="8.87" y="30">ca</tspan><tspan class="cls-36" x="16.94" y="30">r</tspan><tspan x="19.69" y="30">ıqla</tspan><tspan class="cls-36" x="32.33" y="30">r</tspan><tspan x="35.08" y="30">ım iş </tspan><tspan class="cls-39" x="53.37" y="30">t</tspan><tspan x="56.08" y="30">ə</tspan><tspan class="cls-46" x="60.3" y="30">s</tspan><tspan x="63.66" y="30">vi</tspan><tspan class="cls-37" x="69.34" y="30">r</tspan><tspan x="72.09" y="30">i</tspan><tspan class="cls-40" x="73.97" y="30">n</tspan><tspan x="78.72" y="30">ə </tspan><tspan class="cls-45" x="84.78" y="30">v</tspan><tspan x="88.47" y="30">ə şi</tspan><tspan class="cls-36" x="99.84" y="30">r</tspan><tspan class="cls-38" x="102.59" y="30">k</tspan><tspan x="106.65" y="30">ətinizin pe</tspan><tspan class="cls-51" x="143.23" y="30">r</tspan><tspan x="146.01" y="30">spektivi</tspan><tspan class="cls-40" x="173.02" y="30">n</tspan><tspan x="177.77" y="30">ə </tspan><tspan x="0" y="40">u</tspan><tspan class="cls-41" x="4.71" y="40">y</tspan><tspan x="8.4" y="40">ğu</tspan><tspan class="cls-40" x="17.91" y="40">n</tspan><tspan x="22.67" y="40">du</tspan><tspan class="cls-46" x="32.12" y="40">r</tspan><tspan x="34.86" y="40">.</tspan><tspan class="cls-36" x="0" y="50">C</tspan><tspan class="cls-48" x="4.98" y="50">V</tspan><tspan x="9.71" y="50">-ni </tspan><tspan class="cls-40" x="20.84" y="50">n</tspan><tspan class="cls-43" x="25.59" y="50">əz</tspan><tspan x="33.27" y="50">ə</tspan><tspan class="cls-47" x="37.5" y="50">r</tspan><tspan x="40.22" y="50">dən </tspan><tspan class="cls-38" x="55.76" y="50">k</tspan><tspan x="59.82" y="50">eçi</tspan><tspan class="cls-36" x="69.87" y="50">r</tspan><tspan class="cls-40" x="72.62" y="50">m</tspan><tspan class="cls-41" x="80.07" y="50">əy</tspan><tspan x="87.88" y="50">ə </tspan><tspan class="cls-52" x="93.94" y="50">v</tspan><tspan x="97.62" y="50">axt </tspan><tspan class="cls-46" x="110.17" y="50">a</tspan><tspan x="114.23" y="50">yı</tspan><tspan class="cls-42" x="119.9" y="50">r</tspan><tspan x="122.62" y="50">dığınız üçün </tspan><tspan class="cls-39" x="167.9" y="50">t</tspan><tspan x="170.61" y="50">əşək</tspan><tspan class="cls-46" x="186.7" y="50">k</tspan><tspan x="190.84" y="50">ür </tspan><tspan x="0" y="60">edi</tspan><tspan class="cls-47" x="10.86" y="60">r</tspan><tspan x="13.57" y="60">əm. Si</tspan><tspan class="cls-43" x="34.73" y="60">z</tspan><tspan x="38.25" y="60">dən müsbət </tspan><tspan class="cls-39" x="83" y="60">x</tspan><tspan x="86.61" y="60">əbər alm</tspan><tspan class="cls-40" x="117.89" y="60">a</tspan><tspan x="122.04" y="60">q dil</tspan><tspan class="cls-41" x="137.13" y="60">ə</tspan><tspan x="141.25" y="60">yi il</tspan><tspan class="cls-45" x="152.53" y="60">ə</tspan><tspan x="156.65" y="60">.</tspan></text><text class="cls-53" transform="translate(52.93 654.69)">P<tspan class="cls-54" x="10" y="0">R</tspan><tspan x="20.2" y="0">OQRAM</tspan></text><text class="cls-55" transform="translate(52.43 678.94)"><tspan class="cls-56">W</tspan><tspan x="12.31" y="0">o</tspan><tspan class="cls-57" x="19.61" y="0">r</tspan><tspan class="cls-58" x="24.18" y="0">d</tspan></text><rect class="cls-15" x="52.43" y="683.86" width="213" height="7.98"/><text class="cls-55" transform="translate(52.43 720.67)"><tspan class="cls-57">E</tspan><tspan class="cls-59" x="7.56" y="0">x</tspan><tspan class="cls-60" x="13.7" y="0">c</tspan><tspan x="20.17" y="0">el</tspan></text><rect class="cls-15" x="52.43" y="725.59" width="213" height="7.98"/><text class="cls-55" transform="translate(52.43 762.4)"><tspan class="cls-61">P</tspan><tspan class="cls-62" x="8.16" y="0">ow</tspan><tspan x="25.45" y="0">e</tspan><tspan class="cls-57" x="32.48" y="0">rP</tspan><tspan x="45.22" y="0">oint</tspan></text><rect class="cls-15" x="52.43" y="767.32" width="213" height="7.98"/><polygon class="cls-18" points="238.58 752.09 238.58 767.32 52.43 767.32 52.43 775.3 233.03 775.3 262.59 775.3 262.59 767.32 262.59 752.09 238.58 752.09"/><polygon class="cls-18" points="227.79 710.37 227.79 725.59 52.43 725.59 52.43 733.57 222.23 733.57 251.8 733.57 251.8 725.59 251.8 710.37 227.79 710.37"/><polygon class="cls-18" points="202.35 668.64 202.35 683.86 52.43 683.86 52.43 691.85 196.79 691.85 226.36 691.85 226.36 683.86 226.36 668.64 202.35 668.64"/><text class="cls-63" transform="translate(205.61 678.94)"><tspan class="cls-64">7</tspan><tspan class="cls-65" x="4.39" y="0">5</tspan><tspan x="8.65" y="0">%</tspan></text><text class="cls-63" transform="translate(231.05 720.67)">90%</text><text class="cls-63" transform="translate(241.85 762.4)">99%</text><text class="cls-55" transform="translate(52.43 797.88)">Outlook</text><rect class="cls-15" x="52.43" y="802.81" width="213" height="7.98"/><polygon class="cls-18" points="238.58 787.58 238.58 802.81 52.43 802.81 52.43 810.79 233.03 810.79 262.59 810.79 262.59 802.81 262.59 787.58 238.58 787.58"/><text class="cls-63" transform="translate(241.85 797.88)">99%</text><path class="cls-18" d="M307.42,77.38l0,0a7.41,7.41,0,0,0,.64-.61l.07-.07a3.85,3.85,0,0,1,.35-.35,1.18,1.18,0,0,1,1.79,0l1.84,1.84a1.2,1.2,0,0,1,.4.87,1.26,1.26,0,0,1-.4.88L311,81.08a.21.21,0,0,0-.07.13.2.2,0,0,0,0,.08l0,0c.06.11.13.23.19.36a3.35,3.35,0,0,0,.2.37,11.73,11.73,0,0,0,2.58,2.84h0a7,7,0,0,0,1.6,1h0c.11,0,.14,0,.22,0h0c.26-.29.52-.55.83-.85l.19-.2.1-.09a1.15,1.15,0,0,1,1.78,0l.91.91.17.16.16.15.61.62h0a1.18,1.18,0,0,1,0,1.74l0,0-1.13,1.14A2.09,2.09,0,0,1,318,90a5.21,5.21,0,0,1-2.32-.41,14.12,14.12,0,0,1-4.16-2.49,15.41,15.41,0,0,1-4-5.12,7.82,7.82,0,0,1-.83-2.81V79A2.14,2.14,0,0,1,307.42,77.38Z"/><text class="cls-66" transform="translate(331.58 86.42)">T<tspan class="cls-67" x="4.41" y="0">el</tspan><tspan class="cls-68" x="11.83" y="0">ef</tspan><tspan class="cls-69" x="19.71" y="0" xml:space="preserve">on:   </tspan><tspan class="cls-70" x="39.99" y="0">+9</tspan><tspan class="cls-71" x="50.21" y="0">9</tspan><tspan class="cls-72" x="55.19" y="0">4xx xxx xx xx</tspan></text><path class="cls-18" d="M321.39,111.26a.13.13,0,0,1,0-.06s0,0,0-.06,0,0,0,0,0,0,0,0a.08.08,0,0,1,0,0l0,0s0,0,0,0h0s0,0,0,0,0,0,0,0l-.05,0-.05,0-.05,0-.05,0H307l-.05,0-.05,0-.05,0,0,0,0,0-.05,0h0l0,0,0,0,0,0s0,0,0,0,0,0,0,0,0,0,0,.06v.06a0,0,0,0,0,0,0v9.8a.56.56,0,0,0,.57.56h13.7a.56.56,0,0,0,.56-.56v-9.83Zm-2.09.59L314,116.39l-5.33-4.54Zm-5.69,5.7a.59.59,0,0,0,.37.14.56.56,0,0,0,.36-.14"/><text class="cls-73" transform="translate(331.58 119.23)">Elekt<tspan class="cls-74" x="20.75" y="0">r</tspan><tspan class="cls-67" x="23.96" y="0" xml:space="preserve">on poçt:  </tspan><tspan class="cls-72" x="62.93" y="0">cvhazirlama@gmai</tspan><tspan class="cls-75" x="139.77" y="0">l</tspan><tspan class="cls-76" x="141.81" y="0">.</tspan><tspan class="cls-77" x="143.73" y="0">com</tspan></text><path class="cls-18" d="M313,139.7a7.1,7.1,0,1,0,7.09,7.1A7.1,7.1,0,0,0,313,139.7Zm6,6.56h-1.71a9.31,9.31,0,0,0-1.38-4.73A6,6,0,0,1,319,146.26Zm-6.53-5.39v5.39h-2.66C309.93,143.57,311.05,141.33,312.45,140.87Zm0,6.47v5.39c-1.4-.46-2.52-2.7-2.66-5.39Zm1.08,5.39v-5.39h2.66C316.06,150,314.94,152.27,313.53,152.73Zm0-6.47v-5.39c1.41.46,2.53,2.7,2.66,5.39Zm-3.44-4.73a9.41,9.41,0,0,0-1.37,4.73H307A6,6,0,0,1,310.09,141.53ZM307,147.34h1.71a9.41,9.41,0,0,0,1.37,4.73A6,6,0,0,1,307,147.34Zm8.88,4.73a9.31,9.31,0,0,0,1.38-4.73H319A6,6,0,0,1,315.89,152.07Z"/><text class="cls-73" transform="translate(332.69 150.07)">Ü<tspan class="cls-78" x="6.28" y="0">n</tspan><tspan class="cls-79" x="11.34" y="0">v</tspan><tspan x="15.81" y="0" xml:space="preserve">an:   </tspan><tspan class="cls-77" x="36.2" y="0">Bakı </tspan><tspan class="cls-80" x="56.14" y="0">ş</tspan><tspan class="cls-77" x="59.97" y="0">əhəri, A</tspan><tspan class="cls-81" x="90.11" y="0">z</tspan><tspan class="cls-77" x="94" y="0">ərba</tspan><tspan class="cls-82" x="112.51" y="0">y</tspan><tspan class="cls-77" x="116.91" y="0">can</tspan></text><text class="cls-83" transform="translate(306.1 211.41)">İŞ <tspan class="cls-33" x="18.66" y="0">T</tspan><tspan x="27.62" y="0">ƏC</tspan><tspan class="cls-84" x="50.93" y="0">R</tspan><tspan x="61.22" y="0">Ü</tspan><tspan class="cls-85" x="72.62" y="0">B</tspan><tspan x="82.82" y="0">ƏSİ</tspan></text><text class="cls-83" transform="translate(306.1 46.12)">Ə<tspan class="cls-86" x="11.72" y="0">L</tspan><tspan class="cls-32" x="21.04" y="0">A</tspan><tspan x="31.73" y="0">QƏ</tspan></text><line class="cls-87" x1="310.67" y1="229.72" x2="310.67" y2="435.53"/><circle class="cls-18" cx="310.67" cy="238.58" r="4.57"/><circle class="cls-18" cx="310.67" cy="353.62" r="4.57"/><line class="cls-87" x1="310.67" y1="336.14" x2="579.98" y2="336.14"/><line class="cls-87" x1="310.67" y1="435.53" x2="579.98" y2="435.53"/><text class="cls-88" transform="translate(335.5 251.52)">A<tspan class="cls-89" x="8.43" y="0">r</tspan><tspan x="13.09" y="0">az Ma</tspan><tspan class="cls-90" x="46.25" y="0">r</tspan><tspan class="cls-91" x="50.95" y="0">k</tspan><tspan x="57.96" y="0">et</tspan><tspan class="cls-92" x="0" y="14">K</tspan><tspan x="8.01" y="14">assir</tspan></text><text class="cls-93" transform="translate(336.56 278.79)">- Malın d<tspan class="cls-94" x="34.75" y="0">əy</tspan><tspan x="43.68" y="0">ə</tspan><tspan class="cls-95" x="48.51" y="0">r</tspan><tspan x="51.66" y="0">inin </tspan><tspan class="cls-96" x="68.89" y="0">h</tspan><tspan x="74.32" y="0">esablanması </tspan><tspan class="cls-94" x="126.86" y="0">v</tspan><tspan x="131.08" y="0">ə </tspan><tspan class="cls-97" x="138.01" y="0">k</tspan><tspan x="142.73" y="0">assa ə</tspan><tspan class="cls-98" x="166.93" y="0">m</tspan><tspan x="175.43" y="0">əli</tspan><tspan class="cls-99" x="184.57" y="0">y</tspan><tspan class="cls-100" x="188.86" y="0">y</tspan><tspan x="193.07" y="0">atının </tspan><tspan class="cls-94" x="218.27" y="0">y</tspan><tspan x="222.49" y="0">e</tspan><tspan class="cls-95" x="227.32" y="0">r</tspan><tspan x="230.46" y="0">i</tspan><tspan class="cls-96" x="232.62" y="0">n</tspan><tspan x="238.05" y="0">ə </tspan><tspan class="cls-94" x="0" y="10">y</tspan><tspan x="4.22" y="10">eti</tspan><tspan class="cls-95" x="14.45" y="10">r</tspan><tspan x="17.59" y="10">il</tspan><tspan class="cls-96" x="21.9" y="10">m</tspan><tspan x="30.4" y="10">əsi;</tspan><tspan x="0" y="20">- </tspan><tspan class="cls-101" x="5.15" y="20">K</tspan><tspan x="10.73" y="20">assa </tspan><tspan class="cls-98" x="30.09" y="20">h</tspan><tspan x="35.52" y="20">esa</tspan><tspan class="cls-102" x="48.98" y="20">b</tspan><tspan x="54.38" y="20">atını </tspan><tspan class="cls-103" x="74.17" y="20">t</tspan><tspan x="77.26" y="20">ə</tspan><tspan class="cls-104" x="82.09" y="20">r</tspan><tspan x="85.42" y="20">tib et</tspan><tspan class="cls-96" x="106.42" y="20">m</tspan><tspan x="114.93" y="20">ək;</tspan><tspan x="0" y="30">- Malın alınması zamanı s</tspan><tspan class="cls-97" x="100.73" y="30">a</tspan><tspan x="105.37" y="30">yının, </tspan><tspan class="cls-105" x="128.63" y="30">ç</tspan><tspan x="133.06" y="30">eşidinin </tspan><tspan class="cls-106" x="166.62" y="30">y</tspan><tspan class="cls-107" x="170.83" y="30">o</tspan><tspan x="175.7" y="30">xlanılmas</tspan></text><text class="cls-108" transform="translate(335.5 240.87)">05<tspan class="cls-109" x="8.19" y="0">/</tspan><tspan class="cls-110" x="10.29" y="0">0</tspan><tspan x="14.63" y="0">3/</tspan><tspan class="cls-111" x="20.62" y="0">2</tspan><tspan class="cls-112" x="24.38" y="0">0</tspan><tspan x="28.78" y="0">19–</tspan><tspan class="cls-113" x="38.58" y="0">P</tspan><tspan class="cls-114" x="43.21" y="0">r</tspan><tspan x="45.8" y="0">esent</tspan></text><text class="cls-88" transform="translate(335.5 364.26)">A<tspan class="cls-89" x="8.43" y="0">r</tspan><tspan x="13.09" y="0">az Ma</tspan><tspan class="cls-90" x="46.25" y="0">r</tspan><tspan class="cls-91" x="50.95" y="0">k</tspan><tspan x="57.96" y="0">et</tspan><tspan class="cls-92" x="0" y="14">K</tspan><tspan x="8.01" y="14">assir</tspan></text><text class="cls-93" transform="translate(336.56 391.53)">- Malın d<tspan class="cls-94" x="34.75" y="0">əy</tspan><tspan x="43.68" y="0">ə</tspan><tspan class="cls-95" x="48.51" y="0">r</tspan><tspan x="51.66" y="0">inin </tspan><tspan class="cls-96" x="68.89" y="0">h</tspan><tspan x="74.32" y="0">esablanması </tspan><tspan class="cls-94" x="126.86" y="0">v</tspan><tspan x="131.08" y="0">ə </tspan><tspan class="cls-97" x="138.01" y="0">k</tspan><tspan x="142.73" y="0">assa ə</tspan><tspan class="cls-98" x="166.93" y="0">m</tspan><tspan x="175.43" y="0">əli</tspan><tspan class="cls-99" x="184.57" y="0">y</tspan><tspan class="cls-100" x="188.86" y="0">y</tspan><tspan x="193.07" y="0">atının </tspan><tspan class="cls-94" x="218.27" y="0">y</tspan><tspan x="222.49" y="0">e</tspan><tspan class="cls-95" x="227.32" y="0">r</tspan><tspan x="230.46" y="0">i</tspan><tspan class="cls-96" x="232.62" y="0">n</tspan><tspan x="238.05" y="0">ə </tspan><tspan class="cls-94" x="0" y="10">y</tspan><tspan x="4.22" y="10">eti</tspan><tspan class="cls-95" x="14.45" y="10">r</tspan><tspan x="17.59" y="10">il</tspan><tspan class="cls-96" x="21.9" y="10">m</tspan><tspan x="30.4" y="10">əsi;</tspan><tspan x="0" y="20">- </tspan><tspan class="cls-101" x="5.15" y="20">K</tspan><tspan x="10.73" y="20">assa </tspan><tspan class="cls-98" x="30.09" y="20">h</tspan><tspan x="35.52" y="20">esa</tspan><tspan class="cls-102" x="48.98" y="20">b</tspan><tspan x="54.38" y="20">atını </tspan><tspan class="cls-103" x="74.17" y="20">t</tspan><tspan x="77.26" y="20">ə</tspan><tspan class="cls-104" x="82.09" y="20">r</tspan><tspan x="85.42" y="20">tib et</tspan><tspan class="cls-96" x="106.42" y="20">m</tspan><tspan x="114.93" y="20">ək;</tspan><tspan x="0" y="30">- Malın alınması zamanı s</tspan><tspan class="cls-97" x="100.73" y="30">a</tspan><tspan x="105.37" y="30">yının, </tspan><tspan class="cls-105" x="128.63" y="30">ç</tspan><tspan x="133.06" y="30">eşidinin </tspan><tspan class="cls-106" x="166.62" y="30">y</tspan><tspan class="cls-107" x="170.83" y="30">o</tspan><tspan x="175.7" y="30">xlanılmas</tspan></text><text class="cls-108" transform="translate(335.5 353.62)">05<tspan class="cls-109" x="8.19" y="0">/</tspan><tspan class="cls-110" x="10.29" y="0">0</tspan><tspan x="14.63" y="0">3/</tspan><tspan class="cls-111" x="20.62" y="0">2</tspan><tspan class="cls-112" x="24.38" y="0">0</tspan><tspan x="28.78" y="0">19–</tspan><tspan class="cls-113" x="38.58" y="0">P</tspan><tspan class="cls-114" x="43.21" y="0">r</tspan><tspan x="45.8" y="0">esent</tspan></text><line class="cls-115" x1="306.1" y1="222.02" x2="414.51" y2="222.02"/><line class="cls-115" x1="306.1" y1="59.58" x2="414.51" y2="59.58"/><line class="cls-87" x1="315.45" y1="549.04" x2="584.76" y2="549.04"/><text class="cls-116" transform="translate(315.45 474.09)">T<tspan class="cls-7" x="8.96" y="0">ƏHSİL</tspan></text><line class="cls-87" x1="315.45" y1="492.4" x2="315.45" y2="549.04"/><line class="cls-87" x1="315.45" y1="647.04" x2="315.45" y2="703.68"/><circle class="cls-18" cx="315.45" cy="501.93" r="4.57"/><circle class="cls-18" cx="315.45" cy="651.38" r="4.57"/><circle class="cls-18" cx="315.45" cy="669.16" r="4.57"/><circle class="cls-18" cx="315.45" cy="686.94" r="4.57"/><circle class="cls-18" cx="315.45" cy="705.99" r="4.57"/><text class="cls-88" transform="translate(340.27 518.53)">Ba<tspan class="cls-117" x="15.2" y="0">k</tspan><tspan x="22.42" y="0">ı D</tspan><tspan class="cls-118" x="37.93" y="0">ö</tspan><tspan class="cls-119" x="44.97" y="0">vlət Uni</tspan><tspan class="cls-120" x="89.28" y="0">v</tspan><tspan x="95.69" y="0">e</tspan><tspan class="cls-121" x="102.63" y="0">r</tspan><tspan x="107.35" y="0">si</tspan><tspan class="cls-122" x="116.5" y="0">t</tspan><tspan x="121.1" y="0">eti</tspan></text><text class="cls-93" transform="translate(341.33 532.59)"><tspan class="cls-123">T</tspan><tspan class="cls-124" x="4.36" y="0">a</tspan><tspan class="cls-95" x="9.08" y="0">r</tspan><tspan x="12.22" y="0">ix </tspan><tspan class="cls-97" x="20.74" y="0">f</tspan><tspan x="23.38" y="0">a</tspan><tspan class="cls-97" x="28.1" y="0">k</tspan><tspan x="32.82" y="0">ü</tspan><tspan class="cls-98" x="38.21" y="0">l</tspan><tspan class="cls-107" x="40.38" y="0">t</tspan><tspan x="43.47" y="0">əsi</tspan></text><text class="cls-108" transform="translate(340.27 503.55)">05<tspan class="cls-109" x="8.19" y="0">/</tspan><tspan class="cls-110" x="10.29" y="0">0</tspan><tspan x="14.63" y="0">3/</tspan><tspan class="cls-111" x="20.62" y="0">2</tspan><tspan class="cls-112" x="24.38" y="0">0</tspan><tspan x="28.78" y="0">19–</tspan></text><text class="cls-125" transform="translate(310.88 768.68)">HOBBİ</text><path class="cls-18" d="M386.46,805.07c-.58-1.06-2.3-1.23-3.83-.38s-2.29,2.4-1.71,3.45,2.3,1.22,3.83.38S387.05,806.12,386.46,805.07Z"/><path class="cls-18" d="M400,803.14c-.58-1-2.3-1.22-3.83-.37s-2.3,2.39-1.71,3.45,2.3,1.22,3.83.37S400.59,804.2,400,803.14Z"/><polygon class="cls-18" points="400.2 791.43 400.2 803.65 399.73 803.65 399.73 794.49 386.59 796.9 386.59 806.06 386.13 806.06 386.13 793.84 400.2 791.43"/><path class="cls-18" d="M336.51,790.26a12.94,12.94,0,0,0-1.42.92l0,0-1.8,1.8-1.6-.36-4.27-1-4-.9-3,1.29,8.93,4.85-5.26,5.26,0,0s-.27.41-.55.93L320,802l-1.58,1.57,3.92,2.4-.4.41.53.53.39-.4,2.38,3.88,1.58-1.57-1.13-3.52c.51-.32.91-.6.93-.62l0,0,5.24-5.24,4.85,8.91,1.28-3-1.86-8.23-.36-1.58,1.81-1.81,0,0a15.1,15.1,0,0,0,.91-1.42c.64-1.17.75-1.89.35-2.3S337.65,789.63,336.51,790.26Z"/><path class="cls-18" d="M463.1,808.19s-7.52-.39-10.4,1.25c-2.88-1.64-10.4-1.25-10.4-1.25V795.87h1.05l.11,8.87.5-11.66c.75-.08,6.6-.57,8.74,1.58,2.14-2.15,8-1.66,8.74-1.58l.12,12.32.49-9.53h1.05Z"/><path class="cls-18" d="M513.9,795.5a5.71,5.71,0,1,0,5.71,5.71A5.71,5.71,0,0,0,513.9,795.5Zm0,11a5.29,5.29,0,1,1,5.29-5.29A5.29,5.29,0,0,1,513.92,806.53Z"/><path class="cls-18" d="M522.66,794h-.18a1,1,0,0,0-.91-.61h-1.26a1,1,0,0,0-.92.61H518.2L517.05,792a.65.65,0,0,0-.58-.33h-4.28a.67.67,0,0,0-.57.29L510.25,794h-.54a.73.73,0,0,0-.71-.61h-2.35a.73.73,0,0,0-.71.61h-.16a1.8,1.8,0,0,0-1.79,1.8v10.8a1.79,1.79,0,0,0,1.79,1.79h16.88a1.79,1.79,0,0,0,1.79-1.79v-10.8A1.8,1.8,0,0,0,522.66,794Zm-16.34,2.42a.79.79,0,1,1,.79.79A.79.79,0,0,1,506.32,796.46Zm7.58,11.11a6.36,6.36,0,1,1,6.36-6.36A6.37,6.37,0,0,1,513.9,807.57Z"/><line class="cls-115" x1="314.9" y1="480.3" x2="371.67" y2="480.3"/><text class="cls-126" transform="translate(315.45 612.05)">B<tspan class="cls-33" x="10.14" y="0">A</tspan><tspan class="cls-7" x="20.83" y="0">CA</tspan><tspan class="cls-127" x="43.74" y="0">R</tspan><tspan class="cls-128" x="54.25" y="0">IQ</tspan><tspan class="cls-86" x="72.66" y="0">L</tspan><tspan class="cls-7" x="81.99" y="0">AR</tspan></text><line class="cls-115" x1="314.9" y1="618.25" x2="418.94" y2="618.25"/><line class="cls-115" x1="310.67" y1="775.54" x2="367.45" y2="775.54"/><text class="cls-129" transform="translate(343.18 655.06)">Əla ünsi<tspan class="cls-130" x="45.11" y="0">y</tspan><tspan class="cls-118" x="51.17" y="0">y</tspan><tspan x="57.16" y="0">ət qabili</tspan><tspan class="cls-130" x="102.19" y="0">y</tspan><tspan class="cls-118" x="108.25" y="0">y</tspan><tspan x="114.23" y="0">əti</tspan><tspan x="0" y="18">Sü</tspan><tspan class="cls-92" x="14.28" y="18">r</tspan><tspan x="18.66" y="18">ətli </tspan><tspan class="cls-131" x="39.04" y="18">m</tspan><tspan x="50.7" y="18">ənimsə</tspan><tspan class="cls-132" x="91.86" y="18">m</tspan><tspan x="103.52" y="18">ə qabili</tspan><tspan class="cls-130" x="144" y="18">y</tspan><tspan class="cls-118" x="150.06" y="18">y</tspan><tspan x="156.04" y="18">əti </tspan><tspan x="0" y="36">Sə</tspan><tspan class="cls-133" x="13.56" y="36">r</tspan><tspan x="18" y="36">bəst </tspan><tspan class="cls-118" x="45.25" y="36">v</tspan><tspan x="51.24" y="36">ə </tspan><tspan class="cls-134" x="60.93" y="36">k</tspan><tspan x="67.46" y="36">ollekti</tspan><tspan class="cls-118" x="101.72" y="36">v</tspan><tspan x="107.7" y="36">də işlə</tspan><tspan class="cls-132" x="143.28" y="36">m</tspan><tspan x="154.94" y="36">ə </tspan><tspan class="cls-135" x="164.63" y="36">b</tspan><tspan class="cls-136" x="172.08" y="36">a</tspan><tspan x="178.69" y="36">ca</tspan><tspan class="cls-89" x="191.55" y="36">r</tspan><tspan x="195.98" y="36">ığı </tspan><tspan x="0" y="54">Ciddi, </tspan><tspan class="cls-131" x="34.55" y="54">m</tspan><tspan x="46.21" y="54">əsuli</tspan><tspan class="cls-130" x="72.04" y="54">y</tspan><tspan class="cls-118" x="78.1" y="54">y</tspan><tspan x="84.08" y="54">ətli, işgüzar </tspan></text></g></svg>