<svg xmlns="http://www.w3.org/2000/svg" xmlns:xlink="http://www.w3.org/1999/xlink" viewBox="0 0 595.28 841.89"><defs><style>.cls-1,.cls-40,.cls-70,.cls-71,.cls-80{fill:none;}.cls-2,.cls-24,.cls-28,.cls-6{fill:#e5e6e6;}.cls-3{fill:#111426;}.cls-4{fill:#1eab4b;}.cls-5{clip-path:url(#clip-path);}.cls-6{font-size:9px;}.cls-47,.cls-6,.cls-63{font-family:Montserrat-Regular, Montserrat;}.cls-7{letter-spacing:-0.01em;}.cls-8{letter-spacing:-0.01em;}.cls-9{letter-spacing:-0.02em;}.cls-10{letter-spacing:-0.02em;}.cls-11{letter-spacing:0em;}.cls-12{letter-spacing:-0.01em;}.cls-13{letter-spacing:0em;}.cls-14{letter-spacing:-0.02em;}.cls-15{letter-spacing:-0.01em;}.cls-16{letter-spacing:-0.01em;}.cls-17{letter-spacing:-0.02em;}.cls-18{letter-spacing:-0.01em;}.cls-19{letter-spacing:-0.01em;}.cls-20{letter-spacing:-0.02em;}.cls-21{letter-spacing:0.01em;}.cls-22{letter-spacing:0em;}.cls-23{letter-spacing:0em;}.cls-24{font-size:15.89px;letter-spacing:0.02em;}.cls-24,.cls-35,.cls-72{font-family:Averta-ExtraBold, Averta;font-weight:800;}.cls-25{letter-spacing:-0.02em;}.cls-26{letter-spacing:0.02em;}.cls-27{letter-spacing:-0.02em;}.cls-28{font-size:12px;font-family:Averta-Light, Averta;font-weight:300;letter-spacing:0.02em;}.cls-29{letter-spacing:0.01em;}.cls-30{letter-spacing:0.01em;}.cls-31{letter-spacing:0em;}.cls-32{letter-spacing:0.02em;}.cls-33{letter-spacing:0em;}.cls-34{letter-spacing:0em;}.cls-35,.cls-72{font-size:15.77px;fill:#11172d;}.cls-35{letter-spacing:0.02em;}.cls-36,.cls-72{letter-spacing:-0.02em;}.cls-37{letter-spacing:0.02em;}.cls-38{letter-spacing:0em;}.cls-39{letter-spacing:0.01em;}.cls-40{stroke:#141b31;stroke-width:0.4px;}.cls-40,.cls-70,.cls-71,.cls-80{stroke-miterlimit:10;}.cls-41{font-size:10.92px;font-family:Montserrat-Bold, Montserrat;font-weight:700;}.cls-41,.cls-47,.cls-63{fill:#141b31;}.cls-42{letter-spacing:-0.01em;}.cls-43{letter-spacing:0em;}.cls-44{letter-spacing:0em;}.cls-45{letter-spacing:-0.02em;}.cls-46{letter-spacing:-0.01em;}.cls-47{font-size:7.94px;}.cls-48{letter-spacing:-0.02em;}.cls-49{letter-spacing:-0.01em;}.cls-50{letter-spacing:0em;}.cls-51{letter-spacing:-0.01em;}.cls-52{letter-spacing:0em;}.cls-53{letter-spacing:-0.02em;}.cls-54{letter-spacing:-0.01em;}.cls-55{letter-spacing:0em;}.cls-56{letter-spacing:0em;}.cls-57{letter-spacing:-0.02em;}.cls-58{letter-spacing:0.01em;}.cls-59{letter-spacing:-0.01em;}.cls-60{letter-spacing:-0.01em;}.cls-61{letter-spacing:-0.01em;}.cls-62{letter-spacing:-0.02em;}.cls-63{font-size:6.61px;}.cls-64{letter-spacing:-0.02em;}.cls-65{letter-spacing:-0.01em;}.cls-66{letter-spacing:0em;}.cls-67{letter-spacing:0em;}.cls-68{letter-spacing:-0.02em;}.cls-69{letter-spacing:-0.01em;}.cls-70,.cls-71,.cls-80{stroke:#11172d;}.cls-71{stroke-dasharray:6.91 6.91;}.cls-73{letter-spacing:0em;}.cls-74{letter-spacing:-0.01em;}.cls-75{letter-spacing:0em;}.cls-76{letter-spacing:-0.02em;}.cls-77{letter-spacing:0em;}.cls-78{letter-spacing:-0.02em;}.cls-79{letter-spacing:-0.03em;}.cls-80{stroke-dasharray:7.02 7.02;}.cls-81{font-size:36.8px;font-family:Nivea;}.cls-81,.cls-84{fill:#fafaf9;}.cls-82{letter-spacing:0em;}.cls-83{letter-spacing:-0.03em;}.cls-84{font-size:13.06px;font-family:Montserrat-Medium, Montserrat;font-weight:500;}.cls-85{letter-spacing:-0.01em;}.cls-86{letter-spacing:-0.01em;}.cls-87{letter-spacing:-0.01em;}.cls-88{letter-spacing:-0.01em;}.cls-89{letter-spacing:0em;}.cls-90{letter-spacing:0em;}</style><clipPath id="clip-path"><polygon class="cls-1" points="157.4 83.57 259.63 141.25 260.8 258.62 159.74 318.32 57.5 260.64 56.34 143.27 157.4 83.57"/></clipPath></defs><g id="PRINT"><rect class="cls-2" width="595.28" height="841.89"/><polygon class="cls-3" points="266.27 581.45 158.51 662.63 48.76 581.45 49.76 733.82 158.51 815 267.27 733.82 266.27 581.45"/><polygon class="cls-3" points="440.29 142.12 462.85 186.93 595.28 108.43 595.28 72.27 440.29 142.12"/><polygon class="cls-3" points="556.33 797.46 533.24 752.92 399.69 831.86 418.04 841.89 556.33 797.46"/><path class="cls-4" d="M-.32,119.23,193.58,0h402V97.08C595.6,93.68-.32,438.69-.32,438.69Z"/><polygon class="cls-4" points="396.92 841.89 549.46 752.92 595.28 781.72 595.28 841.89 396.92 841.89"/><polygon class="cls-3" points="288.37 700.21 158.51 797.88 26.66 700.21 26.66 245.98 157.51 175.98 288.37 245.98 288.37 700.21"/><polygon class="cls-4" points="288.37 516.87 158.51 598.01 26.66 516.87 26.66 700.21 158.51 797.88 288.37 700.21 288.37 516.87"/><polygon class="cls-2" points="157.81 75.93 266.7 137.36 267.94 262.38 160.3 325.96 51.41 264.53 50.16 139.51 157.81 75.93"/><polygon class="cls-3" points="157.88 83.57 260.12 141.25 261.28 258.62 160.22 318.32 57.99 260.64 56.82 143.27 157.88 83.57"/><polygon class="cls-4" points="160.01 342.99 170.66 348.93 170.72 361.12 160.12 367.38 149.47 361.44 149.41 349.25 160.01 342.99"/><text class="cls-6" transform="translate(70.26 638.23) scale(1.1 1)">Sizin <tspan class="cls-7" x="23.42" y="0">k</tspan><tspan x="28.76" y="0">imi uğu</tspan><tspan class="cls-7" x="63.8" y="0">r</tspan><tspan x="67.34" y="0">lu bir şi</tspan><tspan class="cls-8" x="99.48" y="0">r</tspan><tspan class="cls-9" x="103.02" y="0">k</tspan><tspan x="108.24" y="0">ə</tspan><tspan class="cls-10" x="113.67" y="0">t</tspan><tspan x="117.16" y="0">də işlə</tspan><tspan class="cls-11" x="145.73" y="0">m</tspan><tspan x="155.3" y="0">ək </tspan><tspan x="0.79" y="15">is</tspan><tspan class="cls-10" x="7.61" y="15">t</tspan><tspan class="cls-12" x="11.1" y="15">ə</tspan><tspan x="16.4" y="15">yimi ça</tspan><tspan class="cls-10" x="48.4" y="15">t</tspan><tspan x="51.88" y="15">dı</tspan><tspan class="cls-8" x="60.4" y="15">r</tspan><tspan x="63.94" y="15">m</tspan><tspan class="cls-13" x="73.49" y="15">a</tspan><tspan x="78.82" y="15">q is</tspan><tspan class="cls-10" x="94.1" y="15">t</tspan><tspan class="cls-14" x="97.58" y="15">ə</tspan><tspan x="102.88" y="15">yi</tspan><tspan class="cls-15" x="110.18" y="15">r</tspan><tspan x="113.67" y="15">əm, bu</tspan><tspan class="cls-16" x="145.08" y="15">r</tspan><tspan class="cls-11" x="148.61" y="15">a</tspan><tspan x="153.94" y="15">da </tspan><tspan x="-1.62" y="30">şi</tspan><tspan class="cls-7" x="5.21" y="30">r</tspan><tspan class="cls-17" x="8.74" y="30">k</tspan><tspan x="13.96" y="30">ətini</tspan><tspan class="cls-16" x="33.99" y="30">z</tspan><tspan x="38.5" y="30">ə d</tspan><tspan class="cls-12" x="52.4" y="30">əy</tspan><tspan x="62.44" y="30">ər əl</tspan><tspan class="cls-18" x="81.7" y="30">a</tspan><tspan class="cls-14" x="86.92" y="30">v</tspan><tspan x="91.66" y="30">ə edə bilə</tspan><tspan class="cls-16" x="135.16" y="30">c</tspan><tspan class="cls-12" x="140.15" y="30">ə</tspan><tspan x="145.45" y="30">yi</tspan><tspan class="cls-11" x="152.75" y="30">m</tspan><tspan x="162.32" y="30">ə </tspan><tspan x="-2.58" y="45">şüb</tspan><tspan class="cls-11" x="13.98" y="45">h</tspan><tspan x="20.09" y="45">əm </tspan><tspan class="cls-12" x="37.43" y="45">y</tspan><tspan class="cls-10" x="42.17" y="45">ox</tspan><tspan x="52.28" y="45">du</tspan><tspan class="cls-19" x="64.44" y="45">r</tspan><tspan x="67.96" y="45">. Düşünü</tspan><tspan class="cls-15" x="108.32" y="45">r</tspan><tspan x="111.81" y="45">əm </tspan><tspan class="cls-7" x="129.16" y="45">k</tspan><tspan x="134.49" y="45">i, </tspan><tspan class="cls-7" x="141.18" y="45">C</tspan><tspan class="cls-20" x="147.58" y="45">V</tspan><tspan class="cls-21" x="153.66" y="45">-</tspan><tspan x="157.19" y="45">də </tspan><tspan x="-7.17" y="60">q</tspan><tspan class="cls-19" x="-1.07" y="60">e</tspan><tspan class="cls-12" x="4.28" y="60">y</tspan><tspan x="9.02" y="60">d e</tspan><tspan class="cls-10" x="22.92" y="60">t</tspan><tspan x="26.4" y="60">diyim </tspan><tspan class="cls-22" x="54.13" y="60">b</tspan><tspan class="cls-11" x="60.2" y="60">a</tspan><tspan x="65.53" y="60">ca</tspan><tspan class="cls-7" x="75.9" y="60">r</tspan><tspan x="79.44" y="60">ıqla</tspan><tspan class="cls-8" x="95.69" y="60">r</tspan><tspan x="99.23" y="60">ım iş </tspan><tspan class="cls-10" x="122.74" y="60">t</tspan><tspan x="126.22" y="60">ə</tspan><tspan class="cls-18" x="131.66" y="60">s</tspan><tspan x="135.97" y="60">vi</tspan><tspan class="cls-7" x="143.27" y="60">r</tspan><tspan x="146.8" y="60">i</tspan><tspan class="cls-11" x="149.22" y="60">n</tspan><tspan x="155.33" y="60">ə </tspan><tspan class="cls-12" x="163.13" y="60">v</tspan><tspan x="167.87" y="60">ə </tspan><tspan x="2.3" y="75">şi</tspan><tspan class="cls-7" x="9.13" y="75">r</tspan><tspan class="cls-17" x="12.66" y="75">k</tspan><tspan x="17.88" y="75">ətinizin pe</tspan><tspan class="cls-23" x="64.91" y="75">r</tspan><tspan x="68.49" y="75">spektivi</tspan><tspan class="cls-11" x="103.21" y="75">n</tspan><tspan x="109.32" y="75">ə u</tspan><tspan class="cls-12" x="123.17" y="75">y</tspan><tspan x="127.91" y="75">ğu</tspan><tspan class="cls-11" x="140.14" y="75">n</tspan><tspan x="146.25" y="75">du</tspan><tspan class="cls-19" x="158.41" y="75">r</tspan><tspan x="161.93" y="75">.</tspan></text><text class="cls-24" transform="translate(111.82 618.51)">H<tspan class="cls-25" x="11.64" y="0">A</tspan><tspan class="cls-26" x="22.33" y="0">QQIM</tspan><tspan class="cls-27" x="67.93" y="0">D</tspan><tspan class="cls-26" x="78.95" y="0">A</tspan></text><path class="cls-2" d="M154.75,350.52l0,0a6.38,6.38,0,0,0,.53-.51l.06-.06a4,4,0,0,1,.29-.29,1,1,0,0,1,1.48,0l1.53,1.53a1,1,0,0,1,.34.72,1,1,0,0,1-.34.73l-.95.95a.17.17,0,0,0-.06.11.14.14,0,0,0,0,.07v0a2.11,2.11,0,0,1,.16.3,3.18,3.18,0,0,0,.17.3,9.45,9.45,0,0,0,2.15,2.36h0a5.43,5.43,0,0,0,1.34.82h0c.1,0,.12,0,.18,0h0c.21-.23.43-.45.68-.7l.17-.17.07-.07a1,1,0,0,1,1.49,0l.76.75.13.14.14.13c.19.18.35.34.5.51h0a1,1,0,0,1,.32.72,1.07,1.07,0,0,1-.32.73h0l-.94,1a1.79,1.79,0,0,1-1.11.51,4.32,4.32,0,0,1-1.92-.34,11.71,11.71,0,0,1-3.47-2.08,12.91,12.91,0,0,1-3.32-4.25,6.33,6.33,0,0,1-.69-2.34.76.76,0,0,1,0-.15A1.78,1.78,0,0,1,154.75,350.52Z"/><polygon class="cls-4" points="160.01 420.94 170.66 426.88 170.72 439.07 160.12 445.33 149.47 439.4 149.41 427.2 160.01 420.94"/><polygon class="cls-4" points="160.01 498.04 170.66 503.97 170.72 516.17 160.12 522.42 149.47 516.49 149.41 504.3 160.01 498.04"/><text class="cls-28" transform="translate(106.82 389.69)">+9<tspan class="cls-29" x="14.46" y="0">9</tspan><tspan x="21.49" y="0">4xx xxx xx xx</tspan></text><text class="cls-28" transform="translate(90.67 463.15)">cvhazirlama@gmai<tspan class="cls-30" x="108.7" y="0">l</tspan><tspan class="cls-31" x="111.58" y="0">.</tspan><tspan x="114.29" y="0">com</tspan></text><text class="cls-28" transform="translate(92.57 538.56)">Bakı <tspan class="cls-32" x="28.21" y="0">ş</tspan><tspan x="33.63" y="0">əhəri, A</tspan><tspan class="cls-33" x="76.26" y="0">z</tspan><tspan x="81.76" y="0">ərba</tspan><tspan class="cls-34" x="107.95" y="0">y</tspan><tspan x="114.17" y="0">can</tspan></text><path class="cls-2" d="M165.17,429.73v0a.06.06,0,0,0,0,0,0,0,0,0,0,0,0s0,0,0,0l0,0,0,0h0l0,0,0,0,0,0,0,0H155l0,0,0,0,0,0,0,0h0l0,0v0s0,0,0,0v0s0,0,0,0v7a.38.38,0,0,0,.39.39h9.64a.39.39,0,0,0,.4-.39v-6.92Zm-1.46.42L160,433.34l-3.74-3.19Zm-4,4a.38.38,0,0,0,.25.09.43.43,0,0,0,.26-.09"/><path class="cls-2" d="M160.07,504.64a5.59,5.59,0,1,0,5.58,5.59A5.59,5.59,0,0,0,160.07,504.64Zm4.71,5.17h-1.35a7.34,7.34,0,0,0-1.08-3.73A4.74,4.74,0,0,1,164.78,509.81Zm-5.14-4.25v4.25h-2.1C157.65,507.69,158.54,505.93,159.64,505.56Zm0,5.09v4.25c-1.1-.36-2-2.13-2.1-4.25Zm.85,4.25v-4.25h2.1C162.48,512.77,161.6,514.54,160.49,514.9Zm0-5.09v-4.25c1.11.37,2,2.13,2.1,4.25Zm-2.71-3.73a7.34,7.34,0,0,0-1.08,3.73h-1.35A4.76,4.76,0,0,1,157.78,506.08Zm-2.43,4.57h1.35a7.34,7.34,0,0,0,1.08,3.73A4.76,4.76,0,0,1,155.35,510.65Zm7,3.73a7.34,7.34,0,0,0,1.08-3.73h1.35A4.74,4.74,0,0,1,162.35,514.38Z"/><text class="cls-35" transform="translate(304.53 295.45)">İŞ <tspan class="cls-36" x="18.52" y="0">T</tspan><tspan class="cls-37" x="27.41" y="0">ƏC</tspan><tspan class="cls-38" x="50.54" y="0">R</tspan><tspan x="60.75" y="0">Ü</tspan><tspan class="cls-39" x="72.06" y="0">B</tspan><tspan x="82.18" y="0">ƏSİ</tspan></text><line class="cls-40" x1="309.07" y1="313.62" x2="309.07" y2="517.84"/><circle class="cls-4" cx="309.07" cy="322.42" r="4.54"/><circle class="cls-4" cx="309.07" cy="436.56" r="4.54"/><line class="cls-40" x1="309.07" y1="419.22" x2="576.3" y2="419.22"/><line class="cls-40" x1="309.07" y1="517.84" x2="576.3" y2="517.84"/><text class="cls-41" transform="translate(333.7 335.25)">A<tspan class="cls-42" x="8.36" y="0">r</tspan><tspan class="cls-43" x="12.99" y="0">az Ma</tspan><tspan class="cls-44" x="45.9" y="0">r</tspan><tspan class="cls-45" x="50.56" y="0">k</tspan><tspan x="57.51" y="0">et</tspan><tspan class="cls-46" x="0" y="13.89">K</tspan><tspan x="7.95" y="13.89">assir</tspan></text><text class="cls-47" transform="translate(334.75 362.31)">- Malın d<tspan class="cls-48" x="34.48" y="0">əy</tspan><tspan x="43.34" y="0">ə</tspan><tspan class="cls-49" x="48.14" y="0">r</tspan><tspan x="51.26" y="0">inin </tspan><tspan class="cls-50" x="68.35" y="0">h</tspan><tspan x="73.74" y="0">esablanması </tspan><tspan class="cls-48" x="125.88" y="0">v</tspan><tspan x="130.06" y="0">ə </tspan><tspan class="cls-51" x="136.94" y="0">k</tspan><tspan x="141.63" y="0">assa ə</tspan><tspan class="cls-50" x="165.63" y="0">m</tspan><tspan x="174.07" y="0">əli</tspan><tspan class="cls-52" x="183.14" y="0">y</tspan><tspan class="cls-53" x="187.4" y="0">y</tspan><tspan x="191.58" y="0">atının </tspan><tspan class="cls-48" x="216.58" y="0">y</tspan><tspan x="220.76" y="0">e</tspan><tspan class="cls-49" x="225.56" y="0">r</tspan><tspan x="228.68" y="0">i</tspan><tspan class="cls-50" x="230.81" y="0">n</tspan><tspan x="236.2" y="0">ə </tspan><tspan class="cls-48" x="0" y="9.92">y</tspan><tspan x="4.18" y="9.92">eti</tspan><tspan class="cls-49" x="14.34" y="9.92">r</tspan><tspan x="17.46" y="9.92">il</tspan><tspan class="cls-50" x="21.73" y="9.92">m</tspan><tspan x="30.16" y="9.92">əsi;</tspan><tspan x="0" y="19.85">- </tspan><tspan class="cls-54" x="5.11" y="19.85">K</tspan><tspan x="10.65" y="19.85">assa </tspan><tspan class="cls-55" x="29.86" y="19.85">h</tspan><tspan x="35.25" y="19.85">esa</tspan><tspan class="cls-56" x="48.6" y="19.85">b</tspan><tspan x="53.96" y="19.85">atını </tspan><tspan class="cls-57" x="73.59" y="19.85">t</tspan><tspan x="76.67" y="19.85">ə</tspan><tspan class="cls-58" x="81.46" y="19.85">r</tspan><tspan x="84.76" y="19.85">tib et</tspan><tspan class="cls-50" x="105.6" y="19.85">m</tspan><tspan x="114.04" y="19.85">ək;</tspan><tspan x="0" y="29.77">- Malın alınması zamanı s</tspan><tspan class="cls-59" x="99.95" y="29.77">a</tspan><tspan x="104.55" y="29.77">yının, </tspan><tspan class="cls-60" x="127.64" y="29.77">ç</tspan><tspan x="132.03" y="29.77">eşidinin </tspan><tspan class="cls-61" x="165.32" y="29.77">y</tspan><tspan class="cls-62" x="169.51" y="29.77">o</tspan><tspan x="174.33" y="29.77">xlanılmas</tspan></text><text class="cls-63" transform="translate(333.7 324.69)">05<tspan class="cls-64" x="8.12" y="0">/</tspan><tspan class="cls-65" x="10.21" y="0">0</tspan><tspan x="14.52" y="0">3/</tspan><tspan class="cls-66" x="20.46" y="0">2</tspan><tspan class="cls-67" x="24.19" y="0">0</tspan><tspan x="28.56" y="0">19–</tspan><tspan class="cls-68" x="38.28" y="0">P</tspan><tspan class="cls-69" x="42.88" y="0">r</tspan><tspan x="45.45" y="0">esent</tspan></text><text class="cls-41" transform="translate(333.7 447.13)">A<tspan class="cls-42" x="8.36" y="0">r</tspan><tspan class="cls-43" x="12.99" y="0">az Ma</tspan><tspan class="cls-44" x="45.9" y="0">r</tspan><tspan class="cls-45" x="50.56" y="0">k</tspan><tspan x="57.51" y="0">et</tspan><tspan class="cls-46" x="0" y="13.89">K</tspan><tspan x="7.95" y="13.89">assir</tspan></text><text class="cls-47" transform="translate(334.75 474.19)">- Malın d<tspan class="cls-48" x="34.48" y="0">əy</tspan><tspan x="43.34" y="0">ə</tspan><tspan class="cls-49" x="48.14" y="0">r</tspan><tspan x="51.26" y="0">inin </tspan><tspan class="cls-50" x="68.35" y="0">h</tspan><tspan x="73.74" y="0">esablanması </tspan><tspan class="cls-48" x="125.88" y="0">v</tspan><tspan x="130.06" y="0">ə </tspan><tspan class="cls-51" x="136.94" y="0">k</tspan><tspan x="141.63" y="0">assa ə</tspan><tspan class="cls-50" x="165.63" y="0">m</tspan><tspan x="174.07" y="0">əli</tspan><tspan class="cls-52" x="183.14" y="0">y</tspan><tspan class="cls-53" x="187.4" y="0">y</tspan><tspan x="191.58" y="0">atının </tspan><tspan class="cls-48" x="216.58" y="0">y</tspan><tspan x="220.76" y="0">e</tspan><tspan class="cls-49" x="225.56" y="0">r</tspan><tspan x="228.68" y="0">i</tspan><tspan class="cls-50" x="230.81" y="0">n</tspan><tspan x="236.2" y="0">ə </tspan><tspan class="cls-48" x="0" y="9.92">y</tspan><tspan x="4.18" y="9.92">eti</tspan><tspan class="cls-49" x="14.34" y="9.92">r</tspan><tspan x="17.46" y="9.92">il</tspan><tspan class="cls-50" x="21.73" y="9.92">m</tspan><tspan x="30.16" y="9.92">əsi;</tspan><tspan x="0" y="19.85">- </tspan><tspan class="cls-54" x="5.11" y="19.85">K</tspan><tspan x="10.65" y="19.85">assa </tspan><tspan class="cls-55" x="29.86" y="19.85">h</tspan><tspan x="35.25" y="19.85">esa</tspan><tspan class="cls-56" x="48.6" y="19.85">b</tspan><tspan x="53.96" y="19.85">atını </tspan><tspan class="cls-57" x="73.59" y="19.85">t</tspan><tspan x="76.67" y="19.85">ə</tspan><tspan class="cls-58" x="81.46" y="19.85">r</tspan><tspan x="84.76" y="19.85">tib et</tspan><tspan class="cls-50" x="105.6" y="19.85">m</tspan><tspan x="114.04" y="19.85">ək;</tspan><tspan x="0" y="29.77">- Malın alınması zamanı s</tspan><tspan class="cls-59" x="99.95" y="29.77">a</tspan><tspan x="104.55" y="29.77">yının, </tspan><tspan class="cls-60" x="127.64" y="29.77">ç</tspan><tspan x="132.03" y="29.77">eşidinin </tspan><tspan class="cls-61" x="165.32" y="29.77">y</tspan><tspan class="cls-62" x="169.51" y="29.77">o</tspan><tspan x="174.33" y="29.77">xlanılmas</tspan></text><text class="cls-63" transform="translate(333.7 436.56)">05<tspan class="cls-64" x="8.12" y="0">/</tspan><tspan class="cls-65" x="10.21" y="0">0</tspan><tspan x="14.52" y="0">3/</tspan><tspan class="cls-66" x="20.46" y="0">2</tspan><tspan class="cls-67" x="24.19" y="0">0</tspan><tspan x="28.56" y="0">19–</tspan><tspan class="cls-68" x="38.28" y="0">P</tspan><tspan class="cls-69" x="42.88" y="0">r</tspan><tspan x="45.45" y="0">esent</tspan></text><line class="cls-70" x1="304.53" y1="305.98" x2="308.03" y2="305.98"/><line class="cls-71" x1="314.94" y1="305.98" x2="574.08" y2="305.98"/><line class="cls-70" x1="577.53" y1="305.98" x2="581.03" y2="305.98"/><line class="cls-40" x1="313.81" y1="630.48" x2="581.03" y2="630.48"/><text class="cls-72" transform="translate(313.81 556.11)">T<tspan class="cls-37" x="8.89" y="0">ƏHSİL</tspan></text><line class="cls-40" x1="313.81" y1="574.28" x2="313.81" y2="630.48"/><circle class="cls-4" cx="313.81" cy="583.73" r="4.54"/><text class="cls-41" transform="translate(338.44 600.21)">Ba<tspan class="cls-73" x="15.08" y="0">k</tspan><tspan class="cls-43" x="22.24" y="0">ı D</tspan><tspan class="cls-74" x="37.63" y="0">ö</tspan><tspan class="cls-75" x="44.62" y="0">vlət Uni</tspan><tspan class="cls-76" x="88.59" y="0">v</tspan><tspan class="cls-43" x="94.95" y="0">e</tspan><tspan class="cls-77" x="101.84" y="0">r</tspan><tspan x="106.52" y="0">si</tspan><tspan class="cls-78" x="115.6" y="0">t</tspan><tspan x="120.16" y="0">eti</tspan></text><text class="cls-47" transform="translate(339.49 614.16)"><tspan class="cls-79">T</tspan><tspan x="4.33" y="0">a</tspan><tspan class="cls-49" x="9.01" y="0">r</tspan><tspan x="12.13" y="0">ix </tspan><tspan class="cls-51" x="20.58" y="0">f</tspan><tspan x="23.19" y="0">a</tspan><tspan class="cls-59" x="27.88" y="0">k</tspan><tspan x="32.57" y="0">ü</tspan><tspan class="cls-55" x="37.91" y="0">l</tspan><tspan class="cls-62" x="40.06" y="0">t</tspan><tspan x="43.14" y="0">əsi</tspan></text><text class="cls-63" transform="translate(338.44 585.34)">05<tspan class="cls-64" x="8.12" y="0">/</tspan><tspan class="cls-65" x="10.21" y="0">0</tspan><tspan x="14.52" y="0">3/</tspan><tspan class="cls-66" x="20.46" y="0">2</tspan><tspan class="cls-67" x="24.19" y="0">0</tspan><tspan x="28.56" y="0">19–</tspan></text><line class="cls-40" x1="313.81" y1="715.71" x2="581.03" y2="715.71"/><line class="cls-40" x1="313.81" y1="627.82" x2="313.81" y2="715.71"/><circle class="cls-4" cx="313.81" cy="657.28" r="4.54"/><text class="cls-41" transform="translate(338.44 674.37)">Ba<tspan class="cls-73" x="15.08" y="0">k</tspan><tspan class="cls-43" x="22.24" y="0">ı D</tspan><tspan class="cls-74" x="37.63" y="0">ö</tspan><tspan class="cls-75" x="44.62" y="0">vlət Uni</tspan><tspan class="cls-76" x="88.59" y="0">v</tspan><tspan class="cls-43" x="94.95" y="0">e</tspan><tspan class="cls-77" x="101.84" y="0">r</tspan><tspan x="106.52" y="0">si</tspan><tspan class="cls-78" x="115.6" y="0">t</tspan><tspan x="120.16" y="0">eti</tspan></text><text class="cls-47" transform="translate(339.49 688.32)"><tspan class="cls-79">T</tspan><tspan x="4.33" y="0">a</tspan><tspan class="cls-49" x="9.01" y="0">r</tspan><tspan x="12.13" y="0">ix </tspan><tspan class="cls-51" x="20.58" y="0">f</tspan><tspan x="23.19" y="0">a</tspan><tspan class="cls-59" x="27.88" y="0">k</tspan><tspan x="32.57" y="0">ü</tspan><tspan class="cls-55" x="37.91" y="0">l</tspan><tspan class="cls-62" x="40.06" y="0">t</tspan><tspan x="43.14" y="0">əsi</tspan></text><text class="cls-63" transform="translate(338.44 659.51)">05<tspan class="cls-64" x="8.12" y="0">/</tspan><tspan class="cls-65" x="10.21" y="0">0</tspan><tspan x="14.52" y="0">3/</tspan><tspan class="cls-66" x="20.46" y="0">2</tspan><tspan class="cls-67" x="24.19" y="0">0</tspan><tspan x="28.56" y="0">19–</tspan></text><line class="cls-70" x1="313.26" y1="562.26" x2="316.76" y2="562.26"/><line class="cls-80" x1="323.78" y1="562.26" x2="572.96" y2="562.26"/><line class="cls-70" x1="576.47" y1="562.26" x2="579.97" y2="562.26"/><text class="cls-81" transform="translate(277.24 61.41)">A<tspan class="cls-82" x="24.18" y="0">N</tspan><tspan x="52.51" y="0">AR</tspan><tspan x="0" y="44.97">QASIM</tspan><tspan class="cls-83" x="114.14" y="44.97">O</tspan><tspan x="141.85" y="44.97">V</tspan></text><text class="cls-84" transform="translate(277.24 133.23)">Doğum ta<tspan class="cls-85" x="67.48" y="0">r</tspan><tspan x="72.74" y="0">ixi: 15</tspan><tspan class="cls-86" x="106.05" y="0">.</tspan><tspan x="108.84" y="0">1</tspan><tspan class="cls-87" x="113.67" y="0">0</tspan><tspan class="cls-88" x="122.23" y="0">.</tspan><tspan class="cls-89" x="125.02" y="0">19</tspan><tspan class="cls-90" x="137.92" y="0">9</tspan><tspan x="145.94" y="0">2</tspan></text></g></svg>