<svg xmlns="http://www.w3.org/2000/svg" xmlns:xlink="http://www.w3.org/1999/xlink" viewBox="0 0 595.28 841.89"><defs><style>.cls-1,.cls-38,.cls-70,.cls-93{fill:none;}.cls-2{clip-path:url(#clip-path);}.cls-109,.cls-12,.cls-3,.cls-34,.cls-68,.cls-7,.cls-71,.cls-80,.cls-85,.cls-91,.cls-96{fill:#fff;}.cls-119,.cls-4{fill:#242a42;}.cls-105,.cls-116,.cls-5{fill:#cb3842;}.cls-6{fill:#f9f9fa;stroke:#cb3842;stroke-width:8px;}.cls-38,.cls-6,.cls-70,.cls-93{stroke-miterlimit:10;}.cls-7{font-size:35px;}.cls-39,.cls-7,.cls-71{font-family:Montserrat-Bold, Montserrat;}.cls-119,.cls-39,.cls-7,.cls-71{font-weight:700;}.cls-8{letter-spacing:-0.04em;}.cls-9{letter-spacing:-0.01em;}.cls-10{letter-spacing:-0.01em;}.cls-11{letter-spacing:-0.02em;}.cls-12{font-size:14px;font-family:Montserrat-Light, Montserrat;}.cls-12,.cls-20,.cls-25,.cls-30{font-weight:300;}.cls-13{letter-spacing:-0.01em;}.cls-14{letter-spacing:-0.01em;}.cls-15{letter-spacing:0em;}.cls-16{letter-spacing:0em;}.cls-17,.cls-23{font-size:11.75px;fill:#231f20;font-family:Averta-Semibold, Averta;}.cls-105,.cls-116,.cls-17,.cls-23{font-weight:600;}.cls-17{letter-spacing:-0.07em;}.cls-18,.cls-20,.cls-23{letter-spacing:0.02em;}.cls-19{letter-spacing:0.01em;}.cls-20,.cls-25,.cls-30{font-family:Averta-Light, Averta;}.cls-21{letter-spacing:0.01em;}.cls-22,.cls-25{letter-spacing:0.02em;}.cls-24{letter-spacing:0.01em;}.cls-26{letter-spacing:0.01em;}.cls-27{letter-spacing:0em;}.cls-28{letter-spacing:0em;}.cls-29{letter-spacing:-0.01em;}.cls-31{letter-spacing:0.02em;}.cls-32{letter-spacing:0em;}.cls-33{letter-spacing:0em;}.cls-34,.cls-68,.cls-91{font-size:15.89px;font-family:Averta-ExtraBold, Averta;font-weight:800;}.cls-34,.cls-69{letter-spacing:0.02em;}.cls-35,.cls-68{letter-spacing:-0.02em;}.cls-36{letter-spacing:0em;}.cls-37{letter-spacing:0.01em;}.cls-38{stroke:#141b31;stroke-width:0.4px;}.cls-39{font-size:11.49px;}.cls-39,.cls-45,.cls-60{fill:#141b31;}.cls-40{letter-spacing:-0.01em;}.cls-41{letter-spacing:-0.01em;}.cls-42{letter-spacing:-0.01em;}.cls-43{letter-spacing:-0.02em;}.cls-44{letter-spacing:-0.02em;}.cls-45{font-size:8.36px;}.cls-45,.cls-60,.cls-80,.cls-85{font-family:Montserrat-Regular, Montserrat;}.cls-46{letter-spacing:-0.01em;}.cls-47{letter-spacing:-0.01em;}.cls-48{letter-spacing:0em;}.cls-49{letter-spacing:-0.01em;}.cls-50{letter-spacing:0em;}.cls-51{letter-spacing:-0.02em;}.cls-52{letter-spacing:-0.02em;}.cls-53{letter-spacing:-0.01em;}.cls-54{letter-spacing:-0.01em;}.cls-55{letter-spacing:0em;}.cls-56{letter-spacing:-0.02em;}.cls-57{letter-spacing:0.02em;}.cls-58{letter-spacing:-0.01em;}.cls-59{letter-spacing:-0.02em;}.cls-60{font-size:6.96px;}.cls-61{letter-spacing:-0.02em;}.cls-62{letter-spacing:-0.01em;}.cls-63{letter-spacing:0em;}.cls-64{letter-spacing:0em;}.cls-65{letter-spacing:-0.02em;}.cls-66{letter-spacing:-0.01em;}.cls-67{letter-spacing:0em;}.cls-70,.cls-93{stroke:#fff;}.cls-70{stroke-width:0.5px;}.cls-71{font-size:13.58px;}.cls-72{letter-spacing:0em;}.cls-73{letter-spacing:-0.01em;}.cls-74{letter-spacing:0em;}.cls-75{letter-spacing:-0.01em;}.cls-76{letter-spacing:-0.01em;}.cls-77{letter-spacing:-0.02em;}.cls-78{letter-spacing:0em;}.cls-79{letter-spacing:-0.02em;}.cls-80{font-size:9.88px;}.cls-81{letter-spacing:-0.01em;}.cls-82{letter-spacing:-0.02em;}.cls-83{letter-spacing:0em;}.cls-84{letter-spacing:-0.02em;}.cls-85{font-size:8.23px;}.cls-86{letter-spacing:-0.02em;}.cls-87{letter-spacing:-0.01em;}.cls-88{letter-spacing:0em;}.cls-89{letter-spacing:0em;}.cls-90{letter-spacing:0em;}.cls-91{letter-spacing:0.02em;}.cls-92{letter-spacing:-0.02em;}.cls-94{letter-spacing:0em;}.cls-95{letter-spacing:0.02em;}.cls-96{font-size:10.23px;}.cls-109,.cls-96{font-family:Montserrat-Medium, Montserrat;font-weight:500;}.cls-97{letter-spacing:-0.01em;}.cls-98{letter-spacing:-0.01em;}.cls-99{letter-spacing:-0.02em;}.cls-100{letter-spacing:-0.01em;}.cls-101{fill:#e5e5e5;}.cls-102{letter-spacing:0em;}.cls-103{letter-spacing:0em;}.cls-104{fill:#fafbfc;}.cls-105{font-size:6.62px;}.cls-105,.cls-116{font-family:Montserrat-SemiBold, Montserrat;}.cls-106{letter-spacing:-0.02em;}.cls-107{letter-spacing:-0.01em;}.cls-108{letter-spacing:0em;}.cls-109{font-size:10.14px;}.cls-110{letter-spacing:-0.06em;}.cls-111{letter-spacing:-0.01em;}.cls-112{letter-spacing:-0.01em;}.cls-113{letter-spacing:-0.02em;}.cls-114{letter-spacing:-0.01em;}.cls-115{letter-spacing:-0.02em;}.cls-116{font-size:6.56px;}.cls-117{letter-spacing:-0.02em;}.cls-118{letter-spacing:-0.01em;}.cls-119{font-size:24.65px;font-family:Averta-Bold, Averta;letter-spacing:0.05em;}.cls-120{letter-spacing:0.05em;}.cls-121{clip-path:url(#clip-path-2);}.cls-122{clip-path:url(#clip-path-3);}</style><clipPath id="clip-path"><rect class="cls-1" x="801.09" y="188.92" width="226.08" height="158.45"/></clipPath><clipPath id="clip-path-2"><circle class="cls-1" cx="118.99" cy="144.82" r="82.68"/></clipPath><clipPath id="clip-path-3"><circle class="cls-1" cx="-588.14" cy="114.96" r="93.29"/></clipPath></defs><g id="PRINT"><rect class="cls-3" width="595.28" height="841.89"/><rect class="cls-4" width="237.99" height="841.89"/><rect class="cls-3" y="599.52" width="595.46" height="31.96"/><rect class="cls-5" x="180.23" y="83.22" width="375.82" height="124.77"/><circle class="cls-6" cx="118.99" cy="145.27" r="87.45"/><rect class="cls-4" x="580.56" y="83.22" width="14.72" height="124.77"/><rect class="cls-5" x="237.99" y="631.48" width="357.29" height="210.41"/><rect class="cls-4" x="296.87" y="596.11" width="240.66" height="35.37"/><rect class="cls-5" x="237.99" y="314.77" width="31.29" height="229.01"/><text class="cls-7" transform="translate(276.68 123.68)">MƏMMƏD<tspan x="0" y="45">İSM</tspan><tspan class="cls-8" x="67.23" y="45">A</tspan><tspan class="cls-9" x="92.54" y="45">Y</tspan><tspan x="115.95" y="45">I</tspan><tspan class="cls-10" x="127.43" y="45">L</tspan><tspan class="cls-11" x="148.15" y="45">O</tspan><tspan x="176.89" y="45">V</tspan></text><text class="cls-12" transform="translate(278.04 196.78)">Doğum ta<tspan class="cls-13" x="71.39" y="0">r</tspan><tspan x="76.77" y="0">ixi: 15</tspan><tspan class="cls-14" x="110.5" y="0">.</tspan><tspan class="cls-15" x="113.15" y="0">1</tspan><tspan class="cls-14" x="118.09" y="0">0.</tspan><tspan x="129.79" y="0">19</tspan><tspan class="cls-16" x="143.16" y="0">9</tspan><tspan x="151.58" y="0">2</tspan></text><path class="cls-5" d="M252.75,222.8l0,0a10,10,0,0,0,.87-.85l.11-.1c.16-.17.31-.33.48-.48a1.64,1.64,0,0,1,2.48,0l2.54,2.55a1.63,1.63,0,0,1,.57,1.2,1.74,1.74,0,0,1-.57,1.22l-1.58,1.58a.27.27,0,0,0-.1.18.22.22,0,0,0,0,.11l0,0c.09.15.18.32.27.5a3.06,3.06,0,0,0,.27.5,15.78,15.78,0,0,0,3.58,3.93v0a9.56,9.56,0,0,0,2.22,1.36h0c.15.05.19.05.3-.06h0c.35-.4.71-.76,1.14-1.18l.27-.27.13-.12a1.61,1.61,0,0,1,2.48,0l1.25,1.25.23.23.22.21c.32.31.58.57.85.85h0a1.69,1.69,0,0,1,.54,1.2,1.77,1.77,0,0,1-.53,1.21h0l-1.57,1.58a2.91,2.91,0,0,1-1.84.86,7.26,7.26,0,0,1-3.21-.57,19.73,19.73,0,0,1-5.76-3.46,21.37,21.37,0,0,1-5.54-7.08,10.94,10.94,0,0,1-1.15-3.89c0-.08,0-.17,0-.25A3,3,0,0,1,252.75,222.8Z"/><text class="cls-17" transform="translate(286.2 227.01)">T<tspan class="cls-18" x="6.1" y="0">el</tspan><tspan class="cls-19" x="16.39" y="0">ef</tspan><tspan class="cls-18" x="27.28" y="0">on:</tspan><tspan class="cls-20"><tspan x="0" y="14.1">+9</tspan><tspan class="cls-21" x="14.15" y="14.1">9</tspan><tspan class="cls-22" x="21.04" y="14.1">4xx xxx xx xx</tspan></tspan></text><path class="cls-5" d="M272.08,269.71v-.08s0-.05,0-.08a.64.64,0,0,1,0-.07l0-.07,0-.06a.43.43,0,0,0,0-.07l0,0,0,0-.06-.06-.05-.05-.07,0-.06,0-.07,0-.08,0H252.16l-.08,0-.07,0-.06,0-.07,0s0,0,0,.05a.34.34,0,0,0-.06.06l0,0,0,0-.05.07,0,.06,0,.07a.25.25,0,0,0,0,.07s0,.05,0,.08a.19.19,0,0,1,0,.08v13.61a.78.78,0,0,0,.78.78h19a.78.78,0,0,0,.78-.78V269.75S272.08,269.72,272.08,269.71Zm-2.89.82-7.37,6.28-7.37-6.28Zm-7.87,7.9a.77.77,0,0,0,.5.18.81.81,0,0,0,.51-.18"/><text class="cls-23" transform="translate(286.2 272.44)">Elekt<tspan class="cls-24" x="28.72" y="0">r</tspan><tspan class="cls-22" x="33.18" y="0">on poçt:</tspan><tspan class="cls-25"><tspan x="0" y="14.1">cvhazirlama@gmai</tspan><tspan class="cls-26" x="106.4" y="14.1">l</tspan><tspan class="cls-27" x="109.22" y="14.1">.</tspan><tspan x="111.88" y="14.1">com</tspan></tspan></text><path class="cls-5" d="M429,220.58a9.83,9.83,0,1,0,9.81,9.83A9.83,9.83,0,0,0,429,220.58Zm8.29,9.08h-2.37a13,13,0,0,0-1.9-6.55A8.35,8.35,0,0,1,437.31,229.66Zm-9-7.46v7.46h-3.68C424.77,225.94,426.33,222.84,428.27,222.2Zm0,9v7.47c-1.94-.64-3.5-3.74-3.68-7.47Zm1.49,7.47v-7.47h3.69C433.27,234.88,431.71,238,429.76,238.62Zm0-9V222.2c1.95.64,3.51,3.74,3.69,7.46ZM425,223.11a13,13,0,0,0-1.9,6.55h-2.37A8.35,8.35,0,0,1,425,223.11Zm-4.27,8h2.37a13,13,0,0,0,1.9,6.55A8.32,8.32,0,0,1,420.73,231.15ZM433,237.7a13,13,0,0,0,1.9-6.55h2.37A8.32,8.32,0,0,1,433,237.7Z"/><text class="cls-23" transform="translate(456.3 229.66)">Ü<tspan class="cls-28" x="8.7" y="0">n</tspan><tspan class="cls-29" x="15.7" y="0">v</tspan><tspan x="21.89" y="0">an:</tspan><tspan class="cls-30"><tspan x="0" y="14.1">Bakı </tspan><tspan class="cls-31" x="27.62" y="14.1">ş</tspan><tspan x="32.92" y="14.1">əhəri, A</tspan><tspan class="cls-32" x="74.65" y="14.1">z</tspan><tspan class="cls-22" x="80.03" y="14.1">ərba</tspan><tspan class="cls-33" x="105.67" y="14.1">y</tspan><tspan class="cls-22" x="111.76" y="14.1">can</tspan></tspan></text><text class="cls-34" transform="translate(259.63 489.79) rotate(-90)">İŞ <tspan class="cls-35" x="18.66" y="0">T</tspan><tspan x="27.62" y="0">ƏC</tspan><tspan class="cls-36" x="50.93" y="0">R</tspan><tspan x="61.22" y="0">Ü</tspan><tspan class="cls-37" x="72.62" y="0">B</tspan><tspan x="82.82" y="0">ƏSİ</tspan></text><line class="cls-38" x1="289" y1="332.42" x2="289" y2="547.38"/><circle class="cls-5" cx="289" cy="341.67" r="4.77"/><circle class="cls-5" cx="289" cy="461.83" r="4.77"/><line class="cls-38" x1="289" y1="443.57" x2="570.29" y2="443.57"/><line class="cls-38" x1="289" y1="547.38" x2="570.29" y2="547.38"/><text class="cls-39" transform="translate(314.93 355.19)">SO<tspan class="cls-40" x="17.03" y="0">C</tspan><tspan x="25.29" y="0">AR</tspan><tspan class="cls-41" x="0" y="14.62">K</tspan><tspan x="8.39" y="14.62">i</tspan><tspan class="cls-42" x="11.84" y="14.62">m</tspan><tspan class="cls-43" x="23.78" y="14.62">y</tspan><tspan x="30.45" y="14.62">a mü</tspan><tspan class="cls-44" x="60.73" y="14.62">təx</tspan><tspan x="79.23" y="14.62">əssisi</tspan></text><text class="cls-45" transform="translate(316.04 383.67)">- Malın d<tspan class="cls-46" x="36.3" y="0">əy</tspan><tspan x="45.62" y="0">ə</tspan><tspan class="cls-47" x="50.67" y="0">r</tspan><tspan x="53.95" y="0">inin </tspan><tspan class="cls-48" x="71.95" y="0">h</tspan><tspan x="77.62" y="0">esablanması </tspan><tspan class="cls-46" x="132.5" y="0">v</tspan><tspan x="136.91" y="0">ə </tspan><tspan class="cls-49" x="144.14" y="0">k</tspan><tspan x="149.08" y="0">assa ə</tspan><tspan class="cls-48" x="174.35" y="0">m</tspan><tspan x="183.23" y="0">əli</tspan><tspan class="cls-50" x="192.77" y="0">y</tspan><tspan class="cls-51" x="197.26" y="0">y</tspan><tspan x="201.65" y="0">atının </tspan><tspan class="cls-52" x="227.97" y="0">y</tspan><tspan x="232.38" y="0">e</tspan><tspan class="cls-47" x="237.42" y="0">r</tspan><tspan x="240.71" y="0">i</tspan><tspan class="cls-48" x="242.96" y="0">n</tspan><tspan x="248.63" y="0">ə </tspan><tspan class="cls-46" x="0" y="10.44">y</tspan><tspan x="4.4" y="10.44">eti</tspan><tspan class="cls-53" x="15.09" y="10.44">r</tspan><tspan x="18.37" y="10.44">il</tspan><tspan class="cls-48" x="22.87" y="10.44">m</tspan><tspan x="31.75" y="10.44">əsi;</tspan><tspan x="0" y="20.89">- </tspan><tspan class="cls-54" x="5.38" y="20.89">K</tspan><tspan x="11.2" y="20.89">assa </tspan><tspan class="cls-48" x="31.42" y="20.89">h</tspan><tspan x="37.1" y="20.89">esa</tspan><tspan class="cls-55" x="51.16" y="20.89">b</tspan><tspan x="56.8" y="20.89">atını </tspan><tspan class="cls-56" x="77.46" y="20.89">t</tspan><tspan x="80.7" y="20.89">ə</tspan><tspan class="cls-57" x="85.75" y="20.89">r</tspan><tspan x="89.22" y="20.89">tib et</tspan><tspan class="cls-48" x="111.16" y="20.89">m</tspan><tspan x="120.04" y="20.89">ək;</tspan><tspan x="0" y="31.33">- Malın alınması zamanı s</tspan><tspan class="cls-49" x="105.21" y="31.33">a</tspan><tspan x="110.05" y="31.33">yının, </tspan><tspan class="cls-58" x="134.35" y="31.33">ç</tspan><tspan x="138.98" y="31.33">eşidinin </tspan><tspan class="cls-52" x="174.02" y="31.33">y</tspan><tspan class="cls-59" x="178.43" y="31.33">o</tspan><tspan x="183.51" y="31.33">xlanılmas</tspan></text><text class="cls-60" transform="translate(314.93 341.68)">05<tspan class="cls-61" x="8.55" y="0">/</tspan><tspan class="cls-62" x="10.74" y="0">0</tspan><tspan x="15.28" y="0">3/</tspan><tspan class="cls-63" x="21.54" y="0">2</tspan><tspan class="cls-64" x="25.47" y="0">0</tspan><tspan x="30.06" y="0">19–</tspan><tspan class="cls-65" x="40.3" y="0">P</tspan><tspan class="cls-66" x="45.13" y="0">r</tspan><tspan class="cls-67" x="47.84" y="0">esent</tspan></text><text class="cls-39" transform="translate(314.93 472.95)">SO<tspan class="cls-40" x="17.03" y="0">C</tspan><tspan x="25.29" y="0">AR</tspan><tspan class="cls-41" x="0" y="14.62">K</tspan><tspan x="8.39" y="14.62">i</tspan><tspan class="cls-42" x="11.84" y="14.62">m</tspan><tspan class="cls-43" x="23.78" y="14.62">y</tspan><tspan x="30.45" y="14.62">a mü</tspan><tspan class="cls-44" x="60.73" y="14.62">təx</tspan><tspan x="79.23" y="14.62">əssisi</tspan></text><text class="cls-45" transform="translate(316.04 501.43)">- Malın d<tspan class="cls-46" x="36.3" y="0">əy</tspan><tspan x="45.62" y="0">ə</tspan><tspan class="cls-47" x="50.67" y="0">r</tspan><tspan x="53.95" y="0">inin </tspan><tspan class="cls-48" x="71.95" y="0">h</tspan><tspan x="77.62" y="0">esablanması </tspan><tspan class="cls-46" x="132.5" y="0">v</tspan><tspan x="136.91" y="0">ə </tspan><tspan class="cls-49" x="144.14" y="0">k</tspan><tspan x="149.08" y="0">assa ə</tspan><tspan class="cls-48" x="174.35" y="0">m</tspan><tspan x="183.23" y="0">əli</tspan><tspan class="cls-50" x="192.77" y="0">y</tspan><tspan class="cls-51" x="197.26" y="0">y</tspan><tspan x="201.65" y="0">atının </tspan><tspan class="cls-52" x="227.97" y="0">y</tspan><tspan x="232.38" y="0">e</tspan><tspan class="cls-47" x="237.42" y="0">r</tspan><tspan x="240.71" y="0">i</tspan><tspan class="cls-48" x="242.96" y="0">n</tspan><tspan x="248.63" y="0">ə </tspan><tspan class="cls-46" x="0" y="10.44">y</tspan><tspan x="4.4" y="10.44">eti</tspan><tspan class="cls-53" x="15.09" y="10.44">r</tspan><tspan x="18.37" y="10.44">il</tspan><tspan class="cls-48" x="22.87" y="10.44">m</tspan><tspan x="31.75" y="10.44">əsi;</tspan><tspan x="0" y="20.89">- </tspan><tspan class="cls-54" x="5.38" y="20.89">K</tspan><tspan x="11.2" y="20.89">assa </tspan><tspan class="cls-48" x="31.42" y="20.89">h</tspan><tspan x="37.1" y="20.89">esa</tspan><tspan class="cls-55" x="51.16" y="20.89">b</tspan><tspan x="56.8" y="20.89">atını </tspan><tspan class="cls-56" x="77.46" y="20.89">t</tspan><tspan x="80.7" y="20.89">ə</tspan><tspan class="cls-57" x="85.75" y="20.89">r</tspan><tspan x="89.22" y="20.89">tib et</tspan><tspan class="cls-48" x="111.16" y="20.89">m</tspan><tspan x="120.04" y="20.89">ək;</tspan><tspan x="0" y="31.33">- Malın alınması zamanı s</tspan><tspan class="cls-49" x="105.21" y="31.33">a</tspan><tspan x="110.05" y="31.33">yının, </tspan><tspan class="cls-58" x="134.35" y="31.33">ç</tspan><tspan x="138.98" y="31.33">eşidinin </tspan><tspan class="cls-52" x="174.02" y="31.33">y</tspan><tspan class="cls-59" x="178.43" y="31.33">o</tspan><tspan x="183.51" y="31.33">xlanılmas</tspan></text><text class="cls-60" transform="translate(314.93 457.82)">05<tspan class="cls-61" x="8.55" y="0">/</tspan><tspan class="cls-62" x="10.74" y="0">0</tspan><tspan x="15.28" y="0">3/</tspan><tspan class="cls-63" x="21.54" y="0">2</tspan><tspan class="cls-64" x="25.47" y="0">0</tspan><tspan x="30.06" y="0">19–</tspan><tspan class="cls-65" x="40.3" y="0">P</tspan><tspan class="cls-66" x="45.13" y="0">r</tspan><tspan class="cls-67" x="47.84" y="0">esent</tspan></text><text class="cls-68" transform="translate(387.78 621)">T<tspan class="cls-69" x="8.96" y="0">ƏHSİL</tspan></text><line class="cls-70" x1="265.27" y1="729.89" x2="570.29" y2="729.89"/><line class="cls-70" x1="265.27" y1="803.93" x2="570.29" y2="803.93"/><line class="cls-70" x1="265.27" y1="659.96" x2="265.27" y2="803.93"/><circle class="cls-3" cx="265.27" cy="671.73" r="5.64"/><circle class="cls-3" cx="265.27" cy="768.68" r="5.64"/><text class="cls-71" transform="translate(295.92 692.23)"><tspan class="cls-72">A</tspan><tspan class="cls-73" x="10.36" y="0">z</tspan><tspan x="17.64" y="0">ə</tspan><tspan class="cls-74" x="26.21" y="0">r</tspan><tspan class="cls-75" x="32.01" y="0">b</tspan><tspan class="cls-76" x="41.26" y="0">a</tspan><tspan class="cls-77" x="49.5" y="0">y</tspan><tspan x="57.42" y="0">can Neft Sən</tspan><tspan class="cls-76" x="148.22" y="0">a</tspan><tspan class="cls-77" x="156.46" y="0">y</tspan><tspan x="164.38" y="0">e Uni</tspan><tspan class="cls-77" x="200.96" y="0">v</tspan><tspan x="208.88" y="0">e</tspan><tspan class="cls-78" x="217.45" y="0">r</tspan><tspan x="223.28" y="0">si</tspan><tspan class="cls-79" x="234.57" y="0">t</tspan><tspan x="240.25" y="0">eti</tspan></text><text class="cls-80" transform="translate(297.23 709.59)"><tspan class="cls-81">K</tspan><tspan x="6.92" y="0">i</tspan><tspan class="cls-81" x="9.58" y="0">m</tspan><tspan class="cls-82" x="19.96" y="0">y</tspan><tspan x="25.16" y="0">a </tspan><tspan class="cls-81" x="33.57" y="0">f</tspan><tspan x="36.82" y="0">a</tspan><tspan class="cls-81" x="42.65" y="0">k</tspan><tspan x="48.49" y="0">ü</tspan><tspan class="cls-83" x="55.13" y="0">l</tspan><tspan class="cls-84" x="57.81" y="0">t</tspan><tspan x="61.63" y="0">əsi</tspan></text><text class="cls-85" transform="translate(295.92 673.73)">05<tspan class="cls-86" x="10.11" y="0">/</tspan><tspan class="cls-87" x="12.7" y="0">0</tspan><tspan class="cls-88" x="18.06" y="0">3/</tspan><tspan class="cls-89" x="25.46" y="0">2</tspan><tspan class="cls-90" x="30.1" y="0">0</tspan><tspan x="35.53" y="0">19–</tspan></text><text class="cls-71" transform="translate(295.92 773.65)"><tspan class="cls-72">A</tspan><tspan class="cls-73" x="10.36" y="0">z</tspan><tspan x="17.64" y="0">ə</tspan><tspan class="cls-74" x="26.21" y="0">r</tspan><tspan class="cls-75" x="32.01" y="0">b</tspan><tspan class="cls-76" x="41.26" y="0">a</tspan><tspan class="cls-77" x="49.5" y="0">y</tspan><tspan x="57.42" y="0">can Neft Sən</tspan><tspan class="cls-76" x="148.22" y="0">a</tspan><tspan class="cls-77" x="156.46" y="0">y</tspan><tspan x="164.38" y="0">e Uni</tspan><tspan class="cls-77" x="200.96" y="0">v</tspan><tspan x="208.88" y="0">e</tspan><tspan class="cls-78" x="217.45" y="0">r</tspan><tspan x="223.28" y="0">si</tspan><tspan class="cls-79" x="234.57" y="0">t</tspan><tspan x="240.25" y="0">eti</tspan></text><text class="cls-80" transform="translate(297.23 791.01)"><tspan class="cls-81">K</tspan><tspan x="6.92" y="0">i</tspan><tspan class="cls-81" x="9.58" y="0">m</tspan><tspan class="cls-82" x="19.96" y="0">y</tspan><tspan x="25.16" y="0">a </tspan><tspan class="cls-81" x="33.57" y="0">f</tspan><tspan x="36.82" y="0">a</tspan><tspan class="cls-81" x="42.65" y="0">k</tspan><tspan x="48.49" y="0">ü</tspan><tspan class="cls-83" x="55.13" y="0">l</tspan><tspan class="cls-84" x="57.81" y="0">t</tspan><tspan x="61.63" y="0">əsi</tspan></text><text class="cls-85" transform="translate(295.92 755.15)">05<tspan class="cls-86" x="10.11" y="0">/</tspan><tspan class="cls-87" x="12.7" y="0">0</tspan><tspan class="cls-88" x="18.06" y="0">3/</tspan><tspan class="cls-89" x="25.46" y="0">2</tspan><tspan class="cls-90" x="30.1" y="0">0</tspan><tspan x="35.53" y="0">19–</tspan></text><text class="cls-91" transform="translate(18.46 265.47)">H<tspan class="cls-92" x="11.64" y="0">A</tspan><tspan class="cls-69" x="22.33" y="0">QQIM</tspan><tspan class="cls-35" x="67.93" y="0">D</tspan><tspan class="cls-69" x="78.95" y="0">A</tspan></text><line class="cls-93" x1="18.46" y1="270" x2="107.89" y2="270"/><path class="cls-3" d="M19.52,290.66l.25-.46a3.24,3.24,0,0,0,2,.68c1.16,0,1.66-.44,1.66-1,0-1.54-3.8-.59-3.8-2.66,0-.83.7-1.54,2.27-1.54a3.8,3.8,0,0,1,1.92.5l-.22.47a3.45,3.45,0,0,0-1.7-.46c-1.13,0-1.63.45-1.63,1,0,1.54,3.8.61,3.8,2.65,0,.82-.72,1.52-2.3,1.52A3.56,3.56,0,0,1,19.52,290.66Z"/><path class="cls-3" d="M25.38,285.92a.4.4,0,0,1,.42-.39.39.39,0,1,1,0,.77A.4.4,0,0,1,25.38,285.92Zm.1,1.21h.63v4.21h-.63Z"/><path class="cls-3" d="M31.21,290.87v.47H27.44V291l2.92-3.35H27.49v-.48h3.67v.38l-2.92,3.36Z"/><path class="cls-3" d="M32.43,285.92a.42.42,0,1,1,.42.38A.4.4,0,0,1,32.43,285.92Zm.1,1.21h.63v4.21h-.63Z"/><path class="cls-3" d="M39.26,288.9v2.44h-.63V289a1.23,1.23,0,0,0-1.39-1.34,1.46,1.46,0,0,0-1.63,1.52v2.21H35v-4.21h.6v.78a2,2,0,0,1,1.76-.81A1.7,1.7,0,0,1,39.26,288.9Z"/><path class="cls-3" d="M45.75,289.23l-1.09.91v1.2H44V285.4h.63v4l2.77-2.3h.77l-2,1.72,2.17,2.49h-.77Z"/><path class="cls-3" d="M49.24,285.92a.43.43,0,1,1,.42.38A.4.4,0,0,1,49.24,285.92Zm.11,1.21H50v4.21h-.62Z"/><path class="cls-3" d="M59.46,288.9v2.44h-.63V289a1.2,1.2,0,0,0-1.33-1.34A1.42,1.42,0,0,0,56,289.13v2.21h-.63V289A1.21,1.21,0,0,0,54,287.61a1.42,1.42,0,0,0-1.55,1.52v2.21H51.8v-4.21h.6v.77a1.93,1.93,0,0,1,1.7-.8,1.68,1.68,0,0,1,1.65.89,2.08,2.08,0,0,1,1.84-.89A1.67,1.67,0,0,1,59.46,288.9Z"/><path class="cls-3" d="M61.14,285.92a.4.4,0,0,1,.42-.39.39.39,0,1,1,0,.77A.4.4,0,0,1,61.14,285.92Zm.1,1.21h.63v4.21h-.63Z"/><path class="cls-3" d="M70.87,287.13v4.21h-.6v-.77a1.88,1.88,0,0,1-1.66.81,1.72,1.72,0,0,1-2-1.81v-2.44h.62v2.38a1.24,1.24,0,0,0,1.4,1.36,1.44,1.44,0,0,0,1.58-1.53v-2.21Z"/><path class="cls-3" d="M77,287.13v3.7c0,1.44-.79,2.1-2.32,2.1a3.46,3.46,0,0,1-2.17-.65l.32-.43a2.94,2.94,0,0,0,1.83.57c1.17,0,1.71-.48,1.71-1.52v-.54a2.16,2.16,0,0,1-1.81.82,2.06,2.06,0,1,1,0-4.08,2.18,2.18,0,0,1,1.84.84v-.81Zm-.61,2a1.78,1.78,0,1,0-1.77,1.54A1.59,1.59,0,0,0,76.4,289.13Zm-3-3.64h.44c0,.43.41.68.9.68s.89-.25.9-.68H76c0,.64-.6,1-1.34,1S73.39,286.13,73.36,285.49Z"/><path class="cls-3" d="M83,287.13v4.21h-.6v-.77a1.91,1.91,0,0,1-1.67.81,1.72,1.72,0,0,1-2-1.81v-2.44h.63v2.38a1.24,1.24,0,0,0,1.39,1.36,1.44,1.44,0,0,0,1.58-1.53v-2.21Z"/><path class="cls-3" d="M87.2,287.1v.55h-.15a1.42,1.42,0,0,0-1.56,1.55v2.15h-.63v-4.21h.6V288A1.81,1.81,0,0,1,87.2,287.1Z"/><path class="cls-3" d="M88.42,285.4H89v5.94h-.62Z"/><path class="cls-3" d="M95.05,287.13v4.21h-.6v-.77a1.88,1.88,0,0,1-1.66.81,1.72,1.72,0,0,1-2-1.81v-2.44h.62v2.38a1.24,1.24,0,0,0,1.4,1.36,1.44,1.44,0,0,0,1.58-1.53v-2.21Z"/><path class="cls-3" d="M104.58,289.23a2.15,2.15,0,0,1-2.31,2.15,2.08,2.08,0,0,1-1.79-.87v.83h-.6V285.4h.63v2.53a2.1,2.1,0,0,1,1.76-.83A2.14,2.14,0,0,1,104.58,289.23Zm-.62,0a1.73,1.73,0,1,0-1.73,1.64A1.62,1.62,0,0,0,104,289.23Z"/><path class="cls-3" d="M105.84,285.92a.4.4,0,0,1,.42-.39.39.39,0,1,1,0,.77A.4.4,0,0,1,105.84,285.92Zm.11,1.21h.62v4.21H106Z"/><path class="cls-3" d="M110.74,287.1v.55h-.15a1.42,1.42,0,0,0-1.56,1.55v2.15h-.63v-4.21h.6V288A1.79,1.79,0,0,1,110.74,287.1Z"/><path class="cls-3" d="M116.44,291.38l-.1.37c.48,0,.74.3.74.65s-.4.7-1,.7a1.36,1.36,0,0,1-.74-.19l.15-.3a1.14,1.14,0,0,0,.58.15c.35,0,.55-.14.55-.38s-.18-.36-.55-.36h-.2l.18-.65a3.13,3.13,0,0,1-1.69-.51l.28-.45a3,3,0,0,0,1.65.47c.88,0,1.24-.27,1.24-.69,0-1.09-3-.23-3-1.89,0-.69.65-1.2,1.83-1.2a3.4,3.4,0,0,1,1.64.39l-.27.46a2.53,2.53,0,0,0-1.37-.36c-.84,0-1.21.29-1.21.69,0,1.14,3,.28,3,1.9C118.17,290.87,117.53,291.33,116.44,291.38Z"/><path class="cls-3" d="M119.3,285.92a.41.41,0,0,1,.43-.39.39.39,0,1,1,0,.77A.41.41,0,0,1,119.3,285.92Zm.11,1.21H120v4.21h-.63Z"/><path class="cls-3" d="M124.2,287.1v.55h-.15a1.42,1.42,0,0,0-1.56,1.55v2.15h-.62v-4.21h.6V288A1.78,1.78,0,0,1,124.2,287.1Z"/><path class="cls-3" d="M127.14,289.23l-1.1.91v1.2h-.62V285.4H126v4l2.77-2.3h.78l-2,1.72,2.17,2.49H129Z"/><path class="cls-3" d="M134.66,289.24a2.13,2.13,0,0,1-2.26,2.14,2.1,2.1,0,0,1-2.25-2.14c0-.05,0-.11,0-.17H134a1.67,1.67,0,0,0-1.83-1.47,2,2,0,0,0-1.42.55l-.35-.36a2.39,2.39,0,0,1,1.79-.69A2.19,2.19,0,0,1,134.66,289.24Zm-.62.25h-3.29a1.67,1.67,0,0,0,3.29,0Z"/><path class="cls-3" d="M138.47,291.08a1.61,1.61,0,0,1-1,.3c-.87,0-1.36-.45-1.36-1.23v-2.54h-.83v-.48h.83v-.92h.63v.92h1.41v.48h-1.41v2.51a.71.71,0,0,0,.8.77,1.08,1.08,0,0,0,.69-.22Z"/><path class="cls-3" d="M143.76,285.4v5.94h-.6v-.83a2.09,2.09,0,0,1-1.79.87,2.15,2.15,0,1,1,0-4.28,2.1,2.1,0,0,1,1.76.83V285.4Zm-.62,3.83a1.73,1.73,0,1,0-1.72,1.64A1.61,1.61,0,0,0,143.14,289.23Z"/><path class="cls-3" d="M149.63,289.24a2.13,2.13,0,0,1-2.26,2.14,2.1,2.1,0,0,1-2.25-2.14c0-.05,0-.11,0-.17H149a1.67,1.67,0,0,0-1.83-1.47,2,2,0,0,0-1.42.55l-.35-.36a2.39,2.39,0,0,1,1.79-.69A2.19,2.19,0,0,1,149.63,289.24Zm-.62.25h-3.29a1.67,1.67,0,0,0,3.29,0Z"/><path class="cls-3" d="M153.88,285.92a.43.43,0,1,1,.42.38A.4.4,0,0,1,153.88,285.92Zm.11,1.21h.62v4.21H154Z"/><path class="cls-3" d="M157.87,291.38l-.1.37c.48,0,.75.3.75.65s-.41.7-1,.7a1.36,1.36,0,0,1-.74-.19l.15-.3a1.17,1.17,0,0,0,.58.15c.35,0,.55-.14.55-.38s-.18-.36-.55-.36h-.2l.18-.65a3.16,3.16,0,0,1-1.69-.51l.28-.45a3,3,0,0,0,1.65.47c.88,0,1.25-.27,1.25-.69,0-1.09-3-.23-3-1.89,0-.69.65-1.2,1.83-1.2a3.4,3.4,0,0,1,1.64.39l-.27.46a2.53,2.53,0,0,0-1.37-.36c-.84,0-1.21.29-1.21.69,0,1.14,3,.28,3,1.9C159.6,290.87,159,291.33,157.87,291.38Z"/><path class="cls-3" d="M160.84,285.4h.63v5.94h-.63Z"/><path class="cls-3" d="M167.35,289.24a2.14,2.14,0,0,1-2.27,2.14,2.1,2.1,0,0,1-2.25-2.14c0-.05,0-.11,0-.17h3.88a1.67,1.67,0,0,0-1.83-1.47,2,2,0,0,0-1.42.55l-.35-.36a2.4,2.4,0,0,1,1.79-.69A2.2,2.2,0,0,1,167.35,289.24Zm-.63.25h-3.29a1.67,1.67,0,0,0,3.29,0Z"/><path class="cls-3" d="M176.36,288.9v2.44h-.62V289a1.21,1.21,0,0,0-1.33-1.34,1.42,1.42,0,0,0-1.56,1.52v2.21h-.62V289a1.21,1.21,0,0,0-1.34-1.34,1.42,1.42,0,0,0-1.56,1.52v2.21h-.62v-4.21h.6v.77a1.9,1.9,0,0,1,1.7-.8,1.68,1.68,0,0,1,1.65.89,2.06,2.06,0,0,1,1.83-.89A1.67,1.67,0,0,1,176.36,288.9Z"/><path class="cls-3" d="M182.22,289.24a2.14,2.14,0,0,1-2.27,2.14,2.1,2.1,0,0,1-2.25-2.14c0-.05,0-.11,0-.17h3.88a1.67,1.67,0,0,0-1.83-1.47,2,2,0,0,0-1.42.55l-.35-.36a2.4,2.4,0,0,1,1.79-.69A2.2,2.2,0,0,1,182.22,289.24Zm-.63.25H178.3a1.67,1.67,0,0,0,3.29,0Z"/><path class="cls-3" d="M185.3,289.23l-1.1.91v1.2h-.62V285.4h.62v4l2.77-2.3h.78l-2,1.72,2.17,2.49h-.77Z"/><path class="cls-3" d="M191.85,285.92a.42.42,0,1,1,.42.38A.4.4,0,0,1,191.85,285.92Zm.1,1.21h.63v4.21H192Z"/><path class="cls-3" d="M193.77,290.86l.28-.45a3,3,0,0,0,1.65.47c.88,0,1.24-.27,1.24-.69,0-1.09-3-.23-3-1.89,0-.69.66-1.2,1.84-1.2a3.4,3.4,0,0,1,1.64.39l-.28.46a2.5,2.5,0,0,0-1.36-.36c-.84,0-1.21.29-1.21.69,0,1.14,3,.28,3,1.9,0,.73-.71,1.2-1.92,1.2A3.34,3.34,0,0,1,193.77,290.86Z"/><path class="cls-3" d="M201.25,291.08a1.61,1.61,0,0,1-1,.3c-.87,0-1.36-.45-1.36-1.23v-2.54h-.83v-.48h.83v-.92h.63v.92H201v.48h-1.41v2.51a.71.71,0,0,0,.8.77,1.08,1.08,0,0,0,.69-.22Z"/><path class="cls-3" d="M206.35,289.24a2.13,2.13,0,0,1-2.27,2.14,2.1,2.1,0,0,1-2.24-2.14v-.17h3.89a1.68,1.68,0,0,0-1.83-1.47,2,2,0,0,0-1.42.55l-.35-.36a2.39,2.39,0,0,1,1.79-.69A2.2,2.2,0,0,1,206.35,289.24Zm-.62.25h-3.29a1.67,1.67,0,0,0,3.29,0Z"/><path class="cls-3" d="M211.48,287.13l-2.32,4.71a1.58,1.58,0,0,1-1.54,1.09,1.67,1.67,0,0,1-1.13-.39l.29-.42a1.21,1.21,0,0,0,.85.32c.41,0,.69-.18,1-.7l.2-.41-2.07-4.2h.65l1.75,3.57,1.74-3.57Z"/><path class="cls-3" d="M212.34,285.92a.4.4,0,0,1,.42-.39.39.39,0,1,1,0,.77A.4.4,0,0,1,212.34,285.92Zm.11,1.21h.62v4.21h-.62Z"/><path class="cls-3" d="M222.56,288.9v2.44h-.63V289a1.2,1.2,0,0,0-1.33-1.34,1.42,1.42,0,0,0-1.55,1.52v2.21h-.63V289a1.21,1.21,0,0,0-1.34-1.34,1.42,1.42,0,0,0-1.55,1.52v2.21h-.63v-4.21h.6v.77a1.93,1.93,0,0,1,1.7-.8,1.68,1.68,0,0,1,1.65.89,2.08,2.08,0,0,1,1.84-.89A1.67,1.67,0,0,1,222.56,288.9Z"/><path class="cls-3" d="M224.24,285.92a.4.4,0,0,1,.42-.39.39.39,0,1,1,0,.77A.4.4,0,0,1,224.24,285.92Zm.1,1.21H225v4.21h-.63Z"/><path class="cls-3" d="M23.25,301.26l.46.29a2.12,2.12,0,0,1-1.81.83h0l-.11.37c.49,0,.75.3.75.65s-.4.7-1,.7a1.36,1.36,0,0,1-.74-.19l.15-.3a1.14,1.14,0,0,0,.58.15c.35,0,.55-.14.55-.38s-.18-.36-.55-.36h-.2l.19-.67a2.13,2.13,0,0,1-2-2.12,2.18,2.18,0,0,1,2.39-2.13,2.09,2.09,0,0,1,1.81.83l-.46.29a1.7,1.7,0,1,0-1.35,2.65A1.63,1.63,0,0,0,23.25,301.26Z"/><path class="cls-3" d="M28.58,299.73v2.61H28v-.66a1.81,1.81,0,0,1-1.6.7c-1.05,0-1.69-.5-1.69-1.23s.46-1.19,1.79-1.19H28v-.25c0-.72-.45-1.11-1.31-1.11a2.53,2.53,0,0,0-1.54.49l-.29-.42a3.16,3.16,0,0,1,1.89-.57C27.9,298.1,28.58,298.64,28.58,299.73ZM28,301.07v-.68H26.5c-.9,0-1.19.32-1.19.75s.43.79,1.17.79A1.47,1.47,0,0,0,28,301.07Z"/><path class="cls-3" d="M32.86,302.08a1.57,1.57,0,0,1-1,.3c-.87,0-1.36-.45-1.36-1.23v-2.54H29.7v-.48h.82v-.92h.63v.92h1.41v.48H31.15v2.51a.71.71,0,0,0,.8.77,1.06,1.06,0,0,0,.69-.22Z"/><path class="cls-3" d="M38.2,296.4v5.94h-.6v-.83a2.07,2.07,0,0,1-1.79.87,2.15,2.15,0,1,1,0-4.28,2.12,2.12,0,0,1,1.77.83V296.4Zm-.61,3.83a1.73,1.73,0,1,0-1.72,1.64A1.61,1.61,0,0,0,37.59,300.23Z"/><path class="cls-3" d="M40.09,298.13h.62v4.21h-.62Z"/><path class="cls-3" d="M44.94,298.1v.55h-.15a1.43,1.43,0,0,0-1.57,1.55v2.15H42.6v-4.21h.6V299A1.79,1.79,0,0,1,44.94,298.1Z"/><path class="cls-3" d="M53.86,299.9v2.44h-.63V300a1.2,1.2,0,0,0-1.33-1.34,1.42,1.42,0,0,0-1.55,1.52v2.21h-.63V300a1.21,1.21,0,0,0-1.34-1.34,1.42,1.42,0,0,0-1.55,1.52v2.21H46.2v-4.21h.6v.77a1.93,1.93,0,0,1,1.7-.8,1.68,1.68,0,0,1,1.65.89A2.08,2.08,0,0,1,52,298.1,1.67,1.67,0,0,1,53.86,299.9Z"/><path class="cls-3" d="M59.2,299.73v2.61h-.6v-.66a1.81,1.81,0,0,1-1.6.7c-1,0-1.69-.5-1.69-1.23S55.77,300,57.1,300h1.47v-.25c0-.72-.45-1.11-1.31-1.11a2.53,2.53,0,0,0-1.54.49l-.29-.42a3.16,3.16,0,0,1,1.89-.57C58.52,298.1,59.2,298.64,59.2,299.73Zm-.63,1.34v-.68H57.12c-.9,0-1.19.32-1.19.75s.43.79,1.17.79A1.47,1.47,0,0,0,58.57,301.07Z"/><path class="cls-3" d="M65.29,298.13v5.76h-.63v-2.34a2.1,2.1,0,0,1-1.76.83,2.15,2.15,0,1,1,0-4.28,2.07,2.07,0,0,1,1.79.86v-.83Zm-.62,2.1A1.73,1.73,0,1,0,63,301.87,1.62,1.62,0,0,0,64.67,300.23Z"/><path class="cls-3" d="M70,296.92a.41.41,0,0,1,.43-.39.39.39,0,1,1,0,.77A.41.41,0,0,1,70,296.92Zm.11,1.21h.63v4.21h-.63Z"/><path class="cls-3" d="M72,301.86l.28-.45a3,3,0,0,0,1.65.47c.88,0,1.24-.27,1.24-.69,0-1.09-3-.23-3-1.89,0-.69.66-1.2,1.84-1.2a3.4,3.4,0,0,1,1.64.39l-.27.46a2.56,2.56,0,0,0-1.37-.36c-.84,0-1.21.29-1.21.69,0,1.14,3,.28,3,1.9,0,.73-.71,1.2-1.92,1.2A3.36,3.36,0,0,1,72,301.86Z"/><path class="cls-3" d="M79.51,302.08a1.57,1.57,0,0,1-1,.3c-.87,0-1.35-.45-1.35-1.23v-2.54h-.83v-.48h.83v-.92h.62v.92h1.41v.48H77.8v2.51a.71.71,0,0,0,.81.77,1,1,0,0,0,.68-.22Z"/><path class="cls-3" d="M84.67,300.24a2.13,2.13,0,0,1-2.27,2.14,2.11,2.11,0,0,1-2.25-2.14c0-.05,0-.11,0-.17H84a1.67,1.67,0,0,0-1.82-1.47,1.94,1.94,0,0,0-1.42.55l-.35-.36a2.37,2.37,0,0,1,1.79-.69A2.2,2.2,0,0,1,84.67,300.24Zm-.63.25H80.76a1.66,1.66,0,0,0,3.28,0Z"/><path class="cls-3" d="M89.85,298.13l-2.32,4.71A1.58,1.58,0,0,1,86,303.93a1.67,1.67,0,0,1-1.13-.39l.29-.42a1.21,1.21,0,0,0,.85.32c.41,0,.69-.18,1-.7l.2-.41-2.07-4.2h.65l1.75,3.57,1.74-3.57Z"/><path class="cls-3" d="M90.77,296.92a.42.42,0,1,1,.42.38A.4.4,0,0,1,90.77,296.92Zm.1,1.21h.63v4.21h-.63Z"/><path class="cls-3" d="M95.72,298.1v.55h-.15A1.42,1.42,0,0,0,94,300.19v2.15h-.63v-4.21H94V299A1.79,1.79,0,0,1,95.72,298.1Z"/><path class="cls-3" d="M101,300.24a2.13,2.13,0,0,1-2.27,2.14,2.11,2.11,0,0,1-2.25-2.14c0-.05,0-.11,0-.17h3.88a1.67,1.67,0,0,0-1.82-1.47,1.94,1.94,0,0,0-1.42.55l-.35-.36a2.37,2.37,0,0,1,1.79-.69A2.2,2.2,0,0,1,101,300.24Zm-.63.25H97.07a1.67,1.67,0,0,0,3.29,0Z"/><path class="cls-3" d="M110.06,299.9v2.44h-.62V300a1.21,1.21,0,0,0-1.34-1.34,1.42,1.42,0,0,0-1.55,1.52v2.21h-.62V300a1.22,1.22,0,0,0-1.35-1.34,1.42,1.42,0,0,0-1.55,1.52v2.21h-.62v-4.21h.6v.77a1.9,1.9,0,0,1,1.7-.8,1.69,1.69,0,0,1,1.65.89,2,2,0,0,1,1.83-.89A1.67,1.67,0,0,1,110.06,299.9Z"/><path class="cls-3" d="M112.44,301.94a1.35,1.35,0,0,1-.12.46l-.37,1.1h-.43l.3-1.16a.4.4,0,0,1-.31-.4.47.47,0,0,1,.93,0Z"/><path class="cls-3" d="M121.55,300.23a2.15,2.15,0,0,1-2.32,2.15,2.09,2.09,0,0,1-1.79-.87v.83h-.6V296.4h.63v2.53a2.1,2.1,0,0,1,1.76-.83A2.14,2.14,0,0,1,121.55,300.23Zm-.63,0a1.73,1.73,0,1,0-1.73,1.64A1.62,1.62,0,0,0,120.92,300.23Z"/><path class="cls-3" d="M127.14,298.13v4.21h-.6v-.77a1.88,1.88,0,0,1-1.66.81,1.72,1.72,0,0,1-2-1.81v-2.44h.62v2.38a1.24,1.24,0,0,0,1.4,1.36,1.44,1.44,0,0,0,1.58-1.53v-2.21Z"/><path class="cls-3" d="M131.37,298.1v.55h-.15a1.42,1.42,0,0,0-1.56,1.55v2.15H129v-4.21h.6V299A1.78,1.78,0,0,1,131.37,298.1Z"/><path class="cls-3" d="M136.13,299.73v2.61h-.6v-.66a1.8,1.8,0,0,1-1.59.7c-1.05,0-1.7-.5-1.7-1.23S132.7,300,134,300h1.48v-.25c0-.72-.45-1.11-1.32-1.11a2.53,2.53,0,0,0-1.54.49l-.28-.42a3.11,3.11,0,0,1,1.88-.57C135.45,298.1,136.13,298.64,136.13,299.73Zm-.62,1.34v-.68h-1.46c-.9,0-1.19.32-1.19.75s.43.79,1.17.79A1.5,1.5,0,0,0,135.51,301.07Z"/><path class="cls-3" d="M142.22,296.4v5.94h-.6v-.83a2.07,2.07,0,0,1-1.79.87,2.15,2.15,0,1,1,0-4.28,2.12,2.12,0,0,1,1.77.83V296.4Zm-.61,3.83a1.73,1.73,0,1,0-1.72,1.64A1.61,1.61,0,0,0,141.61,300.23Z"/><path class="cls-3" d="M147.61,299.73v2.61H147v-.66a1.81,1.81,0,0,1-1.6.7c-1,0-1.69-.5-1.69-1.23s.46-1.19,1.79-1.19H147v-.25c0-.72-.45-1.11-1.31-1.11a2.53,2.53,0,0,0-1.54.49l-.29-.42a3.16,3.16,0,0,1,1.89-.57C146.93,298.1,147.61,298.64,147.61,299.73Zm-.63,1.34v-.68h-1.45c-.9,0-1.19.32-1.19.75s.43.79,1.17.79A1.47,1.47,0,0,0,147,301.07Z"/><path class="cls-3" d="M153.81,302.38l-.1.37c.48,0,.75.3.75.65s-.41.7-1,.7a1.36,1.36,0,0,1-.74-.19l.15-.3a1.17,1.17,0,0,0,.58.15c.36,0,.55-.14.55-.38s-.18-.36-.55-.36h-.2l.19-.65a3.2,3.2,0,0,1-1.7-.51l.28-.45a3,3,0,0,0,1.65.47c.89,0,1.25-.27,1.25-.69,0-1.09-3-.23-3-1.89,0-.69.65-1.2,1.83-1.2a3.37,3.37,0,0,1,1.64.39l-.27.46a2.53,2.53,0,0,0-1.37-.36c-.83,0-1.2.29-1.2.69,0,1.14,3,.28,3,1.9C155.54,301.87,154.91,302.33,153.81,302.38Z"/><path class="cls-3" d="M156.73,296.92a.4.4,0,0,1,.42-.39.39.39,0,1,1,0,.77A.4.4,0,0,1,156.73,296.92Zm.11,1.21h.62v4.21h-.62Z"/><path class="cls-3" d="M161.68,298.1v.55h-.15a1.42,1.42,0,0,0-1.56,1.55v2.15h-.62v-4.21h.6V299A1.78,1.78,0,0,1,161.68,298.1Z"/><path class="cls-3" d="M164.67,300.23l-1.09.91v1.2H163V296.4h.63v4l2.77-2.3h.77l-2,1.72,2.17,2.49h-.77Z"/><path class="cls-3" d="M172.25,300.24a2.13,2.13,0,0,1-2.27,2.14,2.11,2.11,0,0,1-2.25-2.14c0-.05,0-.11,0-.17h3.88a1.67,1.67,0,0,0-1.82-1.47,1.94,1.94,0,0,0-1.42.55l-.35-.36a2.37,2.37,0,0,1,1.79-.69A2.2,2.2,0,0,1,172.25,300.24Zm-.63.25h-3.28a1.66,1.66,0,0,0,3.28,0Z"/><path class="cls-3" d="M176.11,302.08a1.61,1.61,0,0,1-1,.3c-.87,0-1.36-.45-1.36-1.23v-2.54h-.83v-.48h.83v-.92h.63v.92h1.41v.48H174.4v2.51a.71.71,0,0,0,.8.77,1.08,1.08,0,0,0,.69-.22Z"/><path class="cls-3" d="M177.28,296.92a.4.4,0,0,1,.42-.39.39.39,0,1,1,0,.77A.4.4,0,0,1,177.28,296.92Zm.11,1.21H178v4.21h-.62Z"/><path class="cls-3" d="M184.16,299.9v2.44h-.62V300a1.23,1.23,0,0,0-1.39-1.34,1.46,1.46,0,0,0-1.63,1.52v2.21h-.62v-4.21h.6v.78a2,2,0,0,1,1.76-.81A1.69,1.69,0,0,1,184.16,299.9Z"/><path class="cls-3" d="M185.9,296.92a.4.4,0,0,1,.42-.39.39.39,0,1,1,0,.77A.4.4,0,0,1,185.9,296.92Zm.1,1.21h.63v4.21H186Z"/><path class="cls-3" d="M191.79,301.87v.47H188V302l2.92-3.35h-2.86v-.48h3.66v.38l-2.92,3.36Z"/><path class="cls-3" d="M197.13,300.24a2.13,2.13,0,0,1-2.27,2.14,2.11,2.11,0,0,1-2.25-2.14c0-.05,0-.11,0-.17h3.88a1.67,1.67,0,0,0-1.82-1.47,1.94,1.94,0,0,0-1.42.55l-.36-.36a2.4,2.4,0,0,1,1.79-.69A2.2,2.2,0,0,1,197.13,300.24Zm-.63.25h-3.29a1.67,1.67,0,0,0,3.29,0Z"/><path class="cls-3" d="M205.71,296.4v5.94h-.6v-.83a2.08,2.08,0,0,1-1.79.87,2.15,2.15,0,1,1,0-4.28,2.12,2.12,0,0,1,1.77.83V296.4Zm-.61,3.83a1.73,1.73,0,1,0-1.72,1.64A1.61,1.61,0,0,0,205.1,300.23Z"/><path class="cls-3" d="M211.65,300.24a2.14,2.14,0,0,1-2.27,2.14,2.1,2.1,0,0,1-2.25-2.14c0-.05,0-.11,0-.17H211a1.67,1.67,0,0,0-1.83-1.47,2,2,0,0,0-1.42.55l-.35-.36a2.4,2.4,0,0,1,1.79-.69A2.2,2.2,0,0,1,211.65,300.24Zm-.63.25h-3.29a1.67,1.67,0,0,0,3.29,0Z"/><path class="cls-3" d="M216.83,298.13l-2.32,4.71a1.58,1.58,0,0,1-1.55,1.09,1.64,1.64,0,0,1-1.12-.39l.29-.42a1.2,1.2,0,0,0,.84.32c.42,0,.7-.18,1-.7l.2-.41-2.08-4.2h.66l1.74,3.57,1.75-3.57Z"/><path class="cls-3" d="M221.76,300.24a2.13,2.13,0,0,1-2.26,2.14,2.1,2.1,0,0,1-2.25-2.14c0-.05,0-.11,0-.17h3.88a1.68,1.68,0,0,0-1.83-1.47,2,2,0,0,0-1.42.55l-.35-.36a2.39,2.39,0,0,1,1.79-.69A2.2,2.2,0,0,1,221.76,300.24Zm-.62.25h-3.29a1.67,1.67,0,0,0,3.29,0Z"/><path class="cls-3" d="M225.52,298.1v.55h-.15a1.42,1.42,0,0,0-1.56,1.55v2.15h-.63v-4.21h.6V299A1.79,1.79,0,0,1,225.52,298.1Z"/><path class="cls-3" d="M24,311.24a2.13,2.13,0,0,1-2.26,2.14,2.1,2.1,0,0,1-2.25-2.14c0-.05,0-.11,0-.17H23.4a1.67,1.67,0,0,0-1.83-1.47,2,2,0,0,0-1.42.55l-.35-.36a2.39,2.39,0,0,1,1.79-.69A2.19,2.19,0,0,1,24,311.24Zm-.62.25H20.11a1.67,1.67,0,0,0,3.29,0Z"/><path class="cls-3" d="M25.53,307.4h.62v5.94h-.62Z"/><path class="cls-3" d="M31.63,310.73v2.61H31v-.66a1.81,1.81,0,0,1-1.6.7c-1.05,0-1.69-.5-1.69-1.23S28.2,311,29.53,311H31v-.25c0-.72-.45-1.11-1.31-1.11a2.51,2.51,0,0,0-1.54.49l-.29-.42a3.16,3.16,0,0,1,1.89-.57C31,309.1,31.63,309.64,31.63,310.73ZM31,312.07v-.68H29.55c-.9,0-1.19.32-1.19.75s.43.79,1.17.79A1.47,1.47,0,0,0,31,312.07Z"/><path class="cls-3" d="M37.37,309.13l-2.06,4.21h-.65l-2-4.21h.65L35,312.71l1.75-3.58Z"/><path class="cls-3" d="M42.39,311.24a2.13,2.13,0,0,1-2.27,2.14,2.1,2.1,0,0,1-2.24-2.14v-.17h3.89a1.68,1.68,0,0,0-1.83-1.47,2,2,0,0,0-1.42.55l-.35-.36A2.39,2.39,0,0,1,40,309.1,2.2,2.2,0,0,1,42.39,311.24Zm-.62.25H38.48a1.67,1.67,0,0,0,3.29,0Z"/><path class="cls-3" d="M51.11,311.41H47.23a1.66,1.66,0,0,0,1.83,1.46,1.93,1.93,0,0,0,1.42-.55l.35.37a2.4,2.4,0,0,1-1.79.69,2.21,2.21,0,0,1-2.44-2.15,2.13,2.13,0,0,1,2.27-2.13,2.1,2.1,0,0,1,2.25,2.13S51.11,311.35,51.11,311.41ZM47.23,311h3.29a1.67,1.67,0,0,0-3.29,0Z"/><path class="cls-3" d="M56.86,307.4v5.94h-.6v-.83a2.09,2.09,0,0,1-1.79.87,2.15,2.15,0,1,1,0-4.28,2.1,2.1,0,0,1,1.76.83V307.4Zm-.62,3.83a1.73,1.73,0,1,0-1.72,1.64A1.61,1.61,0,0,0,56.24,311.23Z"/><path class="cls-3" d="M62.88,311.24a2.13,2.13,0,0,1-2.27,2.14,2.11,2.11,0,0,1-2.25-2.14c0-.05,0-.11,0-.17h3.88a1.67,1.67,0,0,0-1.82-1.47,1.94,1.94,0,0,0-1.42.55l-.36-.36a2.4,2.4,0,0,1,1.79-.69A2.2,2.2,0,0,1,62.88,311.24Zm-.63.25H59a1.67,1.67,0,0,0,3.29,0Z"/><path class="cls-3" d="M72.26,311.23A2.15,2.15,0,0,1,70,313.38a2.08,2.08,0,0,1-1.79-.87v.83h-.6V307.4h.62v2.53A2.12,2.12,0,0,1,70,309.1,2.14,2.14,0,0,1,72.26,311.23Zm-.63,0a1.73,1.73,0,1,0-1.73,1.64A1.62,1.62,0,0,0,71.63,311.23Z"/><path class="cls-3" d="M73.66,307.92a.4.4,0,0,1,.42-.39.39.39,0,1,1,0,.77A.4.4,0,0,1,73.66,307.92Zm.11,1.21h.62v4.21h-.62Z"/><path class="cls-3" d="M76.36,307.4H77v5.94h-.63Z"/><path class="cls-3" d="M83,311.24a2.13,2.13,0,0,1-2.27,2.14,2.1,2.1,0,0,1-2.24-2.14v-.17h3.89a1.68,1.68,0,0,0-1.83-1.47,2,2,0,0,0-1.42.55l-.35-.36a2.39,2.39,0,0,1,1.79-.69A2.2,2.2,0,0,1,83,311.24Zm-.62.25H79.1a1.67,1.67,0,0,0,3.29,0Z"/><path class="cls-3" d="M84.05,311.23a2.18,2.18,0,0,1,2.39-2.13,2.11,2.11,0,0,1,1.82.83l-.47.29a1.7,1.7,0,1,0-1.35,2.65,1.63,1.63,0,0,0,1.35-.61l.47.29a2.13,2.13,0,0,1-1.82.83A2.19,2.19,0,0,1,84.05,311.23Z"/><path class="cls-3" d="M93.68,311.24a2.13,2.13,0,0,1-2.27,2.14,2.11,2.11,0,0,1-2.25-2.14c0-.05,0-.11,0-.17h3.88a1.67,1.67,0,0,0-1.82-1.47,1.94,1.94,0,0,0-1.42.55l-.36-.36a2.4,2.4,0,0,1,1.79-.69A2.2,2.2,0,0,1,93.68,311.24Zm-.63.25H89.76a1.67,1.67,0,0,0,3.29,0Z"/><path class="cls-3" d="M99,309.13l-2.32,4.71a1.58,1.58,0,0,1-1.54,1.09,1.65,1.65,0,0,1-1.13-.39l.29-.42a1.2,1.2,0,0,0,.84.32c.42,0,.7-.18,1-.7l.2-.41-2.07-4.2h.65l1.75,3.57,1.74-3.57Z"/><path class="cls-3" d="M100,307.92a.43.43,0,0,1,.85,0,.43.43,0,0,1-.85,0Zm.11,1.21h.62v4.21h-.62Z"/><path class="cls-3" d="M110.31,310.9v2.44h-.62V311a1.21,1.21,0,0,0-1.33-1.34,1.42,1.42,0,0,0-1.56,1.52v2.21h-.62V311a1.21,1.21,0,0,0-1.34-1.34,1.42,1.42,0,0,0-1.56,1.52v2.21h-.62v-4.21h.6v.77a1.9,1.9,0,0,1,1.7-.8,1.68,1.68,0,0,1,1.65.89,2.06,2.06,0,0,1,1.83-.89A1.67,1.67,0,0,1,110.31,310.9Z"/><path class="cls-3" d="M116.31,311.24a2.13,2.13,0,0,1-2.27,2.14,2.11,2.11,0,0,1-2.25-2.14c0-.05,0-.11,0-.17h3.88a1.67,1.67,0,0,0-1.82-1.47,1.94,1.94,0,0,0-1.42.55l-.36-.36a2.4,2.4,0,0,1,1.79-.69A2.2,2.2,0,0,1,116.31,311.24Zm-.63.25h-3.29a1.67,1.67,0,0,0,3.29,0Z"/><path class="cls-3" d="M122.42,313.38l-.11.37c.48,0,.75.3.75.65s-.41.7-1,.7a1.36,1.36,0,0,1-.74-.19l.15-.3a1.17,1.17,0,0,0,.58.15c.36,0,.55-.14.55-.38s-.18-.36-.55-.36h-.2l.19-.65a3.2,3.2,0,0,1-1.7-.51l.29-.45a3,3,0,0,0,1.64.47c.89,0,1.25-.27,1.25-.69,0-1.09-3-.23-3-1.89,0-.69.65-1.2,1.84-1.2a3.43,3.43,0,0,1,1.64.39l-.28.46a2.5,2.5,0,0,0-1.36-.36c-.84,0-1.21.29-1.21.69,0,1.14,3,.28,3,1.9C124.14,312.87,123.51,313.33,122.42,313.38Z"/><path class="cls-3" d="M129.71,309.13v4.21h-.6v-.77a1.91,1.91,0,0,1-1.67.81,1.72,1.72,0,0,1-2-1.81v-2.44h.63v2.38a1.24,1.24,0,0,0,1.39,1.36,1.44,1.44,0,0,0,1.58-1.53v-2.21ZM126.44,308a.35.35,0,0,1,.37-.35.36.36,0,0,1,.38.35.35.35,0,0,1-.38.34A.34.34,0,0,1,126.44,308Zm1.57,0a.38.38,0,0,1,.75,0,.38.38,0,0,1-.75,0Z"/><path class="cls-3" d="M136.39,311.23a2.15,2.15,0,0,1-2.31,2.15,2.08,2.08,0,0,1-1.79-.87v.83h-.6V307.4h.62v2.53a2.12,2.12,0,0,1,1.77-.83A2.14,2.14,0,0,1,136.39,311.23Zm-.63,0a1.73,1.73,0,1,0-1.73,1.64A1.62,1.62,0,0,0,135.76,311.23Z"/><path class="cls-3" d="M142.16,310.9v2.44h-.62V311a1.23,1.23,0,0,0-1.39-1.34,1.46,1.46,0,0,0-1.63,1.52v2.21h-.62V307.4h.62v2.47a2,2,0,0,1,1.74-.77A1.69,1.69,0,0,1,142.16,310.9Z"/><path class="cls-3" d="M148.16,311.24a2.13,2.13,0,0,1-2.27,2.14,2.11,2.11,0,0,1-2.25-2.14c0-.05,0-.11,0-.17h3.88a1.67,1.67,0,0,0-1.82-1.47,1.94,1.94,0,0,0-1.42.55l-.36-.36a2.41,2.41,0,0,1,1.8-.69A2.2,2.2,0,0,1,148.16,311.24Zm-.63.25h-3.29a1.67,1.67,0,0,0,3.29,0Z"/><path class="cls-3" d="M157.32,310.9v2.44h-.63V311a1.2,1.2,0,0,0-1.33-1.34,1.42,1.42,0,0,0-1.55,1.52v2.21h-.63V311a1.21,1.21,0,0,0-1.34-1.34,1.42,1.42,0,0,0-1.55,1.52v2.21h-.63v-4.21h.6v.77a1.93,1.93,0,0,1,1.71-.8,1.7,1.7,0,0,1,1.65.89,2,2,0,0,1,1.83-.89A1.67,1.67,0,0,1,157.32,310.9Z"/><path class="cls-3" d="M166.32,309.13,164,313.84a1.58,1.58,0,0,1-1.54,1.09,1.67,1.67,0,0,1-1.13-.39l.29-.42a1.21,1.21,0,0,0,.85.32c.41,0,.69-.18,1-.7l.2-.41-2.07-4.2h.65L164,312.7l1.74-3.57Z"/><path class="cls-3" d="M166.83,311.23a2.37,2.37,0,1,1,2.36,2.15A2.18,2.18,0,0,1,166.83,311.23Zm4.08,0a1.73,1.73,0,1,0-1.72,1.64A1.61,1.61,0,0,0,170.91,311.23Z"/><path class="cls-3" d="M175.84,313.34l-1.47-1.76-1.48,1.76h-.71l1.84-2.16-1.75-2.05h.7l1.4,1.65,1.39-1.65h.69l-1.75,2.05,1.86,2.16Z"/><path class="cls-3" d="M181.89,307.4v5.94h-.6v-.83a2.09,2.09,0,0,1-1.79.87,2.15,2.15,0,1,1,0-4.28,2.1,2.1,0,0,1,1.76.83V307.4Zm-.62,3.83a1.73,1.73,0,1,0-1.72,1.64A1.61,1.61,0,0,0,181.27,311.23Z"/><path class="cls-3" d="M188,309.13v4.21h-.6v-.77a1.89,1.89,0,0,1-1.67.81,1.71,1.71,0,0,1-2-1.81v-2.44h.62v2.38a1.24,1.24,0,0,0,1.4,1.36,1.44,1.44,0,0,0,1.58-1.53v-2.21Z"/><path class="cls-3" d="M192.36,309.1v.55h-.15a1.42,1.42,0,0,0-1.56,1.55v2.15H190v-4.21h.6V310A1.79,1.79,0,0,1,192.36,309.1Z"/><path class="cls-3" d="M193.29,312.94a.44.44,0,0,1,.47-.43.45.45,0,0,1,.48.43.47.47,0,0,1-.48.44A.46.46,0,0,1,193.29,312.94Z"/><path class="cls-3" d="M199.1,307.74h2.51c2,0,3.31,1.15,3.31,2.8s-1.33,2.8-3.31,2.8H199.1Zm2.48,5.09c1.64,0,2.7-.95,2.7-2.29s-1.06-2.29-2.7-2.29h-1.83v4.58Z"/><path class="cls-3" d="M210.66,309.13v4.21h-.6v-.77a1.88,1.88,0,0,1-1.66.81,1.72,1.72,0,0,1-2-1.81v-2.44h.62v2.38a1.24,1.24,0,0,0,1.4,1.36,1.44,1.44,0,0,0,1.58-1.53v-2.21ZM207.39,308a.36.36,0,0,1,.38-.35.37.37,0,0,1,.38.35.36.36,0,0,1-.38.34A.35.35,0,0,1,207.39,308Zm1.57,0a.37.37,0,0,1,.38-.35.36.36,0,0,1,.38.35.35.35,0,0,1-.38.34A.36.36,0,0,1,209,308Z"/><path class="cls-3" d="M214.07,313.38l-.1.37c.48,0,.75.3.75.65s-.41.7-1,.7a1.36,1.36,0,0,1-.74-.19l.15-.3a1.17,1.17,0,0,0,.58.15c.35,0,.55-.14.55-.38s-.18-.36-.55-.36h-.2l.18-.65a3.16,3.16,0,0,1-1.69-.51l.28-.45a3,3,0,0,0,1.65.47c.88,0,1.25-.27,1.25-.69,0-1.09-3-.23-3-1.89,0-.69.65-1.2,1.83-1.2a3.4,3.4,0,0,1,1.64.39l-.27.46a2.53,2.53,0,0,0-1.37-.36c-.84,0-1.21.29-1.21.69,0,1.14,3,.28,3,1.9C215.8,312.87,215.17,313.33,214.07,313.38Z"/><path class="cls-3" d="M221.36,309.13v4.21h-.6v-.77a1.88,1.88,0,0,1-1.66.81,1.72,1.72,0,0,1-2-1.81v-2.44h.63v2.38a1.24,1.24,0,0,0,1.39,1.36,1.44,1.44,0,0,0,1.58-1.53v-2.21ZM218.09,308a.36.36,0,0,1,.38-.35.37.37,0,0,1,.38.35.36.36,0,0,1-.38.34A.35.35,0,0,1,218.09,308Zm1.57,0a.37.37,0,0,1,.38-.35.36.36,0,0,1,.38.35.35.35,0,0,1-.38.34A.36.36,0,0,1,219.66,308Z"/><path class="cls-3" d="M223,310.92h2.31v.5H223Z"/><path class="cls-3" d="M24.24,321.9v2.44h-.62V322a1.24,1.24,0,0,0-1.4-1.34,1.45,1.45,0,0,0-1.62,1.52v2.21H20v-4.21h.59v.78a2,2,0,0,1,1.77-.81A1.69,1.69,0,0,1,24.24,321.9Z"/><path class="cls-3" d="M30.25,320.13v4.21h-.6v-.77a1.91,1.91,0,0,1-1.67.81,1.72,1.72,0,0,1-2-1.81v-2.44h.63v2.38A1.24,1.24,0,0,0,28,323.87a1.44,1.44,0,0,0,1.58-1.53v-2.21ZM27,319a.38.38,0,0,1,.75,0,.38.38,0,0,1-.75,0Zm1.57,0a.38.38,0,0,1,.75,0,.38.38,0,0,1-.75,0Z"/><path class="cls-3" d="M34.46,320.1v.55h-.15a1.42,1.42,0,0,0-1.56,1.55v2.15h-.63v-4.21h.6V321A1.81,1.81,0,0,1,34.46,320.1Z"/><path class="cls-3" d="M39.72,322.24a2.14,2.14,0,0,1-2.27,2.14,2.1,2.1,0,0,1-2.25-2.14c0-.05,0-.11,0-.17h3.88a1.67,1.67,0,0,0-1.83-1.47,2,2,0,0,0-1.42.55l-.35-.36a2.4,2.4,0,0,1,1.79-.69A2.2,2.2,0,0,1,39.72,322.24Zm-.63.25H35.8a1.67,1.67,0,0,0,3.29,0Z"/><path class="cls-3" d="M48.77,321.9v2.44h-.63V322a1.2,1.2,0,0,0-1.33-1.34,1.42,1.42,0,0,0-1.55,1.52v2.21h-.63V322a1.21,1.21,0,0,0-1.34-1.34,1.42,1.42,0,0,0-1.55,1.52v2.21h-.63v-4.21h.6v.77a1.93,1.93,0,0,1,1.71-.8,1.7,1.7,0,0,1,1.65.89,2,2,0,0,1,1.83-.89A1.67,1.67,0,0,1,48.77,321.9Z"/><path class="cls-3" d="M55.27,322.23l-1.1.91v1.2h-.62V318.4h.62v4l2.77-2.3h.78l-2,1.72,2.17,2.49h-.76Z"/><path class="cls-3" d="M58.79,318.92a.43.43,0,1,1,.42.38A.4.4,0,0,1,58.79,318.92Zm.11,1.21h.62v4.21H58.9Z"/><path class="cls-3" d="M61.93,323.94a1.35,1.35,0,0,1-.12.46l-.38,1.1H61l.3-1.16a.41.41,0,0,1-.32-.4.47.47,0,0,1,.94,0Z"/><path class="cls-3" d="M65.92,321.54a3,3,0,0,1,3.23-2.85,3.13,3.13,0,0,1,2.26.82l-.41.37a2.6,2.6,0,0,0-1.83-.66,2.34,2.34,0,1,0,0,4.64,2.56,2.56,0,0,0,1.83-.67l.41.37a3.17,3.17,0,0,1-2.26.82A3,3,0,0,1,65.92,321.54Z"/><path class="cls-3" d="M78,318.74l-2.73,5.6h-.65l-2.73-5.6h.7L75,323.6l2.38-4.86Z"/><path class="cls-3" d="M78.47,321.92h2.31v.5H78.47Z"/><path class="cls-3" d="M86.62,318.4v5.94H86v-.83a2.08,2.08,0,0,1-1.79.87,2.15,2.15,0,1,1,0-4.28,2.08,2.08,0,0,1,1.76.83V318.4ZM86,322.23a1.73,1.73,0,1,0-1.72,1.64A1.61,1.61,0,0,0,86,322.23Z"/><path class="cls-3" d="M92.53,322.24a2.13,2.13,0,0,1-2.26,2.14A2.1,2.1,0,0,1,88,322.24c0-.05,0-.11,0-.17h3.88a1.67,1.67,0,0,0-1.83-1.47,2,2,0,0,0-1.42.55l-.35-.36a2.4,2.4,0,0,1,1.79-.69A2.19,2.19,0,0,1,92.53,322.24Zm-.62.25H88.62a1.67,1.67,0,0,0,3.29,0Z"/><path class="cls-3" d="M101.12,320.13v5.76h-.63v-2.34a2.08,2.08,0,0,1-1.76.83,2.15,2.15,0,1,1,0-4.28,2.07,2.07,0,0,1,1.79.86v-.83Zm-.62,2.1a1.72,1.72,0,1,0-1.72,1.64A1.62,1.62,0,0,0,100.5,322.23Z"/><path class="cls-3" d="M107,322.41h-3.88a1.66,1.66,0,0,0,1.82,1.46,1.9,1.9,0,0,0,1.42-.55l.35.37a2.37,2.37,0,0,1-1.79.69,2.21,2.21,0,0,1-2.43-2.15,2.13,2.13,0,0,1,2.27-2.13,2.11,2.11,0,0,1,2.25,2.13S107,322.35,107,322.41Zm-3.88-.42h3.29a1.67,1.67,0,0,0-3.29,0Z"/><path class="cls-3" d="M112.25,320.13l-2.32,4.71a1.58,1.58,0,0,1-1.55,1.09,1.69,1.69,0,0,1-1.13-.39l.3-.42a1.19,1.19,0,0,0,.84.32c.42,0,.7-.18,1-.7l.21-.41-2.08-4.2h.66l1.74,3.57,1.75-3.57Z"/><path class="cls-3" d="M117.35,318.4v5.94h-.6v-.83a2.08,2.08,0,0,1-1.79.87,2.15,2.15,0,1,1,0-4.28,2.08,2.08,0,0,1,1.76.83V318.4Zm-.62,3.83a1.73,1.73,0,1,0-1.72,1.64A1.61,1.61,0,0,0,116.73,322.23Z"/><path class="cls-3" d="M126.21,322.41h-3.88a1.66,1.66,0,0,0,1.82,1.46,1.9,1.9,0,0,0,1.42-.55l.36.37a2.4,2.4,0,0,1-1.79.69,2.21,2.21,0,0,1-2.44-2.15A2.13,2.13,0,0,1,124,320.1a2.11,2.11,0,0,1,2.25,2.13S126.21,322.35,126.21,322.41Zm-3.88-.42h3.29a1.67,1.67,0,0,0-3.29,0Z"/><path class="cls-3" d="M130.06,324.08a1.61,1.61,0,0,1-1,.3c-.87,0-1.36-.45-1.36-1.23v-2.54h-.83v-.48h.83v-.92h.63v.92h1.41v.48h-1.41v2.51a.71.71,0,0,0,.8.77,1.08,1.08,0,0,0,.69-.22Z"/><path class="cls-3" d="M135.38,318.4v5.94h-.6v-.83a2.07,2.07,0,0,1-1.79.87,2.15,2.15,0,1,1,0-4.28,2.12,2.12,0,0,1,1.77.83V318.4Zm-.61,3.83a1.73,1.73,0,1,0-1.72,1.64A1.61,1.61,0,0,0,134.77,322.23Z"/><path class="cls-3" d="M137.15,318.92a.42.42,0,1,1,.42.38A.4.4,0,0,1,137.15,318.92Zm.1,1.21h.63v4.21h-.63Z"/><path class="cls-3" d="M143.64,320.13l-2.32,4.71a1.57,1.57,0,0,1-1.54,1.09,1.67,1.67,0,0,1-1.13-.39l.29-.42a1.21,1.21,0,0,0,.85.32c.41,0,.7-.18,1-.7l.2-.41-2.07-4.2h.65l1.75,3.57,1.75-3.57Z"/><path class="cls-3" d="M144.54,318.92a.43.43,0,1,1,.42.38A.4.4,0,0,1,144.54,318.92Zm.11,1.21h.62v4.21h-.62Z"/><path class="cls-3" d="M154.8,321.9v2.44h-.63V322a1.2,1.2,0,0,0-1.33-1.34,1.42,1.42,0,0,0-1.55,1.52v2.21h-.63V322a1.21,1.21,0,0,0-1.34-1.34,1.42,1.42,0,0,0-1.55,1.52v2.21h-.63v-4.21h.6v.77a1.93,1.93,0,0,1,1.7-.8,1.68,1.68,0,0,1,1.65.89,2.08,2.08,0,0,1,1.84-.89A1.67,1.67,0,0,1,154.8,321.9Z"/><path class="cls-3" d="M164.27,322.23a2.15,2.15,0,0,1-2.31,2.15,2.08,2.08,0,0,1-1.79-.87v.83h-.6V318.4h.63v2.53a2.1,2.1,0,0,1,1.76-.83A2.14,2.14,0,0,1,164.27,322.23Zm-.62,0a1.73,1.73,0,1,0-1.73,1.64A1.62,1.62,0,0,0,163.65,322.23Z"/><path class="cls-3" d="M169.15,321.73v2.61h-.6v-.66a1.81,1.81,0,0,1-1.6.7c-1,0-1.69-.5-1.69-1.23s.46-1.19,1.79-1.19h1.47v-.25c0-.72-.45-1.11-1.31-1.11a2.56,2.56,0,0,0-1.55.49l-.28-.42a3.16,3.16,0,0,1,1.89-.57C168.47,320.1,169.15,320.64,169.15,321.73Zm-.63,1.34v-.68h-1.45c-.9,0-1.19.32-1.19.75s.43.79,1.17.79A1.49,1.49,0,0,0,168.52,323.07Z"/><path class="cls-3" d="M170.52,322.23a2.19,2.19,0,0,1,2.39-2.13,2.1,2.1,0,0,1,1.82.83l-.47.29a1.7,1.7,0,1,0-1.35,2.65,1.63,1.63,0,0,0,1.35-.61l.47.29a2.12,2.12,0,0,1-1.82.83A2.2,2.2,0,0,1,170.52,322.23Z"/><path class="cls-3" d="M179.58,321.73v2.61H179v-.66a1.82,1.82,0,0,1-1.6.7c-1,0-1.69-.5-1.69-1.23s.46-1.19,1.79-1.19H179v-.25c0-.72-.45-1.11-1.31-1.11a2.56,2.56,0,0,0-1.55.49l-.28-.42a3.16,3.16,0,0,1,1.89-.57C178.9,320.1,179.58,320.64,179.58,321.73Zm-.63,1.34v-.68h-1.46c-.89,0-1.19.32-1.19.75s.44.79,1.18.79A1.49,1.49,0,0,0,179,323.07Z"/><path class="cls-3" d="M183.74,320.1v.55h-.15a1.43,1.43,0,0,0-1.57,1.55v2.15h-.62v-4.21h.6V321A1.79,1.79,0,0,1,183.74,320.1Z"/><path class="cls-3" d="M185,320.13h.62v4.21H185Z"/><path class="cls-3" d="M191.71,320.13v5.76h-.62v-2.34a2.12,2.12,0,0,1-1.77.83,2.15,2.15,0,1,1,0-4.28,2.07,2.07,0,0,1,1.79.86v-.83Zm-.61,2.1a1.73,1.73,0,1,0-1.72,1.64A1.62,1.62,0,0,0,191.1,322.23Z"/><path class="cls-3" d="M193.58,318.4h.63v5.94h-.63Z"/><path class="cls-3" d="M199.57,321.73v2.61H199v-.66a1.79,1.79,0,0,1-1.59.7c-1,0-1.69-.5-1.69-1.23s.45-1.19,1.79-1.19H199v-.25c0-.72-.45-1.11-1.32-1.11a2.53,2.53,0,0,0-1.54.49l-.28-.42a3.14,3.14,0,0,1,1.89-.57C198.9,320.1,199.57,320.64,199.57,321.73Zm-.62,1.34v-.68h-1.46c-.9,0-1.19.32-1.19.75s.43.79,1.18.79A1.49,1.49,0,0,0,199,323.07Z"/><path class="cls-3" d="M203.73,320.1v.55h-.14a1.43,1.43,0,0,0-1.57,1.55v2.15h-.62v-4.21h.6V321A1.78,1.78,0,0,1,203.73,320.1Z"/><path class="cls-3" d="M205,320.13h.63v4.21H205Z"/><path class="cls-3" d="M215.13,321.9v2.44h-.62V322a1.21,1.21,0,0,0-1.33-1.34,1.42,1.42,0,0,0-1.56,1.52v2.21H211V322a1.21,1.21,0,0,0-1.34-1.34,1.42,1.42,0,0,0-1.56,1.52v2.21h-.62v-4.21h.6v.77a1.9,1.9,0,0,1,1.7-.8,1.68,1.68,0,0,1,1.65.89,2.06,2.06,0,0,1,1.83-.89A1.67,1.67,0,0,1,215.13,321.9Z"/><path class="cls-3" d="M219.8,318.92a.41.41,0,0,1,.43-.39.39.39,0,1,1,0,.77A.41.41,0,0,1,219.8,318.92Zm.11,1.21h.63v4.21h-.63Z"/><path class="cls-3" d="M223.83,324.38l-.1.37c.48,0,.75.3.75.65s-.41.7-1,.7a1.36,1.36,0,0,1-.74-.19l.15-.3a1.14,1.14,0,0,0,.58.15c.35,0,.55-.14.55-.38s-.18-.36-.55-.36h-.2l.18-.65a3.16,3.16,0,0,1-1.69-.51l.28-.45a3,3,0,0,0,1.65.47c.88,0,1.24-.27,1.24-.69,0-1.09-3-.23-3-1.89,0-.69.65-1.2,1.83-1.2a3.4,3.4,0,0,1,1.64.39l-.27.46a2.53,2.53,0,0,0-1.37-.36c-.84,0-1.21.29-1.21.69,0,1.14,3,.28,3,1.9C225.56,323.87,224.93,324.33,223.83,324.38Z"/><path class="cls-3" d="M22.42,335.08a1.61,1.61,0,0,1-1,.3c-.87,0-1.36-.45-1.36-1.23v-2.54h-.83v-.48h.83v-.92h.63v.92h1.41v.48H20.71v2.51a.71.71,0,0,0,.8.77,1.08,1.08,0,0,0,.69-.22Z"/><path class="cls-3" d="M27.44,333.24a2.13,2.13,0,0,1-2.27,2.14,2.1,2.1,0,0,1-2.25-2.14c0-.05,0-.11,0-.17h3.88A1.67,1.67,0,0,0,25,331.6a2,2,0,0,0-1.42.55l-.35-.36A2.4,2.4,0,0,1,25,331.1,2.2,2.2,0,0,1,27.44,333.24Zm-.63.25H23.52a1.67,1.67,0,0,0,3.29,0Z"/><path class="cls-3" d="M28.07,334.86l.28-.45a3,3,0,0,0,1.65.47c.89,0,1.25-.27,1.25-.69,0-1.09-3-.23-3-1.89,0-.69.65-1.2,1.83-1.2a3.37,3.37,0,0,1,1.64.39l-.27.46a2.53,2.53,0,0,0-1.37-.36c-.83,0-1.2.29-1.2.69,0,1.14,3,.28,3,1.9,0,.73-.7,1.2-1.91,1.2A3.37,3.37,0,0,1,28.07,334.86Z"/><path class="cls-3" d="M36.84,331.13l-2.06,4.21h-.65l-2.05-4.21h.65l1.74,3.58,1.75-3.58Z"/><path class="cls-3" d="M37.62,329.92a.42.42,0,1,1,.42.38A.4.4,0,0,1,37.62,329.92Zm.1,1.21h.63v4.21h-.63Z"/><path class="cls-3" d="M42.43,331.1v.55h-.15a1.42,1.42,0,0,0-1.56,1.55v2.15H40.1v-4.21h.59V332A1.81,1.81,0,0,1,42.43,331.1Z"/><path class="cls-3" d="M43.46,329.92a.42.42,0,1,1,.42.38A.4.4,0,0,1,43.46,329.92Zm.1,1.21h.63v4.21h-.63Z"/><path class="cls-3" d="M50.2,332.9v2.44h-.62V333a1.24,1.24,0,0,0-1.4-1.34,1.45,1.45,0,0,0-1.62,1.52v2.21h-.62v-4.21h.59v.78a2,2,0,0,1,1.77-.81A1.69,1.69,0,0,1,50.2,332.9Z"/><path class="cls-3" d="M56,333.24a2.13,2.13,0,0,1-2.26,2.14,2.1,2.1,0,0,1-2.25-2.14c0-.05,0-.11,0-.17h3.88a1.68,1.68,0,0,0-1.83-1.47,2,2,0,0,0-1.42.55l-.35-.36a2.39,2.39,0,0,1,1.79-.69A2.2,2.2,0,0,1,56,333.24Zm-.62.25H52.06a1.67,1.67,0,0,0,3.29,0Z"/><path class="cls-3" d="M63.46,331.13l-2.06,4.21h-.65l-2-4.21h.65l1.74,3.58,1.75-3.58Z"/><path class="cls-3" d="M68.26,333.24A2.13,2.13,0,0,1,66,335.38a2.11,2.11,0,0,1-2.25-2.14c0-.05,0-.11,0-.17h3.88a1.67,1.67,0,0,0-1.82-1.47,1.94,1.94,0,0,0-1.42.55l-.36-.36a2.41,2.41,0,0,1,1.8-.69A2.2,2.2,0,0,1,68.26,333.24Zm-.63.25H64.34a1.67,1.67,0,0,0,3.29,0Z"/><path class="cls-3" d="M73.28,335.38l-.11.37c.49,0,.75.3.75.65s-.4.7-1,.7a1.39,1.39,0,0,1-.75-.19l.15-.3a1.18,1.18,0,0,0,.59.15c.35,0,.54-.14.54-.38s-.17-.36-.54-.36h-.21l.19-.65a3.13,3.13,0,0,1-1.69-.51l.28-.45a3,3,0,0,0,1.65.47c.88,0,1.24-.27,1.24-.69,0-1.09-3-.23-3-1.89,0-.69.66-1.2,1.84-1.2a3.4,3.4,0,0,1,1.64.39l-.28.46a2.5,2.5,0,0,0-1.36-.36c-.84,0-1.21.29-1.21.69,0,1.14,3,.28,3,1.9C75,334.87,74.37,335.33,73.28,335.38Z"/><path class="cls-3" d="M76.06,329.92a.42.42,0,1,1,.42.38A.4.4,0,0,1,76.06,329.92Zm.1,1.21h.63v4.21h-.63Z"/><path class="cls-3" d="M80.87,331.1v.55h-.15a1.42,1.42,0,0,0-1.56,1.55v2.15h-.62v-4.21h.6V332A1.78,1.78,0,0,1,80.87,331.1Z"/><path class="cls-3" d="M83.72,333.23l-1.09.91v1.2H82V329.4h.63v4l2.77-2.3h.77l-2,1.72,2.17,2.49h-.77Z"/><path class="cls-3" d="M91.17,333.24a2.14,2.14,0,0,1-2.27,2.14,2.1,2.1,0,0,1-2.25-2.14c0-.05,0-.11,0-.17h3.88a1.67,1.67,0,0,0-1.83-1.47,2,2,0,0,0-1.42.55l-.35-.36a2.4,2.4,0,0,1,1.79-.69A2.2,2.2,0,0,1,91.17,333.24Zm-.63.25H87.25a1.67,1.67,0,0,0,3.29,0Z"/><path class="cls-3" d="M94.89,335.08a1.61,1.61,0,0,1-1,.3c-.87,0-1.36-.45-1.36-1.23v-2.54h-.83v-.48h.83v-.92h.63v.92h1.41v.48H93.18v2.51a.71.71,0,0,0,.8.77,1.1,1.1,0,0,0,.69-.22Z"/><path class="cls-3" d="M95.92,329.92a.43.43,0,1,1,.42.38A.4.4,0,0,1,95.92,329.92Zm.11,1.21h.62v4.21H96Z"/><path class="cls-3" d="M102.67,332.9v2.44H102V333a1.23,1.23,0,0,0-1.39-1.34A1.46,1.46,0,0,0,99,333.13v2.21H98.4v-4.21H99v.78a2,2,0,0,1,1.76-.81A1.7,1.7,0,0,1,102.67,332.9Z"/><path class="cls-3" d="M104.27,329.92a.42.42,0,1,1,.42.38A.4.4,0,0,1,104.27,329.92Zm.1,1.21H105v4.21h-.63Z"/><path class="cls-3" d="M110,334.87v.47h-3.78V335l2.92-3.35h-2.87v-.48H110v.38L107,334.87Z"/><path class="cls-3" d="M111.15,329.92a.42.42,0,1,1,.42.38A.4.4,0,0,1,111.15,329.92Zm.1,1.21h.63v4.21h-.63Z"/><path class="cls-3" d="M117.89,332.9v2.44h-.62V333a1.24,1.24,0,0,0-1.4-1.34,1.45,1.45,0,0,0-1.62,1.52v2.21h-.63v-4.21h.6v.78a2,2,0,0,1,1.77-.81A1.69,1.69,0,0,1,117.89,332.9Z"/><path class="cls-3" d="M126.61,333.23a2.15,2.15,0,0,1-2.31,2.15,2.12,2.12,0,0,1-1.77-.83v2.34h-.62v-5.76h.6V332a2.07,2.07,0,0,1,1.79-.86A2.14,2.14,0,0,1,126.61,333.23Zm-.63,0a1.73,1.73,0,1,0-1.73,1.64A1.62,1.62,0,0,0,126,333.23Z"/><path class="cls-3" d="M131.93,333.41h-3.88a1.66,1.66,0,0,0,1.82,1.46,1.9,1.9,0,0,0,1.42-.55l.35.37a2.37,2.37,0,0,1-1.79.69,2.21,2.21,0,0,1-2.43-2.15,2.13,2.13,0,0,1,2.27-2.13,2.1,2.1,0,0,1,2.24,2.13Zm-3.88-.42h3.28a1.66,1.66,0,0,0-3.28,0Z"/><path class="cls-3" d="M135.55,331.1v.55h-.15a1.42,1.42,0,0,0-1.56,1.55v2.15h-.63v-4.21h.6V332A1.79,1.79,0,0,1,135.55,331.1Z"/><path class="cls-3" d="M136.07,334.86l.28-.45a3,3,0,0,0,1.65.47c.89,0,1.25-.27,1.25-.69,0-1.09-3-.23-3-1.89,0-.69.65-1.2,1.83-1.2a3.37,3.37,0,0,1,1.64.39l-.27.46a2.53,2.53,0,0,0-1.37-.36c-.83,0-1.2.29-1.2.69,0,1.14,3,.28,3,1.9,0,.73-.7,1.2-1.91,1.2A3.37,3.37,0,0,1,136.07,334.86Z"/><path class="cls-3" d="M145.73,333.23a2.15,2.15,0,0,1-2.31,2.15,2.12,2.12,0,0,1-1.77-.83v2.34H141v-5.76h.6V332a2.07,2.07,0,0,1,1.79-.86A2.14,2.14,0,0,1,145.73,333.23Zm-.63,0a1.73,1.73,0,1,0-1.73,1.64A1.62,1.62,0,0,0,145.1,333.23Z"/><path class="cls-3" d="M151.05,333.41h-3.88a1.66,1.66,0,0,0,1.82,1.46,1.9,1.9,0,0,0,1.42-.55l.36.37a2.4,2.4,0,0,1-1.79.69,2.21,2.21,0,0,1-2.44-2.15,2.13,2.13,0,0,1,2.27-2.13,2.11,2.11,0,0,1,2.25,2.13S151.05,333.35,151.05,333.41Zm-3.88-.42h3.29a1.67,1.67,0,0,0-3.29,0Z"/><path class="cls-3" d="M154.06,333.23l-1.1.91v1.2h-.62V329.4H153v4l2.77-2.3h.78l-2,1.72,2.17,2.49h-.76Z"/><path class="cls-3" d="M160.08,335.08a1.61,1.61,0,0,1-1,.3c-.87,0-1.36-.45-1.36-1.23v-2.54h-.83v-.48h.83v-.92h.63v.92h1.41v.48h-1.41v2.51a.71.71,0,0,0,.8.77,1.08,1.08,0,0,0,.69-.22Z"/><path class="cls-3" d="M161.11,329.92a.43.43,0,0,1,.85,0,.43.43,0,0,1-.85,0Zm.11,1.21h.62v4.21h-.62Z"/><path class="cls-3" d="M167.49,331.13l-2.06,4.21h-.65l-2.05-4.21h.65l1.74,3.58,1.75-3.58Z"/><path class="cls-3" d="M168.27,329.92a.42.42,0,1,1,.42.38A.4.4,0,0,1,168.27,329.92Zm.1,1.21H169v4.21h-.63Z"/><path class="cls-3" d="M175,332.9v2.44h-.62V333a1.24,1.24,0,0,0-1.4-1.34,1.45,1.45,0,0,0-1.62,1.52v2.21h-.63v-4.21h.6v.78a2,2,0,0,1,1.77-.81A1.69,1.69,0,0,1,175,332.9Z"/><path class="cls-3" d="M180.78,333.24a2.13,2.13,0,0,1-2.26,2.14,2.1,2.1,0,0,1-2.25-2.14v-.17h3.89a1.68,1.68,0,0,0-1.83-1.47,2,2,0,0,0-1.42.55l-.35-.36a2.39,2.39,0,0,1,1.79-.69A2.2,2.2,0,0,1,180.78,333.24Zm-.62.25h-3.29a1.67,1.67,0,0,0,3.29,0Z"/><path class="cls-3" d="M188.55,331.13v4.21H188v-.77a1.88,1.88,0,0,1-1.66.81,1.72,1.72,0,0,1-2-1.81v-2.44H185v2.38a1.24,1.24,0,0,0,1.4,1.36,1.44,1.44,0,0,0,1.58-1.53v-2.21Z"/><path class="cls-3" d="M194.21,331.13l-2.32,4.71a1.58,1.58,0,0,1-1.55,1.09,1.69,1.69,0,0,1-1.13-.39l.3-.42a1.19,1.19,0,0,0,.84.32c.42,0,.7-.18,1-.7l.21-.41-2.08-4.2h.66l1.74,3.57,1.75-3.57Z"/><path class="cls-3" d="M199.25,331.13v3.7c0,1.44-.78,2.1-2.32,2.1a3.43,3.43,0,0,1-2.16-.65l.32-.43a2.93,2.93,0,0,0,1.82.57c1.18,0,1.71-.48,1.71-1.52v-.54a2.36,2.36,0,0,1-4.13-1.23,2.11,2.11,0,0,1,2.33-2,2.17,2.17,0,0,1,1.83.84v-.81Zm-.61,2a1.78,1.78,0,1,0-1.76,1.54A1.59,1.59,0,0,0,198.64,333.13Zm-3-3.64h.44c0,.43.4.68.9.68s.88-.25.9-.68h.44c0,.64-.6,1-1.34,1S195.63,330.13,195.61,329.49Z"/><path class="cls-3" d="M205.19,331.13v4.21h-.6v-.77a1.91,1.91,0,0,1-1.67.81,1.72,1.72,0,0,1-2-1.81v-2.44h.63v2.38a1.24,1.24,0,0,0,1.39,1.36,1.44,1.44,0,0,0,1.58-1.53v-2.21Z"/><path class="cls-3" d="M211.21,332.9v2.44h-.62V333a1.24,1.24,0,0,0-1.4-1.34,1.45,1.45,0,0,0-1.62,1.52v2.21h-.63v-4.21h.6v.78a2,2,0,0,1,1.77-.81A1.69,1.69,0,0,1,211.21,332.9Z"/><path class="cls-3" d="M217.17,329.4v5.94h-.6v-.83a2.09,2.09,0,0,1-1.79.87,2.15,2.15,0,1,1,0-4.28,2.1,2.1,0,0,1,1.76.83V329.4Zm-.62,3.83a1.73,1.73,0,1,0-1.72,1.64A1.61,1.61,0,0,0,216.55,333.23Z"/><path class="cls-3" d="M223.09,331.13v4.21h-.6v-.77a1.88,1.88,0,0,1-1.66.81,1.72,1.72,0,0,1-2-1.81v-2.44h.62v2.38a1.24,1.24,0,0,0,1.4,1.36,1.44,1.44,0,0,0,1.58-1.53v-2.21Z"/><path class="cls-3" d="M227.19,331.1v.55H227a1.42,1.42,0,0,0-1.56,1.55v2.15h-.63v-4.21h.6V332A1.79,1.79,0,0,1,227.19,331.1Z"/><path class="cls-3" d="M227.89,334.94a.44.44,0,0,1,.47-.43.45.45,0,0,1,.48.43.47.47,0,0,1-.48.44A.46.46,0,0,1,227.89,334.94Z"/><path class="cls-3" d="M19.56,344.54a3,3,0,0,1,3.24-2.85,3.14,3.14,0,0,1,2.26.82l-.42.37a2.6,2.6,0,0,0-1.83-.66,2.34,2.34,0,1,0,0,4.64,2.56,2.56,0,0,0,1.83-.67l.42.37a3.19,3.19,0,0,1-2.27.82A3,3,0,0,1,19.56,344.54Z"/><path class="cls-3" d="M31.51,341.74l-2.73,5.6h-.65l-2.73-5.6h.71l2.36,4.86,2.38-4.86Z"/><path class="cls-3" d="M31.87,344.92h2.31v.5H31.87Z"/><path class="cls-3" d="M39.85,344.9v2.44h-.63V345a1.23,1.23,0,0,0-1.39-1.34,1.46,1.46,0,0,0-1.63,1.52v2.21h-.62v-4.21h.6v.78a2,2,0,0,1,1.76-.81A1.7,1.7,0,0,1,39.85,344.9Z"/><path class="cls-3" d="M41.44,341.92a.41.41,0,0,1,.43-.39.39.39,0,1,1,0,.77A.41.41,0,0,1,41.44,341.92Zm.11,1.21h.63v4.21h-.63Z"/><path class="cls-3" d="M50,344.9v2.44h-.63V345A1.23,1.23,0,0,0,48,343.61a1.45,1.45,0,0,0-1.62,1.52v2.21h-.63v-4.21h.6v.78a2,2,0,0,1,1.77-.81A1.69,1.69,0,0,1,50,344.9Z"/><path class="cls-3" d="M55.81,345.24a2.13,2.13,0,0,1-2.27,2.14,2.11,2.11,0,0,1-2.25-2.14c0-.05,0-.11,0-.17h3.88a1.67,1.67,0,0,0-1.82-1.47,1.94,1.94,0,0,0-1.42.55l-.36-.36a2.41,2.41,0,0,1,1.8-.69A2.2,2.2,0,0,1,55.81,345.24Zm-.63.25H51.89a1.67,1.67,0,0,0,3.29,0Z"/><path class="cls-3" d="M60.28,346.87v.47H56.51V347l2.92-3.35H56.56v-.48h3.67v.38l-2.92,3.36Z"/><path class="cls-3" d="M65.48,345.24a2.13,2.13,0,0,1-2.26,2.14A2.1,2.1,0,0,1,61,345.24c0-.05,0-.11,0-.17h3.88A1.67,1.67,0,0,0,63,343.6a2,2,0,0,0-1.42.55l-.35-.36a2.4,2.4,0,0,1,1.79-.69A2.19,2.19,0,0,1,65.48,345.24Zm-.62.25H61.57a1.67,1.67,0,0,0,3.29,0Z"/><path class="cls-3" d="M69.1,343.1v.55H69a1.42,1.42,0,0,0-1.56,1.55v2.15h-.63v-4.21h.6V344A1.8,1.8,0,0,1,69.1,343.1Z"/><path class="cls-3" d="M74.42,341.4v5.94h-.6v-.83a2.08,2.08,0,0,1-1.79.87,2.15,2.15,0,1,1,0-4.28,2.08,2.08,0,0,1,1.76.83V341.4Zm-.62,3.83a1.72,1.72,0,1,0-1.72,1.64A1.61,1.61,0,0,0,73.8,345.23Z"/><path class="cls-3" d="M80.22,345.24A2.14,2.14,0,0,1,78,347.38a2.1,2.1,0,0,1-2.25-2.14c0-.05,0-.11,0-.17h3.88a1.67,1.67,0,0,0-1.83-1.47,2,2,0,0,0-1.42.55l-.35-.36a2.4,2.4,0,0,1,1.79-.69A2.2,2.2,0,0,1,80.22,345.24Zm-.63.25H76.3a1.67,1.67,0,0,0,3.29,0Z"/><path class="cls-3" d="M85.76,344.9v2.44h-.62V345a1.24,1.24,0,0,0-1.4-1.34,1.45,1.45,0,0,0-1.62,1.52v2.21h-.63v-4.21h.6v.78a2,2,0,0,1,1.77-.81A1.69,1.69,0,0,1,85.76,344.9Z"/><path class="cls-3" d="M91,345.23l-1.09.91v1.2h-.63V341.4h.63v4l2.77-2.3h.78l-2,1.72,2.17,2.49H92.9Z"/><path class="cls-3" d="M98.47,345.41H94.59a1.66,1.66,0,0,0,1.82,1.46,1.9,1.9,0,0,0,1.42-.55l.36.37a2.4,2.4,0,0,1-1.79.69A2.21,2.21,0,0,1,94,345.23a2.13,2.13,0,0,1,2.27-2.13,2.11,2.11,0,0,1,2.25,2.13S98.47,345.35,98.47,345.41ZM94.59,345h3.29a1.67,1.67,0,0,0-3.29,0Z"/><path class="cls-3" d="M103,346.26l.47.29a2.12,2.12,0,0,1-1.82.83h0l-.1.37c.48,0,.75.3.75.65s-.41.7-1,.7a1.36,1.36,0,0,1-.74-.19l.15-.3a1.17,1.17,0,0,0,.58.15c.35,0,.55-.14.55-.38s-.18-.36-.55-.36h-.2l.19-.67a2.13,2.13,0,0,1-2-2.12,2.19,2.19,0,0,1,2.39-2.13,2.1,2.1,0,0,1,1.82.83l-.47.29a1.7,1.7,0,1,0-1.35,2.65A1.63,1.63,0,0,0,103,346.26Z"/><path class="cls-3" d="M104.62,341.92a.42.42,0,1,1,.42.38A.4.4,0,0,1,104.62,341.92Zm.1,1.21h.63v4.21h-.63Z"/><path class="cls-3" d="M109.43,343.1v.55h-.15a1.42,1.42,0,0,0-1.56,1.55v2.15h-.62v-4.21h.6V344A1.78,1.78,0,0,1,109.43,343.1Z"/><path class="cls-3" d="M118.22,344.9v2.44h-.63V345a1.2,1.2,0,0,0-1.33-1.34,1.42,1.42,0,0,0-1.55,1.52v2.21h-.63V345a1.21,1.21,0,0,0-1.34-1.34,1.42,1.42,0,0,0-1.55,1.52v2.21h-.63v-4.21h.6v.77a1.93,1.93,0,0,1,1.7-.8,1.68,1.68,0,0,1,1.65.89,2.08,2.08,0,0,1,1.84-.89A1.67,1.67,0,0,1,118.22,344.9Z"/><path class="cls-3" d="M124,345.24a2.13,2.13,0,0,1-2.27,2.14,2.11,2.11,0,0,1-2.25-2.14c0-.05,0-.11,0-.17h3.88a1.67,1.67,0,0,0-1.82-1.47,1.94,1.94,0,0,0-1.42.55l-.36-.36a2.4,2.4,0,0,1,1.79-.69A2.2,2.2,0,0,1,124,345.24Zm-.63.25h-3.29a1.67,1.67,0,0,0,3.29,0Z"/><path class="cls-3" d="M129,343.13l-2.32,4.71a1.58,1.58,0,0,1-1.54,1.09,1.67,1.67,0,0,1-1.13-.39l.29-.42a1.21,1.21,0,0,0,.85.32c.41,0,.69-.18,1-.7l.2-.41-2.07-4.2h.65l1.75,3.57,1.74-3.57Z"/><path class="cls-3" d="M133.83,345.24a2.13,2.13,0,0,1-2.27,2.14,2.11,2.11,0,0,1-2.25-2.14c0-.05,0-.11,0-.17h3.88a1.67,1.67,0,0,0-1.82-1.47,1.94,1.94,0,0,0-1.42.55l-.35-.36a2.37,2.37,0,0,1,1.79-.69A2.2,2.2,0,0,1,133.83,345.24Zm-.63.25h-3.29a1.67,1.67,0,0,0,3.29,0Z"/><path class="cls-3" d="M140.86,343.13l-2.07,4.21h-.64l-2.06-4.21h.65l1.74,3.58,1.76-3.58Z"/><path class="cls-3" d="M145.1,344.73v2.61h-.6v-.66a1.82,1.82,0,0,1-1.6.7c-1.05,0-1.69-.5-1.69-1.23S141.67,345,143,345h1.47v-.25c0-.72-.45-1.11-1.31-1.11a2.56,2.56,0,0,0-1.55.49l-.28-.42a3.16,3.16,0,0,1,1.89-.57C144.42,343.1,145.1,343.64,145.1,344.73Zm-.63,1.34v-.68H143c-.9,0-1.2.32-1.2.75s.44.79,1.18.79A1.49,1.49,0,0,0,144.47,346.07Z"/><path class="cls-3" d="M149.75,347.34l-1.47-1.76-1.48,1.76h-.71l1.84-2.16-1.75-2.05h.71l1.39,1.65,1.39-1.65h.69l-1.74,2.05,1.85,2.16Z"/><path class="cls-3" d="M154,347.08a1.57,1.57,0,0,1-1,.3c-.87,0-1.36-.45-1.36-1.23v-2.54h-.82v-.48h.82v-.92h.63v.92h1.41v.48h-1.41v2.51a.71.71,0,0,0,.8.77,1.06,1.06,0,0,0,.69-.22Z"/><path class="cls-3" d="M160.44,344.73v2.61h-.6v-.66a1.81,1.81,0,0,1-1.6.7c-1.05,0-1.69-.5-1.69-1.23S157,345,158.34,345h1.47v-.25c0-.72-.45-1.11-1.31-1.11a2.53,2.53,0,0,0-1.54.49l-.29-.42a3.16,3.16,0,0,1,1.89-.57C159.76,343.1,160.44,343.64,160.44,344.73Zm-.63,1.34v-.68h-1.45c-.9,0-1.19.32-1.19.75s.43.79,1.17.79A1.47,1.47,0,0,0,159.81,346.07Z"/><path class="cls-3" d="M166,343.13l-2.32,4.71a1.57,1.57,0,0,1-1.54,1.09,1.67,1.67,0,0,1-1.13-.39l.29-.42a1.21,1.21,0,0,0,.85.32c.41,0,.7-.18,1-.7l.2-.41-2.07-4.2h.65l1.75,3.57,1.75-3.57Z"/><path class="cls-3" d="M166.84,343.13h.62v4.21h-.62Z"/><path class="cls-3" d="M171.55,343.1v.55h-.15a1.42,1.42,0,0,0-1.56,1.55v2.15h-.63v-4.21h.6V344A1.79,1.79,0,0,1,171.55,343.1Z"/><path class="cls-3" d="M176.87,341.4v5.94h-.6v-.83a2.09,2.09,0,0,1-1.79.87,2.15,2.15,0,1,1,0-4.28,2.1,2.1,0,0,1,1.76.83V341.4Zm-.62,3.83a1.73,1.73,0,1,0-1.72,1.64A1.61,1.61,0,0,0,176.25,345.23Z"/><path class="cls-3" d="M178.61,343.13h.63v4.21h-.63Z"/><path class="cls-3" d="M185.28,343.13v3.7c0,1.44-.78,2.1-2.32,2.1a3.43,3.43,0,0,1-2.16-.65l.32-.43a2.93,2.93,0,0,0,1.82.57c1.18,0,1.71-.48,1.71-1.52v-.54a2.2,2.2,0,1,1-1.8-3.26,2.17,2.17,0,0,1,1.83.84v-.81Zm-.61,2a1.78,1.78,0,1,0-1.76,1.54A1.59,1.59,0,0,0,184.67,345.13Zm-3-3.64h.44c0,.43.4.68.9.68s.88-.25.9-.68h.44c0,.64-.6,1-1.34,1S181.67,342.13,181.64,341.49Z"/><path class="cls-3" d="M187,343.13h.62v4.21H187Z"/><path class="cls-3" d="M193.68,344.9v2.44h-.63V345a1.23,1.23,0,0,0-1.39-1.34,1.45,1.45,0,0,0-1.62,1.52v2.21h-.63v-4.21h.6v.78a2,2,0,0,1,1.76-.81A1.7,1.7,0,0,1,193.68,344.9Z"/><path class="cls-3" d="M195.38,343.13H196v4.21h-.63Z"/><path class="cls-3" d="M201,346.87v.47h-3.78V347l2.92-3.35H197.3v-.48H201v.38l-2.92,3.36Z"/><path class="cls-3" d="M208.29,343.13v4.21h-.6v-.77a1.9,1.9,0,0,1-1.67.81,1.71,1.71,0,0,1-2-1.81v-2.44h.62v2.38a1.24,1.24,0,0,0,1.4,1.36,1.43,1.43,0,0,0,1.57-1.53v-2.21ZM205,342a.36.36,0,0,1,.38-.35.37.37,0,0,1,.38.35.36.36,0,0,1-.38.34A.35.35,0,0,1,205,342Zm1.57,0a.37.37,0,0,1,.38-.35.36.36,0,0,1,.38.35.35.35,0,0,1-.38.34A.36.36,0,0,1,206.59,342Z"/><path class="cls-3" d="M213.32,346.26l.47.29a2.13,2.13,0,0,1-1.82.83h0l-.1.37c.48,0,.75.3.75.65s-.41.7-1,.7a1.36,1.36,0,0,1-.74-.19l.15-.3a1.14,1.14,0,0,0,.58.15c.35,0,.55-.14.55-.38s-.18-.36-.55-.36h-.2l.19-.67a2.13,2.13,0,0,1-2-2.12A2.18,2.18,0,0,1,212,343.1a2.11,2.11,0,0,1,1.82.83l-.47.29a1.7,1.7,0,1,0-1.35,2.65A1.63,1.63,0,0,0,213.32,346.26Z"/><path class="cls-3" d="M219.19,343.13v4.21h-.6v-.77a1.88,1.88,0,0,1-1.66.81,1.72,1.72,0,0,1-2-1.81v-2.44h.62v2.38a1.24,1.24,0,0,0,1.4,1.36,1.44,1.44,0,0,0,1.58-1.53v-2.21ZM215.92,342a.36.36,0,0,1,.38-.35.37.37,0,0,1,.38.35.36.36,0,0,1-.38.34A.35.35,0,0,1,215.92,342Zm1.57,0a.37.37,0,0,1,.38-.35.36.36,0,0,1,.38.35.35.35,0,0,1-.38.34A.36.36,0,0,1,217.49,342Z"/><path class="cls-3" d="M225.22,344.9v2.44h-.63V345a1.23,1.23,0,0,0-1.39-1.34,1.46,1.46,0,0,0-1.63,1.52v2.21H221v-4.21h.6v.78a2,2,0,0,1,1.76-.81A1.7,1.7,0,0,1,225.22,344.9Z"/><path class="cls-3" d="M22.42,358.08a1.61,1.61,0,0,1-1,.3c-.87,0-1.36-.45-1.36-1.23v-2.54h-.83v-.48h.83v-.92h.63v.92h1.41v.48H20.71v2.51a.71.71,0,0,0,.8.77,1.08,1.08,0,0,0,.69-.22Z"/><path class="cls-3" d="M27.52,356.24a2.13,2.13,0,0,1-2.27,2.14A2.1,2.1,0,0,1,23,356.24c0-.05,0-.11,0-.17h3.88a1.67,1.67,0,0,0-1.83-1.47,1.93,1.93,0,0,0-1.41.55l-.36-.36a2.4,2.4,0,0,1,1.79-.69A2.2,2.2,0,0,1,27.52,356.24Zm-.63.25H23.6a1.67,1.67,0,0,0,3.29,0Z"/><path class="cls-3" d="M30.31,358.38l-.11.37c.49,0,.75.3.75.65s-.41.7-1,.7a1.36,1.36,0,0,1-.74-.19l.15-.3a1.17,1.17,0,0,0,.58.15c.36,0,.55-.14.55-.38s-.18-.36-.55-.36h-.2l.19-.65a3.2,3.2,0,0,1-1.7-.51l.29-.45a3,3,0,0,0,1.64.47c.89,0,1.25-.27,1.25-.69,0-1.09-3-.23-3-1.89,0-.69.65-1.2,1.83-1.2a3.44,3.44,0,0,1,1.65.39l-.28.46a2.51,2.51,0,0,0-1.37-.36c-.83,0-1.2.29-1.2.69,0,1.14,3,.28,3,1.9C32,357.87,31.4,358.33,30.31,358.38Z"/><path class="cls-3" d="M37.32,356.24a2.13,2.13,0,0,1-2.27,2.14,2.11,2.11,0,0,1-2.25-2.14c0-.05,0-.11,0-.17h3.88a1.67,1.67,0,0,0-1.82-1.47,1.94,1.94,0,0,0-1.42.55l-.36-.36a2.4,2.4,0,0,1,1.79-.69A2.2,2.2,0,0,1,37.32,356.24Zm-.63.25H33.4a1.67,1.67,0,0,0,3.29,0Z"/><path class="cls-3" d="M40.4,356.23l-1.1.91v1.2h-.62V352.4h.62v4l2.77-2.3h.78l-2,1.72L43,358.34h-.76Z"/><path class="cls-3" d="M45.78,356.23l-1.09.91v1.2h-.63V352.4h.63v4l2.76-2.3h.78l-2,1.72,2.17,2.49h-.77Z"/><path class="cls-3" d="M53.53,354.13v4.21h-.6v-.77a1.88,1.88,0,0,1-1.66.81,1.72,1.72,0,0,1-2-1.81v-2.44h.62v2.38a1.24,1.24,0,0,0,1.4,1.36,1.44,1.44,0,0,0,1.58-1.53v-2.21ZM50.26,353a.36.36,0,0,1,.38-.35A.37.37,0,0,1,51,353a.36.36,0,0,1-.38.34A.35.35,0,0,1,50.26,353Zm1.57,0a.37.37,0,0,1,.38-.35.36.36,0,0,1,.38.35.35.35,0,0,1-.38.34A.36.36,0,0,1,51.83,353Z"/><path class="cls-3" d="M57.71,354.1v.55h-.15A1.43,1.43,0,0,0,56,356.19v2.15h-.62v-4.21H56V355A1.79,1.79,0,0,1,57.71,354.1Z"/><path class="cls-3" d="M66,356.41H62.14A1.66,1.66,0,0,0,64,357.87a1.9,1.9,0,0,0,1.42-.55l.36.37a2.4,2.4,0,0,1-1.79.69,2.21,2.21,0,0,1-2.44-2.15,2.13,2.13,0,0,1,2.27-2.13A2.11,2.11,0,0,1,66,356.23S66,356.35,66,356.41ZM62.14,356h3.29a1.67,1.67,0,0,0-3.29,0Z"/><path class="cls-3" d="M71.62,352.4v5.94H71v-.83a2.08,2.08,0,0,1-1.79.87,2.15,2.15,0,1,1,0-4.28,2.08,2.08,0,0,1,1.76.83V352.4ZM71,356.23a1.72,1.72,0,1,0-1.72,1.64A1.61,1.61,0,0,0,71,356.23Z"/><path class="cls-3" d="M73.34,352.92a.43.43,0,0,1,.85,0,.43.43,0,0,1-.85,0Zm.11,1.21h.62v4.21h-.62Z"/><path class="cls-3" d="M78.24,354.1v.55h-.15a1.42,1.42,0,0,0-1.56,1.55v2.15H75.9v-4.21h.6V355A1.79,1.79,0,0,1,78.24,354.1Z"/><path class="cls-3" d="M83.45,356.24a2.13,2.13,0,0,1-2.26,2.14,2.1,2.1,0,0,1-2.25-2.14c0-.05,0-.11,0-.17h3.88A1.67,1.67,0,0,0,81,354.6a2,2,0,0,0-1.42.55l-.35-.36A2.39,2.39,0,0,1,81,354.1,2.19,2.19,0,0,1,83.45,356.24Zm-.62.25H79.54a1.67,1.67,0,0,0,3.29,0Z"/><path class="cls-3" d="M92.47,355.9v2.44h-.63V356a1.2,1.2,0,0,0-1.33-1.34A1.42,1.42,0,0,0,89,356.13v2.21h-.63V356A1.21,1.21,0,0,0,87,354.61a1.42,1.42,0,0,0-1.55,1.52v2.21h-.63v-4.21h.6v.77a1.93,1.93,0,0,1,1.7-.8,1.68,1.68,0,0,1,1.65.89,2.08,2.08,0,0,1,1.84-.89A1.67,1.67,0,0,1,92.47,355.9Z"/><path class="cls-3" d="M93.85,357.94a.44.44,0,0,1,.46-.43.45.45,0,0,1,.48.43.47.47,0,0,1-.48.44A.45.45,0,0,1,93.85,357.94Z"/><path class="cls-3" d="M98.73,357.66l.26-.46a3.24,3.24,0,0,0,2,.68c1.15,0,1.66-.44,1.66-1,0-1.54-3.8-.59-3.8-2.66,0-.83.7-1.54,2.27-1.54a3.74,3.74,0,0,1,1.91.5l-.22.47a3.41,3.41,0,0,0-1.69-.46c-1.13,0-1.63.45-1.63,1,0,1.54,3.8.61,3.8,2.65,0,.82-.72,1.52-2.3,1.52A3.59,3.59,0,0,1,98.73,357.66Z"/><path class="cls-3" d="M104.59,352.92a.43.43,0,0,1,.85,0,.43.43,0,0,1-.85,0Zm.11,1.21h.62v4.21h-.62Z"/><path class="cls-3" d="M110.43,357.87v.47h-3.78V358l2.92-3.35H106.7v-.48h3.67v.38l-2.92,3.36Z"/><path class="cls-3" d="M115.89,352.4v5.94h-.6v-.83a2.07,2.07,0,0,1-1.79.87,2.15,2.15,0,1,1,0-4.28,2.12,2.12,0,0,1,1.77.83V352.4Zm-.61,3.83a1.73,1.73,0,1,0-1.72,1.64A1.61,1.61,0,0,0,115.28,356.23Z"/><path class="cls-3" d="M121.77,356.24a2.13,2.13,0,0,1-2.27,2.14,2.11,2.11,0,0,1-2.25-2.14c0-.05,0-.11,0-.17h3.88a1.67,1.67,0,0,0-1.82-1.47,1.94,1.94,0,0,0-1.42.55l-.36-.36a2.41,2.41,0,0,1,1.8-.69A2.2,2.2,0,0,1,121.77,356.24Zm-.63.25h-3.29a1.67,1.67,0,0,0,3.29,0Z"/><path class="cls-3" d="M127.4,355.9v2.44h-.63V356a1.23,1.23,0,0,0-1.39-1.34,1.45,1.45,0,0,0-1.62,1.52v2.21h-.63v-4.21h.6v.78a2,2,0,0,1,1.76-.81A1.7,1.7,0,0,1,127.4,355.9Z"/><path class="cls-3" d="M139.83,355.9v2.44h-.63V356a1.2,1.2,0,0,0-1.33-1.34,1.42,1.42,0,0,0-1.55,1.52v2.21h-.63V356a1.21,1.21,0,0,0-1.34-1.34,1.42,1.42,0,0,0-1.55,1.52v2.21h-.63v-4.21h.6v.77a1.93,1.93,0,0,1,1.71-.8,1.67,1.67,0,0,1,1.64.89,2.08,2.08,0,0,1,1.84-.89A1.67,1.67,0,0,1,139.83,355.9Z"/><path class="cls-3" d="M145.79,354.13v4.21h-.6v-.77a1.88,1.88,0,0,1-1.66.81,1.72,1.72,0,0,1-2-1.81v-2.44h.62v2.38a1.24,1.24,0,0,0,1.4,1.36,1.44,1.44,0,0,0,1.58-1.53v-2.21ZM142.52,353a.36.36,0,0,1,.38-.35.37.37,0,0,1,.38.35.36.36,0,0,1-.38.34A.35.35,0,0,1,142.52,353Zm1.57,0a.37.37,0,0,1,.38-.35.36.36,0,0,1,.38.35.35.35,0,0,1-.38.34A.36.36,0,0,1,144.09,353Z"/><path class="cls-3" d="M147,357.86l.28-.45a3,3,0,0,0,1.65.47c.88,0,1.24-.27,1.24-.69,0-1.09-3-.23-3-1.89,0-.69.66-1.2,1.84-1.2a3.4,3.4,0,0,1,1.64.39l-.27.46a2.56,2.56,0,0,0-1.37-.36c-.84,0-1.21.29-1.21.69,0,1.14,3,.28,3,1.9,0,.73-.71,1.2-1.92,1.2A3.34,3.34,0,0,1,147,357.86Z"/><path class="cls-3" d="M156.73,356.23a2.15,2.15,0,0,1-2.32,2.15,2.09,2.09,0,0,1-1.79-.87v.83H152V352.4h.63v2.53a2.1,2.1,0,0,1,1.76-.83A2.14,2.14,0,0,1,156.73,356.23Zm-.63,0a1.73,1.73,0,1,0-1.73,1.64A1.62,1.62,0,0,0,156.1,356.23Z"/><path class="cls-3" d="M162.13,356.24a2.13,2.13,0,0,1-2.26,2.14,2.1,2.1,0,0,1-2.25-2.14c0-.05,0-.11,0-.17h3.88a1.68,1.68,0,0,0-1.83-1.47,2,2,0,0,0-1.42.55l-.35-.36a2.39,2.39,0,0,1,1.79-.69A2.19,2.19,0,0,1,162.13,356.24Zm-.62.25h-3.29a1.67,1.67,0,0,0,3.29,0Z"/><path class="cls-3" d="M165.94,358.08a1.61,1.61,0,0,1-1,.3c-.88,0-1.36-.45-1.36-1.23v-2.54h-.83v-.48h.83v-.92h.62v.92h1.42v.48h-1.42v2.51a.71.71,0,0,0,.81.77,1,1,0,0,0,.68-.22Z"/><path class="cls-3" d="M173.1,358.34l-1.47-1.76-1.48,1.76h-.71l1.83-2.16-1.74-2.05h.7l1.4,1.65,1.39-1.65h.69L172,356.18l1.85,2.16Z"/><path class="cls-3" d="M178.82,356.24a2.13,2.13,0,0,1-2.27,2.14,2.1,2.1,0,0,1-2.25-2.14c0-.05,0-.11,0-.17h3.88a1.67,1.67,0,0,0-1.83-1.47,2,2,0,0,0-1.42.55l-.35-.36a2.4,2.4,0,0,1,1.79-.69A2.2,2.2,0,0,1,178.82,356.24Zm-.63.25H174.9a1.67,1.67,0,0,0,3.29,0Z"/><path class="cls-3" d="M184.88,356.23a2.15,2.15,0,0,1-2.31,2.15,2.08,2.08,0,0,1-1.79-.87v.83h-.6V352.4h.62v2.53a2.12,2.12,0,0,1,1.77-.83A2.14,2.14,0,0,1,184.88,356.23Zm-.63,0a1.73,1.73,0,1,0-1.73,1.64A1.62,1.62,0,0,0,184.25,356.23Z"/><path class="cls-3" d="M190.28,356.24a2.13,2.13,0,0,1-2.26,2.14,2.1,2.1,0,0,1-2.25-2.14c0-.05,0-.11,0-.17h3.88a1.67,1.67,0,0,0-1.83-1.47,2,2,0,0,0-1.42.55l-.35-.36a2.4,2.4,0,0,1,1.79-.69A2.19,2.19,0,0,1,190.28,356.24Zm-.62.25h-3.29a1.67,1.67,0,0,0,3.29,0Z"/><path class="cls-3" d="M194,354.1v.55h-.15a1.42,1.42,0,0,0-1.56,1.55v2.15h-.63v-4.21h.6V355A1.8,1.8,0,0,1,194,354.1Z"/><path class="cls-3" d="M201.76,355.73v2.61h-.6v-.66a1.82,1.82,0,0,1-1.6.7c-1.05,0-1.69-.5-1.69-1.23s.45-1.19,1.79-1.19h1.47v-.25c0-.72-.45-1.11-1.31-1.11a2.56,2.56,0,0,0-1.55.49l-.28-.42a3.16,3.16,0,0,1,1.89-.57C201.08,354.1,201.76,354.64,201.76,355.73Zm-.63,1.34v-.68h-1.46c-.9,0-1.19.32-1.19.75s.44.79,1.18.79A1.49,1.49,0,0,0,201.13,357.07Z"/><path class="cls-3" d="M203.54,352.4h.62v5.94h-.62Z"/><path class="cls-3" d="M213.65,355.9v2.44H213V356a1.2,1.2,0,0,0-1.33-1.34,1.42,1.42,0,0,0-1.55,1.52v2.21h-.63V356a1.21,1.21,0,0,0-1.34-1.34,1.42,1.42,0,0,0-1.55,1.52v2.21H206v-4.21h.6v.77a1.93,1.93,0,0,1,1.7-.8,1.68,1.68,0,0,1,1.65.89,2.08,2.08,0,0,1,1.84-.89A1.67,1.67,0,0,1,213.65,355.9Z"/><path class="cls-3" d="M218.93,355.73v2.61h-.6v-.66a1.8,1.8,0,0,1-1.59.7c-1.05,0-1.7-.5-1.7-1.23s.46-1.19,1.79-1.19h1.48v-.25c0-.72-.45-1.11-1.32-1.11a2.53,2.53,0,0,0-1.54.49l-.28-.42a3.11,3.11,0,0,1,1.88-.57C218.25,354.1,218.93,354.64,218.93,355.73Zm-.62,1.34v-.68h-1.46c-.9,0-1.19.32-1.19.75s.43.79,1.17.79A1.5,1.5,0,0,0,218.31,357.07Z"/><path class="cls-3" d="M225,354.13v5.76h-.63v-2.34a2.1,2.1,0,0,1-1.76.83,2.15,2.15,0,1,1,0-4.28,2.09,2.09,0,0,1,1.79.86v-.83Zm-.62,2.1a1.73,1.73,0,1,0-1.72,1.64A1.62,1.62,0,0,0,224.35,356.23Z"/><path class="cls-3" d="M24.21,363.4v5.94h-.6v-.83a2.08,2.08,0,0,1-1.79.87,2.15,2.15,0,1,1,0-4.28,2.1,2.1,0,0,1,1.76.83V363.4Zm-.62,3.83a1.61,1.61,0,0,0-1.72-1.63,1.64,1.64,0,1,0,0,3.27A1.61,1.61,0,0,0,23.59,367.23Z"/><path class="cls-3" d="M25.85,363.92a.4.4,0,0,1,.42-.39.39.39,0,1,1,0,.77A.4.4,0,0,1,25.85,363.92Zm.11,1.21h.62v4.21H26Z"/><path class="cls-3" d="M28.33,363.4H29v5.94h-.62Z"/><path class="cls-3" d="M34.75,367.24a2.13,2.13,0,0,1-2.27,2.14,2.11,2.11,0,0,1-2.25-2.14c0-.05,0-.11,0-.17h3.88a1.67,1.67,0,0,0-1.82-1.47,1.94,1.94,0,0,0-1.42.55l-.36-.36a2.41,2.41,0,0,1,1.8-.69A2.2,2.2,0,0,1,34.75,367.24Zm-.63.25H30.83a1.67,1.67,0,0,0,3.29,0Z"/><path class="cls-3" d="M39.8,365.13l-2.32,4.71a1.59,1.59,0,0,1-1.55,1.09,1.69,1.69,0,0,1-1.13-.39l.29-.42a1.23,1.23,0,0,0,.85.32c.42,0,.7-.18,1-.7l.21-.41L35,365.13h.66l1.74,3.57,1.75-3.57Z"/><path class="cls-3" d="M40.57,363.92a.43.43,0,0,1,.85,0,.43.43,0,0,1-.85,0Zm.11,1.21h.62v4.21h-.62Z"/><path class="cls-3" d="M45.26,363.92a.42.42,0,1,1,.42.38A.4.4,0,0,1,45.26,363.92Zm.1,1.21H46v4.21h-.63Z"/><path class="cls-3" d="M47.73,363.4h.63v5.94h-.63Z"/><path class="cls-3" d="M54.16,367.24a2.14,2.14,0,0,1-2.27,2.14,2.1,2.1,0,0,1-2.25-2.14c0-.05,0-.11,0-.17h3.88a1.67,1.67,0,0,0-1.83-1.47,2,2,0,0,0-1.42.55l-.35-.36a2.4,2.4,0,0,1,1.79-.69A2.2,2.2,0,0,1,54.16,367.24Zm-.63.25H50.24a1.67,1.67,0,0,0,3.29,0Z"/><path class="cls-3" d="M54.9,368.94a.44.44,0,0,1,.46-.43.45.45,0,0,1,.48.43.47.47,0,0,1-.48.44A.45.45,0,0,1,54.9,368.94Z"/><path class="cls-3" d="M25.27,385.74v5.6h-.65v-2.59H20.76v2.59h-.65v-5.6h.65v2.49h3.86v-2.49Z"/><path class="cls-3" d="M26.68,389.23A2.18,2.18,0,0,1,29,387.1a2.15,2.15,0,1,1,0,4.28A2.19,2.19,0,0,1,26.68,389.23Zm4.08,0A1.73,1.73,0,1,0,29,390.87,1.61,1.61,0,0,0,30.76,389.23ZM27.87,386a.36.36,0,0,1,.38-.35.37.37,0,0,1,.38.35.36.36,0,0,1-.38.34A.35.35,0,0,1,27.87,386Zm1.57,0a.37.37,0,0,1,.38-.35.36.36,0,0,1,.38.35.35.35,0,0,1-.38.34A.36.36,0,0,1,29.44,386Z"/><path class="cls-3" d="M35,387.1v.55h-.15a1.42,1.42,0,0,0-1.56,1.55v2.15h-.62v-4.21h.6V388A1.78,1.78,0,0,1,35,387.1Z"/><path class="cls-3" d="M43.8,388.9v2.44h-.63V389a1.2,1.2,0,0,0-1.33-1.34,1.42,1.42,0,0,0-1.55,1.52v2.21h-.63V389a1.21,1.21,0,0,0-1.34-1.34,1.42,1.42,0,0,0-1.55,1.52v2.21h-.63v-4.21h.6v.77a1.93,1.93,0,0,1,1.7-.8,1.68,1.68,0,0,1,1.65.89,2.08,2.08,0,0,1,1.84-.89A1.67,1.67,0,0,1,43.8,388.9Z"/><path class="cls-3" d="M49.57,389.24a2.13,2.13,0,0,1-2.27,2.14,2.11,2.11,0,0,1-2.25-2.14c0-.05,0-.11,0-.17h3.88a1.67,1.67,0,0,0-1.82-1.47,1.94,1.94,0,0,0-1.42.55l-.36-.36a2.4,2.4,0,0,1,1.79-.69A2.2,2.2,0,0,1,49.57,389.24Zm-.63.25H45.65a1.67,1.67,0,0,0,3.29,0Z"/><path class="cls-3" d="M53.29,391.08a1.61,1.61,0,0,1-1,.3c-.87,0-1.36-.45-1.36-1.23v-2.54h-.83v-.48H51v-.92h.63v.92H53v.48H51.58v2.51a.71.71,0,0,0,.8.77,1.08,1.08,0,0,0,.69-.22Z"/><path class="cls-3" d="M54.43,385.4h.62v5.94h-.62Z"/><path class="cls-3" d="M60.85,389.24a2.13,2.13,0,0,1-2.27,2.14,2.11,2.11,0,0,1-2.25-2.14c0-.05,0-.11,0-.17h3.88a1.67,1.67,0,0,0-1.82-1.47,1.94,1.94,0,0,0-1.42.55l-.36-.36a2.4,2.4,0,0,1,1.79-.69A2.2,2.2,0,0,1,60.85,389.24Zm-.63.25H56.93a1.67,1.67,0,0,0,3.29,0Z"/><path class="cls-3" d="M62.53,390.94a1.15,1.15,0,0,1-.12.46L62,392.5h-.42l.3-1.16a.4.4,0,0,1-.32-.4.47.47,0,0,1,.93,0Z"/><text class="cls-91" transform="translate(20.96 452.48)">DİL BİLİK<tspan class="cls-94" x="70.49" y="0">L</tspan><tspan class="cls-69" x="79.2" y="0">Ə</tspan><tspan class="cls-95" x="90.92" y="0">R</tspan><tspan x="101.43" y="0">İ</tspan></text><text class="cls-96" transform="translate(20.96 490.35)"><tspan class="cls-97">T</tspan><tspan x="5.87" y="0">ü</tspan><tspan class="cls-98" x="12.8" y="0">r</tspan><tspan class="cls-99" x="16.92" y="0">k</tspan><tspan class="cls-100" x="23" y="0">c</tspan><tspan x="28.75" y="0">ə</tspan></text><rect class="cls-101" x="20.96" y="494.73" width="190.16" height="7.1"/><text class="cls-96" transform="translate(20.96 527.48)">İ<tspan class="cls-102" x="3.17" y="0">n</tspan><tspan class="cls-103" x="10.17" y="0">gilis</tspan><tspan class="cls-100" x="30.91" y="0">c</tspan><tspan class="cls-103" x="36.67" y="0">ə</tspan></text><rect class="cls-101" x="20.96" y="531.86" width="190.16" height="7.1"/><text class="cls-96" transform="translate(20.96 564.61)">Rusca</text><rect class="cls-101" x="20.96" y="568.99" width="190.16" height="7.1"/><polygon class="cls-104" points="187.15 555.44 187.15 568.99 20.96 568.99 20.96 576.1 182.19 576.1 208.59 576.1 208.59 568.99 208.59 555.44 187.15 555.44"/><polygon class="cls-104" points="177.52 518.31 177.52 531.86 20.96 531.86 20.96 538.96 172.56 538.96 198.95 538.96 198.95 531.86 198.95 518.31 177.52 518.31"/><polygon class="cls-104" points="154.8 481.18 154.8 494.73 20.96 494.73 20.96 501.83 149.84 501.83 176.24 501.83 176.24 494.73 176.24 481.18 154.8 481.18"/><text class="cls-105" transform="translate(157.71 490.35)"><tspan class="cls-106">7</tspan><tspan class="cls-107" x="3.9" y="0">5</tspan><tspan x="7.7" y="0">%</tspan></text><text class="cls-105" transform="translate(180.43 527.48)">90%</text><text class="cls-105" transform="translate(190.06 564.61)">99%</text><text class="cls-34" transform="translate(21.45 666.85)">P<tspan class="cls-108" x="10" y="0">R</tspan><tspan x="20.2" y="0">OQRAM</tspan></text><text class="cls-109" transform="translate(20.96 701.41)"><tspan class="cls-110">W</tspan><tspan x="10.86" y="0">o</tspan><tspan class="cls-111" x="17.29" y="0">r</tspan><tspan x="21.33" y="0">d</tspan></text><rect class="cls-101" x="20.96" y="705.76" width="188.45" height="7.04"/><text class="cls-109" transform="translate(20.96 738.21)"><tspan class="cls-112">E</tspan><tspan class="cls-113" x="6.67" y="0">x</tspan><tspan class="cls-114" x="12.08" y="0">c</tspan><tspan x="17.79" y="0">el</tspan></text><rect class="cls-101" x="20.96" y="742.55" width="188.45" height="7.04"/><text class="cls-109" transform="translate(20.96 775.01)"><tspan class="cls-111">P</tspan><tspan class="cls-115" x="7.2" y="0">ow</tspan><tspan x="22.44" y="0">e</tspan><tspan class="cls-112" x="28.65" y="0">rP</tspan><tspan x="39.88" y="0">oint</tspan></text><rect class="cls-101" x="20.96" y="779.35" width="188.45" height="7.04"/><polygon class="cls-104" points="185.65 765.92 185.65 779.35 20.96 779.35 20.96 786.39 180.74 786.39 206.9 786.39 206.9 779.35 206.9 765.92 185.65 765.92"/><polygon class="cls-104" points="176.1 729.13 176.1 742.55 20.96 742.55 20.96 749.59 171.19 749.59 197.35 749.59 197.35 742.55 197.35 729.13 176.1 729.13"/><polygon class="cls-104" points="153.6 692.33 153.6 705.75 20.96 705.75 20.96 712.79 148.68 712.79 174.84 712.79 174.84 705.75 174.84 692.33 153.6 692.33"/><text class="cls-116" transform="translate(156.48 701.42)"><tspan class="cls-117">7</tspan><tspan class="cls-118" x="3.87" y="0">5</tspan><tspan x="7.63" y="0">%</tspan></text><text class="cls-116" transform="translate(178.99 738.21)">90%</text><text class="cls-116" transform="translate(188.54 775.01)">99%</text><text class="cls-109" transform="translate(20.96 806.31)">Outlook</text><rect class="cls-101" x="20.96" y="810.65" width="188.45" height="7.04"/><polygon class="cls-104" points="185.65 797.22 185.65 810.64 20.96 810.64 20.96 817.68 180.74 817.68 206.9 817.68 206.9 810.64 206.9 797.22 185.65 797.22"/><text class="cls-116" transform="translate(188.54 806.31)">99%</text><text class="cls-119" transform="translate(483.66 69.27)">R<tspan class="cls-120" x="17.36" y="0">ESUME</tspan></text></g></svg>