<svg xmlns="http://www.w3.org/2000/svg" xmlns:xlink="http://www.w3.org/1999/xlink" viewBox="0 0 595.28 841.89"><defs><style>.cls-1,.cls-11,.cls-41,.cls-42,.cls-50,.cls-55,.cls-56,.cls-57{fill:none;}.cls-2{clip-path:url(#clip-path);}.cls-100,.cls-3,.cls-51,.cls-58,.cls-62,.cls-77,.cls-87,.cls-92{fill:#fafaf9;}.cls-4{fill:#a28a6c;}.cls-5{fill:#14abdf;}.cls-6{fill:#104b89;}.cls-43,.cls-7{font-size:17.67px;fill:#11172d;}.cls-43,.cls-51,.cls-7{font-family:Averta-ExtraBold, Averta;font-weight:800;}.cls-44,.cls-7{letter-spacing:0.02em;}.cls-43,.cls-8{letter-spacing:-0.02em;}.cls-9{letter-spacing:0em;}.cls-10{letter-spacing:0.01em;}.cls-11{stroke:#141b31;stroke-width:0.4px;}.cls-11,.cls-41,.cls-42,.cls-50,.cls-55,.cls-56,.cls-57{stroke-miterlimit:10;}.cls-12{font-size:12.23px;font-family:Montserrat-Bold, Montserrat;font-weight:700;}.cls-12,.cls-17,.cls-34{fill:#141b31;}.cls-13{letter-spacing:-0.01em;}.cls-14{letter-spacing:0em;}.cls-15{letter-spacing:-0.02em;}.cls-16{letter-spacing:-0.01em;}.cls-17{font-size:8.9px;}.cls-17,.cls-34{font-family:Montserrat-Regular, Montserrat;}.cls-18{letter-spacing:-0.02em;}.cls-19{letter-spacing:-0.01em;}.cls-20{letter-spacing:0em;}.cls-21{letter-spacing:-0.01em;}.cls-22{letter-spacing:-0.01em;}.cls-23{letter-spacing:0em;}.cls-24{letter-spacing:-0.01em;}.cls-25{letter-spacing:-0.02em;}.cls-26{letter-spacing:-0.01em;}.cls-27{letter-spacing:-0.01em;}.cls-28{letter-spacing:0em;}.cls-29{letter-spacing:-0.02em;}.cls-30{letter-spacing:0.02em;}.cls-31{letter-spacing:-0.01em;}.cls-32{letter-spacing:-0.01em;}.cls-33{letter-spacing:-0.02em;}.cls-34{font-size:7.41px;}.cls-35{letter-spacing:-0.02em;}.cls-36{letter-spacing:-0.01em;}.cls-37{letter-spacing:0em;}.cls-38{letter-spacing:0em;}.cls-39{letter-spacing:-0.02em;}.cls-40{letter-spacing:-0.01em;}.cls-41,.cls-42,.cls-50{stroke:#11172d;}.cls-42{stroke-dasharray:7.04 7.04;}.cls-45{letter-spacing:-0.02em;}.cls-46{letter-spacing:-0.02em;}.cls-47{letter-spacing:0em;}.cls-48{letter-spacing:-0.02em;}.cls-49{letter-spacing:-0.03em;}.cls-50{stroke-dasharray:7.12 7.12;}.cls-51,.cls-58{font-size:15.89px;}.cls-51,.cls-61{letter-spacing:0.02em;}.cls-52{letter-spacing:-0.02em;}.cls-53,.cls-58{letter-spacing:0.02em;}.cls-54{letter-spacing:-0.02em;}.cls-55,.cls-56,.cls-57{stroke:#fafaf9;}.cls-56{stroke-dasharray:7.29 7.29;}.cls-57{stroke-dasharray:7;}.cls-58{font-family:Averta-Semibold, Averta;}.cls-58,.cls-69,.cls-84{font-weight:600;}.cls-59{letter-spacing:-0.01em;}.cls-60{letter-spacing:0.02em;}.cls-62{font-size:9.33px;}.cls-62,.cls-77,.cls-92{font-family:Montserrat-Medium, Montserrat;font-weight:500;}.cls-63{letter-spacing:-0.01em;}.cls-64{letter-spacing:-0.01em;}.cls-65{letter-spacing:-0.02em;}.cls-66{letter-spacing:-0.01em;}.cls-67{letter-spacing:0em;}.cls-68{letter-spacing:0em;}.cls-69{font-size:6.03px;}.cls-69,.cls-84{fill:#108cb8;font-family:Montserrat-SemiBold, Montserrat;}.cls-70{letter-spacing:-0.02em;}.cls-71{letter-spacing:-0.01em;}.cls-72{letter-spacing:0em;}.cls-73{letter-spacing:-0.01em;}.cls-74{letter-spacing:-0.01em;}.cls-75{letter-spacing:-0.02em;}.cls-76{letter-spacing:0em;}.cls-77{font-size:9.33px;}.cls-78{letter-spacing:-0.05em;}.cls-79{letter-spacing:0em;}.cls-80{letter-spacing:-0.01em;}.cls-81{letter-spacing:-0.02em;}.cls-82{letter-spacing:-0.01em;}.cls-83{letter-spacing:-0.02em;}.cls-84{font-size:6.03px;}.cls-85{letter-spacing:-0.02em;}.cls-86{letter-spacing:-0.01em;}.cls-87{font-size:18px;font-family:Nivea;}.cls-88{letter-spacing:-0.02em;}.cls-89{letter-spacing:0em;}.cls-90{letter-spacing:-0.03em;}.cls-91{letter-spacing:-0.06em;}.cls-92{font-size:8px;}.cls-93{letter-spacing:-0.01em;}.cls-94{letter-spacing:0em;}.cls-95{letter-spacing:-0.01em;}.cls-96{letter-spacing:-0.01em;}.cls-97{letter-spacing:0em;}.cls-98{clip-path:url(#clip-path-2);}.cls-99{fill:#fff;}.cls-100{font-size:10px;font-family:Averta-Light, Averta;font-weight:300;letter-spacing:0.02em;}.cls-101{letter-spacing:0.01em;}.cls-102{letter-spacing:0.01em;}.cls-103{letter-spacing:0em;}.cls-104{letter-spacing:0.02em;}.cls-105{letter-spacing:0em;}.cls-106{letter-spacing:0em;}</style><clipPath id="clip-path"><rect class="cls-1" x="1040.3" y="73.65" width="157.29" height="157.29"/></clipPath><clipPath id="clip-path-2"><rect class="cls-1" x="41.3" y="57.72" width="95.43" height="95.43"/></clipPath></defs><g id="PRINT"><rect class="cls-3" width="595.28" height="841.89"/><rect class="cls-4" width="595.28" height="841.89"/><rect class="cls-3" x="13.98" y="19.77" width="567.32" height="802.36"/><rect class="cls-5" x="13.98" y="19.77" width="203.84" height="802.36"/><rect class="cls-6" x="13.98" y="57.72" width="533.04" height="95.43"/><text class="cls-7" transform="translate(238.37 206.6)">İŞ <tspan class="cls-8" x="20.75" y="0">T</tspan><tspan x="30.71" y="0">ƏC</tspan><tspan class="cls-9" x="56.63" y="0">R</tspan><tspan x="68.07" y="0">Ü</tspan><tspan class="cls-10" x="80.75" y="0">B</tspan><tspan x="92.09" y="0">ƏSİ</tspan></text><line class="cls-11" x1="243.45" y1="226.96" x2="243.45" y2="455.8"/><circle class="cls-5" cx="243.45" cy="236.81" r="5.08"/><circle class="cls-5" cx="243.45" cy="364.72" r="5.08"/><line class="cls-11" x1="243.45" y1="345.29" x2="542.9" y2="345.29"/><line class="cls-11" x1="243.45" y1="455.8" x2="542.9" y2="455.8"/><text class="cls-12" transform="translate(271.06 251.19)">A<tspan class="cls-13" x="9.37" y="0">r</tspan><tspan x="14.55" y="0">az Ma</tspan><tspan class="cls-14" x="51.43" y="0">r</tspan><tspan class="cls-15" x="56.65" y="0">k</tspan><tspan x="64.45" y="0">et</tspan><tspan class="cls-16" x="0" y="15.57">K</tspan><tspan x="8.9" y="15.57">assir</tspan></text><text class="cls-17" transform="translate(272.23 281.52)">- Malın d<tspan class="cls-18" x="38.64" y="0">əy</tspan><tspan x="48.57" y="0">ə</tspan><tspan class="cls-19" x="53.94" y="0">r</tspan><tspan x="57.44" y="0">inin </tspan><tspan class="cls-20" x="76.6" y="0">h</tspan><tspan x="82.64" y="0">esablanması </tspan><tspan class="cls-21" x="141.06" y="0">v</tspan><tspan x="145.75" y="0">ə </tspan><tspan class="cls-22" x="153.45" y="0">k</tspan><tspan x="158.71" y="0">assa ə</tspan><tspan class="cls-23" x="185.61" y="0">m</tspan><tspan x="195.06" y="0">əli</tspan><tspan class="cls-24" x="205.22" y="0">y</tspan><tspan class="cls-25" x="210" y="0">y</tspan><tspan x="214.68" y="0">atının </tspan><tspan class="cls-18" x="242.7" y="0">y</tspan><tspan x="247.38" y="0">e</tspan><tspan class="cls-19" x="252.76" y="0">r</tspan><tspan x="256.25" y="0">i</tspan><tspan class="cls-20" x="258.64" y="0">n</tspan><tspan x="264.68" y="0">ə </tspan><tspan class="cls-18" x="0" y="11.12">y</tspan><tspan x="4.69" y="11.12">eti</tspan><tspan class="cls-26" x="16.06" y="11.12">r</tspan><tspan x="19.56" y="11.12">il</tspan><tspan class="cls-20" x="24.35" y="11.12">m</tspan><tspan x="33.8" y="11.12">əsi;</tspan><tspan x="0" y="22.24">- </tspan><tspan class="cls-27" x="5.73" y="22.24">K</tspan><tspan x="11.93" y="22.24">assa </tspan><tspan class="cls-20" x="33.45" y="22.24">h</tspan><tspan x="39.49" y="22.24">esa</tspan><tspan class="cls-28" x="54.46" y="22.24">b</tspan><tspan x="60.47" y="22.24">atını </tspan><tspan class="cls-29" x="82.47" y="22.24">t</tspan><tspan x="85.91" y="22.24">ə</tspan><tspan class="cls-30" x="91.28" y="22.24">r</tspan><tspan x="94.98" y="22.24">tib et</tspan><tspan class="cls-20" x="118.33" y="22.24">m</tspan><tspan x="127.79" y="22.24">ək;</tspan><tspan x="0" y="33.36">- Malın alınması zamanı s</tspan><tspan class="cls-31" x="112" y="33.36">a</tspan><tspan x="117.16" y="33.36">yının, </tspan><tspan class="cls-32" x="143.02" y="33.36">ç</tspan><tspan x="147.95" y="33.36">eşidinin </tspan><tspan class="cls-18" x="185.26" y="33.36">y</tspan><tspan class="cls-33" x="189.94" y="33.36">o</tspan><tspan x="195.35" y="33.36">xlanılmas</tspan></text><text class="cls-34" transform="translate(271.05 239.35)">05<tspan class="cls-35" x="9.1" y="0">/</tspan><tspan class="cls-36" x="11.44" y="0">0</tspan><tspan x="16.27" y="0">3/</tspan><tspan class="cls-37" x="22.93" y="0">2</tspan><tspan class="cls-38" x="27.11" y="0">0</tspan><tspan x="32" y="0">19–</tspan><tspan class="cls-39" x="42.9" y="0">P</tspan><tspan class="cls-40" x="48.05" y="0">r</tspan><tspan x="50.92" y="0">esent</tspan></text><text class="cls-12" transform="translate(271.06 376.56)">A<tspan class="cls-13" x="9.37" y="0">r</tspan><tspan x="14.55" y="0">az Ma</tspan><tspan class="cls-14" x="51.43" y="0">r</tspan><tspan class="cls-15" x="56.65" y="0">k</tspan><tspan x="64.45" y="0">et</tspan><tspan class="cls-16" x="0" y="15.57">K</tspan><tspan x="8.9" y="15.57">assir</tspan></text><text class="cls-17" transform="translate(272.23 406.88)">- Malın d<tspan class="cls-18" x="38.64" y="0">əy</tspan><tspan x="48.57" y="0">ə</tspan><tspan class="cls-19" x="53.94" y="0">r</tspan><tspan x="57.44" y="0">inin </tspan><tspan class="cls-20" x="76.6" y="0">h</tspan><tspan x="82.64" y="0">esablanması </tspan><tspan class="cls-21" x="141.06" y="0">v</tspan><tspan x="145.75" y="0">ə </tspan><tspan class="cls-22" x="153.45" y="0">k</tspan><tspan x="158.71" y="0">assa ə</tspan><tspan class="cls-23" x="185.61" y="0">m</tspan><tspan x="195.06" y="0">əli</tspan><tspan class="cls-24" x="205.22" y="0">y</tspan><tspan class="cls-25" x="210" y="0">y</tspan><tspan x="214.68" y="0">atının </tspan><tspan class="cls-18" x="242.7" y="0">y</tspan><tspan x="247.38" y="0">e</tspan><tspan class="cls-19" x="252.76" y="0">r</tspan><tspan x="256.25" y="0">i</tspan><tspan class="cls-20" x="258.64" y="0">n</tspan><tspan x="264.68" y="0">ə </tspan><tspan class="cls-18" x="0" y="11.12">y</tspan><tspan x="4.69" y="11.12">eti</tspan><tspan class="cls-26" x="16.06" y="11.12">r</tspan><tspan x="19.56" y="11.12">il</tspan><tspan class="cls-20" x="24.35" y="11.12">m</tspan><tspan x="33.8" y="11.12">əsi;</tspan><tspan x="0" y="22.24">- </tspan><tspan class="cls-27" x="5.73" y="22.24">K</tspan><tspan x="11.93" y="22.24">assa </tspan><tspan class="cls-20" x="33.45" y="22.24">h</tspan><tspan x="39.49" y="22.24">esa</tspan><tspan class="cls-28" x="54.46" y="22.24">b</tspan><tspan x="60.47" y="22.24">atını </tspan><tspan class="cls-29" x="82.47" y="22.24">t</tspan><tspan x="85.91" y="22.24">ə</tspan><tspan class="cls-30" x="91.28" y="22.24">r</tspan><tspan x="94.98" y="22.24">tib et</tspan><tspan class="cls-20" x="118.33" y="22.24">m</tspan><tspan x="127.79" y="22.24">ək;</tspan><tspan x="0" y="33.36">- Malın alınması zamanı s</tspan><tspan class="cls-31" x="112" y="33.36">a</tspan><tspan x="117.16" y="33.36">yının, </tspan><tspan class="cls-32" x="143.02" y="33.36">ç</tspan><tspan x="147.95" y="33.36">eşidinin </tspan><tspan class="cls-18" x="185.26" y="33.36">y</tspan><tspan class="cls-33" x="189.94" y="33.36">o</tspan><tspan x="195.35" y="33.36">xlanılmas</tspan></text><text class="cls-34" transform="translate(271.05 364.72)">05<tspan class="cls-35" x="9.1" y="0">/</tspan><tspan class="cls-36" x="11.44" y="0">0</tspan><tspan x="16.27" y="0">3/</tspan><tspan class="cls-37" x="22.93" y="0">2</tspan><tspan class="cls-38" x="27.11" y="0">0</tspan><tspan x="32" y="0">19–</tspan><tspan class="cls-39" x="42.9" y="0">P</tspan><tspan class="cls-40" x="48.05" y="0">r</tspan><tspan x="50.92" y="0">esent</tspan></text><line class="cls-41" x1="238.37" y1="218.39" x2="241.87" y2="218.39"/><line class="cls-42" x1="248.91" y1="218.39" x2="541.19" y2="218.39"/><line class="cls-41" x1="544.71" y1="218.39" x2="548.21" y2="218.39"/><line class="cls-11" x1="248.76" y1="582.02" x2="548.21" y2="582.02"/><text class="cls-43" transform="translate(248.76 498.68)">T<tspan class="cls-44" x="9.96" y="0">ƏHSİL</tspan></text><line class="cls-11" x1="248.76" y1="519.04" x2="248.76" y2="582.02"/><circle class="cls-5" cx="248.76" cy="529.64" r="5.08"/><text class="cls-12" transform="translate(276.37 548.1)">Ba<tspan class="cls-14" x="16.9" y="0">k</tspan><tspan x="24.93" y="0">ı D</tspan><tspan class="cls-45" x="42.17" y="0">ö</tspan><tspan x="50" y="0">vlət Uni</tspan><tspan class="cls-46" x="99.27" y="0">v</tspan><tspan x="106.4" y="0">e</tspan><tspan class="cls-47" x="114.12" y="0">r</tspan><tspan x="119.36" y="0">si</tspan><tspan class="cls-48" x="129.54" y="0">t</tspan><tspan x="134.65" y="0">eti</tspan></text><text class="cls-17" transform="translate(277.55 563.73)"><tspan class="cls-49">T</tspan><tspan x="4.85" y="0">a</tspan><tspan class="cls-19" x="10.1" y="0">r</tspan><tspan x="13.59" y="0">ix </tspan><tspan class="cls-31" x="23.06" y="0">f</tspan><tspan x="25.99" y="0">a</tspan><tspan class="cls-31" x="31.24" y="0">k</tspan><tspan x="36.5" y="0">ü</tspan><tspan class="cls-20" x="42.48" y="0">l</tspan><tspan class="cls-33" x="44.89" y="0">t</tspan><tspan x="48.33" y="0">əsi</tspan></text><text class="cls-34" transform="translate(276.37 531.44)">05<tspan class="cls-35" x="9.1" y="0">/</tspan><tspan class="cls-36" x="11.44" y="0">0</tspan><tspan x="16.27" y="0">3/</tspan><tspan class="cls-37" x="22.93" y="0">2</tspan><tspan class="cls-38" x="27.11" y="0">0</tspan><tspan x="32" y="0">19–</tspan></text><line class="cls-11" x1="248.76" y1="677.53" x2="548.21" y2="677.53"/><line class="cls-11" x1="248.76" y1="579.04" x2="248.76" y2="677.53"/><circle class="cls-5" cx="248.76" cy="612.05" r="5.08"/><text class="cls-12" transform="translate(276.37 631.2)">Ba<tspan class="cls-14" x="16.9" y="0">k</tspan><tspan x="24.93" y="0">ı D</tspan><tspan class="cls-45" x="42.17" y="0">ö</tspan><tspan x="50" y="0">vlət Uni</tspan><tspan class="cls-46" x="99.27" y="0">v</tspan><tspan x="106.4" y="0">e</tspan><tspan class="cls-47" x="114.12" y="0">r</tspan><tspan x="119.36" y="0">si</tspan><tspan class="cls-48" x="129.54" y="0">t</tspan><tspan x="134.65" y="0">eti</tspan></text><text class="cls-17" transform="translate(277.55 646.84)"><tspan class="cls-49">T</tspan><tspan x="4.85" y="0">a</tspan><tspan class="cls-19" x="10.1" y="0">r</tspan><tspan x="13.59" y="0">ix </tspan><tspan class="cls-31" x="23.06" y="0">f</tspan><tspan x="25.99" y="0">a</tspan><tspan class="cls-31" x="31.24" y="0">k</tspan><tspan x="36.5" y="0">ü</tspan><tspan class="cls-20" x="42.48" y="0">l</tspan><tspan class="cls-33" x="44.89" y="0">t</tspan><tspan x="48.33" y="0">əsi</tspan></text><text class="cls-34" transform="translate(276.37 614.55)">05<tspan class="cls-35" x="9.1" y="0">/</tspan><tspan class="cls-36" x="11.44" y="0">0</tspan><tspan x="16.27" y="0">3/</tspan><tspan class="cls-37" x="22.93" y="0">2</tspan><tspan class="cls-38" x="27.11" y="0">0</tspan><tspan x="32" y="0">19–</tspan></text><line class="cls-41" x1="248.15" y1="505.58" x2="251.65" y2="505.58"/><line class="cls-50" x1="258.77" y1="505.58" x2="539.96" y2="505.58"/><line class="cls-41" x1="543.51" y1="505.58" x2="547.01" y2="505.58"/><text class="cls-7" transform="translate(248.76 724.35)">HOBBİ</text><line class="cls-41" x1="248.15" y1="731.25" x2="251.65" y2="731.25"/><line class="cls-50" x1="258.77" y1="731.25" x2="539.96" y2="731.25"/><line class="cls-41" x1="543.51" y1="731.25" x2="547.01" y2="731.25"/><path class="cls-3" d="M30.74,235l.32-.57a4,4,0,0,0,2.54.85c1.45,0,2.08-.55,2.08-1.24,0-1.92-4.76-.74-4.76-3.33,0-1,.89-1.92,2.85-1.92a4.66,4.66,0,0,1,2.39.62l-.27.59a4.29,4.29,0,0,0-2.12-.58c-1.41,0-2,.57-2,1.27,0,1.92,4.75.76,4.75,3.31,0,1-.9,1.91-2.88,1.91A4.44,4.44,0,0,1,30.74,235Z"/><path class="cls-3" d="M38,229.07a.53.53,0,1,1,.53.48A.5.5,0,0,1,38,229.07Zm.13,1.52h.78v5.26h-.78Z"/><path class="cls-3" d="M45.15,235.26v.59H40.43v-.47l3.65-4.19H40.49v-.6h4.59v.47l-3.65,4.2Z"/><path class="cls-3" d="M46.56,229.07a.53.53,0,1,1,.53.48A.5.5,0,0,1,46.56,229.07Zm.13,1.52h.78v5.26h-.78Z"/><path class="cls-3" d="M55,232.8v3h-.79v-3a1.54,1.54,0,0,0-1.74-1.68,1.81,1.81,0,0,0-2,1.9v2.76h-.78v-5.26h.75v1a2.51,2.51,0,0,1,2.2-1A2.12,2.12,0,0,1,55,232.8Z"/><path class="cls-3" d="M62.16,233.21l-1.37,1.14v1.5H60v-7.42h.78v5l3.47-2.87h1l-2.48,2.15,2.71,3.11h-1Z"/><path class="cls-3" d="M66.42,229.07a.5.5,0,0,1,.53-.48.48.48,0,1,1,0,1A.5.5,0,0,1,66.42,229.07Zm.13,1.52h.78v5.26h-.78Z"/><path class="cls-3" d="M79.09,232.8v3h-.78v-3a1.51,1.51,0,0,0-1.67-1.68,1.77,1.77,0,0,0-1.94,1.9v2.76h-.78v-3a1.51,1.51,0,0,0-1.68-1.68,1.78,1.78,0,0,0-1.94,1.9v2.76h-.79v-5.26h.76v1a2.39,2.39,0,0,1,2.12-1,2.14,2.14,0,0,1,2.07,1.11,2.59,2.59,0,0,1,2.29-1.11A2.09,2.09,0,0,1,79.09,232.8Z"/><path class="cls-3" d="M81.08,229.07a.53.53,0,1,1,.53.48A.5.5,0,0,1,81.08,229.07Zm.13,1.52H82v5.26h-.79Z"/><path class="cls-3" d="M92.3,230.59v5.26h-.75v-1a2.38,2.38,0,0,1-2.09,1A2.15,2.15,0,0,1,87,233.64v-3h.79v3a1.54,1.54,0,0,0,1.74,1.69,1.79,1.79,0,0,0,2-1.91v-2.76Z"/><path class="cls-3" d="M99.86,230.59v4.62c0,1.81-1,2.63-2.9,2.63a4.3,4.3,0,0,1-2.7-.81l.39-.54a3.7,3.7,0,0,0,2.29.72c1.46,0,2.14-.61,2.14-1.91v-.67a2.72,2.72,0,0,1-2.26,1,2.56,2.56,0,1,1,2.29-4.05v-1Zm-.76,2.5A2.22,2.22,0,1,0,96.89,235,2,2,0,0,0,99.1,233.09Zm-3.8-4.55h.56c0,.53.5.85,1.12.85s1.1-.32,1.13-.85h.55c0,.8-.75,1.29-1.68,1.29S95.34,229.34,95.3,228.54Z"/><path class="cls-3" d="M107.28,230.59v5.26h-.75v-1a2.38,2.38,0,0,1-2.08,1,2.15,2.15,0,0,1-2.45-2.26v-3h.78v3a1.54,1.54,0,0,0,1.74,1.69,1.8,1.8,0,0,0,2-1.91v-2.76Z"/><path class="cls-3" d="M112.39,230.55v.69h-.18a1.78,1.78,0,0,0-2,1.94v2.68h-.78v-5.26h.75v1A2.24,2.24,0,0,1,112.39,230.55Z"/><path class="cls-3" d="M113.8,228.43h.79v7.42h-.79Z"/><path class="cls-3" d="M122,230.59v5.26h-.75v-1a2.38,2.38,0,0,1-2.09,1,2.15,2.15,0,0,1-2.45-2.26v-3h.79v3a1.54,1.54,0,0,0,1.74,1.69,1.8,1.8,0,0,0,2-1.91v-2.76Z"/><path class="cls-3" d="M133,233.22a2.69,2.69,0,0,1-2.89,2.68,2.58,2.58,0,0,1-2.24-1.09v1h-.75v-7.42h.78v3.16a2.63,2.63,0,0,1,2.21-1A2.68,2.68,0,0,1,133,233.22Zm-.78,0a2.17,2.17,0,1,0-2.17,2.05A2,2,0,0,0,132.18,233.22Z"/><path class="cls-3" d="M134.42,229.07a.53.53,0,1,1,.53.48A.5.5,0,0,1,134.42,229.07Zm.13,1.52h.79v5.26h-.79Z"/><path class="cls-3" d="M140.44,230.55v.69h-.18a1.78,1.78,0,0,0-2,1.94v2.68h-.78v-5.26h.75v1A2.23,2.23,0,0,1,140.44,230.55Z"/><path class="cls-3" d="M146.62,235.9l-.14.47c.61,0,.94.37.94.81s-.51.87-1.24.87a1.71,1.71,0,0,1-.93-.23l.19-.38a1.39,1.39,0,0,0,.72.19c.44,0,.69-.17.69-.47s-.22-.46-.69-.46h-.25l.23-.81a4,4,0,0,1-2.12-.64l.36-.56a3.73,3.73,0,0,0,2.06.59c1.1,0,1.56-.34,1.56-.86,0-1.37-3.77-.29-3.77-2.37,0-.86.82-1.5,2.3-1.5a4.25,4.25,0,0,1,2.05.49l-.34.57a3.22,3.22,0,0,0-1.71-.45c-1.05,0-1.51.37-1.51.87,0,1.42,3.76.35,3.76,2.37C148.78,235.26,148,235.84,146.62,235.9Z"/><path class="cls-3" d="M150.09,229.07a.53.53,0,1,1,.53.48A.5.5,0,0,1,150.09,229.07Zm.13,1.52H151v5.26h-.78Z"/><path class="cls-3" d="M156.11,230.55v.69h-.19a1.78,1.78,0,0,0-1.95,1.94v2.68h-.78v-5.26h.75v1A2.23,2.23,0,0,1,156.11,230.55Z"/><path class="cls-3" d="M159.67,233.21l-1.37,1.14v1.5h-.78v-7.42h.78v5l3.47-2.87h1l-2.48,2.15,2.71,3.11h-1Z"/><path class="cls-3" d="M169,233.23a2.66,2.66,0,0,1-2.84,2.67,2.63,2.63,0,0,1-2.81-2.67c0-.06,0-.14,0-.22h4.86a2.09,2.09,0,0,0-2.29-1.83,2.44,2.44,0,0,0-1.78.69l-.44-.46a3,3,0,0,1,2.24-.86A2.76,2.76,0,0,1,169,233.23Zm-.78.31h-4.12a2.09,2.09,0,0,0,4.12,0Z"/><path class="cls-3" d="M173.63,235.53a2,2,0,0,1-1.22.37c-1.1,0-1.7-.56-1.7-1.53v-3.18h-1v-.6h1v-1.15h.78v1.15h1.77v.6h-1.77v3.14a.88.88,0,0,0,1,1,1.38,1.38,0,0,0,.86-.27Z"/><path class="cls-3" d="M180.14,228.43v7.42h-.75v-1a2.59,2.59,0,0,1-2.24,1.09,2.68,2.68,0,1,1,0-5.35,2.61,2.61,0,0,1,2.2,1v-3.16Zm-.78,4.79a2.16,2.16,0,1,0-2.15,2.05A2,2,0,0,0,179.36,233.22Z"/><path class="cls-3" d="M187.38,233.23a2.83,2.83,0,0,1-5.65,0c0-.06,0-.14,0-.22h4.86a2.09,2.09,0,0,0-2.29-1.83,2.4,2.4,0,0,0-1.77.69l-.44-.46a3,3,0,0,1,2.24-.86A2.76,2.76,0,0,1,187.38,233.23Zm-.78.31h-4.12a2.09,2.09,0,0,0,4.12,0Z"/><path class="cls-3" d="M31.18,244.07a.53.53,0,1,1,.53.48A.5.5,0,0,1,31.18,244.07Zm.13,1.52h.78v5.26h-.78Z"/><path class="cls-3" d="M36.06,250.9l-.13.47c.61,0,.94.37.94.81s-.51.87-1.25.87a1.7,1.7,0,0,1-.92-.23l.18-.38a1.42,1.42,0,0,0,.73.19c.44,0,.69-.17.69-.47s-.23-.46-.69-.46h-.25l.23-.81a4,4,0,0,1-2.12-.64l.35-.56a3.79,3.79,0,0,0,2.07.59c1.1,0,1.55-.34,1.55-.86,0-1.37-3.76-.29-3.76-2.37,0-.86.82-1.5,2.29-1.5A4.29,4.29,0,0,1,38,246l-.35.57a3.17,3.17,0,0,0-1.71-.45c-1,0-1.51.37-1.51.87,0,1.42,3.77.35,3.77,2.37C38.23,250.26,37.43,250.84,36.06,250.9Z"/><path class="cls-3" d="M39.67,243.43h.78v7.42h-.78Z"/><path class="cls-3" d="M47.7,248.23a2.67,2.67,0,0,1-2.84,2.67,2.63,2.63,0,0,1-2.81-2.67c0-.06,0-.14,0-.22h4.85a2.07,2.07,0,0,0-2.28-1.83,2.42,2.42,0,0,0-1.78.69l-.44-.46a3,3,0,0,1,2.24-.86A2.76,2.76,0,0,1,47.7,248.23Zm-.79.31H42.8a2.08,2.08,0,0,0,4.11,0Z"/><path class="cls-3" d="M58.87,247.8v3h-.78v-3a1.51,1.51,0,0,0-1.67-1.68,1.77,1.77,0,0,0-1.94,1.9v2.76h-.79v-3A1.51,1.51,0,0,0,52,246.19a1.78,1.78,0,0,0-1.94,1.9v2.76h-.79v-5.26H50v1a2.42,2.42,0,0,1,2.13-1,2.11,2.11,0,0,1,2.06,1.11,2.61,2.61,0,0,1,2.3-1.11A2.09,2.09,0,0,1,58.87,247.8Z"/><path class="cls-3" d="M66.08,248.23a2.67,2.67,0,0,1-2.84,2.67,2.63,2.63,0,0,1-2.81-2.67c0-.06,0-.14,0-.22h4.85A2.07,2.07,0,0,0,63,246.18a2.42,2.42,0,0,0-1.78.69l-.44-.46a3,3,0,0,1,2.24-.86A2.76,2.76,0,0,1,66.08,248.23Zm-.79.31H61.18a2.08,2.08,0,0,0,4.11,0Z"/><path class="cls-3" d="M69.82,248.21l-1.36,1.14v1.5h-.79v-7.42h.79v5l3.46-2.87h1l-2.48,2.15,2.71,3.11h-1Z"/><path class="cls-3" d="M77.06,244.07a.53.53,0,1,1,.53.48A.5.5,0,0,1,77.06,244.07Zm.13,1.52H78v5.26h-.78Z"/><path class="cls-3" d="M79.35,250.25l.35-.56a3.78,3.78,0,0,0,2.06.59c1.11,0,1.56-.34,1.56-.86,0-1.37-3.76-.29-3.76-2.37,0-.86.81-1.5,2.29-1.5a4.22,4.22,0,0,1,2.05.49l-.34.57a3.2,3.2,0,0,0-1.71-.45c-1,0-1.51.37-1.51.87,0,1.42,3.76.35,3.76,2.37,0,.91-.88,1.5-2.39,1.5A4.14,4.14,0,0,1,79.35,250.25Z"/><path class="cls-3" d="M88.6,250.53a2,2,0,0,1-1.22.37c-1.1,0-1.7-.56-1.7-1.53v-3.18h-1v-.6h1v-1.15h.78v1.15h1.77v.6H86.46v3.14a.89.89,0,0,0,1,1,1.4,1.4,0,0,0,.86-.27Z"/><path class="cls-3" d="M94.88,248.23A2.67,2.67,0,0,1,92,250.9a2.63,2.63,0,0,1-2.81-2.67c0-.06,0-.14,0-.22h4.85a2.08,2.08,0,0,0-2.28-1.83,2.4,2.4,0,0,0-1.78.69l-.44-.46a3,3,0,0,1,2.24-.86A2.76,2.76,0,0,1,94.88,248.23Zm-.79.31H90a2.08,2.08,0,0,0,4.11,0Z"/><path class="cls-3" d="M101.18,245.59l-2.9,5.89a2,2,0,0,1-1.93,1.36,2.1,2.1,0,0,1-1.41-.48l.36-.53a1.53,1.53,0,0,0,1.06.4c.52,0,.87-.22,1.2-.88l.26-.51-2.6-5.25H96l2.19,4.47,2.18-4.47Z"/><path class="cls-3" d="M102.15,244.07a.53.53,0,1,1,.53.48A.5.5,0,0,1,102.15,244.07Zm.13,1.52h.78v5.26h-.78Z"/><path class="cls-3" d="M114.82,247.8v3H114v-3a1.51,1.51,0,0,0-1.67-1.68,1.77,1.77,0,0,0-1.94,1.9v2.76h-.78v-3a1.51,1.51,0,0,0-1.68-1.68,1.78,1.78,0,0,0-1.94,1.9v2.76h-.78v-5.26H106v1a2.42,2.42,0,0,1,2.13-1,2.11,2.11,0,0,1,2.06,1.11,2.6,2.6,0,0,1,2.29-1.11A2.08,2.08,0,0,1,114.82,247.8Z"/><path class="cls-3" d="M116.81,244.07a.51.51,0,0,1,.53-.48.48.48,0,1,1,0,1A.51.51,0,0,1,116.81,244.07Zm.14,1.52h.78v5.26H117Z"/><path class="cls-3" d="M126.89,249.5l.59.36a2.65,2.65,0,0,1-2.27,1h0l-.13.47c.61,0,.94.37.94.81s-.51.87-1.25.87a1.7,1.7,0,0,1-.92-.23l.18-.38a1.42,1.42,0,0,0,.73.19c.44,0,.69-.17.69-.47s-.23-.46-.69-.46h-.25l.24-.83a2.66,2.66,0,0,1-2.5-2.65,2.73,2.73,0,0,1,3-2.67,2.63,2.63,0,0,1,2.27,1l-.59.36a2,2,0,1,0,0,2.55Z"/><path class="cls-3" d="M133.39,247.59v3.26h-.75V250a2.27,2.27,0,0,1-2,.87c-1.31,0-2.12-.62-2.12-1.53s.58-1.49,2.24-1.49h1.84v-.32c0-.9-.56-1.39-1.64-1.39a3.14,3.14,0,0,0-1.93.62l-.35-.53a3.91,3.91,0,0,1,2.36-.71C132.54,245.55,133.39,246.23,133.39,247.59Zm-.79,1.68v-.86h-1.82c-1.12,0-1.49.4-1.49.94s.55,1,1.47,1A1.86,1.86,0,0,0,132.6,249.27Z"/><path class="cls-3" d="M138.57,250.53a2,2,0,0,1-1.23.37c-1.09,0-1.7-.56-1.7-1.53v-3.18h-1v-.6h1v-1.15h.79v1.15h1.76v.6h-1.76v3.14a.88.88,0,0,0,1,1,1.38,1.38,0,0,0,.86-.27Z"/><path class="cls-3" d="M145.07,243.43v7.42h-.75v-1a2.58,2.58,0,0,1-2.24,1.09,2.68,2.68,0,1,1,0-5.35,2.61,2.61,0,0,1,2.21,1v-3.16Zm-.77,4.79a2.16,2.16,0,1,0-2.15,2.05A2,2,0,0,0,144.3,248.22Z"/><path class="cls-3" d="M147.25,245.59H148v5.26h-.79Z"/><path class="cls-3" d="M153.14,245.55v.69H153a1.78,1.78,0,0,0-2,1.94v2.68h-.78v-5.26H151v1A2.23,2.23,0,0,1,153.14,245.55Z"/><path class="cls-3" d="M164.13,247.8v3h-.78v-3a1.51,1.51,0,0,0-1.67-1.68,1.77,1.77,0,0,0-1.94,1.9v2.76H159v-3a1.51,1.51,0,0,0-1.68-1.68,1.78,1.78,0,0,0-1.94,1.9v2.76h-.79v-5.26h.75v1a2.42,2.42,0,0,1,2.13-1,2.14,2.14,0,0,1,2.07,1.11,2.59,2.59,0,0,1,2.29-1.11A2.09,2.09,0,0,1,164.13,247.8Z"/><path class="cls-3" d="M170.63,247.59v3.26h-.75V250a2.26,2.26,0,0,1-2,.87c-1.31,0-2.11-.62-2.11-1.53s.57-1.49,2.24-1.49h1.84v-.32c0-.9-.56-1.39-1.65-1.39a3.16,3.16,0,0,0-1.93.62l-.35-.53a4,4,0,0,1,2.36-.71C169.78,245.55,170.63,246.23,170.63,247.59Zm-.78,1.68v-.86H168c-1.13,0-1.49.4-1.49.94s.54,1,1.47,1A1.87,1.87,0,0,0,169.85,249.27Z"/><path class="cls-3" d="M178.07,245.59v7.2h-.78v-2.93a2.61,2.61,0,0,1-2.21,1,2.68,2.68,0,1,1,0-5.35,2.6,2.6,0,0,1,2.24,1.08v-1Zm-.77,2.63a2.16,2.16,0,1,0-2.15,2.05A2,2,0,0,0,177.3,248.22Z"/><path class="cls-3" d="M31.18,259.07a.53.53,0,1,1,.53.48A.5.5,0,0,1,31.18,259.07Zm.13,1.52h.78v5.26h-.78Z"/><path class="cls-3" d="M33.47,265.25l.35-.56a3.79,3.79,0,0,0,2.07.59c1.1,0,1.55-.34,1.55-.86,0-1.37-3.76-.29-3.76-2.37,0-.86.82-1.5,2.29-1.5A4.29,4.29,0,0,1,38,261l-.35.57a3.17,3.17,0,0,0-1.71-.45c-1,0-1.51.37-1.51.87,0,1.42,3.77.35,3.77,2.37,0,.91-.89,1.5-2.4,1.5A4.14,4.14,0,0,1,33.47,265.25Z"/><path class="cls-3" d="M42.72,265.53a2,2,0,0,1-1.22.37c-1.09,0-1.7-.56-1.7-1.53v-3.18h-1v-.6h1v-1.15h.78v1.15h1.77v.6H40.58v3.14a.89.89,0,0,0,1,1,1.38,1.38,0,0,0,.86-.27Z"/><path class="cls-3" d="M49,263.23a2.66,2.66,0,0,1-2.84,2.67,2.63,2.63,0,0,1-2.81-2.67c0-.06,0-.14,0-.22h4.86a2.09,2.09,0,0,0-2.29-1.83,2.4,2.4,0,0,0-1.77.69l-.45-.46a3,3,0,0,1,2.24-.86A2.76,2.76,0,0,1,49,263.23Zm-.78.31H44.1a2.09,2.09,0,0,0,4.12,0Z"/><path class="cls-3" d="M55.3,260.59l-2.9,5.89a2,2,0,0,1-1.93,1.36,2.1,2.1,0,0,1-1.41-.48l.36-.53a1.53,1.53,0,0,0,1.06.4c.52,0,.87-.22,1.21-.88l.25-.51-2.59-5.25h.81l2.19,4.47,2.18-4.47Z"/><path class="cls-3" d="M56.27,259.07a.53.53,0,1,1,.53.48A.5.5,0,0,1,56.27,259.07Zm.13,1.52h.79v5.26H56.4Z"/><path class="cls-3" d="M62.29,260.55v.69h-.18a1.78,1.78,0,0,0-2,1.94v2.68h-.78v-5.26h.75v1A2.23,2.23,0,0,1,62.29,260.55Z"/><path class="cls-3" d="M68.71,263.23a2.83,2.83,0,0,1-5.65,0c0-.06,0-.14,0-.22h4.86a2.09,2.09,0,0,0-2.29-1.83,2.4,2.4,0,0,0-1.77.69l-.44-.46a3,3,0,0,1,2.24-.86A2.75,2.75,0,0,1,68.71,263.23Zm-.78.31H63.81a2.09,2.09,0,0,0,4.12,0Z"/><path class="cls-3" d="M79.88,262.8v3.05H79.1v-3a1.51,1.51,0,0,0-1.67-1.68,1.77,1.77,0,0,0-1.94,1.9v2.76h-.78v-3A1.51,1.51,0,0,0,73,261.19a1.78,1.78,0,0,0-1.94,1.9v2.76h-.78v-5.26h.75v1a2.42,2.42,0,0,1,2.13-1,2.11,2.11,0,0,1,2.06,1.11,2.6,2.6,0,0,1,2.29-1.11A2.08,2.08,0,0,1,79.88,262.8Z"/><path class="cls-3" d="M82.68,265.35a1.54,1.54,0,0,1-.16.58l-.46,1.38h-.53l.38-1.45a.51.51,0,0,1-.4-.51.59.59,0,0,1,1.17,0Z"/><path class="cls-3" d="M93.11,263.22a2.69,2.69,0,0,1-2.89,2.68A2.59,2.59,0,0,1,88,264.81v1h-.75v-7.42H88v3.16a2.63,2.63,0,0,1,2.21-1A2.68,2.68,0,0,1,93.11,263.22Zm-.78,0a2.17,2.17,0,1,0-2.16,2A2,2,0,0,0,92.33,263.22Z"/><path class="cls-3" d="M99.94,260.59v5.26h-.75v-1a2.38,2.38,0,0,1-2.09,1,2.15,2.15,0,0,1-2.45-2.26v-3.05h.78v3a1.55,1.55,0,0,0,1.75,1.69,1.79,1.79,0,0,0,2-1.91v-2.76Z"/><path class="cls-3" d="M105.05,260.55v.69h-.19a1.78,1.78,0,0,0-2,1.94v2.68h-.78v-5.26h.75v1A2.23,2.23,0,0,1,105.05,260.55Z"/><path class="cls-3" d="M110.83,262.59v3.26h-.75V265a2.27,2.27,0,0,1-2,.87c-1.31,0-2.12-.62-2.12-1.53s.58-1.49,2.24-1.49H110v-.32c0-.9-.56-1.39-1.64-1.39a3.14,3.14,0,0,0-1.93.62l-.35-.53a3.91,3.91,0,0,1,2.36-.71C110,260.55,110.83,261.23,110.83,262.59Zm-.79,1.68v-.86h-1.82c-1.12,0-1.49.4-1.49.94s.55,1,1.47,1A1.86,1.86,0,0,0,110,264.27Z"/><path class="cls-3" d="M118.27,258.43v7.42h-.75v-1a2.58,2.58,0,0,1-2.24,1.09,2.68,2.68,0,1,1,0-5.35,2.63,2.63,0,0,1,2.21,1v-3.16Zm-.77,4.79a2.16,2.16,0,1,0-2.15,2A2,2,0,0,0,117.5,263.22Z"/><path class="cls-3" d="M124.83,262.59v3.26h-.75V265a2.26,2.26,0,0,1-2,.87c-1.31,0-2.11-.62-2.11-1.53s.57-1.49,2.24-1.49h1.84v-.32c0-.9-.57-1.39-1.65-1.39a3.16,3.16,0,0,0-1.93.62l-.35-.53a3.91,3.91,0,0,1,2.36-.71C124,260.55,124.83,261.23,124.83,262.59Zm-.78,1.68v-.86h-1.82c-1.13,0-1.49.4-1.49.94s.54,1,1.47,1A1.87,1.87,0,0,0,124.05,264.27Z"/><path class="cls-3" d="M131.63,265.9l-.13.47c.61.05.94.37.94.81s-.51.87-1.25.87a1.76,1.76,0,0,1-.93-.23l.19-.38a1.4,1.4,0,0,0,.73.19c.44,0,.68-.17.68-.47s-.22-.46-.68-.46h-.25l.23-.81a4,4,0,0,1-2.12-.64l.35-.56a3.79,3.79,0,0,0,2.07.59c1.1,0,1.55-.34,1.55-.86,0-1.37-3.76-.29-3.76-2.37,0-.86.81-1.5,2.29-1.5a4.22,4.22,0,0,1,2.05.49l-.34.57a3.17,3.17,0,0,0-1.71-.45c-1,0-1.51.37-1.51.87,0,1.42,3.76.35,3.76,2.37C133.79,265.26,133,265.84,131.63,265.9Z"/><path class="cls-3" d="M135.1,259.07a.51.51,0,0,1,.53-.48.48.48,0,1,1,0,1A.51.51,0,0,1,135.1,259.07Zm.14,1.52H136v5.26h-.78Z"/><path class="cls-3" d="M141.13,260.55v.69h-.19a1.78,1.78,0,0,0-2,1.94v2.68h-.78v-5.26H139v1A2.25,2.25,0,0,1,141.13,260.55Z"/><path class="cls-3" d="M144.68,263.21l-1.36,1.14v1.5h-.79v-7.42h.79v5l3.46-2.87h1l-2.48,2.15,2.71,3.11h-1Z"/><path class="cls-3" d="M154,263.23a2.83,2.83,0,0,1-5.65,0c0-.06,0-.14,0-.22h4.85a2.09,2.09,0,0,0-2.28-1.83,2.4,2.4,0,0,0-1.78.69l-.44-.46a3,3,0,0,1,2.24-.86A2.75,2.75,0,0,1,154,263.23Zm-.78.31h-4.12a2.09,2.09,0,0,0,4.12,0Z"/><path class="cls-3" d="M158.64,265.53a2,2,0,0,1-1.22.37c-1.09,0-1.7-.56-1.7-1.53v-3.18h-1v-.6h1v-1.15h.78v1.15h1.77v.6H156.5v3.14a.89.89,0,0,0,1,1,1.38,1.38,0,0,0,.86-.27Z"/><path class="cls-3" d="M159.93,259.07a.53.53,0,1,1,.53.48A.5.5,0,0,1,159.93,259.07Zm.13,1.52h.79v5.26h-.79Z"/><path class="cls-3" d="M168.37,262.8v3.05h-.78v-3a1.54,1.54,0,0,0-1.75-1.68,1.82,1.82,0,0,0-2,1.9v2.76H163v-5.26h.75v1a2.52,2.52,0,0,1,2.21-1A2.12,2.12,0,0,1,168.37,262.8Z"/><path class="cls-3" d="M170.36,259.07a.53.53,0,1,1,.53.48A.5.5,0,0,1,170.36,259.07Zm.14,1.52h.78v5.26h-.78Z"/><path class="cls-3" d="M177.55,265.26v.59h-4.72v-.47l3.65-4.19H172.9v-.6h4.59v.47l-3.65,4.2Z"/><path class="cls-3" d="M184.06,263.23a2.66,2.66,0,0,1-2.84,2.67,2.63,2.63,0,0,1-2.81-2.67c0-.06,0-.14,0-.22h4.86a2.09,2.09,0,0,0-2.29-1.83,2.4,2.4,0,0,0-1.77.69l-.44-.46a3,3,0,0,1,2.24-.86A2.76,2.76,0,0,1,184.06,263.23Zm-.78.31h-4.12a2.09,2.09,0,0,0,4.12,0Z"/><path class="cls-3" d="M36.61,273.43v7.42h-.75v-1a2.59,2.59,0,0,1-2.24,1.09,2.68,2.68,0,1,1,0-5.35,2.61,2.61,0,0,1,2.2,1v-3.16Zm-.78,4.79a2.16,2.16,0,1,0-2.15,2A2,2,0,0,0,35.83,278.22Z"/><path class="cls-3" d="M43.85,278.23A2.66,2.66,0,0,1,41,280.9a2.63,2.63,0,0,1-2.81-2.67c0-.06,0-.14,0-.22h4.86a2.09,2.09,0,0,0-2.29-1.83,2.4,2.4,0,0,0-1.77.69l-.45-.46a3,3,0,0,1,2.24-.86A2.76,2.76,0,0,1,43.85,278.23Zm-.78.31H39a2.09,2.09,0,0,0,4.12,0Z"/><path class="cls-3" d="M50.16,275.59l-2.9,5.89a2,2,0,0,1-1.94,1.36,2.1,2.1,0,0,1-1.41-.48l.37-.53a1.52,1.52,0,0,0,1.06.4c.51,0,.87-.22,1.2-.88l.25-.51-2.59-5.25H45l2.19,4.47,2.18-4.47Z"/><path class="cls-3" d="M56.15,278.23a2.66,2.66,0,0,1-2.83,2.67,2.63,2.63,0,0,1-2.81-2.67c0-.06,0-.14,0-.22h4.85a2.09,2.09,0,0,0-2.28-1.83,2.4,2.4,0,0,0-1.78.69l-.44-.46a3,3,0,0,1,2.24-.86A2.75,2.75,0,0,1,56.15,278.23Zm-.78.31H51.26a2.08,2.08,0,0,0,4.11,0Z"/><path class="cls-3" d="M60.67,275.55v.69h-.19a1.78,1.78,0,0,0-1.95,1.94v2.68h-.78v-5.26h.75v1A2.23,2.23,0,0,1,60.67,275.55Z"/><path class="cls-3" d="M70.12,278.23a2.83,2.83,0,0,1-5.65,0c0-.06,0-.14,0-.22h4.86a2.09,2.09,0,0,0-2.29-1.83,2.4,2.4,0,0,0-1.77.69l-.44-.46a3,3,0,0,1,2.24-.86A2.75,2.75,0,0,1,70.12,278.23Zm-.78.31H65.22a2.09,2.09,0,0,0,4.12,0Z"/><path class="cls-3" d="M71.72,273.43h.78v7.42h-.78Z"/><path class="cls-3" d="M79.06,277.59v3.26h-.75V280a2.24,2.24,0,0,1-2,.87c-1.32,0-2.12-.62-2.12-1.53s.57-1.49,2.24-1.49h1.84v-.32c0-.9-.56-1.39-1.64-1.39a3.14,3.14,0,0,0-1.93.62l-.36-.53a4,4,0,0,1,2.36-.71C78.21,275.55,79.06,276.23,79.06,277.59Zm-.78,1.68v-.86H76.46c-1.13,0-1.49.4-1.49.94s.54,1,1.47,1A1.87,1.87,0,0,0,78.28,279.27Z"/><path class="cls-3" d="M86,275.59l-2.58,5.26h-.8L80,275.59h.81L83,280.07l2.19-4.48Z"/><path class="cls-3" d="M92,278.23a2.83,2.83,0,0,1-5.65,0c0-.06,0-.14,0-.22h4.86a2.09,2.09,0,0,0-2.29-1.83,2.4,2.4,0,0,0-1.77.69l-.44-.46a3,3,0,0,1,2.24-.86A2.75,2.75,0,0,1,92,278.23Zm-.78.31H87.05a2.09,2.09,0,0,0,4.12,0Z"/><path class="cls-3" d="M101.49,278.44H96.63a2.09,2.09,0,0,0,2.29,1.83,2.4,2.4,0,0,0,1.77-.69l.45.46a3,3,0,0,1-2.24.86,2.76,2.76,0,0,1-3.05-2.68,2.66,2.66,0,0,1,2.84-2.67,2.63,2.63,0,0,1,2.81,2.67C101.5,278.28,101.49,278.36,101.49,278.44Zm-4.86-.53h4.12a2.09,2.09,0,0,0-4.12,0Z"/><path class="cls-3" d="M108.39,273.43v7.42h-.75v-1a2.58,2.58,0,0,1-2.24,1.09,2.68,2.68,0,1,1,0-5.35,2.63,2.63,0,0,1,2.21,1v-3.16Zm-.77,4.79a2.16,2.16,0,1,0-2.15,2A2,2,0,0,0,107.62,278.22Z"/><path class="cls-3" d="M115.63,278.23a2.66,2.66,0,0,1-2.83,2.67,2.63,2.63,0,0,1-2.81-2.67c0-.06,0-.14,0-.22h4.85a2.08,2.08,0,0,0-2.28-1.83,2.4,2.4,0,0,0-1.78.69l-.44-.46a3,3,0,0,1,2.24-.86A2.75,2.75,0,0,1,115.63,278.23Zm-.78.31h-4.11a2.08,2.08,0,0,0,4.11,0Z"/><path class="cls-3" d="M126,278.22a2.69,2.69,0,0,1-2.89,2.68,2.58,2.58,0,0,1-2.24-1.09v1h-.75v-7.42h.78v3.16a2.63,2.63,0,0,1,2.21-1A2.68,2.68,0,0,1,126,278.22Zm-.78,0a2.17,2.17,0,1,0-2.17,2A2,2,0,0,0,125.22,278.22Z"/><path class="cls-3" d="M127.46,274.07a.53.53,0,1,1,.53.48A.5.5,0,0,1,127.46,274.07Zm.13,1.52h.79v5.26h-.79Z"/><path class="cls-3" d="M130.56,273.43h.78v7.42h-.78Z"/><path class="cls-3" d="M138.59,278.23a2.66,2.66,0,0,1-2.84,2.67,2.63,2.63,0,0,1-2.81-2.67c0-.06,0-.14,0-.22h4.86a2.09,2.09,0,0,0-2.29-1.83,2.4,2.4,0,0,0-1.77.69l-.45-.46a3,3,0,0,1,2.25-.86A2.76,2.76,0,0,1,138.59,278.23Zm-.78.31h-4.12a2.09,2.09,0,0,0,4.12,0Z"/><path class="cls-3" d="M139.6,278.22a2.74,2.74,0,0,1,3-2.67,2.61,2.61,0,0,1,2.27,1l-.58.36a2.21,2.21,0,0,0-3.89,1.27,2.22,2.22,0,0,0,3.89,1.28l.58.36a2.64,2.64,0,0,1-2.27,1A2.75,2.75,0,0,1,139.6,278.22Z"/><path class="cls-3" d="M151.36,278.23a2.67,2.67,0,0,1-2.84,2.67,2.63,2.63,0,0,1-2.81-2.67c0-.06,0-.14,0-.22h4.85a2.07,2.07,0,0,0-2.28-1.83,2.42,2.42,0,0,0-1.78.69l-.44-.46a3,3,0,0,1,2.24-.86A2.76,2.76,0,0,1,151.36,278.23Zm-.79.31h-4.11a2.08,2.08,0,0,0,4.11,0Z"/><path class="cls-3" d="M157.66,275.59l-2.9,5.89a2,2,0,0,1-1.93,1.36,2.1,2.1,0,0,1-1.41-.48l.36-.53a1.53,1.53,0,0,0,1.06.4c.52,0,.87-.22,1.2-.88l.26-.51-2.59-5.25h.81l2.19,4.47,2.18-4.47Z"/><path class="cls-3" d="M158.63,274.07a.53.53,0,1,1,.53.48A.5.5,0,0,1,158.63,274.07Zm.13,1.52h.79v5.26h-.79Z"/><path class="cls-3" d="M171.3,277.8v3.05h-.78v-3a1.51,1.51,0,0,0-1.67-1.68,1.77,1.77,0,0,0-1.94,1.9v2.76h-.78v-3a1.51,1.51,0,0,0-1.68-1.68,1.78,1.78,0,0,0-1.94,1.9v2.76h-.78v-5.26h.75v1a2.42,2.42,0,0,1,2.13-1,2.11,2.11,0,0,1,2.06,1.11,2.61,2.61,0,0,1,2.3-1.11A2.08,2.08,0,0,1,171.3,277.8Z"/><path class="cls-3" d="M178.51,278.23a2.83,2.83,0,0,1-5.65,0c0-.06,0-.14,0-.22h4.85a2.09,2.09,0,0,0-2.28-1.83,2.4,2.4,0,0,0-1.78.69l-.44-.46a3,3,0,0,1,2.24-.86A2.75,2.75,0,0,1,178.51,278.23Zm-.78.31h-4.12a2.09,2.09,0,0,0,4.12,0Z"/><path class="cls-3" d="M33.1,295.9l-.13.47c.6.05.93.37.93.81s-.5.87-1.24.87a1.71,1.71,0,0,1-.93-.23l.19-.38a1.39,1.39,0,0,0,.72.19c.45,0,.69-.17.69-.47s-.22-.46-.69-.46h-.25l.23-.81a3.91,3.91,0,0,1-2.11-.64l.35-.56a3.73,3.73,0,0,0,2.06.59c1.1,0,1.56-.34,1.56-.86,0-1.37-3.77-.29-3.77-2.37,0-.86.82-1.5,2.3-1.5a4.22,4.22,0,0,1,2.05.49l-.34.57a3.22,3.22,0,0,0-1.71-.45c-1,0-1.51.37-1.51.87,0,1.42,3.76.35,3.76,2.37C35.26,295.26,34.47,295.84,33.1,295.9Z"/><path class="cls-3" d="M41.93,290.59v5.26h-.75v-1a2.38,2.38,0,0,1-2.08,1,2.15,2.15,0,0,1-2.45-2.26v-3.05h.78v3a1.54,1.54,0,0,0,1.74,1.69,1.8,1.8,0,0,0,2-1.91v-2.76Zm-4.09-1.47a.45.45,0,0,1,.47-.43.46.46,0,0,1,.48.43.45.45,0,0,1-.48.43A.44.44,0,0,1,37.84,289.12Zm2,0a.46.46,0,0,1,.48-.43.45.45,0,0,1,.47.43.44.44,0,0,1-.47.43A.45.45,0,0,1,39.8,289.12Z"/><path class="cls-3" d="M50,293.22a2.69,2.69,0,0,1-2.89,2.68,2.59,2.59,0,0,1-2.24-1.09v1h-.75v-7.42h.78v3.16a2.63,2.63,0,0,1,2.21-1A2.68,2.68,0,0,1,50,293.22Zm-.78,0a2.17,2.17,0,1,0-2.16,2A2,2,0,0,0,49.22,293.22Z"/><path class="cls-3" d="M56.94,292.8v3.05h-.79v-3a1.54,1.54,0,0,0-1.74-1.68,1.81,1.81,0,0,0-2,1.9v2.76H51.6v-7.42h.78v3.08a2.54,2.54,0,0,1,2.17-1A2.12,2.12,0,0,1,56.94,292.8Z"/><path class="cls-3" d="M64.15,293.23a2.66,2.66,0,0,1-2.84,2.67,2.63,2.63,0,0,1-2.81-2.67c0-.06,0-.14,0-.22h4.86a2.09,2.09,0,0,0-2.29-1.83,2.44,2.44,0,0,0-1.78.69l-.44-.46a3,3,0,0,1,2.24-.86A2.76,2.76,0,0,1,64.15,293.23Zm-.78.31H59.25a2.09,2.09,0,0,0,4.12,0Z"/><path class="cls-3" d="M75.32,292.8v3.05h-.78v-3a1.51,1.51,0,0,0-1.67-1.68,1.77,1.77,0,0,0-1.94,1.9v2.76h-.78v-3a1.51,1.51,0,0,0-1.68-1.68,1.78,1.78,0,0,0-1.94,1.9v2.76h-.79v-5.26h.75v1a2.42,2.42,0,0,1,2.13-1,2.14,2.14,0,0,1,2.07,1.11A2.59,2.59,0,0,1,73,290.55,2.09,2.09,0,0,1,75.32,292.8Z"/><path class="cls-3" d="M85.21,290.59l-2.9,5.89a2,2,0,0,1-1.93,1.36,2.12,2.12,0,0,1-1.42-.48l.37-.53a1.52,1.52,0,0,0,1.06.4c.51,0,.87-.22,1.2-.88l.25-.51-2.59-5.25h.82l2.18,4.47,2.18-4.47Z"/><path class="cls-3" d="M85.56,293.22a3,3,0,1,1,3,2.68A2.73,2.73,0,0,1,85.56,293.22Zm5.1,0a2.16,2.16,0,1,0-2.15,2A2,2,0,0,0,90.66,293.22Z"/><path class="cls-3" d="M96.54,295.85l-1.84-2.2-1.86,2.2H92l2.3-2.7-2.19-2.56H93l1.75,2.06,1.74-2.06h.86l-2.18,2.56,2.31,2.7Z"/><path class="cls-3" d="M103.82,288.43v7.42h-.75v-1a2.59,2.59,0,0,1-2.24,1.09,2.68,2.68,0,1,1,0-5.35,2.61,2.61,0,0,1,2.2,1v-3.16Zm-.77,4.79a2.16,2.16,0,1,0-2.16,2A2,2,0,0,0,103.05,293.22Z"/><path class="cls-3" d="M111.23,290.59v5.26h-.75v-1a2.38,2.38,0,0,1-2.09,1,2.15,2.15,0,0,1-2.45-2.26v-3.05h.79v3a1.54,1.54,0,0,0,1.74,1.69,1.79,1.79,0,0,0,2-1.91v-2.76Z"/><path class="cls-3" d="M116.34,290.55v.69h-.19a1.78,1.78,0,0,0-2,1.94v2.68h-.78v-5.26h.75v1A2.23,2.23,0,0,1,116.34,290.55Z"/><path class="cls-3" d="M117.22,295.35a.56.56,0,0,1,.58-.54.57.57,0,0,1,.6.54.59.59,0,0,1-1.18,0Z"/><path class="cls-3" d="M123.12,288.85h3.14c2.47,0,4.14,1.44,4.14,3.5s-1.67,3.5-4.14,3.5h-3.14Zm3.1,6.36c2.05,0,3.37-1.18,3.37-2.86s-1.32-2.86-3.37-2.86h-2.28v5.72Z"/><path class="cls-3" d="M137.29,290.59v5.26h-.75v-1a2.38,2.38,0,0,1-2.08,1,2.15,2.15,0,0,1-2.45-2.26v-3.05h.78v3a1.54,1.54,0,0,0,1.74,1.69,1.8,1.8,0,0,0,2-1.91v-2.76Zm-4.09-1.47a.45.45,0,0,1,.47-.43.46.46,0,0,1,.48.43.45.45,0,0,1-.48.43A.44.44,0,0,1,133.2,289.12Zm2,0a.46.46,0,0,1,.48-.43.45.45,0,0,1,.47.43.44.44,0,0,1-.47.43A.45.45,0,0,1,135.16,289.12Z"/><path class="cls-3" d="M141.27,295.9l-.13.47c.6.05.93.37.93.81s-.5.87-1.24.87a1.74,1.74,0,0,1-.93-.23l.19-.38a1.4,1.4,0,0,0,.73.19c.44,0,.68-.17.68-.47s-.22-.46-.68-.46h-.26l.23-.81a3.94,3.94,0,0,1-2.11-.64l.35-.56a3.75,3.75,0,0,0,2.06.59c1.1,0,1.56-.34,1.56-.86,0-1.37-3.77-.29-3.77-2.37,0-.86.82-1.5,2.3-1.5a4.22,4.22,0,0,1,2,.49l-.34.57a3.2,3.2,0,0,0-1.71-.45c-1.05,0-1.51.37-1.51.87,0,1.42,3.76.35,3.76,2.37C143.43,295.26,142.64,295.84,141.27,295.9Z"/><path class="cls-3" d="M150.1,290.59v5.26h-.75v-1a2.38,2.38,0,0,1-2.08,1,2.15,2.15,0,0,1-2.45-2.26v-3.05h.78v3a1.54,1.54,0,0,0,1.74,1.69,1.8,1.8,0,0,0,2-1.91v-2.76ZM146,289.12a.45.45,0,0,1,.47-.43.46.46,0,0,1,.48.43.45.45,0,0,1-.48.43A.44.44,0,0,1,146,289.12Zm2,0a.46.46,0,0,1,.48-.43.45.45,0,0,1,.47.43.44.44,0,0,1-.47.43A.45.45,0,0,1,148,289.12Z"/><path class="cls-3" d="M157.63,292.8v3.05h-.78v-3a1.54,1.54,0,0,0-1.74-1.68,1.81,1.81,0,0,0-2,1.9v2.76h-.79v-5.26H153v1a2.53,2.53,0,0,1,2.21-1A2.12,2.12,0,0,1,157.63,292.8Z"/><path class="cls-3" d="M165,290.59v5.26h-.75v-1a2.38,2.38,0,0,1-2.09,1,2.15,2.15,0,0,1-2.45-2.26v-3.05h.79v3a1.54,1.54,0,0,0,1.74,1.69,1.79,1.79,0,0,0,2-1.91v-2.76Zm-4.1-1.47a.48.48,0,1,1,.48.43A.45.45,0,0,1,160.89,289.12Zm2,0a.48.48,0,0,1,.95,0,.48.48,0,0,1-.95,0Z"/><path class="cls-3" d="M170.1,290.55v.69h-.19a1.78,1.78,0,0,0-1.95,1.94v2.68h-.78v-5.26h.75v1A2.23,2.23,0,0,1,170.1,290.55Z"/><path class="cls-3" d="M176.52,293.23a2.66,2.66,0,0,1-2.84,2.67,2.63,2.63,0,0,1-2.81-2.67c0-.06,0-.14,0-.22h4.86a2.09,2.09,0,0,0-2.29-1.83,2.4,2.4,0,0,0-1.77.69l-.45-.46a3,3,0,0,1,2.24-.86A2.76,2.76,0,0,1,176.52,293.23Zm-.78.31h-4.12a2.09,2.09,0,0,0,4.12,0Z"/><path class="cls-3" d="M187.69,292.8v3.05h-.78v-3a1.51,1.51,0,0,0-1.67-1.68,1.77,1.77,0,0,0-1.94,1.9v2.76h-.78v-3a1.51,1.51,0,0,0-1.68-1.68,1.78,1.78,0,0,0-1.94,1.9v2.76h-.79v-5.26h.76v1a2.39,2.39,0,0,1,2.12-1,2.14,2.14,0,0,1,2.07,1.11,2.59,2.59,0,0,1,2.29-1.11A2.09,2.09,0,0,1,187.69,292.8Z"/><path class="cls-3" d="M194.85,293.21l-1.37,1.14v1.5h-.78v-7.42h.78v5l3.47-2.87h1l-2.48,2.15,2.71,3.11h-1Z"/><path class="cls-3" d="M199.11,289.07a.53.53,0,1,1,.53.48A.5.5,0,0,1,199.11,289.07Zm.13,1.52H200v5.26h-.78Z"/><path class="cls-3" d="M202.88,295.35a1.37,1.37,0,0,1-.16.58l-.46,1.38h-.53l.38-1.45a.52.52,0,0,1-.4-.51.59.59,0,0,1,1.17,0Z"/><path class="cls-3" d="M30.79,307.35c0-2.05,1.72-3.56,4.05-3.56a3.92,3.92,0,0,1,2.82,1l-.51.47a3.24,3.24,0,0,0-2.29-.83,2.92,2.92,0,1,0,0,5.8,3.2,3.2,0,0,0,2.29-.84l.51.47a3.94,3.94,0,0,1-2.83,1C32.51,310.91,30.79,309.4,30.79,307.35Z"/><path class="cls-3" d="M45.74,303.85l-3.42,7h-.81l-3.42-7H39l3,6.08,3-6.08Z"/><path class="cls-3" d="M46.17,307.83h2.89v.62H46.17Z"/><path class="cls-3" d="M56.22,303.43v7.42h-.75v-1a2.58,2.58,0,0,1-2.24,1.09,2.68,2.68,0,1,1,0-5.35,2.63,2.63,0,0,1,2.21,1v-3.16Zm-.77,4.79a2.16,2.16,0,1,0-2.15,2A2,2,0,0,0,55.45,308.22Z"/><path class="cls-3" d="M63.47,308.23a2.67,2.67,0,0,1-2.84,2.67,2.63,2.63,0,0,1-2.81-2.67c0-.06,0-.14,0-.22h4.85a2.08,2.08,0,0,0-2.28-1.83,2.4,2.4,0,0,0-1.78.69l-.44-.46a3,3,0,0,1,2.24-.86A2.76,2.76,0,0,1,63.47,308.23Zm-.79.31H58.57a2.08,2.08,0,0,0,4.11,0Z"/><path class="cls-3" d="M73.24,305.59v7.2h-.78v-2.93a2.61,2.61,0,0,1-2.21,1,2.68,2.68,0,1,1,0-5.35,2.6,2.6,0,0,1,2.24,1.08v-1Zm-.77,2.63a2.16,2.16,0,1,0-2.15,2A2,2,0,0,0,72.47,308.22Z"/><path class="cls-3" d="M80.48,308.44H75.62a2.09,2.09,0,0,0,2.29,1.83,2.4,2.4,0,0,0,1.77-.69l.44.46a3,3,0,0,1-2.24.86,2.76,2.76,0,0,1-3-2.68,2.66,2.66,0,0,1,2.84-2.67,2.63,2.63,0,0,1,2.81,2.67C80.49,308.28,80.48,308.36,80.48,308.44Zm-4.86-.53h4.12a2.09,2.09,0,0,0-4.12,0Z"/><path class="cls-3" d="M86.85,305.59,84,311.48A2,2,0,0,1,82,312.84a2.1,2.1,0,0,1-1.41-.48l.36-.53a1.53,1.53,0,0,0,1.06.4c.52,0,.87-.22,1.2-.88l.25-.51-2.59-5.25h.82l2.18,4.47,2.19-4.47Z"/><path class="cls-3" d="M93.08,303.43v7.42h-.75v-1a2.59,2.59,0,0,1-2.24,1.09,2.68,2.68,0,1,1,0-5.35,2.63,2.63,0,0,1,2.21,1v-3.16Zm-.77,4.79a2.16,2.16,0,1,0-2.15,2A2,2,0,0,0,92.31,308.22Z"/><path class="cls-3" d="M103.2,308.44H98.35a2.07,2.07,0,0,0,2.28,1.83,2.4,2.4,0,0,0,1.78-.69l.44.46a3,3,0,0,1-2.24.86,2.76,2.76,0,0,1-3-2.68,2.67,2.67,0,0,1,2.84-2.67,2.63,2.63,0,0,1,2.81,2.67C103.21,308.28,103.2,308.36,103.2,308.44Zm-4.85-.53h4.11a2.08,2.08,0,0,0-4.11,0Z"/><path class="cls-3" d="M107.86,310.53a2,2,0,0,1-1.22.37c-1.09,0-1.7-.56-1.7-1.53v-3.18h-1v-.6h1v-1.15h.78v1.15h1.77v.6h-1.77v3.14a.89.89,0,0,0,1,1,1.38,1.38,0,0,0,.86-.27Z"/><path class="cls-3" d="M114.37,303.43v7.42h-.75v-1a2.58,2.58,0,0,1-2.24,1.09,2.68,2.68,0,1,1,0-5.35,2.63,2.63,0,0,1,2.21,1v-3.16Zm-.77,4.79a2.16,2.16,0,1,0-2.15,2A2,2,0,0,0,113.6,308.22Z"/><path class="cls-3" d="M116.42,304.07a.53.53,0,1,1,.53.48A.5.5,0,0,1,116.42,304.07Zm.13,1.52h.78v5.26h-.78Z"/><path class="cls-3" d="M124.39,305.59l-2.9,5.89a2,2,0,0,1-1.93,1.36,2.1,2.1,0,0,1-1.41-.48l.36-.53a1.53,1.53,0,0,0,1.06.4c.52,0,.87-.22,1.2-.88l.26-.51-2.6-5.25h.82l2.19,4.47,2.18-4.47Z"/><path class="cls-3" d="M125.36,304.07a.53.53,0,1,1,.53.48A.5.5,0,0,1,125.36,304.07Zm.13,1.52h.78v5.26h-.78Z"/><path class="cls-3" d="M138,307.8v3.05h-.78v-3a1.51,1.51,0,0,0-1.67-1.68,1.77,1.77,0,0,0-1.94,1.9v2.76h-.78v-3a1.51,1.51,0,0,0-1.68-1.68,1.78,1.78,0,0,0-1.94,1.9v2.76h-.78v-5.26h.75v1a2.42,2.42,0,0,1,2.13-1,2.11,2.11,0,0,1,2.06,1.11,2.6,2.6,0,0,1,2.29-1.11A2.08,2.08,0,0,1,138,307.8Z"/><path class="cls-3" d="M148.93,308.22a2.69,2.69,0,0,1-2.9,2.68,2.56,2.56,0,0,1-2.23-1.09v1H143v-7.42h.79v3.16a2.61,2.61,0,0,1,2.2-1A2.69,2.69,0,0,1,148.93,308.22Zm-.79,0a2.16,2.16,0,1,0-2.16,2A2,2,0,0,0,148.14,308.22Z"/><path class="cls-3" d="M154.87,307.59v3.26h-.75V310a2.27,2.27,0,0,1-2,.87c-1.31,0-2.12-.62-2.12-1.53s.58-1.49,2.24-1.49h1.84v-.32c0-.9-.56-1.39-1.64-1.39a3.14,3.14,0,0,0-1.93.62l-.35-.53a3.91,3.91,0,0,1,2.36-.71C154,305.55,154.87,306.23,154.87,307.59Zm-.79,1.68v-.86h-1.82c-1.12,0-1.49.4-1.49.94s.54,1,1.47,1A1.87,1.87,0,0,0,154.08,309.27Z"/><path class="cls-3" d="M156.43,308.22a2.74,2.74,0,0,1,3-2.67,2.61,2.61,0,0,1,2.27,1l-.58.36a2.21,2.21,0,0,0-3.89,1.27,2.22,2.22,0,0,0,3.89,1.28l.58.36a2.64,2.64,0,0,1-2.27,1A2.75,2.75,0,0,1,156.43,308.22Z"/><path class="cls-3" d="M167.6,307.59v3.26h-.75V310a2.26,2.26,0,0,1-2,.87c-1.31,0-2.12-.62-2.12-1.53s.58-1.49,2.24-1.49h1.85v-.32c0-.9-.57-1.39-1.65-1.39a3.16,3.16,0,0,0-1.93.62l-.35-.53a3.91,3.91,0,0,1,2.36-.71C166.75,305.55,167.6,306.23,167.6,307.59Zm-.78,1.68v-.86H165c-1.13,0-1.49.4-1.49.94s.54,1,1.46,1A1.88,1.88,0,0,0,166.82,309.27Z"/><path class="cls-3" d="M172.65,305.55v.69h-.19a1.78,1.78,0,0,0-2,1.94v2.68h-.79v-5.26h.76v1A2.23,2.23,0,0,1,172.65,305.55Z"/><path class="cls-3" d="M174.06,305.59h.78v5.26h-.78Z"/><path class="cls-3" d="M182.32,305.59v7.2h-.78v-2.93a2.63,2.63,0,0,1-2.21,1,2.68,2.68,0,1,1,0-5.35,2.61,2.61,0,0,1,2.24,1.08v-1Zm-.77,2.63a2.16,2.16,0,1,0-2.15,2A2,2,0,0,0,181.55,308.22Z"/><path class="cls-3" d="M184.5,303.43h.78v7.42h-.78Z"/><path class="cls-3" d="M191.84,307.59v3.26h-.75V310a2.24,2.24,0,0,1-2,.87c-1.31,0-2.12-.62-2.12-1.53s.57-1.49,2.24-1.49h1.84v-.32c0-.9-.56-1.39-1.64-1.39a3.14,3.14,0,0,0-1.93.62l-.36-.53a4,4,0,0,1,2.37-.71C191,305.55,191.84,306.23,191.84,307.59Zm-.78,1.68v-.86h-1.82c-1.12,0-1.49.4-1.49.94s.54,1,1.47,1A1.87,1.87,0,0,0,191.06,309.27Z"/><path class="cls-3" d="M193.54,307.83h2.89v.62h-2.89Z"/><path class="cls-3" d="M34.23,320.55v.69h-.18a1.78,1.78,0,0,0-2,1.94v2.68h-.78v-5.26h.75v1A2.23,2.23,0,0,1,34.23,320.55Z"/><path class="cls-3" d="M35.64,320.59h.79v5.26h-.79Z"/><path class="cls-3" d="M48.18,322.8v3.05H47.4v-3a1.51,1.51,0,0,0-1.66-1.68,1.77,1.77,0,0,0-2,1.9v2.76H43v-3a1.51,1.51,0,0,0-1.68-1.68,1.78,1.78,0,0,0-1.94,1.9v2.76h-.78v-5.26h.75v1a2.42,2.42,0,0,1,2.13-1,2.11,2.11,0,0,1,2.06,1.11,2.61,2.61,0,0,1,2.3-1.11A2.08,2.08,0,0,1,48.18,322.8Z"/><path class="cls-3" d="M53.06,319.07a.51.51,0,0,1,.53-.48.48.48,0,1,1,0,1A.51.51,0,0,1,53.06,319.07Zm.14,1.52H54v5.26H53.2Z"/><path class="cls-3" d="M58,325.9l-.13.47c.6.05.93.37.93.81s-.5.87-1.24.87a1.74,1.74,0,0,1-.93-.23l.19-.38a1.4,1.4,0,0,0,.73.19c.44,0,.68-.17.68-.47s-.22-.46-.68-.46h-.26l.23-.81a3.94,3.94,0,0,1-2.11-.64l.35-.56a3.75,3.75,0,0,0,2.06.59c1.11,0,1.56-.34,1.56-.86,0-1.37-3.76-.29-3.76-2.37,0-.86.81-1.5,2.29-1.5a4.22,4.22,0,0,1,2,.49l-.34.57a3.2,3.2,0,0,0-1.71-.45c-1,0-1.51.37-1.51.87,0,1.42,3.76.35,3.76,2.37C60.11,325.26,59.32,325.84,58,325.9Z"/><path class="cls-3" d="M67.5,325.53a2,2,0,0,1-1.23.37c-1.09,0-1.7-.56-1.7-1.53v-3.18h-1v-.6h1v-1.15h.79v1.15h1.76v.6H65.36v3.14a.88.88,0,0,0,1,1,1.38,1.38,0,0,0,.86-.27Z"/><path class="cls-3" d="M73.77,323.23a2.83,2.83,0,0,1-5.65,0c0-.06,0-.14,0-.22H73a2.09,2.09,0,0,0-2.28-1.83,2.4,2.4,0,0,0-1.78.69l-.44-.46a3,3,0,0,1,2.24-.86A2.75,2.75,0,0,1,73.77,323.23Zm-.78.31H68.87a2.09,2.09,0,0,0,4.12,0Z"/><path class="cls-3" d="M74.56,325.25l.36-.56a3.73,3.73,0,0,0,2.06.59c1.1,0,1.55-.34,1.55-.86,0-1.37-3.76-.29-3.76-2.37,0-.86.82-1.5,2.3-1.5a4.25,4.25,0,0,1,2.05.49l-.34.57a3.22,3.22,0,0,0-1.71-.45c-1,0-1.52.37-1.52.87,0,1.42,3.77.35,3.77,2.37,0,.91-.89,1.5-2.4,1.5A4.17,4.17,0,0,1,74.56,325.25Z"/><path class="cls-3" d="M85.53,320.59l-2.59,5.26h-.8l-2.57-5.26h.81l2.18,4.48,2.19-4.48Z"/><path class="cls-3" d="M86.49,319.07a.53.53,0,1,1,.53.48A.5.5,0,0,1,86.49,319.07Zm.13,1.52h.79v5.26h-.79Z"/><path class="cls-3" d="M92.51,320.55v.69h-.18a1.78,1.78,0,0,0-2,1.94v2.68h-.78v-5.26h.75v1A2.23,2.23,0,0,1,92.51,320.55Z"/><path class="cls-3" d="M93.79,319.07a.53.53,0,1,1,.53.48A.5.5,0,0,1,93.79,319.07Zm.13,1.52h.79v5.26h-.79Z"/><path class="cls-3" d="M102.23,322.8v3.05h-.78v-3a1.54,1.54,0,0,0-1.75-1.68,1.82,1.82,0,0,0-2,1.9v2.76h-.78v-5.26h.75v1a2.52,2.52,0,0,1,2.21-1A2.12,2.12,0,0,1,102.23,322.8Z"/><path class="cls-3" d="M109.44,323.23a2.66,2.66,0,0,1-2.84,2.67,2.63,2.63,0,0,1-2.81-2.67c0-.06,0-.14,0-.22h4.86a2.09,2.09,0,0,0-2.29-1.83,2.4,2.4,0,0,0-1.77.69l-.44-.46a3,3,0,0,1,2.24-.86A2.76,2.76,0,0,1,109.44,323.23Zm-.78.31h-4.12a2.09,2.09,0,0,0,4.12,0Z"/><path class="cls-3" d="M118.8,320.59l-2.58,5.26h-.81l-2.57-5.26h.82l2.17,4.48,2.2-4.48Z"/><path class="cls-3" d="M124.8,323.23A2.67,2.67,0,0,1,122,325.9a2.63,2.63,0,0,1-2.81-2.67c0-.06,0-.14,0-.22H124a2.07,2.07,0,0,0-2.28-1.83,2.42,2.42,0,0,0-1.78.69l-.44-.46a3,3,0,0,1,2.24-.86A2.76,2.76,0,0,1,124.8,323.23Zm-.79.31H119.9a2.08,2.08,0,0,0,4.11,0Z"/><path class="cls-3" d="M131.07,325.9l-.13.47c.6.05.93.37.93.81s-.5.87-1.24.87a1.74,1.74,0,0,1-.93-.23l.19-.38a1.4,1.4,0,0,0,.73.19c.44,0,.68-.17.68-.47s-.22-.46-.68-.46h-.26l.23-.81a3.94,3.94,0,0,1-2.11-.64l.35-.56a3.75,3.75,0,0,0,2.06.59c1.11,0,1.56-.34,1.56-.86,0-1.37-3.76-.29-3.76-2.37,0-.86.81-1.5,2.29-1.5A4.22,4.22,0,0,1,133,321l-.34.57a3.2,3.2,0,0,0-1.71-.45c-1,0-1.51.37-1.51.87,0,1.42,3.76.35,3.76,2.37C133.23,325.26,132.44,325.84,131.07,325.9Z"/><path class="cls-3" d="M134.54,319.07a.53.53,0,1,1,.53.48A.5.5,0,0,1,134.54,319.07Zm.13,1.52h.79v5.26h-.79Z"/><path class="cls-3" d="M140.56,320.55v.69h-.18a1.78,1.78,0,0,0-2,1.94v2.68h-.78v-5.26h.75v1A2.23,2.23,0,0,1,140.56,320.55Z"/><path class="cls-3" d="M144.12,323.21l-1.36,1.14v1.5H142v-7.42h.79v5l3.46-2.87h1l-2.48,2.15,2.71,3.11h-1Z"/><path class="cls-3" d="M153.43,323.23a2.83,2.83,0,0,1-5.65,0c0-.06,0-.14,0-.22h4.86a2.09,2.09,0,0,0-2.29-1.83,2.4,2.4,0,0,0-1.77.69l-.44-.46a3,3,0,0,1,2.24-.86A2.75,2.75,0,0,1,153.43,323.23Zm-.78.31h-4.12a2.09,2.09,0,0,0,4.12,0Z"/><path class="cls-3" d="M158.08,325.53a2,2,0,0,1-1.22.37c-1.09,0-1.7-.56-1.7-1.53v-3.18h-1v-.6h1v-1.15h.78v1.15h1.77v.6h-1.77v3.14a.89.89,0,0,0,1,1,1.38,1.38,0,0,0,.86-.27Z"/><path class="cls-3" d="M159.37,319.07a.53.53,0,1,1,.53.48A.5.5,0,0,1,159.37,319.07Zm.13,1.52h.79v5.26h-.79Z"/><path class="cls-3" d="M167.81,322.8v3.05H167v-3a1.54,1.54,0,0,0-1.75-1.68,1.82,1.82,0,0,0-2,1.9v2.76h-.78v-5.26h.75v1a2.52,2.52,0,0,1,2.21-1A2.12,2.12,0,0,1,167.81,322.8Z"/><path class="cls-3" d="M169.8,319.07a.53.53,0,1,1,.53.48A.5.5,0,0,1,169.8,319.07Zm.13,1.52h.79v5.26h-.79Z"/><path class="cls-3" d="M177,325.26v.59h-4.72v-.47l3.65-4.19h-3.58v-.6h4.59v.47l-3.66,4.2Z"/><path class="cls-3" d="M178.4,319.07a.53.53,0,1,1,.53.48A.5.5,0,0,1,178.4,319.07Zm.13,1.52h.79v5.26h-.79Z"/><path class="cls-3" d="M186.84,322.8v3.05h-.78v-3a1.54,1.54,0,0,0-1.75-1.68,1.82,1.82,0,0,0-2,1.9v2.76h-.78v-5.26h.75v1a2.52,2.52,0,0,1,2.21-1A2.12,2.12,0,0,1,186.84,322.8Z"/><path class="cls-3" d="M37.19,338.22a2.69,2.69,0,0,1-2.89,2.68,2.63,2.63,0,0,1-2.21-1v2.93h-.78v-7.2h.75v1a2.6,2.6,0,0,1,2.24-1.08A2.68,2.68,0,0,1,37.19,338.22Zm-.78,0a2.17,2.17,0,1,0-2.17,2A2,2,0,0,0,36.41,338.22Z"/><path class="cls-3" d="M43.84,338.44H39a2.09,2.09,0,0,0,2.29,1.83,2.4,2.4,0,0,0,1.77-.69l.45.46a3,3,0,0,1-2.24.86,2.76,2.76,0,0,1-3-2.68A2.66,2.66,0,0,1,41,335.55a2.63,2.63,0,0,1,2.81,2.67C43.85,338.28,43.84,338.36,43.84,338.44ZM39,337.91H43.1a2.09,2.09,0,0,0-4.12,0Z"/><path class="cls-3" d="M48.37,335.55v.69h-.19a1.78,1.78,0,0,0-2,1.94v2.68h-.79v-5.26h.76v1A2.23,2.23,0,0,1,48.37,335.55Z"/><path class="cls-3" d="M49,340.25l.35-.56a3.75,3.75,0,0,0,2.06.59c1.11,0,1.56-.34,1.56-.86,0-1.37-3.76-.29-3.76-2.37,0-.86.81-1.5,2.29-1.5a4.22,4.22,0,0,1,2,.49l-.34.57a3.2,3.2,0,0,0-1.71-.45c-1.05,0-1.51.37-1.51.87,0,1.42,3.76.35,3.76,2.37,0,.91-.88,1.5-2.39,1.5A4.14,4.14,0,0,1,49,340.25Z"/><path class="cls-3" d="M61.09,338.22a2.68,2.68,0,0,1-2.89,2.68,2.61,2.61,0,0,1-2.2-1v2.93h-.79v-7.2H56v1a2.61,2.61,0,0,1,2.24-1.08A2.68,2.68,0,0,1,61.09,338.22Zm-.78,0a2.16,2.16,0,1,0-2.16,2A2,2,0,0,0,60.31,338.22Z"/><path class="cls-3" d="M67.74,338.44H62.89a2.08,2.08,0,0,0,2.28,1.83,2.4,2.4,0,0,0,1.78-.69l.44.46a3,3,0,0,1-2.24.86,2.76,2.76,0,0,1-3.05-2.68,2.67,2.67,0,0,1,2.84-2.67,2.63,2.63,0,0,1,2.81,2.67C67.75,338.28,67.74,338.36,67.74,338.44Zm-4.85-.53H67a2.08,2.08,0,0,0-4.11,0Z"/><path class="cls-3" d="M71.5,338.21l-1.37,1.14v1.5h-.78v-7.42h.78v5l3.47-2.87h1l-2.49,2.15,2.72,3.11h-1Z"/><path class="cls-3" d="M79,340.53a2,2,0,0,1-1.22.37c-1.1,0-1.7-.56-1.7-1.53v-3.18h-1v-.6h1v-1.15h.78v1.15h1.77v.6H76.89v3.14a.88.88,0,0,0,1,1,1.41,1.41,0,0,0,.87-.27Z"/><path class="cls-3" d="M80.32,334.07a.53.53,0,1,1,.53.48A.5.5,0,0,1,80.32,334.07Zm.13,1.52h.78v5.26h-.78Z"/><path class="cls-3" d="M88.29,335.59l-2.58,5.26h-.8l-2.57-5.26h.81l2.18,4.48,2.19-4.48Z"/><path class="cls-3" d="M89.26,334.07a.53.53,0,1,1,.53.48A.5.5,0,0,1,89.26,334.07Zm.13,1.52h.79v5.26h-.79Z"/><path class="cls-3" d="M97.7,337.8v3.05h-.78v-3a1.54,1.54,0,0,0-1.75-1.68,1.82,1.82,0,0,0-2,1.9v2.76h-.78v-5.26h.75v1a2.52,2.52,0,0,1,2.21-1A2.12,2.12,0,0,1,97.7,337.8Z"/><path class="cls-3" d="M104.91,338.23a2.66,2.66,0,0,1-2.84,2.67,2.63,2.63,0,0,1-2.81-2.67c0-.06,0-.14,0-.22h4.86a2.09,2.09,0,0,0-2.29-1.83,2.4,2.4,0,0,0-1.77.69l-.45-.46a3,3,0,0,1,2.24-.86A2.76,2.76,0,0,1,104.91,338.23Zm-.78.31H100a2.09,2.09,0,0,0,4.12,0Z"/><path class="cls-3" d="M114.62,335.59v5.26h-.75v-1a2.38,2.38,0,0,1-2.08,1,2.15,2.15,0,0,1-2.45-2.26v-3.05h.78v3a1.54,1.54,0,0,0,1.74,1.69,1.8,1.8,0,0,0,2-1.91v-2.76Z"/><path class="cls-3" d="M121.69,335.59l-2.9,5.89a2,2,0,0,1-1.93,1.36,2.1,2.1,0,0,1-1.41-.48l.36-.53a1.53,1.53,0,0,0,1.06.4c.52,0,.87-.22,1.2-.88l.25-.51-2.59-5.25h.82l2.18,4.47,2.19-4.47Z"/><path class="cls-3" d="M128,335.59v4.62c0,1.81-1,2.63-2.91,2.63a4.34,4.34,0,0,1-2.7-.81l.4-.54a3.67,3.67,0,0,0,2.28.72c1.47,0,2.14-.61,2.14-1.91v-.67a2.69,2.69,0,0,1-2.26,1,2.57,2.57,0,1,1,0-5.1,2.73,2.73,0,0,1,2.3,1.05v-1Zm-.77,2.5A2.22,2.22,0,1,0,125,340,2,2,0,0,0,127.23,338.09Zm-3.79-4.55H124c0,.53.51.85,1.13.85s1.1-.32,1.12-.85h.55c0,.8-.75,1.29-1.67,1.29S123.47,334.34,123.44,333.54Z"/><path class="cls-3" d="M135.42,335.59v5.26h-.75v-1a2.38,2.38,0,0,1-2.09,1,2.15,2.15,0,0,1-2.45-2.26v-3.05h.79v3a1.54,1.54,0,0,0,1.74,1.69,1.79,1.79,0,0,0,2-1.91v-2.76Z"/><path class="cls-3" d="M143,337.8v3.05h-.79v-3a1.54,1.54,0,0,0-1.74-1.68,1.81,1.81,0,0,0-2,1.9v2.76h-.78v-5.26h.75v1a2.51,2.51,0,0,1,2.2-1A2.12,2.12,0,0,1,143,337.8Z"/><path class="cls-3" d="M150.39,333.43v7.42h-.75v-1a2.58,2.58,0,0,1-2.24,1.09,2.68,2.68,0,1,1,0-5.35,2.63,2.63,0,0,1,2.21,1v-3.16Zm-.77,4.79a2.16,2.16,0,1,0-2.15,2A2,2,0,0,0,149.62,338.22Z"/><path class="cls-3" d="M157.8,335.59v5.26h-.75v-1a2.38,2.38,0,0,1-2.09,1,2.15,2.15,0,0,1-2.45-2.26v-3.05h.79v3a1.54,1.54,0,0,0,1.74,1.69,1.8,1.8,0,0,0,2-1.91v-2.76Z"/><path class="cls-3" d="M162.91,335.55v.69h-.18a1.78,1.78,0,0,0-2,1.94v2.68H160v-5.26h.75v1A2.23,2.23,0,0,1,162.91,335.55Z"/><path class="cls-3" d="M163.79,340.35a.59.59,0,0,1,1.18,0,.59.59,0,0,1-1.18,0Z"/><text class="cls-51" transform="translate(30.22 205.42)">H<tspan class="cls-52" x="11.64" y="0">A</tspan><tspan class="cls-53" x="22.33" y="0">QQIM</tspan><tspan class="cls-54" x="67.93" y="0">D</tspan><tspan class="cls-53" x="78.95" y="0">A</tspan></text><line class="cls-55" x1="30.22" y1="215.96" x2="33.72" y2="215.96"/><line class="cls-56" x1="41" y1="215.96" x2="197.65" y2="215.96"/><line class="cls-55" x1="201.29" y1="215.96" x2="204.79" y2="215.96"/><path class="cls-6" d="M334.88,773.62c-.66-1.2-2.62-1.39-4.36-.42s-2.61,2.72-1.95,3.92,2.62,1.39,4.36.43S335.55,774.82,334.88,773.62Z"/><path class="cls-6" d="M350.29,771.43c-.67-1.2-2.62-1.39-4.36-.43s-2.62,2.73-1.95,3.93,2.62,1.39,4.36.42S351,772.63,350.29,771.43Z"/><polygon class="cls-6" points="350.51 758.1 350.51 772.01 349.98 772.01 349.98 761.59 335.03 764.33 335.03 774.76 334.5 774.76 334.5 760.85 350.51 758.1"/><path class="cls-6" d="M269.41,756.77a15.06,15.06,0,0,0-1.61,1.05l0,0-2,2-1.81-.41-4.87-1.1-4.5-1-3.43,1.47,10.16,5.52-6,6,0,0s-.31.47-.64,1l-4.07-1.31-1.8,1.8,4.47,2.73-.46.46.6.6.45-.45,2.71,4.42,1.8-1.8-1.29-4c.58-.36,1-.69,1-.7l0,0,6-6,5.51,10.14,1.46-3.43-2.12-9.36-.41-1.8,2.07-2.06,0,0a16.1,16.1,0,0,0,1-1.61c.73-1.32.85-2.15.4-2.61S270.71,756.05,269.41,756.77Z"/><path class="cls-6" d="M430.72,777.17s-8.56-.44-11.83,1.43c-3.28-1.87-11.84-1.43-11.84-1.43v-14h1.19l.13,10.09.57-13.26c.85-.09,7.51-.65,9.95,1.8,2.43-2.45,9.09-1.89,9.94-1.8l.13,14,.57-10.85h1.19Z"/><path class="cls-6" d="M497.16,762.73a6.5,6.5,0,1,0,6.5,6.5A6.5,6.5,0,0,0,497.16,762.73Zm0,12.55a6,6,0,1,1,6-6A6,6,0,0,1,497.18,775.28Z"/><path class="cls-6" d="M507.12,761.07h-.2a1.11,1.11,0,0,0-1-.69h-1.43a1.14,1.14,0,0,0-1.05.69H502l-1.3-2.36a.74.74,0,0,0-.67-.37h-4.86a.75.75,0,0,0-.65.33l-1.56,2.4h-.61a.83.83,0,0,0-.81-.69H488.9a.81.81,0,0,0-.8.69h-.18a2.05,2.05,0,0,0-2.05,2v12.29a2,2,0,0,0,2.05,2h19.2a2,2,0,0,0,2.05-2V763.12A2.05,2.05,0,0,0,507.12,761.07Zm-18.59,2.75a.9.9,0,1,1,.9.9A.9.9,0,0,1,488.53,763.82Zm8.63,12.65a7.24,7.24,0,1,1,7.24-7.24A7.24,7.24,0,0,1,497.16,776.47Z"/><line class="cls-57" x1="31.29" y1="415.06" x2="204.79" y2="415.06"/><line class="cls-57" x1="31.29" y1="642.61" x2="204.37" y2="642.61"/><text class="cls-58" transform="translate(30.97 410.19)">DİL BİLİK<tspan class="cls-59" x="72.5" y="0">L</tspan><tspan x="81.5" y="0">Ə</tspan><tspan class="cls-60" x="93.31" y="0">R</tspan><tspan class="cls-61" x="104.05" y="0">İ</tspan></text><text class="cls-62" transform="translate(30.97 447.06)"><tspan class="cls-63">T</tspan><tspan x="5.35" y="0">ü</tspan><tspan class="cls-64" x="11.67" y="0">r</tspan><tspan class="cls-65" x="15.43" y="0">k</tspan><tspan class="cls-66" x="20.97" y="0">c</tspan><tspan class="cls-67" x="26.22" y="0">ə</tspan></text><rect class="cls-6" x="30.97" y="451.05" width="173.4" height="6.48"/><text class="cls-62" transform="translate(30.97 480.92)">İ<tspan class="cls-68" x="2.89" y="0">n</tspan><tspan x="9.27" y="0">gilis</tspan><tspan class="cls-66" x="28.19" y="0">c</tspan><tspan class="cls-67" x="33.44" y="0">ə</tspan></text><rect class="cls-6" x="30.97" y="484.91" width="173.4" height="6.48"/><text class="cls-62" transform="translate(30.97 514.78)">Rusca</text><rect class="cls-6" x="30.97" y="518.77" width="173.4" height="6.48"/><polygon class="cls-3" points="182.52 506.42 182.52 518.77 30.97 518.77 30.97 525.25 177.99 525.25 202.06 525.25 202.06 518.77 202.06 506.42 182.52 506.42"/><polygon class="cls-3" points="173.73 472.56 173.73 484.91 30.97 484.91 30.97 491.39 169.21 491.39 193.28 491.39 193.28 484.91 193.28 472.56 173.73 472.56"/><polygon class="cls-3" points="153.02 438.69 153.02 451.05 30.97 451.05 30.97 457.53 148.5 457.53 172.56 457.53 172.56 451.05 172.56 438.69 153.02 438.69"/><text class="cls-69" transform="translate(155.68 447.06)"><tspan class="cls-70">7</tspan><tspan class="cls-71" x="3.56" y="0">5</tspan><tspan x="7.02" y="0">%</tspan></text><text class="cls-69" transform="translate(176.39 480.92)">90%</text><text class="cls-69" transform="translate(185.17 514.78)">99%</text><text class="cls-62" transform="translate(30.97 548.91)"><tspan class="cls-72">A</tspan><tspan class="cls-66" x="6.81" y="0">z</tspan><tspan class="cls-67" x="11.59" y="0">ə</tspan><tspan class="cls-64" x="17.3" y="0">r</tspan><tspan class="cls-73" x="21.06" y="0">b</tspan><tspan class="cls-74" x="27.38" y="0">a</tspan><tspan class="cls-75" x="32.86" y="0">y</tspan><tspan x="37.93" y="0">ca</tspan><tspan class="cls-68" x="48.84" y="0">n</tspan><tspan x="55.22" y="0">ca</tspan></text><rect class="cls-6" x="30.97" y="552.91" width="173.4" height="6.48"/><polygon class="cls-3" points="184.83 540.55 184.83 552.9 30.97 552.9 30.97 559.38 177.99 559.38 204.38 559.38 204.38 552.9 204.38 540.55 184.83 540.55"/><text class="cls-69" transform="translate(187.44 548.91)">100%</text><text class="cls-58" transform="translate(30.85 631.2)">P<tspan class="cls-76" x="10.34" y="0">R</tspan><tspan class="cls-61" x="20.75" y="0">OQRAM</tspan></text><text class="cls-77" transform="translate(30.45 674.71)"><tspan class="cls-78">W</tspan><tspan class="cls-79" x="9.99" y="0">o</tspan><tspan class="cls-80" x="15.92" y="0">r</tspan><tspan x="19.63" y="0">d</tspan></text><rect class="cls-6" x="30.45" y="678.7" width="172.88" height="6.48"/><text class="cls-77" transform="translate(30.45 708.58)"><tspan class="cls-80">E</tspan><tspan class="cls-81" x="6.14" y="0">x</tspan><tspan class="cls-82" x="11.12" y="0">c</tspan><tspan x="16.37" y="0">el</tspan></text><rect class="cls-6" x="30.45" y="712.57" width="172.88" height="6.48"/><text class="cls-77" transform="translate(30.45 742.45)"><tspan class="cls-80">P</tspan><tspan class="cls-83" x="6.62" y="0">ow</tspan><tspan class="cls-79" x="20.66" y="0">e</tspan><tspan class="cls-80" x="26.37" y="0">rP</tspan><tspan x="36.7" y="0">oint</tspan></text><rect class="cls-6" x="30.45" y="746.44" width="172.88" height="6.48"/><polygon class="cls-3" points="181.54 734.08 181.54 746.44 30.45 746.44 30.45 752.92 177.03 752.92 201.03 752.92 201.03 746.44 201.03 734.08 181.54 734.08"/><polygon class="cls-3" points="172.78 700.21 172.78 712.57 30.45 712.57 30.45 719.05 168.27 719.05 192.27 719.05 192.27 712.57 192.27 700.21 172.78 700.21"/><polygon class="cls-3" points="152.13 666.34 152.13 678.7 30.45 678.7 30.45 685.18 147.62 685.18 171.62 685.18 171.62 678.7 171.62 666.34 152.13 666.34"/><text class="cls-84" transform="translate(154.78 674.71)"><tspan class="cls-85">7</tspan><tspan class="cls-86" x="3.56" y="0">5</tspan><tspan x="7.02" y="0">%</tspan></text><text class="cls-84" transform="translate(175.43 708.58)">90%</text><text class="cls-84" transform="translate(184.19 742.45)">99%</text><text class="cls-77" transform="translate(30.45 771.25)">Outlook</text><polyline class="cls-6" points="30.45 781.72 30.45 775.24 203.33 775.24 203.33 781.72"/><polyline class="cls-3" points="201.03 781.72 201.03 775.24 201.03 762.88 181.54 762.88 181.54 775.24 30.45 775.24 30.45 781.72"/><text class="cls-84" transform="translate(184.19 771.25)">99%</text><text class="cls-87" transform="translate(175.43 92.46)">NƏ<tspan class="cls-88" x="27.86" y="0">R</tspan><tspan x="38.93" y="0">GİZ </tspan><tspan x="0" y="22">HƏSƏ</tspan><tspan class="cls-89" x="51.57" y="22">N</tspan><tspan class="cls-90" x="65.34" y="22">O</tspan><tspan class="cls-91" x="78.89" y="22">V</tspan><tspan x="89.05" y="22">A</tspan></text><text class="cls-92" transform="translate(175.43 139.12)">Doğum ta<tspan class="cls-93" x="41.33" y="0">r</tspan><tspan class="cls-94" x="44.55" y="0">ixi: 15</tspan><tspan class="cls-95" x="64.95" y="0">.</tspan><tspan x="66.66" y="0">1</tspan><tspan class="cls-96" x="69.62" y="0">0</tspan><tspan class="cls-95" x="74.86" y="0">.</tspan><tspan x="76.58" y="0">19</tspan><tspan class="cls-97" x="84.47" y="0">9</tspan><tspan x="89.38" y="0">2</tspan></text><line class="cls-55" x1="175.43" y1="125.05" x2="280.5" y2="125.05"/><polyline class="cls-5" points="537.41 145.25 537.41 64.58 513.9 64.58 513.9 145.25"/><path class="cls-99" d="M522.25,79.46h0a5.55,5.55,0,0,0,.42-.42l0,0,.24-.23a.79.79,0,0,1,1.21,0L525.44,80a.82.82,0,0,1,.28.59.86.86,0,0,1-.28.6l-.77.78a.11.11,0,0,0,0,.09.18.18,0,0,0,0,0v0a1.36,1.36,0,0,1,.13.24,1.57,1.57,0,0,0,.14.25,7.81,7.81,0,0,0,1.75,1.92h0a4.66,4.66,0,0,0,1.09.67h0c.07,0,.09,0,.14,0h0c.17-.2.35-.37.56-.58a1.59,1.59,0,0,1,.13-.13l.06-.06a.8.8,0,0,1,1.22,0l.61.61.11.12.11.1a5.3,5.3,0,0,1,.41.42h0a.82.82,0,0,1,.26.59.87.87,0,0,1-.26.59h0l-.77.77a1.41,1.41,0,0,1-.9.42,3.53,3.53,0,0,1-1.57-.28,9.59,9.59,0,0,1-2.82-1.69,10.35,10.35,0,0,1-2.71-3.47,5.31,5.31,0,0,1-.57-1.91v-.12A1.46,1.46,0,0,1,522.25,79.46Z"/><text class="cls-100" transform="translate(426.33 85.59)">+9<tspan class="cls-101" x="12.05" y="0">9</tspan><tspan x="17.91" y="0">4xx xxx xx xx</tspan></text><path class="cls-99" d="M531.72,102.44v0s0,0,0,0,0,0,0,0a.05.05,0,0,0,0,0s0,0,0,0l0,0v0h0l0,0a0,0,0,0,1,0,0l0,0,0,0h-9.61l0,0,0,0,0,0,0,0h0s0,0,0,0l0,0s0,0,0,0,0,0,0,0,0,0,0,0v6.75a.38.38,0,0,0,.38.38h9.29a.38.38,0,0,0,.38-.38v-6.67Zm-1.41.4-3.61,3.08-3.62-3.08Zm-3.86,3.87a.38.38,0,0,0,.25.09.38.38,0,0,0,.24-.09"/><text class="cls-100" transform="translate(389.76 107.84)">cvhazirlama@gmai<tspan class="cls-102" x="90.58" y="0">l</tspan><tspan class="cls-103" x="92.98" y="0">.</tspan><tspan x="95.25" y="0">com</tspan></text><path class="cls-99" d="M526,121.73a4.82,4.82,0,1,0,4.81,4.82A4.82,4.82,0,0,0,526,121.73Zm4.06,4.45h-1.16A6.44,6.44,0,0,0,528,123,4.1,4.1,0,0,1,530.09,126.18Zm-4.43-3.66v3.66h-1.8C524,124.36,524.71,122.84,525.66,122.52Zm0,4.39v3.66c-.95-.31-1.71-1.83-1.8-3.66Zm.73,3.66v-3.66h1.81C528.11,128.74,527.35,130.26,526.39,130.57Zm0-4.39v-3.66c1,.32,1.72,1.84,1.81,3.66ZM524.06,123a6.34,6.34,0,0,0-.93,3.21H522A4.07,4.07,0,0,1,524.06,123ZM522,126.91h1.16a6.34,6.34,0,0,0,.93,3.21A4.06,4.06,0,0,1,522,126.91Zm6,3.21a6.44,6.44,0,0,0,.93-3.21h1.16A4.08,4.08,0,0,1,528,130.12Z"/><text class="cls-100" transform="translate(393.7 128.77)">Bakı <tspan class="cls-104" x="23.51" y="0">ş</tspan><tspan x="28.03" y="0">əhəri, A</tspan><tspan class="cls-105" x="63.55" y="0">z</tspan><tspan x="68.14" y="0">ərba</tspan><tspan class="cls-106" x="89.96" y="0">y</tspan><tspan x="95.14" y="0">can</tspan></text></g></svg>