<svg xmlns="http://www.w3.org/2000/svg" xmlns:xlink="http://www.w3.org/1999/xlink" viewBox="0 0 595.28 841.89"><defs><style>.cls-1,.cls-29,.cls-59{fill:none;}.cls-102,.cls-105,.cls-2,.cls-88,.cls-91{fill:#fff;}.cls-3,.cls-68,.cls-83{fill:#119ccc;}.cls-4{fill:#232941;}.cls-5{fill:#242a42;}.cls-6{clip-path:url(#clip-path);}.cls-14,.cls-7{font-size:8.48px;fill:#231f20;font-family:Averta-Semibold, Averta;}.cls-112,.cls-14,.cls-7,.cls-99{font-weight:600;}.cls-7{letter-spacing:-0.07em;}.cls-13,.cls-8{letter-spacing:0.02em;}.cls-9{letter-spacing:0.01em;}.cls-10,.cls-11,.cls-14{letter-spacing:0.02em;}.cls-11,.cls-12,.cls-13,.cls-16,.cls-17,.cls-18,.cls-21,.cls-22,.cls-23{font-family:Averta-Light, Averta;}.cls-11,.cls-12,.cls-13,.cls-16,.cls-17,.cls-18,.cls-21,.cls-22,.cls-23,.cls-83{font-weight:300;}.cls-12,.cls-15{letter-spacing:0.01em;}.cls-16{letter-spacing:0.01em;}.cls-17{letter-spacing:0em;}.cls-19{letter-spacing:0em;}.cls-20{letter-spacing:-0.01em;}.cls-21{letter-spacing:0.02em;}.cls-22{letter-spacing:0em;}.cls-23{letter-spacing:0em;}.cls-24,.cls-60{font-size:16.92px;fill:#11172d;}.cls-102,.cls-24,.cls-60,.cls-88{font-family:Averta-ExtraBold, Averta;font-weight:800;}.cls-24{letter-spacing:0.02em;}.cls-25,.cls-60{letter-spacing:-0.02em;}.cls-26{letter-spacing:0.02em;}.cls-27{letter-spacing:0em;}.cls-28{letter-spacing:0.01em;}.cls-29{stroke:#141b31;stroke-width:0.4px;}.cls-29,.cls-59{stroke-miterlimit:10;}.cls-30{font-size:11.71px;font-family:Montserrat-Bold, Montserrat;}.cls-30,.cls-35,.cls-51{fill:#141b31;}.cls-30,.cls-68{font-weight:700;}.cls-31{letter-spacing:-0.01em;}.cls-32{letter-spacing:0em;}.cls-33{letter-spacing:-0.02em;}.cls-34{letter-spacing:-0.01em;}.cls-35{font-size:8.52px;}.cls-35,.cls-51{font-family:Montserrat-Regular, Montserrat;}.cls-36{letter-spacing:-0.02em;}.cls-37{letter-spacing:-0.01em;}.cls-38{letter-spacing:0em;}.cls-39{letter-spacing:-0.01em;}.cls-40{letter-spacing:0em;}.cls-41{letter-spacing:-0.01em;}.cls-42{letter-spacing:-0.02em;}.cls-43{letter-spacing:-0.01em;}.cls-44{letter-spacing:-0.01em;}.cls-45{letter-spacing:0em;}.cls-46{letter-spacing:-0.02em;}.cls-47{letter-spacing:0.01em;}.cls-48{letter-spacing:-0.01em;}.cls-49{letter-spacing:-0.01em;}.cls-50{letter-spacing:-0.02em;}.cls-51{font-size:7.1px;}.cls-52{letter-spacing:-0.02em;}.cls-53{letter-spacing:-0.01em;}.cls-54{letter-spacing:0em;}.cls-55{letter-spacing:0em;}.cls-56{letter-spacing:0em;}.cls-57{letter-spacing:-0.02em;}.cls-58{letter-spacing:-0.01em;}.cls-59{stroke:#11172d;}.cls-61{letter-spacing:-0.02em;}.cls-62{letter-spacing:0em;}.cls-63{letter-spacing:-0.01em;}.cls-64{letter-spacing:0em;}.cls-65{letter-spacing:0em;}.cls-66{letter-spacing:-0.02em;}.cls-67{letter-spacing:-0.03em;}.cls-68{font-size:34px;font-family:Nivea-Bold, Nivea;}.cls-69{letter-spacing:0em;}.cls-70{letter-spacing:-0.04em;}.cls-71{letter-spacing:-0.08em;}.cls-72{letter-spacing:0em;}.cls-73{letter-spacing:-0.02em;}.cls-74{letter-spacing:-0.02em;}.cls-75{letter-spacing:-0.01em;}.cls-76{letter-spacing:-0.01em;}.cls-77{letter-spacing:-0.01em;}.cls-78{letter-spacing:-0.02em;}.cls-79{letter-spacing:0.01em;}.cls-80{letter-spacing:0em;}.cls-81{letter-spacing:-0.01em;}.cls-82{letter-spacing:-0.02em;}.cls-83{font-size:12.52px;font-family:Montserrat-Light, Montserrat;}.cls-84{letter-spacing:-0.01em;}.cls-85{letter-spacing:-0.01em;}.cls-86{letter-spacing:-0.01em;}.cls-87{letter-spacing:0em;}.cls-102,.cls-88{font-size:12.9px;}.cls-104,.cls-88{letter-spacing:0.02em;}.cls-89{letter-spacing:0em;}.cls-90{letter-spacing:0.02em;}.cls-91{font-size:9.33px;}.cls-105,.cls-91{font-family:Montserrat-Medium, Montserrat;font-weight:500;}.cls-92{letter-spacing:-0.01em;}.cls-93{letter-spacing:-0.01em;}.cls-94{letter-spacing:-0.02em;}.cls-95{letter-spacing:-0.01em;}.cls-96{letter-spacing:0em;}.cls-97{fill:#b3abab;}.cls-98{letter-spacing:0em;}.cls-99{font-size:6.03px;}.cls-112,.cls-99{fill:#0f1322;font-family:Montserrat-SemiBold, Montserrat;}.cls-100{letter-spacing:-0.02em;}.cls-101{letter-spacing:-0.01em;}.cls-102{letter-spacing:0.02em;}.cls-103{letter-spacing:0em;}.cls-105{font-size:9.33px;}.cls-106{letter-spacing:-0.05em;}.cls-107{letter-spacing:0em;}.cls-108{letter-spacing:-0.01em;}.cls-109{letter-spacing:-0.02em;}.cls-110{letter-spacing:-0.01em;}.cls-111{letter-spacing:-0.02em;}.cls-112{font-size:6.03px;}.cls-113{letter-spacing:-0.02em;}.cls-114{letter-spacing:-0.01em;}.cls-115{clip-path:url(#clip-path-2);}.cls-116{clip-path:url(#clip-path-3);}</style><clipPath id="clip-path"><rect class="cls-1" x="32.86" y="26.18" width="285.93" height="341.21"/></clipPath><clipPath id="clip-path-2"><polygon class="cls-1" points="-672.5 0 -672.5 23.95 -483.96 135.78 -483.96 104.49 -403.44 54.38 -323.51 102.61 -323.51 132.58 -131.85 23.95 -131.85 0 -672.5 0"/></clipPath><clipPath id="clip-path-3"><polygon class="cls-1" points="-327.85 107.16 -402.18 64.25 -476.5 107.16 -476.5 192.98 -402.18 235.89 -327.85 192.98 -327.85 107.16"/></clipPath></defs><g id="PRINT"><rect class="cls-2" width="595.28" height="841.89"/><rect class="cls-3" width="77.42" height="515.8"/><rect class="cls-3" x="555.89" y="225.5" width="39.38" height="616.39"/><rect class="cls-4" x="42.76" y="376.78" width="34.66" height="118.93"/><rect class="cls-5" y="514.3" width="15.2" height="329.45"/><rect class="cls-5" x="348.95" y="554.17" width="230.76" height="287.72"/><path class="cls-2" d="M55.06,398.71l0,0a6.08,6.08,0,0,0,.63-.61l.08-.08a3.76,3.76,0,0,1,.35-.34,1.18,1.18,0,0,1,1.79,0l1.83,1.84a1.17,1.17,0,0,1,.41.87,1.26,1.26,0,0,1-.4.88l-1.15,1.14a.27.27,0,0,0-.07.14.2.2,0,0,0,0,.08l0,0c.06.11.13.23.19.36a2.53,2.53,0,0,0,.2.36,11.37,11.37,0,0,0,2.58,2.84h0a6.58,6.58,0,0,0,1.6,1h0c.11,0,.14,0,.22,0h0c.26-.29.52-.55.83-.85l.19-.2.09-.09a1.16,1.16,0,0,1,1.79,0l.91.91.17.16.15.15.62.62h0a1.26,1.26,0,0,1,.39.87,1.29,1.29,0,0,1-.38.87h0L67,410.75a2,2,0,0,1-1.33.62,5.21,5.21,0,0,1-2.32-.41,14,14,0,0,1-4.16-2.5,15.37,15.37,0,0,1-4-5.11,7.82,7.82,0,0,1-.83-2.81c0-.06,0-.12,0-.18A2.15,2.15,0,0,1,55.06,398.71Z"/><text class="cls-7" transform="translate(88.46 407.74)">T<tspan class="cls-8" x="4.41" y="0">el</tspan><tspan class="cls-9" x="11.83" y="0">ef</tspan><tspan class="cls-10" x="19.71" y="0" xml:space="preserve">on:   </tspan><tspan class="cls-11" x="39.99" y="0">+9</tspan><tspan class="cls-12" x="50.21" y="0">9</tspan><tspan class="cls-13" x="55.19" y="0">4xx xxx xx xx</tspan></text><path class="cls-2" d="M69,432.59a.15.15,0,0,1,0-.07.43.43,0,0,1,0,0s0,0,0-.05,0,0,0-.05,0,0,0-.05l0,0,0,0h0l0-.05,0,0,0,0,0,0,0,0-.05,0h-14l-.05,0,0,0-.05,0,0,0,0,0,0,.05h0l0,0,0,0,0,.05s0,0,0,.05,0,0,0,.05a.43.43,0,0,1,0,0,.15.15,0,0,1,0,.07v9.83a.56.56,0,0,0,.56.56H68.47a.56.56,0,0,0,.56-.56v-9.83Zm-2.09.59-5.32,4.54-5.33-4.54Zm-5.69,5.7a.56.56,0,0,0,.37.13.57.57,0,0,0,.36-.13"/><text class="cls-14" transform="translate(88.46 440.55)">Elekt<tspan class="cls-15" x="20.75" y="0">r</tspan><tspan class="cls-8" x="23.96" y="0" xml:space="preserve">on poçt:  </tspan><tspan class="cls-13" x="62.93" y="0">cvhazirlama@gmai</tspan><tspan class="cls-16" x="139.77" y="0">l</tspan><tspan class="cls-17" x="141.81" y="0">.</tspan><tspan class="cls-18" x="143.73" y="0">com</tspan></text><path class="cls-2" d="M60.63,461a7.1,7.1,0,1,0,7.09,7.1A7.1,7.1,0,0,0,60.63,461Zm6,6.56H64.91a9.31,9.31,0,0,0-1.38-4.73A6,6,0,0,1,66.62,467.59Zm-6.53-5.39v5.39H57.43C57.57,464.9,58.69,462.66,60.09,462.2Zm0,6.47v5.39c-1.4-.46-2.52-2.7-2.66-5.39Zm1.08,5.39v-5.39h2.66C63.7,471.36,62.57,473.6,61.17,474.06Zm0-6.47V462.2c1.4.46,2.53,2.7,2.66,5.39Zm-3.44-4.73a9.51,9.51,0,0,0-1.38,4.73h-1.7A6,6,0,0,1,57.73,462.86Zm-3.08,5.81h1.7a9.51,9.51,0,0,0,1.38,4.73A6,6,0,0,1,54.65,468.67Zm8.88,4.73a9.31,9.31,0,0,0,1.38-4.73h1.71A6,6,0,0,1,63.53,473.4Z"/><text class="cls-14" transform="translate(89.57 471.4)">Ü<tspan class="cls-19" x="6.28" y="0">n</tspan><tspan class="cls-20" x="11.34" y="0">v</tspan><tspan x="15.81" y="0" xml:space="preserve">an:   </tspan><tspan class="cls-18" x="36.2" y="0">Bakı </tspan><tspan class="cls-21" x="56.14" y="0">ş</tspan><tspan class="cls-18" x="59.97" y="0">əhəri, A</tspan><tspan class="cls-22" x="90.11" y="0">z</tspan><tspan class="cls-18" x="94" y="0">ərba</tspan><tspan class="cls-23" x="112.51" y="0">y</tspan><tspan class="cls-18" x="116.91" y="0">can</tspan></text><text class="cls-24" transform="translate(37.5 555.5)">İŞ <tspan class="cls-25" x="19.87" y="0">T</tspan><tspan class="cls-26" x="29.4" y="0">ƏC</tspan><tspan class="cls-27" x="54.22" y="0">R</tspan><tspan class="cls-26" x="65.18" y="0">Ü</tspan><tspan class="cls-28" x="77.31" y="0">B</tspan><tspan x="88.18" y="0">ƏSİ</tspan></text><line class="cls-29" x1="42.37" y1="578.13" x2="42.37" y2="797.25"/><circle class="cls-3" cx="42.37" cy="587.57" r="4.87"/><circle class="cls-3" cx="42.37" cy="710.04" r="4.87"/><line class="cls-29" x1="42.37" y1="691.44" x2="329.08" y2="691.44"/><line class="cls-29" x1="42.37" y1="797.25" x2="329.08" y2="797.25"/><text class="cls-30" transform="translate(68.8 601.34)">A<tspan class="cls-31" x="8.97" y="0">r</tspan><tspan x="13.94" y="0">az Ma</tspan><tspan class="cls-32" x="49.24" y="0">r</tspan><tspan class="cls-33" x="54.24" y="0">k</tspan><tspan x="61.7" y="0">et</tspan><tspan class="cls-34" x="0" y="14.9">K</tspan><tspan x="8.53" y="14.9">assir</tspan></text><text class="cls-35" transform="translate(69.93 630.37)">- Malın d<tspan class="cls-36" x="37" y="0">əy</tspan><tspan x="46.5" y="0">ə</tspan><tspan class="cls-37" x="51.65" y="0">r</tspan><tspan x="54.99" y="0">inin </tspan><tspan class="cls-38" x="73.34" y="0">h</tspan><tspan x="79.12" y="0">esablanması </tspan><tspan class="cls-36" x="135.06" y="0">v</tspan><tspan x="139.55" y="0">ə </tspan><tspan class="cls-39" x="146.93" y="0">k</tspan><tspan x="151.96" y="0">assa ə</tspan><tspan class="cls-40" x="177.72" y="0">m</tspan><tspan x="186.77" y="0">əli</tspan><tspan class="cls-41" x="196.5" y="0">y</tspan><tspan class="cls-42" x="201.07" y="0">y</tspan><tspan x="205.55" y="0">atının </tspan><tspan class="cls-36" x="232.38" y="0">y</tspan><tspan x="236.87" y="0">e</tspan><tspan class="cls-43" x="242.01" y="0">r</tspan><tspan x="245.36" y="0">i</tspan><tspan class="cls-38" x="247.65" y="0">n</tspan><tspan x="253.43" y="0">ə </tspan><tspan class="cls-36" x="0" y="10.65">y</tspan><tspan x="4.49" y="10.65">eti</tspan><tspan class="cls-43" x="15.38" y="10.65">r</tspan><tspan x="18.73" y="10.65">il</tspan><tspan class="cls-40" x="23.31" y="10.65">m</tspan><tspan x="32.36" y="10.65">əsi;</tspan><tspan x="0" y="21.29">- </tspan><tspan class="cls-44" x="5.48" y="21.29">K</tspan><tspan x="11.42" y="21.29">assa </tspan><tspan class="cls-38" x="32.03" y="21.29">h</tspan><tspan x="37.82" y="21.29">esa</tspan><tspan class="cls-45" x="52.15" y="21.29">b</tspan><tspan x="57.9" y="21.29">atını </tspan><tspan class="cls-46" x="78.96" y="21.29">t</tspan><tspan x="82.26" y="21.29">ə</tspan><tspan class="cls-47" x="87.4" y="21.29">r</tspan><tspan x="90.95" y="21.29">tib et</tspan><tspan class="cls-40" x="113.3" y="21.29">m</tspan><tspan x="122.36" y="21.29">ək;</tspan><tspan x="0" y="31.94">- Malın alınması zamanı s</tspan><tspan class="cls-39" x="107.24" y="31.94">a</tspan><tspan x="112.18" y="31.94">yının, </tspan><tspan class="cls-48" x="136.94" y="31.94">ç</tspan><tspan x="141.66" y="31.94">eşidinin </tspan><tspan class="cls-49" x="177.38" y="31.94">y</tspan><tspan class="cls-50" x="181.87" y="31.94">o</tspan><tspan x="187.05" y="31.94">xlanılmas</tspan></text><text class="cls-51" transform="translate(68.8 590.01)">05<tspan class="cls-52" x="8.71" y="0">/</tspan><tspan class="cls-53" x="10.95" y="0">0</tspan><tspan class="cls-54" x="15.58" y="0">3/</tspan><tspan class="cls-55" x="21.96" y="0">2</tspan><tspan class="cls-56" x="25.96" y="0">0</tspan><tspan x="30.64" y="0">19–</tspan><tspan class="cls-57" x="41.07" y="0">P</tspan><tspan class="cls-58" x="46" y="0">r</tspan><tspan x="48.76" y="0">esent</tspan></text><text class="cls-30" transform="translate(68.8 721.38)">A<tspan class="cls-31" x="8.97" y="0">r</tspan><tspan x="13.94" y="0">az Ma</tspan><tspan class="cls-32" x="49.24" y="0">r</tspan><tspan class="cls-33" x="54.24" y="0">k</tspan><tspan x="61.7" y="0">et</tspan><tspan class="cls-34" x="0" y="14.9">K</tspan><tspan x="8.53" y="14.9">assir</tspan></text><text class="cls-35" transform="translate(69.93 750.41)">- Malın d<tspan class="cls-36" x="37" y="0">əy</tspan><tspan x="46.5" y="0">ə</tspan><tspan class="cls-37" x="51.65" y="0">r</tspan><tspan x="54.99" y="0">inin </tspan><tspan class="cls-38" x="73.34" y="0">h</tspan><tspan x="79.12" y="0">esablanması </tspan><tspan class="cls-36" x="135.06" y="0">v</tspan><tspan x="139.55" y="0">ə </tspan><tspan class="cls-39" x="146.93" y="0">k</tspan><tspan x="151.96" y="0">assa ə</tspan><tspan class="cls-40" x="177.72" y="0">m</tspan><tspan x="186.77" y="0">əli</tspan><tspan class="cls-41" x="196.5" y="0">y</tspan><tspan class="cls-42" x="201.07" y="0">y</tspan><tspan x="205.55" y="0">atının </tspan><tspan class="cls-36" x="232.38" y="0">y</tspan><tspan x="236.87" y="0">e</tspan><tspan class="cls-43" x="242.01" y="0">r</tspan><tspan x="245.36" y="0">i</tspan><tspan class="cls-38" x="247.65" y="0">n</tspan><tspan x="253.43" y="0">ə </tspan><tspan class="cls-36" x="0" y="10.65">y</tspan><tspan x="4.49" y="10.65">eti</tspan><tspan class="cls-43" x="15.38" y="10.65">r</tspan><tspan x="18.73" y="10.65">il</tspan><tspan class="cls-40" x="23.31" y="10.65">m</tspan><tspan x="32.36" y="10.65">əsi;</tspan><tspan x="0" y="21.29">- </tspan><tspan class="cls-44" x="5.48" y="21.29">K</tspan><tspan x="11.42" y="21.29">assa </tspan><tspan class="cls-38" x="32.03" y="21.29">h</tspan><tspan x="37.82" y="21.29">esa</tspan><tspan class="cls-45" x="52.15" y="21.29">b</tspan><tspan x="57.9" y="21.29">atını </tspan><tspan class="cls-46" x="78.96" y="21.29">t</tspan><tspan x="82.26" y="21.29">ə</tspan><tspan class="cls-47" x="87.4" y="21.29">r</tspan><tspan x="90.95" y="21.29">tib et</tspan><tspan class="cls-40" x="113.3" y="21.29">m</tspan><tspan x="122.36" y="21.29">ək;</tspan><tspan x="0" y="31.94">- Malın alınması zamanı s</tspan><tspan class="cls-39" x="107.24" y="31.94">a</tspan><tspan x="112.18" y="31.94">yının, </tspan><tspan class="cls-48" x="136.94" y="31.94">ç</tspan><tspan x="141.66" y="31.94">eşidinin </tspan><tspan class="cls-49" x="177.38" y="31.94">y</tspan><tspan class="cls-50" x="181.87" y="31.94">o</tspan><tspan x="187.05" y="31.94">xlanılmas</tspan></text><text class="cls-51" transform="translate(68.8 710.04)">05<tspan class="cls-52" x="8.71" y="0">/</tspan><tspan class="cls-53" x="10.95" y="0">0</tspan><tspan class="cls-54" x="15.58" y="0">3/</tspan><tspan class="cls-55" x="21.96" y="0">2</tspan><tspan class="cls-56" x="25.96" y="0">0</tspan><tspan x="30.64" y="0">19–</tspan><tspan class="cls-57" x="41.07" y="0">P</tspan><tspan class="cls-58" x="46" y="0">r</tspan><tspan x="48.76" y="0">esent</tspan></text><line class="cls-59" x1="37.5" y1="566.79" x2="152.92" y2="566.79"/><line class="cls-29" x1="344.09" y1="461.77" x2="543.85" y2="461.77"/><line class="cls-29" x1="344.09" y1="527.48" x2="543.85" y2="527.48"/><text class="cls-60" transform="translate(344.1 381.98)">T<tspan class="cls-26" x="9.53" y="0">ƏHSİL</tspan></text><line class="cls-29" x1="344.09" y1="401.47" x2="344.09" y2="527.48"/><circle class="cls-3" cx="344.09" cy="411.62" r="4.87"/><circle class="cls-3" cx="344.09" cy="483.86" r="4.87"/><text class="cls-30" transform="translate(370.52 429.29)">Ba<tspan class="cls-32" x="16.18" y="0">k</tspan><tspan x="23.87" y="0">ı D</tspan><tspan class="cls-61" x="40.38" y="0">ö</tspan><tspan class="cls-62" x="47.87" y="0">vlət Uni</tspan><tspan class="cls-63" x="95.04" y="0">v</tspan><tspan class="cls-64" x="101.87" y="0">e</tspan><tspan class="cls-65" x="109.26" y="0">r</tspan><tspan x="114.29" y="0">si</tspan><tspan class="cls-66" x="124.03" y="0">t</tspan><tspan x="128.92" y="0">eti</tspan></text><text class="cls-35" transform="translate(371.65 444.26)"><tspan class="cls-67">T</tspan><tspan x="4.64" y="0">a</tspan><tspan class="cls-43" x="9.67" y="0">r</tspan><tspan x="13.01" y="0">ix </tspan><tspan class="cls-39" x="22.08" y="0">f</tspan><tspan x="24.89" y="0">a</tspan><tspan class="cls-39" x="29.91" y="0">k</tspan><tspan x="34.95" y="0">ü</tspan><tspan class="cls-40" x="40.68" y="0">l</tspan><tspan class="cls-50" x="42.99" y="0">t</tspan><tspan x="46.28" y="0">əsi</tspan></text><text class="cls-51" transform="translate(370.52 413.34)">05<tspan class="cls-52" x="8.71" y="0">/</tspan><tspan class="cls-53" x="10.95" y="0">0</tspan><tspan class="cls-54" x="15.58" y="0">3/</tspan><tspan class="cls-55" x="21.96" y="0">2</tspan><tspan class="cls-56" x="25.96" y="0">0</tspan><tspan x="30.64" y="0">19–</tspan></text><text class="cls-30" transform="translate(370.52 501.15)">Ba<tspan class="cls-32" x="16.18" y="0">k</tspan><tspan x="23.87" y="0">ı D</tspan><tspan class="cls-61" x="40.38" y="0">ö</tspan><tspan class="cls-62" x="47.87" y="0">vlət Uni</tspan><tspan class="cls-63" x="95.04" y="0">v</tspan><tspan class="cls-64" x="101.87" y="0">e</tspan><tspan class="cls-65" x="109.26" y="0">r</tspan><tspan x="114.29" y="0">si</tspan><tspan class="cls-66" x="124.03" y="0">t</tspan><tspan x="128.92" y="0">eti</tspan></text><text class="cls-35" transform="translate(371.65 516.12)"><tspan class="cls-67">T</tspan><tspan x="4.64" y="0">a</tspan><tspan class="cls-43" x="9.67" y="0">r</tspan><tspan x="13.01" y="0">ix </tspan><tspan class="cls-39" x="22.08" y="0">f</tspan><tspan x="24.89" y="0">a</tspan><tspan class="cls-39" x="29.91" y="0">k</tspan><tspan x="34.95" y="0">ü</tspan><tspan class="cls-40" x="40.68" y="0">l</tspan><tspan class="cls-50" x="42.99" y="0">t</tspan><tspan x="46.28" y="0">əsi</tspan></text><text class="cls-51" transform="translate(370.52 485.2)">05<tspan class="cls-52" x="8.71" y="0">/</tspan><tspan class="cls-53" x="10.95" y="0">0</tspan><tspan class="cls-54" x="15.58" y="0">3/</tspan><tspan class="cls-55" x="21.96" y="0">2</tspan><tspan class="cls-56" x="25.96" y="0">0</tspan><tspan x="30.64" y="0">19–</tspan></text><line class="cls-59" x1="343.51" y1="388.58" x2="403.95" y2="388.58"/><text class="cls-68" transform="translate(339.23 236.89)">GÜNEL<tspan class="cls-5"><tspan x="0" y="44">RƏVƏ</tspan><tspan class="cls-69" x="102.1" y="44">B</tspan><tspan class="cls-70" x="123.66" y="44">O</tspan><tspan class="cls-71" x="150.42" y="44">V</tspan><tspan class="cls-72" x="171.26" y="44">A</tspan></tspan></text><text class="cls-24" transform="translate(339.23 57.72)">H<tspan class="cls-73" x="12.39" y="0">A</tspan><tspan x="23.77" y="0">QQIM</tspan><tspan class="cls-25" x="72.32" y="0">D</tspan><tspan class="cls-26" x="84.05" y="0">A</tspan></text><text class="cls-35" transform="translate(339.87 79.81)">Sizin <tspan class="cls-43" x="22.17" y="0">k</tspan><tspan x="27.22" y="0">imi uğu</tspan><tspan class="cls-37" x="60.38" y="0">r</tspan><tspan x="63.72" y="0">lu bir şi</tspan><tspan class="cls-43" x="94.15" y="0">r</tspan><tspan class="cls-74" x="97.49" y="0">k</tspan><tspan x="102.43" y="0">ə</tspan><tspan class="cls-50" x="107.58" y="0">t</tspan><tspan x="110.87" y="0">də işlə</tspan><tspan class="cls-38" x="137.92" y="0">m</tspan><tspan x="146.97" y="0">ək is</tspan><tspan class="cls-46" x="165.92" y="0">t</tspan><tspan class="cls-36" x="169.22" y="0">ə</tspan><tspan x="174.23" y="0">yimi ça</tspan><tspan class="cls-50" x="204.52" y="0">t</tspan><tspan x="207.81" y="0">dı</tspan><tspan class="cls-37" x="215.88" y="0">r</tspan><tspan x="219.23" y="0">m</tspan><tspan class="cls-38" x="228.26" y="0">a</tspan><tspan x="233.31" y="0">q </tspan><tspan x="0" y="10.65">is</tspan><tspan class="cls-50" x="6.46" y="10.65">t</tspan><tspan class="cls-49" x="9.75" y="10.65">ə</tspan><tspan x="14.77" y="10.65">yi</tspan><tspan class="cls-75" x="21.68" y="10.65">r</tspan><tspan x="24.98" y="10.65">əm, bu</tspan><tspan class="cls-76" x="54.7" y="10.65">r</tspan><tspan class="cls-38" x="58.04" y="10.65">a</tspan><tspan x="63.08" y="10.65">da şi</tspan><tspan class="cls-37" x="82.57" y="10.65">r</tspan><tspan class="cls-74" x="85.92" y="10.65">k</tspan><tspan x="90.86" y="10.65">ətini</tspan><tspan class="cls-76" x="109.81" y="10.65">z</tspan><tspan x="114.09" y="10.65">ə d</tspan><tspan class="cls-36" x="127.24" y="10.65">əy</tspan><tspan x="136.74" y="10.65">ər əl</tspan><tspan class="cls-39" x="154.97" y="10.65">a</tspan><tspan class="cls-49" x="159.91" y="10.65">v</tspan><tspan x="164.4" y="10.65">ə edə bilə</tspan><tspan class="cls-48" x="205.57" y="10.65">c</tspan><tspan class="cls-36" x="210.29" y="10.65">ə</tspan><tspan x="215.3" y="10.65">yi</tspan><tspan class="cls-40" x="222.21" y="10.65">m</tspan><tspan x="231.26" y="10.65">ə </tspan><tspan x="0" y="21.29">şüb</tspan><tspan class="cls-38" x="15.67" y="21.29">h</tspan><tspan x="21.45" y="21.29">əm </tspan><tspan class="cls-49" x="37.87" y="21.29">y</tspan><tspan class="cls-50" x="42.35" y="21.29">ox</tspan><tspan x="51.92" y="21.29">du</tspan><tspan class="cls-39" x="63.42" y="21.29">r</tspan><tspan x="66.75" y="21.29">. Düşünü</tspan><tspan class="cls-77" x="104.95" y="21.29">r</tspan><tspan x="108.26" y="21.29">əm </tspan><tspan class="cls-43" x="124.67" y="21.29">k</tspan><tspan x="129.72" y="21.29">i, </tspan><tspan class="cls-43" x="136.05" y="21.29">C</tspan><tspan class="cls-78" x="142.1" y="21.29">V</tspan><tspan class="cls-79" x="147.86" y="21.29">-</tspan><tspan x="151.2" y="21.29">də q</tspan><tspan class="cls-39" x="170.12" y="21.29">e</tspan><tspan class="cls-36" x="175.18" y="21.29">y</tspan><tspan x="179.67" y="21.29">d e</tspan><tspan class="cls-50" x="192.82" y="21.29">t</tspan><tspan x="196.12" y="21.29">diyim </tspan><tspan class="cls-45" x="0" y="31.94">b</tspan><tspan class="cls-38" x="5.75" y="31.94">a</tspan><tspan x="10.79" y="31.94">ca</tspan><tspan class="cls-37" x="20.61" y="31.94">r</tspan><tspan x="23.96" y="31.94">ıqla</tspan><tspan class="cls-43" x="39.34" y="31.94">r</tspan><tspan x="42.69" y="31.94">ım iş </tspan><tspan class="cls-50" x="64.93" y="31.94">t</tspan><tspan x="68.23" y="31.94">ə</tspan><tspan class="cls-39" x="73.37" y="31.94">s</tspan><tspan x="77.45" y="31.94">vi</tspan><tspan class="cls-43" x="84.36" y="31.94">r</tspan><tspan x="87.71" y="31.94">i</tspan><tspan class="cls-40" x="90" y="31.94">n</tspan><tspan x="95.78" y="31.94">ə </tspan><tspan class="cls-36" x="103.16" y="31.94">v</tspan><tspan x="107.65" y="31.94">ə şi</tspan><tspan class="cls-43" x="121.48" y="31.94">r</tspan><tspan class="cls-74" x="124.83" y="31.94">k</tspan><tspan x="129.77" y="31.94">ətinizin pe</tspan><tspan class="cls-80" x="174.28" y="31.94">r</tspan><tspan x="177.66" y="31.94">spektivi</tspan><tspan class="cls-40" x="210.52" y="31.94">n</tspan><tspan x="216.3" y="31.94">ə </tspan><tspan x="0" y="42.58">u</tspan><tspan class="cls-36" x="5.73" y="42.58">y</tspan><tspan x="10.22" y="42.58">ğu</tspan><tspan class="cls-40" x="21.79" y="42.58">n</tspan><tspan x="27.58" y="42.58">du</tspan><tspan class="cls-81" x="39.08" y="42.58">r</tspan><tspan x="42.41" y="42.58">.</tspan><tspan class="cls-43" x="0" y="63.88">C</tspan><tspan class="cls-78" x="6.06" y="63.88">V</tspan><tspan x="11.81" y="63.88">-ni </tspan><tspan class="cls-38" x="25.36" y="63.88">n</tspan><tspan class="cls-76" x="31.14" y="63.88">əz</tspan><tspan x="40.48" y="63.88">ə</tspan><tspan class="cls-77" x="45.63" y="63.88">r</tspan><tspan x="48.93" y="63.88">dən </tspan><tspan class="cls-74" x="67.85" y="63.88">k</tspan><tspan x="72.79" y="63.88">eçi</tspan><tspan class="cls-43" x="85.02" y="63.88">r</tspan><tspan class="cls-40" x="88.36" y="63.88">m</tspan><tspan class="cls-36" x="97.42" y="63.88">əy</tspan><tspan x="106.92" y="63.88">ə </tspan><tspan class="cls-82" x="114.3" y="63.88">v</tspan><tspan x="118.78" y="63.88">axt </tspan><tspan class="cls-39" x="134.04" y="63.88">a</tspan><tspan x="138.98" y="63.88">yı</tspan><tspan class="cls-77" x="145.89" y="63.88">r</tspan><tspan x="149.19" y="63.88">dığınız üçün </tspan><tspan class="cls-50" x="204.29" y="63.88">t</tspan><tspan x="207.58" y="63.88">əşək</tspan><tspan class="cls-39" x="227.16" y="63.88">k</tspan><tspan x="232.19" y="63.88">ür </tspan><tspan x="0" y="74.52">edi</tspan><tspan class="cls-77" x="13.21" y="74.52">r</tspan><tspan x="16.51" y="74.52">əm. Si</tspan><tspan class="cls-48" x="42.26" y="74.52">z</tspan><tspan x="46.54" y="74.52">dən müsbət </tspan><tspan class="cls-46" x="100.99" y="74.52">x</tspan><tspan x="105.38" y="74.52">əbər alm</tspan><tspan class="cls-38" x="143.44" y="74.52">a</tspan><tspan x="148.49" y="74.52">q dil</tspan><tspan class="cls-36" x="166.85" y="74.52">ə</tspan><tspan x="171.86" y="74.52">yi il</tspan><tspan class="cls-49" x="185.58" y="74.52">ə</tspan><tspan x="190.6" y="74.52">.</tspan></text><text class="cls-83" transform="translate(340.79 308.66)">Doğum ta<tspan class="cls-84" x="63.85" y="0">r</tspan><tspan x="68.67" y="0">ixi: 15</tspan><tspan class="cls-85" x="98.84" y="0">.</tspan><tspan x="101.21" y="0">1</tspan><tspan class="cls-86" x="105.63" y="0">0.</tspan><tspan x="116.1" y="0">19</tspan><tspan class="cls-87" x="128.05" y="0">9</tspan><tspan x="135.58" y="0">2</tspan></text><text class="cls-88" transform="translate(371.04 573.18)">DİL BİLİK<tspan class="cls-89" x="57.21" y="0">L</tspan><tspan x="64.28" y="0">Ə</tspan><tspan class="cls-90" x="73.79" y="0">R</tspan><tspan x="82.33" y="0">İ</tspan></text><text class="cls-91" transform="translate(371.04 596.64)"><tspan class="cls-92">T</tspan><tspan x="5.35" y="0">ü</tspan><tspan class="cls-93" x="11.67" y="0">r</tspan><tspan class="cls-94" x="15.43" y="0">k</tspan><tspan class="cls-95" x="20.97" y="0">c</tspan><tspan class="cls-96" x="26.22" y="0">ə</tspan></text><rect class="cls-97" x="371.04" y="600.64" width="173.4" height="6.48"/><text class="cls-91" transform="translate(371.04 630.5)">İ<tspan class="cls-98" x="2.89" y="0">n</tspan><tspan x="9.27" y="0">gilis</tspan><tspan class="cls-95" x="28.19" y="0">c</tspan><tspan class="cls-96" x="33.44" y="0">ə</tspan></text><rect class="cls-97" x="371.04" y="634.5" width="173.4" height="6.48"/><text class="cls-91" transform="translate(371.04 664.36)">Rusca</text><rect class="cls-97" x="371.04" y="668.36" width="173.4" height="6.48"/><polygon class="cls-3" points="522.59 656 522.59 668.36 371.04 668.36 371.04 674.84 518.07 674.84 542.14 674.84 542.14 668.36 542.14 656 522.59 656"/><polygon class="cls-3" points="513.8 622.14 513.8 634.5 371.04 634.5 371.04 640.97 509.28 640.97 533.35 640.97 533.35 634.5 533.35 622.14 513.8 622.14"/><polygon class="cls-3" points="493.09 588.28 493.09 600.64 371.04 600.64 371.04 607.11 488.57 607.11 512.64 607.11 512.64 600.64 512.64 588.28 493.09 588.28"/><text class="cls-99" transform="translate(495.75 596.64)"><tspan class="cls-100">7</tspan><tspan class="cls-101" x="3.56" y="0">5</tspan><tspan x="7.02" y="0">%</tspan></text><text class="cls-99" transform="translate(516.46 630.5)">90%</text><text class="cls-99" transform="translate(525.25 664.36)">99%</text><text class="cls-102" transform="translate(370.92 702.22)">P<tspan class="cls-103" x="8.12" y="0">R</tspan><tspan class="cls-104" x="16.4" y="0">OQRAM</tspan></text><text class="cls-105" transform="translate(370.52 721.91)"><tspan class="cls-106">W</tspan><tspan class="cls-107" x="9.99" y="0">o</tspan><tspan class="cls-108" x="15.92" y="0">r</tspan><tspan x="19.63" y="0">d</tspan></text><rect class="cls-97" x="370.52" y="725.9" width="172.88" height="6.48"/><text class="cls-105" transform="translate(370.52 755.78)"><tspan class="cls-108">E</tspan><tspan class="cls-109" x="6.14" y="0">x</tspan><tspan class="cls-110" x="11.12" y="0">c</tspan><tspan x="16.37" y="0">el</tspan></text><rect class="cls-97" x="370.52" y="759.77" width="172.88" height="6.48"/><text class="cls-105" transform="translate(370.52 789.65)"><tspan class="cls-108">P</tspan><tspan class="cls-111" x="6.62" y="0">ow</tspan><tspan class="cls-107" x="20.66" y="0">e</tspan><tspan class="cls-108" x="26.37" y="0">rP</tspan><tspan x="36.7" y="0">oint</tspan></text><rect class="cls-97" x="370.52" y="793.64" width="172.88" height="6.48"/><polygon class="cls-3" points="521.61 781.28 521.61 793.64 370.52 793.64 370.52 800.12 517.1 800.12 541.1 800.12 541.1 793.64 541.1 781.28 521.61 781.28"/><polygon class="cls-3" points="512.85 747.41 512.85 759.77 370.52 759.77 370.52 766.25 508.34 766.25 532.34 766.25 532.34 759.77 532.34 747.41 512.85 747.41"/><polygon class="cls-3" points="492.2 713.54 492.2 725.9 370.52 725.9 370.52 732.38 487.69 732.38 511.69 732.38 511.69 725.9 511.69 713.54 492.2 713.54"/><text class="cls-112" transform="translate(494.85 721.91)"><tspan class="cls-113">7</tspan><tspan class="cls-114" x="3.56" y="0">5</tspan><tspan x="7.02" y="0">%</tspan></text><text class="cls-112" transform="translate(515.5 755.78)">90%</text><text class="cls-112" transform="translate(524.26 789.65)">99%</text><text class="cls-105" transform="translate(370.52 818.45)">Outlook</text><rect class="cls-97" x="370.52" y="822.44" width="172.88" height="6.48"/><polygon class="cls-3" points="521.61 810.08 521.61 822.44 370.52 822.44 370.52 828.92 517.1 828.92 541.1 828.92 541.1 822.44 541.1 810.08 521.61 810.08"/><text class="cls-112" transform="translate(524.26 818.45)">99%</text></g></svg>