<svg xmlns="http://www.w3.org/2000/svg" xmlns:xlink="http://www.w3.org/1999/xlink" viewBox="0 0 1079 1080"><defs><style>.cls-1,.cls-47{fill:none;}.cls-2{clip-path:url(#clip-path);}.cls-3{clip-path:url(#clip-path-2);}.cls-34,.cls-37,.cls-4{fill:#937c5d;}.cls-12,.cls-15,.cls-22,.cls-26,.cls-5,.cls-7{fill:#f4ece3;}.cls-129,.cls-43,.cls-6,.cls-76{fill:#0e163b;}.cls-12,.cls-15,.cls-7{font-size:9.74px;font-family:Averta-Semibold, Averta;}.cls-118,.cls-12,.cls-120,.cls-15,.cls-34,.cls-37,.cls-7{font-weight:600;}.cls-7{letter-spacing:-0.07em;}.cls-12,.cls-18,.cls-8{letter-spacing:0.02em;}.cls-9{letter-spacing:0.01em;}.cls-10,.cls-18{font-family:Averta-Light, Averta;font-weight:300;}.cls-10,.cls-15{letter-spacing:0.02em;}.cls-11{letter-spacing:0.01em;}.cls-13{letter-spacing:0.01em;}.cls-14{letter-spacing:0em;}.cls-16{letter-spacing:0em;}.cls-17{letter-spacing:-0.01em;}.cls-19{letter-spacing:0.02em;}.cls-20{letter-spacing:0em;}.cls-21{letter-spacing:0em;}.cls-22,.cls-43,.cls-76{font-size:17.2px;font-family:Averta-ExtraBold, Averta;font-weight:800;}.cls-22,.cls-43,.cls-77{letter-spacing:0.02em;}.cls-23{letter-spacing:0.04em;}.cls-24,.cls-76{letter-spacing:-0.02em;}.cls-25{letter-spacing:0.02em;}.cls-26{font-size:9.53px;}.cls-114,.cls-26{font-family:Montserrat-Medium, Montserrat;font-weight:500;}.cls-27{letter-spacing:-0.01em;}.cls-28{letter-spacing:-0.01em;}.cls-29{letter-spacing:-0.02em;}.cls-30{letter-spacing:-0.01em;}.cls-31{letter-spacing:0em;}.cls-32{letter-spacing:0em;}.cls-33{letter-spacing:-0.01em;}.cls-34,.cls-37{font-size:6.16px;}.cls-118,.cls-120,.cls-34,.cls-37{font-family:Montserrat-SemiBold, Montserrat;}.cls-34{letter-spacing:-0.02em;}.cls-35{letter-spacing:-0.01em;}.cls-36{letter-spacing:0em;}.cls-38{letter-spacing:0em;}.cls-39{letter-spacing:-0.05em;}.cls-40{letter-spacing:-0.01em;}.cls-41{letter-spacing:-0.02em;}.cls-42{letter-spacing:-0.01em;}.cls-44{letter-spacing:-0.02em;}.cls-45{letter-spacing:0em;}.cls-46{letter-spacing:0.01em;}.cls-47{stroke:#141b31;stroke-miterlimit:10;stroke-width:0.4px;}.cls-48{font-size:11.9px;}.cls-48,.cls-54,.cls-68,.cls-78,.cls-84,.cls-90{fill:#141b31;}.cls-129,.cls-48,.cls-78{font-family:Montserrat-Bold, Montserrat;}.cls-106,.cls-129,.cls-48,.cls-78{font-weight:700;}.cls-49{letter-spacing:-0.01em;}.cls-50{letter-spacing:0em;}.cls-51{letter-spacing:-0.02em;}.cls-52{letter-spacing:0em;}.cls-53{letter-spacing:-0.01em;}.cls-54{font-size:8.66px;}.cls-119,.cls-54,.cls-68,.cls-84,.cls-90{font-family:Montserrat-Regular, Montserrat;}.cls-55{letter-spacing:-0.02em;}.cls-56{letter-spacing:-0.01em;}.cls-57{letter-spacing:0em;}.cls-58{letter-spacing:-0.01em;}.cls-59{letter-spacing:0em;}.cls-60{letter-spacing:-0.02em;}.cls-61{letter-spacing:-0.01em;}.cls-62{letter-spacing:0em;}.cls-63{letter-spacing:-0.02em;}.cls-64{letter-spacing:0.02em;}.cls-65{letter-spacing:0em;}.cls-66{letter-spacing:-0.01em;}.cls-67{letter-spacing:-0.02em;}.cls-68{font-size:7.21px;}.cls-69{letter-spacing:-0.02em;}.cls-70{letter-spacing:-0.01em;}.cls-71{letter-spacing:0em;}.cls-72{letter-spacing:0em;}.cls-73{letter-spacing:-0.02em;}.cls-74{letter-spacing:-0.01em;}.cls-75{letter-spacing:0em;}.cls-78{font-size:17.31px;}.cls-79{letter-spacing:0em;}.cls-80{letter-spacing:-0.02em;}.cls-81{letter-spacing:0em;}.cls-82{letter-spacing:0em;}.cls-83{letter-spacing:-0.02em;}.cls-84{font-size:12.59px;}.cls-85{letter-spacing:-0.03em;}.cls-86{letter-spacing:-0.01em;}.cls-87{letter-spacing:-0.01em;}.cls-88{letter-spacing:0em;}.cls-89{letter-spacing:-0.02em;}.cls-90{font-size:10.49px;}.cls-91{letter-spacing:-0.02em;}.cls-92{letter-spacing:-0.01em;}.cls-93{letter-spacing:0em;}.cls-94{letter-spacing:0em;}.cls-105,.cls-106,.cls-114,.cls-118,.cls-119,.cls-120,.cls-95{fill:#fff;}.cls-96{letter-spacing:2.34em;}.cls-97{letter-spacing:-0.01em;}.cls-98{letter-spacing:-0.02em;}.cls-99{letter-spacing:-0.01em;}.cls-100{letter-spacing:0.01em;}.cls-101{letter-spacing:0.01em;}.cls-102{letter-spacing:-0.01em;}.cls-103{letter-spacing:-0.01em;}.cls-104{letter-spacing:-0.01em;}.cls-105{fill-rule:evenodd;}.cls-106{font-size:30.55px;font-family:Averta-Bold, Averta;}.cls-107{letter-spacing:0em;}.cls-108{letter-spacing:0em;}.cls-109{letter-spacing:0.01em;}.cls-110{letter-spacing:0em;}.cls-111{fill:#2b2c2b;}.cls-112{fill:#927c5d;}.cls-113{fill:#414142;}.cls-114{font-size:22.5px;}.cls-115{letter-spacing:-0.03em;}.cls-116{letter-spacing:0em;}.cls-117{letter-spacing:-0.01em;}.cls-118{font-size:58.13px;}.cls-119{font-size:22px;}.cls-120{font-size:39.76px;}.cls-121{letter-spacing:0em;}.cls-122{letter-spacing:-0.01em;}.cls-123{letter-spacing:-0.01em;}.cls-124{letter-spacing:-0.01em;}.cls-125{letter-spacing:-0.01em;}.cls-126{letter-spacing:-0.02em;}.cls-127{letter-spacing:0em;}.cls-128{letter-spacing:0em;}.cls-129{font-size:32.77px;}.cls-130{letter-spacing:-0.01em;}.cls-131{letter-spacing:0.01em;}.cls-132{letter-spacing:0em;}.cls-133{letter-spacing:-0.02em;}.cls-134{letter-spacing:-0.04em;}.cls-135{clip-path:url(#clip-path-5);}</style><clipPath id="clip-path"><rect class="cls-1" x="-737.35" y="129.93" width="240.06" height="199.42"/></clipPath><clipPath id="clip-path-2"><circle class="cls-1" cx="532.07" cy="180.29" r="65.91"/></clipPath><clipPath id="clip-path-5"><circle class="cls-1" cx="-757.41" cy="-1054.72" r="90.88"/></clipPath></defs><g id="PRINT"><rect class="cls-4" x="403.8" y="67.3" width="644.2" height="911.08"/><rect class="cls-5" x="420.95" y="91.55" width="609.9" height="862.57"/><path class="cls-6" d="M672.92,954.12H421V354.19h154.3a97.67,97.67,0,0,1,97.67,97.67Z"/><path class="cls-5" d="M447,445.27l0,0a8.1,8.1,0,0,0,.73-.7l.08-.09.4-.4a1.37,1.37,0,0,1,2.06,0l2.11,2.11a1.4,1.4,0,0,1,.47,1,1.44,1.44,0,0,1-.47,1l-1.31,1.32a.24.24,0,0,0-.09.15.19.19,0,0,0,0,.09s0,0,0,0,.15.26.23.41a3.42,3.42,0,0,0,.22.42,13.42,13.42,0,0,0,3,3.26h0a7.44,7.44,0,0,0,1.84,1.13h0c.13,0,.16,0,.25,0h0c.29-.33.59-.63.94-1a2.5,2.5,0,0,1,.23-.23l.1-.1a1.33,1.33,0,0,1,2.06,0l1,1,.19.19.18.17.7.71h0a1.4,1.4,0,0,1,.45,1,1.48,1.48,0,0,1-.44,1h0l-1.31,1.31a2.38,2.38,0,0,1-1.52.71,6,6,0,0,1-2.66-.47,16,16,0,0,1-4.78-2.87,17.54,17.54,0,0,1-4.59-5.87,8.73,8.73,0,0,1-1-3.22v-.21A2.48,2.48,0,0,1,447,445.27Z"/><path class="cls-5" d="M462.88,486.21a.2.2,0,0,0,0-.07.11.11,0,0,0,0-.05.25.25,0,0,0,0-.07s0,0,0,0l0-.06,0-.05,0,0,0,0,0-.05,0,0-.06,0-.05,0-.06,0-.06,0h-16l-.06,0-.06,0-.06,0-.05,0-.05,0,0,.05,0,0,0,0,0,.05,0,.06s0,0,0,0a.25.25,0,0,0,0,.07s0,0,0,.05v.07s0,0,0,0V497.5a.65.65,0,0,0,.65.65h15.73a.65.65,0,0,0,.65-.65V486.25S462.88,486.22,462.88,486.21Zm-2.39.68-6.12,5.21-6.11-5.21ZM454,493.44a.58.58,0,0,0,.41.15.6.6,0,0,0,.42-.15"/><path class="cls-5" d="M454.37,526.2a8.15,8.15,0,1,0,8.14,8.15A8.15,8.15,0,0,0,454.37,526.2Zm6.88,7.53h-2a10.82,10.82,0,0,0-1.57-5.43A6.93,6.93,0,0,1,461.25,533.73Zm-7.49-6.19v6.19H450.7C450.85,530.64,452.14,528.07,453.76,527.54Zm0,7.42v6.2c-1.62-.54-2.91-3.11-3.06-6.2Zm1.23,6.2V535h3.06C457.9,538.05,456.6,540.62,455,541.16Zm0-7.43v-6.19c1.61.53,2.91,3.1,3.06,6.19ZM451,528.3a10.82,10.82,0,0,0-1.58,5.43h-2A6.93,6.93,0,0,1,451,528.3ZM447.5,535h2A10.89,10.89,0,0,0,451,540.4,7,7,0,0,1,447.5,535Zm10.21,5.44a10.89,10.89,0,0,0,1.57-5.44h2A7,7,0,0,1,457.71,540.4Z"/><text class="cls-7" transform="translate(487.53 448.76)">T<tspan class="cls-8" x="5.06" y="0">el</tspan><tspan class="cls-9" x="13.59" y="0">ef</tspan><tspan class="cls-8" x="22.62" y="0">on:</tspan><tspan class="cls-10"><tspan x="0" y="11.69">+9</tspan><tspan class="cls-11" x="11.73" y="11.69">9</tspan><tspan class="cls-8" x="17.44" y="11.69">4xx xxx xx xx</tspan></tspan></text><text class="cls-12" transform="translate(487.53 488.48)">Elekt<tspan class="cls-11" x="23.82" y="0">r</tspan><tspan x="27.51" y="0">on poçt:</tspan><tspan class="cls-10"><tspan x="0" y="11.69">cvhazirlama@gmai</tspan><tspan class="cls-13" x="88.22" y="11.69">l</tspan><tspan class="cls-14" x="90.56" y="11.69">.</tspan><tspan x="92.76" y="11.69">com</tspan></tspan></text><text class="cls-15" transform="translate(487.53 533.73)">Ü<tspan class="cls-16" x="7.21" y="0">n</tspan><tspan class="cls-17" x="13.02" y="0">v</tspan><tspan x="18.15" y="0">an:</tspan><tspan class="cls-18"><tspan x="0" y="11.69">Bakı </tspan><tspan class="cls-19" x="22.9" y="11.69">ş</tspan><tspan x="27.3" y="11.69">əhəri, A</tspan><tspan class="cls-20" x="61.9" y="11.69">z</tspan><tspan x="66.36" y="11.69">ərba</tspan><tspan class="cls-21" x="87.61" y="11.69">y</tspan><tspan x="92.67" y="11.69">can</tspan></tspan></text><text class="cls-22" transform="translate(487.53 407.94)">Ə<tspan class="cls-23" x="12.68" y="0">L</tspan><tspan class="cls-24" x="22.77" y="0">A</tspan><tspan class="cls-25" x="34.34" y="0">QƏ</tspan></text><text class="cls-22" transform="translate(487.53 607.1)">Ə<tspan class="cls-23" x="12.68" y="0">L</tspan><tspan class="cls-24" x="22.77" y="0">A</tspan><tspan class="cls-25" x="34.34" y="0">QƏ</tspan></text><text class="cls-26" transform="translate(440.67 643.22)"><tspan class="cls-27">T</tspan><tspan x="5.47" y="0">ü</tspan><tspan class="cls-28" x="11.92" y="0">r</tspan><tspan class="cls-29" x="15.76" y="0">k</tspan><tspan class="cls-30" x="21.42" y="0">c</tspan><tspan x="26.78" y="0">ə</tspan></text><rect class="cls-4" x="440.67" y="647.3" width="177.14" height="6.62"/><text class="cls-26" transform="translate(440.67 677.81)">İ<tspan class="cls-31" x="2.95" y="0">n</tspan><tspan class="cls-32" x="9.47" y="0">gilis</tspan><tspan class="cls-33" x="28.79" y="0">c</tspan><tspan x="34.16" y="0">ə</tspan></text><rect class="cls-4" x="440.67" y="681.89" width="177.14" height="6.62"/><text class="cls-26" transform="translate(440.67 712.4)">Rusca</text><rect class="cls-4" x="440.67" y="716.47" width="177.14" height="6.62"/><polygon class="cls-5" points="595.48 703.85 595.48 716.48 440.67 716.48 440.67 723.09 590.86 723.09 615.45 723.09 615.45 716.48 615.45 703.85 595.48 703.85"/><polygon class="cls-5" points="586.5 669.26 586.5 681.88 440.67 681.88 440.67 688.5 581.88 688.5 606.47 688.5 606.47 681.88 606.47 669.26 586.5 669.26"/><polygon class="cls-5" points="565.35 634.67 565.35 647.29 440.67 647.29 440.67 653.91 560.73 653.91 585.31 653.91 585.31 647.29 585.31 634.67 565.35 634.67"/><text class="cls-34" transform="translate(568.06 643.22)">7<tspan class="cls-35" x="3.64" y="0">5</tspan><tspan class="cls-36" x="7.17" y="0">%</tspan></text><text class="cls-37" transform="translate(589.22 677.81)">90%</text><text class="cls-37" transform="translate(598.19 712.4)">99%</text><text class="cls-22" transform="translate(487.53 793.86)">P<tspan class="cls-38" x="10.83" y="0">R</tspan><tspan x="21.86" y="0">OQRAM</tspan></text><text class="cls-26" transform="translate(440.67 829.97)"><tspan class="cls-39">W</tspan><tspan x="10.21" y="0">o</tspan><tspan class="cls-40" x="16.26" y="0">r</tspan><tspan x="20.05" y="0">d</tspan></text><rect class="cls-4" x="440.67" y="834.05" width="177.14" height="6.62"/><text class="cls-26" transform="translate(440.67 864.56)"><tspan class="cls-40">E</tspan><tspan class="cls-41" x="6.27" y="0">x</tspan><tspan class="cls-33" x="11.36" y="0">c</tspan><tspan x="16.72" y="0">el</tspan></text><rect class="cls-4" x="440.67" y="868.64" width="177.14" height="6.62"/><text class="cls-26" transform="translate(440.67 899.15)"><tspan class="cls-40">P</tspan><tspan class="cls-42" x="6.76" y="0">ow</tspan><tspan x="21.1" y="0">e</tspan><tspan class="cls-40" x="26.93" y="0">rP</tspan><tspan x="37.48" y="0">oint</tspan></text><rect class="cls-4" x="440.67" y="903.23" width="177.14" height="6.62"/><polygon class="cls-5" points="595.48 890.61 595.48 903.23 440.67 903.23 440.67 909.84 590.86 909.84 615.45 909.84 615.45 903.23 615.45 890.61 595.48 890.61"/><polygon class="cls-5" points="586.5 856.02 586.5 868.64 440.67 868.64 440.67 875.25 581.88 875.25 606.47 875.25 606.47 868.64 606.47 856.02 586.5 856.02"/><polygon class="cls-5" points="565.35 821.43 565.35 834.05 440.67 834.05 440.67 840.66 560.73 840.66 585.31 840.66 585.31 834.05 585.31 821.43 565.35 821.43"/><text class="cls-34" transform="translate(568.06 829.97)">7<tspan class="cls-35" x="3.64" y="0">5</tspan><tspan class="cls-36" x="7.17" y="0">%</tspan></text><text class="cls-37" transform="translate(589.22 864.56)">90%</text><text class="cls-37" transform="translate(598.19 899.15)">99%</text><text class="cls-26" transform="translate(440.67 928.56)">Outlook</text><rect class="cls-4" x="440.67" y="932.64" width="177.14" height="6.62"/><polygon class="cls-5" points="595.48 920.02 595.48 932.64 440.67 932.64 440.67 939.26 590.86 939.26 615.45 939.26 615.45 932.64 615.45 920.02 595.48 920.02"/><text class="cls-37" transform="translate(598.19 928.56)">99%</text><path class="cls-5" d="M454,395.77a.56.56,0,0,1-.55.58h-1.19a.58.58,0,0,1,0-1.16h1.19a.56.56,0,0,1,.55.58Zm0,3.25a.57.57,0,0,0-.55-.59h-1.19a.58.58,0,0,0-.56.59.57.57,0,0,0,.56.58h1.19A.56.56,0,0,0,454,399Zm0,3.25a.56.56,0,0,0-.55-.59h-1.19a.59.59,0,0,0,0,1.17h1.19a.56.56,0,0,0,.55-.58Zm0,3.24a.56.56,0,0,0-.55-.58h-1.19a.57.57,0,0,0-.56.58.58.58,0,0,0,.56.59h1.19a.57.57,0,0,0,.55-.59Zm10.91-11.33v12.93a.63.63,0,0,1-.63.63H453.47a.63.63,0,0,1-.63-.63v-.56h.58a1,1,0,0,0,0-2.07h-.58v-1.17h.58a1,1,0,0,0,0-2.08h-.58v-1.17h.58a1,1,0,0,0,0-2.08h-.58v-1.17h.58a1,1,0,0,0,0-2.08h-.58v-.55a.64.64,0,0,1,.63-.64h10.78a.64.64,0,0,1,.63.64Zm-7.2,4.76c0-.19.14-.4.29-.38a4.77,4.77,0,0,1,.76.43c.42.21,1.1-1.46.79-1.66a5.77,5.77,0,0,0-.74-.47.8.8,0,0,0-.15,0A2.09,2.09,0,0,0,456.3,399c-.05.54-.07,1.09-.08,1.64h0a.06.06,0,0,1,0,0,.09.09,0,0,1,0,.05h0c0,.54,0,1.09.08,1.64a2.09,2.09,0,0,0,2.33,2.12l.15,0a4.92,4.92,0,0,0,.74-.48c.31-.19-.37-1.87-.79-1.65a4.05,4.05,0,0,1-.76.42c-.15,0-.27-.18-.29-.37,0-.5,0-1.14,0-1.66h0v-.09h0c0-.53,0-1.17,0-1.66Zm2.74,3.13a2,2,0,0,0,0-2.86l-.42.42a1.42,1.42,0,0,1,0,2Zm.75.75a3.11,3.11,0,0,0,0-4.36l-.43.42a2.47,2.47,0,0,1,0,3.52Zm.72-5.08-.42.42a3.51,3.51,0,0,1,0,5l.42.42a4.1,4.1,0,0,0,0-5.8Zm0,0"/><path class="cls-5" d="M465.15,599.21a6.88,6.88,0,1,0-6.87,6.87,7,7,0,0,0,1.66-.21.44.44,0,0,1,.32,0l2.69,1.36a.18.18,0,0,0,.26-.17l-.1-2.81a.42.42,0,0,1,.13-.33A6.85,6.85,0,0,0,465.15,599.21Zm-3.36-.79a.63.63,0,1,1-.63.63A.63.63,0,0,1,461.79,598.42ZM455,599.68a.63.63,0,1,1,.63-.63A.63.63,0,0,1,455,599.68Zm3.29,0a.63.63,0,0,1,0-1.26.63.63,0,1,1,0,1.26Z"/><path class="cls-5" d="M465.67,784.51a1.39,1.39,0,0,0-1.95.17l-.3.36,2.12,1.78.29-.36A1.38,1.38,0,0,0,465.67,784.51Z"/><path class="cls-5" d="M458.8,792a.47.47,0,0,0,.15.46.48.48,0,0,0,.49.07l1.69-.73a1.48,1.48,0,0,0,.51-.38l.16-.19-2.13-1.78-.15.18a1.4,1.4,0,0,0-.29.57Z"/><polygon class="cls-5" points="460.27 788.76 462.39 790.54 464.95 787.52 462.82 785.74 460.27 788.76"/><path class="cls-5" d="M462,780.72l-1.75-1.66a1.35,1.35,0,0,0-.59-.31v2.7h2.75A1.41,1.41,0,0,0,462,780.72Z"/><path class="cls-5" d="M461.5,792.66l-1.7.74a1.39,1.39,0,0,1-1.9-1.6l.43-1.79a2.44,2.44,0,0,1,.48-1l3.59-4.25v-2.44h-3.23a.47.47,0,0,1-.46-.46v-3.23h-6.93a1.38,1.38,0,0,0-1.38,1.38v13a1.38,1.38,0,0,0,1.38,1.39H461a1.38,1.38,0,0,0,1.38-1.39V792l-.06.07A2.27,2.27,0,0,1,461.5,792.66Zm-8.79-11.21h4.62a.46.46,0,0,1,.46.46.47.47,0,0,1-.46.46h-4.62a.46.46,0,0,1-.46-.46A.45.45,0,0,1,452.71,781.45Zm0,2.8h7.39a.46.46,0,1,1,0,.92h-7.39a.46.46,0,1,1,0-.92Zm0,2.77h5.54a.47.47,0,0,1,.46.46.46.46,0,0,1-.46.46h-5.54a.45.45,0,0,1-.46-.46A.46.46,0,0,1,452.71,787Zm3.69,3.69h-3.69a.45.45,0,0,1-.46-.46.46.46,0,0,1,.46-.46h3.69a.46.46,0,0,1,.46.46A.45.45,0,0,1,456.4,790.71Z"/><rect class="cls-4" x="709.36" y="180.29" width="35.22" height="27.12"/><text class="cls-43" transform="translate(759.64 201.14)">İŞ <tspan class="cls-44" x="20.2" y="0">T</tspan><tspan x="29.89" y="0">ƏC</tspan><tspan class="cls-45" x="55.12" y="0">R</tspan><tspan x="66.25" y="0">Ü</tspan><tspan class="cls-46" x="78.59" y="0">B</tspan><tspan x="89.63" y="0">ƏSİ</tspan></text><line class="cls-47" x1="713.09" y1="220.96" x2="713.09" y2="443.69"/><circle class="cls-4" cx="713.09" cy="230.55" r="4.95"/><circle class="cls-4" cx="713.09" cy="355.04" r="4.95"/><line class="cls-47" x1="713.09" y1="336.13" x2="1004.53" y2="336.13"/><line class="cls-47" x1="713.09" y1="443.69" x2="1004.53" y2="443.69"/><line class="cls-47" x1="713.09" y1="644.29" x2="1004.53" y2="644.29"/><text class="cls-48" transform="translate(739.96 244.55)">A<tspan class="cls-49" x="9.12" y="0">r</tspan><tspan x="14.17" y="0">az Ma</tspan><tspan class="cls-50" x="50.06" y="0">r</tspan><tspan class="cls-51" x="55.14" y="0">k</tspan><tspan class="cls-52" x="62.72" y="0">et</tspan><tspan class="cls-53" x="0" y="15.15">K</tspan><tspan x="8.67" y="15.15">assir</tspan></text><text class="cls-54" transform="translate(741.1 274.06)">- Malın d<tspan class="cls-55" x="37.61" y="0">əy</tspan><tspan x="47.27" y="0">ə</tspan><tspan class="cls-56" x="52.5" y="0">r</tspan><tspan x="55.9" y="0">inin </tspan><tspan class="cls-57" x="74.55" y="0">h</tspan><tspan x="80.43" y="0">esablanması </tspan><tspan class="cls-55" x="137.29" y="0">v</tspan><tspan x="141.85" y="0">ə </tspan><tspan class="cls-58" x="149.35" y="0">k</tspan><tspan x="154.47" y="0">assa ə</tspan><tspan class="cls-57" x="180.64" y="0">m</tspan><tspan x="189.85" y="0">əli</tspan><tspan class="cls-59" x="199.73" y="0">y</tspan><tspan class="cls-60" x="204.38" y="0">y</tspan><tspan x="208.94" y="0">atının </tspan><tspan class="cls-55" x="236.21" y="0">y</tspan><tspan x="240.77" y="0">e</tspan><tspan class="cls-56" x="246" y="0">r</tspan><tspan x="249.4" y="0">i</tspan><tspan class="cls-57" x="251.73" y="0">n</tspan><tspan x="257.61" y="0">ə </tspan><tspan class="cls-55" x="0" y="10.82">y</tspan><tspan x="4.56" y="10.82">eti</tspan><tspan class="cls-56" x="15.63" y="10.82">r</tspan><tspan x="19.04" y="10.82">il</tspan><tspan class="cls-57" x="23.7" y="10.82">m</tspan><tspan x="32.9" y="10.82">əsi;</tspan><tspan x="0" y="21.64">- </tspan><tspan class="cls-61" x="5.58" y="21.64">K</tspan><tspan x="11.61" y="21.64">assa </tspan><tspan class="cls-57" x="32.56" y="21.64">h</tspan><tspan x="38.44" y="21.64">esa</tspan><tspan class="cls-62" x="53.01" y="21.64">b</tspan><tspan x="58.85" y="21.64">atını </tspan><tspan class="cls-63" x="80.26" y="21.64">t</tspan><tspan x="83.61" y="21.64">ə</tspan><tspan class="cls-64" x="88.84" y="21.64">r</tspan><tspan x="92.44" y="21.64">tib et</tspan><tspan class="cls-65" x="115.17" y="21.64">m</tspan><tspan x="124.37" y="21.64">ək;</tspan><tspan x="0" y="32.47">- Malın alınması zamanı s</tspan><tspan class="cls-58" x="109.01" y="32.47">a</tspan><tspan x="114.03" y="32.47">yının, </tspan><tspan class="cls-66" x="139.2" y="32.47">ç</tspan><tspan x="144" y="32.47">eşidinin </tspan><tspan class="cls-55" x="180.31" y="32.47">y</tspan><tspan class="cls-67" x="184.87" y="32.47">o</tspan><tspan x="190.14" y="32.47">xlanılmas</tspan></text><text class="cls-68" transform="translate(739.95 233.03)">05<tspan class="cls-69" x="8.86" y="0">/</tspan><tspan class="cls-70" x="11.13" y="0">0</tspan><tspan x="15.83" y="0">3/</tspan><tspan class="cls-71" x="22.32" y="0">2</tspan><tspan class="cls-72" x="26.39" y="0">0</tspan><tspan x="31.15" y="0">19–</tspan><tspan class="cls-73" x="41.75" y="0">P</tspan><tspan class="cls-74" x="46.76" y="0">r</tspan><tspan class="cls-75" x="49.56" y="0">esent</tspan></text><text class="cls-48" transform="translate(739.96 366.56)">A<tspan class="cls-49" x="9.12" y="0">r</tspan><tspan x="14.17" y="0">az Ma</tspan><tspan class="cls-50" x="50.06" y="0">r</tspan><tspan class="cls-51" x="55.14" y="0">k</tspan><tspan class="cls-52" x="62.72" y="0">et</tspan><tspan class="cls-53" x="0" y="15.15">K</tspan><tspan x="8.67" y="15.15">assir</tspan></text><text class="cls-54" transform="translate(741.1 396.08)">- Malın d<tspan class="cls-55" x="37.61" y="0">əy</tspan><tspan x="47.27" y="0">ə</tspan><tspan class="cls-56" x="52.5" y="0">r</tspan><tspan x="55.9" y="0">inin </tspan><tspan class="cls-57" x="74.55" y="0">h</tspan><tspan x="80.43" y="0">esablanması </tspan><tspan class="cls-55" x="137.29" y="0">v</tspan><tspan x="141.85" y="0">ə </tspan><tspan class="cls-58" x="149.35" y="0">k</tspan><tspan x="154.47" y="0">assa ə</tspan><tspan class="cls-57" x="180.64" y="0">m</tspan><tspan x="189.85" y="0">əli</tspan><tspan class="cls-59" x="199.73" y="0">y</tspan><tspan class="cls-60" x="204.38" y="0">y</tspan><tspan x="208.94" y="0">atının </tspan><tspan class="cls-55" x="236.21" y="0">y</tspan><tspan x="240.77" y="0">e</tspan><tspan class="cls-56" x="246" y="0">r</tspan><tspan x="249.4" y="0">i</tspan><tspan class="cls-57" x="251.73" y="0">n</tspan><tspan x="257.61" y="0">ə </tspan><tspan class="cls-55" x="0" y="10.82">y</tspan><tspan x="4.56" y="10.82">eti</tspan><tspan class="cls-56" x="15.63" y="10.82">r</tspan><tspan x="19.04" y="10.82">il</tspan><tspan class="cls-57" x="23.7" y="10.82">m</tspan><tspan x="32.9" y="10.82">əsi;</tspan><tspan x="0" y="21.64">- </tspan><tspan class="cls-61" x="5.58" y="21.64">K</tspan><tspan x="11.61" y="21.64">assa </tspan><tspan class="cls-57" x="32.56" y="21.64">h</tspan><tspan x="38.44" y="21.64">esa</tspan><tspan class="cls-62" x="53.01" y="21.64">b</tspan><tspan x="58.85" y="21.64">atını </tspan><tspan class="cls-63" x="80.26" y="21.64">t</tspan><tspan x="83.61" y="21.64">ə</tspan><tspan class="cls-64" x="88.84" y="21.64">r</tspan><tspan x="92.44" y="21.64">tib et</tspan><tspan class="cls-65" x="115.17" y="21.64">m</tspan><tspan x="124.37" y="21.64">ək;</tspan><tspan x="0" y="32.47">- Malın alınması zamanı s</tspan><tspan class="cls-58" x="109.01" y="32.47">a</tspan><tspan x="114.03" y="32.47">yının, </tspan><tspan class="cls-66" x="139.2" y="32.47">ç</tspan><tspan x="144" y="32.47">eşidinin </tspan><tspan class="cls-55" x="180.31" y="32.47">y</tspan><tspan class="cls-67" x="184.87" y="32.47">o</tspan><tspan x="190.14" y="32.47">xlanılmas</tspan></text><text class="cls-68" transform="translate(739.95 355.04)">05<tspan class="cls-69" x="8.86" y="0">/</tspan><tspan class="cls-70" x="11.13" y="0">0</tspan><tspan x="15.83" y="0">3/</tspan><tspan class="cls-71" x="22.32" y="0">2</tspan><tspan class="cls-72" x="26.39" y="0">0</tspan><tspan x="31.15" y="0">19–</tspan><tspan class="cls-73" x="41.75" y="0">P</tspan><tspan class="cls-74" x="46.76" y="0">r</tspan><tspan class="cls-75" x="49.56" y="0">esent</tspan></text><rect class="cls-4" x="709.36" y="489.41" width="35.22" height="27.12"/><text class="cls-76" transform="translate(759.64 510.27)">T<tspan class="cls-77" x="9.69" y="0">ƏHSİL</tspan></text><line class="cls-47" x1="713.09" y1="530.09" x2="713.09" y2="627.06"/><circle class="cls-4" cx="713.09" cy="539.68" r="4.95"/><text class="cls-78" transform="translate(739.96 568.52)">Ba<tspan class="cls-79" x="23.93" y="0">k</tspan><tspan x="35.28" y="0">ı D</tspan><tspan class="cls-80" x="59.69" y="0">ö</tspan><tspan x="70.77" y="0">vlət Uni</tspan><tspan class="cls-80" x="140.51" y="0">v</tspan><tspan x="150.6" y="0">e</tspan><tspan class="cls-81" x="161.53" y="0">r</tspan><tspan class="cls-82" x="168.95" y="0">si</tspan><tspan class="cls-83" x="183.36" y="0">t</tspan><tspan x="190.59" y="0">eti</tspan></text><text class="cls-84" transform="translate(741.63 590.65)"><tspan class="cls-85">T</tspan><tspan x="6.86" y="0">a</tspan><tspan class="cls-86" x="14.29" y="0">r</tspan><tspan x="19.24" y="0">ix </tspan><tspan class="cls-87" x="32.65" y="0">f</tspan><tspan x="36.79" y="0">a</tspan><tspan class="cls-87" x="44.22" y="0">k</tspan><tspan x="51.66" y="0">ü</tspan><tspan class="cls-88" x="60.13" y="0">l</tspan><tspan class="cls-89" x="63.55" y="0">t</tspan><tspan x="68.42" y="0">əsi</tspan></text><text class="cls-90" transform="translate(739.95 544.94)">05<tspan class="cls-91" x="12.88" y="0">/</tspan><tspan class="cls-92" x="16.19" y="0">0</tspan><tspan x="23.03" y="0">3/</tspan><tspan class="cls-93" x="32.46" y="0">2</tspan><tspan class="cls-94" x="38.38" y="0">0</tspan><tspan x="45.3" y="0">19–</tspan></text><rect class="cls-4" x="709.36" y="850.08" width="35.22" height="27.12"/><text class="cls-43" transform="translate(759.64 870.94)">HOBBİ</text><path class="cls-4" d="M789.94,925.38c-.63-1.14-2.49-1.32-4.15-.4s-2.48,2.59-1.85,3.73,2.49,1.33,4.15.41S790.57,926.53,789.94,925.38Z"/><path class="cls-4" d="M804.59,923.3c-.63-1.14-2.49-1.32-4.14-.4s-2.49,2.58-1.86,3.73,2.49,1.32,4.15.4S805.22,924.44,804.59,923.3Z"/><polygon class="cls-4" points="804.8 910.63 804.8 923.86 804.3 923.86 804.3 913.94 790.08 916.55 790.08 926.46 789.58 926.46 789.58 913.24 804.8 910.63"/><path class="cls-4" d="M735.88,909.36a14.47,14.47,0,0,0-1.53,1l0,0-2,2-1.72-.39L726,910.89l-4.28-1-3.26,1.39,9.66,5.25-5.69,5.69,0,0s-.29.45-.6,1L718,922l-1.71,1.71,4.25,2.59-.44.44.57.57.43-.43,2.57,4.21,1.72-1.71-1.23-3.81c.55-.34,1-.65,1-.67h0l5.67-5.68,5.25,9.64,1.38-3.26-2-8.9-.39-1.71,2-2,0,0a14.25,14.25,0,0,0,1-1.53c.69-1.26.81-2,.38-2.48S737.12,908.68,735.88,909.36Z"/><path class="cls-4" d="M872.87,928.76s-8.13-.42-11.25,1.36c-3.12-1.78-11.25-1.36-11.25-1.36V915.43h1.13l.13,9.6.54-12.62c.8-.08,7.13-.62,9.45,1.71,2.32-2.33,8.65-1.79,9.46-1.71l.12,13.33.54-10.31h1.13Z"/><path class="cls-4" d="M927.85,915a6.18,6.18,0,1,0,6.18,6.18A6.19,6.19,0,0,0,927.85,915Zm0,11.94a5.73,5.73,0,1,1,5.72-5.73A5.73,5.73,0,0,1,927.88,927Z"/><path class="cls-4" d="M937.33,913.45h-.19a1.06,1.06,0,0,0-1-.66h-1.36a1.09,1.09,0,0,0-1,.66H932.5l-1.24-2.24a.71.71,0,0,0-.63-.36H926a.7.7,0,0,0-.61.32l-1.49,2.28h-.59a.77.77,0,0,0-.76-.66H920a.77.77,0,0,0-.76.66h-.17a2,2,0,0,0-2,1.95v11.68a2,2,0,0,0,2,1.95h18.26a1.94,1.94,0,0,0,1.94-1.95V915.4A1.94,1.94,0,0,0,937.33,913.45Zm-17.68,2.62a.86.86,0,1,1,.85.85A.85.85,0,0,1,919.65,916.07Zm8.2,12a6.89,6.89,0,1,1,6.89-6.88A6.89,6.89,0,0,1,927.85,928.09Z"/><path class="cls-95" d="M733.61,193.37v3.9a.69.69,0,0,1-.41.64l-5.92,2.55a.83.83,0,0,1-.62,0L720.92,198a.7.7,0,0,1-.42-.63v-3.91l6.06,2.61a1,1,0,0,0,.84,0Z"/><path class="cls-95" d="M736.29,191.4a.19.19,0,0,0,0-.33l-9-3.85a.65.65,0,0,0-.51,0l-9.14,3.85a.19.19,0,0,0,0,.33l9.07,3.91a.65.65,0,0,0,.51,0l7.55-3.26v6.39a1.07,1.07,0,1,0,.6,0V191.8Z"/><path class="cls-95" d="M727.78,504.54v-.36a.81.81,0,1,0-1.62,0v.36a.81.81,0,1,0,1.62,0Zm0,0"/><path class="cls-95" d="M733.9,505h-5.57a1.42,1.42,0,0,1-2.73,0H720a2.31,2.31,0,0,1-1-.22v4.29a.73.73,0,0,0,.73.72h14.38a.72.72,0,0,0,.72-.72v-4.29A2.31,2.31,0,0,1,733.9,505Z"/><path class="cls-95" d="M734.49,498.35h-3.67v-.22a2,2,0,0,0-2-2H725a2,2,0,0,0-2,2v.22h-3.54a.73.73,0,0,0-.73.72v3.62A1.3,1.3,0,0,0,720,504h5.51a1.39,1.39,0,0,1,.44-.95l0,0a1.14,1.14,0,0,1,.17-.15l.08,0,.16-.08a.39.39,0,0,1,.14-.05l.12,0,.29,0,.28,0,.12,0a.34.34,0,0,1,.14.05l.17.08.07,0a.84.84,0,0,1,.18.15l0,0a1.43,1.43,0,0,1,.43.95h5.51a1.3,1.3,0,0,0,1.31-1.31v-3.62A.72.72,0,0,0,734.49,498.35Zm-10.41,0v-.22a.87.87,0,0,1,.88-.88h3.89a.88.88,0,0,1,.89.88v.22Z"/><rect class="cls-4" x="709.36" y="663.17" width="35.22" height="27.12"/><text class="cls-76" transform="translate(759.64 684.03)">T<tspan class="cls-77" x="9.69" y="0">ƏHSİL</tspan></text><circle class="cls-4" cx="713.09" cy="718.38" r="4.95"/><circle class="cls-4" cx="713.09" cy="740.62" r="4.95"/><circle class="cls-4" cx="713.09" cy="762.85" r="4.95"/><circle class="cls-4" cx="713.09" cy="785.08" r="4.95"/><path class="cls-95" d="M727.78,678.3v-.36a.81.81,0,0,0-1.62,0v.36a.81.81,0,0,0,1.62,0Zm0,0"/><path class="cls-95" d="M733.9,678.75h-5.57a1.42,1.42,0,0,1-2.73,0H720a2.31,2.31,0,0,1-1-.22v4.28a.73.73,0,0,0,.73.73h14.38a.73.73,0,0,0,.72-.73v-4.28A2.31,2.31,0,0,1,733.9,678.75Z"/><path class="cls-95" d="M734.49,672.11h-3.67v-.22a2,2,0,0,0-2-2H725a2,2,0,0,0-2,2v.22h-3.54a.73.73,0,0,0-.73.72v3.62a1.3,1.3,0,0,0,1.31,1.31h5.51a1.39,1.39,0,0,1,.44-1l0,0c0-.06.12-.11.17-.16l.08,0,.16-.09.14,0,.12,0,.29,0,.28,0,.12,0,.14,0,.17.09.07,0a1.37,1.37,0,0,1,.18.16l0,0a1.43,1.43,0,0,1,.43,1h5.51a1.3,1.3,0,0,0,1.31-1.31v-3.62A.72.72,0,0,0,734.49,672.11Zm-10.41,0v-.22A.88.88,0,0,1,725,671h3.89a.89.89,0,0,1,.89.89v.22Z"/><path class="cls-95" d="M732.47,858.46a3.21,3.21,0,0,0-4.57.8,6.9,6.9,0,0,0-.93,1.82,7.19,7.19,0,0,0-.94-1.82,3.21,3.21,0,0,0-4.57-.8c-3.05,2.42-.56,6.7,2.08,8.71a32.62,32.62,0,0,0,3.43,2.29,33.24,33.24,0,0,0,3.42-2.29C733,865.16,735.52,860.88,732.47,858.46Z"/><text class="cls-48" transform="translate(710.73 723.33)"><tspan class="cls-96">	</tspan><tspan x="31.2" y="0">Əla ünsi</tspan><tspan class="cls-97" x="81.53" y="0">y</tspan><tspan class="cls-98" x="88.5" y="0">y</tspan><tspan x="95.44" y="0">ət qabili</tspan><tspan class="cls-97" x="146.02" y="0">y</tspan><tspan class="cls-98" x="152.98" y="0">y</tspan><tspan x="159.92" y="0">əti</tspan><tspan class="cls-96" x="0" y="21.64">	</tspan><tspan x="31.2" y="21.64">Sü</tspan><tspan class="cls-99" x="46.98" y="21.64">r</tspan><tspan x="52" y="21.64">ətli </tspan><tspan class="cls-100" x="75.22" y="21.64">m</tspan><tspan x="87.78" y="21.64">ənimsə</tspan><tspan class="cls-101" x="133.42" y="21.64">m</tspan><tspan x="145.98" y="21.64">ə qabili</tspan><tspan class="cls-102" x="191.39" y="21.64">y</tspan><tspan class="cls-103" x="198.35" y="21.64">y</tspan><tspan x="205.29" y="21.64">əti </tspan><tspan class="cls-96" x="0" y="43.29">	</tspan><tspan x="31.2" y="43.29">Sə</tspan><tspan class="cls-50" x="46.31" y="43.29">r</tspan><tspan x="51.39" y="43.29">bəst </tspan><tspan class="cls-98" x="81.99" y="43.29">v</tspan><tspan x="88.93" y="43.29">ə </tspan><tspan class="cls-51" x="99.81" y="43.29">k</tspan><tspan x="107.39" y="43.29">ollekti</tspan><tspan class="cls-98" x="146.48" y="43.29">v</tspan><tspan x="153.42" y="43.29">də işlə</tspan><tspan class="cls-101" x="193.54" y="43.29">m</tspan><tspan x="206.1" y="43.29">ə </tspan><tspan class="cls-104" x="216.98" y="43.29">b</tspan><tspan class="cls-101" x="225.09" y="43.29">a</tspan><tspan x="232.5" y="43.29">ca</tspan><tspan class="cls-50" x="246.88" y="43.29">r</tspan><tspan x="251.96" y="43.29">ığı </tspan><tspan x="0" y="64.93" xml:space="preserve">         Ciddi, </tspan><tspan class="cls-101" x="69.17" y="64.93">m</tspan><tspan x="81.73" y="64.93">əsuli</tspan><tspan class="cls-97" x="110.91" y="64.93">y</tspan><tspan class="cls-98" x="117.87" y="64.93">y</tspan><tspan x="124.81" y="64.93">ətli, işgüzar </tspan></text><path class="cls-95" d="M850.47,1035.71a20.26,20.26,0,1,1,20.26-20.26A20.28,20.28,0,0,1,850.47,1035.71Zm0-39a18.72,18.72,0,1,0,18.72,18.72A18.74,18.74,0,0,0,850.47,996.73Z"/><path class="cls-105" d="M861.16,1014.91a10.5,10.5,0,0,0-21-.19c0,.15,0,.3,0,.45a10.36,10.36,0,0,0,1.5,5.38l-1.89,5.59,5.81-1.85a10.51,10.51,0,0,0,15.57-9.12Zm-10.49,9a8.79,8.79,0,0,1-4.86-1.45l-3.39,1.08,1.1-3.25a8.66,8.66,0,0,1-1.68-5.14,8.06,8.06,0,0,1,0-.85,8.83,8.83,0,0,1,17.58.17c0,.23,0,.45,0,.68A8.8,8.8,0,0,1,850.67,1023.93Z"/><path class="cls-105" d="M855.48,1017.28c-.26-.13-1.53-.75-1.76-.83s-.41-.13-.58.12-.67.83-.82,1-.3.19-.56.06a6.94,6.94,0,0,1-2.07-1.26,7.79,7.79,0,0,1-1.43-1.77c-.14-.25,0-.39.12-.52s.25-.3.38-.45l.1-.12a2.72,2.72,0,0,0,.16-.3.47.47,0,0,0,0-.45c-.06-.13-.58-1.39-.8-1.9s-.42-.42-.58-.42l-.49,0a1,1,0,0,0-.69.31,2.91,2.91,0,0,0-.89,2.14,3.22,3.22,0,0,0,.13.87,5.77,5.77,0,0,0,.92,1.77,10.53,10.53,0,0,0,4.39,3.85c2.62,1,2.62.68,3.09.64a2.61,2.61,0,0,0,1.74-1.22,2.19,2.19,0,0,0,.15-1.21A1.4,1.4,0,0,0,855.48,1017.28Z"/><rect class="cls-95" x="898.46" y="1010.83" width="4.03" height="13.03"/><path class="cls-95" d="M900.45,1009.12a2.41,2.41,0,1,0-2.38-2.4A2.4,2.4,0,0,0,900.45,1009.12Z"/><path class="cls-95" d="M908.94,1017c0-1.83.84-2.93,2.46-2.93s2.19,1,2.19,2.93v6.84h4v-8.25c0-3.49-2-5.18-4.75-5.18a4.53,4.53,0,0,0-3.92,2.15v-1.75h-3.87v13h3.87Z"/><path class="cls-95" d="M907.84,1035.71a20.26,20.26,0,1,1,20.26-20.26A20.28,20.28,0,0,1,907.84,1035.71Zm0-39a18.72,18.72,0,1,0,18.72,18.72A18.74,18.74,0,0,0,907.84,996.73Z"/><path class="cls-95" d="M962.23,1027H967v-11.88h3.31l.35-4H967v-2.26c0-.94.19-1.31,1.09-1.31h2.57v-4.13h-3.28c-3.54,0-5.13,1.56-5.13,4.53v3.17h-2.47v4h2.47Z"/><path class="cls-95" d="M965.2,1035.71a20.26,20.26,0,1,1,20.26-20.26A20.28,20.28,0,0,1,965.2,1035.71Zm0-39a18.72,18.72,0,1,0,18.73,18.72A18.74,18.74,0,0,0,965.2,996.73Z"/><path class="cls-95" d="M1022.27,1005.92c2.85,0,3.19,0,4.32.06a5.81,5.81,0,0,1,2,.37,3.54,3.54,0,0,1,2,2,5.81,5.81,0,0,1,.37,2c0,1.13.06,1.47.06,4.32s0,3.19-.06,4.32a5.81,5.81,0,0,1-.37,2,3.54,3.54,0,0,1-2,2,5.81,5.81,0,0,1-2,.37c-1.13,0-1.46.06-4.32.06s-3.19,0-4.32-.06a5.87,5.87,0,0,1-2-.37,3.16,3.16,0,0,1-1.23-.8,3.28,3.28,0,0,1-.8-1.23,5.81,5.81,0,0,1-.37-2c-.05-1.13-.06-1.47-.06-4.32s0-3.19.06-4.32a5.81,5.81,0,0,1,.37-2,3.28,3.28,0,0,1,.8-1.23,3.16,3.16,0,0,1,1.23-.8,5.87,5.87,0,0,1,2-.37c1.13-.05,1.47-.06,4.32-.06m0-1.93c-2.9,0-3.27,0-4.41.07a7.94,7.94,0,0,0-2.59.49,5.25,5.25,0,0,0-1.89,1.24,5.09,5.09,0,0,0-1.23,1.89,7.66,7.66,0,0,0-.5,2.59c0,1.14-.07,1.51-.07,4.41s0,3.27.07,4.41a7.66,7.66,0,0,0,.5,2.59,5.09,5.09,0,0,0,1.23,1.89,5.25,5.25,0,0,0,1.89,1.24,7.94,7.94,0,0,0,2.59.49c1.14,0,1.51.07,4.41.07s3.27,0,4.41-.07a7.88,7.88,0,0,0,2.59-.49,5.56,5.56,0,0,0,3.13-3.13,7.94,7.94,0,0,0,.49-2.59c.06-1.14.07-1.51.07-4.41s0-3.27-.07-4.41a7.94,7.94,0,0,0-.49-2.59,5.56,5.56,0,0,0-3.13-3.13,7.88,7.88,0,0,0-2.59-.49c-1.14,0-1.51-.07-4.41-.07"/><path class="cls-95" d="M1022.27,1009.19a5.49,5.49,0,1,0,5.49,5.49,5.49,5.49,0,0,0-5.49-5.49m0,9a3.56,3.56,0,1,1,3.56-3.56,3.56,3.56,0,0,1-3.56,3.56"/><path class="cls-95" d="M1029.26,1009a1.29,1.29,0,1,1-1.28-1.29,1.29,1.29,0,0,1,1.28,1.29"/><path class="cls-95" d="M1022.27,1035.71a20.26,20.26,0,1,1,20.26-20.26A20.28,20.28,0,0,1,1022.27,1035.71Zm0-39a18.72,18.72,0,1,0,18.72,18.72A18.74,18.74,0,0,0,1022.27,996.73Z"/><text class="cls-106" transform="translate(97.98 997.29)">CV <tspan class="cls-107" x="0" y="36.66">H</tspan><tspan x="22.18" y="36.66">AZI</tspan><tspan class="cls-108" x="71.93" y="36.66">R</tspan><tspan class="cls-109" x="91.89" y="36.66">L</tspan><tspan x="109.57" y="36.66">A</tspan><tspan class="cls-107" x="130.9" y="36.66">M</tspan><tspan class="cls-110" x="157.58" y="36.66">A</tspan></text><path class="cls-95" d="M71.65,973l-4.42,5.72H45.3a3.1,3.1,0,0,0-3.11,3.1v43.87a3.1,3.1,0,0,0,3.11,3.1H68.88l2.16,5.72H36.47V973Z"/><path class="cls-95" d="M71.5,1034.55l-17.93-47.5L60,989.88l10.14,26.89a1.43,1.43,0,0,0,2.68,0l10.07-26.89,6.42-2.83Z"/><polygon class="cls-95" points="70.07 989.88 72.72 989.88 74.14 1006.31 71.77 1009.62 69.06 1006.36 70.07 989.88"/><polygon class="cls-95" points="71.41 986.46 69.66 988.28 70.11 989.61 72.72 989.61 73.16 988.26 71.41 986.46"/><polygon class="cls-95" points="71.65 986.27 77.42 984.97 74.89 989.88 71.65 986.27"/><polygon class="cls-95" points="71.15 986.27 65.38 984.97 67.92 989.88 71.15 986.27"/><rect class="cls-111" x="85.21" y="185.88" width="260.32" height="56.71"/><rect class="cls-112" x="40.07" y="74.35" width="143.79" height="5.3"/><rect class="cls-113" x="183.81" y="74.35" width="143.79" height="5.3"/><rect class="cls-113" x="40.07" y="94.92" width="143.76" height="38.31"/><text class="cls-114" transform="translate(52.14 122.08)"><tspan class="cls-115">K</tspan><tspan class="cls-116" x="15.62" y="0">OD: 0</tspan><tspan class="cls-117" x="79.27" y="0">9.</tspan><tspan x="97.72" y="0">05</tspan></text><rect class="cls-112" x="40.07" y="174.13" width="80.21" height="80.21"/><text class="cls-118" transform="translate(59.2 231.24)">8</text><text class="cls-119" transform="translate(67.92 245.41) scale(0.58)">azn</text><text class="cls-120" transform="translate(139 224.25) scale(0.58)"><tspan class="cls-121">A</tspan><tspan class="cls-122" x="29.7" y="0">z</tspan><tspan x="50.54" y="0">ə</tspan><tspan class="cls-123" x="75.27" y="0">r</tspan><tspan class="cls-124" x="91.77" y="0">b</tspan><tspan class="cls-125" x="118.77" y="0">a</tspan><tspan class="cls-126" x="142.51" y="0">y</tspan><tspan x="164.9" y="0">ca</tspan><tspan class="cls-127" x="212.14" y="0">n</tspan><tspan class="cls-128" x="239.57" y="0">dilli</tspan></text><rect class="cls-111" x="85.21" y="309.65" width="260.32" height="56.71"/><rect class="cls-112" x="40.07" y="297.9" width="80.21" height="80.21"/><text class="cls-118" transform="translate(48.78 355.01)">13</text><text class="cls-120" transform="translate(139 348.02) scale(0.58)">İ<tspan class="cls-127" x="12.68" y="0">n</tspan><tspan class="cls-128" x="40.12" y="0">gilisdilli</tspan></text><text class="cls-119" transform="translate(67.92 371.42) scale(0.58)">azn</text><path class="cls-111" d="M58.34,429c0,3-2.2,4.88-5.84,4.88H49v4.25H47v-14H52.5C56.14,424.08,58.34,425.92,58.34,429Zm-2,0c0-2-1.34-3.14-3.9-3.14H49v6.28h3.4C55,432.1,56.34,431,56.34,429Z"/><path class="cls-111" d="M66.52,427.38v1.86a3.39,3.39,0,0,0-.44,0c-2.06,0-3.34,1.26-3.34,3.58v5.29H60.82V427.48h1.84v1.78C63.34,428,64.66,427.38,66.52,427.38Z"/><path class="cls-111" d="M67.8,432.78a5.51,5.51,0,1,1,5.52,5.43A5.27,5.27,0,0,1,67.8,432.78Zm9.08,0a3.57,3.57,0,1,0-3.56,3.74A3.48,3.48,0,0,0,76.88,432.78Z"/><path class="cls-111" d="M83.64,426.56v.92h3.08v1.58h-3v9H81.76v-9H80v-1.58h1.8v-.94a3.19,3.19,0,0,1,3.5-3.42,3.58,3.58,0,0,1,2.16.62l-.58,1.46a2.49,2.49,0,0,0-1.48-.5C84.22,424.7,83.64,425.34,83.64,426.56Z"/><path class="cls-111" d="M97.92,433.42h-8.6a3.59,3.59,0,0,0,3.84,3.1,4,4,0,0,0,3.06-1.28l1.06,1.24a5.33,5.33,0,0,1-4.18,1.73c-3.42,0-5.7-2.27-5.7-5.43a5.19,5.19,0,0,1,5.32-5.4A5.11,5.11,0,0,1,98,432.84C98,433,97.94,433.24,97.92,433.42ZM89.32,432h6.8a3.42,3.42,0,0,0-6.8,0Z"/><path class="cls-111" d="M99.28,437l.8-1.53a6.73,6.73,0,0,0,3.72,1.11c1.78,0,2.52-.54,2.52-1.45,0-2.38-6.7-.32-6.7-4.54,0-1.9,1.7-3.18,4.42-3.18a7.71,7.71,0,0,1,3.86,1l-.82,1.52A5.54,5.54,0,0,0,104,429c-1.68,0-2.5.62-2.5,1.46,0,2.5,6.72.46,6.72,4.58,0,1.92-1.76,3.15-4.58,3.15A7.65,7.65,0,0,1,99.28,437Z"/><path class="cls-111" d="M109.3,437l.8-1.53a6.73,6.73,0,0,0,3.72,1.11c1.78,0,2.52-.54,2.52-1.45,0-2.38-6.7-.32-6.7-4.54,0-1.9,1.7-3.18,4.42-3.18a7.71,7.71,0,0,1,3.86,1l-.82,1.52A5.54,5.54,0,0,0,114,429c-1.68,0-2.5.62-2.5,1.46,0,2.5,6.72.46,6.72,4.58,0,1.92-1.76,3.15-4.58,3.15A7.65,7.65,0,0,1,109.3,437Z"/><path class="cls-111" d="M120.44,424.4a1.18,1.18,0,0,1,2.36,0,1.18,1.18,0,1,1-2.36,0Zm.22,3.08h1.92v10.61h-1.92Z"/><path class="cls-111" d="M125.26,432.78a5.51,5.51,0,1,1,5.52,5.43A5.27,5.27,0,0,1,125.26,432.78Zm9.08,0a3.57,3.57,0,1,0-3.56,3.74A3.48,3.48,0,0,0,134.34,432.78Z"/><path class="cls-111" d="M149,432v6.11h-1.92V432.2c0-2.08-1-3.1-2.86-3.1-2,0-3.36,1.22-3.36,3.52v5.47h-1.92V427.48h1.84v1.6a4.54,4.54,0,0,1,3.82-1.7C147.18,427.38,149,428.86,149,432Z"/><path class="cls-111" d="M161,431.68v6.41h-1.82v-1.4a4,4,0,0,1-3.48,1.52c-2.4,0-3.92-1.28-3.92-3.13,0-1.7,1.1-3.1,4.26-3.1h3v-.38c0-1.62-.94-2.56-2.84-2.56a5.36,5.36,0,0,0-3.36,1.14l-.8-1.44a7.06,7.06,0,0,1,4.38-1.36C159.32,427.38,161,428.78,161,431.68ZM159,434.85v-1.49h-3c-1.9,0-2.44.74-2.44,1.64,0,1.06.88,1.73,2.34,1.73A3.09,3.09,0,0,0,159,434.85Z"/><path class="cls-111" d="M164.52,423.24h1.92v14.85h-1.92Z"/><path class="cls-111" d="M178.38,431.08a7.08,7.08,0,0,1,7.42-7.16,6.92,6.92,0,0,1,5.32,2.18l-1.3,1.26a5.19,5.19,0,0,0-3.94-1.66,5.39,5.39,0,1,0,0,10.77,5.18,5.18,0,0,0,3.94-1.69l1.3,1.27a7,7,0,0,1-5.34,2.2A7.08,7.08,0,0,1,178.38,431.08Z"/><path class="cls-111" d="M206,424.08l-6.14,14h-2l-6.16-14h2.16l5,11.5,5.08-11.5Z"/><path class="cls-111" d="M227,432v6.11h-1.92V432.2c0-2.08-1-3.1-2.86-3.1-2,0-3.36,1.22-3.36,3.52v5.47h-1.92V423.24h1.92V429a4.6,4.6,0,0,1,3.74-1.6C225.18,427.38,227,428.86,227,432Z"/><path class="cls-111" d="M239,431.68v6.41h-1.82v-1.4a4,4,0,0,1-3.48,1.52c-2.4,0-3.92-1.28-3.92-3.13,0-1.7,1.1-3.1,4.26-3.1h3v-.38c0-1.62-.94-2.56-2.84-2.56a5.36,5.36,0,0,0-3.36,1.14l-.8-1.44a7.06,7.06,0,0,1,4.38-1.36C237.32,427.38,239,428.78,239,431.68ZM237,434.85v-1.49h-3c-1.9,0-2.44.74-2.44,1.64,0,1.06.88,1.73,2.34,1.73A3.09,3.09,0,0,0,237,434.85Z"/><path class="cls-111" d="M250.38,436.51v1.58H241.5v-1.24l6.26-7.79h-6.14v-1.58h8.6v1.26L244,436.51Z"/><path class="cls-111" d="M252.94,427.48h1.92v10.61h-1.92Z"/><path class="cls-111" d="M264.22,427.38v1.86a3.39,3.39,0,0,0-.44,0c-2.06,0-3.34,1.26-3.34,3.58v5.29h-1.92V427.48h1.84v1.78C261,428,262.36,427.38,264.22,427.38Z"/><path class="cls-111" d="M266.58,423.24h1.92v14.85h-1.92Z"/><path class="cls-111" d="M280.56,431.68v6.41h-1.82v-1.4a4,4,0,0,1-3.48,1.52c-2.4,0-3.92-1.28-3.92-3.13,0-1.7,1.1-3.1,4.26-3.1h3v-.38c0-1.62-.94-2.56-2.84-2.56a5.36,5.36,0,0,0-3.36,1.14l-.8-1.44a7.06,7.06,0,0,1,4.38-1.36C278.92,427.38,280.56,428.78,280.56,431.68Zm-1.92,3.17v-1.49h-3c-1.9,0-2.44.74-2.44,1.64,0,1.06.88,1.73,2.34,1.73A3.09,3.09,0,0,0,278.64,434.85Z"/><path class="cls-111" d="M301.72,432v6.11H299.8V432.2c0-2.08-1-3.1-2.74-3.1-1.92,0-3.18,1.22-3.18,3.52v5.47H292V432.2c0-2.08-1-3.1-2.74-3.1-1.92,0-3.18,1.22-3.18,3.52v5.47h-1.92V427.48H286v1.58a4.3,4.3,0,0,1,3.66-1.68,3.92,3.92,0,0,1,3.68,2,4.78,4.78,0,0,1,4.08-2C300,427.38,301.72,428.86,301.72,432Z"/><path class="cls-111" d="M313.66,431.68v6.41h-1.82v-1.4a4,4,0,0,1-3.48,1.52c-2.4,0-3.92-1.28-3.92-3.13,0-1.7,1.1-3.1,4.26-3.1h3v-.38c0-1.62-.94-2.56-2.84-2.56a5.36,5.36,0,0,0-3.36,1.14l-.8-1.44a7.06,7.06,0,0,1,4.38-1.36C312,427.38,313.66,428.78,313.66,431.68Zm-1.92,3.17v-1.49h-3c-1.9,0-2.44.74-2.44,1.64,0,1.06.88,1.73,2.34,1.73A3.09,3.09,0,0,0,311.74,434.85Z"/><path class="cls-111" d="M333.12,438.09,330.06,434l-3.1,4.07h-2.14l4.18-5.43-4-5.18h2.14l2.92,3.82,2.9-3.82h2.1l-4,5.18,4.22,5.43Z"/><path class="cls-111" d="M337.18,424.4a1.18,1.18,0,0,1,2.36,0,1.18,1.18,0,0,1-2.36,0Zm.22,3.08h1.92v10.61H337.4Z"/><path class="cls-111" d="M353,423.24v14.85h-1.84V436.4a4.49,4.49,0,0,1-3.78,1.81,5.42,5.42,0,0,1,0-10.83,4.51,4.51,0,0,1,3.7,1.7v-5.84Zm-1.9,9.54a3.57,3.57,0,1,0-3.56,3.74A3.49,3.49,0,0,0,351.08,432.78Z"/><path class="cls-111" d="M374.22,432v6.11H372.3V432.2c0-2.08-1-3.1-2.74-3.1-1.92,0-3.18,1.22-3.18,3.52v5.47h-1.92V432.2c0-2.08-1-3.1-2.74-3.1-1.92,0-3.18,1.22-3.18,3.52v5.47h-1.92V427.48h1.84v1.58a4.3,4.3,0,0,1,3.66-1.68,3.92,3.92,0,0,1,3.68,2,4.78,4.78,0,0,1,4.08-2C372.46,427.38,374.22,428.86,374.22,432Z"/><path class="cls-111" d="M387.4,432.78a5.19,5.19,0,0,1-5.32,5.41,5.12,5.12,0,0,1-5.24-5.47c0-.16,0-.4,0-.58h8.6a3.59,3.59,0,0,0-3.84-3.1,4,4,0,0,0-3.06,1.28l-1.06-1.24a5.32,5.32,0,0,1,4.18-1.72C385.12,427.36,387.4,429.62,387.4,432.78Zm-1.92.74h-6.8a3.42,3.42,0,0,0,6.8,0Z"/><path class="cls-111" d="M389.38,431.76h5.38v1.66h-5.38Z"/><path class="cls-111" d="M52.72,461.47a3.62,3.62,0,0,1-2.32.74A3,3,0,0,1,47,458.89v-5.83h-1.8v-1.58H47v-2.32H49v2.32h3v1.58H49v5.75a1.57,1.57,0,0,0,1.66,1.78,2.48,2.48,0,0,0,1.5-.5Z"/><path class="cls-111" d="M54.6,448.4a1.18,1.18,0,0,1,2.36,0,1.18,1.18,0,0,1-2.36,0Zm.22,3.08h1.92v10.61H54.82Z"/><path class="cls-111" d="M70.24,456v6.11H68.31V456.2c0-2.08-1-3.1-2.86-3.1-2,0-3.36,1.22-3.36,3.52v5.47H60.17V451.48H62v1.6a4.54,4.54,0,0,1,3.82-1.7C68.41,451.38,70.24,452.86,70.24,456Z"/><path class="cls-111" d="M83.63,447.24v14.85H81.79V460.4A4.49,4.49,0,0,1,78,462.21a5.42,5.42,0,0,1,0-10.83,4.51,4.51,0,0,1,3.7,1.7v-5.84Zm-1.9,9.54a3.57,3.57,0,1,0-3.56,3.74A3.49,3.49,0,0,0,81.73,456.78Z"/><path class="cls-111" d="M96.63,456.78a5.19,5.19,0,0,1-5.32,5.41,5.12,5.12,0,0,1-5.24-5.47c0-.16,0-.4,0-.58h8.6a3.59,3.59,0,0,0-3.84-3.1,4,4,0,0,0-3.06,1.28l-1.06-1.24a5.32,5.32,0,0,1,4.18-1.72C94.35,451.36,96.63,453.62,96.63,456.78Zm-1.92.74h-6.8a3.42,3.42,0,0,0,6.8,0Z"/><path class="cls-111" d="M114.58,456.78a5.16,5.16,0,0,1-5.37,5.43,4.51,4.51,0,0,1-3.7-1.73V466h-1.92V451.48h1.84v1.68a4.51,4.51,0,0,1,3.78-1.78A5.15,5.15,0,0,1,114.58,456.78Zm-2,0a3.57,3.57,0,1,0-3.58,3.74A3.5,3.5,0,0,0,112.63,456.78Z"/><path class="cls-111" d="M126.55,457.42H118a3.59,3.59,0,0,0,3.84,3.1,4,4,0,0,0,3.06-1.28l1.06,1.24a5.33,5.33,0,0,1-4.18,1.73c-3.42,0-5.7-2.27-5.7-5.43a5.19,5.19,0,0,1,5.32-5.4,5.11,5.11,0,0,1,5.24,5.46C126.59,457,126.57,457.24,126.55,457.42ZM118,456h6.8a3.42,3.42,0,0,0-6.8,0Z"/><path class="cls-111" d="M132.65,462.19l-.24.9c1.16.12,1.74.78,1.74,1.66,0,1.12-1,1.82-2.48,1.82a3.36,3.36,0,0,1-1.78-.44l.42-1a2.64,2.64,0,0,0,1.36.34c.76,0,1.12-.3,1.12-.8s-.34-.78-1.14-.78h-.54l.44-1.72a7.34,7.34,0,0,1-3.86-1.22l.8-1.53a6.73,6.73,0,0,0,3.72,1.11c1.78,0,2.52-.54,2.52-1.45,0-2.38-6.7-.32-6.7-4.54,0-1.9,1.7-3.18,4.42-3.18a7.71,7.71,0,0,1,3.86,1l-.82,1.52a5.54,5.54,0,0,0-3.06-.84c-1.68,0-2.5.62-2.5,1.46,0,2.5,6.72.46,6.72,4.58C136.65,460.85,135.13,462,132.65,462.19Z"/><path class="cls-111" d="M148.41,456.78a5.19,5.19,0,0,1-5.32,5.41,5.12,5.12,0,0,1-5.24-5.47c0-.16,0-.4,0-.58h8.6a3.59,3.59,0,0,0-3.84-3.1,4,4,0,0,0-3.06,1.28l-1.06-1.24a5.32,5.32,0,0,1,4.18-1.72C146.13,451.36,148.41,453.62,148.41,456.78Zm-1.92.74h-6.8a3.42,3.42,0,0,0,6.8,0Z"/><path class="cls-111" d="M155,457.14l-2.2,2.05v2.9h-1.93V447.24h1.93v9.52l5.78-5.28h2.32l-4.46,4.38,4.9,6.23H159Z"/><path class="cls-111" d="M171.15,455.68v6.41h-1.83v-1.4a4,4,0,0,1-3.48,1.52c-2.4,0-3.92-1.28-3.92-3.13,0-1.7,1.1-3.1,4.26-3.1h3v-.38c0-1.62-.94-2.56-2.84-2.56a5.36,5.36,0,0,0-3.36,1.14l-.8-1.44a7.06,7.06,0,0,1,4.38-1.36C169.5,451.38,171.15,452.78,171.15,455.68Zm-1.93,3.17v-1.49h-3c-1.9,0-2.44.74-2.44,1.64,0,1.06.88,1.73,2.34,1.73A3.09,3.09,0,0,0,169.22,458.85Z"/><path class="cls-111" d="M180.18,451.38v1.86a3.39,3.39,0,0,0-.44,0c-2.06,0-3.34,1.26-3.34,3.58v5.29h-1.92V451.48h1.84v1.78C177,452,178.32,451.38,180.18,451.38Z"/><path class="cls-111" d="M191.11,457.14l-2.2,2.05v2.9H187V447.24h1.92v9.52l5.78-5.28H197l-4.46,4.38,4.9,6.23h-2.36Z"/><path class="cls-111" d="M197.66,456.78a5.52,5.52,0,1,1,5.52,5.43A5.27,5.27,0,0,1,197.66,456.78Zm9.08,0a3.57,3.57,0,1,0-3.56,3.74A3.48,3.48,0,0,0,206.74,456.78Z"/><path class="cls-111" d="M228.73,456v6.11h-1.92V456.2c0-2.08-1-3.1-2.75-3.1-1.92,0-3.18,1.22-3.18,3.52v5.47H219V456.2c0-2.08-1-3.1-2.74-3.1-1.92,0-3.18,1.22-3.18,3.52v5.47h-1.92V451.48H213v1.58a4.3,4.3,0,0,1,3.66-1.68,3.92,3.92,0,0,1,3.68,2,4.78,4.78,0,0,1,4.08-2C227,451.38,228.73,452.86,228.73,456Z"/><path class="cls-111" d="M240.44,455.68v6.41h-1.82v-1.4a4,4,0,0,1-3.48,1.52c-2.4,0-3.92-1.28-3.92-3.13,0-1.7,1.1-3.1,4.26-3.1h3v-.38c0-1.62-.94-2.56-2.84-2.56a5.36,5.36,0,0,0-3.36,1.14l-.8-1.44a7.06,7.06,0,0,1,4.38-1.36C238.8,451.38,240.44,452.78,240.44,455.68Zm-1.92,3.17v-1.49h-3c-1.9,0-2.44.74-2.44,1.64,0,1.06.88,1.73,2.34,1.73A3.09,3.09,0,0,0,238.52,458.85Z"/><path class="cls-111" d="M253.84,456v6.11h-1.92V456.2c0-2.08-1-3.1-2.86-3.1-2,0-3.36,1.22-3.36,3.52v5.47h-1.92V451.48h1.84v1.6a4.54,4.54,0,0,1,3.82-1.7C252,451.38,253.84,452.86,253.84,456Z"/><path class="cls-111" d="M267.24,447.24v14.85H265.4V460.4a4.49,4.49,0,0,1-3.78,1.81,5.42,5.42,0,0,1,0-10.83,4.51,4.51,0,0,1,3.7,1.7v-5.84Zm-1.9,9.54a3.57,3.57,0,1,0-3.56,3.74A3.49,3.49,0,0,0,265.34,456.78Z"/><path class="cls-111" d="M279.06,455.68v6.41h-1.83v-1.4a4,4,0,0,1-3.48,1.52c-2.4,0-3.92-1.28-3.92-3.13,0-1.7,1.1-3.1,4.26-3.1h3v-.38c0-1.62-.94-2.56-2.84-2.56a5.36,5.36,0,0,0-3.36,1.14l-.8-1.44a7.06,7.06,0,0,1,4.38-1.36C277.41,451.38,279.06,452.78,279.06,455.68Zm-1.93,3.17v-1.49h-3c-1.9,0-2.44.74-2.44,1.64,0,1.06.88,1.73,2.34,1.73A3.09,3.09,0,0,0,277.13,458.85Z"/><path class="cls-111" d="M300,456v6.11h-1.91V456.2c0-2.08-1-3.1-2.75-3.1-1.92,0-3.18,1.22-3.18,3.52v5.47h-1.92V456.2c0-2.08-1-3.1-2.74-3.1-1.92,0-3.18,1.22-3.18,3.52v5.47h-1.92V451.48h1.84v1.58a4.3,4.3,0,0,1,3.66-1.68,3.92,3.92,0,0,1,3.68,2,4.78,4.78,0,0,1,4.08-2C298.24,451.38,300,452.86,300,456Z"/><path class="cls-111" d="M303.31,451.48h1.92v10.61h-1.92Z"/><path class="cls-111" d="M316.53,460.51v1.58h-8.88v-1.24l6.26-7.79h-6.14v-1.58h8.6v1.26l-6.26,7.77Z"/><path class="cls-111" d="M329.35,461.47a3.62,3.62,0,0,1-2.32.74,3,3,0,0,1-3.36-3.32v-5.83h-1.8v-1.58h1.8v-2.32h1.92v2.32h3v1.58h-3v5.75a1.57,1.57,0,0,0,1.66,1.78,2.48,2.48,0,0,0,1.5-.5Z"/><path class="cls-111" d="M340.67,456.78a5.19,5.19,0,0,1-5.32,5.41,5.12,5.12,0,0,1-5.24-5.47c0-.16,0-.4,0-.58h8.6a3.59,3.59,0,0,0-3.84-3.1,4,4,0,0,0-3.06,1.28l-1.06-1.24a5.32,5.32,0,0,1,4.18-1.72C338.39,451.36,340.67,453.62,340.67,456.78Zm-1.92.74H332a3.42,3.42,0,0,0,6.8,0Z"/><path class="cls-111" d="M348.81,451.38v1.86a3.39,3.39,0,0,0-.44,0c-2.06,0-3.34,1.26-3.34,3.58v5.29h-1.92V451.48H345v1.78C345.63,452,347,451.38,348.81,451.38Z"/><path class="cls-111" d="M360.43,456.78a5.19,5.19,0,0,1-5.32,5.41,5.12,5.12,0,0,1-5.25-5.47c0-.16,0-.4,0-.58h8.61a3.59,3.59,0,0,0-3.84-3.1,4,4,0,0,0-3.07,1.28l-1.06-1.24a5.33,5.33,0,0,1,4.19-1.72C358.15,451.36,360.43,453.62,360.43,456.78Zm-1.92.74H351.7a3.43,3.43,0,0,0,6.81,0Z"/><path class="cls-111" d="M365,450.56v.92h3.08v1.58h-3v9h-1.92v-9h-1.8v-1.58h1.8v-.94a3.19,3.19,0,0,1,3.5-3.42,3.58,3.58,0,0,1,2.16.62l-.58,1.46a2.49,2.49,0,0,0-1.48-.5C365.6,448.7,365,449.34,365,450.56Z"/><path class="cls-111" d="M371.08,448.4a1.18,1.18,0,0,1,2.36,0,1.18,1.18,0,0,1-2.36,0Zm.22,3.08h1.92v10.61H371.3Z"/><path class="cls-111" d="M386.72,456v6.11H384.8V456.2c0-2.08-1-3.1-2.86-3.1-2,0-3.36,1.22-3.36,3.52v5.47h-1.92V451.48h1.84v1.6a4.54,4.54,0,0,1,3.82-1.7C384.9,451.38,386.72,452.86,386.72,456Z"/><path class="cls-111" d="M389.38,455.76h5.38v1.66h-5.38Z"/><path class="cls-111" d="M56.76,471.24v14.85H54.92V484.4a4.49,4.49,0,0,1-3.78,1.81,5.42,5.42,0,0,1,0-10.83,4.51,4.51,0,0,1,3.7,1.7v-5.84Zm-1.9,9.54a3.57,3.57,0,1,0-3.56,3.74A3.49,3.49,0,0,0,54.86,480.78Z"/><path class="cls-111" d="M70,480.78a5.19,5.19,0,0,1-5.32,5.41,5.12,5.12,0,0,1-5.24-5.47c0-.16,0-.4,0-.58h8.6a3.59,3.59,0,0,0-3.84-3.1,4,4,0,0,0-3.06,1.28l-1.06-1.24a5.32,5.32,0,0,1,4.18-1.72C67.7,475.36,70,477.62,70,480.78Zm-1.92.74h-6.8a3.42,3.42,0,0,0,6.8,0Z"/><path class="cls-111" d="M82.7,480v6.11H80.78V480.2c0-2.08-1-3.1-2.86-3.1-2,0-3.36,1.22-3.36,3.52v5.47H72.64V475.48h1.84v1.6a4.54,4.54,0,0,1,3.82-1.7C80.88,475.38,82.7,476.86,82.7,480Z"/><path class="cls-111" d="M91.75,479.08a7.08,7.08,0,0,1,7.43-7.16,6.92,6.92,0,0,1,5.32,2.18l-1.3,1.26a5.19,5.19,0,0,0-3.94-1.66,5.39,5.39,0,1,0,0,10.77,5.18,5.18,0,0,0,3.94-1.69l1.3,1.27a7,7,0,0,1-5.34,2.2A7.08,7.08,0,0,1,91.75,479.08Z"/><path class="cls-111" d="M119.38,472.08l-6.14,14h-2l-6.17-14h2.16l5,11.5,5.08-11.5Z"/><path class="cls-111" d="M120.62,472.08h1.67l-.13,5.4h-1.43Z"/><path class="cls-111" d="M135.44,480v6.11h-1.92V480.2c0-2.08-1-3.1-2.86-3.1-2,0-3.36,1.22-3.36,3.52v5.47h-1.93V475.48h1.85v1.6a4.54,4.54,0,0,1,3.82-1.7C133.62,475.38,135.44,476.86,135.44,480Z"/><path class="cls-111" d="M138.78,472.4a1.18,1.18,0,1,1,1.17,1.18A1.15,1.15,0,0,1,138.78,472.4Zm.21,3.08h1.93v10.61H139Z"/><path class="cls-111" d="M152.44,484.51v1.58h-8.89v-1.24l6.27-7.79h-6.15v-1.58h8.61v1.26L146,484.51Z"/><path class="cls-111" d="M154.78,472.4a1.18,1.18,0,1,1,1.17,1.18A1.15,1.15,0,0,1,154.78,472.4Zm.21,3.08h1.93v10.61H155Z"/><path class="cls-111" d="M176.93,475.48V490H175v-5.49a4.51,4.51,0,0,1-3.7,1.73,5.42,5.42,0,0,1,0-10.83,4.51,4.51,0,0,1,3.78,1.78v-1.68Zm-1.9,5.3a3.57,3.57,0,1,0-3.56,3.74A3.5,3.5,0,0,0,175,480.78Z"/><path class="cls-111" d="M190.45,475.48v10.61h-1.82v-1.61a4.29,4.29,0,0,1-3.6,1.73c-2.74,0-4.56-1.5-4.56-4.63v-6.1h1.92v5.88c0,2.08,1,3.12,2.86,3.12,2,0,3.28-1.24,3.28-3.52v-5.48Z"/><path class="cls-111" d="M199.81,475.38v1.86a3.39,3.39,0,0,0-.44,0c-2.06,0-3.34,1.26-3.34,3.58v5.29h-1.92V475.48H196v1.78C196.63,476,198,475.38,199.81,475.38Z"/><path class="cls-111" d="M212.19,475.48v10.61h-1.82v-1.61a4.29,4.29,0,0,1-3.6,1.73c-2.74,0-4.56-1.5-4.56-4.63v-6.1h1.92v5.88c0,2.08,1,3.12,2.86,3.12,2,0,3.28-1.24,3.28-3.52v-5.48Z"/><path class="cls-111" d="M215.85,471.24h1.92v14.85h-1.92Z"/><path class="cls-111" d="M231.31,475.48v10.61h-1.82v-1.61a4.29,4.29,0,0,1-3.6,1.73c-2.74,0-4.56-1.5-4.56-4.63v-6.1h1.92v5.88c0,2.08,1,3.12,2.86,3.12,2,0,3.28-1.24,3.28-3.52v-5.48Z"/><path class="cls-111" d="M238.59,486.19l-.24.9c1.16.12,1.74.78,1.74,1.66,0,1.12-1,1.82-2.48,1.82a3.36,3.36,0,0,1-1.78-.44l.42-1a2.64,2.64,0,0,0,1.36.34c.76,0,1.12-.3,1.12-.8s-.34-.78-1.14-.78h-.54l.44-1.72a7.34,7.34,0,0,1-3.86-1.22l.8-1.53a6.73,6.73,0,0,0,3.72,1.11c1.78,0,2.52-.54,2.52-1.45,0-2.38-6.7-.32-6.7-4.54,0-1.9,1.7-3.18,4.42-3.18a7.71,7.71,0,0,1,3.86,1l-.82,1.52a5.54,5.54,0,0,0-3.06-.84c-1.68,0-2.5.62-2.5,1.46,0,2.5,6.72.46,6.72,4.58C242.59,484.85,241.07,486,238.59,486.19Z"/><path class="cls-111" d="M260.73,475.48l-4.64,10.61h-2l-4.64-10.61h2l3.64,8.5,3.72-8.5Z"/><path class="cls-111" d="M271.81,480.78a5.19,5.19,0,0,1-5.32,5.41,5.12,5.12,0,0,1-5.24-5.47c0-.16,0-.4,0-.58h8.6a3.59,3.59,0,0,0-3.84-3.1,4,4,0,0,0-3.06,1.28l-1.06-1.24a5.32,5.32,0,0,1,4.18-1.72C269.53,475.36,271.81,477.62,271.81,480.78Zm-1.92.74h-6.8a3.42,3.42,0,0,0,6.8,0Z"/><path class="cls-111" d="M283,474.56v.92h3.08v1.58h-3v9H281.1v-9h-1.8v-1.58h1.8v-.94a3.19,3.19,0,0,1,3.5-3.42,3.58,3.58,0,0,1,2.16.62l-.58,1.46a2.49,2.49,0,0,0-1.48-.5C283.56,472.7,283,473.34,283,474.56Z"/><path class="cls-111" d="M286.74,480.78a5.51,5.51,0,1,1,5.52,5.43A5.27,5.27,0,0,1,286.74,480.78Zm9.08,0a3.57,3.57,0,1,0-3.56,3.74A3.48,3.48,0,0,0,295.82,480.78Z"/><path class="cls-111" d="M306.12,475.38v1.86a3.39,3.39,0,0,0-.44,0c-2.06,0-3.34,1.26-3.34,3.58v5.29h-1.92V475.48h1.84v1.78C302.94,476,304.26,475.38,306.12,475.38Z"/><path class="cls-111" d="M326.09,480v6.11h-1.92V480.2c0-2.08-1-3.1-2.75-3.1-1.92,0-3.18,1.22-3.18,3.52v5.47h-1.92V480.2c0-2.08-1-3.1-2.74-3.1-1.92,0-3.18,1.22-3.18,3.52v5.47h-1.92V475.48h1.84v1.58a4.3,4.3,0,0,1,3.66-1.68,3.92,3.92,0,0,1,3.68,2,4.79,4.79,0,0,1,4.08-2C324.33,475.38,326.09,476.86,326.09,480Z"/><path class="cls-111" d="M338,479.68v6.41H336.2v-1.4a4,4,0,0,1-3.48,1.52c-2.4,0-3.92-1.28-3.92-3.13,0-1.7,1.1-3.1,4.26-3.1h3v-.38c0-1.62-.94-2.56-2.84-2.56a5.36,5.36,0,0,0-3.36,1.14l-.8-1.44a7.06,7.06,0,0,1,4.38-1.36C336.38,475.38,338,476.78,338,479.68Zm-1.92,3.17v-1.49h-3c-1.9,0-2.44.74-2.44,1.64,0,1.06.88,1.73,2.34,1.73A3.09,3.09,0,0,0,336.1,482.85Z"/><path class="cls-111" d="M358.92,480.78a5.17,5.17,0,0,1-5.36,5.43,4.49,4.49,0,0,1-3.78-1.81v1.69h-1.84V471.24h1.92v5.84a4.51,4.51,0,0,1,3.7-1.7A5.14,5.14,0,0,1,358.92,480.78Zm-1.94,0a3.57,3.57,0,1,0-3.58,3.74A3.49,3.49,0,0,0,357,480.78Z"/><path class="cls-111" d="M369.88,479.68v6.41h-1.82v-1.4a4,4,0,0,1-3.48,1.52c-2.4,0-3.92-1.28-3.92-3.13,0-1.7,1.1-3.1,4.26-3.1h3v-.38c0-1.62-.94-2.56-2.84-2.56a5.36,5.36,0,0,0-3.36,1.14l-.8-1.44a7.06,7.06,0,0,1,4.38-1.36C368.24,475.38,369.88,476.78,369.88,479.68ZM368,482.85v-1.49h-3c-1.9,0-2.44.74-2.44,1.64,0,1.06.88,1.73,2.34,1.73A3.09,3.09,0,0,0,368,482.85Z"/><path class="cls-111" d="M380.2,486.09,377.14,482l-3.1,4.07H371.9l4.18-5.43-4-5.18h2.14l2.92,3.82,2.9-3.82h2.1l-4,5.18,4.22,5.43Z"/><path class="cls-111" d="M384.48,475.48h1.92v10.61h-1.92Z"/><path class="cls-111" d="M389.38,479.76h5.38v1.66h-5.38Z"/><path class="cls-111" d="M64.36,504v6.11H62.44V504.2c0-2.08-1-3.1-2.74-3.1-1.92,0-3.18,1.22-3.18,3.52v5.47H54.6V504.2c0-2.08-1-3.1-2.74-3.1-1.92,0-3.18,1.22-3.18,3.52v5.47H46.76V499.48H48.6v1.58a4.3,4.3,0,0,1,3.66-1.68,3.92,3.92,0,0,1,3.68,2,4.78,4.78,0,0,1,4.08-2C62.6,499.38,64.36,500.86,64.36,504Z"/><path class="cls-111" d="M67.9,499.48h1.92v10.61H67.9Z"/><path class="cls-111" d="M83.54,504v6.11H81.62V504.2c0-2.08-1-3.1-2.86-3.1-2,0-3.36,1.22-3.36,3.52v5.47H73.48V499.48h1.84v1.6a4.54,4.54,0,0,1,3.82-1.7C81.72,499.38,83.54,500.86,83.54,504Z"/><path class="cls-111" d="M97.16,495.24v14.85H95.32V508.4a4.49,4.49,0,0,1-3.78,1.81,5.42,5.42,0,0,1,0-10.83,4.51,4.51,0,0,1,3.7,1.7v-5.84Zm-1.9,9.54a3.57,3.57,0,1,0-3.56,3.74A3.49,3.49,0,0,0,95.26,504.78Z"/><path class="cls-111" d="M109.2,503.68v6.41h-1.82v-1.4a4,4,0,0,1-3.48,1.52c-2.4,0-3.92-1.28-3.92-3.13,0-1.7,1.1-3.1,4.26-3.1h3v-.38c0-1.62-.94-2.56-2.84-2.56a5.36,5.36,0,0,0-3.36,1.14l-.8-1.44a7.06,7.06,0,0,1,4.38-1.36C107.56,499.38,109.2,500.78,109.2,503.68Zm-1.92,3.17v-1.49h-3c-1.9,0-2.44.74-2.44,1.64,0,1.06.88,1.73,2.34,1.73A3.09,3.09,0,0,0,107.28,506.85Z"/><path class="cls-111" d="M122.82,504v6.11H120.9V504.2c0-2.08-1-3.1-2.86-3.1-2,0-3.36,1.22-3.36,3.52v5.47h-1.92V499.48h1.84v1.6a4.54,4.54,0,0,1,3.82-1.7C121,499.38,122.82,500.86,122.82,504Z"/><path class="cls-111" d="M142.65,499.48v9.16c0,3.75-1.9,5.45-5.5,5.45a7.85,7.85,0,0,1-5.06-1.58L133,511a6.47,6.47,0,0,0,4.08,1.38c2.5,0,3.64-1.16,3.64-3.56V508a4.87,4.87,0,0,1-3.82,1.63,5.14,5.14,0,1,1,0-10.26,4.84,4.84,0,0,1,3.92,1.74v-1.64Zm-1.88,5a3.66,3.66,0,0,0-7.3,0,3.65,3.65,0,0,0,7.3,0Z"/><path class="cls-111" d="M156.19,499.48v10.61h-1.82v-1.61a4.29,4.29,0,0,1-3.6,1.73c-2.74,0-4.56-1.5-4.56-4.63v-6.1h1.92v5.88c0,2.08,1,3.12,2.86,3.12,2,0,3.28-1.24,3.28-3.52v-5.48Zm-7.86-2.9a1,1,0,1,1,2,0,1,1,0,0,1-2,0Zm3.72,0a1,1,0,1,1,2,0,1,1,0,0,1-2,0Z"/><path class="cls-111" d="M158.87,504.78a5.3,5.3,0,0,1,5.6-5.4,4.73,4.73,0,0,1,4.32,2.26l-1.46.94a3.3,3.3,0,0,0-2.88-1.52,3.73,3.73,0,0,0,0,7.46,3.28,3.28,0,0,0,2.88-1.52l1.46.93a4.74,4.74,0,0,1-4.32,2.28A5.32,5.32,0,0,1,158.87,504.78Z"/><path class="cls-111" d="M171.13,495.24h1.92v14.85h-1.92Z"/><path class="cls-111" d="M186.29,504.78a5.19,5.19,0,0,1-5.32,5.41,5.12,5.12,0,0,1-5.24-5.47c0-.16,0-.4,0-.58h8.6a3.59,3.59,0,0,0-3.84-3.1,4,4,0,0,0-3.06,1.28l-1.06-1.24a5.32,5.32,0,0,1,4.18-1.72C184,499.36,186.29,501.62,186.29,504.78Zm-1.92.74h-6.8a3.42,3.42,0,0,0,6.8,0Z"/><path class="cls-111" d="M199,504v6.11h-1.92V504.2c0-2.08-1-3.1-2.86-3.1-2,0-3.36,1.22-3.36,3.52v5.47H189V499.48h1.84v1.6a4.54,4.54,0,0,1,3.82-1.7C197.19,499.38,199,500.86,199,504Z"/><path class="cls-111" d="M212.63,495.24v14.85h-1.84V508.4a4.49,4.49,0,0,1-3.78,1.81,5.42,5.42,0,0,1,0-10.83,4.51,4.51,0,0,1,3.7,1.7v-5.84Zm-1.9,9.54a3.57,3.57,0,1,0-3.56,3.74A3.49,3.49,0,0,0,210.73,504.78Z"/><path class="cls-111" d="M216.05,496.4a1.18,1.18,0,0,1,2.36,0,1.18,1.18,0,0,1-2.36,0Zm.22,3.08h1.92v10.61h-1.92Z"/><path class="cls-111" d="M227.55,499.38v1.86a3.39,3.39,0,0,0-.44,0c-2.06,0-3.34,1.26-3.34,3.58v5.29h-1.92V499.48h1.84v1.78C224.37,500,225.69,499.38,227.55,499.38Z"/><path class="cls-111" d="M229.69,496.4a1.18,1.18,0,0,1,2.36,0,1.18,1.18,0,0,1-2.36,0Zm.22,3.08h1.92v10.61h-1.92Z"/><path class="cls-111" d="M246.47,504.78a5.17,5.17,0,0,1-5.36,5.43,4.49,4.49,0,0,1-3.78-1.81v1.69h-1.84V495.24h1.92v5.84a4.51,4.51,0,0,1,3.7-1.7A5.14,5.14,0,0,1,246.47,504.78Zm-1.94,0a3.57,3.57,0,1,0-3.58,3.74A3.49,3.49,0,0,0,244.53,504.78Z"/><path class="cls-111" d="M250.67,508.82a4.09,4.09,0,0,1-.34,1.45l-.94,2.78h-1.26l.74-3a1.28,1.28,0,0,1-.84-1.25,1.3,1.3,0,0,1,1.34-1.35A1.29,1.29,0,0,1,250.67,508.82Z"/><path class="cls-111" d="M258.58,504.78a5.52,5.52,0,1,1,5.53,5.43A5.28,5.28,0,0,1,258.58,504.78Zm9.09,0a3.57,3.57,0,1,0-3.56,3.74A3.48,3.48,0,0,0,267.67,504.78Zm-6.46-8.2a1,1,0,1,1,2,0,1,1,0,0,1-2,0Zm3.72,0a1,1,0,1,1,2,0,1,1,0,0,1-2,0Z"/><path class="cls-111" d="M280,508.51v1.58h-8.89v-1.24l6.27-7.79H271.2v-1.58h8.61v1.26l-6.27,7.77Z"/><path class="cls-111" d="M292,504.78a5.2,5.2,0,0,1-5.33,5.41,5.12,5.12,0,0,1-5.24-5.47c0-.16,0-.4,0-.58H290a3.59,3.59,0,0,0-3.84-3.1,4,4,0,0,0-3.07,1.28l-1.06-1.24a5.32,5.32,0,0,1,4.18-1.72C289.67,499.36,292,501.62,292,504.78Zm-1.92.74h-6.81a3.43,3.43,0,0,0,6.81,0Z"/><path class="cls-111" d="M294.6,495.24h1.93v14.85H294.6Z"/><path class="cls-111" d="M316.32,495.24v14.85h-1.84V508.4a4.49,4.49,0,0,1-3.78,1.81,5.42,5.42,0,0,1,0-10.83,4.51,4.51,0,0,1,3.7,1.7v-5.84Zm-1.9,9.54a3.57,3.57,0,1,0-3.56,3.74A3.49,3.49,0,0,0,314.42,504.78Z"/><path class="cls-111" d="M319.74,496.4a1.18,1.18,0,0,1,2.36,0,1.18,1.18,0,1,1-2.36,0Zm.22,3.08h1.92v10.61H320Z"/><path class="cls-111" d="M333.4,508.51v1.58h-8.88v-1.24l6.26-7.79h-6.14v-1.58h8.6v1.26L327,508.51Z"/><path class="cls-111" d="M344.36,503.68v6.41h-1.82v-1.4a4,4,0,0,1-3.48,1.52c-2.4,0-3.92-1.28-3.92-3.13,0-1.7,1.1-3.1,4.26-3.1h3v-.38c0-1.62-.94-2.56-2.84-2.56a5.36,5.36,0,0,0-3.36,1.14l-.8-1.44a7.06,7.06,0,0,1,4.38-1.36C342.72,499.38,344.36,500.78,344.36,503.68Zm-1.92,3.17v-1.49h-3c-1.9,0-2.44.74-2.44,1.64,0,1.06.88,1.73,2.34,1.73A3.09,3.09,0,0,0,342.44,506.85Z"/><path class="cls-111" d="M357.1,499.48,352,511.15c-.94,2.24-2.16,2.94-3.78,2.94a4,4,0,0,1-2.72-1l.82-1.44a2.71,2.71,0,0,0,1.9.78c.92,0,1.5-.42,2-1.64l.34-.74-4.68-10.59h2l3.7,8.49,3.66-8.49Z"/><path class="cls-111" d="M369,504v6.11H367V504.2c0-2.08-1-3.1-2.86-3.1-2,0-3.36,1.22-3.36,3.52v5.47H358.9V499.48h1.84v1.6a4.54,4.54,0,0,1,3.82-1.7C367.14,499.38,369,500.86,369,504Z"/><path class="cls-111" d="M372.52,495.24h1.92v14.85h-1.92Z"/><path class="cls-111" d="M386.5,503.68v6.41h-1.82v-1.4a4,4,0,0,1-3.48,1.52c-2.4,0-3.92-1.28-3.92-3.13,0-1.7,1.1-3.1,4.26-3.1h3v-.38c0-1.62-.94-2.56-2.84-2.56a5.36,5.36,0,0,0-3.36,1.14l-.8-1.44a7.06,7.06,0,0,1,4.38-1.36C384.86,499.38,386.5,500.78,386.5,503.68Zm-1.92,3.17v-1.49h-3c-1.9,0-2.44.74-2.44,1.64,0,1.06.88,1.73,2.34,1.73A3.09,3.09,0,0,0,384.58,506.85Z"/><path class="cls-111" d="M389.38,503.76h5.38v1.66h-5.38Z"/><path class="cls-111" d="M52.46,523.38v1.86a3.39,3.39,0,0,0-.44,0c-2.06,0-3.34,1.26-3.34,3.58v5.29H46.76V523.48H48.6v1.78C49.28,524,50.6,523.38,52.46,523.38Z"/><path class="cls-111" d="M54.64,523.48h1.92v10.61H54.64Z"/><path class="cls-111" d="M77.64,528v6.11H75.72V528.2c0-2.08-1-3.1-2.74-3.1-1.92,0-3.18,1.22-3.18,3.52v5.47H67.88V528.2c0-2.08-1-3.1-2.74-3.1-1.93,0-3.19,1.22-3.19,3.52v5.47H60V523.48h1.84v1.58a4.32,4.32,0,0,1,3.67-1.68,3.92,3.92,0,0,1,3.68,2,4.78,4.78,0,0,1,4.08-2C75.88,523.38,77.64,524.86,77.64,528Z"/><path class="cls-111" d="M81,523.48h1.92v10.61H81Z"/><path class="cls-111" d="M94.25,532.51v1.58H85.37v-1.24l6.26-7.79H85.49v-1.58h8.6v1.26l-6.26,7.77Z"/><path class="cls-111" d="M100.89,520.4a1.18,1.18,0,0,1,2.36,0,1.18,1.18,0,1,1-2.36,0Zm.22,3.08H103v10.61h-1.93Z"/><path class="cls-111" d="M106.51,519.24h1.92v14.85h-1.92Z"/><path class="cls-111" d="M121.49,528.78a5.19,5.19,0,0,1-5.32,5.41,5.12,5.12,0,0,1-5.24-5.47c0-.16,0-.4,0-.58h8.6a3.59,3.59,0,0,0-3.84-3.1,4,4,0,0,0-3.06,1.28l-1.06-1.24a5.32,5.32,0,0,1,4.18-1.72C119.21,523.36,121.49,525.62,121.49,528.78Zm-1.92.74h-6.8a3.42,3.42,0,0,0,6.8,0Z"/><path class="cls-111" d="M128.24,520.4a1.18,1.18,0,1,1,1.17,1.18A1.15,1.15,0,0,1,128.24,520.4Zm.21,3.08h1.93v10.61h-1.93Z"/><path class="cls-111" d="M137.47,534.19l-.24.9c1.16.12,1.74.78,1.74,1.66,0,1.12-1,1.82-2.48,1.82a3.36,3.36,0,0,1-1.78-.44l.42-1a2.64,2.64,0,0,0,1.36.34c.76,0,1.12-.3,1.12-.8s-.34-.78-1.14-.78h-.54l.44-1.72a7.34,7.34,0,0,1-3.86-1.22l.8-1.53a6.73,6.73,0,0,0,3.72,1.11c1.78,0,2.52-.54,2.52-1.45,0-2.38-6.7-.32-6.7-4.54,0-1.9,1.7-3.18,4.42-3.18a7.71,7.71,0,0,1,3.86,1l-.82,1.52a5.54,5.54,0,0,0-3.06-.84c-1.68,0-2.5.62-2.5,1.46,0,2.5,6.72.46,6.72,4.58C141.47,532.85,140,534,137.47,534.19Z"/><path class="cls-111" d="M165.78,528v6.11h-1.92V528.2c0-2.08-1-3.1-2.74-3.1-1.92,0-3.18,1.22-3.18,3.52v5.47H156V528.2c0-2.08-1-3.1-2.74-3.1-1.92,0-3.18,1.22-3.18,3.52v5.47h-1.92V523.48H150v1.58a4.3,4.3,0,0,1,3.66-1.68,3.92,3.92,0,0,1,3.68,2,4.78,4.78,0,0,1,4.08-2C164,523.38,165.78,524.86,165.78,528Z"/><path class="cls-111" d="M179,523.48v10.61H177.2v-1.61a4.33,4.33,0,0,1-3.61,1.73c-2.74,0-4.56-1.5-4.56-4.63v-6.1H171v5.88c0,2.08,1,3.12,2.86,3.12,2,0,3.29-1.24,3.29-3.52v-5.48Zm-7.87-2.9a1,1,0,1,1,2,0,1,1,0,0,1-2,0Zm3.72,0a1,1,0,1,1,2,0,1,1,0,1,1-2,0Z"/><path class="cls-111" d="M188.19,523.38v1.86a3.39,3.39,0,0,0-.44,0c-2.06,0-3.34,1.26-3.34,3.58v5.29h-1.92V523.48h1.84v1.78C185,524,186.33,523.38,188.19,523.38Z"/><path class="cls-111" d="M198.75,527.68v6.41h-1.82v-1.4a4,4,0,0,1-3.48,1.52c-2.4,0-3.92-1.28-3.92-3.13s1.1-3.1,4.26-3.1h3v-.38c0-1.62-.94-2.56-2.84-2.56a5.36,5.36,0,0,0-3.36,1.14l-.8-1.44a7.06,7.06,0,0,1,4.38-1.36C197.11,523.38,198.75,524.78,198.75,527.68Zm-1.92,3.17v-1.49h-3c-1.9,0-2.44.74-2.44,1.64,0,1.06.88,1.73,2.34,1.73A3.09,3.09,0,0,0,196.83,530.85Z"/><path class="cls-111" d="M201.21,528.78a5.3,5.3,0,0,1,5.6-5.4,4.73,4.73,0,0,1,4.32,2.26l-1.46.94a3.3,3.3,0,0,0-2.88-1.52,3.73,3.73,0,0,0,0,7.46,3.28,3.28,0,0,0,2.88-1.52l1.46.93a4.74,4.74,0,0,1-4.32,2.28A5.32,5.32,0,0,1,201.21,528.78Z"/><path class="cls-111" d="M213.21,520.4a1.18,1.18,0,0,1,2.36,0,1.18,1.18,0,1,1-2.36,0Zm.22,3.08h1.92v10.61h-1.92Z"/><path class="cls-111" d="M228.41,528.78a5.2,5.2,0,0,1-5.33,5.41,5.12,5.12,0,0,1-5.24-5.47c0-.16,0-.4,0-.58h8.61a3.6,3.6,0,0,0-3.84-3.1,4,4,0,0,0-3.07,1.28l-1.06-1.24a5.32,5.32,0,0,1,4.18-1.72C226.13,523.36,228.41,525.62,228.41,528.78Zm-1.92.74h-6.81a3.43,3.43,0,0,0,6.81,0Z"/><path class="cls-111" d="M236.84,533.47a3.62,3.62,0,0,1-2.32.74,3,3,0,0,1-3.36-3.32v-5.83h-1.8v-1.58h1.8v-2.32h1.92v2.32h3v1.58h-3v5.75a1.57,1.57,0,0,0,1.66,1.78,2.48,2.48,0,0,0,1.5-.5Z"/><path class="cls-111" d="M239,519.24h1.92v14.85H239Z"/><path class="cls-111" d="M254,528.78a5.19,5.19,0,0,1-5.32,5.41,5.12,5.12,0,0,1-5.24-5.47c0-.16,0-.4,0-.58H252a3.59,3.59,0,0,0-3.84-3.1,4,4,0,0,0-3.06,1.28l-1.06-1.24a5.32,5.32,0,0,1,4.18-1.72C251.68,523.36,254,525.62,254,528.78Zm-1.92.74h-6.8a3.42,3.42,0,0,0,6.8,0Z"/><path class="cls-111" d="M262.14,523.38v1.86a3.39,3.39,0,0,0-.44,0c-2.06,0-3.34,1.26-3.34,3.58v5.29h-1.92V523.48h1.84v1.78C259,524,260.28,523.38,262.14,523.38Z"/><path class="cls-111" d="M264.09,520.4a1.18,1.18,0,0,1,2.36,0,1.18,1.18,0,0,1-2.36,0Zm.22,3.08h1.93v10.61h-1.93Z"/><path class="cls-111" d="M279.78,528v6.11h-1.93V528.2c0-2.08-1-3.1-2.86-3.1-2,0-3.36,1.22-3.36,3.52v5.47h-1.92V523.48h1.84v1.6a4.54,4.54,0,0,1,3.82-1.7C278,523.38,279.78,524.86,279.78,528Z"/><path class="cls-111" d="M293.21,519.24v14.85h-1.84V532.4a4.49,4.49,0,0,1-3.78,1.81,5.42,5.42,0,0,1,0-10.83,4.51,4.51,0,0,1,3.7,1.7v-5.84Zm-1.9,9.54a3.57,3.57,0,1,0-3.56,3.74A3.49,3.49,0,0,0,291.31,528.78Z"/><path class="cls-111" d="M306.25,528.78a5.19,5.19,0,0,1-5.32,5.41,5.12,5.12,0,0,1-5.24-5.47c0-.16,0-.4,0-.58h8.6a3.59,3.59,0,0,0-3.84-3.1,4,4,0,0,0-3.06,1.28l-1.06-1.24a5.32,5.32,0,0,1,4.18-1.72C304,523.36,306.25,525.62,306.25,528.78Zm-1.92.74h-6.8a3.42,3.42,0,0,0,6.8,0Z"/><path class="cls-111" d="M323.09,523.48v10.61h-1.82v-1.61a4.29,4.29,0,0,1-3.6,1.73c-2.74,0-4.56-1.5-4.56-4.63v-6.1H315v5.88c0,2.08,1,3.12,2.86,3.12,2,0,3.28-1.24,3.28-3.52v-5.48Zm-7.86-2.9a1,1,0,1,1,2,0,1,1,0,0,1-2,0Zm3.72,0a1,1,0,1,1,2,0,1,1,0,1,1-2,0Z"/><path class="cls-111" d="M325.23,533l.8-1.53a6.73,6.73,0,0,0,3.72,1.11c1.78,0,2.52-.54,2.52-1.45,0-2.38-6.7-.32-6.7-4.54,0-1.9,1.7-3.18,4.42-3.18a7.71,7.71,0,0,1,3.86,1l-.82,1.52A5.54,5.54,0,0,0,330,525c-1.68,0-2.5.62-2.5,1.46,0,2.5,6.72.46,6.72,4.58,0,1.92-1.76,3.15-4.58,3.15A7.65,7.65,0,0,1,325.23,533Z"/><path class="cls-111" d="M342.37,533.47a3.62,3.62,0,0,1-2.32.74,3,3,0,0,1-3.36-3.32v-5.83h-1.8v-1.58h1.8v-2.32h1.92v2.32h3v1.58h-3v5.75a1.57,1.57,0,0,0,1.66,1.78,2.48,2.48,0,0,0,1.5-.5Z"/><path class="cls-111" d="M354.39,523.48v10.61h-1.82v-1.61a4.29,4.29,0,0,1-3.6,1.73c-2.74,0-4.56-1.5-4.56-4.63v-6.1h1.92v5.88c0,2.08,1,3.12,2.86,3.12,2,0,3.28-1.24,3.28-3.52v-5.48Zm-7.86-2.9a1,1,0,1,1,2,0,1,1,0,1,1-2,0Zm3.72,0a1,1,0,1,1,2,0,1,1,0,1,1-2,0Z"/><path class="cls-111" d="M367.93,528v6.11H366V528.2c0-2.08-1-3.1-2.86-3.1-2,0-3.36,1.22-3.36,3.52v5.47h-1.93V523.48h1.84v1.6a4.56,4.56,0,0,1,3.83-1.7C366.11,523.38,367.93,524.86,367.93,528Z"/><path class="cls-111" d="M371.3,519.24h1.92v14.85H371.3Z"/><path class="cls-111" d="M386.58,523.48v10.61h-1.82v-1.61a4.29,4.29,0,0,1-3.6,1.73c-2.74,0-4.56-1.5-4.56-4.63v-6.1h1.92v5.88c0,2.08,1,3.12,2.86,3.12,2,0,3.28-1.24,3.28-3.52v-5.48Zm-7.86-2.9a1,1,0,1,1,2,0,1,1,0,0,1-2,0Zm3.72,0a1,1,0,1,1,2,0,1,1,0,1,1-2,0Z"/><path class="cls-111" d="M389.38,527.76h5.38v1.66h-5.38Z"/><path class="cls-111" d="M56.14,547.48,51,559.15c-.94,2.24-2.16,2.94-3.78,2.94a4,4,0,0,1-2.72-1l.82-1.44a2.71,2.71,0,0,0,1.9.78c.92,0,1.5-.42,2-1.64l.34-.74L44.9,547.48h2L50.6,556l3.66-8.49Z"/><path class="cls-111" d="M67.82,547.48v10.61H66v-1.61a4.29,4.29,0,0,1-3.6,1.73c-2.74,0-4.56-1.5-4.56-4.63v-6.1h1.92v5.88c0,2.08,1,3.12,2.86,3.12,2,0,3.28-1.24,3.28-3.52v-5.48ZM60,544.58a1,1,0,1,1,2,0,1,1,0,0,1-2,0Zm3.72,0a1,1,0,1,1,2,0,1,1,0,1,1-2,0Z"/><path class="cls-111" d="M81.54,552v6.11H79.62V552.2c0-2.08-1-3.1-2.86-3.1-2,0-3.36,1.22-3.36,3.52v5.47H71.48V547.48h1.84v1.6a4.54,4.54,0,0,1,3.82-1.7C79.72,547.38,81.54,548.86,81.54,552Z"/><path class="cls-111" d="M95,547.48v10.61H93.16v-1.61a4.29,4.29,0,0,1-3.6,1.73c-2.74,0-4.56-1.5-4.56-4.63v-6.1h1.92v5.88c0,2.08,1,3.12,2.86,3.12,2,0,3.28-1.24,3.28-3.52v-5.48Zm-7.86-2.9a1,1,0,1,1,2,0,1,1,0,0,1-2,0Zm3.72,0a1,1,0,1,1,2,0,1,1,0,0,1-2,0Z"/><path class="cls-111" d="M106.5,556.51v1.58H97.62v-1.24l6.26-7.79H97.74v-1.58h8.6v1.26l-6.26,7.77Z"/><path class="cls-111" d="M118.94,547.48v10.61h-1.82v-1.61a4.29,4.29,0,0,1-3.6,1.73c-2.74,0-4.56-1.5-4.56-4.63v-6.1h1.92v5.88c0,2.08,1,3.12,2.86,3.12,2,0,3.28-1.24,3.28-3.52v-5.48Zm-7.86-2.9a1,1,0,1,1,2,0,1,1,0,0,1-2,0Zm3.72,0a1,1,0,1,1,2,0,1,1,0,0,1-2,0Z"/><path class="cls-111" d="M127,552.78a5.51,5.51,0,1,1,5.52,5.43A5.27,5.27,0,0,1,127,552.78Zm9.08,0a3.57,3.57,0,1,0-3.56,3.74A3.48,3.48,0,0,0,136.08,552.78Z"/><path class="cls-111" d="M146.38,547.38v1.86a3.39,3.39,0,0,0-.44,0c-2.06,0-3.34,1.26-3.34,3.58v5.29h-1.92V547.48h1.84v1.78C143.2,548,144.52,547.38,146.38,547.38Z"/><path class="cls-111" d="M155.14,557.47a3.62,3.62,0,0,1-2.32.74,3,3,0,0,1-3.36-3.32v-5.83h-1.8v-1.58h1.8v-2.32h1.92v2.32h3v1.58h-3v5.75a1.57,1.57,0,0,0,1.66,1.78,2.48,2.48,0,0,0,1.5-.5Z"/><path class="cls-111" d="M165.86,551.68v6.41H164v-1.4a4,4,0,0,1-3.48,1.52c-2.4,0-3.92-1.28-3.92-3.13s1.1-3.1,4.26-3.1h3v-.38c0-1.62-.94-2.56-2.84-2.56a5.36,5.36,0,0,0-3.36,1.14l-.8-1.44a7.06,7.06,0,0,1,4.38-1.36C164.22,547.38,165.86,548.78,165.86,551.68Zm-1.92,3.17v-1.49h-3c-1.9,0-2.44.74-2.44,1.64,0,1.06.88,1.73,2.34,1.73A3.09,3.09,0,0,0,163.94,554.85Z"/><path class="cls-111" d="M178.6,547.48l-5.14,11.67c-.94,2.24-2.16,2.94-3.78,2.94a4,4,0,0,1-2.72-1l.82-1.44a2.71,2.71,0,0,0,1.9.78c.92,0,1.5-.42,2-1.64l.34-.74-4.68-10.59h2l3.7,8.49,3.66-8.49Z"/><path class="cls-111" d="M188.46,551.68v6.41h-1.82v-1.4a4,4,0,0,1-3.48,1.52c-2.4,0-3.92-1.28-3.92-3.13s1.1-3.1,4.26-3.1h3v-.38c0-1.62-.94-2.56-2.84-2.56a5.36,5.36,0,0,0-3.36,1.14l-.8-1.44a7.06,7.06,0,0,1,4.38-1.36C186.82,547.38,188.46,548.78,188.46,551.68Zm-1.92,3.17v-1.49h-3c-1.9,0-2.44.74-2.44,1.64,0,1.06.88,1.73,2.34,1.73A3.09,3.09,0,0,0,186.54,554.85Z"/><path class="cls-111" d="M204.88,555l1.46.93a4.7,4.7,0,0,1-4.28,2.28l-.24.88c1.16.12,1.74.78,1.74,1.66,0,1.12-1,1.82-2.48,1.82a3.36,3.36,0,0,1-1.78-.44l.42-1a2.64,2.64,0,0,0,1.36.34c.76,0,1.12-.3,1.12-.8s-.34-.78-1.14-.78h-.54l.46-1.78a5.41,5.41,0,0,1,1-10.75,4.73,4.73,0,0,1,4.32,2.26l-1.46.94a3.3,3.3,0,0,0-2.88-1.52,3.73,3.73,0,0,0,0,7.46A3.28,3.28,0,0,0,204.88,555Z"/><path class="cls-111" d="M208.82,547.48h1.92v10.61h-1.92Z"/><path class="cls-111" d="M221.16,558.09,218.1,554l-3.1,4.07h-2.14l4.18-5.43-4-5.18h2.14l2.92,3.82,2.9-3.82h2.1l-4,5.18,4.22,5.43Z"/><path class="cls-111" d="M233.64,551.68v6.41h-1.82v-1.4a4,4,0,0,1-3.48,1.52c-2.4,0-3.92-1.28-3.92-3.13s1.1-3.1,4.26-3.1h3v-.38c0-1.62-.94-2.56-2.84-2.56a5.36,5.36,0,0,0-3.36,1.14l-.8-1.44a7.06,7.06,0,0,1,4.38-1.36C232,547.38,233.64,548.78,233.64,551.68Zm-1.92,3.17v-1.49h-3c-1.9,0-2.44.74-2.44,1.64,0,1.06.88,1.73,2.34,1.73A3.09,3.09,0,0,0,231.72,554.85Z"/><path class="cls-111" d="M242.9,547.38v1.86a3.39,3.39,0,0,0-.44,0c-2.06,0-3.34,1.26-3.34,3.58v5.29H237.2V547.48H239v1.78C239.72,548,241,547.38,242.9,547.38Z"/><path class="cls-111" d="M255.16,543.24v14.85h-1.84V556.4a4.49,4.49,0,0,1-3.78,1.81,5.42,5.42,0,0,1,0-10.83,4.51,4.51,0,0,1,3.7,1.7v-5.84Zm-1.9,9.54a3.57,3.57,0,1,0-3.56,3.74A3.49,3.49,0,0,0,253.26,552.78Z"/><path class="cls-111" d="M267.2,551.68v6.41h-1.82v-1.4a4,4,0,0,1-3.48,1.52c-2.4,0-3.92-1.28-3.92-3.13s1.1-3.1,4.26-3.1h3v-.38c0-1.62-.94-2.56-2.84-2.56a5.36,5.36,0,0,0-3.36,1.14l-.8-1.44a7.06,7.06,0,0,1,4.38-1.36C265.56,547.38,267.2,548.78,267.2,551.68Zm-1.92,3.17v-1.49h-3c-1.9,0-2.44.74-2.44,1.64,0,1.06.88,1.73,2.34,1.73A3.09,3.09,0,0,0,265.28,554.85Z"/><path class="cls-111" d="M287.12,552.78a5.17,5.17,0,0,1-5.36,5.43A4.49,4.49,0,0,1,278,556.4v1.69h-1.84V543.24h1.92v5.84a4.51,4.51,0,0,1,3.7-1.7A5.14,5.14,0,0,1,287.12,552.78Zm-1.94,0a3.57,3.57,0,1,0-3.58,3.74A3.49,3.49,0,0,0,285.18,552.78Z"/><path class="cls-111" d="M289.56,544.4a1.18,1.18,0,0,1,2.36,0,1.18,1.18,0,0,1-2.36,0Zm.22,3.08h1.92v10.61h-1.92Z"/><path class="cls-111" d="M295.36,543.24h1.92v14.85h-1.92Z"/><path class="cls-111" d="M310.52,552.78a5.19,5.19,0,0,1-5.32,5.41,5.12,5.12,0,0,1-5.24-5.47c0-.16,0-.4,0-.58h8.6a3.59,3.59,0,0,0-3.84-3.1,4,4,0,0,0-3.06,1.28l-1.06-1.24a5.32,5.32,0,0,1,4.18-1.72C308.24,547.36,310.52,549.62,310.52,552.78Zm-1.92.74h-6.8a3.42,3.42,0,0,0,6.8,0Z"/><path class="cls-111" d="M318.88,547.38v1.86a3.39,3.39,0,0,0-.44,0c-2.06,0-3.34,1.26-3.34,3.58v5.29h-1.92V547.48H315v1.78C315.7,548,317,547.38,318.88,547.38Z"/><path class="cls-111" d="M320,557l.8-1.53a6.73,6.73,0,0,0,3.72,1.11c1.78,0,2.52-.54,2.52-1.45,0-2.38-6.7-.32-6.7-4.54,0-1.9,1.7-3.18,4.42-3.18a7.71,7.71,0,0,1,3.86,1l-.82,1.52a5.54,5.54,0,0,0-3.06-.84c-1.68,0-2.5.62-2.5,1.46,0,2.5,6.72.46,6.72,4.58,0,1.92-1.76,3.15-4.58,3.15A7.65,7.65,0,0,1,320,557Z"/><path class="cls-111" d="M331.12,544.4a1.18,1.18,0,0,1,2.36,0,1.18,1.18,0,0,1-2.36,0Zm.22,3.08h1.92v10.61h-1.92Z"/><path class="cls-111" d="M347,552v6.11h-1.92V552.2c0-2.08-1-3.1-2.86-3.1-2,0-3.36,1.22-3.36,3.52v5.47h-1.92V547.48h1.84v1.6a4.54,4.54,0,0,1,3.82-1.7C345.16,547.38,347,548.86,347,552Z"/><path class="cls-111" d="M350.32,544.4a1.18,1.18,0,0,1,2.36,0,1.18,1.18,0,0,1-2.36,0Zm.22,3.08h1.92v10.61h-1.92Z"/><path class="cls-111" d="M364,556.51v1.58H355.1v-1.24l6.26-7.79h-6.14v-1.58h8.6v1.26l-6.26,7.77Z"/><path class="cls-111" d="M365.7,556.82a1.33,1.33,0,0,1,1.36-1.35,1.31,1.31,0,0,1,1.32,1.35,1.34,1.34,0,0,1-1.32,1.39A1.36,1.36,0,0,1,365.7,556.82Z"/><text class="cls-129" transform="translate(447.5 289.87)">L<tspan class="cls-130" x="19.79" y="0">EY</tspan><tspan class="cls-131" x="63.47" y="0">L</tspan><tspan class="cls-132" x="83.46" y="0">A</tspan><tspan x="0" y="44.55">ƏHƏD</tspan><tspan class="cls-133" x="107.09" y="44.55">O</tspan><tspan class="cls-134" x="133.99" y="44.55">V</tspan><tspan x="157.19" y="44.55">A</tspan></text></g></svg>