<svg xmlns="http://www.w3.org/2000/svg" xmlns:xlink="http://www.w3.org/1999/xlink" viewBox="0 0 1079 1080"><defs><style>.cls-1,.cls-169{fill:none;}.cls-2{fill:#2b2c2b;}.cls-3{fill:#246f55;}.cls-4{fill:#414142;}.cls-5{font-size:22.5px;font-family:Montserrat-Medium, Montserrat;letter-spacing:-0.03em;}.cls-10,.cls-11,.cls-147,.cls-20,.cls-21,.cls-22,.cls-27,.cls-33,.cls-5,.cls-87,.cls-89,.cls-9,.cls-91,.cls-98{fill:#fff;}.cls-5,.cls-87{font-weight:500;}.cls-6{letter-spacing:0em;}.cls-7{letter-spacing:-0.01em;}.cls-8{letter-spacing:0em;}.cls-9{font-size:58.13px;}.cls-11,.cls-9{font-family:Montserrat-SemiBold, Montserrat;font-weight:600;}.cls-10{font-size:30px;font-family:Montserrat-Regular, Montserrat;}.cls-11{font-size:39.76px;}.cls-12{letter-spacing:0em;}.cls-13{letter-spacing:-0.01em;}.cls-14{letter-spacing:-0.01em;}.cls-15{letter-spacing:-0.01em;}.cls-16{letter-spacing:-0.01em;}.cls-17{letter-spacing:-0.02em;}.cls-18{letter-spacing:0em;}.cls-19{letter-spacing:0em;}.cls-21{fill-rule:evenodd;}.cls-22{font-size:30.55px;font-family:Averta-Bold, Averta;}.cls-152,.cls-153,.cls-22{font-weight:700;}.cls-23{letter-spacing:0em;}.cls-24{letter-spacing:0em;}.cls-25{letter-spacing:0.01em;}.cls-26{letter-spacing:0em;}.cls-27{stroke:#246f55;stroke-miterlimit:10;}.cls-28{fill:url(#linear-gradient);}.cls-29{fill:url(#linear-gradient-2);}.cls-30,.cls-31{opacity:0.2;}.cls-30{fill:url(#linear-gradient-3);}.cls-31{fill:url(#linear-gradient-4);}.cls-32{fill:url(#linear-gradient-5);}.cls-33{font-size:19.48px;}.cls-147,.cls-156,.cls-165,.cls-33,.cls-89,.cls-98{font-family:Roboto-Regular, Roboto;}.cls-34{letter-spacing:0.01em;}.cls-35{letter-spacing:-0.01em;}.cls-36{letter-spacing:-0.01em;}.cls-147,.cls-37{font-size:10.72px;}.cls-37{fill:#454546;font-family:Averta-Regular, Averta;}.cls-38{letter-spacing:0em;}.cls-39{letter-spacing:0em;}.cls-40{letter-spacing:-0.06em;}.cls-41{letter-spacing:-0.06em;}.cls-42{letter-spacing:-0.03em;}.cls-43{letter-spacing:-0.01em;}.cls-44{letter-spacing:-0.02em;}.cls-45{letter-spacing:0em;}.cls-46{letter-spacing:-0.03em;}.cls-47{letter-spacing:-0.03em;}.cls-48{letter-spacing:-0.02em;}.cls-49{letter-spacing:-0.01em;}.cls-50{letter-spacing:-0.03em;}.cls-51{letter-spacing:-0.04em;}.cls-52{letter-spacing:-0.01em;}.cls-53{letter-spacing:-0.02em;}.cls-54{letter-spacing:-0.02em;}.cls-55{letter-spacing:-0.03em;}.cls-56{letter-spacing:-0.01em;}.cls-57{letter-spacing:-0.01em;}.cls-58{letter-spacing:-0.03em;}.cls-59{letter-spacing:-0.04em;}.cls-60{letter-spacing:-0.03em;}.cls-61{letter-spacing:-0.03em;}.cls-62{letter-spacing:0.03em;}.cls-63{letter-spacing:0.1em;}.cls-64{letter-spacing:0em;}.cls-65{letter-spacing:-0.01em;}.cls-66{letter-spacing:0em;}.cls-67{letter-spacing:-0.04em;}.cls-68{letter-spacing:0.01em;}.cls-69{letter-spacing:-0.03em;}.cls-70{letter-spacing:0.01em;}.cls-71{letter-spacing:0em;}.cls-72{letter-spacing:0.01em;}.cls-73{letter-spacing:0.01em;}.cls-74{letter-spacing:0.09em;}.cls-75{letter-spacing:0.09em;}.cls-76{letter-spacing:-0.01em;}.cls-77{letter-spacing:0.01em;}.cls-78{letter-spacing:-0.01em;}.cls-79{letter-spacing:0.01em;}.cls-80{letter-spacing:-0.01em;}.cls-81{letter-spacing:0.01em;}.cls-82{letter-spacing:0.01em;}.cls-83{letter-spacing:-0.02em;}.cls-84{fill:url(#linear-gradient-6);}.cls-85{fill:url(#linear-gradient-7);}.cls-86{letter-spacing:-0.02em;}.cls-87{font-size:29.22px;font-family:Roboto-Medium, Roboto;}.cls-88{letter-spacing:-0.01em;}.cls-89{font-size:17.53px;}.cls-90{fill:#82cee3;opacity:0.3;}.cls-91{opacity:0.1;}.cls-92{clip-path:url(#clip-path);}.cls-93{fill:#f5f5f4;}.cls-94{fill:#d4d2c9;}.cls-95{fill:url(#linear-gradient-8);}.cls-96{fill:url(#linear-gradient-9);}.cls-97{letter-spacing:-0.01em;}.cls-152,.cls-98{font-size:12.66px;}.cls-99{letter-spacing:0.01em;}.cls-100{letter-spacing:-0.01em;}.cls-101{letter-spacing:-0.01em;}.cls-102,.cls-105,.cls-107,.cls-117,.cls-121,.cls-126,.cls-133{opacity:0.6;}.cls-102{fill:url(#linear-gradient-10);}.cls-103,.cls-106,.cls-108,.cls-118,.cls-122,.cls-127,.cls-134{opacity:0.7;}.cls-103{fill:url(#linear-gradient-11);}.cls-104,.cls-109,.cls-112,.cls-119,.cls-123,.cls-128,.cls-135{opacity:0.8;}.cls-104{fill:url(#linear-gradient-12);}.cls-105{fill:url(#linear-gradient-13);}.cls-106{fill:url(#linear-gradient-14);}.cls-107{fill:url(#linear-gradient-15);}.cls-108{fill:url(#linear-gradient-16);}.cls-109{fill:url(#linear-gradient-17);}.cls-110,.cls-113,.cls-120,.cls-124,.cls-125,.cls-129,.cls-136{opacity:0.9;}.cls-110{fill:url(#linear-gradient-18);}.cls-111{fill:url(#linear-gradient-19);}.cls-112{fill:url(#linear-gradient-20);}.cls-113{fill:url(#linear-gradient-21);}.cls-114{fill:url(#linear-gradient-22);}.cls-115{fill:url(#linear-gradient-23);}.cls-116{fill:url(#linear-gradient-24);}.cls-117{fill:url(#linear-gradient-25);}.cls-118{fill:url(#linear-gradient-26);}.cls-119{fill:url(#linear-gradient-27);}.cls-120{fill:url(#linear-gradient-28);}.cls-121{fill:url(#linear-gradient-29);}.cls-122{fill:url(#linear-gradient-30);}.cls-123{fill:url(#linear-gradient-31);}.cls-124{fill:url(#linear-gradient-32);}.cls-125{fill:url(#linear-gradient-33);}.cls-126{fill:url(#linear-gradient-34);}.cls-127{fill:url(#linear-gradient-35);}.cls-128{fill:url(#linear-gradient-36);}.cls-129{fill:url(#linear-gradient-37);}.cls-130{fill:url(#linear-gradient-38);}.cls-131{letter-spacing:-0.01em;}.cls-132{letter-spacing:-0.02em;}.cls-133{fill:url(#linear-gradient-39);}.cls-134{fill:url(#linear-gradient-40);}.cls-135{fill:url(#linear-gradient-41);}.cls-136{fill:url(#linear-gradient-42);}.cls-137{letter-spacing:-0.03em;}.cls-138{letter-spacing:0em;}.cls-139{letter-spacing:-0.01em;}.cls-140{fill:url(#linear-gradient-43);}.cls-141{fill:url(#linear-gradient-44);}.cls-142,.cls-152{fill:#2f3a40;}.cls-143{fill:url(#linear-gradient-45);}.cls-144{fill:url(#linear-gradient-46);}.cls-145{letter-spacing:0.01em;}.cls-146{letter-spacing:-0.01em;}.cls-148{letter-spacing:0.01em;}.cls-149{letter-spacing:0em;}.cls-150{letter-spacing:-0.01em;}.cls-151{letter-spacing:-0.01em;}.cls-152,.cls-153{font-family:Roboto-Bold, Roboto;}.cls-153{font-size:13.64px;fill:#59595b;}.cls-154{letter-spacing:-0.01em;}.cls-155{letter-spacing:-0.01em;}.cls-156{font-size:11.69px;font-weight:400;}.cls-156,.cls-165{fill:#6d6e70;}.cls-157{letter-spacing:-0.01em;}.cls-158{letter-spacing:-0.01em;}.cls-159{letter-spacing:-0.01em;}.cls-160{fill:url(#linear-gradient-47);}.cls-161{letter-spacing:-0.01em;}.cls-162{letter-spacing:-0.01em;}.cls-163{letter-spacing:-0.01em;}.cls-164{letter-spacing:-0.01em;}.cls-165{font-size:15.15px;}.cls-166{letter-spacing:-0.01em;}.cls-167{letter-spacing:-0.01em;}.cls-168{fill:url(#linear-gradient-48);}.cls-169{stroke:#fff;stroke-linecap:round;stroke-linejoin:round;stroke-width:2px;}.cls-170{fill:url(#linear-gradient-49);}.cls-171{fill:url(#linear-gradient-50);}.cls-172{fill:url(#linear-gradient-51);}.cls-173{fill:url(#linear-gradient-52);}.cls-174{clip-path:url(#clip-path-2);}</style><linearGradient id="linear-gradient" x1="750.05" y1="63.69" x2="754.14" y2="281.82" gradientUnits="userSpaceOnUse"><stop offset="0.12" stop-color="#a8d160"/><stop offset="0.9" stop-color="#a2d4a3"/></linearGradient><linearGradient id="linear-gradient-2" x1="1107.54" y1="851.18" x2="422.17" y2="851.18" xlink:href="#linear-gradient"/><linearGradient id="linear-gradient-3" x1="948.35" y1="861.78" x2="1019.5" y2="861.78" xlink:href="#linear-gradient"/><linearGradient id="linear-gradient-4" x1="1014.98" y1="827.81" x2="1036.19" y2="827.81" xlink:href="#linear-gradient"/><linearGradient id="linear-gradient-5" x1="749.17" y1="215.23" x2="1046.8" y2="215.23" xlink:href="#linear-gradient"/><linearGradient id="linear-gradient-6" x1="749.17" y1="336.39" x2="1046.8" y2="336.39" xlink:href="#linear-gradient"/><linearGradient id="linear-gradient-7" x1="749.17" y1="443.34" x2="1046.8" y2="443.34" xlink:href="#linear-gradient"/><clipPath id="clip-path"><circle class="cls-1" cx="590.65" cy="218.74" r="85.85" transform="translate(171.79 689.14) rotate(-68.64)"/></clipPath><linearGradient id="linear-gradient-8" x1="481.59" y1="523.47" x2="705.26" y2="523.47" xlink:href="#linear-gradient"/><linearGradient id="linear-gradient-9" x1="470.95" y1="546.6" x2="479.96" y2="546.6" xlink:href="#linear-gradient"/><linearGradient id="linear-gradient-10" x1="598.01" y1="616.76" x2="611.81" y2="616.76" xlink:href="#linear-gradient"/><linearGradient id="linear-gradient-11" x1="614.11" y1="616.79" x2="627.91" y2="616.79" xlink:href="#linear-gradient"/><linearGradient id="linear-gradient-12" x1="630.21" y1="616.81" x2="644" y2="616.81" xlink:href="#linear-gradient"/><linearGradient id="linear-gradient-13" x1="598.01" y1="591.79" x2="611.81" y2="591.79" xlink:href="#linear-gradient"/><linearGradient id="linear-gradient-14" x1="614.11" y1="591.81" x2="627.91" y2="591.81" xlink:href="#linear-gradient"/><linearGradient id="linear-gradient-15" x1="598.01" y1="566.81" x2="611.81" y2="566.81" xlink:href="#linear-gradient"/><linearGradient id="linear-gradient-16" x1="614.11" y1="566.84" x2="627.91" y2="566.84" xlink:href="#linear-gradient"/><linearGradient id="linear-gradient-17" x1="631.36" y1="566.86" x2="645.15" y2="566.86" xlink:href="#linear-gradient"/><linearGradient id="linear-gradient-18" x1="647.46" y1="566.89" x2="661.25" y2="566.89" xlink:href="#linear-gradient"/><linearGradient id="linear-gradient-19" x1="662.4" y1="566.91" x2="676.2" y2="566.91" xlink:href="#linear-gradient"/><linearGradient id="linear-gradient-20" x1="629.2" y1="591.76" x2="642.99" y2="591.76" xlink:href="#linear-gradient"/><linearGradient id="linear-gradient-21" x1="645.29" y1="591.79" x2="659.09" y2="591.79" xlink:href="#linear-gradient"/><linearGradient id="linear-gradient-22" x1="660.24" y1="591.81" x2="674.04" y2="591.81" xlink:href="#linear-gradient"/><linearGradient id="linear-gradient-23" x1="481.59" y1="662.28" x2="705.26" y2="662.28" xlink:href="#linear-gradient"/><linearGradient id="linear-gradient-24" x1="470.95" y1="685.41" x2="479.96" y2="685.41" xlink:href="#linear-gradient"/><linearGradient id="linear-gradient-25" x1="598.04" y1="753.93" x2="611.84" y2="753.93" xlink:href="#linear-gradient"/><linearGradient id="linear-gradient-26" x1="614.14" y1="753.96" x2="627.94" y2="753.96" xlink:href="#linear-gradient"/><linearGradient id="linear-gradient-27" x1="630.24" y1="753.98" x2="644.03" y2="753.98" xlink:href="#linear-gradient"/><linearGradient id="linear-gradient-28" x1="646.33" y1="754.01" x2="660.13" y2="754.01" xlink:href="#linear-gradient"/><linearGradient id="linear-gradient-29" x1="598.04" y1="728.5" x2="611.84" y2="728.5" xlink:href="#linear-gradient"/><linearGradient id="linear-gradient-30" x1="614.14" y1="728.52" x2="627.94" y2="728.52" xlink:href="#linear-gradient"/><linearGradient id="linear-gradient-31" x1="630.24" y1="728.54" x2="644.03" y2="728.54" xlink:href="#linear-gradient"/><linearGradient id="linear-gradient-32" x1="646.33" y1="728.57" x2="660.13" y2="728.57" xlink:href="#linear-gradient"/><linearGradient id="linear-gradient-33" x1="662.43" y1="728.57" x2="676.23" y2="728.57" xlink:href="#linear-gradient"/><linearGradient id="linear-gradient-34" x1="598.04" y1="703.01" x2="611.84" y2="703.01" xlink:href="#linear-gradient"/><linearGradient id="linear-gradient-35" x1="614.14" y1="703.03" x2="627.94" y2="703.03" xlink:href="#linear-gradient"/><linearGradient id="linear-gradient-36" x1="630.24" y1="703.06" x2="644.03" y2="703.06" xlink:href="#linear-gradient"/><linearGradient id="linear-gradient-37" x1="646.33" y1="703.08" x2="660.13" y2="703.08" xlink:href="#linear-gradient"/><linearGradient id="linear-gradient-38" x1="662.43" y1="703.11" x2="676.23" y2="703.11" xlink:href="#linear-gradient"/><linearGradient id="linear-gradient-39" x1="598.04" y1="776.45" x2="611.84" y2="776.45" xlink:href="#linear-gradient"/><linearGradient id="linear-gradient-40" x1="614.14" y1="776.47" x2="627.94" y2="776.47" xlink:href="#linear-gradient"/><linearGradient id="linear-gradient-41" x1="630.24" y1="776.5" x2="644.03" y2="776.5" xlink:href="#linear-gradient"/><linearGradient id="linear-gradient-42" x1="646.33" y1="776.52" x2="660.13" y2="776.52" xlink:href="#linear-gradient"/><linearGradient id="linear-gradient-43" x1="481.59" y1="828.53" x2="705.26" y2="828.53" xlink:href="#linear-gradient"/><linearGradient id="linear-gradient-44" x1="470.95" y1="851.66" x2="479.96" y2="851.66" xlink:href="#linear-gradient"/><linearGradient id="linear-gradient-45" x1="481.59" y1="348.16" x2="705.26" y2="348.16" xlink:href="#linear-gradient"/><linearGradient id="linear-gradient-46" x1="470.95" y1="371.29" x2="479.96" y2="371.29" xlink:href="#linear-gradient"/><linearGradient id="linear-gradient-47" x1="749.17" y1="628.69" x2="1046.8" y2="628.69" xlink:href="#linear-gradient"/><linearGradient id="linear-gradient-48" x1="741.04" y1="749.53" x2="756.1" y2="749.53" gradientTransform="translate(749.25 -309.79) rotate(45)" xlink:href="#linear-gradient"/><linearGradient id="linear-gradient-49" x1="741.04" y1="768" x2="756.1" y2="768" gradientTransform="translate(1324.74 -136.55) rotate(76.76)" xlink:href="#linear-gradient"/><linearGradient id="linear-gradient-50" x1="741.04" y1="786.47" x2="756.1" y2="786.47" gradientTransform="translate(1342.73 -122.31) rotate(76.76)" xlink:href="#linear-gradient"/><linearGradient id="linear-gradient-51" x1="741.04" y1="804.95" x2="756.1" y2="804.95" gradientTransform="translate(788.43 -293.56) rotate(45)" xlink:href="#linear-gradient"/><linearGradient id="linear-gradient-52" x1="741.04" y1="823.68" x2="756.1" y2="823.68" gradientTransform="translate(801.68 -288.07) rotate(45)" xlink:href="#linear-gradient"/><clipPath id="clip-path-2"><circle class="cls-1" cx="590.65" cy="218.74" r="90.88"/></clipPath></defs><g id="PRINT"><rect class="cls-2" x="85.21" y="181.33" width="260.32" height="56.71"/><rect class="cls-3" x="40.07" y="69.8" width="143.79" height="5.3"/><rect class="cls-4" x="183.81" y="69.8" width="143.79" height="5.3"/><rect class="cls-4" x="40.07" y="90.37" width="143.76" height="38.31"/><text class="cls-5" transform="translate(52.13 117.53)">K<tspan class="cls-6" x="15.62" y="0">OD: 11</tspan><tspan class="cls-7" x="80.91" y="0">.</tspan><tspan class="cls-8" x="85.75" y="0">04</tspan></text><rect class="cls-3" x="40.07" y="169.58" width="80.21" height="80.21"/><text class="cls-9" transform="translate(58.63 226.69)">6</text><text class="cls-10" transform="translate(63.61 243.52) scale(0.58)">azn</text><text class="cls-11" transform="translate(139 219.7) scale(0.58)"><tspan class="cls-12">A</tspan><tspan class="cls-13" x="29.7" y="0">z</tspan><tspan x="50.54" y="0">ə</tspan><tspan class="cls-14" x="75.27" y="0">r</tspan><tspan class="cls-15" x="91.77" y="0">b</tspan><tspan class="cls-16" x="118.77" y="0">a</tspan><tspan class="cls-17" x="142.51" y="0">y</tspan><tspan x="164.9" y="0">ca</tspan><tspan class="cls-18" x="212.14" y="0">n</tspan><tspan class="cls-19" x="239.57" y="0">dilli</tspan></text><rect class="cls-2" x="85.21" y="305.1" width="260.32" height="56.71"/><rect class="cls-3" x="40.07" y="293.35" width="80.21" height="80.21"/><text class="cls-9" transform="translate(48.78 350.46)">10</text><text class="cls-11" transform="translate(139 343.47) scale(0.58)">İ<tspan class="cls-18" x="12.68" y="0">n</tspan><tspan class="cls-19" x="40.12" y="0">gilisdilli</tspan></text><text class="cls-10" transform="translate(63.61 369.53) scale(0.58)">azn</text><path class="cls-2" d="M58.34,424.41c0,3-2.2,4.88-5.84,4.88H49v4.25H47v-14H52.5C56.14,419.53,58.34,421.37,58.34,424.41Zm-2,0c0-2-1.34-3.14-3.9-3.14H49v6.28h3.4C55,427.55,56.34,426.41,56.34,424.41Z"/><path class="cls-2" d="M66.52,422.83v1.86a3.39,3.39,0,0,0-.44,0c-2.06,0-3.34,1.26-3.34,3.58v5.29H60.81V422.93h1.85v1.78C63.34,423.47,64.66,422.83,66.52,422.83Z"/><path class="cls-2" d="M67.79,428.23a5.52,5.52,0,1,1,5.53,5.43A5.28,5.28,0,0,1,67.79,428.23Zm9.09,0a3.58,3.58,0,1,0-7.15,0,3.58,3.58,0,1,0,7.15,0Z"/><path class="cls-2" d="M83.63,422v.92h3.09v1.58h-3v9H81.76v-9H80v-1.58h1.81V422a3.19,3.19,0,0,1,3.5-3.42,3.58,3.58,0,0,1,2.16.62l-.58,1.46a2.49,2.49,0,0,0-1.48-.5C84.22,420.15,83.63,420.79,83.63,422Z"/><path class="cls-2" d="M97.92,428.87h-8.6a3.59,3.59,0,0,0,3.84,3.1,3.92,3.92,0,0,0,3.06-1.28l1.06,1.24a5.29,5.29,0,0,1-4.18,1.73c-3.42,0-5.71-2.27-5.71-5.43a5.2,5.2,0,0,1,5.33-5.4A5.11,5.11,0,0,1,98,428.29C98,428.45,97.94,428.69,97.92,428.87Zm-8.6-1.38h6.8a3.42,3.42,0,0,0-6.8,0Z"/><path class="cls-2" d="M99.28,432.42l.8-1.53A6.73,6.73,0,0,0,103.8,432c1.78,0,2.52-.54,2.52-1.44,0-2.39-6.7-.33-6.7-4.55,0-1.9,1.7-3.18,4.42-3.18a7.71,7.71,0,0,1,3.86,1l-.82,1.52a5.54,5.54,0,0,0-3.06-.84c-1.68,0-2.5.62-2.5,1.46,0,2.5,6.72.46,6.72,4.58,0,1.92-1.76,3.15-4.58,3.15A7.65,7.65,0,0,1,99.28,432.42Z"/><path class="cls-2" d="M109.3,432.42l.79-1.53a6.79,6.79,0,0,0,3.73,1.11c1.78,0,2.52-.54,2.52-1.44,0-2.39-6.71-.33-6.71-4.55,0-1.9,1.71-3.18,4.43-3.18a7.71,7.71,0,0,1,3.86,1l-.82,1.52a5.54,5.54,0,0,0-3.06-.84c-1.68,0-2.5.62-2.5,1.46,0,2.5,6.72.46,6.72,4.58,0,1.92-1.76,3.15-4.58,3.15A7.63,7.63,0,0,1,109.3,432.42Z"/><path class="cls-2" d="M120.43,419.85a1.19,1.19,0,1,1,1.18,1.18A1.16,1.16,0,0,1,120.43,419.85Zm.22,3.08h1.93v10.61h-1.93Z"/><path class="cls-2" d="M125.25,428.23a5.52,5.52,0,1,1,5.53,5.43A5.28,5.28,0,0,1,125.25,428.23Zm9.09,0a3.58,3.58,0,1,0-7.15,0,3.58,3.58,0,1,0,7.15,0Z"/><path class="cls-2" d="M149,427.43v6.11h-1.92v-5.89c0-2.08-1-3.1-2.86-3.1-2,0-3.36,1.22-3.36,3.52v5.47h-1.93V422.93h1.85v1.6a4.54,4.54,0,0,1,3.82-1.7C147.18,422.83,149,424.31,149,427.43Z"/><path class="cls-2" d="M161,427.13v6.41h-1.82v-1.4a3.93,3.93,0,0,1-3.48,1.52c-2.4,0-3.93-1.28-3.93-3.13,0-1.7,1.11-3.1,4.27-3.1h3v-.38c0-1.62-.94-2.56-2.84-2.56a5.36,5.36,0,0,0-3.36,1.14l-.81-1.44a7.09,7.09,0,0,1,4.39-1.36C159.32,422.83,161,424.23,161,427.13ZM159,430.3v-1.49h-3c-1.91,0-2.45.75-2.45,1.64,0,1.06.89,1.73,2.35,1.73A3.09,3.09,0,0,0,159,430.3Z"/><path class="cls-2" d="M164.51,418.69h1.93v14.85h-1.93Z"/><path class="cls-2" d="M178.37,426.53a7.09,7.09,0,0,1,7.43-7.16,6.92,6.92,0,0,1,5.32,2.18l-1.3,1.26a5.19,5.19,0,0,0-3.94-1.66,5.39,5.39,0,1,0,0,10.77,5.18,5.18,0,0,0,3.94-1.69l1.3,1.27a7,7,0,0,1-5.34,2.2A7.09,7.09,0,0,1,178.37,426.53Z"/><path class="cls-2" d="M206,419.53l-6.14,14h-2l-6.17-14h2.16l5,11.5,5.08-11.5Z"/><path class="cls-2" d="M227,427.43v6.11h-1.92v-5.89c0-2.08-1-3.1-2.86-3.1-2,0-3.36,1.22-3.36,3.52v5.47h-1.93V418.69h1.93v5.74a4.6,4.6,0,0,1,3.74-1.6C225.18,422.83,227,424.31,227,427.43Z"/><path class="cls-2" d="M239,427.13v6.41h-1.82v-1.4a3.93,3.93,0,0,1-3.48,1.52c-2.4,0-3.93-1.28-3.93-3.13,0-1.7,1.11-3.1,4.27-3.1h3v-.38c0-1.62-.94-2.56-2.84-2.56a5.36,5.36,0,0,0-3.36,1.14l-.81-1.44a7.09,7.09,0,0,1,4.39-1.36C237.32,422.83,239,424.23,239,427.13ZM237,430.3v-1.49h-3c-1.91,0-2.45.75-2.45,1.64,0,1.06.89,1.73,2.35,1.73A3.09,3.09,0,0,0,237,430.3Z"/><path class="cls-2" d="M250.38,432v1.58h-8.89V432.3l6.27-7.79h-6.15v-1.58h8.61v1.26L244,432Z"/><path class="cls-2" d="M252.93,422.93h1.93v10.61h-1.93Z"/><path class="cls-2" d="M264.22,422.83v1.86a3.39,3.39,0,0,0-.44,0c-2.06,0-3.34,1.26-3.34,3.58v5.29h-1.93V422.93h1.85v1.78C261,423.47,262.36,422.83,264.22,422.83Z"/><path class="cls-2" d="M266.58,418.69h1.92v14.85h-1.92Z"/><path class="cls-2" d="M280.56,427.13v6.41h-1.82v-1.4a3.93,3.93,0,0,1-3.48,1.52c-2.4,0-3.92-1.28-3.92-3.13,0-1.7,1.1-3.1,4.26-3.1h3v-.38c0-1.62-.94-2.56-2.84-2.56a5.36,5.36,0,0,0-3.36,1.14l-.81-1.44a7.11,7.11,0,0,1,4.39-1.36C278.92,422.83,280.56,424.23,280.56,427.13Zm-1.92,3.17v-1.49h-3c-1.9,0-2.44.75-2.44,1.64,0,1.06.88,1.73,2.34,1.73A3.09,3.09,0,0,0,278.64,430.3Z"/><path class="cls-2" d="M301.72,427.43v6.11H299.8v-5.89c0-2.08-1-3.1-2.74-3.1-1.92,0-3.18,1.22-3.18,3.52v5.47H292v-5.89c0-2.08-1-3.1-2.74-3.1-1.92,0-3.18,1.22-3.18,3.52v5.47h-1.92V422.93H286v1.58a4.3,4.3,0,0,1,3.66-1.68,3.92,3.92,0,0,1,3.68,2,4.78,4.78,0,0,1,4.08-2C300,422.83,301.72,424.31,301.72,427.43Z"/><path class="cls-2" d="M313.66,427.13v6.41h-1.82v-1.4a3.93,3.93,0,0,1-3.48,1.52c-2.4,0-3.93-1.28-3.93-3.13,0-1.7,1.11-3.1,4.27-3.1h3v-.38c0-1.62-.94-2.56-2.84-2.56a5.36,5.36,0,0,0-3.36,1.14l-.81-1.44a7.11,7.11,0,0,1,4.39-1.36C312,422.83,313.66,424.23,313.66,427.13Zm-1.92,3.17v-1.49h-3c-1.9,0-2.44.75-2.44,1.64,0,1.06.88,1.73,2.34,1.73A3.09,3.09,0,0,0,311.74,430.3Z"/><path class="cls-2" d="M333.12,433.54l-3.06-4.07-3.1,4.07h-2.15l4.19-5.43-4-5.18h2.14l2.93,3.82,2.9-3.82h2.1l-4,5.18,4.22,5.43Z"/><path class="cls-2" d="M337.17,419.85a1.19,1.19,0,1,1,1.18,1.18A1.16,1.16,0,0,1,337.17,419.85Zm.22,3.08h1.93v10.61h-1.93Z"/><path class="cls-2" d="M353,418.69v14.85h-1.84v-1.69a4.46,4.46,0,0,1-3.78,1.81,5.42,5.42,0,0,1,0-10.83,4.51,4.51,0,0,1,3.7,1.7v-5.84Zm-1.9,9.54a3.58,3.58,0,1,0-3.56,3.74A3.49,3.49,0,0,0,351.08,428.23Z"/><path class="cls-2" d="M374.22,427.43v6.11H372.3v-5.89c0-2.08-1-3.1-2.74-3.1-1.92,0-3.18,1.22-3.18,3.52v5.47h-1.92v-5.89c0-2.08-1-3.1-2.74-3.1-1.92,0-3.18,1.22-3.18,3.52v5.47h-1.93V422.93h1.85v1.58a4.3,4.3,0,0,1,3.66-1.68,3.92,3.92,0,0,1,3.68,2,4.78,4.78,0,0,1,4.08-2C372.46,422.83,374.22,424.31,374.22,427.43Z"/><path class="cls-2" d="M387.4,428.23a5.19,5.19,0,0,1-5.32,5.41,5.12,5.12,0,0,1-5.25-5.47c0-.16,0-.4,0-.58h8.61a3.59,3.59,0,0,0-3.84-3.1,4,4,0,0,0-3.07,1.28l-1.06-1.24a5.33,5.33,0,0,1,4.19-1.72C385.12,422.81,387.4,425.07,387.4,428.23Zm-1.92.74h-6.81a3.43,3.43,0,0,0,6.81,0Z"/><path class="cls-2" d="M389.38,427.21h5.38v1.66h-5.38Z"/><path class="cls-2" d="M52.72,456.92a3.62,3.62,0,0,1-2.32.74A3,3,0,0,1,47,454.34v-5.83H45.23v-1.58H47v-2.32H49v2.32h3v1.58H49v5.75A1.57,1.57,0,0,0,50.62,456a2.48,2.48,0,0,0,1.5-.5Z"/><path class="cls-2" d="M54.59,443.85a1.18,1.18,0,0,1,2.36,0,1.18,1.18,0,0,1-2.36,0Zm.22,3.08h1.92v10.61H54.81Z"/><path class="cls-2" d="M70.23,451.43v6.11H68.31v-5.89c0-2.08-1-3.1-2.86-3.1-2,0-3.36,1.22-3.36,3.52v5.47H60.17V446.93H62v1.6a4.54,4.54,0,0,1,3.82-1.7C68.41,446.83,70.23,448.31,70.23,451.43Z"/><path class="cls-2" d="M83.63,442.69v14.85H81.79v-1.69A4.46,4.46,0,0,1,78,457.66a5.42,5.42,0,0,1,0-10.83,4.51,4.51,0,0,1,3.7,1.7v-5.84Zm-1.9,9.54A3.57,3.57,0,1,0,78.17,456,3.49,3.49,0,0,0,81.73,452.23Z"/><path class="cls-2" d="M96.63,452.23a5.19,5.19,0,0,1-5.32,5.41,5.12,5.12,0,0,1-5.24-5.47c0-.16,0-.4,0-.58h8.6a3.59,3.59,0,0,0-3.84-3.1,4,4,0,0,0-3.06,1.28l-1.06-1.24a5.32,5.32,0,0,1,4.18-1.72C94.35,446.81,96.63,449.07,96.63,452.23Zm-1.92.74h-6.8a3.42,3.42,0,0,0,6.8,0Z"/><path class="cls-2" d="M114.57,452.23a5.15,5.15,0,0,1-5.36,5.43,4.51,4.51,0,0,1-3.7-1.73v5.49h-1.92V446.93h1.84v1.68a4.51,4.51,0,0,1,3.78-1.78A5.14,5.14,0,0,1,114.57,452.23Zm-1.94,0a3.57,3.57,0,1,0-3.58,3.74A3.5,3.5,0,0,0,112.63,452.23Z"/><path class="cls-2" d="M126.55,452.87H118a3.59,3.59,0,0,0,3.84,3.1,3.92,3.92,0,0,0,3.06-1.28l1.06,1.24a5.29,5.29,0,0,1-4.18,1.73c-3.42,0-5.7-2.27-5.7-5.43a5.19,5.19,0,0,1,5.32-5.4,5.11,5.11,0,0,1,5.24,5.46C126.59,452.45,126.57,452.69,126.55,452.87Zm-8.6-1.38h6.8a3.42,3.42,0,0,0-6.8,0Z"/><path class="cls-2" d="M132.65,457.64l-.24.9c1.16.12,1.74.78,1.74,1.66,0,1.12-1,1.82-2.48,1.82a3.36,3.36,0,0,1-1.78-.44l.42-1a2.64,2.64,0,0,0,1.36.34c.76,0,1.12-.3,1.12-.8s-.34-.78-1.14-.78h-.54l.44-1.72a7.17,7.17,0,0,1-3.86-1.22l.8-1.53a6.73,6.73,0,0,0,3.72,1.11c1.78,0,2.52-.54,2.52-1.44,0-2.39-6.7-.33-6.7-4.55,0-1.9,1.7-3.18,4.42-3.18a7.71,7.71,0,0,1,3.86,1l-.82,1.52a5.54,5.54,0,0,0-3.06-.84c-1.68,0-2.5.62-2.5,1.46,0,2.5,6.72.46,6.72,4.58C136.65,456.3,135.13,457.48,132.65,457.64Z"/><path class="cls-2" d="M148.41,452.23a5.2,5.2,0,0,1-5.33,5.41,5.12,5.12,0,0,1-5.24-5.47c0-.16,0-.4,0-.58h8.61a3.6,3.6,0,0,0-3.85-3.1,4,4,0,0,0-3.06,1.28l-1.06-1.24a5.32,5.32,0,0,1,4.18-1.72C146.13,446.81,148.41,449.07,148.41,452.23Zm-1.92.74h-6.81a3.43,3.43,0,0,0,6.81,0Z"/><path class="cls-2" d="M155,452.59l-2.2,2.05v2.9h-1.92V442.69h1.92v9.52l5.78-5.28h2.32l-4.46,4.38,4.9,6.23h-2.36Z"/><path class="cls-2" d="M171.14,451.13v6.41h-1.82v-1.4a3.93,3.93,0,0,1-3.48,1.52c-2.4,0-3.92-1.28-3.92-3.13,0-1.7,1.1-3.1,4.26-3.1h3v-.38c0-1.62-.94-2.56-2.84-2.56a5.36,5.36,0,0,0-3.36,1.14l-.8-1.44a7.06,7.06,0,0,1,4.38-1.36C169.5,446.83,171.14,448.23,171.14,451.13Zm-1.92,3.17v-1.49h-3c-1.9,0-2.44.75-2.44,1.64,0,1.06.88,1.73,2.34,1.73A3.09,3.09,0,0,0,169.22,454.3Z"/><path class="cls-2" d="M180.18,446.83v1.86a3.39,3.39,0,0,0-.44,0c-2.06,0-3.34,1.26-3.34,3.58v5.29h-1.92V446.93h1.84v1.78C177,447.47,178.32,446.83,180.18,446.83Z"/><path class="cls-2" d="M191.1,452.59l-2.2,2.05v2.9H187V442.69h1.92v9.52l5.78-5.28H197l-4.47,4.38,4.9,6.23h-2.36Z"/><path class="cls-2" d="M197.66,452.23a5.51,5.51,0,1,1,5.52,5.43A5.27,5.27,0,0,1,197.66,452.23Zm9.08,0a3.57,3.57,0,1,0-3.56,3.74A3.48,3.48,0,0,0,206.74,452.23Z"/><path class="cls-2" d="M228.72,451.43v6.11H226.8v-5.89c0-2.08-1-3.1-2.74-3.1-1.92,0-3.18,1.22-3.18,3.52v5.47H219v-5.89c0-2.08-1-3.1-2.74-3.1-1.92,0-3.18,1.22-3.18,3.52v5.47h-1.92V446.93H213v1.58a4.3,4.3,0,0,1,3.66-1.68,3.92,3.92,0,0,1,3.68,2,4.78,4.78,0,0,1,4.08-2C227,446.83,228.72,448.31,228.72,451.43Z"/><path class="cls-2" d="M240.44,451.13v6.41h-1.82v-1.4a3.93,3.93,0,0,1-3.48,1.52c-2.4,0-3.92-1.28-3.92-3.13,0-1.7,1.1-3.1,4.26-3.1h3v-.38c0-1.62-.94-2.56-2.84-2.56a5.36,5.36,0,0,0-3.36,1.14l-.8-1.44a7.06,7.06,0,0,1,4.38-1.36C238.8,446.83,240.44,448.23,240.44,451.13Zm-1.92,3.17v-1.49h-3c-1.9,0-2.44.75-2.44,1.64,0,1.06.88,1.73,2.34,1.73A3.09,3.09,0,0,0,238.52,454.3Z"/><path class="cls-2" d="M253.84,451.43v6.11h-1.92v-5.89c0-2.08-1-3.1-2.86-3.1-2,0-3.36,1.22-3.36,3.52v5.47h-1.93V446.93h1.85v1.6a4.54,4.54,0,0,1,3.82-1.7C252,446.83,253.84,448.31,253.84,451.43Z"/><path class="cls-2" d="M267.24,442.69v14.85H265.4v-1.69a4.48,4.48,0,0,1-3.79,1.81,5.42,5.42,0,0,1,0-10.83,4.54,4.54,0,0,1,3.71,1.7v-5.84Zm-1.9,9.54a3.58,3.58,0,1,0-3.57,3.74A3.49,3.49,0,0,0,265.34,452.23Z"/><path class="cls-2" d="M279.05,451.13v6.41h-1.82v-1.4a3.93,3.93,0,0,1-3.48,1.52c-2.4,0-3.92-1.28-3.92-3.13,0-1.7,1.1-3.1,4.26-3.1h3v-.38c0-1.62-.94-2.56-2.84-2.56a5.36,5.36,0,0,0-3.36,1.14l-.8-1.44a7.06,7.06,0,0,1,4.38-1.36C277.41,446.83,279.05,448.23,279.05,451.13Zm-1.92,3.17v-1.49h-3c-1.9,0-2.44.75-2.44,1.64,0,1.06.88,1.73,2.34,1.73A3.09,3.09,0,0,0,277.13,454.3Z"/><path class="cls-2" d="M300,451.43v6.11h-1.92v-5.89c0-2.08-1-3.1-2.74-3.1-1.92,0-3.18,1.22-3.18,3.52v5.47h-1.92v-5.89c0-2.08-1-3.1-2.74-3.1-1.92,0-3.18,1.22-3.18,3.52v5.47h-1.92V446.93h1.84v1.58a4.3,4.3,0,0,1,3.66-1.68,3.92,3.92,0,0,1,3.68,2,4.78,4.78,0,0,1,4.08-2C298.23,446.83,300,448.31,300,451.43Z"/><path class="cls-2" d="M303.31,446.93h1.92v10.61h-1.92Z"/><path class="cls-2" d="M316.53,456v1.58h-8.89V456.3l6.27-7.79h-6.15v-1.58h8.61v1.26L310.1,456Z"/><path class="cls-2" d="M329.35,456.92a3.62,3.62,0,0,1-2.32.74,3,3,0,0,1-3.36-3.32v-5.83h-1.8v-1.58h1.8v-2.32h1.92v2.32h3v1.58h-3v5.75a1.57,1.57,0,0,0,1.66,1.78,2.48,2.48,0,0,0,1.5-.5Z"/><path class="cls-2" d="M340.67,452.23a5.19,5.19,0,0,1-5.32,5.41,5.13,5.13,0,0,1-5.25-5.47c0-.16,0-.4,0-.58h8.61a3.59,3.59,0,0,0-3.84-3.1,4,4,0,0,0-3.07,1.28l-1-1.24a5.32,5.32,0,0,1,4.18-1.72C338.39,446.81,340.67,449.07,340.67,452.23Zm-1.92.74H332a3.42,3.42,0,0,0,6.8,0Z"/><path class="cls-2" d="M348.8,446.83v1.86a3.31,3.31,0,0,0-.44,0c-2.06,0-3.34,1.26-3.34,3.58v5.29H343.1V446.93h1.84v1.78C345.62,447.47,346.94,446.83,348.8,446.83Z"/><path class="cls-2" d="M360.42,452.23a5.19,5.19,0,0,1-5.32,5.41,5.12,5.12,0,0,1-5.24-5.47c0-.16,0-.4,0-.58h8.6a3.59,3.59,0,0,0-3.84-3.1,4,4,0,0,0-3.06,1.28l-1.06-1.24a5.32,5.32,0,0,1,4.18-1.72C358.14,446.81,360.42,449.07,360.42,452.23Zm-1.92.74h-6.8a3.42,3.42,0,0,0,6.8,0Z"/><path class="cls-2" d="M365,446v.92h3.08v1.58h-3v9h-1.92v-9h-1.8v-1.58h1.8V446a3.19,3.19,0,0,1,3.5-3.42,3.58,3.58,0,0,1,2.16.62l-.58,1.46a2.49,2.49,0,0,0-1.48-.5C365.6,444.15,365,444.79,365,446Z"/><path class="cls-2" d="M371.08,443.85a1.18,1.18,0,0,1,2.36,0,1.18,1.18,0,1,1-2.36,0Zm.22,3.08h1.92v10.61H371.3Z"/><path class="cls-2" d="M386.72,451.43v6.11H384.8v-5.89c0-2.08-1-3.1-2.86-3.1-2,0-3.36,1.22-3.36,3.52v5.47h-1.92V446.93h1.84v1.6a4.54,4.54,0,0,1,3.82-1.7C384.9,446.83,386.72,448.31,386.72,451.43Z"/><path class="cls-2" d="M389.38,451.21h5.38v1.66h-5.38Z"/><path class="cls-2" d="M56.76,466.69v14.85H54.92v-1.69a4.46,4.46,0,0,1-3.78,1.81,5.42,5.42,0,0,1,0-10.83,4.51,4.51,0,0,1,3.7,1.7v-5.84Zm-1.9,9.54A3.57,3.57,0,1,0,51.3,480,3.49,3.49,0,0,0,54.86,476.23Z"/><path class="cls-2" d="M70,476.23a5.19,5.19,0,0,1-5.32,5.41,5.12,5.12,0,0,1-5.25-5.47c0-.16,0-.4,0-.58h8.61a3.59,3.59,0,0,0-3.84-3.1,4,4,0,0,0-3.07,1.28l-1.06-1.24a5.33,5.33,0,0,1,4.19-1.72C67.7,470.81,70,473.07,70,476.23Zm-1.92.74h-6.8a3.42,3.42,0,0,0,6.8,0Z"/><path class="cls-2" d="M82.7,475.43v6.11H80.78v-5.89c0-2.08-1-3.1-2.86-3.1-2,0-3.36,1.22-3.36,3.52v5.47H72.63V470.93h1.85v1.6a4.54,4.54,0,0,1,3.82-1.7C80.88,470.83,82.7,472.31,82.7,475.43Z"/><path class="cls-2" d="M91.75,474.53a7.08,7.08,0,0,1,7.42-7.16,6.92,6.92,0,0,1,5.32,2.18l-1.3,1.26a5.19,5.19,0,0,0-3.94-1.66,5.39,5.39,0,1,0,0,10.77,5.18,5.18,0,0,0,3.94-1.69l1.3,1.27a7,7,0,0,1-5.34,2.2A7.08,7.08,0,0,1,91.75,474.53Z"/><path class="cls-2" d="M119.37,467.53l-6.14,14h-2l-6.16-14h2.16l5,11.5,5.08-11.5Z"/><path class="cls-2" d="M120.61,467.53h1.68l-.14,5.4h-1.42Z"/><path class="cls-2" d="M135.43,475.43v6.11h-1.92v-5.89c0-2.08-1-3.1-2.86-3.1-2,0-3.36,1.22-3.36,3.52v5.47h-1.92V470.93h1.84v1.6a4.54,4.54,0,0,1,3.82-1.7C133.61,470.83,135.43,472.31,135.43,475.43Z"/><path class="cls-2" d="M138.77,467.85a1.18,1.18,0,0,1,2.36,0,1.18,1.18,0,1,1-2.36,0Zm.22,3.08h1.92v10.61H139Z"/><path class="cls-2" d="M152.43,480v1.58h-8.88V480.3l6.26-7.79h-6.14v-1.58h8.6v1.26L146,480Z"/><path class="cls-2" d="M154.77,467.85a1.18,1.18,0,0,1,2.36,0,1.18,1.18,0,1,1-2.36,0Zm.22,3.08h1.92v10.61H155Z"/><path class="cls-2" d="M176.93,470.93v14.49H175v-5.49a4.51,4.51,0,0,1-3.7,1.73,5.42,5.42,0,0,1,0-10.83,4.51,4.51,0,0,1,3.78,1.78v-1.68Zm-1.9,5.3a3.57,3.57,0,1,0-3.56,3.74A3.5,3.5,0,0,0,175,476.23Z"/><path class="cls-2" d="M190.45,470.93v10.61h-1.82v-1.61a4.29,4.29,0,0,1-3.6,1.73c-2.74,0-4.56-1.5-4.56-4.63v-6.1h1.92v5.88c0,2.08,1,3.12,2.86,3.12,2,0,3.28-1.24,3.28-3.52v-5.48Z"/><path class="cls-2" d="M199.81,470.83v1.86a3.39,3.39,0,0,0-.44,0c-2.06,0-3.34,1.26-3.34,3.58v5.29h-1.92V470.93H196v1.78C196.63,471.47,198,470.83,199.81,470.83Z"/><path class="cls-2" d="M212.19,470.93v10.61h-1.82v-1.61a4.29,4.29,0,0,1-3.6,1.73c-2.74,0-4.56-1.5-4.56-4.63v-6.1h1.92v5.88c0,2.08,1,3.12,2.86,3.12,2,0,3.28-1.24,3.28-3.52v-5.48Z"/><path class="cls-2" d="M215.85,466.69h1.92v14.85h-1.92Z"/><path class="cls-2" d="M231.31,470.93v10.61h-1.82v-1.61a4.29,4.29,0,0,1-3.6,1.73c-2.74,0-4.56-1.5-4.56-4.63v-6.1h1.92v5.88c0,2.08,1,3.12,2.86,3.12,2,0,3.28-1.24,3.28-3.52v-5.48Z"/><path class="cls-2" d="M238.59,481.64l-.24.9c1.16.12,1.74.78,1.74,1.66,0,1.12-1,1.82-2.48,1.82a3.36,3.36,0,0,1-1.78-.44l.42-1a2.64,2.64,0,0,0,1.36.34c.76,0,1.12-.3,1.12-.8s-.34-.78-1.14-.78h-.54l.44-1.72a7.17,7.17,0,0,1-3.86-1.22l.8-1.53a6.73,6.73,0,0,0,3.72,1.11c1.78,0,2.52-.54,2.52-1.44,0-2.39-6.7-.33-6.7-4.55,0-1.9,1.7-3.18,4.42-3.18a7.71,7.71,0,0,1,3.86,1l-.82,1.52a5.54,5.54,0,0,0-3.06-.84c-1.68,0-2.5.62-2.5,1.46,0,2.5,6.72.46,6.72,4.58C242.59,480.3,241.07,481.48,238.59,481.64Z"/><path class="cls-2" d="M260.73,470.93l-4.64,10.61h-2l-4.64-10.61h2l3.65,8.5,3.72-8.5Z"/><path class="cls-2" d="M271.81,476.23a5.2,5.2,0,0,1-5.33,5.41,5.12,5.12,0,0,1-5.24-5.47c0-.16,0-.4,0-.58h8.61a3.6,3.6,0,0,0-3.84-3.1,4,4,0,0,0-3.07,1.28l-1.06-1.24a5.32,5.32,0,0,1,4.18-1.72C269.53,470.81,271.81,473.07,271.81,476.23Zm-1.92.74h-6.81a3.43,3.43,0,0,0,6.81,0Z"/><path class="cls-2" d="M283,470v.92h3.08v1.58h-3v9H281.1v-9h-1.8v-1.58h1.8V470a3.19,3.19,0,0,1,3.5-3.42,3.58,3.58,0,0,1,2.16.62l-.58,1.46a2.49,2.49,0,0,0-1.48-.5C283.56,468.15,283,468.79,283,470Z"/><path class="cls-2" d="M286.74,476.23a5.51,5.51,0,1,1,5.52,5.43A5.27,5.27,0,0,1,286.74,476.23Zm9.08,0a3.57,3.57,0,1,0-3.56,3.74A3.48,3.48,0,0,0,295.82,476.23Z"/><path class="cls-2" d="M306.12,470.83v1.86a3.39,3.39,0,0,0-.44,0c-2.06,0-3.34,1.26-3.34,3.58v5.29h-1.92V470.93h1.84v1.78C302.94,471.47,304.26,470.83,306.12,470.83Z"/><path class="cls-2" d="M326.08,475.43v6.11h-1.92v-5.89c0-2.08-1-3.1-2.74-3.1-1.92,0-3.18,1.22-3.18,3.52v5.47h-1.92v-5.89c0-2.08-1-3.1-2.74-3.1-1.92,0-3.18,1.22-3.18,3.52v5.47h-1.92V470.93h1.84v1.58a4.3,4.3,0,0,1,3.66-1.68,3.92,3.92,0,0,1,3.68,2,4.78,4.78,0,0,1,4.08-2C324.32,470.83,326.08,472.31,326.08,475.43Z"/><path class="cls-2" d="M338,475.13v6.41H336.2v-1.4a3.93,3.93,0,0,1-3.48,1.52c-2.4,0-3.92-1.28-3.92-3.13,0-1.7,1.1-3.1,4.26-3.1h3v-.38c0-1.62-.94-2.56-2.84-2.56a5.36,5.36,0,0,0-3.36,1.14l-.8-1.44a7.06,7.06,0,0,1,4.38-1.36C336.38,470.83,338,472.23,338,475.13Zm-1.92,3.17v-1.49h-3c-1.9,0-2.44.75-2.44,1.64,0,1.06.88,1.73,2.34,1.73A3.09,3.09,0,0,0,336.1,478.3Z"/><path class="cls-2" d="M358.92,476.23a5.17,5.17,0,0,1-5.36,5.43,4.46,4.46,0,0,1-3.78-1.81v1.69h-1.84V466.69h1.92v5.84a4.51,4.51,0,0,1,3.7-1.7A5.14,5.14,0,0,1,358.92,476.23Zm-1.94,0A3.57,3.57,0,1,0,353.4,480,3.49,3.49,0,0,0,357,476.23Z"/><path class="cls-2" d="M369.88,475.13v6.41h-1.82v-1.4a3.93,3.93,0,0,1-3.48,1.52c-2.4,0-3.92-1.28-3.92-3.13,0-1.7,1.1-3.1,4.26-3.1h3v-.38c0-1.62-.94-2.56-2.84-2.56a5.36,5.36,0,0,0-3.36,1.14l-.8-1.44a7.06,7.06,0,0,1,4.38-1.36C368.24,470.83,369.88,472.23,369.88,475.13ZM368,478.3v-1.49h-3c-1.9,0-2.44.75-2.44,1.64,0,1.06.88,1.73,2.34,1.73A3.09,3.09,0,0,0,368,478.3Z"/><path class="cls-2" d="M380.2,481.54l-3.06-4.07-3.1,4.07H371.9l4.18-5.43-4-5.18h2.14l2.92,3.82,2.9-3.82h2.1l-4,5.18,4.22,5.43Z"/><path class="cls-2" d="M384.48,470.93h1.92v10.61h-1.92Z"/><path class="cls-2" d="M389.38,475.21h5.38v1.66h-5.38Z"/><path class="cls-2" d="M64.36,499.43v6.11H62.44v-5.89c0-2.08-1-3.1-2.74-3.1-1.92,0-3.18,1.22-3.18,3.52v5.47H54.6v-5.89c0-2.08-1-3.1-2.74-3.1-1.92,0-3.18,1.22-3.18,3.52v5.47H46.76V494.93H48.6v1.58a4.3,4.3,0,0,1,3.66-1.68,3.92,3.92,0,0,1,3.68,2,4.78,4.78,0,0,1,4.08-2C62.6,494.83,64.36,496.31,64.36,499.43Z"/><path class="cls-2" d="M67.89,494.93h1.93v10.61H67.89Z"/><path class="cls-2" d="M83.54,499.43v6.11H81.62v-5.89c0-2.08-1-3.1-2.86-3.1-2,0-3.36,1.22-3.36,3.52v5.47H73.47V494.93h1.85v1.6a4.54,4.54,0,0,1,3.82-1.7C81.72,494.83,83.54,496.31,83.54,499.43Z"/><path class="cls-2" d="M97.16,490.69v14.85H95.32v-1.69a4.46,4.46,0,0,1-3.78,1.81,5.42,5.42,0,0,1,0-10.83,4.51,4.51,0,0,1,3.7,1.7v-5.84Zm-1.9,9.54A3.58,3.58,0,1,0,91.7,504,3.49,3.49,0,0,0,95.26,500.23Z"/><path class="cls-2" d="M109.2,499.13v6.41h-1.82v-1.4a4,4,0,0,1-3.49,1.52c-2.4,0-3.92-1.28-3.92-3.13,0-1.7,1.1-3.1,4.26-3.1h3v-.38c0-1.62-.94-2.56-2.85-2.56a5.36,5.36,0,0,0-3.36,1.14l-.8-1.44a7.07,7.07,0,0,1,4.39-1.36C107.56,494.83,109.2,496.23,109.2,499.13Zm-1.92,3.17v-1.49h-3c-1.9,0-2.44.75-2.44,1.64,0,1.06.89,1.73,2.35,1.73A3.09,3.09,0,0,0,107.28,502.3Z"/><path class="cls-2" d="M122.82,499.43v6.11H120.9v-5.89c0-2.08-1-3.1-2.86-3.1-2,0-3.37,1.22-3.37,3.52v5.47h-1.92V494.93h1.84v1.6a4.56,4.56,0,0,1,3.83-1.7C121,494.83,122.82,496.31,122.82,499.43Z"/><path class="cls-2" d="M142.65,494.93v9.17c0,3.74-1.9,5.44-5.5,5.44a7.85,7.85,0,0,1-5.06-1.58l.92-1.48a6.47,6.47,0,0,0,4.08,1.38c2.5,0,3.64-1.16,3.64-3.56v-.84a4.85,4.85,0,0,1-3.82,1.64,5.14,5.14,0,1,1,0-10.27,4.84,4.84,0,0,1,3.92,1.74v-1.64Zm-1.88,5a3.66,3.66,0,0,0-7.3,0,3.65,3.65,0,0,0,7.3,0Z"/><path class="cls-2" d="M156.19,494.93v10.61h-1.82v-1.61a4.29,4.29,0,0,1-3.6,1.73c-2.74,0-4.56-1.5-4.56-4.63v-6.1h1.92v5.88c0,2.08,1,3.12,2.86,3.12,2,0,3.28-1.24,3.28-3.52v-5.48Zm-7.86-2.9a1,1,0,1,1,2,0,1,1,0,0,1-2,0Zm3.72,0a1,1,0,1,1,2,0,1,1,0,0,1-2,0Z"/><path class="cls-2" d="M158.87,500.23a5.3,5.3,0,0,1,5.6-5.4,4.73,4.73,0,0,1,4.32,2.26l-1.46.94a3.3,3.3,0,0,0-2.88-1.52,3.73,3.73,0,0,0,0,7.46,3.28,3.28,0,0,0,2.88-1.52l1.46.93a4.74,4.74,0,0,1-4.32,2.28A5.32,5.32,0,0,1,158.87,500.23Z"/><path class="cls-2" d="M171.13,490.69h1.92v14.85h-1.92Z"/><path class="cls-2" d="M186.29,500.23a5.19,5.19,0,0,1-5.32,5.41,5.12,5.12,0,0,1-5.24-5.47c0-.16,0-.4,0-.58h8.6a3.59,3.59,0,0,0-3.84-3.1,4,4,0,0,0-3.06,1.28l-1.06-1.24a5.32,5.32,0,0,1,4.18-1.72C184,494.81,186.29,497.07,186.29,500.23Zm-1.92.74h-6.8a3.42,3.42,0,0,0,6.8,0Z"/><path class="cls-2" d="M199,499.43v6.11h-1.92v-5.89c0-2.08-1-3.1-2.86-3.1-2,0-3.36,1.22-3.36,3.52v5.47H189V494.93h1.84v1.6a4.54,4.54,0,0,1,3.82-1.7C197.19,494.83,199,496.31,199,499.43Z"/><path class="cls-2" d="M212.63,490.69v14.85h-1.84v-1.69a4.46,4.46,0,0,1-3.78,1.81,5.42,5.42,0,0,1,0-10.83,4.51,4.51,0,0,1,3.7,1.7v-5.84Zm-1.9,9.54a3.57,3.57,0,1,0-3.56,3.74A3.49,3.49,0,0,0,210.73,500.23Z"/><path class="cls-2" d="M216.05,491.85a1.18,1.18,0,0,1,2.36,0,1.18,1.18,0,1,1-2.36,0Zm.22,3.08h1.92v10.61h-1.92Z"/><path class="cls-2" d="M227.55,494.83v1.86a3.39,3.39,0,0,0-.44,0c-2.06,0-3.34,1.26-3.34,3.58v5.29h-1.92V494.93h1.84v1.78C224.37,495.47,225.69,494.83,227.55,494.83Z"/><path class="cls-2" d="M229.69,491.85a1.18,1.18,0,0,1,2.36,0,1.18,1.18,0,1,1-2.36,0Zm.22,3.08h1.92v10.61h-1.92Z"/><path class="cls-2" d="M246.47,500.23a5.17,5.17,0,0,1-5.36,5.43,4.46,4.46,0,0,1-3.78-1.81v1.69h-1.84V490.69h1.92v5.84a4.51,4.51,0,0,1,3.7-1.7A5.14,5.14,0,0,1,246.47,500.23Zm-1.94,0A3.57,3.57,0,1,0,241,504,3.49,3.49,0,0,0,244.53,500.23Z"/><path class="cls-2" d="M250.67,504.27a4.09,4.09,0,0,1-.34,1.45l-.94,2.78h-1.26l.74-3a1.28,1.28,0,0,1-.84-1.25,1.3,1.3,0,0,1,1.34-1.35A1.29,1.29,0,0,1,250.67,504.27Z"/><path class="cls-2" d="M258.58,500.23a5.51,5.51,0,1,1,5.52,5.43A5.27,5.27,0,0,1,258.58,500.23Zm9.08,0A3.57,3.57,0,1,0,264.1,504,3.48,3.48,0,0,0,267.66,500.23ZM261.2,492a1,1,0,1,1,2,0,1,1,0,0,1-2,0Zm3.72,0a1,1,0,1,1,2,0,1,1,0,0,1-2,0Z"/><path class="cls-2" d="M280,504v1.58h-8.88V504.3l6.26-7.79H271.2v-1.58h8.6v1.26L273.54,504Z"/><path class="cls-2" d="M291.94,500.23a5.19,5.19,0,0,1-5.32,5.41,5.12,5.12,0,0,1-5.24-5.47c0-.16,0-.4,0-.58H290a3.59,3.59,0,0,0-3.84-3.1,4,4,0,0,0-3.06,1.28l-1.06-1.24a5.32,5.32,0,0,1,4.18-1.72C289.66,494.81,291.94,497.07,291.94,500.23ZM290,501h-6.8a3.42,3.42,0,0,0,6.8,0Z"/><path class="cls-2" d="M294.6,490.69h1.92v14.85H294.6Z"/><path class="cls-2" d="M316.32,490.69v14.85h-1.84v-1.69a4.46,4.46,0,0,1-3.78,1.81,5.42,5.42,0,0,1,0-10.83,4.51,4.51,0,0,1,3.7,1.7v-5.84Zm-1.9,9.54a3.57,3.57,0,1,0-3.56,3.74A3.49,3.49,0,0,0,314.42,500.23Z"/><path class="cls-2" d="M319.74,491.85a1.18,1.18,0,1,1,2.36,0,1.18,1.18,0,1,1-2.36,0Zm.22,3.08h1.92v10.61H320Z"/><path class="cls-2" d="M333.4,504v1.58h-8.89V504.3l6.27-7.79h-6.15v-1.58h8.61v1.26L327,504Z"/><path class="cls-2" d="M344.36,499.13v6.41h-1.82v-1.4a3.93,3.93,0,0,1-3.48,1.52c-2.4,0-3.93-1.28-3.93-3.13,0-1.7,1.11-3.1,4.27-3.1h3v-.38c0-1.62-.94-2.56-2.84-2.56a5.36,5.36,0,0,0-3.36,1.14l-.81-1.44a7.11,7.11,0,0,1,4.39-1.36C342.72,494.83,344.36,496.23,344.36,499.13Zm-1.92,3.17v-1.49h-3c-1.9,0-2.44.75-2.44,1.64,0,1.06.88,1.73,2.34,1.73A3.09,3.09,0,0,0,342.44,502.3Z"/><path class="cls-2" d="M357.1,494.93,352,506.6c-.94,2.24-2.16,2.94-3.79,2.94a4,4,0,0,1-2.72-1l.82-1.44a2.75,2.75,0,0,0,1.9.78c.93,0,1.51-.42,2-1.64l.34-.74-4.69-10.59h2l3.71,8.49,3.66-8.49Z"/><path class="cls-2" d="M369,499.43v6.11H367v-5.89c0-2.08-1-3.1-2.86-3.1-2,0-3.36,1.22-3.36,3.52v5.47h-1.93V494.93h1.85v1.6a4.54,4.54,0,0,1,3.82-1.7C367.14,494.83,369,496.31,369,499.43Z"/><path class="cls-2" d="M372.51,490.69h1.93v14.85h-1.93Z"/><path class="cls-2" d="M386.5,499.13v6.41h-1.82v-1.4a3.93,3.93,0,0,1-3.48,1.52c-2.4,0-3.93-1.28-3.93-3.13,0-1.7,1.11-3.1,4.27-3.1h3v-.38c0-1.62-.94-2.56-2.84-2.56a5.36,5.36,0,0,0-3.36,1.14l-.81-1.44a7.09,7.09,0,0,1,4.39-1.36C384.86,494.83,386.5,496.23,386.5,499.13Zm-1.92,3.17v-1.49h-3c-1.9,0-2.45.75-2.45,1.64,0,1.06.89,1.73,2.35,1.73A3.09,3.09,0,0,0,384.58,502.3Z"/><path class="cls-2" d="M389.38,499.21h5.38v1.66h-5.38Z"/><path class="cls-2" d="M52.46,518.83v1.86a3.39,3.39,0,0,0-.44,0c-2.06,0-3.34,1.26-3.34,3.58v5.29H46.76V518.93H48.6v1.78C49.28,519.47,50.6,518.83,52.46,518.83Z"/><path class="cls-2" d="M54.63,518.93h1.92v10.61H54.63Z"/><path class="cls-2" d="M77.63,523.43v6.11H75.72v-5.89c0-2.08-1-3.1-2.75-3.1-1.92,0-3.18,1.22-3.18,3.52v5.47H67.87v-5.89c0-2.08-1-3.1-2.74-3.1-1.92,0-3.18,1.22-3.18,3.52v5.47H60V518.93h1.84v1.58a4.3,4.3,0,0,1,3.66-1.68,3.92,3.92,0,0,1,3.68,2,4.78,4.78,0,0,1,4.08-2C75.88,518.83,77.63,520.31,77.63,523.43Z"/><path class="cls-2" d="M81,518.93h1.92v10.61H81Z"/><path class="cls-2" d="M94.25,528v1.58H85.37V528.3l6.26-7.79H85.49v-1.58h8.6v1.26L87.83,528Z"/><path class="cls-2" d="M100.89,515.85a1.18,1.18,0,1,1,2.36,0,1.18,1.18,0,1,1-2.36,0Zm.22,3.08H103v10.61h-1.92Z"/><path class="cls-2" d="M106.51,514.69h1.92v14.85h-1.92Z"/><path class="cls-2" d="M121.49,524.23a5.19,5.19,0,0,1-5.32,5.41,5.12,5.12,0,0,1-5.24-5.47c0-.16,0-.4,0-.58h8.6a3.59,3.59,0,0,0-3.84-3.1,4,4,0,0,0-3.06,1.28l-1.06-1.24a5.32,5.32,0,0,1,4.18-1.72C119.21,518.81,121.49,521.07,121.49,524.23Zm-1.92.74h-6.8a3.42,3.42,0,0,0,6.8,0Z"/><path class="cls-2" d="M128.23,515.85a1.18,1.18,0,1,1,2.36,0,1.18,1.18,0,1,1-2.36,0Zm.22,3.08h1.92v10.61h-1.92Z"/><path class="cls-2" d="M137.47,529.64l-.24.9c1.16.12,1.74.78,1.74,1.66,0,1.12-1,1.82-2.48,1.82a3.36,3.36,0,0,1-1.78-.44l.42-1a2.64,2.64,0,0,0,1.36.34c.76,0,1.12-.3,1.12-.8s-.34-.78-1.14-.78h-.54l.44-1.72a7.17,7.17,0,0,1-3.86-1.22l.8-1.53A6.73,6.73,0,0,0,137,528c1.78,0,2.52-.54,2.52-1.44,0-2.39-6.7-.33-6.7-4.55,0-1.9,1.7-3.18,4.42-3.18a7.71,7.71,0,0,1,3.86,1l-.82,1.52a5.54,5.54,0,0,0-3.06-.84c-1.68,0-2.5.62-2.5,1.46,0,2.5,6.72.46,6.72,4.58C141.47,528.3,140,529.48,137.47,529.64Z"/><path class="cls-2" d="M165.78,523.43v6.11h-1.92v-5.89c0-2.08-1-3.1-2.74-3.1-1.92,0-3.18,1.22-3.18,3.52v5.47H156v-5.89c0-2.08-1-3.1-2.74-3.1-1.93,0-3.19,1.22-3.19,3.52v5.47h-1.92V518.93H150v1.58a4.31,4.31,0,0,1,3.66-1.68,3.93,3.93,0,0,1,3.69,2,4.78,4.78,0,0,1,4.08-2C164,518.83,165.78,520.31,165.78,523.43Z"/><path class="cls-2" d="M179,518.93v10.61h-1.82v-1.61a4.29,4.29,0,0,1-3.6,1.73c-2.74,0-4.56-1.5-4.56-4.63v-6.1H171v5.88c0,2.08,1,3.12,2.86,3.12,2,0,3.28-1.24,3.28-3.52v-5.48Zm-7.86-2.9a1,1,0,1,1,2,0,1,1,0,0,1-2,0Zm3.72,0a1,1,0,1,1,2,0,1,1,0,0,1-2,0Z"/><path class="cls-2" d="M188.19,518.83v1.86a3.39,3.39,0,0,0-.44,0c-2.06,0-3.34,1.26-3.34,3.58v5.29h-1.92V518.93h1.84v1.78C185,519.47,186.33,518.83,188.19,518.83Z"/><path class="cls-2" d="M198.75,523.13v6.41h-1.82v-1.4a3.93,3.93,0,0,1-3.48,1.52c-2.4,0-3.92-1.28-3.92-3.13,0-1.7,1.1-3.1,4.26-3.1h3v-.38c0-1.62-.94-2.56-2.84-2.56a5.36,5.36,0,0,0-3.36,1.14l-.8-1.44a7.06,7.06,0,0,1,4.38-1.36C197.11,518.83,198.75,520.23,198.75,523.13Zm-1.92,3.17v-1.49h-3c-1.9,0-2.44.75-2.44,1.64,0,1.06.88,1.73,2.34,1.73A3.09,3.09,0,0,0,196.83,526.3Z"/><path class="cls-2" d="M201.2,524.23a5.3,5.3,0,0,1,5.61-5.4,4.73,4.73,0,0,1,4.32,2.26l-1.46.94a3.3,3.3,0,0,0-2.88-1.52,3.73,3.73,0,0,0,0,7.46,3.28,3.28,0,0,0,2.88-1.52l1.46.93a4.74,4.74,0,0,1-4.32,2.28A5.33,5.33,0,0,1,201.2,524.23Z"/><path class="cls-2" d="M213.2,515.85a1.18,1.18,0,1,1,2.36,0,1.18,1.18,0,1,1-2.36,0Zm.22,3.08h1.92v10.61h-1.92Z"/><path class="cls-2" d="M228.4,524.23a5.19,5.19,0,0,1-5.32,5.41,5.12,5.12,0,0,1-5.24-5.47c0-.16,0-.4,0-.58h8.6a3.59,3.59,0,0,0-3.84-3.1,4,4,0,0,0-3.06,1.28l-1.06-1.24a5.32,5.32,0,0,1,4.18-1.72C226.12,518.81,228.4,521.07,228.4,524.23Zm-1.92.74h-6.8a3.42,3.42,0,0,0,6.8,0Z"/><path class="cls-2" d="M236.84,528.92a3.62,3.62,0,0,1-2.32.74,3,3,0,0,1-3.36-3.32v-5.83h-1.8v-1.58h1.8v-2.32h1.92v2.32h3v1.58h-3v5.75a1.57,1.57,0,0,0,1.66,1.78,2.48,2.48,0,0,0,1.5-.5Z"/><path class="cls-2" d="M239,514.69h1.92v14.85H239Z"/><path class="cls-2" d="M254,524.23a5.19,5.19,0,0,1-5.32,5.41,5.13,5.13,0,0,1-5.25-5.47c0-.16,0-.4,0-.58H252a3.59,3.59,0,0,0-3.84-3.1,4,4,0,0,0-3.07,1.28l-1-1.24a5.32,5.32,0,0,1,4.18-1.72C251.68,518.81,254,521.07,254,524.23ZM252,525h-6.8a3.42,3.42,0,0,0,6.8,0Z"/><path class="cls-2" d="M262.13,518.83v1.86a3.31,3.31,0,0,0-.44,0c-2.06,0-3.34,1.26-3.34,3.58v5.29h-1.92V518.93h1.84v1.78C259,519.47,260.27,518.83,262.13,518.83Z"/><path class="cls-2" d="M264.09,515.85a1.18,1.18,0,1,1,2.36,0,1.18,1.18,0,1,1-2.36,0Zm.22,3.08h1.92v10.61h-1.92Z"/><path class="cls-2" d="M279.77,523.43v6.11h-1.92v-5.89c0-2.08-1-3.1-2.86-3.1-2,0-3.36,1.22-3.36,3.52v5.47h-1.92V518.93h1.84v1.6a4.54,4.54,0,0,1,3.82-1.7C278,518.83,279.77,520.31,279.77,523.43Z"/><path class="cls-2" d="M293.21,514.69v14.85h-1.84v-1.69a4.46,4.46,0,0,1-3.78,1.81,5.42,5.42,0,0,1,0-10.83,4.51,4.51,0,0,1,3.7,1.7v-5.84Zm-1.9,9.54a3.57,3.57,0,1,0-3.56,3.74A3.49,3.49,0,0,0,291.31,524.23Z"/><path class="cls-2" d="M306.25,524.23a5.19,5.19,0,0,1-5.32,5.41,5.12,5.12,0,0,1-5.24-5.47c0-.16,0-.4,0-.58h8.6a3.59,3.59,0,0,0-3.84-3.1,4,4,0,0,0-3.06,1.28l-1.06-1.24a5.32,5.32,0,0,1,4.18-1.72C304,518.81,306.25,521.07,306.25,524.23Zm-1.92.74h-6.8a3.42,3.42,0,0,0,6.8,0Z"/><path class="cls-2" d="M323.09,518.93v10.61h-1.82v-1.61a4.29,4.29,0,0,1-3.6,1.73c-2.74,0-4.56-1.5-4.56-4.63v-6.1H315v5.88c0,2.08,1,3.12,2.86,3.12,2,0,3.28-1.24,3.28-3.52v-5.48Zm-7.86-2.9a1,1,0,1,1,2,0,1,1,0,0,1-2,0Zm3.72,0a1,1,0,1,1,2,0,1,1,0,1,1-2,0Z"/><path class="cls-2" d="M325.23,528.42l.8-1.53a6.73,6.73,0,0,0,3.72,1.11c1.78,0,2.52-.54,2.52-1.44,0-2.39-6.7-.33-6.7-4.55,0-1.9,1.7-3.18,4.42-3.18a7.71,7.71,0,0,1,3.86,1l-.82,1.52a5.54,5.54,0,0,0-3.06-.84c-1.68,0-2.5.62-2.5,1.46,0,2.5,6.72.46,6.72,4.58,0,1.92-1.76,3.15-4.58,3.15A7.65,7.65,0,0,1,325.23,528.42Z"/><path class="cls-2" d="M342.37,528.92a3.62,3.62,0,0,1-2.32.74,3,3,0,0,1-3.36-3.32v-5.83h-1.8v-1.58h1.8v-2.32h1.92v2.32h3v1.58h-3v5.75a1.57,1.57,0,0,0,1.66,1.78,2.48,2.48,0,0,0,1.5-.5Z"/><path class="cls-2" d="M354.39,518.93v10.61h-1.82v-1.61a4.29,4.29,0,0,1-3.6,1.73c-2.75,0-4.57-1.5-4.57-4.63v-6.1h1.92v5.88c0,2.08,1,3.12,2.86,3.12,2,0,3.29-1.24,3.29-3.52v-5.48Zm-7.87-2.9a1,1,0,1,1,2,0,1,1,0,1,1-2,0Zm3.73,0a1,1,0,1,1,2,0,1,1,0,1,1-2,0Z"/><path class="cls-2" d="M367.92,523.43v6.11H366v-5.89c0-2.08-1-3.1-2.86-3.1-2,0-3.36,1.22-3.36,3.52v5.47h-1.92V518.93h1.84v1.6a4.54,4.54,0,0,1,3.82-1.7C366.1,518.83,367.92,520.31,367.92,523.43Z"/><path class="cls-2" d="M371.3,514.69h1.92v14.85H371.3Z"/><path class="cls-2" d="M386.58,518.93v10.61h-1.82v-1.61a4.29,4.29,0,0,1-3.6,1.73c-2.74,0-4.56-1.5-4.56-4.63v-6.1h1.92v5.88c0,2.08,1,3.12,2.86,3.12,2,0,3.28-1.24,3.28-3.52v-5.48Zm-7.86-2.9a1,1,0,1,1,2,0,1,1,0,0,1-2,0Zm3.72,0a1,1,0,1,1,2,0,1,1,0,1,1-2,0Z"/><path class="cls-2" d="M389.38,523.21h5.38v1.66h-5.38Z"/><path class="cls-2" d="M56.14,542.93,51,554.6c-.94,2.24-2.16,2.94-3.78,2.94a4,4,0,0,1-2.73-1l.82-1.44a2.75,2.75,0,0,0,1.91.78c.91,0,1.5-.42,2-1.64l.34-.74-4.69-10.59h2l3.71,8.49,3.66-8.49Z"/><path class="cls-2" d="M67.82,542.93v10.61H66v-1.61a4.29,4.29,0,0,1-3.6,1.73c-2.74,0-4.56-1.5-4.56-4.63v-6.1h1.92v5.88c0,2.08,1,3.12,2.86,3.12,2,0,3.28-1.24,3.28-3.52v-5.48ZM60,540a1,1,0,1,1,2,0,1,1,0,0,1-2,0Zm3.72,0a1,1,0,1,1,2,0,1,1,0,1,1-2,0Z"/><path class="cls-2" d="M81.54,547.43v6.11H79.62v-5.89c0-2.08-1-3.1-2.86-3.1-2,0-3.36,1.22-3.36,3.52v5.47H71.47V542.93h1.85v1.6a4.54,4.54,0,0,1,3.82-1.7C79.72,542.83,81.54,544.31,81.54,547.43Z"/><path class="cls-2" d="M95,542.93v10.61H93.16v-1.61a4.29,4.29,0,0,1-3.6,1.73c-2.74,0-4.56-1.5-4.56-4.63v-6.1h1.92v5.88c0,2.08,1,3.12,2.86,3.12,2,0,3.28-1.24,3.28-3.52v-5.48ZM87.12,540a1,1,0,1,1,2,0,1,1,0,0,1-2,0Zm3.72,0a1,1,0,1,1,2,0,1,1,0,0,1-2,0Z"/><path class="cls-2" d="M106.5,552v1.58H97.61V552.3l6.27-7.79H97.73v-1.58h8.61v1.26L100.08,552Z"/><path class="cls-2" d="M118.94,542.93v10.61h-1.82v-1.61a4.29,4.29,0,0,1-3.6,1.73c-2.74,0-4.56-1.5-4.56-4.63v-6.1h1.92v5.88c0,2.08,1,3.12,2.86,3.12,2,0,3.28-1.24,3.28-3.52v-5.48Zm-7.86-2.9a1,1,0,1,1,2,0,1,1,0,0,1-2,0Zm3.72,0a1,1,0,1,1,2,0,1,1,0,0,1-2,0Z"/><path class="cls-2" d="M127,548.23a5.52,5.52,0,1,1,5.53,5.43A5.28,5.28,0,0,1,127,548.23Zm9.09,0a3.58,3.58,0,1,0-7.15,0,3.58,3.58,0,1,0,7.15,0Z"/><path class="cls-2" d="M146.38,542.83v1.86a3.39,3.39,0,0,0-.44,0c-2.06,0-3.34,1.26-3.34,3.58v5.29h-1.93V542.93h1.85v1.78C143.2,543.47,144.52,542.83,146.38,542.83Z"/><path class="cls-2" d="M155.14,552.92a3.62,3.62,0,0,1-2.32.74,3,3,0,0,1-3.36-3.32v-5.83h-1.81v-1.58h1.81v-2.32h1.92v2.32h3v1.58h-3v5.75A1.57,1.57,0,0,0,153,552a2.48,2.48,0,0,0,1.5-.5Z"/><path class="cls-2" d="M165.86,547.13v6.41H164v-1.4a3.94,3.94,0,0,1-3.49,1.52c-2.4,0-3.92-1.28-3.92-3.13,0-1.7,1.1-3.1,4.26-3.1h3.05v-.38c0-1.62-.94-2.56-2.85-2.56a5.38,5.38,0,0,0-3.36,1.14l-.8-1.44a7.07,7.07,0,0,1,4.39-1.36C164.22,542.83,165.86,544.23,165.86,547.13Zm-1.92,3.17v-1.49h-3c-1.9,0-2.44.75-2.44,1.64,0,1.06.89,1.73,2.35,1.73A3.09,3.09,0,0,0,163.94,550.3Z"/><path class="cls-2" d="M178.6,542.93l-5.14,11.67c-.94,2.24-2.16,2.94-3.79,2.94a4,4,0,0,1-2.72-1l.82-1.44a2.75,2.75,0,0,0,1.9.78c.93,0,1.51-.42,2-1.64l.34-.74-4.69-10.59h2l3.71,8.49,3.66-8.49Z"/><path class="cls-2" d="M188.46,547.13v6.41h-1.83v-1.4a3.92,3.92,0,0,1-3.48,1.52c-2.4,0-3.92-1.28-3.92-3.13,0-1.7,1.1-3.1,4.26-3.1h3v-.38c0-1.62-.95-2.56-2.85-2.56a5.36,5.36,0,0,0-3.36,1.14l-.8-1.44a7.07,7.07,0,0,1,4.39-1.36C186.82,542.83,188.46,544.23,188.46,547.13Zm-1.92,3.17v-1.49h-3c-1.9,0-2.44.75-2.44,1.64,0,1.06.88,1.73,2.34,1.73A3.1,3.1,0,0,0,186.54,550.3Z"/><path class="cls-2" d="M204.88,550.45l1.46.93a4.72,4.72,0,0,1-4.29,2.28l-.24.88c1.16.12,1.74.78,1.74,1.66,0,1.12-1,1.82-2.48,1.82a3.36,3.36,0,0,1-1.78-.44l.42-1a2.64,2.64,0,0,0,1.36.34c.77,0,1.12-.3,1.12-.8s-.34-.78-1.14-.78h-.54l.46-1.78a5.41,5.41,0,0,1,1-10.75,4.73,4.73,0,0,1,4.33,2.26l-1.46.94a3.31,3.31,0,0,0-2.89-1.52,3.73,3.73,0,0,0,0,7.46A3.29,3.29,0,0,0,204.88,550.45Z"/><path class="cls-2" d="M208.81,542.93h1.92v10.61h-1.92Z"/><path class="cls-2" d="M221.16,553.54l-3.07-4.07-3.1,4.07h-2.14l4.18-5.43-4-5.18h2.14l2.92,3.82,2.9-3.82h2.11l-4,5.18,4.23,5.43Z"/><path class="cls-2" d="M233.64,547.13v6.41h-1.82v-1.4a3.93,3.93,0,0,1-3.48,1.52c-2.41,0-3.93-1.28-3.93-3.13,0-1.7,1.1-3.1,4.26-3.1h3.05v-.38c0-1.62-.94-2.56-2.84-2.56a5.41,5.41,0,0,0-3.37,1.14l-.8-1.44a7.07,7.07,0,0,1,4.39-1.36C232,542.83,233.64,544.23,233.64,547.13Zm-1.92,3.17v-1.49h-3c-1.91,0-2.45.75-2.45,1.64,0,1.06.89,1.73,2.35,1.73A3.09,3.09,0,0,0,231.72,550.3Z"/><path class="cls-2" d="M242.9,542.83v1.86a3.39,3.39,0,0,0-.44,0c-2.06,0-3.34,1.26-3.34,3.58v5.29h-1.93V542.93H239v1.78C239.72,543.47,241,542.83,242.9,542.83Z"/><path class="cls-2" d="M255.16,538.69v14.85h-1.84v-1.69a4.46,4.46,0,0,1-3.78,1.81,5.42,5.42,0,0,1,0-10.83,4.51,4.51,0,0,1,3.7,1.7v-5.84Zm-1.9,9.54A3.58,3.58,0,1,0,249.7,552,3.49,3.49,0,0,0,253.26,548.23Z"/><path class="cls-2" d="M267.2,547.13v6.41h-1.82v-1.4a4,4,0,0,1-3.49,1.52c-2.4,0-3.92-1.28-3.92-3.13,0-1.7,1.1-3.1,4.26-3.1h3v-.38c0-1.62-.94-2.56-2.85-2.56a5.36,5.36,0,0,0-3.36,1.14l-.8-1.44a7.07,7.07,0,0,1,4.39-1.36C265.56,542.83,267.2,544.23,267.2,547.13Zm-1.92,3.17v-1.49h-3c-1.9,0-2.44.75-2.44,1.64,0,1.06.89,1.73,2.35,1.73A3.09,3.09,0,0,0,265.28,550.3Z"/><path class="cls-2" d="M287.12,548.23a5.17,5.17,0,0,1-5.36,5.43,4.47,4.47,0,0,1-3.79-1.81v1.69h-1.84V538.69h1.92v5.84a4.53,4.53,0,0,1,3.71-1.7A5.14,5.14,0,0,1,287.12,548.23Zm-1.94,0a3.58,3.58,0,1,0-3.59,3.74A3.5,3.5,0,0,0,285.18,548.23Z"/><path class="cls-2" d="M289.55,539.85a1.18,1.18,0,1,1,2.36,0,1.18,1.18,0,1,1-2.36,0Zm.22,3.08h1.92v10.61h-1.92Z"/><path class="cls-2" d="M295.35,538.69h1.92v14.85h-1.92Z"/><path class="cls-2" d="M310.52,548.23a5.2,5.2,0,0,1-5.33,5.41,5.12,5.12,0,0,1-5.24-5.47c0-.16,0-.4,0-.58h8.61a3.6,3.6,0,0,0-3.84-3.1,4,4,0,0,0-3.07,1.28l-1.06-1.24a5.32,5.32,0,0,1,4.18-1.72C308.24,542.81,310.52,545.07,310.52,548.23Zm-1.92.74h-6.81a3.43,3.43,0,0,0,6.81,0Z"/><path class="cls-2" d="M318.88,542.83v1.86a3.46,3.46,0,0,0-.45,0c-2.05,0-3.34,1.26-3.34,3.58v5.29h-1.92V542.93H315v1.78C315.69,543.47,317,542.83,318.88,542.83Z"/><path class="cls-2" d="M320,552.42l.8-1.53A6.77,6.77,0,0,0,324.5,552c1.78,0,2.52-.54,2.52-1.44,0-2.39-6.71-.33-6.71-4.55,0-1.9,1.7-3.18,4.43-3.18a7.71,7.71,0,0,1,3.86,1l-.82,1.52a5.54,5.54,0,0,0-3.06-.84c-1.68,0-2.5.62-2.5,1.46,0,2.5,6.72.46,6.72,4.58,0,1.92-1.76,3.15-4.58,3.15A7.66,7.66,0,0,1,320,552.42Z"/><path class="cls-2" d="M331.11,539.85a1.18,1.18,0,1,1,2.36,0,1.18,1.18,0,1,1-2.36,0Zm.22,3.08h1.93v10.61h-1.93Z"/><path class="cls-2" d="M347,547.43v6.11h-1.92v-5.89c0-2.08-1-3.1-2.86-3.1-2,0-3.36,1.22-3.36,3.52v5.47h-1.93V542.93h1.85v1.6a4.53,4.53,0,0,1,3.82-1.7C345.16,542.83,347,544.31,347,547.43Z"/><path class="cls-2" d="M350.31,539.85a1.18,1.18,0,1,1,2.36,0,1.18,1.18,0,1,1-2.36,0Zm.22,3.08h1.93v10.61h-1.93Z"/><path class="cls-2" d="M364,552v1.58h-8.89V552.3l6.27-7.79h-6.15v-1.58h8.61v1.26L357.55,552Z"/><path class="cls-2" d="M365.69,552.27a1.33,1.33,0,0,1,1.36-1.35,1.31,1.31,0,0,1,1.32,1.35,1.34,1.34,0,0,1-1.32,1.39A1.36,1.36,0,0,1,365.69,552.27Z"/><path class="cls-3" d="M778.07,553.8c.34.23,1.16-.53,1.1.55,0,.63,0,1.27,0,1.91v363.6c-.6.18-1.21.36-1.82.52L703.4,939.29l-171.81,44q-85.91,22-171.8,44Q270.58,1050,181.4,1072.89c-8.92,2.29-17.93,4.29-26.73,7.06q-76.21,0-152.43,0c-1.87,0-2.24-.37-2.24-2.24Q.09,915.49.05,753.22l85.26-21.84,174-44.51,174.21-44.58,167.37-42.87q77.37-19.8,154.74-39.63C763.1,557.86,770.71,556.29,778.07,553.8Z"/><path class="cls-3" d="M1080.48,836.11V998.66c-.61.17-1.21.36-1.82.52l-88.2,22.59q-89.38,22.88-178.77,45.74c-8.85,2.27-17.67,4.67-26.51,7-4.6,0-9.2-.08-13.79,0-1.56,0-2-.23-2-1.91.08-16.68.05-33.36.05-50V915.22a5.6,5.6,0,0,0,2.62-.37q57.39-14.73,114.79-29.4,85.3-21.83,170.62-43.65C1065.14,839.85,1072.72,837.6,1080.48,836.11Z"/><path class="cls-20" d="M850.47,1031.16a20.26,20.26,0,1,1,20.26-20.26A20.28,20.28,0,0,1,850.47,1031.16Zm0-39a18.72,18.72,0,1,0,18.72,18.72A18.74,18.74,0,0,0,850.47,992.18Z"/><path class="cls-21" d="M861.16,1010.36a10.5,10.5,0,0,0-21-.19c0,.15,0,.3,0,.45a10.36,10.36,0,0,0,1.5,5.38l-1.89,5.59,5.81-1.85a10.51,10.51,0,0,0,15.57-9.12Zm-10.49,9a8.79,8.79,0,0,1-4.86-1.45l-3.39,1.08,1.1-3.25a8.66,8.66,0,0,1-1.68-5.14,8.06,8.06,0,0,1,0-.85,8.83,8.83,0,0,1,17.58.17c0,.23,0,.45,0,.68A8.8,8.8,0,0,1,850.67,1019.38Z"/><path class="cls-21" d="M855.48,1012.73c-.26-.13-1.53-.75-1.76-.83s-.41-.13-.58.12-.67.83-.82,1-.3.19-.56.06a6.94,6.94,0,0,1-2.07-1.26,7.79,7.79,0,0,1-1.43-1.77c-.14-.25,0-.39.12-.52s.25-.3.38-.45l.1-.12a2.72,2.72,0,0,0,.16-.3.47.47,0,0,0,0-.45c-.06-.13-.58-1.39-.8-1.9s-.42-.42-.58-.42l-.49,0a1,1,0,0,0-.69.31,2.91,2.91,0,0,0-.89,2.14,3.22,3.22,0,0,0,.13.87,5.77,5.77,0,0,0,.92,1.77,10.53,10.53,0,0,0,4.39,3.85c2.62,1,2.62.68,3.09.64a2.61,2.61,0,0,0,1.74-1.22A2.19,2.19,0,0,0,856,1013,1.4,1.4,0,0,0,855.48,1012.73Z"/><rect class="cls-20" x="898.46" y="1006.28" width="4.03" height="13.03"/><path class="cls-20" d="M900.45,1004.57a2.41,2.41,0,1,0-2.38-2.4A2.4,2.4,0,0,0,900.45,1004.57Z"/><path class="cls-20" d="M908.94,1012.47c0-1.83.84-2.92,2.46-2.92s2.19,1,2.19,2.92v6.84h4v-8.25c0-3.49-2-5.18-4.75-5.18a4.53,4.53,0,0,0-3.92,2.15v-1.75h-3.87v13h3.87Z"/><path class="cls-20" d="M907.84,1031.16a20.26,20.26,0,1,1,20.26-20.26A20.28,20.28,0,0,1,907.84,1031.16Zm0-39a18.72,18.72,0,1,0,18.72,18.72A18.74,18.74,0,0,0,907.84,992.18Z"/><path class="cls-20" d="M962.23,1022.48H967V1010.6h3.31l.35-4H967v-2.26c0-.94.19-1.31,1.09-1.31h2.57v-4.13h-3.28c-3.54,0-5.13,1.56-5.13,4.53v3.17h-2.47v4h2.47Z"/><path class="cls-20" d="M965.2,1031.16a20.26,20.26,0,1,1,20.26-20.26A20.28,20.28,0,0,1,965.2,1031.16Zm0-39a18.72,18.72,0,1,0,18.73,18.72A18.74,18.74,0,0,0,965.2,992.18Z"/><path class="cls-20" d="M1022.27,1001.37c2.85,0,3.19,0,4.32.06a5.81,5.81,0,0,1,2,.37,3.54,3.54,0,0,1,2,2,5.81,5.81,0,0,1,.37,2c0,1.13.06,1.47.06,4.32s0,3.19-.06,4.32a5.81,5.81,0,0,1-.37,2,3.54,3.54,0,0,1-2,2,5.81,5.81,0,0,1-2,.37c-1.13,0-1.46.06-4.32.06s-3.19,0-4.32-.06a5.87,5.87,0,0,1-2-.37,3.16,3.16,0,0,1-1.23-.8,3.28,3.28,0,0,1-.8-1.23,5.81,5.81,0,0,1-.37-2c-.05-1.13-.06-1.47-.06-4.32s0-3.19.06-4.32a5.81,5.81,0,0,1,.37-2,3.28,3.28,0,0,1,.8-1.23,3.16,3.16,0,0,1,1.23-.8,5.87,5.87,0,0,1,2-.37c1.13,0,1.47-.06,4.32-.06m0-1.93c-2.9,0-3.27,0-4.41.07a7.94,7.94,0,0,0-2.59.49,5.25,5.25,0,0,0-1.89,1.24,5.09,5.09,0,0,0-1.23,1.89,7.66,7.66,0,0,0-.5,2.59c0,1.14-.07,1.51-.07,4.41s0,3.27.07,4.41a7.66,7.66,0,0,0,.5,2.59,5.09,5.09,0,0,0,1.23,1.89,5.25,5.25,0,0,0,1.89,1.24,7.94,7.94,0,0,0,2.59.49c1.14,0,1.51.07,4.41.07s3.27,0,4.41-.07a7.88,7.88,0,0,0,2.59-.49,5.56,5.56,0,0,0,3.13-3.13,7.94,7.94,0,0,0,.49-2.59c.06-1.14.07-1.51.07-4.41s0-3.27-.07-4.41a7.94,7.94,0,0,0-.49-2.59,5.56,5.56,0,0,0-3.13-3.13,7.88,7.88,0,0,0-2.59-.49c-1.14,0-1.51-.07-4.41-.07"/><path class="cls-20" d="M1022.27,1004.64a5.49,5.49,0,1,0,5.49,5.49,5.49,5.49,0,0,0-5.49-5.49m0,9.05a3.56,3.56,0,1,1,3.56-3.56,3.56,3.56,0,0,1-3.56,3.56"/><path class="cls-20" d="M1029.26,1004.43a1.29,1.29,0,1,1-1.28-1.29,1.29,1.29,0,0,1,1.28,1.29"/><path class="cls-20" d="M1022.27,1031.16a20.26,20.26,0,1,1,20.26-20.26A20.28,20.28,0,0,1,1022.27,1031.16Zm0-39A18.72,18.72,0,1,0,1041,1010.9,18.74,18.74,0,0,0,1022.27,992.18Z"/><text class="cls-22" transform="translate(97.98 992.74)">CV <tspan class="cls-23" x="0" y="36.66">H</tspan><tspan x="22.18" y="36.66">AZI</tspan><tspan class="cls-24" x="71.93" y="36.66">R</tspan><tspan class="cls-25" x="91.89" y="36.66">L</tspan><tspan x="109.57" y="36.66">A</tspan><tspan class="cls-23" x="130.9" y="36.66">M</tspan><tspan class="cls-26" x="157.58" y="36.66">A</tspan></text><path class="cls-20" d="M71.65,968.49l-4.42,5.72H45.3a3.1,3.1,0,0,0-3.11,3.1v43.87a3.1,3.1,0,0,0,3.11,3.1H68.88L71,1030H36.47V968.49Z"/><path class="cls-20" d="M71.5,1030,53.57,982.5,60,985.33l10.14,26.89a1.43,1.43,0,0,0,2.68,0l10.07-26.89,6.42-2.83Z"/><polygon class="cls-20" points="70.07 985.33 72.72 985.33 74.14 1001.76 71.77 1005.07 69.06 1001.81 70.07 985.33"/><polygon class="cls-20" points="71.41 981.91 69.66 983.74 70.11 985.06 72.72 985.06 73.16 983.71 71.41 981.91"/><polygon class="cls-20" points="71.65 981.73 77.42 980.42 74.89 985.33 71.65 981.73"/><polygon class="cls-20" points="71.15 981.73 65.38 980.42 67.92 985.33 71.15 981.73"/><path class="cls-20" d="M1043.1,338.3c0,.08-.07.08-.11.08s-.17,0-.17-.08l-1.64-1.53-5.45,4.61h13.89l-4.71-4.77Z"/><polygon class="cls-20" points="1035.69 331.6 1035.69 340.95 1040.85 336.5 1035.69 331.6"/><polygon class="cls-20" points="1049.76 331.36 1036.03 331.36 1042.99 337.86 1049.76 331.36"/><polygon class="cls-20" points="1045.22 336.3 1050.12 341.35 1050.12 331.65 1045.22 336.3"/><rect class="cls-27" x="454" y="98.47" width="596.46" height="836.7"/><path class="cls-28" d="M1042.19,205.67c0,30.59-27.48,55.39-61.38,55.39H454V98.44h596.42Z"/><path class="cls-29" d="M1042.17,851.26l8.29-84.06v168H454V908.72H985.75C1019.64,908.72,1042.17,880.82,1042.17,851.26Z"/><path class="cls-30" d="M1019.5,861.78a35.58,35.58,0,1,1-35.58-35.58A35.58,35.58,0,0,1,1019.5,861.78Z"/><path class="cls-31" d="M1036.19,827.81a10.61,10.61,0,1,1-10.61-10.61A10.61,10.61,0,0,1,1036.19,827.81Z"/><path class="cls-32" d="M980.8,283.67H962.27v-.08h-207a17,17,0,1,0,0,34.09h207v0H980.8c33.9,0,61.37-28,61.37-61.91l8.25-143-8.25,109.84A61.09,61.09,0,0,1,980.8,283.67Z"/><text class="cls-33" transform="translate(757.15 307.65)"><tspan class="cls-34">H</tspan><tspan class="cls-35" x="14.06" y="0">A</tspan><tspan x="26.67" y="0">QQIN</tspan><tspan class="cls-36" x="72.64" y="0">D</tspan><tspan x="85.22" y="0">A</tspan></text><text class="cls-37" transform="translate(738.22 335.79)"><tspan class="cls-38">S</tspan><tspan class="cls-39" x="6.29" y="0">izi</tspan><tspan x="16.63" y="0">n</tspan><tspan class="cls-40" x="22.85" y="0"> </tspan><tspan class="cls-39" x="25.21" y="0">kim</tspan><tspan x="42.94" y="0">i</tspan><tspan class="cls-40" x="45.62" y="0"> </tspan><tspan class="cls-39" x="47.98" y="0">uğurl</tspan><tspan x="72.82" y="0">u</tspan><tspan class="cls-41" x="78.87" y="0"> </tspan><tspan class="cls-39" x="81.23" y="0">bi</tspan><tspan x="90.41" y="0">r</tspan><tspan class="cls-40" x="94.24" y="0"> </tspan><tspan class="cls-39" x="96.6" y="0">şir</tspan><tspan class="cls-42" x="107.72" y="0">k</tspan><tspan class="cls-43" x="113" y="0">ə</tspan><tspan class="cls-44" x="118.89" y="0">t</tspan><tspan class="cls-39" x="122.52" y="0">d</tspan><tspan x="129.03" y="0">ə</tspan><tspan class="cls-41" x="135" y="0"> </tspan><tspan class="cls-45" x="137.36" y="0">işləmə</tspan><tspan x="168.74" y="0">k</tspan><tspan class="cls-40" x="174.32" y="0"> </tspan><tspan class="cls-39" x="176.68" y="0">is</tspan><tspan class="cls-46" x="184.01" y="0">t</tspan><tspan class="cls-47" x="187.63" y="0">ə</tspan><tspan class="cls-39" x="193.23" y="0">yim</tspan><tspan x="211.05" y="0">i</tspan><tspan class="cls-41" x="213.72" y="0"> </tspan><tspan class="cls-39" x="216.08" y="0">ça</tspan><tspan class="cls-48" x="228.13" y="0">t</tspan><tspan class="cls-45" x="231.76" y="0">dırma</tspan><tspan x="260.73" y="0">q </tspan><tspan class="cls-49" x="0" y="12.86">is</tspan><tspan class="cls-50" x="7.25" y="12.86">t</tspan><tspan class="cls-51" x="10.83" y="12.86">ə</tspan><tspan class="cls-52" x="16.4" y="12.86">yi</tspan><tspan class="cls-53" x="24.58" y="12.86">r</tspan><tspan class="cls-49" x="28.16" y="12.86">əm</tspan><tspan x="43.56" y="12.86">,</tspan><tspan class="cls-40" x="45.86" y="12.86"> </tspan><tspan class="cls-52" x="48.22" y="12.86">bu</tspan><tspan class="cls-54" x="60.69" y="12.86">r</tspan><tspan class="cls-49" x="64.28" y="12.86">ad</tspan><tspan x="77.19" y="12.86">a</tspan><tspan class="cls-40" x="83.7" y="12.86"> </tspan><tspan class="cls-52" x="86.06" y="12.86">şir</tspan><tspan class="cls-55" x="97.07" y="12.86">k</tspan><tspan class="cls-56" x="102.31" y="12.86">ə</tspan><tspan class="cls-57" x="108.15" y="12.86">t</tspan><tspan class="cls-49" x="111.91" y="12.86">ini</tspan><tspan class="cls-58" x="123.25" y="12.86">z</tspan><tspan x="128.02" y="12.86">ə</tspan><tspan class="cls-40" x="133.99" y="12.86"> </tspan><tspan class="cls-49" x="136.35" y="12.86">d</tspan><tspan class="cls-59" x="142.82" y="12.86">ə</tspan><tspan class="cls-60" x="148.38" y="12.86">y</tspan><tspan class="cls-52" x="153.69" y="12.86">ə</tspan><tspan x="159.58" y="12.86">r</tspan><tspan class="cls-40" x="163.41" y="12.86"> </tspan><tspan class="cls-49" x="165.78" y="12.86">əla</tspan><tspan class="cls-61" x="180.71" y="12.86">v</tspan><tspan x="185.95" y="12.86">ə</tspan><tspan class="cls-41" x="191.92" y="12.86"> </tspan><tspan class="cls-49" x="194.28" y="12.86">ed</tspan><tspan x="206.58" y="12.86">ə</tspan><tspan class="cls-41" x="212.55" y="12.86"> </tspan><tspan class="cls-49" x="214.91" y="12.86">biləc</tspan><tspan class="cls-51" x="238.02" y="12.86">ə</tspan><tspan class="cls-49" x="243.59" y="12.86">yim</tspan><tspan x="261.28" y="12.86">ə </tspan><tspan class="cls-62" x="0" y="25.72">şübhə</tspan><tspan x="31.08" y="25.72">m</tspan><tspan class="cls-63" x="40.66" y="25.72"> </tspan><tspan class="cls-64" x="44.69" y="25.72">y</tspan><tspan class="cls-65" x="50.37" y="25.72">o</tspan><tspan class="cls-66" x="56.68" y="25.72">x</tspan><tspan class="cls-62" x="62.16" y="25.72">du</tspan><tspan class="cls-67" x="75.36" y="25.72">r</tspan><tspan x="78.74" y="25.72">.</tspan><tspan class="cls-63" x="81.32" y="25.72"> </tspan><tspan class="cls-62" x="85.34" y="25.72">Düşünü</tspan><tspan class="cls-68" x="124.06" y="25.72">r</tspan><tspan class="cls-62" x="128.02" y="25.72">ə</tspan><tspan x="134.29" y="25.72">m</tspan><tspan class="cls-63" x="143.87" y="25.72"> </tspan><tspan class="cls-62" x="147.9" y="25.72">ki</tspan><tspan x="156.75" y="25.72">,</tspan><tspan class="cls-63" x="159.06" y="25.72"> </tspan><tspan class="cls-62" x="163.08" y="25.72">C</tspan><tspan class="cls-69" x="171.19" y="25.72">V</tspan><tspan class="cls-62" x="178.13" y="25.72">-d</tspan><tspan x="189.66" y="25.72">ə</tspan><tspan class="cls-63" x="195.63" y="25.72"> </tspan><tspan class="cls-62" x="199.66" y="25.72">q</tspan><tspan class="cls-70" x="206.48" y="25.72">e</tspan><tspan class="cls-71" x="212.45" y="25.72">y</tspan><tspan x="218.15" y="25.72">d</tspan><tspan class="cls-63" x="224.69" y="25.72"> </tspan><tspan class="cls-62" x="228.72" y="25.72">e</tspan><tspan class="cls-72" x="234.93" y="25.72">t</tspan><tspan class="cls-62" x="238.9" y="25.72">diyi</tspan><tspan x="257.67" y="25.72">m </tspan><tspan class="cls-73" x="0" y="38.58">bacarıqları</tspan><tspan x="55.49" y="38.58">m</tspan><tspan class="cls-74" x="65.07" y="38.58"> </tspan><tspan class="cls-73" x="69" y="38.58">i</tspan><tspan x="71.82" y="38.58">ş</tspan><tspan class="cls-75" x="76.54" y="38.58"> </tspan><tspan class="cls-76" x="80.47" y="38.58">t</tspan><tspan class="cls-73" x="84.27" y="38.58">ə</tspan><tspan class="cls-77" x="90.38" y="38.58">s</tspan><tspan class="cls-73" x="95.18" y="38.58">virin</tspan><tspan x="116.9" y="38.58">ə</tspan><tspan class="cls-74" x="122.87" y="38.58"> </tspan><tspan class="cls-78" x="126.8" y="38.58">v</tspan><tspan x="132.26" y="38.58">ə</tspan><tspan class="cls-75" x="138.23" y="38.58"> </tspan><tspan class="cls-79" x="142.15" y="38.58">şir</tspan><tspan class="cls-80" x="153.81" y="38.58">k</tspan><tspan class="cls-81" x="159.27" y="38.58">ə</tspan><tspan class="cls-82" x="165.33" y="38.58">t</tspan><tspan class="cls-79" x="169.31" y="38.58">inizi</tspan><tspan x="189.36" y="38.58">n</tspan><tspan class="cls-74" x="195.58" y="38.58"> </tspan><tspan class="cls-73" x="199.5" y="38.58">perspek</tspan><tspan class="cls-82" x="239.55" y="38.58">t</tspan><tspan class="cls-79" x="243.53" y="38.58">ivin</tspan><tspan x="261.28" y="38.58">ə </tspan><tspan x="0" y="51.44">u</tspan><tspan class="cls-83" x="6.05" y="51.44">y</tspan><tspan x="11.45" y="51.44">ğundur</tspan></text><path class="cls-84" d="M980.8,404.83H962.27v-.08h-207a17,17,0,1,0,0,34.09h207v0H980.8c33.9,0,61.37-28,61.37-61.91l8.25-143-8.25,109.85A61.09,61.09,0,0,1,980.8,404.83Z"/><text class="cls-33" transform="translate(757.15 428.42)">TƏHSİL</text><path class="cls-85" d="M980.8,511.78H962.27v-.08h-207a17,17,0,1,0,0,34.09h207v0H980.8c33.9,0,61.37-28,61.37-61.91l8.25-143-8.25,109.85A61.09,61.09,0,0,1,980.8,511.78Z"/><text class="cls-33" transform="translate(757.15 535.37)">İŞ<tspan class="cls-86" x="16.86" y="0"> </tspan><tspan x="21.3" y="0">TƏCRÜBƏSİ</tspan></text><text class="cls-87" transform="translate(737.05 166.25)">MƏMMƏD<tspan class="cls-88" x="136.26" y="0">O</tspan><tspan x="156.13" y="0">V</tspan><tspan x="0" y="35.07">SAMİR</tspan></text><text class="cls-89" transform="translate(737.05 234.47)">11.08.1997</text><rect class="cls-3" x="479.94" y="98.44" width="221.42" height="836.72"/><path class="cls-90" d="M687.82,263.84a25.26,25.26,0,1,1-25.26-25.26A25.25,25.25,0,0,1,687.82,263.84Z"/><path class="cls-91" d="M521.8,134.05a15.12,15.12,0,1,1-15.12-15.11A15.12,15.12,0,0,1,521.8,134.05Z"/><circle class="cls-20" cx="590.65" cy="218.74" r="85.85" transform="translate(171.79 689.14) rotate(-68.64)"/><g class="cls-92"><rect class="cls-93" x="500.75" y="125.77" width="13.98" height="13.98"/><rect class="cls-94" x="514.73" y="125.77" width="13.98" height="13.98"/><rect class="cls-93" x="528.71" y="125.77" width="13.98" height="13.98"/><rect class="cls-94" x="542.69" y="125.77" width="13.98" height="13.98"/><rect class="cls-93" x="556.67" y="125.77" width="13.98" height="13.98"/><rect class="cls-94" x="570.66" y="125.77" width="13.98" height="13.98"/><rect class="cls-93" x="584.64" y="125.77" width="13.98" height="13.98"/><rect class="cls-94" x="598.62" y="125.77" width="13.98" height="13.98"/><rect class="cls-93" x="612.6" y="125.77" width="13.98" height="13.98"/><rect class="cls-94" x="626.58" y="125.77" width="13.98" height="13.98"/><rect class="cls-93" x="640.56" y="125.77" width="13.99" height="13.98"/><rect class="cls-94" x="654.55" y="125.77" width="13.98" height="13.98"/><rect class="cls-93" x="668.53" y="125.77" width="13.98" height="13.98"/><rect class="cls-94" x="500.75" y="139.75" width="13.98" height="13.98"/><rect class="cls-93" x="514.73" y="139.75" width="13.98" height="13.98"/><rect class="cls-94" x="528.71" y="139.75" width="13.98" height="13.98"/><rect class="cls-93" x="542.69" y="139.75" width="13.98" height="13.98"/><rect class="cls-94" x="556.67" y="139.75" width="13.98" height="13.98"/><rect class="cls-93" x="570.66" y="139.75" width="13.98" height="13.98"/><rect class="cls-94" x="584.64" y="139.75" width="13.98" height="13.98"/><rect class="cls-93" x="598.62" y="139.75" width="13.98" height="13.98"/><rect class="cls-94" x="612.6" y="139.75" width="13.98" height="13.98"/><rect class="cls-93" x="626.58" y="139.75" width="13.98" height="13.98"/><rect class="cls-94" x="640.56" y="139.75" width="13.99" height="13.98"/><rect class="cls-93" x="654.55" y="139.75" width="13.98" height="13.98"/><rect class="cls-94" x="668.53" y="139.75" width="13.98" height="13.98"/><rect class="cls-93" x="500.75" y="153.73" width="13.98" height="13.98"/><rect class="cls-94" x="514.73" y="153.73" width="13.98" height="13.98"/><rect class="cls-93" x="528.71" y="153.73" width="13.98" height="13.98"/><rect class="cls-94" x="542.69" y="153.73" width="13.98" height="13.98"/><rect class="cls-93" x="556.67" y="153.73" width="13.98" height="13.98"/><rect class="cls-94" x="570.66" y="153.73" width="13.98" height="13.98"/><rect class="cls-93" x="584.64" y="153.73" width="13.98" height="13.98"/><rect class="cls-94" x="598.62" y="153.73" width="13.98" height="13.98"/><rect class="cls-93" x="612.6" y="153.73" width="13.98" height="13.98"/><rect class="cls-94" x="626.58" y="153.73" width="13.98" height="13.98"/><rect class="cls-93" x="640.56" y="153.73" width="13.99" height="13.98"/><rect class="cls-94" x="654.55" y="153.73" width="13.98" height="13.98"/><rect class="cls-93" x="668.53" y="153.73" width="13.98" height="13.98"/><rect class="cls-94" x="500.75" y="167.71" width="13.98" height="13.98"/><rect class="cls-93" x="514.73" y="167.71" width="13.98" height="13.98"/><rect class="cls-94" x="528.71" y="167.71" width="13.98" height="13.98"/><rect class="cls-93" x="542.69" y="167.71" width="13.98" height="13.98"/><rect class="cls-94" x="556.67" y="167.71" width="13.98" height="13.98"/><rect class="cls-93" x="570.66" y="167.71" width="13.98" height="13.98"/><rect class="cls-94" x="584.64" y="167.71" width="13.98" height="13.98"/><rect class="cls-93" x="598.62" y="167.71" width="13.98" height="13.98"/><rect class="cls-94" x="612.6" y="167.71" width="13.98" height="13.98"/><rect class="cls-93" x="626.58" y="167.71" width="13.98" height="13.98"/><rect class="cls-94" x="640.56" y="167.71" width="13.99" height="13.98"/><rect class="cls-93" x="654.55" y="167.71" width="13.98" height="13.98"/><rect class="cls-94" x="668.53" y="167.71" width="13.98" height="13.98"/><rect class="cls-93" x="500.75" y="181.7" width="13.98" height="13.98"/><rect class="cls-94" x="514.73" y="181.7" width="13.98" height="13.98"/><rect class="cls-93" x="528.71" y="181.7" width="13.98" height="13.98"/><rect class="cls-94" x="542.69" y="181.7" width="13.98" height="13.98"/><rect class="cls-93" x="556.67" y="181.7" width="13.98" height="13.98"/><rect class="cls-94" x="570.66" y="181.7" width="13.98" height="13.98"/><rect class="cls-93" x="584.64" y="181.7" width="13.98" height="13.98"/><rect class="cls-94" x="598.62" y="181.7" width="13.98" height="13.98"/><rect class="cls-93" x="612.6" y="181.7" width="13.98" height="13.98"/><rect class="cls-94" x="626.58" y="181.7" width="13.98" height="13.98"/><rect class="cls-93" x="640.56" y="181.7" width="13.99" height="13.98"/><rect class="cls-94" x="654.55" y="181.7" width="13.98" height="13.98"/><rect class="cls-93" x="668.53" y="181.7" width="13.98" height="13.98"/><rect class="cls-94" x="500.75" y="195.68" width="13.98" height="13.98"/><rect class="cls-93" x="514.73" y="195.68" width="13.98" height="13.98"/><rect class="cls-94" x="528.71" y="195.68" width="13.98" height="13.98"/><rect class="cls-93" x="542.69" y="195.68" width="13.98" height="13.98"/><rect class="cls-94" x="556.67" y="195.68" width="13.98" height="13.98"/><rect class="cls-93" x="570.66" y="195.68" width="13.98" height="13.98"/><rect class="cls-94" x="584.64" y="195.68" width="13.98" height="13.98"/><rect class="cls-93" x="598.62" y="195.68" width="13.98" height="13.98"/><rect class="cls-94" x="612.6" y="195.68" width="13.98" height="13.98"/><rect class="cls-93" x="626.58" y="195.68" width="13.98" height="13.98"/><rect class="cls-94" x="640.56" y="195.68" width="13.99" height="13.98"/><rect class="cls-93" x="654.55" y="195.68" width="13.98" height="13.98"/><rect class="cls-94" x="668.53" y="195.68" width="13.98" height="13.98"/><rect class="cls-93" x="500.75" y="209.66" width="13.98" height="13.98"/><rect class="cls-94" x="514.73" y="209.66" width="13.98" height="13.98"/><rect class="cls-93" x="528.71" y="209.66" width="13.98" height="13.98"/><rect class="cls-94" x="542.69" y="209.66" width="13.98" height="13.98"/><rect class="cls-93" x="556.67" y="209.66" width="13.98" height="13.98"/><rect class="cls-94" x="570.66" y="209.66" width="13.98" height="13.98"/><rect class="cls-93" x="584.64" y="209.66" width="13.98" height="13.98"/><rect class="cls-94" x="598.62" y="209.66" width="13.98" height="13.98"/><rect class="cls-93" x="612.6" y="209.66" width="13.98" height="13.98"/><rect class="cls-94" x="626.58" y="209.66" width="13.98" height="13.98"/><rect class="cls-93" x="640.56" y="209.66" width="13.99" height="13.98"/><rect class="cls-94" x="654.55" y="209.66" width="13.98" height="13.98"/><rect class="cls-93" x="668.53" y="209.66" width="13.98" height="13.98"/><rect class="cls-94" x="500.75" y="223.64" width="13.98" height="13.98"/><rect class="cls-93" x="514.73" y="223.64" width="13.98" height="13.98"/><rect class="cls-94" x="528.71" y="223.64" width="13.98" height="13.98"/><rect class="cls-93" x="542.69" y="223.64" width="13.98" height="13.98"/><rect class="cls-94" x="556.67" y="223.64" width="13.98" height="13.98"/><rect class="cls-93" x="570.66" y="223.64" width="13.98" height="13.98"/><rect class="cls-94" x="584.64" y="223.64" width="13.98" height="13.98"/><rect class="cls-93" x="598.62" y="223.64" width="13.98" height="13.98"/><rect class="cls-94" x="612.6" y="223.64" width="13.98" height="13.98"/><rect class="cls-93" x="626.58" y="223.64" width="13.98" height="13.98"/><rect class="cls-94" x="640.56" y="223.64" width="13.99" height="13.98"/><rect class="cls-93" x="654.55" y="223.64" width="13.98" height="13.98"/><rect class="cls-94" x="668.53" y="223.64" width="13.98" height="13.98"/><rect class="cls-93" x="500.75" y="237.62" width="13.98" height="13.98"/><rect class="cls-94" x="514.73" y="237.62" width="13.98" height="13.98"/><rect class="cls-93" x="528.71" y="237.62" width="13.98" height="13.98"/><rect class="cls-94" x="542.69" y="237.62" width="13.98" height="13.98"/><rect class="cls-93" x="556.67" y="237.62" width="13.98" height="13.98"/><rect class="cls-94" x="570.66" y="237.62" width="13.98" height="13.98"/><rect class="cls-93" x="584.64" y="237.62" width="13.98" height="13.98"/><rect class="cls-94" x="598.62" y="237.62" width="13.98" height="13.98"/><rect class="cls-93" x="612.6" y="237.62" width="13.98" height="13.98"/><rect class="cls-94" x="626.58" y="237.62" width="13.98" height="13.98"/><rect class="cls-93" x="640.56" y="237.62" width="13.99" height="13.98"/><rect class="cls-94" x="654.55" y="237.62" width="13.98" height="13.98"/><rect class="cls-93" x="668.53" y="237.62" width="13.98" height="13.98"/><rect class="cls-94" x="500.75" y="251.6" width="13.98" height="13.98"/><rect class="cls-93" x="514.73" y="251.6" width="13.98" height="13.98"/><rect class="cls-94" x="528.71" y="251.6" width="13.98" height="13.98"/><rect class="cls-93" x="542.69" y="251.6" width="13.98" height="13.98"/><rect class="cls-94" x="556.67" y="251.6" width="13.98" height="13.98"/><rect class="cls-93" x="570.66" y="251.6" width="13.98" height="13.98"/><rect class="cls-94" x="584.64" y="251.6" width="13.98" height="13.98"/><rect class="cls-93" x="598.62" y="251.6" width="13.98" height="13.98"/><rect class="cls-94" x="612.6" y="251.6" width="13.98" height="13.98"/><rect class="cls-93" x="626.58" y="251.6" width="13.98" height="13.98"/><rect class="cls-94" x="640.56" y="251.6" width="13.99" height="13.98"/><rect class="cls-93" x="654.55" y="251.6" width="13.98" height="13.98"/><rect class="cls-94" x="668.53" y="251.6" width="13.98" height="13.98"/><rect class="cls-93" x="500.75" y="265.59" width="13.98" height="13.98"/><rect class="cls-94" x="514.73" y="265.59" width="13.98" height="13.98"/><rect class="cls-93" x="528.71" y="265.59" width="13.98" height="13.98"/><rect class="cls-94" x="542.69" y="265.59" width="13.98" height="13.98"/><rect class="cls-93" x="556.67" y="265.59" width="13.98" height="13.98"/><rect class="cls-94" x="570.66" y="265.59" width="13.98" height="13.98"/><rect class="cls-93" x="584.64" y="265.59" width="13.98" height="13.98"/><rect class="cls-94" x="598.62" y="265.59" width="13.98" height="13.98"/><rect class="cls-93" x="612.6" y="265.59" width="13.98" height="13.98"/><rect class="cls-94" x="626.58" y="265.59" width="13.98" height="13.98"/><rect class="cls-93" x="640.56" y="265.59" width="13.99" height="13.98"/><rect class="cls-94" x="654.55" y="265.59" width="13.98" height="13.98"/><rect class="cls-93" x="668.53" y="265.59" width="13.98" height="13.98"/><rect class="cls-94" x="500.75" y="279.57" width="13.98" height="13.98"/><rect class="cls-93" x="514.73" y="279.57" width="13.98" height="13.98"/><rect class="cls-94" x="528.71" y="279.57" width="13.98" height="13.98"/><rect class="cls-93" x="542.69" y="279.57" width="13.98" height="13.98"/><rect class="cls-94" x="556.67" y="279.57" width="13.98" height="13.98"/><rect class="cls-93" x="570.66" y="279.57" width="13.98" height="13.98"/><rect class="cls-94" x="584.64" y="279.57" width="13.98" height="13.98"/><rect class="cls-93" x="598.62" y="279.57" width="13.98" height="13.98"/><rect class="cls-94" x="612.6" y="279.57" width="13.98" height="13.98"/><rect class="cls-93" x="626.58" y="279.57" width="13.98" height="13.98"/><rect class="cls-94" x="640.56" y="279.57" width="13.99" height="13.98"/><rect class="cls-93" x="654.55" y="279.57" width="13.98" height="13.98"/><rect class="cls-94" x="668.53" y="279.57" width="13.98" height="13.98"/><rect class="cls-93" x="500.75" y="293.55" width="13.98" height="13.98"/><rect class="cls-94" x="514.73" y="293.55" width="13.98" height="13.98"/><rect class="cls-93" x="528.71" y="293.55" width="13.98" height="13.98"/><rect class="cls-94" x="542.69" y="293.55" width="13.98" height="13.98"/><rect class="cls-93" x="556.67" y="293.55" width="13.98" height="13.98"/><rect class="cls-94" x="570.66" y="293.55" width="13.98" height="13.98"/><rect class="cls-93" x="584.64" y="293.55" width="13.98" height="13.98"/><rect class="cls-94" x="598.62" y="293.55" width="13.98" height="13.98"/><rect class="cls-93" x="612.6" y="293.55" width="13.98" height="13.98"/><rect class="cls-94" x="626.58" y="293.55" width="13.98" height="13.98"/><rect class="cls-93" x="640.56" y="293.55" width="13.99" height="13.98"/><rect class="cls-94" x="654.55" y="293.55" width="13.98" height="13.98"/><rect class="cls-93" x="668.53" y="293.55" width="13.98" height="13.98"/></g><path class="cls-95" d="M470.8,505.67H675a6.53,6.53,0,0,1,6.53,6.53v22.56a6.53,6.53,0,0,1-6.53,6.53H470.8a0,0,0,0,1,0,0V505.67a0,0,0,0,1,0,0Z"/><polygon class="cls-96" points="470.95 541.2 479.96 552.01 479.96 541.2 470.95 541.2"/><text class="cls-33" transform="translate(534.54 531.81)">DİL BİL<tspan class="cls-97" x="61.29" y="0">İ</tspan><tspan x="66.33" y="0">Yİ</tspan></text><text class="cls-98" transform="translate(504.6 568.57)"><tspan class="cls-99">A</tspan><tspan x="8.34" y="0">zərb</tspan><tspan class="cls-100" x="32.67" y="0">a</tspan><tspan class="cls-101" x="39.47" y="0">y</tspan><tspan x="45.38" y="0">canca</tspan></text><text class="cls-98" transform="translate(504.6 593.9)">İngiliscə</text><text class="cls-98" transform="translate(504.6 619.55)">Rusca</text><path class="cls-102" d="M610.58,619.93H599.25A1.19,1.19,0,0,1,598,618.8v-4.07a1.19,1.19,0,0,1,1.24-1.13h11.33a1.19,1.19,0,0,1,1.23,1.13v4.07A1.19,1.19,0,0,1,610.58,619.93Z"/><path class="cls-103" d="M626.67,620H615.35a1.19,1.19,0,0,1-1.24-1.13v-4.07a1.19,1.19,0,0,1,1.24-1.13h11.32a1.19,1.19,0,0,1,1.24,1.13v4.07A1.19,1.19,0,0,1,626.67,620Z"/><path class="cls-104" d="M642.77,620H631.45a1.19,1.19,0,0,1-1.24-1.13v-4.07a1.19,1.19,0,0,1,1.24-1.13h11.32a1.19,1.19,0,0,1,1.23,1.13v4.07A1.19,1.19,0,0,1,642.77,620Z"/><path class="cls-105" d="M610.58,595H599.25a1.19,1.19,0,0,1-1.24-1.13v-4.07a1.19,1.19,0,0,1,1.24-1.13h11.33a1.19,1.19,0,0,1,1.23,1.13v4.07A1.19,1.19,0,0,1,610.58,595Z"/><path class="cls-106" d="M626.67,595H615.35a1.19,1.19,0,0,1-1.24-1.13v-4.07a1.19,1.19,0,0,1,1.24-1.13h11.32a1.19,1.19,0,0,1,1.24,1.13v4.07A1.19,1.19,0,0,1,626.67,595Z"/><path class="cls-107" d="M610.58,570H599.25a1.19,1.19,0,0,1-1.24-1.13v-4.07a1.19,1.19,0,0,1,1.24-1.13h11.33a1.19,1.19,0,0,1,1.23,1.13v4.07A1.19,1.19,0,0,1,610.58,570Z"/><path class="cls-108" d="M626.67,570H615.35a1.19,1.19,0,0,1-1.24-1.13V564.8a1.19,1.19,0,0,1,1.24-1.13h11.32a1.19,1.19,0,0,1,1.24,1.13v4.07A1.19,1.19,0,0,1,626.67,570Z"/><path class="cls-109" d="M643.92,570H632.6a1.19,1.19,0,0,1-1.24-1.13v-4.07a1.18,1.18,0,0,1,1.24-1.13h11.32a1.18,1.18,0,0,1,1.23,1.13v4.07A1.19,1.19,0,0,1,643.92,570Z"/><path class="cls-110" d="M660,570.05H648.69a1.18,1.18,0,0,1-1.23-1.13v-4.07a1.19,1.19,0,0,1,1.23-1.13H660a1.19,1.19,0,0,1,1.24,1.13v4.07A1.18,1.18,0,0,1,660,570.05Z"/><path class="cls-111" d="M675,570.08H663.64A1.19,1.19,0,0,1,662.4,569v-4.07a1.18,1.18,0,0,1,1.24-1.13H675a1.19,1.19,0,0,1,1.24,1.13V569A1.19,1.19,0,0,1,675,570.08Z"/><path class="cls-112" d="M641.76,594.93H630.43a1.19,1.19,0,0,1-1.23-1.13v-4.07a1.18,1.18,0,0,1,1.23-1.13h11.33a1.18,1.18,0,0,1,1.23,1.13v4.07A1.19,1.19,0,0,1,641.76,594.93Z"/><path class="cls-113" d="M657.85,595H646.53a1.19,1.19,0,0,1-1.24-1.13v-4.07a1.19,1.19,0,0,1,1.24-1.13h11.32a1.19,1.19,0,0,1,1.24,1.13v4.07A1.19,1.19,0,0,1,657.85,595Z"/><path class="cls-114" d="M672.8,595H661.48a1.19,1.19,0,0,1-1.24-1.13v-4.07a1.18,1.18,0,0,1,1.24-1.13H672.8a1.19,1.19,0,0,1,1.24,1.13v4.07A1.19,1.19,0,0,1,672.8,595Z"/><path class="cls-115" d="M470.8,644.47H675a6.53,6.53,0,0,1,6.53,6.53v22.56a6.53,6.53,0,0,1-6.53,6.53H470.8a0,0,0,0,1,0,0V644.47A0,0,0,0,1,470.8,644.47Z"/><polygon class="cls-116" points="470.95 680 479.96 690.82 479.96 680 470.95 680"/><text class="cls-33" transform="translate(506.09 668.77)">PROQRAM BİL<tspan class="cls-97" x="125.53" y="0">İ</tspan><tspan x="130.56" y="0">Yİ</tspan></text><path class="cls-117" d="M610.6,757.1H599.28A1.19,1.19,0,0,1,598,756V751.9a1.19,1.19,0,0,1,1.24-1.13H610.6a1.19,1.19,0,0,1,1.24,1.13V756A1.19,1.19,0,0,1,610.6,757.1Z"/><path class="cls-118" d="M626.7,757.12H615.38a1.18,1.18,0,0,1-1.24-1.13v-4.07a1.19,1.19,0,0,1,1.24-1.13H626.7a1.19,1.19,0,0,1,1.24,1.13V756A1.19,1.19,0,0,1,626.7,757.12Z"/><path class="cls-119" d="M642.8,757.15H631.47a1.19,1.19,0,0,1-1.23-1.13V752a1.19,1.19,0,0,1,1.23-1.13H642.8A1.19,1.19,0,0,1,644,752V756A1.19,1.19,0,0,1,642.8,757.15Z"/><path class="cls-120" d="M658.89,757.17H647.57a1.19,1.19,0,0,1-1.24-1.13V752a1.19,1.19,0,0,1,1.24-1.13h11.32a1.19,1.19,0,0,1,1.24,1.13V756A1.19,1.19,0,0,1,658.89,757.17Z"/><path class="cls-121" d="M610.6,731.66H599.28a1.19,1.19,0,0,1-1.24-1.13v-4.07a1.19,1.19,0,0,1,1.24-1.13H610.6a1.19,1.19,0,0,1,1.24,1.13v4.07A1.19,1.19,0,0,1,610.6,731.66Z"/><path class="cls-122" d="M626.7,731.69H615.38a1.19,1.19,0,0,1-1.24-1.13v-4.07a1.19,1.19,0,0,1,1.24-1.14H626.7a1.2,1.2,0,0,1,1.24,1.14v4.07A1.19,1.19,0,0,1,626.7,731.69Z"/><path class="cls-123" d="M642.8,731.71H631.47a1.19,1.19,0,0,1-1.23-1.13v-4.07a1.19,1.19,0,0,1,1.23-1.13H642.8a1.19,1.19,0,0,1,1.23,1.13v4.07A1.19,1.19,0,0,1,642.8,731.71Z"/><path class="cls-124" d="M658.89,731.73H647.57a1.19,1.19,0,0,1-1.24-1.12v-4.07a1.2,1.2,0,0,1,1.24-1.14h11.32a1.2,1.2,0,0,1,1.24,1.14v4.07A1.19,1.19,0,0,1,658.89,731.73Z"/><path class="cls-125" d="M675,731.73H663.67a1.18,1.18,0,0,1-1.24-1.12v-4.07a1.19,1.19,0,0,1,1.24-1.14H675a1.2,1.2,0,0,1,1.24,1.14v4.07A1.19,1.19,0,0,1,675,731.73Z"/><path class="cls-126" d="M610.6,706.17H599.28A1.19,1.19,0,0,1,598,705V701a1.19,1.19,0,0,1,1.24-1.13H610.6a1.19,1.19,0,0,1,1.24,1.13V705A1.19,1.19,0,0,1,610.6,706.17Z"/><path class="cls-127" d="M626.7,706.2H615.38a1.19,1.19,0,0,1-1.24-1.13V701a1.18,1.18,0,0,1,1.24-1.13H626.7a1.19,1.19,0,0,1,1.24,1.13v4.07A1.19,1.19,0,0,1,626.7,706.2Z"/><path class="cls-128" d="M642.8,706.22H631.47a1.18,1.18,0,0,1-1.23-1.13V701a1.19,1.19,0,0,1,1.23-1.13H642.8A1.19,1.19,0,0,1,644,701v4.07A1.18,1.18,0,0,1,642.8,706.22Z"/><path class="cls-129" d="M658.89,706.25H647.57a1.19,1.19,0,0,1-1.24-1.13v-4.07a1.19,1.19,0,0,1,1.24-1.13h11.32a1.19,1.19,0,0,1,1.24,1.13v4.07A1.19,1.19,0,0,1,658.89,706.25Z"/><path class="cls-130" d="M675,706.27H663.67a1.18,1.18,0,0,1-1.24-1.13v-4.07a1.19,1.19,0,0,1,1.24-1.13H675a1.19,1.19,0,0,1,1.24,1.13v4.07A1.19,1.19,0,0,1,675,706.27Z"/><text class="cls-98" transform="translate(503.99 757.25)">POWER POI<tspan class="cls-131" x="66.2" y="0">N</tspan><tspan class="cls-132" x="75.05" y="0">T</tspan></text><path class="cls-133" d="M610.6,779.61H599.28a1.19,1.19,0,0,1-1.24-1.13v-4.07a1.19,1.19,0,0,1,1.24-1.13H610.6a1.19,1.19,0,0,1,1.24,1.13v4.07A1.19,1.19,0,0,1,610.6,779.61Z"/><path class="cls-134" d="M626.7,779.64H615.38a1.19,1.19,0,0,1-1.24-1.13v-4.07a1.19,1.19,0,0,1,1.24-1.13H626.7a1.19,1.19,0,0,1,1.24,1.13v4.07A1.19,1.19,0,0,1,626.7,779.64Z"/><path class="cls-135" d="M642.8,779.66H631.47a1.18,1.18,0,0,1-1.23-1.13v-4.07a1.19,1.19,0,0,1,1.23-1.13H642.8a1.19,1.19,0,0,1,1.23,1.13v4.07A1.18,1.18,0,0,1,642.8,779.66Z"/><path class="cls-136" d="M658.89,779.69H647.57a1.19,1.19,0,0,1-1.24-1.13v-4.07a1.19,1.19,0,0,1,1.24-1.13h11.32a1.19,1.19,0,0,1,1.24,1.13v4.07A1.19,1.19,0,0,1,658.89,779.69Z"/><text class="cls-98" transform="translate(503.99 779.76)">OUT<tspan class="cls-137" x="24.47" y="0">L</tspan><tspan class="cls-138" x="30.89" y="0">OOK</tspan></text><text class="cls-98" transform="translate(503.99 731.71)">E<tspan class="cls-139" x="7.2" y="0">X</tspan><tspan x="14.98" y="0">CEL</tspan></text><text class="cls-98" transform="translate(503.99 706.17)">WORD</text><path class="cls-140" d="M470.8,810.72H675a6.53,6.53,0,0,1,6.53,6.53v22.56a6.53,6.53,0,0,1-6.53,6.53H470.8a0,0,0,0,1,0,0V810.72A0,0,0,0,1,470.8,810.72Z"/><polygon class="cls-141" points="470.95 846.25 479.96 857.07 479.96 846.25 470.95 846.25"/><text class="cls-33" transform="translate(534.54 836.09)">HOBBİLƏR</text><path class="cls-20" d="M567,861.28A12.74,12.74,0,1,0,579.7,874,12.74,12.74,0,0,0,567,861.28Z"/><path class="cls-142" d="M563.26,878c-.46-.83-1.81-1-3-.3s-1.8,1.88-1.34,2.71,1.81,1,3,.29S563.72,878.8,563.26,878Z"/><path class="cls-142" d="M573.88,876.46c-.46-.83-1.8-1-3-.3s-1.81,1.88-1.35,2.71,1.81,1,3,.29S574.34,877.28,573.88,876.46Z"/><polygon class="cls-142" points="574.04 867.27 574.04 876.86 573.67 876.86 573.67 869.67 563.36 871.56 563.36 878.75 563 878.75 563 869.16 574.04 867.27"/><path class="cls-20" d="M518.69,860.47A13.55,13.55,0,1,0,532.24,874,13.55,13.55,0,0,0,518.69,860.47Z"/><path class="cls-142" d="M524.06,866.35a11.36,11.36,0,0,0-1.11.72v0l-1.42,1.41-1.25-.28-3.35-.76-3.11-.71-2.36,1,7,3.81-4.12,4.12,0,0s-.21.32-.43.72l-2.81-.9-1.24,1.24,3.08,1.88-.32.32.42.42.31-.32,1.86,3,1.25-1.24-.9-2.76a7.79,7.79,0,0,0,.73-.48h0l4.12-4.12,3.8,7,1-2.36-1.46-6.46-.28-1.24,1.42-1.42,0,0a12.38,12.38,0,0,0,.71-1.11c.5-.91.59-1.48.27-1.8S525,865.85,524.06,866.35Z"/><path class="cls-20" d="M615.23,861.36A12.66,12.66,0,1,0,627.89,874,12.66,12.66,0,0,0,615.23,861.36Z"/><path class="cls-142" d="M623.39,880.42s-5.9-.31-8.16,1c-2.26-1.29-8.16-1-8.16-1v-9.67h.82l.09,7,.4-9.15c.58-.06,5.17-.45,6.85,1.24,1.68-1.69,6.27-1.3,6.86-1.24l.09,9.67.39-7.48h.82Z"/><path class="cls-20" d="M663.5,861.36A12.66,12.66,0,1,0,676.16,874,12.66,12.66,0,0,0,663.5,861.36Z"/><path class="cls-142" d="M663.25,870.46a4.48,4.48,0,1,0,4.48,4.48A4.49,4.49,0,0,0,663.25,870.46Zm0,8.65a4.15,4.15,0,1,1,4.15-4.15A4.15,4.15,0,0,1,663.27,879.11Z"/><path class="cls-142" d="M670.12,869.32H670a.79.79,0,0,0-.72-.48h-1a.79.79,0,0,0-.72.48h-.94l-.9-1.63a.51.51,0,0,0-.46-.26h-3.35a.53.53,0,0,0-.45.23l-1.08,1.66H660a.56.56,0,0,0-.55-.48h-1.85a.56.56,0,0,0-.55.48h-.13a1.41,1.41,0,0,0-1.41,1.41v8.47a1.41,1.41,0,0,0,1.41,1.41h13.24a1.41,1.41,0,0,0,1.41-1.41v-8.47A1.41,1.41,0,0,0,670.12,869.32Zm-12.82,1.89a.62.62,0,0,1,.62-.62.62.62,0,1,1,0,1.24A.62.62,0,0,1,657.3,871.21Zm6,8.72a5,5,0,1,1,5-5A5,5,0,0,1,663.25,879.93Z"/><path class="cls-143" d="M470.8,330.35H675a6.53,6.53,0,0,1,6.53,6.53v22.56A6.53,6.53,0,0,1,675,366H470.8a0,0,0,0,1,0,0V330.35a0,0,0,0,1,0,0Z"/><polygon class="cls-144" points="470.95 365.88 479.96 376.7 479.96 365.88 470.95 365.88"/><text class="cls-33" transform="translate(546.86 355.39)">Ə<tspan class="cls-145" x="13.46" y="0">L</tspan><tspan class="cls-146" x="24.13" y="0">A</tspan><tspan x="36.73" y="0">QƏ</tspan></text><text class="cls-147" transform="translate(519.16 476.4)">Bakı şəhəri, <tspan class="cls-148" x="56.93" y="0">A</tspan><tspan class="cls-149" x="63.98" y="0">zərb</tspan><tspan class="cls-150" x="84.58" y="0">a</tspan><tspan class="cls-151" x="90.33" y="0">y</tspan><tspan x="95.33" y="0">can</tspan></text><text class="cls-147" transform="translate(519.16 435.75)">+994xx xxx xx xx</text><path class="cls-20" d="M503.93,424.5h-9.21a.79.79,0,0,0-.77.8v13.56a.78.78,0,0,0,.77.79h9.21a.78.78,0,0,0,.78-.79V425.3A.79.79,0,0,0,503.93,424.5Zm-4.6,14.81a.95.95,0,1,1,.92-.94A.93.93,0,0,1,499.33,439.31Zm4.6-2.79a.66.66,0,0,1-.65.66h-7.9a.66.66,0,0,1-.65-.66V426a.66.66,0,0,1,.65-.66h7.9a.66.66,0,0,1,.65.66Z"/><path class="cls-20" d="M503.28,425.59h-7.9a.36.36,0,0,0-.36.36v10.57a.36.36,0,0,0,.36.36h7.9a.36.36,0,0,0,.36-.36V426A.36.36,0,0,0,503.28,425.59Z"/><path class="cls-20" d="M499.21,444.81a12.73,12.73,0,1,1,12.73-12.73A12.74,12.74,0,0,1,499.21,444.81Zm0-24.49A11.76,11.76,0,1,0,511,432.08,11.77,11.77,0,0,0,499.21,420.32Z"/><path class="cls-21" d="M504.29,467.72a5.73,5.73,0,0,0-9.92,5.73l3.61,6.26h0c.22.52.91,1.42,1.33,1.42s1.1-.9,1.32-1.42h0l3.62-6.26h0A5.73,5.73,0,0,0,504.29,467.72Zm-5,5.5a2.57,2.57,0,1,1,2.57-2.56A2.57,2.57,0,0,1,499.33,473.22Z"/><path class="cls-20" d="M499.21,485.67a12.73,12.73,0,1,1,12.73-12.73A12.74,12.74,0,0,1,499.21,485.67Zm0-24.48A11.76,11.76,0,1,0,511,472.94,11.76,11.76,0,0,0,499.21,461.19Z"/><text class="cls-152" transform="translate(737.69 459.37)">2015-2019</text><text class="cls-153" transform="translate(737.69 478.84)">Bakı D<tspan class="cls-154" x="39.29" y="0">ö</tspan><tspan x="46.91" y="0">vlət Uni</tspan><tspan class="cls-155" x="92.87" y="0">v</tspan><tspan x="99.67" y="0">ersiteti</tspan><tspan class="cls-156"><tspan x="0" y="19.48">B</tspan><tspan class="cls-157" x="7.28" y="19.48">e</tspan><tspan x="13.4" y="19.48">ynəlxalq münasibətlər və iqtisadiy</tspan><tspan class="cls-158" x="187.84" y="19.48">y</tspan><tspan x="193.29" y="19.48">at</tspan></tspan></text><text class="cls-152" transform="translate(737.69 568.08)">2018-2019</text><text class="cls-153" transform="translate(737.69 587.55)">Unibank<tspan class="cls-156"><tspan x="0" y="19.48">K</tspan><tspan class="cls-159" x="7.33" y="19.48">r</tspan><tspan x="11.18" y="19.48">edit mütəxəssisi</tspan></tspan></text><path class="cls-160" d="M980.8,697.12H962.27V697h-207a17,17,0,1,0,0,34.09h207v0H980.8c33.9,0,61.37-28,61.37-61.91l8.25-143-8.25,109.84A61.09,61.09,0,0,1,980.8,697.12Z"/><text class="cls-33" transform="translate(757.15 720.08)">Ş<tspan class="cls-161" x="11.56" y="0">Ə</tspan><tspan x="24.81" y="0">XSİ KEYF</tspan><tspan class="cls-162" x="104.46" y="0">İ</tspan><tspan class="cls-34" x="109.5" y="0">Y</tspan><tspan x="121.37" y="0">Y</tspan><tspan class="cls-163" x="133.07" y="0">Ə</tspan><tspan x="146.27" y="0">TLƏR</tspan></text><text class="cls-153" transform="translate(737.69 637.48)">2019-2020</text><text class="cls-153" transform="translate(737.69 656.95)"><tspan class="cls-164">P</tspan><tspan x="8.72" y="0">asha Bank</tspan><tspan class="cls-156"><tspan x="0" y="19.48">K</tspan><tspan class="cls-159" x="7.33" y="19.48">r</tspan><tspan x="11.18" y="19.48">edit mütəxəssisi</tspan></tspan></text><text class="cls-147" transform="translate(520.99 395.54)">cvhazirlama@gmail.com</text><path class="cls-20" d="M499.52,393.82c0,.08-.07.08-.1.08s-.18,0-.18-.08l-1.63-1.52-5.46,4.61H506l-4.71-4.77Z"/><polygon class="cls-20" points="492.12 387.12 492.12 396.47 497.27 392.03 492.12 387.12"/><polygon class="cls-20" points="506.18 386.88 492.46 386.88 499.42 393.38 506.18 386.88"/><polygon class="cls-20" points="501.65 391.83 506.54 396.88 506.54 387.17 501.65 391.83"/><path class="cls-20" d="M499.21,404.53a12.73,12.73,0,1,1,12.73-12.73,12.74,12.74,0,0,1-12.73,12.73m0-24.49A11.76,11.76,0,1,0,511,391.8,11.77,11.77,0,0,0,499.21,380"/><text class="cls-165" transform="translate(763.42 754.77)">Əla ünsiyyət qabiliyyəti<tspan x="0" y="18.64">Sürətli mənimsəmə qabiliyyəti </tspan><tspan x="0" y="37.29">Sərbəst və kollekti</tspan><tspan class="cls-166" x="122.14" y="37.29">v</tspan><tspan x="129.39" y="37.29">də işləmə bacarığı </tspan><tspan x="0" y="55.93">K</tspan><tspan class="cls-167" x="9.5" y="55.93">r</tspan><tspan x="14.48" y="55.93">eativ düşüncə və dəqiqlik</tspan><tspan x="0" y="74.57">Ciddi, məsuliyyətli, işgüzar </tspan></text><circle class="cls-168" cx="748.57" cy="749.53" r="7.53" transform="translate(-310.74 748.85) rotate(-45)"/><polyline class="cls-169" points="752.49 746.51 747.67 751.94 744.65 749.53"/><circle class="cls-170" cx="748.57" cy="768" r="7.53" transform="translate(-170.44 1320.81) rotate(-76.76)"/><polyline class="cls-169" points="752.49 764.99 747.67 770.41 744.65 768"/><circle class="cls-171" cx="748.57" cy="786.47" r="7.53" transform="translate(-188.42 1335.05) rotate(-76.76)"/><polyline class="cls-169" points="752.49 783.46 747.67 788.88 744.65 786.47"/><circle class="cls-172" cx="748.57" cy="804.95" r="7.53" transform="translate(-349.93 765.08) rotate(-45)"/><polyline class="cls-169" points="752.49 801.93 747.67 807.36 744.65 804.95"/><circle class="cls-173" cx="748.57" cy="823.68" r="7.53" transform="translate(-363.18 770.57) rotate(-45)"/><polyline class="cls-169" points="752.49 820.67 747.67 826.09 744.65 823.68"/></g></svg>