<svg xmlns="http://www.w3.org/2000/svg" xmlns:xlink="http://www.w3.org/1999/xlink" viewBox="0 0 1079 1080"><defs><style>.cls-1,.cls-64,.cls-70{fill:none;}.cls-2{clip-path:url(#clip-path);}.cls-3{fill:#2b2c2b;}.cls-4{fill:#2a60ad;}.cls-5{fill:#414142;}.cls-6{font-size:22.5px;}.cls-10,.cls-11,.cls-12,.cls-132,.cls-137,.cls-138,.cls-21,.cls-54,.cls-57,.cls-6{fill:#fff;}.cls-44,.cls-6{font-family:Montserrat-Medium, Montserrat;font-weight:500;}.cls-7{letter-spacing:-0.03em;}.cls-8{letter-spacing:0em;}.cls-9{letter-spacing:-0.01em;}.cls-10{font-size:58.13px;}.cls-10,.cls-12,.cls-54,.cls-57{font-family:Montserrat-SemiBold, Montserrat;}.cls-10,.cls-12,.cls-24,.cls-31,.cls-54,.cls-57{font-weight:600;}.cls-11{font-size:22px;}.cls-109,.cls-11,.cls-115,.cls-74,.cls-87{font-family:Montserrat-Regular, Montserrat;}.cls-12{font-size:39.76px;}.cls-13{letter-spacing:0em;}.cls-14{letter-spacing:-0.01em;}.cls-15{letter-spacing:-0.01em;}.cls-16{letter-spacing:-0.01em;}.cls-17{letter-spacing:-0.01em;}.cls-18{letter-spacing:-0.02em;}.cls-19{letter-spacing:0em;}.cls-20{letter-spacing:0em;}.cls-22{fill:#0a1627;}.cls-23,.cls-24,.cls-31,.cls-41,.cls-44{fill:#f4ece3;}.cls-24,.cls-31{font-size:11.02px;font-family:Averta-Semibold, Averta;}.cls-24{letter-spacing:-0.07em;}.cls-25{letter-spacing:0.02em;}.cls-26{letter-spacing:0.01em;}.cls-27,.cls-28,.cls-31{letter-spacing:0.02em;}.cls-28,.cls-33{font-family:Averta-Light, Averta;font-weight:300;}.cls-29{letter-spacing:0.01em;}.cls-30{letter-spacing:0.02em;}.cls-32{letter-spacing:0.01em;}.cls-34{letter-spacing:0.01em;}.cls-35{letter-spacing:0em;}.cls-36{letter-spacing:0em;}.cls-37{letter-spacing:-0.01em;}.cls-38{letter-spacing:0.02em;}.cls-39{letter-spacing:0em;}.cls-40{letter-spacing:0em;}.cls-41{font-size:19.47px;letter-spacing:0.02em;}.cls-121,.cls-41,.cls-65,.cls-95{font-family:Averta-ExtraBold, Averta;font-weight:800;}.cls-42{letter-spacing:0.04em;}.cls-43{letter-spacing:-0.02em;}.cls-44{font-size:10.78px;}.cls-45{letter-spacing:-0.01em;}.cls-46{letter-spacing:-0.01em;}.cls-47{letter-spacing:-0.02em;}.cls-48{letter-spacing:-0.01em;}.cls-49{fill:#5282c2;}.cls-50{letter-spacing:0em;}.cls-51{letter-spacing:-0.01em;}.cls-52{letter-spacing:0em;}.cls-53{fill:#a6c2d2;}.cls-54,.cls-57{font-size:6.98px;}.cls-54{letter-spacing:-0.02em;}.cls-55{letter-spacing:-0.01em;}.cls-56{letter-spacing:0em;}.cls-58{letter-spacing:0em;}.cls-59{letter-spacing:-0.06em;}.cls-60{letter-spacing:-0.01em;}.cls-61{letter-spacing:-0.01em;}.cls-62{letter-spacing:-0.02em;}.cls-63{letter-spacing:-0.02em;}.cls-64{stroke:#fff;}.cls-64,.cls-70{stroke-miterlimit:10;}.cls-121,.cls-65,.cls-95{font-size:17.08px;fill:#0e163b;}.cls-65{letter-spacing:0.02em;}.cls-66,.cls-95{letter-spacing:-0.02em;}.cls-121,.cls-67{letter-spacing:0.02em;}.cls-68{letter-spacing:0em;}.cls-69{letter-spacing:0.01em;}.cls-70{stroke:#141b31;stroke-width:0.4px;}.cls-71{font-size:11.82px;}.cls-109,.cls-115,.cls-71,.cls-74,.cls-87,.cls-96{fill:#141b31;}.cls-132,.cls-71,.cls-96{font-family:Montserrat-Bold, Montserrat;}.cls-132,.cls-138,.cls-71,.cls-96{font-weight:700;}.cls-72{letter-spacing:-0.01em;}.cls-73{letter-spacing:-0.02em;}.cls-74{font-size:8.6px;}.cls-75{letter-spacing:-0.01em;}.cls-76{letter-spacing:-0.01em;}.cls-77{letter-spacing:0em;}.cls-78{letter-spacing:-0.01em;}.cls-79{letter-spacing:0em;}.cls-80{letter-spacing:0em;}.cls-81{letter-spacing:-0.02em;}.cls-82{letter-spacing:-0.01em;}.cls-83{letter-spacing:0em;}.cls-84{letter-spacing:-0.02em;}.cls-85{letter-spacing:0.01em;}.cls-86{letter-spacing:-0.01em;}.cls-87{font-size:7.16px;}.cls-88{letter-spacing:-0.02em;}.cls-89{letter-spacing:-0.01em;}.cls-90{letter-spacing:0em;}.cls-91{letter-spacing:0em;}.cls-92{letter-spacing:0em;}.cls-93{letter-spacing:-0.01em;}.cls-94{letter-spacing:-0.02em;}.cls-96{font-size:17.19px;}.cls-97{letter-spacing:0em;}.cls-98{letter-spacing:-0.01em;}.cls-99{letter-spacing:0em;}.cls-100{letter-spacing:0em;}.cls-101{letter-spacing:-0.01em;}.cls-102{letter-spacing:-0.01em;}.cls-103{letter-spacing:-0.02em;}.cls-104{letter-spacing:0em;}.cls-105{letter-spacing:0.01em;}.cls-106{letter-spacing:-0.01em;}.cls-107{letter-spacing:0em;}.cls-108{letter-spacing:-0.02em;}.cls-109{font-size:12.5px;}.cls-110{letter-spacing:0em;}.cls-111{letter-spacing:-0.01em;}.cls-112{letter-spacing:-0.01em;}.cls-113{letter-spacing:0em;}.cls-114{letter-spacing:-0.02em;}.cls-115{font-size:10.42px;}.cls-116{letter-spacing:-0.02em;}.cls-117{letter-spacing:-0.01em;}.cls-118{letter-spacing:0em;}.cls-119{letter-spacing:0em;}.cls-120{letter-spacing:0em;}.cls-122{letter-spacing:2.34em;}.cls-123{letter-spacing:-0.01em;}.cls-124{letter-spacing:-0.02em;}.cls-125{letter-spacing:-0.01em;}.cls-126{letter-spacing:0.01em;}.cls-127{letter-spacing:0.01em;}.cls-128{letter-spacing:0em;}.cls-129{letter-spacing:-0.02em;}.cls-130{letter-spacing:0em;}.cls-131{clip-path:url(#clip-path-2);}.cls-132{font-size:39.25px;}.cls-133{letter-spacing:-0.03em;}.cls-134{letter-spacing:-0.03em;}.cls-135{letter-spacing:-0.01em;}.cls-136{letter-spacing:0.01em;}.cls-137{fill-rule:evenodd;}.cls-138{font-size:30.55px;font-family:Averta-Bold, Averta;}.cls-139{letter-spacing:0em;}.cls-140{letter-spacing:0em;}.cls-141{letter-spacing:0.01em;}.cls-142{letter-spacing:0em;}</style><clipPath id="clip-path"><circle class="cls-1" cx="-700.31" cy="180.29" r="65.91"/></clipPath><clipPath id="clip-path-2"><circle class="cls-1" cx="548.76" cy="228.03" r="98.92"/></clipPath></defs><g id="PRINT"><rect class="cls-3" x="85.21" y="185.88" width="260.32" height="56.71"/><rect class="cls-4" x="40.07" y="74.35" width="143.79" height="5.3"/><rect class="cls-5" x="183.81" y="74.35" width="143.79" height="5.3"/><rect class="cls-5" x="40.07" y="94.92" width="143.76" height="38.31"/><text class="cls-6" transform="translate(52.14 122.08)"><tspan class="cls-7">K</tspan><tspan class="cls-8" x="15.62" y="0">OD: 0</tspan><tspan class="cls-9" x="79.27" y="0">9.</tspan><tspan x="97.72" y="0">06</tspan></text><rect class="cls-4" x="40.07" y="174.13" width="80.21" height="80.21"/><text class="cls-10" transform="translate(48.78 231.24)">10</text><text class="cls-11" transform="translate(67.92 245.41) scale(0.58)">azn</text><text class="cls-12" transform="translate(139 224.25) scale(0.58)"><tspan class="cls-13">A</tspan><tspan class="cls-14" x="29.7" y="0">z</tspan><tspan x="50.54" y="0">ə</tspan><tspan class="cls-15" x="75.27" y="0">r</tspan><tspan class="cls-16" x="91.77" y="0">b</tspan><tspan class="cls-17" x="118.77" y="0">a</tspan><tspan class="cls-18" x="142.51" y="0">y</tspan><tspan x="164.9" y="0">ca</tspan><tspan class="cls-19" x="212.14" y="0">n</tspan><tspan class="cls-20" x="239.57" y="0">dilli</tspan></text><rect class="cls-3" x="85.21" y="309.65" width="260.32" height="56.71"/><rect class="cls-4" x="40.07" y="297.9" width="80.21" height="80.21"/><text class="cls-10" transform="translate(48.78 355.01)">15</text><text class="cls-12" transform="translate(139 348.02) scale(0.58)">İ<tspan class="cls-19" x="12.68" y="0">n</tspan><tspan class="cls-20" x="40.12" y="0">gilisdilli</tspan></text><text class="cls-11" transform="translate(67.92 371.42) scale(0.58)">azn</text><path class="cls-3" d="M58.34,429c0,3-2.2,4.88-5.84,4.88H49v4.25H47v-14H52.5C56.14,424.08,58.34,425.92,58.34,429Zm-2,0c0-2-1.34-3.14-3.9-3.14H49v6.28h3.4C55,432.1,56.34,431,56.34,429Z"/><path class="cls-3" d="M66.52,427.38v1.86a3.39,3.39,0,0,0-.44,0c-2.06,0-3.34,1.26-3.34,3.58v5.29H60.82V427.48h1.84v1.78C63.34,428,64.66,427.38,66.52,427.38Z"/><path class="cls-3" d="M67.8,432.78a5.51,5.51,0,1,1,5.52,5.43A5.27,5.27,0,0,1,67.8,432.78Zm9.08,0a3.57,3.57,0,1,0-3.56,3.74A3.48,3.48,0,0,0,76.88,432.78Z"/><path class="cls-3" d="M83.64,426.56v.92h3.08v1.58h-3v9H81.76v-9H80v-1.58h1.8v-.94a3.19,3.19,0,0,1,3.5-3.42,3.58,3.58,0,0,1,2.16.62l-.58,1.46a2.49,2.49,0,0,0-1.48-.5C84.22,424.7,83.64,425.34,83.64,426.56Z"/><path class="cls-3" d="M97.92,433.42h-8.6a3.59,3.59,0,0,0,3.84,3.1,4,4,0,0,0,3.06-1.28l1.06,1.24a5.33,5.33,0,0,1-4.18,1.73c-3.42,0-5.7-2.27-5.7-5.43a5.19,5.19,0,0,1,5.32-5.4A5.11,5.11,0,0,1,98,432.84C98,433,97.94,433.24,97.92,433.42ZM89.32,432h6.8a3.42,3.42,0,0,0-6.8,0Z"/><path class="cls-3" d="M99.28,437l.8-1.53a6.73,6.73,0,0,0,3.72,1.11c1.78,0,2.52-.54,2.52-1.45,0-2.38-6.7-.32-6.7-4.54,0-1.9,1.7-3.18,4.42-3.18a7.71,7.71,0,0,1,3.86,1l-.82,1.52A5.54,5.54,0,0,0,104,429c-1.68,0-2.5.62-2.5,1.46,0,2.5,6.72.46,6.72,4.58,0,1.92-1.76,3.15-4.58,3.15A7.65,7.65,0,0,1,99.28,437Z"/><path class="cls-3" d="M109.3,437l.8-1.53a6.73,6.73,0,0,0,3.72,1.11c1.78,0,2.52-.54,2.52-1.45,0-2.38-6.7-.32-6.7-4.54,0-1.9,1.7-3.18,4.42-3.18a7.71,7.71,0,0,1,3.86,1l-.82,1.52A5.54,5.54,0,0,0,114,429c-1.68,0-2.5.62-2.5,1.46,0,2.5,6.72.46,6.72,4.58,0,1.92-1.76,3.15-4.58,3.15A7.65,7.65,0,0,1,109.3,437Z"/><path class="cls-3" d="M120.44,424.4a1.18,1.18,0,0,1,2.36,0,1.18,1.18,0,1,1-2.36,0Zm.22,3.08h1.92v10.61h-1.92Z"/><path class="cls-3" d="M125.26,432.78a5.51,5.51,0,1,1,5.52,5.43A5.27,5.27,0,0,1,125.26,432.78Zm9.08,0a3.57,3.57,0,1,0-3.56,3.74A3.48,3.48,0,0,0,134.34,432.78Z"/><path class="cls-3" d="M149,432v6.11h-1.92V432.2c0-2.08-1-3.1-2.86-3.1-2,0-3.36,1.22-3.36,3.52v5.47h-1.92V427.48h1.84v1.6a4.54,4.54,0,0,1,3.82-1.7C147.18,427.38,149,428.86,149,432Z"/><path class="cls-3" d="M161,431.68v6.41h-1.82v-1.4a4,4,0,0,1-3.48,1.52c-2.4,0-3.92-1.28-3.92-3.13,0-1.7,1.1-3.1,4.26-3.1h3v-.38c0-1.62-.94-2.56-2.84-2.56a5.36,5.36,0,0,0-3.36,1.14l-.8-1.44a7.06,7.06,0,0,1,4.38-1.36C159.32,427.38,161,428.78,161,431.68ZM159,434.85v-1.49h-3c-1.9,0-2.44.74-2.44,1.64,0,1.06.88,1.73,2.34,1.73A3.09,3.09,0,0,0,159,434.85Z"/><path class="cls-3" d="M164.52,423.24h1.92v14.85h-1.92Z"/><path class="cls-3" d="M178.38,431.08a7.08,7.08,0,0,1,7.42-7.16,6.92,6.92,0,0,1,5.32,2.18l-1.3,1.26a5.19,5.19,0,0,0-3.94-1.66,5.39,5.39,0,1,0,0,10.77,5.18,5.18,0,0,0,3.94-1.69l1.3,1.27a7,7,0,0,1-5.34,2.2A7.08,7.08,0,0,1,178.38,431.08Z"/><path class="cls-3" d="M206,424.08l-6.14,14h-2l-6.16-14h2.16l5,11.5,5.08-11.5Z"/><path class="cls-3" d="M227,432v6.11h-1.92V432.2c0-2.08-1-3.1-2.86-3.1-2,0-3.36,1.22-3.36,3.52v5.47h-1.92V423.24h1.92V429a4.6,4.6,0,0,1,3.74-1.6C225.18,427.38,227,428.86,227,432Z"/><path class="cls-3" d="M239,431.68v6.41h-1.82v-1.4a4,4,0,0,1-3.48,1.52c-2.4,0-3.92-1.28-3.92-3.13,0-1.7,1.1-3.1,4.26-3.1h3v-.38c0-1.62-.94-2.56-2.84-2.56a5.36,5.36,0,0,0-3.36,1.14l-.8-1.44a7.06,7.06,0,0,1,4.38-1.36C237.32,427.38,239,428.78,239,431.68ZM237,434.85v-1.49h-3c-1.9,0-2.44.74-2.44,1.64,0,1.06.88,1.73,2.34,1.73A3.09,3.09,0,0,0,237,434.85Z"/><path class="cls-3" d="M250.38,436.51v1.58H241.5v-1.24l6.26-7.79h-6.14v-1.58h8.6v1.26L244,436.51Z"/><path class="cls-3" d="M252.94,427.48h1.92v10.61h-1.92Z"/><path class="cls-3" d="M264.22,427.38v1.86a3.39,3.39,0,0,0-.44,0c-2.06,0-3.34,1.26-3.34,3.58v5.29h-1.92V427.48h1.84v1.78C261,428,262.36,427.38,264.22,427.38Z"/><path class="cls-3" d="M266.58,423.24h1.92v14.85h-1.92Z"/><path class="cls-3" d="M280.56,431.68v6.41h-1.82v-1.4a4,4,0,0,1-3.48,1.52c-2.4,0-3.92-1.28-3.92-3.13,0-1.7,1.1-3.1,4.26-3.1h3v-.38c0-1.62-.94-2.56-2.84-2.56a5.36,5.36,0,0,0-3.36,1.14l-.8-1.44a7.06,7.06,0,0,1,4.38-1.36C278.92,427.38,280.56,428.78,280.56,431.68Zm-1.92,3.17v-1.49h-3c-1.9,0-2.44.74-2.44,1.64,0,1.06.88,1.73,2.34,1.73A3.09,3.09,0,0,0,278.64,434.85Z"/><path class="cls-3" d="M301.72,432v6.11H299.8V432.2c0-2.08-1-3.1-2.74-3.1-1.92,0-3.18,1.22-3.18,3.52v5.47H292V432.2c0-2.08-1-3.1-2.74-3.1-1.92,0-3.18,1.22-3.18,3.52v5.47h-1.92V427.48H286v1.58a4.3,4.3,0,0,1,3.66-1.68,3.92,3.92,0,0,1,3.68,2,4.78,4.78,0,0,1,4.08-2C300,427.38,301.72,428.86,301.72,432Z"/><path class="cls-3" d="M313.66,431.68v6.41h-1.82v-1.4a4,4,0,0,1-3.48,1.52c-2.4,0-3.92-1.28-3.92-3.13,0-1.7,1.1-3.1,4.26-3.1h3v-.38c0-1.62-.94-2.56-2.84-2.56a5.36,5.36,0,0,0-3.36,1.14l-.8-1.44a7.06,7.06,0,0,1,4.38-1.36C312,427.38,313.66,428.78,313.66,431.68Zm-1.92,3.17v-1.49h-3c-1.9,0-2.44.74-2.44,1.64,0,1.06.88,1.73,2.34,1.73A3.09,3.09,0,0,0,311.74,434.85Z"/><path class="cls-3" d="M333.12,438.09,330.06,434l-3.1,4.07h-2.14l4.18-5.43-4-5.18h2.14l2.92,3.82,2.9-3.82h2.1l-4,5.18,4.22,5.43Z"/><path class="cls-3" d="M337.18,424.4a1.18,1.18,0,0,1,2.36,0,1.18,1.18,0,0,1-2.36,0Zm.22,3.08h1.92v10.61H337.4Z"/><path class="cls-3" d="M353,423.24v14.85h-1.84V436.4a4.49,4.49,0,0,1-3.78,1.81,5.42,5.42,0,0,1,0-10.83,4.51,4.51,0,0,1,3.7,1.7v-5.84Zm-1.9,9.54a3.57,3.57,0,1,0-3.56,3.74A3.49,3.49,0,0,0,351.08,432.78Z"/><path class="cls-3" d="M374.22,432v6.11H372.3V432.2c0-2.08-1-3.1-2.74-3.1-1.92,0-3.18,1.22-3.18,3.52v5.47h-1.92V432.2c0-2.08-1-3.1-2.74-3.1-1.92,0-3.18,1.22-3.18,3.52v5.47h-1.92V427.48h1.84v1.58a4.3,4.3,0,0,1,3.66-1.68,3.92,3.92,0,0,1,3.68,2,4.78,4.78,0,0,1,4.08-2C372.46,427.38,374.22,428.86,374.22,432Z"/><path class="cls-3" d="M387.4,432.78a5.19,5.19,0,0,1-5.32,5.41,5.12,5.12,0,0,1-5.24-5.47c0-.16,0-.4,0-.58h8.6a3.59,3.59,0,0,0-3.84-3.1,4,4,0,0,0-3.06,1.28l-1.06-1.24a5.32,5.32,0,0,1,4.18-1.72C385.12,427.36,387.4,429.62,387.4,432.78Zm-1.92.74h-6.8a3.42,3.42,0,0,0,6.8,0Z"/><path class="cls-3" d="M389.38,431.76h5.38v1.66h-5.38Z"/><path class="cls-3" d="M52.72,461.47a3.62,3.62,0,0,1-2.32.74A3,3,0,0,1,47,458.89v-5.83h-1.8v-1.58H47v-2.32H49v2.32h3v1.58H49v5.75a1.57,1.57,0,0,0,1.66,1.78,2.48,2.48,0,0,0,1.5-.5Z"/><path class="cls-3" d="M54.6,448.4a1.18,1.18,0,1,1,1.17,1.18A1.15,1.15,0,0,1,54.6,448.4Zm.21,3.08h1.93v10.61H54.81Z"/><path class="cls-3" d="M70.23,456v6.11H68.31V456.2c0-2.08-1-3.1-2.86-3.1-2,0-3.36,1.22-3.36,3.52v5.47H60.17V451.48H62v1.6a4.54,4.54,0,0,1,3.82-1.7C68.41,451.38,70.23,452.86,70.23,456Z"/><path class="cls-3" d="M83.63,447.24v14.85H81.79V460.4A4.49,4.49,0,0,1,78,462.21a5.42,5.42,0,0,1,0-10.83,4.51,4.51,0,0,1,3.7,1.7v-5.84Zm-1.9,9.54a3.57,3.57,0,1,0-3.56,3.74A3.49,3.49,0,0,0,81.73,456.78Z"/><path class="cls-3" d="M96.63,456.78a5.19,5.19,0,0,1-5.32,5.41,5.12,5.12,0,0,1-5.24-5.47c0-.16,0-.4,0-.58h8.6a3.59,3.59,0,0,0-3.84-3.1,4,4,0,0,0-3.06,1.28l-1.06-1.24a5.32,5.32,0,0,1,4.18-1.72C94.35,451.36,96.63,453.62,96.63,456.78Zm-1.92.74h-6.8a3.42,3.42,0,0,0,6.8,0Z"/><path class="cls-3" d="M114.57,456.78a5.15,5.15,0,0,1-5.36,5.43,4.51,4.51,0,0,1-3.7-1.73V466h-1.92V451.48h1.84v1.68a4.51,4.51,0,0,1,3.78-1.78A5.14,5.14,0,0,1,114.57,456.78Zm-1.94,0a3.57,3.57,0,1,0-3.58,3.74A3.5,3.5,0,0,0,112.63,456.78Z"/><path class="cls-3" d="M126.55,457.42H118a3.59,3.59,0,0,0,3.84,3.1,4,4,0,0,0,3.06-1.28l1.06,1.24a5.33,5.33,0,0,1-4.18,1.73c-3.42,0-5.7-2.27-5.7-5.43a5.19,5.19,0,0,1,5.32-5.4,5.11,5.11,0,0,1,5.24,5.46C126.59,457,126.57,457.24,126.55,457.42ZM118,456h6.8a3.42,3.42,0,0,0-6.8,0Z"/><path class="cls-3" d="M132.65,462.19l-.24.9c1.16.12,1.74.78,1.74,1.66,0,1.12-1,1.82-2.48,1.82a3.36,3.36,0,0,1-1.78-.44l.42-1a2.64,2.64,0,0,0,1.36.34c.76,0,1.12-.3,1.12-.8s-.34-.78-1.14-.78h-.54l.44-1.72a7.34,7.34,0,0,1-3.86-1.22l.8-1.53a6.73,6.73,0,0,0,3.72,1.11c1.78,0,2.52-.54,2.52-1.45,0-2.38-6.7-.32-6.7-4.54,0-1.9,1.7-3.18,4.42-3.18a7.71,7.71,0,0,1,3.86,1l-.82,1.52a5.54,5.54,0,0,0-3.06-.84c-1.68,0-2.5.62-2.5,1.46,0,2.5,6.72.46,6.72,4.58C136.65,460.85,135.13,462,132.65,462.19Z"/><path class="cls-3" d="M148.41,456.78a5.19,5.19,0,0,1-5.32,5.41,5.12,5.12,0,0,1-5.24-5.47c0-.16,0-.4,0-.58h8.6a3.59,3.59,0,0,0-3.84-3.1,4,4,0,0,0-3.06,1.28l-1.06-1.24a5.32,5.32,0,0,1,4.18-1.72C146.13,451.36,148.41,453.62,148.41,456.78Zm-1.92.74h-6.8a3.42,3.42,0,0,0,6.8,0Z"/><path class="cls-3" d="M155,457.14l-2.2,2.05v2.9h-1.93V447.24h1.93v9.52l5.78-5.28h2.32l-4.46,4.38,4.9,6.23H159Z"/><path class="cls-3" d="M171.15,455.68v6.41h-1.83v-1.4a4,4,0,0,1-3.48,1.52c-2.4,0-3.92-1.28-3.92-3.13,0-1.7,1.1-3.1,4.26-3.1h3v-.38c0-1.62-.94-2.56-2.84-2.56a5.36,5.36,0,0,0-3.36,1.14l-.8-1.44a7.06,7.06,0,0,1,4.38-1.36C169.5,451.38,171.15,452.78,171.15,455.68Zm-1.93,3.17v-1.49h-3c-1.9,0-2.44.74-2.44,1.64,0,1.06.88,1.73,2.34,1.73A3.09,3.09,0,0,0,169.22,458.85Z"/><path class="cls-3" d="M180.18,451.38v1.86a3.39,3.39,0,0,0-.44,0c-2.06,0-3.34,1.26-3.34,3.58v5.29h-1.92V451.48h1.84v1.78C177,452,178.32,451.38,180.18,451.38Z"/><path class="cls-3" d="M191.11,457.14l-2.2,2.05v2.9H187V447.24h1.93v9.52l5.78-5.28H197l-4.46,4.38,4.9,6.23h-2.36Z"/><path class="cls-3" d="M197.66,456.78a5.52,5.52,0,1,1,5.52,5.43A5.27,5.27,0,0,1,197.66,456.78Zm9.08,0a3.57,3.57,0,1,0-3.56,3.74A3.48,3.48,0,0,0,206.74,456.78Z"/><path class="cls-3" d="M228.73,456v6.11h-1.92V456.2c0-2.08-1-3.1-2.75-3.1-1.92,0-3.18,1.22-3.18,3.52v5.47H219V456.2c0-2.08-1-3.1-2.74-3.1-1.92,0-3.18,1.22-3.18,3.52v5.47h-1.92V451.48H213v1.58a4.3,4.3,0,0,1,3.66-1.68,3.92,3.92,0,0,1,3.68,2,4.78,4.78,0,0,1,4.08-2C227,451.38,228.73,452.86,228.73,456Z"/><path class="cls-3" d="M240.44,455.68v6.41h-1.82v-1.4a4,4,0,0,1-3.48,1.52c-2.4,0-3.92-1.28-3.92-3.13,0-1.7,1.1-3.1,4.26-3.1h3v-.38c0-1.62-.94-2.56-2.84-2.56a5.36,5.36,0,0,0-3.36,1.14l-.8-1.44a7.06,7.06,0,0,1,4.38-1.36C238.8,451.38,240.44,452.78,240.44,455.68Zm-1.92,3.17v-1.49h-3c-1.9,0-2.44.74-2.44,1.64,0,1.06.88,1.73,2.34,1.73A3.09,3.09,0,0,0,238.52,458.85Z"/><path class="cls-3" d="M253.84,456v6.11h-1.92V456.2c0-2.08-1-3.1-2.86-3.1-2,0-3.36,1.22-3.36,3.52v5.47h-1.92V451.48h1.84v1.6a4.54,4.54,0,0,1,3.82-1.7C252,451.38,253.84,452.86,253.84,456Z"/><path class="cls-3" d="M267.24,447.24v14.85H265.4V460.4a4.49,4.49,0,0,1-3.78,1.81,5.42,5.42,0,0,1,0-10.83,4.51,4.51,0,0,1,3.7,1.7v-5.84Zm-1.9,9.54a3.57,3.57,0,1,0-3.56,3.74A3.49,3.49,0,0,0,265.34,456.78Z"/><path class="cls-3" d="M279.06,455.68v6.41h-1.83v-1.4a4,4,0,0,1-3.48,1.52c-2.4,0-3.92-1.28-3.92-3.13,0-1.7,1.1-3.1,4.26-3.1h3v-.38c0-1.62-.94-2.56-2.84-2.56a5.36,5.36,0,0,0-3.36,1.14l-.8-1.44a7.06,7.06,0,0,1,4.38-1.36C277.41,451.38,279.06,452.78,279.06,455.68Zm-1.93,3.17v-1.49h-3c-1.9,0-2.44.74-2.44,1.64,0,1.06.88,1.73,2.34,1.73A3.09,3.09,0,0,0,277.13,458.85Z"/><path class="cls-3" d="M300,456v6.11h-1.92V456.2c0-2.08-1-3.1-2.74-3.1-1.92,0-3.18,1.22-3.18,3.52v5.47h-1.92V456.2c0-2.08-1-3.1-2.74-3.1-1.92,0-3.18,1.22-3.18,3.52v5.47h-1.92V451.48h1.84v1.58a4.3,4.3,0,0,1,3.66-1.68,3.92,3.92,0,0,1,3.68,2,4.78,4.78,0,0,1,4.08-2C298.23,451.38,300,452.86,300,456Z"/><path class="cls-3" d="M303.31,451.48h1.92v10.61h-1.92Z"/><path class="cls-3" d="M316.53,460.51v1.58h-8.88v-1.24l6.26-7.79h-6.14v-1.58h8.6v1.26l-6.26,7.77Z"/><path class="cls-3" d="M329.35,461.47a3.62,3.62,0,0,1-2.32.74,3,3,0,0,1-3.36-3.32v-5.83h-1.8v-1.58h1.8v-2.32h1.92v2.32h3v1.58h-3v5.75a1.57,1.57,0,0,0,1.66,1.78,2.48,2.48,0,0,0,1.5-.5Z"/><path class="cls-3" d="M340.67,456.78a5.19,5.19,0,0,1-5.32,5.41,5.12,5.12,0,0,1-5.24-5.47c0-.16,0-.4,0-.58h8.6a3.59,3.59,0,0,0-3.84-3.1,4,4,0,0,0-3.06,1.28l-1.06-1.24a5.32,5.32,0,0,1,4.18-1.72C338.39,451.36,340.67,453.62,340.67,456.78Zm-1.92.74H332a3.42,3.42,0,0,0,6.8,0Z"/><path class="cls-3" d="M348.81,451.38v1.86a3.39,3.39,0,0,0-.44,0c-2.06,0-3.34,1.26-3.34,3.58v5.29h-1.92V451.48H345v1.78C345.63,452,347,451.38,348.81,451.38Z"/><path class="cls-3" d="M360.43,456.78a5.2,5.2,0,0,1-5.33,5.41,5.12,5.12,0,0,1-5.24-5.47c0-.16,0-.4,0-.58h8.61a3.59,3.59,0,0,0-3.84-3.1,4,4,0,0,0-3.07,1.28l-1.06-1.24a5.33,5.33,0,0,1,4.19-1.72C358.15,451.36,360.43,453.62,360.43,456.78Zm-1.92.74H351.7a3.43,3.43,0,0,0,6.81,0Z"/><path class="cls-3" d="M365,450.56v.92h3.08v1.58h-3v9h-1.92v-9h-1.8v-1.58h1.8v-.94a3.19,3.19,0,0,1,3.5-3.42,3.58,3.58,0,0,1,2.16.62l-.58,1.46a2.49,2.49,0,0,0-1.48-.5C365.6,448.7,365,449.34,365,450.56Z"/><path class="cls-3" d="M371.08,448.4a1.18,1.18,0,0,1,2.36,0,1.18,1.18,0,0,1-2.36,0Zm.22,3.08h1.92v10.61H371.3Z"/><path class="cls-3" d="M386.72,456v6.11H384.8V456.2c0-2.08-1-3.1-2.86-3.1-2,0-3.36,1.22-3.36,3.52v5.47h-1.92V451.48h1.84v1.6a4.54,4.54,0,0,1,3.82-1.7C384.9,451.38,386.72,452.86,386.72,456Z"/><path class="cls-3" d="M389.38,455.76h5.38v1.66h-5.38Z"/><path class="cls-3" d="M56.76,471.24v14.85H54.92V484.4a4.49,4.49,0,0,1-3.78,1.81,5.42,5.42,0,0,1,0-10.83,4.51,4.51,0,0,1,3.7,1.7v-5.84Zm-1.9,9.54a3.57,3.57,0,1,0-3.56,3.74A3.49,3.49,0,0,0,54.86,480.78Z"/><path class="cls-3" d="M70,480.78a5.19,5.19,0,0,1-5.32,5.41,5.12,5.12,0,0,1-5.24-5.47c0-.16,0-.4,0-.58h8.6a3.59,3.59,0,0,0-3.84-3.1,4,4,0,0,0-3.06,1.28l-1.06-1.24a5.32,5.32,0,0,1,4.18-1.72C67.7,475.36,70,477.62,70,480.78Zm-1.92.74h-6.8a3.42,3.42,0,0,0,6.8,0Z"/><path class="cls-3" d="M82.7,480v6.11H80.78V480.2c0-2.08-1-3.1-2.86-3.1-2,0-3.36,1.22-3.36,3.52v5.47H72.64V475.48h1.84v1.6a4.54,4.54,0,0,1,3.82-1.7C80.88,475.38,82.7,476.86,82.7,480Z"/><path class="cls-3" d="M91.75,479.08a7.08,7.08,0,0,1,7.43-7.16,6.92,6.92,0,0,1,5.32,2.18l-1.3,1.26a5.19,5.19,0,0,0-3.94-1.66,5.39,5.39,0,1,0,0,10.77,5.18,5.18,0,0,0,3.94-1.69l1.3,1.27a7,7,0,0,1-5.35,2.2A7.08,7.08,0,0,1,91.75,479.08Z"/><path class="cls-3" d="M119.38,472.08l-6.14,14h-2l-6.17-14h2.16l5,11.5,5.08-11.5Z"/><path class="cls-3" d="M120.61,472.08h1.68l-.14,5.4h-1.42Z"/><path class="cls-3" d="M135.44,480v6.11h-1.92V480.2c0-2.08-1-3.1-2.86-3.1-2,0-3.36,1.22-3.36,3.52v5.47h-1.93V475.48h1.85v1.6a4.53,4.53,0,0,1,3.82-1.7C133.62,475.38,135.44,476.86,135.44,480Z"/><path class="cls-3" d="M138.77,472.4a1.19,1.19,0,1,1,1.18,1.18A1.16,1.16,0,0,1,138.77,472.4Zm.22,3.08h1.93v10.61H139Z"/><path class="cls-3" d="M152.44,484.51v1.58h-8.89v-1.24l6.27-7.79h-6.15v-1.58h8.61v1.26L146,484.51Z"/><path class="cls-3" d="M154.77,472.4a1.19,1.19,0,1,1,1.18,1.18A1.16,1.16,0,0,1,154.77,472.4Zm.22,3.08h1.93v10.61H155Z"/><path class="cls-3" d="M176.93,475.48V490H175v-5.49a4.51,4.51,0,0,1-3.7,1.73,5.42,5.42,0,0,1,0-10.83,4.51,4.51,0,0,1,3.78,1.78v-1.68Zm-1.9,5.3a3.57,3.57,0,1,0-3.56,3.74A3.5,3.5,0,0,0,175,480.78Z"/><path class="cls-3" d="M190.45,475.48v10.61h-1.82v-1.61a4.29,4.29,0,0,1-3.6,1.73c-2.74,0-4.56-1.5-4.56-4.63v-6.1h1.92v5.88c0,2.08,1,3.12,2.86,3.12,2,0,3.28-1.24,3.28-3.52v-5.48Z"/><path class="cls-3" d="M199.81,475.38v1.86a3.39,3.39,0,0,0-.44,0c-2.06,0-3.34,1.26-3.34,3.58v5.29h-1.92V475.48H196v1.78C196.63,476,198,475.38,199.81,475.38Z"/><path class="cls-3" d="M212.19,475.48v10.61h-1.82v-1.61a4.29,4.29,0,0,1-3.6,1.73c-2.74,0-4.56-1.5-4.56-4.63v-6.1h1.92v5.88c0,2.08,1,3.12,2.86,3.12,2,0,3.28-1.24,3.28-3.52v-5.48Z"/><path class="cls-3" d="M215.85,471.24h1.92v14.85h-1.92Z"/><path class="cls-3" d="M231.31,475.48v10.61h-1.82v-1.61a4.29,4.29,0,0,1-3.6,1.73c-2.74,0-4.56-1.5-4.56-4.63v-6.1h1.92v5.88c0,2.08,1,3.12,2.86,3.12,2,0,3.28-1.24,3.28-3.52v-5.48Z"/><path class="cls-3" d="M238.59,486.19l-.24.9c1.16.12,1.74.78,1.74,1.66,0,1.12-1,1.82-2.48,1.82a3.36,3.36,0,0,1-1.78-.44l.42-1a2.64,2.64,0,0,0,1.36.34c.76,0,1.12-.3,1.12-.8s-.34-.78-1.14-.78h-.54l.44-1.72a7.34,7.34,0,0,1-3.86-1.22l.8-1.53a6.73,6.73,0,0,0,3.72,1.11c1.78,0,2.52-.54,2.52-1.45,0-2.38-6.7-.32-6.7-4.54,0-1.9,1.7-3.18,4.42-3.18a7.71,7.71,0,0,1,3.86,1l-.82,1.52a5.54,5.54,0,0,0-3.06-.84c-1.68,0-2.5.62-2.5,1.46,0,2.5,6.72.46,6.72,4.58C242.59,484.85,241.07,486,238.59,486.19Z"/><path class="cls-3" d="M260.73,475.48l-4.64,10.61h-2l-4.64-10.61h2l3.64,8.5,3.72-8.5Z"/><path class="cls-3" d="M271.81,480.78a5.19,5.19,0,0,1-5.32,5.41,5.12,5.12,0,0,1-5.24-5.47c0-.16,0-.4,0-.58h8.6a3.59,3.59,0,0,0-3.84-3.1,4,4,0,0,0-3.06,1.28l-1.06-1.24a5.32,5.32,0,0,1,4.18-1.72C269.53,475.36,271.81,477.62,271.81,480.78Zm-1.92.74h-6.8a3.42,3.42,0,0,0,6.8,0Z"/><path class="cls-3" d="M283,474.56v.92h3.08v1.58h-3v9H281.1v-9h-1.8v-1.58h1.8v-.94a3.19,3.19,0,0,1,3.5-3.42,3.58,3.58,0,0,1,2.16.62l-.58,1.46a2.49,2.49,0,0,0-1.48-.5C283.56,472.7,283,473.34,283,474.56Z"/><path class="cls-3" d="M286.74,480.78a5.51,5.51,0,1,1,5.52,5.43A5.27,5.27,0,0,1,286.74,480.78Zm9.08,0a3.57,3.57,0,1,0-3.56,3.74A3.48,3.48,0,0,0,295.82,480.78Z"/><path class="cls-3" d="M306.12,475.38v1.86a3.39,3.39,0,0,0-.44,0c-2.06,0-3.34,1.26-3.34,3.58v5.29h-1.92V475.48h1.84v1.78C302.94,476,304.26,475.38,306.12,475.38Z"/><path class="cls-3" d="M326.09,480v6.11h-1.92V480.2c0-2.08-1-3.1-2.75-3.1-1.92,0-3.18,1.22-3.18,3.52v5.47h-1.92V480.2c0-2.08-1-3.1-2.74-3.1-1.92,0-3.18,1.22-3.18,3.52v5.47h-1.92V475.48h1.84v1.58a4.3,4.3,0,0,1,3.66-1.68,3.92,3.92,0,0,1,3.68,2,4.78,4.78,0,0,1,4.08-2C324.33,475.38,326.09,476.86,326.09,480Z"/><path class="cls-3" d="M338,479.68v6.41H336.2v-1.4a4,4,0,0,1-3.48,1.52c-2.4,0-3.92-1.28-3.92-3.13,0-1.7,1.1-3.1,4.26-3.1h3v-.38c0-1.62-.94-2.56-2.84-2.56a5.36,5.36,0,0,0-3.36,1.14l-.8-1.44a7.06,7.06,0,0,1,4.38-1.36C336.38,475.38,338,476.78,338,479.68Zm-1.92,3.17v-1.49h-3c-1.9,0-2.44.74-2.44,1.64,0,1.06.88,1.73,2.34,1.73A3.09,3.09,0,0,0,336.1,482.85Z"/><path class="cls-3" d="M358.92,480.78a5.17,5.17,0,0,1-5.36,5.43,4.49,4.49,0,0,1-3.78-1.81v1.69h-1.84V471.24h1.92v5.84a4.51,4.51,0,0,1,3.7-1.7A5.14,5.14,0,0,1,358.92,480.78Zm-1.94,0a3.57,3.57,0,1,0-3.58,3.74A3.49,3.49,0,0,0,357,480.78Z"/><path class="cls-3" d="M369.88,479.68v6.41h-1.82v-1.4a4,4,0,0,1-3.48,1.52c-2.4,0-3.92-1.28-3.92-3.13,0-1.7,1.1-3.1,4.26-3.1h3v-.38c0-1.62-.94-2.56-2.84-2.56a5.36,5.36,0,0,0-3.36,1.14l-.8-1.44a7.06,7.06,0,0,1,4.38-1.36C368.24,475.38,369.88,476.78,369.88,479.68ZM368,482.85v-1.49h-3c-1.9,0-2.44.74-2.44,1.64,0,1.06.88,1.73,2.34,1.73A3.09,3.09,0,0,0,368,482.85Z"/><path class="cls-3" d="M380.2,486.09,377.14,482l-3.1,4.07H371.9l4.18-5.43-4-5.18h2.14l2.92,3.82,2.9-3.82h2.1l-4,5.18,4.22,5.43Z"/><path class="cls-3" d="M384.48,475.48h1.92v10.61h-1.92Z"/><path class="cls-3" d="M389.38,479.76h5.38v1.66h-5.38Z"/><path class="cls-3" d="M64.36,504v6.11H62.44V504.2c0-2.08-1-3.1-2.74-3.1-1.92,0-3.18,1.22-3.18,3.52v5.47H54.6V504.2c0-2.08-1-3.1-2.74-3.1-1.92,0-3.18,1.22-3.18,3.52v5.47H46.76V499.48H48.6v1.58a4.3,4.3,0,0,1,3.66-1.68,3.92,3.92,0,0,1,3.68,2,4.78,4.78,0,0,1,4.08-2C62.6,499.38,64.36,500.86,64.36,504Z"/><path class="cls-3" d="M67.9,499.48h1.92v10.61H67.9Z"/><path class="cls-3" d="M83.54,504v6.11H81.62V504.2c0-2.08-1-3.1-2.86-3.1-2,0-3.36,1.22-3.36,3.52v5.47H73.48V499.48h1.84v1.6a4.54,4.54,0,0,1,3.82-1.7C81.72,499.38,83.54,500.86,83.54,504Z"/><path class="cls-3" d="M97.16,495.24v14.85H95.32V508.4a4.49,4.49,0,0,1-3.78,1.81,5.42,5.42,0,0,1,0-10.83,4.51,4.51,0,0,1,3.7,1.7v-5.84Zm-1.9,9.54a3.57,3.57,0,1,0-3.56,3.74A3.49,3.49,0,0,0,95.26,504.78Z"/><path class="cls-3" d="M109.2,503.68v6.41h-1.82v-1.4a4,4,0,0,1-3.48,1.52c-2.4,0-3.92-1.28-3.92-3.13,0-1.7,1.1-3.1,4.26-3.1h3v-.38c0-1.62-.94-2.56-2.84-2.56a5.36,5.36,0,0,0-3.36,1.14l-.8-1.44a7.06,7.06,0,0,1,4.38-1.36C107.56,499.38,109.2,500.78,109.2,503.68Zm-1.92,3.17v-1.49h-3c-1.9,0-2.44.74-2.44,1.64,0,1.06.88,1.73,2.34,1.73A3.09,3.09,0,0,0,107.28,506.85Z"/><path class="cls-3" d="M122.82,504v6.11H120.9V504.2c0-2.08-1-3.1-2.86-3.1-2,0-3.36,1.22-3.36,3.52v5.47h-1.92V499.48h1.84v1.6a4.54,4.54,0,0,1,3.82-1.7C121,499.38,122.82,500.86,122.82,504Z"/><path class="cls-3" d="M142.65,499.48v9.16c0,3.75-1.9,5.45-5.5,5.45a7.85,7.85,0,0,1-5.06-1.58L133,511a6.47,6.47,0,0,0,4.08,1.38c2.5,0,3.64-1.16,3.64-3.56V508a4.87,4.87,0,0,1-3.82,1.63,5.14,5.14,0,1,1,0-10.26,4.84,4.84,0,0,1,3.92,1.74v-1.64Zm-1.88,5a3.66,3.66,0,0,0-7.3,0,3.65,3.65,0,0,0,7.3,0Z"/><path class="cls-3" d="M156.19,499.48v10.61h-1.82v-1.61a4.29,4.29,0,0,1-3.6,1.73c-2.74,0-4.56-1.5-4.56-4.63v-6.1h1.92v5.88c0,2.08,1,3.12,2.86,3.12,2,0,3.28-1.24,3.28-3.52v-5.48Zm-7.86-2.9a1,1,0,1,1,2,0,1,1,0,0,1-2,0Zm3.72,0a1,1,0,1,1,2,0,1,1,0,0,1-2,0Z"/><path class="cls-3" d="M158.87,504.78a5.3,5.3,0,0,1,5.6-5.4,4.73,4.73,0,0,1,4.32,2.26l-1.46.94a3.3,3.3,0,0,0-2.88-1.52,3.73,3.73,0,0,0,0,7.46,3.28,3.28,0,0,0,2.88-1.52l1.46.93a4.74,4.74,0,0,1-4.32,2.28A5.32,5.32,0,0,1,158.87,504.78Z"/><path class="cls-3" d="M171.13,495.24h1.92v14.85h-1.92Z"/><path class="cls-3" d="M186.29,504.78a5.19,5.19,0,0,1-5.32,5.41,5.12,5.12,0,0,1-5.24-5.47c0-.16,0-.4,0-.58h8.6a3.59,3.59,0,0,0-3.84-3.1,4,4,0,0,0-3.06,1.28l-1.06-1.24a5.32,5.32,0,0,1,4.18-1.72C184,499.36,186.29,501.62,186.29,504.78Zm-1.92.74h-6.8a3.42,3.42,0,0,0,6.8,0Z"/><path class="cls-3" d="M199,504v6.11h-1.92V504.2c0-2.08-1-3.1-2.86-3.1-2,0-3.36,1.22-3.36,3.52v5.47H189V499.48h1.84v1.6a4.54,4.54,0,0,1,3.82-1.7C197.19,499.38,199,500.86,199,504Z"/><path class="cls-3" d="M212.63,495.24v14.85h-1.84V508.4a4.49,4.49,0,0,1-3.78,1.81,5.42,5.42,0,0,1,0-10.83,4.51,4.51,0,0,1,3.7,1.7v-5.84Zm-1.9,9.54a3.57,3.57,0,1,0-3.56,3.74A3.49,3.49,0,0,0,210.73,504.78Z"/><path class="cls-3" d="M216.05,496.4a1.18,1.18,0,0,1,2.36,0,1.18,1.18,0,0,1-2.36,0Zm.22,3.08h1.92v10.61h-1.92Z"/><path class="cls-3" d="M227.55,499.38v1.86a3.39,3.39,0,0,0-.44,0c-2.06,0-3.34,1.26-3.34,3.58v5.29h-1.92V499.48h1.84v1.78C224.37,500,225.69,499.38,227.55,499.38Z"/><path class="cls-3" d="M229.69,496.4a1.18,1.18,0,0,1,2.36,0,1.18,1.18,0,0,1-2.36,0Zm.22,3.08h1.92v10.61h-1.92Z"/><path class="cls-3" d="M246.47,504.78a5.17,5.17,0,0,1-5.36,5.43,4.49,4.49,0,0,1-3.78-1.81v1.69h-1.84V495.24h1.92v5.84a4.51,4.51,0,0,1,3.7-1.7A5.14,5.14,0,0,1,246.47,504.78Zm-1.94,0a3.57,3.57,0,1,0-3.58,3.74A3.49,3.49,0,0,0,244.53,504.78Z"/><path class="cls-3" d="M250.67,508.82a4.09,4.09,0,0,1-.34,1.45l-.94,2.78h-1.26l.74-3a1.28,1.28,0,0,1-.84-1.25,1.3,1.3,0,0,1,1.34-1.35A1.29,1.29,0,0,1,250.67,508.82Z"/><path class="cls-3" d="M258.58,504.78a5.52,5.52,0,1,1,5.53,5.43A5.28,5.28,0,0,1,258.58,504.78Zm9.09,0a3.58,3.58,0,1,0-7.15,0,3.58,3.58,0,1,0,7.15,0Zm-6.46-8.2a1,1,0,1,1,2,0,1,1,0,0,1-2,0Zm3.72,0a1,1,0,1,1,2,0,1,1,0,0,1-2,0Z"/><path class="cls-3" d="M280,508.51v1.58h-8.89v-1.24l6.27-7.79H271.2v-1.58h8.61v1.26l-6.27,7.77Z"/><path class="cls-3" d="M292,504.78a5.2,5.2,0,0,1-5.33,5.41,5.12,5.12,0,0,1-5.24-5.47c0-.16,0-.4,0-.58H290a3.6,3.6,0,0,0-3.84-3.1,4,4,0,0,0-3.07,1.28l-1.06-1.24a5.32,5.32,0,0,1,4.18-1.72C289.67,499.36,292,501.62,292,504.78Zm-1.92.74h-6.81a3.43,3.43,0,0,0,6.81,0Z"/><path class="cls-3" d="M294.6,495.24h1.92v14.85H294.6Z"/><path class="cls-3" d="M316.32,495.24v14.85h-1.84V508.4a4.49,4.49,0,0,1-3.78,1.81,5.42,5.42,0,0,1,0-10.83,4.51,4.51,0,0,1,3.7,1.7v-5.84Zm-1.9,9.54a3.57,3.57,0,1,0-3.56,3.74A3.49,3.49,0,0,0,314.42,504.78Z"/><path class="cls-3" d="M319.74,496.4a1.18,1.18,0,0,1,2.36,0,1.18,1.18,0,1,1-2.36,0Zm.22,3.08h1.92v10.61H320Z"/><path class="cls-3" d="M333.4,508.51v1.58h-8.88v-1.24l6.26-7.79h-6.14v-1.58h8.6v1.26L327,508.51Z"/><path class="cls-3" d="M344.36,503.68v6.41h-1.82v-1.4a4,4,0,0,1-3.48,1.52c-2.4,0-3.92-1.28-3.92-3.13,0-1.7,1.1-3.1,4.26-3.1h3v-.38c0-1.62-.94-2.56-2.84-2.56a5.36,5.36,0,0,0-3.36,1.14l-.8-1.44a7.06,7.06,0,0,1,4.38-1.36C342.72,499.38,344.36,500.78,344.36,503.68Zm-1.92,3.17v-1.49h-3c-1.9,0-2.44.74-2.44,1.64,0,1.06.88,1.73,2.34,1.73A3.09,3.09,0,0,0,342.44,506.85Z"/><path class="cls-3" d="M357.1,499.48,352,511.15c-.94,2.24-2.16,2.94-3.78,2.94a4,4,0,0,1-2.72-1l.82-1.44a2.71,2.71,0,0,0,1.9.78c.92,0,1.5-.42,2-1.64l.34-.74-4.68-10.59h2l3.7,8.49,3.66-8.49Z"/><path class="cls-3" d="M369,504v6.11H367V504.2c0-2.08-1-3.1-2.86-3.1-2,0-3.36,1.22-3.36,3.52v5.47H358.9V499.48h1.84v1.6a4.54,4.54,0,0,1,3.82-1.7C367.14,499.38,369,500.86,369,504Z"/><path class="cls-3" d="M372.52,495.24h1.92v14.85h-1.92Z"/><path class="cls-3" d="M386.5,503.68v6.41h-1.82v-1.4a4,4,0,0,1-3.48,1.52c-2.4,0-3.92-1.28-3.92-3.13,0-1.7,1.1-3.1,4.26-3.1h3v-.38c0-1.62-.94-2.56-2.84-2.56a5.36,5.36,0,0,0-3.36,1.14l-.8-1.44a7.06,7.06,0,0,1,4.38-1.36C384.86,499.38,386.5,500.78,386.5,503.68Zm-1.92,3.17v-1.49h-3c-1.9,0-2.44.74-2.44,1.64,0,1.06.88,1.73,2.34,1.73A3.09,3.09,0,0,0,384.58,506.85Z"/><path class="cls-3" d="M389.38,503.76h5.38v1.66h-5.38Z"/><path class="cls-3" d="M52.46,523.38v1.86a3.39,3.39,0,0,0-.44,0c-2.06,0-3.34,1.26-3.34,3.58v5.29H46.76V523.48H48.6v1.78C49.28,524,50.6,523.38,52.46,523.38Z"/><path class="cls-3" d="M54.64,523.48h1.92v10.61H54.64Z"/><path class="cls-3" d="M77.64,528v6.11H75.72V528.2c0-2.08-1-3.1-2.74-3.1-1.92,0-3.18,1.22-3.18,3.52v5.47H67.88V528.2c0-2.08-1-3.1-2.74-3.1-1.93,0-3.19,1.22-3.19,3.52v5.47H60V523.48h1.84v1.58a4.31,4.31,0,0,1,3.66-1.68,3.93,3.93,0,0,1,3.69,2,4.78,4.78,0,0,1,4.08-2C75.88,523.38,77.64,524.86,77.64,528Z"/><path class="cls-3" d="M81,523.48h1.92v10.61H81Z"/><path class="cls-3" d="M94.25,532.51v1.58H85.37v-1.24l6.26-7.79H85.49v-1.58h8.6v1.26l-6.26,7.77Z"/><path class="cls-3" d="M100.89,520.4a1.18,1.18,0,0,1,2.36,0,1.18,1.18,0,1,1-2.36,0Zm.22,3.08H103v10.61h-1.92Z"/><path class="cls-3" d="M106.51,519.24h1.92v14.85h-1.92Z"/><path class="cls-3" d="M121.49,528.78a5.19,5.19,0,0,1-5.32,5.41,5.12,5.12,0,0,1-5.24-5.47c0-.16,0-.4,0-.58h8.6a3.59,3.59,0,0,0-3.84-3.1,4,4,0,0,0-3.06,1.28l-1.06-1.24a5.32,5.32,0,0,1,4.18-1.72C119.21,523.36,121.49,525.62,121.49,528.78Zm-1.92.74h-6.8a3.42,3.42,0,0,0,6.8,0Z"/><path class="cls-3" d="M128.23,520.4a1.19,1.19,0,1,1,1.18,1.18A1.16,1.16,0,0,1,128.23,520.4Zm.22,3.08h1.93v10.61h-1.93Z"/><path class="cls-3" d="M137.47,534.19l-.24.9c1.16.12,1.74.78,1.74,1.66,0,1.12-1,1.82-2.48,1.82a3.36,3.36,0,0,1-1.78-.44l.42-1a2.64,2.64,0,0,0,1.36.34c.76,0,1.12-.3,1.12-.8s-.34-.78-1.14-.78h-.54l.44-1.72a7.34,7.34,0,0,1-3.86-1.22l.8-1.53a6.73,6.73,0,0,0,3.72,1.11c1.78,0,2.52-.54,2.52-1.45,0-2.38-6.7-.32-6.7-4.54,0-1.9,1.7-3.18,4.42-3.18a7.71,7.71,0,0,1,3.86,1l-.82,1.52a5.54,5.54,0,0,0-3.06-.84c-1.68,0-2.5.62-2.5,1.46,0,2.5,6.72.46,6.72,4.58C141.47,532.85,140,534,137.47,534.19Z"/><path class="cls-3" d="M165.78,528v6.11h-1.92V528.2c0-2.08-1-3.1-2.74-3.1-1.92,0-3.18,1.22-3.18,3.52v5.47H156V528.2c0-2.08-1-3.1-2.74-3.1-1.92,0-3.18,1.22-3.18,3.52v5.47h-1.92V523.48H150v1.58a4.3,4.3,0,0,1,3.66-1.68,3.92,3.92,0,0,1,3.68,2,4.78,4.78,0,0,1,4.08-2C164,523.38,165.78,524.86,165.78,528Z"/><path class="cls-3" d="M179,523.48v10.61h-1.83v-1.61a4.29,4.29,0,0,1-3.6,1.73c-2.74,0-4.56-1.5-4.56-4.63v-6.1H171v5.88c0,2.08,1,3.12,2.86,3.12,2,0,3.29-1.24,3.29-3.52v-5.48Zm-7.87-2.9a1,1,0,1,1,2,0,1,1,0,0,1-2,0Zm3.72,0a1,1,0,1,1,2,0,1,1,0,1,1-2,0Z"/><path class="cls-3" d="M188.19,523.38v1.86a3.39,3.39,0,0,0-.44,0c-2.06,0-3.34,1.26-3.34,3.58v5.29h-1.92V523.48h1.84v1.78C185,524,186.33,523.38,188.19,523.38Z"/><path class="cls-3" d="M198.75,527.68v6.41h-1.82v-1.4a4,4,0,0,1-3.48,1.52c-2.4,0-3.92-1.28-3.92-3.13s1.1-3.1,4.26-3.1h3v-.38c0-1.62-.94-2.56-2.84-2.56a5.36,5.36,0,0,0-3.36,1.14l-.8-1.44a7.06,7.06,0,0,1,4.38-1.36C197.11,523.38,198.75,524.78,198.75,527.68Zm-1.92,3.17v-1.49h-3c-1.9,0-2.44.74-2.44,1.64,0,1.06.88,1.73,2.34,1.73A3.09,3.09,0,0,0,196.83,530.85Z"/><path class="cls-3" d="M201.21,528.78a5.3,5.3,0,0,1,5.6-5.4,4.73,4.73,0,0,1,4.32,2.26l-1.46.94a3.3,3.3,0,0,0-2.88-1.52,3.73,3.73,0,0,0,0,7.46,3.28,3.28,0,0,0,2.88-1.52l1.46.93a4.74,4.74,0,0,1-4.32,2.28A5.32,5.32,0,0,1,201.21,528.78Z"/><path class="cls-3" d="M213.21,520.4a1.18,1.18,0,0,1,2.36,0,1.18,1.18,0,1,1-2.36,0Zm.22,3.08h1.92v10.61h-1.92Z"/><path class="cls-3" d="M228.41,528.78a5.2,5.2,0,0,1-5.33,5.41,5.12,5.12,0,0,1-5.24-5.47c0-.16,0-.4,0-.58h8.61a3.6,3.6,0,0,0-3.84-3.1,4,4,0,0,0-3.07,1.28l-1.06-1.24a5.32,5.32,0,0,1,4.18-1.72C226.13,523.36,228.41,525.62,228.41,528.78Zm-1.92.74h-6.81a3.43,3.43,0,0,0,6.81,0Z"/><path class="cls-3" d="M236.84,533.47a3.62,3.62,0,0,1-2.32.74,3,3,0,0,1-3.36-3.32v-5.83h-1.8v-1.58h1.8v-2.32h1.92v2.32h3v1.58h-3v5.75a1.57,1.57,0,0,0,1.66,1.78,2.48,2.48,0,0,0,1.5-.5Z"/><path class="cls-3" d="M239,519.24h1.92v14.85H239Z"/><path class="cls-3" d="M254,528.78a5.19,5.19,0,0,1-5.32,5.41,5.12,5.12,0,0,1-5.24-5.47c0-.16,0-.4,0-.58H252a3.59,3.59,0,0,0-3.84-3.1,4,4,0,0,0-3.06,1.28l-1.06-1.24a5.32,5.32,0,0,1,4.18-1.72C251.68,523.36,254,525.62,254,528.78Zm-1.92.74h-6.8a3.42,3.42,0,0,0,6.8,0Z"/><path class="cls-3" d="M262.14,523.38v1.86a3.39,3.39,0,0,0-.44,0c-2.06,0-3.34,1.26-3.34,3.58v5.29h-1.92V523.48h1.84v1.78C259,524,260.28,523.38,262.14,523.38Z"/><path class="cls-3" d="M264.09,520.4a1.18,1.18,0,0,1,2.36,0,1.18,1.18,0,0,1-2.36,0Zm.22,3.08h1.92v10.61h-1.92Z"/><path class="cls-3" d="M279.77,528v6.11h-1.92V528.2c0-2.08-1-3.1-2.86-3.1-2,0-3.36,1.22-3.36,3.52v5.47h-1.92V523.48h1.84v1.6a4.54,4.54,0,0,1,3.82-1.7C278,523.38,279.77,524.86,279.77,528Z"/><path class="cls-3" d="M293.21,519.24v14.85h-1.84V532.4a4.49,4.49,0,0,1-3.78,1.81,5.42,5.42,0,0,1,0-10.83,4.51,4.51,0,0,1,3.7,1.7v-5.84Zm-1.9,9.54a3.57,3.57,0,1,0-3.56,3.74A3.49,3.49,0,0,0,291.31,528.78Z"/><path class="cls-3" d="M306.25,528.78a5.19,5.19,0,0,1-5.32,5.41,5.12,5.12,0,0,1-5.24-5.47c0-.16,0-.4,0-.58h8.6a3.59,3.59,0,0,0-3.84-3.1,4,4,0,0,0-3.06,1.28l-1.06-1.24a5.32,5.32,0,0,1,4.18-1.72C304,523.36,306.25,525.62,306.25,528.78Zm-1.92.74h-6.8a3.42,3.42,0,0,0,6.8,0Z"/><path class="cls-3" d="M323.09,523.48v10.61h-1.82v-1.61a4.29,4.29,0,0,1-3.6,1.73c-2.74,0-4.56-1.5-4.56-4.63v-6.1H315v5.88c0,2.08,1,3.12,2.86,3.12,2,0,3.28-1.24,3.28-3.52v-5.48Zm-7.86-2.9a1,1,0,1,1,2,0,1,1,0,0,1-2,0Zm3.72,0a1,1,0,1,1,2,0,1,1,0,1,1-2,0Z"/><path class="cls-3" d="M325.23,533l.8-1.53a6.73,6.73,0,0,0,3.72,1.11c1.78,0,2.52-.54,2.52-1.45,0-2.38-6.7-.32-6.7-4.54,0-1.9,1.7-3.18,4.42-3.18a7.71,7.71,0,0,1,3.86,1l-.82,1.52A5.54,5.54,0,0,0,330,525c-1.68,0-2.5.62-2.5,1.46,0,2.5,6.72.46,6.72,4.58,0,1.92-1.76,3.15-4.58,3.15A7.65,7.65,0,0,1,325.23,533Z"/><path class="cls-3" d="M342.37,533.47a3.62,3.62,0,0,1-2.32.74,3,3,0,0,1-3.36-3.32v-5.83h-1.8v-1.58h1.8v-2.32h1.92v2.32h3v1.58h-3v5.75a1.57,1.57,0,0,0,1.66,1.78,2.48,2.48,0,0,0,1.5-.5Z"/><path class="cls-3" d="M354.39,523.48v10.61h-1.82v-1.61a4.29,4.29,0,0,1-3.6,1.73c-2.74,0-4.56-1.5-4.56-4.63v-6.1h1.92v5.88c0,2.08,1,3.12,2.86,3.12,2,0,3.28-1.24,3.28-3.52v-5.48Zm-7.86-2.9a1,1,0,1,1,2,0,1,1,0,1,1-2,0Zm3.72,0a1,1,0,1,1,2,0,1,1,0,1,1-2,0Z"/><path class="cls-3" d="M367.93,528v6.11H366V528.2c0-2.08-1-3.1-2.86-3.1-2,0-3.37,1.22-3.37,3.52v5.47h-1.92V523.48h1.84v1.6a4.54,4.54,0,0,1,3.82-1.7C366.11,523.38,367.93,524.86,367.93,528Z"/><path class="cls-3" d="M371.3,519.24h1.92v14.85H371.3Z"/><path class="cls-3" d="M386.58,523.48v10.61h-1.82v-1.61a4.29,4.29,0,0,1-3.6,1.73c-2.74,0-4.56-1.5-4.56-4.63v-6.1h1.92v5.88c0,2.08,1,3.12,2.86,3.12,2,0,3.28-1.24,3.28-3.52v-5.48Zm-7.86-2.9a1,1,0,1,1,2,0,1,1,0,0,1-2,0Zm3.72,0a1,1,0,1,1,2,0,1,1,0,1,1-2,0Z"/><path class="cls-3" d="M389.38,527.76h5.38v1.66h-5.38Z"/><path class="cls-3" d="M56.14,547.48,51,559.15c-.94,2.24-2.16,2.94-3.78,2.94a4,4,0,0,1-2.72-1l.82-1.44a2.71,2.71,0,0,0,1.9.78c.92,0,1.5-.42,2-1.64l.34-.74L44.9,547.48h2L50.6,556l3.66-8.49Z"/><path class="cls-3" d="M67.82,547.48v10.61H66v-1.61a4.29,4.29,0,0,1-3.6,1.73c-2.74,0-4.56-1.5-4.56-4.63v-6.1h1.92v5.88c0,2.08,1,3.12,2.86,3.12,2,0,3.28-1.24,3.28-3.52v-5.48ZM60,544.58a1,1,0,1,1,2,0,1,1,0,0,1-2,0Zm3.72,0a1,1,0,1,1,2,0,1,1,0,1,1-2,0Z"/><path class="cls-3" d="M81.54,552v6.11H79.62V552.2c0-2.08-1-3.1-2.86-3.1-2,0-3.36,1.22-3.36,3.52v5.47H71.48V547.48h1.84v1.6a4.54,4.54,0,0,1,3.82-1.7C79.72,547.38,81.54,548.86,81.54,552Z"/><path class="cls-3" d="M95,547.48v10.61H93.16v-1.61a4.29,4.29,0,0,1-3.6,1.73c-2.74,0-4.56-1.5-4.56-4.63v-6.1h1.92v5.88c0,2.08,1,3.12,2.86,3.12,2,0,3.28-1.24,3.28-3.52v-5.48Zm-7.86-2.9a1,1,0,1,1,2,0,1,1,0,0,1-2,0Zm3.72,0a1,1,0,1,1,2,0,1,1,0,0,1-2,0Z"/><path class="cls-3" d="M106.5,556.51v1.58H97.62v-1.24l6.26-7.79H97.74v-1.58h8.6v1.26l-6.26,7.77Z"/><path class="cls-3" d="M118.94,547.48v10.61h-1.82v-1.61a4.29,4.29,0,0,1-3.6,1.73c-2.74,0-4.56-1.5-4.56-4.63v-6.1h1.92v5.88c0,2.08,1,3.12,2.86,3.12,2,0,3.28-1.24,3.28-3.52v-5.48Zm-7.86-2.9a1,1,0,1,1,2,0,1,1,0,0,1-2,0Zm3.72,0a1,1,0,1,1,2,0,1,1,0,0,1-2,0Z"/><path class="cls-3" d="M127,552.78a5.51,5.51,0,1,1,5.52,5.43A5.27,5.27,0,0,1,127,552.78Zm9.08,0a3.57,3.57,0,1,0-3.56,3.74A3.48,3.48,0,0,0,136.08,552.78Z"/><path class="cls-3" d="M146.38,547.38v1.86a3.39,3.39,0,0,0-.44,0c-2.06,0-3.34,1.26-3.34,3.58v5.29h-1.92V547.48h1.84v1.78C143.2,548,144.52,547.38,146.38,547.38Z"/><path class="cls-3" d="M155.14,557.47a3.62,3.62,0,0,1-2.32.74,3,3,0,0,1-3.36-3.32v-5.83h-1.8v-1.58h1.8v-2.32h1.92v2.32h3v1.58h-3v5.75a1.57,1.57,0,0,0,1.66,1.78,2.48,2.48,0,0,0,1.5-.5Z"/><path class="cls-3" d="M165.86,551.68v6.41H164v-1.4a4,4,0,0,1-3.48,1.52c-2.4,0-3.92-1.28-3.92-3.13s1.1-3.1,4.26-3.1h3v-.38c0-1.62-.94-2.56-2.84-2.56a5.36,5.36,0,0,0-3.36,1.14l-.8-1.44a7.06,7.06,0,0,1,4.38-1.36C164.22,547.38,165.86,548.78,165.86,551.68Zm-1.92,3.17v-1.49h-3c-1.9,0-2.44.74-2.44,1.64,0,1.06.88,1.73,2.34,1.73A3.09,3.09,0,0,0,163.94,554.85Z"/><path class="cls-3" d="M178.6,547.48l-5.14,11.67c-.94,2.24-2.16,2.94-3.78,2.94a4,4,0,0,1-2.72-1l.82-1.44a2.71,2.71,0,0,0,1.9.78c.92,0,1.5-.42,2-1.64l.34-.74-4.68-10.59h2l3.7,8.49,3.66-8.49Z"/><path class="cls-3" d="M188.46,551.68v6.41h-1.82v-1.4a4,4,0,0,1-3.48,1.52c-2.4,0-3.92-1.28-3.92-3.13s1.1-3.1,4.26-3.1h3v-.38c0-1.62-.94-2.56-2.84-2.56a5.36,5.36,0,0,0-3.36,1.14l-.8-1.44a7.06,7.06,0,0,1,4.38-1.36C186.82,547.38,188.46,548.78,188.46,551.68Zm-1.92,3.17v-1.49h-3c-1.9,0-2.44.74-2.44,1.64,0,1.06.88,1.73,2.34,1.73A3.09,3.09,0,0,0,186.54,554.85Z"/><path class="cls-3" d="M204.88,555l1.46.93a4.7,4.7,0,0,1-4.28,2.28l-.24.88c1.16.12,1.74.78,1.74,1.66,0,1.12-1,1.82-2.48,1.82a3.36,3.36,0,0,1-1.78-.44l.42-1a2.64,2.64,0,0,0,1.36.34c.76,0,1.12-.3,1.12-.8s-.34-.78-1.14-.78h-.54l.46-1.78a5.41,5.41,0,0,1,1-10.75,4.73,4.73,0,0,1,4.32,2.26l-1.46.94a3.3,3.3,0,0,0-2.88-1.52,3.73,3.73,0,0,0,0,7.46A3.28,3.28,0,0,0,204.88,555Z"/><path class="cls-3" d="M208.82,547.48h1.92v10.61h-1.92Z"/><path class="cls-3" d="M221.16,558.09,218.1,554l-3.1,4.07h-2.14l4.18-5.43-4-5.18h2.14l2.92,3.82,2.9-3.82h2.1l-4,5.18,4.22,5.43Z"/><path class="cls-3" d="M233.64,551.68v6.41h-1.82v-1.4a4,4,0,0,1-3.48,1.52c-2.4,0-3.92-1.28-3.92-3.13s1.1-3.1,4.26-3.1h3v-.38c0-1.62-.94-2.56-2.84-2.56a5.36,5.36,0,0,0-3.36,1.14l-.8-1.44a7.06,7.06,0,0,1,4.38-1.36C232,547.38,233.64,548.78,233.64,551.68Zm-1.92,3.17v-1.49h-3c-1.9,0-2.44.74-2.44,1.64,0,1.06.88,1.73,2.34,1.73A3.09,3.09,0,0,0,231.72,554.85Z"/><path class="cls-3" d="M242.9,547.38v1.86a3.39,3.39,0,0,0-.44,0c-2.06,0-3.34,1.26-3.34,3.58v5.29H237.2V547.48H239v1.78C239.72,548,241,547.38,242.9,547.38Z"/><path class="cls-3" d="M255.16,543.24v14.85h-1.84V556.4a4.49,4.49,0,0,1-3.78,1.81,5.42,5.42,0,0,1,0-10.83,4.51,4.51,0,0,1,3.7,1.7v-5.84Zm-1.9,9.54a3.57,3.57,0,1,0-3.56,3.74A3.49,3.49,0,0,0,253.26,552.78Z"/><path class="cls-3" d="M267.2,551.68v6.41h-1.82v-1.4a4,4,0,0,1-3.48,1.52c-2.4,0-3.92-1.28-3.92-3.13s1.1-3.1,4.26-3.1h3v-.38c0-1.62-.94-2.56-2.84-2.56a5.36,5.36,0,0,0-3.36,1.14l-.8-1.44a7.06,7.06,0,0,1,4.38-1.36C265.56,547.38,267.2,548.78,267.2,551.68Zm-1.92,3.17v-1.49h-3c-1.9,0-2.44.74-2.44,1.64,0,1.06.88,1.73,2.34,1.73A3.09,3.09,0,0,0,265.28,554.85Z"/><path class="cls-3" d="M287.12,552.78a5.17,5.17,0,0,1-5.36,5.43A4.49,4.49,0,0,1,278,556.4v1.69h-1.84V543.24h1.92v5.84a4.51,4.51,0,0,1,3.7-1.7A5.14,5.14,0,0,1,287.12,552.78Zm-1.94,0a3.57,3.57,0,1,0-3.58,3.74A3.49,3.49,0,0,0,285.18,552.78Z"/><path class="cls-3" d="M289.56,544.4a1.18,1.18,0,0,1,2.36,0,1.18,1.18,0,0,1-2.36,0Zm.22,3.08h1.92v10.61h-1.92Z"/><path class="cls-3" d="M295.36,543.24h1.92v14.85h-1.92Z"/><path class="cls-3" d="M310.52,552.78a5.19,5.19,0,0,1-5.32,5.41,5.12,5.12,0,0,1-5.24-5.47c0-.16,0-.4,0-.58h8.6a3.59,3.59,0,0,0-3.84-3.1,4,4,0,0,0-3.06,1.28l-1.06-1.24a5.32,5.32,0,0,1,4.18-1.72C308.24,547.36,310.52,549.62,310.52,552.78Zm-1.92.74h-6.8a3.42,3.42,0,0,0,6.8,0Z"/><path class="cls-3" d="M318.88,547.38v1.86a3.39,3.39,0,0,0-.44,0c-2.06,0-3.34,1.26-3.34,3.58v5.29h-1.92V547.48H315v1.78C315.7,548,317,547.38,318.88,547.38Z"/><path class="cls-3" d="M320,557l.8-1.53a6.73,6.73,0,0,0,3.72,1.11c1.78,0,2.52-.54,2.52-1.45,0-2.38-6.7-.32-6.7-4.54,0-1.9,1.7-3.18,4.42-3.18a7.71,7.71,0,0,1,3.86,1l-.82,1.52a5.54,5.54,0,0,0-3.06-.84c-1.68,0-2.5.62-2.5,1.46,0,2.5,6.72.46,6.72,4.58,0,1.92-1.76,3.15-4.58,3.15A7.65,7.65,0,0,1,320,557Z"/><path class="cls-3" d="M331.12,544.4a1.18,1.18,0,0,1,2.36,0,1.18,1.18,0,0,1-2.36,0Zm.22,3.08h1.92v10.61h-1.92Z"/><path class="cls-3" d="M347,552v6.11h-1.92V552.2c0-2.08-1-3.1-2.86-3.1-2,0-3.36,1.22-3.36,3.52v5.47h-1.92V547.48h1.84v1.6a4.54,4.54,0,0,1,3.82-1.7C345.16,547.38,347,548.86,347,552Z"/><path class="cls-3" d="M350.32,544.4a1.18,1.18,0,0,1,2.36,0,1.18,1.18,0,0,1-2.36,0Zm.22,3.08h1.92v10.61h-1.92Z"/><path class="cls-3" d="M364,556.51v1.58H355.1v-1.24l6.26-7.79h-6.14v-1.58h8.6v1.26l-6.26,7.77Z"/><path class="cls-3" d="M365.7,556.82a1.33,1.33,0,0,1,1.36-1.35,1.31,1.31,0,0,1,1.32,1.35,1.34,1.34,0,0,1-1.32,1.39A1.36,1.36,0,0,1,365.7,556.82Z"/><path class="cls-4" d="M778.07,553.8c.34.23,1.16-.53,1.1.55,0,.63,0,1.27,0,1.91v363.6c-.6.18-1.21.36-1.82.52L703.4,939.29l-171.81,44q-85.91,22-171.8,44Q270.58,1050,181.4,1072.89c-8.92,2.29-17.93,4.29-26.73,7.06q-76.21,0-152.43,0c-1.87,0-2.24-.37-2.24-2.24Q.09,915.49.05,753.22l85.26-21.84,174-44.51,174.21-44.58,167.37-42.87q77.37-19.8,154.74-39.63C763.1,557.86,770.71,556.29,778.07,553.8Z"/><path class="cls-4" d="M1080.48,840.66v162.55c-.61.17-1.21.36-1.82.52l-88.2,22.59q-89.38,22.88-178.77,45.74c-8.85,2.27-17.67,4.67-26.51,7-4.6,0-9.2-.08-13.79,0-1.56,0-2-.23-2-1.91.08-16.68.05-33.36.05-50V919.77a5.48,5.48,0,0,0,2.62-.38Q829.48,904.68,886.88,890q85.3-21.82,170.62-43.65C1065.14,844.4,1072.72,842.15,1080.48,840.66Z"/><rect class="cls-21" x="403.08" y="68.47" width="639.59" height="904.57"/><rect class="cls-22" x="403.08" y="68.47" width="639.59" height="175.98"/><path class="cls-4" d="M544.35,104.69H561.7A116.49,116.49,0,0,1,678.19,221.18V949a0,0,0,0,1,0,0H427.86a0,0,0,0,1,0,0V221.18A116.49,116.49,0,0,1,544.35,104.69Z"/><path class="cls-23" d="M460,416.42l0,0c.29-.25.56-.53.82-.8l.09-.1c.15-.15.29-.3.46-.45a1.54,1.54,0,0,1,2.32,0l2.39,2.39a1.56,1.56,0,0,1,.53,1.13,1.62,1.62,0,0,1-.53,1.15l-1.48,1.48a.28.28,0,0,0-.1.17.22.22,0,0,0,0,.11l0,0c.08.14.17.3.25.47s.16.32.25.47a15.17,15.17,0,0,0,3.36,3.69h0a9,9,0,0,0,2.09,1.29h0c.15.05.19.05.29-.06h0c.33-.38.67-.72,1.07-1.11l.25-.26.12-.11a1.51,1.51,0,0,1,2.33,0l1.17,1.18.22.21.21.2c.3.29.54.54.79.8h0a1.57,1.57,0,0,1,.51,1.13,1.64,1.64,0,0,1-.5,1.13v0l-1.48,1.48a2.67,2.67,0,0,1-1.72.8,6.63,6.63,0,0,1-3-.53,18.22,18.22,0,0,1-5.4-3.24,19.84,19.84,0,0,1-5.2-6.65,10,10,0,0,1-1.08-3.65,1.93,1.93,0,0,1,0-.24A2.78,2.78,0,0,1,460,416.42Z"/><path class="cls-23" d="M477.92,462.76a.25.25,0,0,0,0-.08.2.2,0,0,0,0-.07.64.64,0,0,1,0-.07l0-.06,0-.06-.05-.06s0,0,0,0l0,0-.06-.05-.05,0-.06,0-.06,0-.07,0-.06,0H459.22l-.07,0-.07,0-.06,0-.06,0,0,0-.06.05,0,0s0,0,0,0l0,.06a.21.21,0,0,0,0,.06.14.14,0,0,0,0,.06l0,.07s0,.05,0,.07a.25.25,0,0,0,0,.08v12.77a.73.73,0,0,0,.73.73h17.8a.72.72,0,0,0,.73-.73V462.76Zm-2.71.77-6.92,5.89-6.92-5.89Zm-7.39,7.41a.68.68,0,0,0,.47.17.72.72,0,0,0,.48-.17"/><path class="cls-23" d="M468.29,508a9.23,9.23,0,1,0,9.21,9.23A9.24,9.24,0,0,0,468.29,508Zm7.78,8.52h-2.22a12.2,12.2,0,0,0-1.79-6.14A7.82,7.82,0,0,1,476.07,516.53Zm-8.48-7v7h-3.46C464.31,513,465.77,510.13,467.59,509.53Zm0,8.41v7c-1.82-.6-3.28-3.51-3.46-7Zm1.4,7v-7h3.46C472.28,521.43,470.82,524.34,469,524.94Zm0-8.41v-7c1.83.6,3.29,3.51,3.46,7Zm-4.47-6.14a12.2,12.2,0,0,0-1.79,6.14h-2.22A7.84,7.84,0,0,1,464.52,510.39Zm-4,7.55h2.22a12.2,12.2,0,0,0,1.79,6.14A7.84,7.84,0,0,1,460.51,517.94Zm11.55,6.14a12.2,12.2,0,0,0,1.79-6.14h2.22A7.82,7.82,0,0,1,472.06,524.08Z"/><text class="cls-24" transform="translate(505.82 420.37)">T<tspan class="cls-25" x="5.73" y="0">el</tspan><tspan class="cls-26" x="15.38" y="0">ef</tspan><tspan class="cls-27" x="25.61" y="0">on:</tspan><tspan class="cls-28"><tspan x="0" y="13.23">+9</tspan><tspan class="cls-29" x="13.28" y="13.23">9</tspan><tspan class="cls-30" x="19.74" y="13.23">4xx xxx xx xx</tspan></tspan></text><text class="cls-31" transform="translate(505.82 465.32)">Elekt<tspan class="cls-32" x="26.96" y="0">r</tspan><tspan x="31.14" y="0">on poçt:</tspan><tspan class="cls-33"><tspan x="0" y="13.23">cvhazirlama@gmai</tspan><tspan class="cls-34" x="99.85" y="13.23">l</tspan><tspan class="cls-35" x="102.5" y="13.23">.</tspan><tspan x="104.99" y="13.23">com</tspan></tspan></text><text class="cls-31" transform="translate(505.82 516.54)">Ü<tspan class="cls-36" x="8.16" y="0">n</tspan><tspan class="cls-37" x="14.73" y="0">v</tspan><tspan class="cls-25" x="20.55" y="0">an:</tspan><tspan class="cls-33"><tspan x="0" y="13.23">Bakı </tspan><tspan class="cls-38" x="25.92" y="13.23">ş</tspan><tspan x="30.9" y="13.23">əhəri, A</tspan><tspan class="cls-39" x="70.05" y="13.23">z</tspan><tspan x="75.11" y="13.23">ərba</tspan><tspan class="cls-40" x="99.16" y="13.23">y</tspan><tspan x="104.88" y="13.23">can</tspan></tspan></text><text class="cls-41" transform="translate(505.82 374.17)">Ə<tspan class="cls-42" x="14.35" y="0">L</tspan><tspan class="cls-43" x="25.78" y="0">A</tspan><tspan x="38.87" y="0">QƏ</tspan></text><text class="cls-41" transform="translate(505.82 580.18)">Ə<tspan class="cls-42" x="14.35" y="0">L</tspan><tspan class="cls-43" x="25.78" y="0">A</tspan><tspan x="38.87" y="0">QƏ</tspan></text><text class="cls-44" transform="translate(452.78 621.05)"><tspan class="cls-45">T</tspan><tspan x="6.19" y="0">ü</tspan><tspan class="cls-46" x="13.49" y="0">r</tspan><tspan class="cls-47" x="17.84" y="0">k</tspan><tspan class="cls-48" x="24.24" y="0">c</tspan><tspan x="30.32" y="0">ə</tspan></text><rect class="cls-49" x="452.78" y="625.67" width="200.49" height="7.49"/><text class="cls-44" transform="translate(452.78 660.2)">İ<tspan class="cls-50" x="3.34" y="0">n</tspan><tspan x="10.72" y="0">gilis</tspan><tspan class="cls-51" x="32.59" y="0">c</tspan><tspan class="cls-52" x="38.66" y="0">ə</tspan></text><rect class="cls-49" x="452.78" y="664.82" width="200.49" height="7.49"/><text class="cls-44" transform="translate(452.78 699.35)">Rusca</text><rect class="cls-49" x="452.78" y="703.97" width="200.49" height="7.49"/><polygon class="cls-53" points="628 689.68 628 703.97 452.78 703.97 452.78 711.46 622.77 711.46 650.6 711.46 650.6 703.97 650.6 689.68 628 689.68"/><polygon class="cls-53" points="617.84 650.53 617.84 664.82 452.78 664.82 452.78 672.31 612.61 672.31 640.44 672.31 640.44 664.82 640.44 650.53 617.84 650.53"/><polygon class="cls-53" points="593.89 611.38 593.89 625.67 452.78 625.67 452.78 633.16 588.66 633.16 616.49 633.16 616.49 625.67 616.49 611.38 593.89 611.38"/><text class="cls-54" transform="translate(596.96 621.05)">7<tspan class="cls-55" x="4.12" y="0">5</tspan><tspan class="cls-56" x="8.12" y="0">%</tspan></text><text class="cls-57" transform="translate(620.91 660.2)">90%</text><text class="cls-57" transform="translate(631.07 699.35)">99%</text><text class="cls-41" transform="translate(505.82 769.63)">P<tspan class="cls-58" x="12.25" y="0">R</tspan><tspan x="24.74" y="0">OQRAM</tspan></text><text class="cls-44" transform="translate(452.78 810.5)"><tspan class="cls-59">W</tspan><tspan class="cls-52" x="11.55" y="0">o</tspan><tspan class="cls-60" x="18.4" y="0">r</tspan><tspan x="22.69" y="0">d</tspan></text><rect class="cls-49" x="452.78" y="815.12" width="200.49" height="7.49"/><text class="cls-44" transform="translate(452.78 849.65)"><tspan class="cls-61">E</tspan><tspan class="cls-62" x="7.1" y="0">x</tspan><tspan class="cls-51" x="12.86" y="0">c</tspan><tspan x="18.93" y="0">el</tspan></text><rect class="cls-49" x="452.78" y="854.27" width="200.49" height="7.49"/><text class="cls-44" transform="translate(452.78 888.8)"><tspan class="cls-61">P</tspan><tspan class="cls-63" x="7.66" y="0">ow</tspan><tspan class="cls-52" x="23.88" y="0">e</tspan><tspan class="cls-60" x="30.48" y="0">rP</tspan><tspan x="42.43" y="0">oint</tspan></text><rect class="cls-49" x="452.78" y="893.42" width="200.49" height="7.49"/><polygon class="cls-53" points="628 879.13 628 893.41 452.78 893.41 452.78 900.9 622.77 900.9 650.6 900.9 650.6 893.41 650.6 879.13 628 879.13"/><polygon class="cls-53" points="617.84 839.98 617.84 854.27 452.78 854.27 452.78 861.75 612.61 861.75 640.44 861.75 640.44 854.27 640.44 839.98 617.84 839.98"/><polygon class="cls-53" points="593.89 800.83 593.89 815.12 452.78 815.12 452.78 822.61 588.66 822.61 616.49 822.61 616.49 815.12 616.49 800.83 593.89 800.83"/><text class="cls-54" transform="translate(596.96 810.5)">7<tspan class="cls-55" x="4.12" y="0">5</tspan><tspan class="cls-56" x="8.12" y="0">%</tspan></text><text class="cls-57" transform="translate(620.91 849.65)">90%</text><text class="cls-57" transform="translate(631.07 888.8)">99%</text><text class="cls-44" transform="translate(452.78 922.09)">Outlook</text><rect class="cls-49" x="452.78" y="926.71" width="200.49" height="7.49"/><polygon class="cls-53" points="628 912.42 628 926.71 452.78 926.71 452.78 934.2 622.77 934.2 650.6 934.2 650.6 926.71 650.6 912.42 628 912.42"/><text class="cls-57" transform="translate(631.07 922.09)">99%</text><path class="cls-23" d="M467.84,360.39a.65.65,0,0,1-.62.66h-1.36a.66.66,0,0,1,0-1.32h1.35a.65.65,0,0,1,.63.66Zm0,3.68a.64.64,0,0,0-.62-.66h-1.36a.66.66,0,0,0,0,1.32h1.35a.65.65,0,0,0,.63-.66Zm0,3.67a.65.65,0,0,0-.62-.66h-1.36a.66.66,0,0,0,0,1.32h1.35a.64.64,0,0,0,.63-.66Zm0,3.68a.65.65,0,0,0-.62-.66h-1.36a.66.66,0,0,0,0,1.32h1.35a.65.65,0,0,0,.63-.66Zm12.34-12.83v14.63a.71.71,0,0,1-.71.72h-12.2a.72.72,0,0,1-.72-.72v-.62h.66a1.18,1.18,0,0,0,0-2.35h-.66v-1.33h.66a1.18,1.18,0,0,0,0-2.35h-.66v-1.33h.66a1.18,1.18,0,0,0,0-2.35h-.66v-1.32h.66a1.18,1.18,0,0,0,0-2.35h-.66v-.63a.72.72,0,0,1,.72-.72h12.2a.71.71,0,0,1,.71.72ZM472,364c0-.21.16-.44.33-.42a5.21,5.21,0,0,1,.86.48c.48.25,1.25-1.65.89-1.88a7.28,7.28,0,0,0-.83-.53l-.17,0a2.37,2.37,0,0,0-2.64,2.41q-.08.93-.09,1.86h0a.07.07,0,0,1,0,.05.06.06,0,0,1,0,0h0c0,.63,0,1.24.09,1.86a2.37,2.37,0,0,0,2.64,2.41l.17,0a7.28,7.28,0,0,0,.83-.53c.36-.23-.41-2.13-.89-1.88a5.21,5.21,0,0,1-.86.48c-.17,0-.31-.21-.33-.42,0-.57,0-1.29,0-1.88h0v-.1h0c0-.6,0-1.32,0-1.89Zm3.1,3.55a2.29,2.29,0,0,0,0-3.23l-.47.47a1.62,1.62,0,0,1,0,2.29Zm.85.85a3.49,3.49,0,0,0,0-4.93l-.48.48a2.81,2.81,0,0,1,0,4Zm.82-5.75-.48.48a4,4,0,0,1,0,5.62l.48.47a4.65,4.65,0,0,0,0-6.57Zm0,0"/><path class="cls-23" d="M480.49,571.24a7.82,7.82,0,1,0-5.9,7.54.5.5,0,0,1,.36,0l3,1.54a.21.21,0,0,0,.3-.2l-.12-3.17a.54.54,0,0,1,.15-.38A7.73,7.73,0,0,0,480.49,571.24Zm-3.8-.89a.72.72,0,1,1-.72.72A.71.71,0,0,1,476.69,570.35ZM469,571.78a.72.72,0,1,1,.71-.71A.71.71,0,0,1,469,571.78Zm3.72,0a.72.72,0,1,1,.72-.71A.71.71,0,0,1,472.7,571.78Z"/><path class="cls-23" d="M481.08,759.05a1.58,1.58,0,0,0-2.21.19l-.34.4,2.4,2,.32-.4A1.57,1.57,0,0,0,481.08,759.05Z"/><path class="cls-23" d="M473.3,767.55a.53.53,0,0,0,.72.6l1.92-.83a1.62,1.62,0,0,0,.57-.43l.18-.21-2.4-2-.18.21a1.75,1.75,0,0,0-.32.64Z"/><polygon class="cls-23" points="474.96 763.86 477.37 765.88 480.26 762.46 477.85 760.44 474.96 763.86"/><path class="cls-23" d="M476.89,754.76l-2-1.88a1.45,1.45,0,0,0-.67-.35v3.05h3.11A1.64,1.64,0,0,0,476.89,754.76Z"/><path class="cls-23" d="M476.36,768.28l-1.92.83a1.57,1.57,0,0,1-2.15-1.81l.48-2a2.71,2.71,0,0,1,.54-1.07l4.07-4.81v-2.76h-3.66a.52.52,0,0,1-.52-.53v-3.65h-7.84a1.57,1.57,0,0,0-1.57,1.56v14.71a1.58,1.58,0,0,0,1.57,1.57h10.45a1.57,1.57,0,0,0,1.57-1.57v-1.24l-.07.08A2.69,2.69,0,0,1,476.36,768.28Zm-10-12.7h5.23a.53.53,0,0,1,0,1H466.4a.53.53,0,0,1,0-1Zm0,3.17h8.37a.53.53,0,0,1,0,1H466.4a.53.53,0,0,1,0-1Zm0,3.14h6.28a.52.52,0,0,1,0,1H466.4a.52.52,0,0,1,0-1Zm4.19,4.18H466.4a.52.52,0,0,1-.52-.52.53.53,0,0,1,.52-.53h4.19a.53.53,0,0,1,.52.53A.52.52,0,0,1,470.59,766.07Z"/><line class="cls-64" x1="458.66" y1="388.52" x2="653.27" y2="388.52"/><line class="cls-64" x1="458.66" y1="590.73" x2="653.27" y2="590.73"/><line class="cls-64" x1="458.66" y1="779.93" x2="653.27" y2="779.93"/><rect class="cls-4" x="706.45" y="259.19" width="34.96" height="26.92"/><text class="cls-65" transform="translate(756.37 279.9)">İŞ <tspan class="cls-66" x="20.05" y="0">T</tspan><tspan class="cls-67" x="29.67" y="0">ƏC</tspan><tspan class="cls-68" x="54.72" y="0">R</tspan><tspan class="cls-67" x="65.78" y="0">Ü</tspan><tspan class="cls-69" x="78.03" y="0">B</tspan><tspan x="88.99" y="0">ƏSİ</tspan></text><line class="cls-70" x1="710.16" y1="299.57" x2="710.16" y2="520.71"/><circle class="cls-4" cx="710.16" cy="309.1" r="4.91"/><circle class="cls-4" cx="710.16" cy="432.7" r="4.91"/><line class="cls-70" x1="710.16" y1="413.92" x2="999.52" y2="413.92"/><line class="cls-70" x1="710.16" y1="520.71" x2="999.52" y2="520.71"/><line class="cls-70" x1="710.16" y1="674.76" x2="999.52" y2="674.76"/><text class="cls-71" transform="translate(736.83 323)">Uni<tspan class="cls-72" x="21.04" y="0">b</tspan><tspan x="29.09" y="0">ank</tspan><tspan x="0" y="15.04">Mü</tspan><tspan class="cls-73" x="19.41" y="15.04">təx</tspan><tspan x="38.43" y="15.04">əssis</tspan></text><text class="cls-74" transform="translate(737.97 352.3)">- Malın d<tspan class="cls-75" x="37.34" y="0">əy</tspan><tspan x="46.93" y="0">ə</tspan><tspan class="cls-76" x="52.12" y="0">r</tspan><tspan x="55.5" y="0">inin </tspan><tspan class="cls-77" x="74.02" y="0">h</tspan><tspan x="79.85" y="0">esablanması </tspan><tspan class="cls-75" x="136.31" y="0">v</tspan><tspan x="140.84" y="0">ə </tspan><tspan class="cls-78" x="148.28" y="0">k</tspan><tspan x="153.36" y="0">assa ə</tspan><tspan class="cls-79" x="179.36" y="0">m</tspan><tspan x="188.49" y="0">əli</tspan><tspan class="cls-80" x="198.31" y="0">y</tspan><tspan class="cls-81" x="202.93" y="0">y</tspan><tspan x="207.45" y="0">atının </tspan><tspan class="cls-75" x="234.52" y="0">y</tspan><tspan x="239.05" y="0">e</tspan><tspan class="cls-76" x="244.25" y="0">r</tspan><tspan x="247.62" y="0">i</tspan><tspan class="cls-77" x="249.94" y="0">n</tspan><tspan x="255.77" y="0">ə </tspan><tspan class="cls-75" x="0" y="10.74">y</tspan><tspan x="4.53" y="10.74">eti</tspan><tspan class="cls-76" x="15.52" y="10.74">r</tspan><tspan x="18.9" y="10.74">il</tspan><tspan class="cls-77" x="23.53" y="10.74">m</tspan><tspan x="32.66" y="10.74">əsi;</tspan><tspan x="0" y="21.49">- </tspan><tspan class="cls-82" x="5.54" y="21.49">K</tspan><tspan x="11.53" y="21.49">assa </tspan><tspan class="cls-77" x="32.33" y="21.49">h</tspan><tspan x="38.16" y="21.49">esa</tspan><tspan class="cls-83" x="52.63" y="21.49">b</tspan><tspan x="58.43" y="21.49">atını </tspan><tspan class="cls-84" x="79.69" y="21.49">t</tspan><tspan x="83.01" y="21.49">ə</tspan><tspan class="cls-85" x="88.21" y="21.49">r</tspan><tspan x="91.78" y="21.49">tib et</tspan><tspan class="cls-79" x="114.34" y="21.49">m</tspan><tspan x="123.48" y="21.49">ək;</tspan><tspan x="0" y="32.23">- Malın alınması zamanı s</tspan><tspan class="cls-78" x="108.23" y="32.23">a</tspan><tspan x="113.21" y="32.23">yının, </tspan><tspan class="cls-86" x="138.21" y="32.23">ç</tspan><tspan x="142.97" y="32.23">eşidinin </tspan><tspan class="cls-75" x="179.02" y="32.23">y</tspan><tspan class="cls-84" x="183.55" y="32.23">o</tspan><tspan x="188.78" y="32.23">xlanılmas</tspan></text><text class="cls-87" transform="translate(736.83 310.25)">05<tspan class="cls-88" x="8.79" y="0">/</tspan><tspan class="cls-89" x="11.05" y="0">0</tspan><tspan class="cls-90" x="15.72" y="0">3/</tspan><tspan class="cls-91" x="22.16" y="0">2</tspan><tspan class="cls-92" x="26.2" y="0">0</tspan><tspan x="30.92" y="0">19–hal-hazı</tspan><tspan class="cls-93" x="69.85" y="0">r</tspan><tspan x="72.63" y="0">da</tspan></text><text class="cls-71" transform="translate(736.83 444.14)">Uni<tspan class="cls-72" x="21.04" y="0">b</tspan><tspan x="29.09" y="0">ank</tspan><tspan x="0" y="15.04">Mü</tspan><tspan class="cls-73" x="19.41" y="15.04">təx</tspan><tspan x="38.43" y="15.04">əssis</tspan></text><text class="cls-74" transform="translate(737.97 473.44)">- Malın d<tspan class="cls-75" x="37.34" y="0">əy</tspan><tspan x="46.93" y="0">ə</tspan><tspan class="cls-76" x="52.12" y="0">r</tspan><tspan x="55.5" y="0">inin </tspan><tspan class="cls-77" x="74.02" y="0">h</tspan><tspan x="79.85" y="0">esablanması </tspan><tspan class="cls-75" x="136.31" y="0">v</tspan><tspan x="140.84" y="0">ə </tspan><tspan class="cls-78" x="148.28" y="0">k</tspan><tspan x="153.36" y="0">assa ə</tspan><tspan class="cls-79" x="179.36" y="0">m</tspan><tspan x="188.49" y="0">əli</tspan><tspan class="cls-80" x="198.31" y="0">y</tspan><tspan class="cls-81" x="202.93" y="0">y</tspan><tspan x="207.45" y="0">atının </tspan><tspan class="cls-75" x="234.52" y="0">y</tspan><tspan x="239.05" y="0">e</tspan><tspan class="cls-76" x="244.25" y="0">r</tspan><tspan x="247.62" y="0">i</tspan><tspan class="cls-77" x="249.94" y="0">n</tspan><tspan x="255.77" y="0">ə </tspan><tspan class="cls-75" x="0" y="10.74">y</tspan><tspan x="4.53" y="10.74">eti</tspan><tspan class="cls-76" x="15.52" y="10.74">r</tspan><tspan x="18.9" y="10.74">il</tspan><tspan class="cls-77" x="23.53" y="10.74">m</tspan><tspan x="32.66" y="10.74">əsi;</tspan><tspan x="0" y="21.49">- </tspan><tspan class="cls-82" x="5.54" y="21.49">K</tspan><tspan x="11.53" y="21.49">assa </tspan><tspan class="cls-77" x="32.33" y="21.49">h</tspan><tspan x="38.16" y="21.49">esa</tspan><tspan class="cls-83" x="52.63" y="21.49">b</tspan><tspan x="58.43" y="21.49">atını </tspan><tspan class="cls-84" x="79.69" y="21.49">t</tspan><tspan x="83.01" y="21.49">ə</tspan><tspan class="cls-85" x="88.21" y="21.49">r</tspan><tspan x="91.78" y="21.49">tib et</tspan><tspan class="cls-79" x="114.34" y="21.49">m</tspan><tspan x="123.48" y="21.49">ək;</tspan><tspan x="0" y="32.23">- Malın alınması zamanı s</tspan><tspan class="cls-78" x="108.23" y="32.23">a</tspan><tspan x="113.21" y="32.23">yının, </tspan><tspan class="cls-86" x="138.21" y="32.23">ç</tspan><tspan x="142.97" y="32.23">eşidinin </tspan><tspan class="cls-75" x="179.02" y="32.23">y</tspan><tspan class="cls-84" x="183.55" y="32.23">o</tspan><tspan x="188.78" y="32.23">xlanılmas</tspan></text><text class="cls-87" transform="translate(736.83 430.31)">05<tspan class="cls-88" x="8.79" y="0">/</tspan><tspan class="cls-89" x="11.05" y="0">0</tspan><tspan class="cls-90" x="15.72" y="0">3/</tspan><tspan class="cls-91" x="22.16" y="0">2</tspan><tspan class="cls-92" x="26.2" y="0">0</tspan><tspan x="30.92" y="0">19–</tspan><tspan class="cls-94" x="41.45" y="0">P</tspan><tspan class="cls-93" x="46.43" y="0">r</tspan><tspan x="49.21" y="0">esent</tspan></text><rect class="cls-4" x="706.45" y="544.13" width="34.96" height="26.92"/><text class="cls-95" transform="translate(756.37 564.84)">T<tspan class="cls-67" x="9.62" y="0">ƏHSİL</tspan></text><line class="cls-70" x1="710.16" y1="584.51" x2="710.16" y2="674.76"/><circle class="cls-4" cx="710.16" cy="594.03" r="4.91"/><text class="cls-96" transform="translate(736.83 622.67)"><tspan class="cls-97">A</tspan><tspan class="cls-98" x="13.12" y="0">z</tspan><tspan class="cls-99" x="22.33" y="0">ə</tspan><tspan class="cls-100" x="33.17" y="0">r</tspan><tspan class="cls-101" x="40.51" y="0">b</tspan><tspan class="cls-102" x="52.22" y="0">a</tspan><tspan class="cls-103" x="62.65" y="0">y</tspan><tspan class="cls-104" x="72.67" y="0">can İqtis</tspan><tspan class="cls-105" x="149.46" y="0">a</tspan><tspan x="160.17" y="0">d Uni</tspan><tspan class="cls-106" x="207.52" y="0">v</tspan><tspan x="217.54" y="0">e</tspan><tspan class="cls-107" x="228.39" y="0">r</tspan><tspan x="235.76" y="0">si</tspan><tspan class="cls-108" x="250.06" y="0">t</tspan><tspan x="257.25" y="0">eti</tspan></text><text class="cls-109" transform="translate(738.49 644.64)">Mali<tspan class="cls-110" x="26.04" y="0">y</tspan><tspan class="cls-111" x="32.75" y="0">y</tspan><tspan x="39.34" y="0">ə </tspan><tspan class="cls-112" x="50.17" y="0">f</tspan><tspan x="54.28" y="0">a</tspan><tspan class="cls-112" x="61.65" y="0">k</tspan><tspan x="69.04" y="0">ü</tspan><tspan class="cls-113" x="77.46" y="0">l</tspan><tspan class="cls-114" x="80.84" y="0">t</tspan><tspan x="85.68" y="0">əsi</tspan></text><text class="cls-115" transform="translate(736.83 599.26)">05<tspan class="cls-116" x="12.79" y="0">/</tspan><tspan class="cls-117" x="16.07" y="0">0</tspan><tspan class="cls-118" x="22.86" y="0">3/</tspan><tspan class="cls-119" x="32.23" y="0">2</tspan><tspan class="cls-120" x="38.1" y="0">0</tspan><tspan x="44.98" y="0">19–</tspan></text><rect class="cls-4" x="706.45" y="859.12" width="34.96" height="26.92"/><text class="cls-121" transform="translate(756.37 879.83)">HOBBİ</text><path class="cls-4" d="M803.21,924.2c-.76-1.39-3-1.61-5.06-.49s-3,3.16-2.25,4.55,3,1.62,5.06.5S804,925.6,803.21,924.2Z"/><path class="cls-4" d="M821.09,921.66c-.77-1.39-3-1.61-5.05-.49s-3,3.16-2.26,4.55,3,1.61,5.06.49S821.87,923.05,821.09,921.66Z"/><polygon class="cls-4" points="821.35 906.2 821.35 922.34 820.74 922.34 820.74 910.24 803.39 913.42 803.39 925.52 802.77 925.52 802.77 909.38 821.35 906.2"/><path class="cls-4" d="M737.25,904.65a17.29,17.29,0,0,0-1.87,1.22l0,0L733,908.27l-2.1-.48-5.65-1.27L720,905.33l-4,1.7,11.79,6.41-6.94,6.94,0,0s-.36.54-.73,1.22l-4.72-1.52-2.09,2.09,5.18,3.17-.54.53.7.7.53-.53,3.14,5.13,2.09-2.08-1.5-4.65c.68-.41,1.19-.79,1.22-.81l0,0,6.93-6.93,6.4,11.76,1.69-4-2.46-10.87-.47-2.08,2.39-2.4,0,0a17.06,17.06,0,0,0,1.2-1.87c.85-1.53,1-2.49.46-3S738.76,903.82,737.25,904.65Z"/><path class="cls-4" d="M904.42,928.33s-9.93-.52-13.73,1.65c-3.81-2.17-13.73-1.65-13.73-1.65V912.06h1.37l.16,11.71.66-15.4c1-.1,8.71-.75,11.54,2.09,2.82-2.84,10.55-2.19,11.53-2.09l.16,16.27.66-12.58h1.38Z"/><path class="cls-4" d="M971.5,911.57a7.54,7.54,0,1,0,7.55,7.54A7.55,7.55,0,0,0,971.5,911.57Zm0,14.56a7,7,0,1,1,7-7A7,7,0,0,1,971.53,926.13Z"/><path class="cls-4" d="M983.07,909.65h-.23a1.31,1.31,0,0,0-1.21-.81H980a1.31,1.31,0,0,0-1.21.81h-1.58l-1.51-2.75a.87.87,0,0,0-.77-.43h-5.65a.9.9,0,0,0-.75.39l-1.81,2.79H966a1,1,0,0,0-.94-.81h-3.11a1,1,0,0,0-.93.81h-.21a2.38,2.38,0,0,0-2.37,2.37v14.26a2.38,2.38,0,0,0,2.37,2.37h22.29a2.37,2.37,0,0,0,2.37-2.37V912A2.37,2.37,0,0,0,983.07,909.65Zm-21.58,3.18a1,1,0,1,1,1,1A1,1,0,0,1,961.49,912.83Zm10,14.68a8.4,8.4,0,1,1,8.4-8.4A8.41,8.41,0,0,1,971.5,927.51Z"/><path class="cls-21" d="M730.53,272.18v3.88a.67.67,0,0,1-.41.62l-5.87,2.54a.83.83,0,0,1-.62,0l-5.7-2.46a.69.69,0,0,1-.41-.63v-3.88l6,2.6a1.06,1.06,0,0,0,.82,0Z"/><path class="cls-21" d="M733.19,270.22a.18.18,0,0,0,0-.32l-8.94-3.83a.72.72,0,0,0-.5,0l-9.07,3.83a.18.18,0,0,0,0,.32l9,3.89a.65.65,0,0,0,.51,0l7.5-3.24v6.35a1,1,0,0,0-.77,1,1.06,1.06,0,0,0,2.12,0,1,1,0,0,0-.76-1v-6.6Z"/><path class="cls-21" d="M724.74,559.15v-.36a.8.8,0,1,0-1.6,0v.36a.8.8,0,0,0,1.6,0Zm0,0"/><path class="cls-21" d="M730.82,559.6h-5.53a1.41,1.41,0,0,1-2.71,0h-5.53a2.23,2.23,0,0,1-1-.23v4.26a.72.72,0,0,0,.72.72h14.28a.72.72,0,0,0,.72-.72v-4.26A2.31,2.31,0,0,1,730.82,559.6Z"/><path class="cls-21" d="M731.4,553h-3.64v-.22a2,2,0,0,0-2-1.95h-3.87a2,2,0,0,0-2,1.95V553h-3.52a.72.72,0,0,0-.72.71v3.6a1.3,1.3,0,0,0,1.3,1.3h5.47a1.37,1.37,0,0,1,.44-.94s0,0,0,0l.18-.15.07,0,.16-.08a.48.48,0,0,1,.14,0l.12,0,.29,0,.28,0,.12,0a.39.39,0,0,1,.14,0l.16.08.08,0,.17.15,0,0a1.4,1.4,0,0,1,.43.94h5.47a1.3,1.3,0,0,0,1.3-1.3v-3.6A.72.72,0,0,0,731.4,553Zm-10.33,0v-.22a.88.88,0,0,1,.87-.88h3.87a.89.89,0,0,1,.88.88V553Z"/><rect class="cls-4" x="706.45" y="693.51" width="34.96" height="26.92"/><text class="cls-95" transform="translate(756.37 714.22)">T<tspan class="cls-67" x="9.62" y="0">ƏHSİL</tspan></text><circle class="cls-4" cx="710.16" cy="748.33" r="4.91"/><circle class="cls-4" cx="710.16" cy="770.4" r="4.91"/><circle class="cls-4" cx="710.16" cy="792.47" r="4.91"/><circle class="cls-4" cx="710.16" cy="814.55" r="4.91"/><path class="cls-21" d="M724.74,708.53v-.36a.8.8,0,0,0-1.6,0v.36a.8.8,0,1,0,1.6,0Zm0,0"/><path class="cls-21" d="M730.82,709h-5.53a1.41,1.41,0,0,1-2.71,0h-5.53a2.23,2.23,0,0,1-1-.23V713a.72.72,0,0,0,.72.72h14.28a.72.72,0,0,0,.72-.72v-4.26A2.31,2.31,0,0,1,730.82,709Z"/><path class="cls-21" d="M731.4,702.38h-3.64v-.22a2,2,0,0,0-2-1.95h-3.87a2,2,0,0,0-2,1.95v.22h-3.52a.72.72,0,0,0-.72.72v3.59a1.3,1.3,0,0,0,1.3,1.3h5.47a1.37,1.37,0,0,1,.44-.94l0,0,.18-.16.07,0,.16-.08a.48.48,0,0,1,.14,0l.12,0,.29,0,.28,0,.12,0a.39.39,0,0,1,.14,0l.16.08.08,0a1.29,1.29,0,0,1,.17.16l0,0a1.4,1.4,0,0,1,.43.94h5.47a1.3,1.3,0,0,0,1.3-1.3V703.1A.72.72,0,0,0,731.4,702.38Zm-10.33,0v-.22a.87.87,0,0,1,.87-.87h3.87a.88.88,0,0,1,.88.87v.22Z"/><path class="cls-21" d="M729.4,867.43a3.2,3.2,0,0,0-4.54.8,7.13,7.13,0,0,0-.92,1.8,7.44,7.44,0,0,0-.93-1.8,3.2,3.2,0,0,0-4.54-.8c-3,2.41-.56,6.66,2.07,8.65a30.77,30.77,0,0,0,3.4,2.28,31.94,31.94,0,0,0,3.4-2.28C730,874.09,732.43,869.84,729.4,867.43Z"/><text class="cls-71" transform="translate(707.81 753.24)"><tspan class="cls-122">	</tspan><tspan x="30.98" y="0">Əla ünsi</tspan><tspan class="cls-123" x="80.95" y="0">y</tspan><tspan class="cls-124" x="87.87" y="0">y</tspan><tspan x="94.75" y="0">ət qabili</tspan><tspan class="cls-123" x="144.97" y="0">y</tspan><tspan class="cls-125" x="151.89" y="0">y</tspan><tspan x="158.78" y="0">əti</tspan><tspan class="cls-122" x="0" y="21.49">	</tspan><tspan x="30.98" y="21.49">Sü</tspan><tspan class="cls-72" x="46.64" y="21.49">r</tspan><tspan x="51.63" y="21.49">ətli </tspan><tspan class="cls-126" x="74.69" y="21.49">m</tspan><tspan x="87.16" y="21.49">ənimsə</tspan><tspan class="cls-127" x="132.47" y="21.49">m</tspan><tspan x="144.94" y="21.49">ə qabili</tspan><tspan class="cls-123" x="190.02" y="21.49">y</tspan><tspan class="cls-125" x="196.93" y="21.49">y</tspan><tspan x="203.82" y="21.49">əti </tspan><tspan class="cls-122" x="0" y="42.98">	</tspan><tspan x="30.98" y="42.98">Sə</tspan><tspan class="cls-128" x="45.98" y="42.98">r</tspan><tspan x="51.03" y="42.98">bəst </tspan><tspan class="cls-124" x="81.4" y="42.98">v</tspan><tspan x="88.29" y="42.98">ə </tspan><tspan class="cls-129" x="99.09" y="42.98">k</tspan><tspan x="106.62" y="42.98">ollekti</tspan><tspan class="cls-124" x="145.44" y="42.98">v</tspan><tspan x="152.33" y="42.98">də işlə</tspan><tspan class="cls-126" x="192.16" y="42.98">m</tspan><tspan x="204.63" y="42.98">ə </tspan><tspan class="cls-72" x="215.43" y="42.98">b</tspan><tspan class="cls-126" x="223.48" y="42.98">a</tspan><tspan x="230.84" y="42.98">ca</tspan><tspan class="cls-130" x="245.12" y="42.98">r</tspan><tspan x="250.16" y="42.98">ığı </tspan><tspan x="0" y="64.47" xml:space="preserve">         Ciddi, </tspan><tspan class="cls-127" x="68.68" y="64.47">m</tspan><tspan x="81.15" y="64.47">əsuli</tspan><tspan class="cls-123" x="110.11" y="64.47">y</tspan><tspan class="cls-125" x="117.03" y="64.47">y</tspan><tspan x="123.92" y="64.47">ətli, işgüzar </tspan></text><text class="cls-132" transform="translate(698.28 143.85)">SƏİDƏ<tspan class="cls-133" x="0" y="61.89">F</tspan><tspan class="cls-134" x="23.94" y="61.89">A</tspan><tspan class="cls-135" x="52.63" y="61.89">T</tspan><tspan x="76.42" y="61.89">UL</tspan><tspan class="cls-136" x="131.05" y="61.89">L</tspan><tspan x="155" y="61.89">AZADƏ</tspan></text><path class="cls-21" d="M850.47,1035.71a20.26,20.26,0,1,1,20.26-20.26A20.28,20.28,0,0,1,850.47,1035.71Zm0-39a18.72,18.72,0,1,0,18.72,18.72A18.74,18.74,0,0,0,850.47,996.73Z"/><path class="cls-137" d="M861.16,1014.91a10.5,10.5,0,0,0-21-.19c0,.15,0,.3,0,.45a10.36,10.36,0,0,0,1.5,5.38l-1.89,5.59,5.81-1.85a10.51,10.51,0,0,0,15.57-9.12Zm-10.49,9a8.79,8.79,0,0,1-4.86-1.45l-3.39,1.08,1.1-3.25a8.66,8.66,0,0,1-1.68-5.14,8.06,8.06,0,0,1,0-.85,8.83,8.83,0,0,1,17.58.17c0,.23,0,.45,0,.68A8.8,8.8,0,0,1,850.67,1023.93Z"/><path class="cls-137" d="M855.48,1017.28c-.26-.13-1.53-.75-1.76-.83s-.41-.13-.58.12-.67.83-.82,1-.3.19-.56.06a6.94,6.94,0,0,1-2.07-1.26,7.79,7.79,0,0,1-1.43-1.77c-.14-.25,0-.39.12-.52s.25-.3.38-.45l.1-.12a2.72,2.72,0,0,0,.16-.3.47.47,0,0,0,0-.45c-.06-.13-.58-1.39-.8-1.9s-.42-.42-.58-.42l-.49,0a1,1,0,0,0-.69.31,2.91,2.91,0,0,0-.89,2.14,3.22,3.22,0,0,0,.13.87,5.77,5.77,0,0,0,.92,1.77,10.53,10.53,0,0,0,4.39,3.85c2.62,1,2.62.68,3.09.64a2.61,2.61,0,0,0,1.74-1.22,2.19,2.19,0,0,0,.15-1.21A1.4,1.4,0,0,0,855.48,1017.28Z"/><rect class="cls-21" x="898.46" y="1010.83" width="4.03" height="13.03"/><path class="cls-21" d="M900.45,1009.12a2.41,2.41,0,1,0-2.38-2.4A2.4,2.4,0,0,0,900.45,1009.12Z"/><path class="cls-21" d="M908.94,1017c0-1.83.84-2.93,2.46-2.93s2.19,1,2.19,2.93v6.84h4v-8.25c0-3.49-2-5.18-4.75-5.18a4.53,4.53,0,0,0-3.92,2.15v-1.75h-3.87v13h3.87Z"/><path class="cls-21" d="M907.84,1035.71a20.26,20.26,0,1,1,20.26-20.26A20.28,20.28,0,0,1,907.84,1035.71Zm0-39a18.72,18.72,0,1,0,18.72,18.72A18.74,18.74,0,0,0,907.84,996.73Z"/><path class="cls-21" d="M962.23,1027H967v-11.88h3.31l.35-4H967v-2.26c0-.94.19-1.31,1.09-1.31h2.57v-4.13h-3.28c-3.54,0-5.13,1.56-5.13,4.53v3.17h-2.47v4h2.47Z"/><path class="cls-21" d="M965.2,1035.71a20.26,20.26,0,1,1,20.26-20.26A20.28,20.28,0,0,1,965.2,1035.71Zm0-39a18.72,18.72,0,1,0,18.73,18.72A18.74,18.74,0,0,0,965.2,996.73Z"/><path class="cls-21" d="M1022.27,1005.92c2.85,0,3.19,0,4.32.06a5.81,5.81,0,0,1,2,.37,3.54,3.54,0,0,1,2,2,5.81,5.81,0,0,1,.37,2c0,1.13.06,1.47.06,4.32s0,3.19-.06,4.32a5.81,5.81,0,0,1-.37,2,3.54,3.54,0,0,1-2,2,5.81,5.81,0,0,1-2,.37c-1.13,0-1.46.06-4.32.06s-3.19,0-4.32-.06a5.87,5.87,0,0,1-2-.37,3.16,3.16,0,0,1-1.23-.8,3.28,3.28,0,0,1-.8-1.23,5.81,5.81,0,0,1-.37-2c-.05-1.13-.06-1.47-.06-4.32s0-3.19.06-4.32a5.81,5.81,0,0,1,.37-2,3.28,3.28,0,0,1,.8-1.23,3.16,3.16,0,0,1,1.23-.8,5.87,5.87,0,0,1,2-.37c1.13-.05,1.47-.06,4.32-.06m0-1.93c-2.9,0-3.27,0-4.41.07a7.94,7.94,0,0,0-2.59.49,5.25,5.25,0,0,0-1.89,1.24,5.09,5.09,0,0,0-1.23,1.89,7.66,7.66,0,0,0-.5,2.59c0,1.14-.07,1.51-.07,4.41s0,3.27.07,4.41a7.66,7.66,0,0,0,.5,2.59,5.09,5.09,0,0,0,1.23,1.89,5.25,5.25,0,0,0,1.89,1.24,7.94,7.94,0,0,0,2.59.49c1.14,0,1.51.07,4.41.07s3.27,0,4.41-.07a7.88,7.88,0,0,0,2.59-.49,5.56,5.56,0,0,0,3.13-3.13,7.94,7.94,0,0,0,.49-2.59c.06-1.14.07-1.51.07-4.41s0-3.27-.07-4.41a7.94,7.94,0,0,0-.49-2.59,5.56,5.56,0,0,0-3.13-3.13,7.88,7.88,0,0,0-2.59-.49c-1.14,0-1.51-.07-4.41-.07"/><path class="cls-21" d="M1022.27,1009.19a5.49,5.49,0,1,0,5.49,5.49,5.49,5.49,0,0,0-5.49-5.49m0,9a3.56,3.56,0,1,1,3.56-3.56,3.56,3.56,0,0,1-3.56,3.56"/><path class="cls-21" d="M1029.26,1009a1.29,1.29,0,1,1-1.28-1.29,1.29,1.29,0,0,1,1.28,1.29"/><path class="cls-21" d="M1022.27,1035.71a20.26,20.26,0,1,1,20.26-20.26A20.28,20.28,0,0,1,1022.27,1035.71Zm0-39a18.72,18.72,0,1,0,18.72,18.72A18.74,18.74,0,0,0,1022.27,996.73Z"/><text class="cls-138" transform="translate(97.98 997.29)">CV <tspan class="cls-139" x="0" y="36.66">H</tspan><tspan x="22.18" y="36.66">AZI</tspan><tspan class="cls-140" x="71.93" y="36.66">R</tspan><tspan class="cls-141" x="91.89" y="36.66">L</tspan><tspan x="109.57" y="36.66">A</tspan><tspan class="cls-139" x="130.9" y="36.66">M</tspan><tspan class="cls-142" x="157.58" y="36.66">A</tspan></text><path class="cls-21" d="M71.65,973l-4.42,5.72H45.3a3.1,3.1,0,0,0-3.11,3.1v43.87a3.1,3.1,0,0,0,3.11,3.1H68.88l2.16,5.72H36.47V973Z"/><path class="cls-21" d="M71.5,1034.55l-17.93-47.5L60,989.88l10.14,26.89a1.43,1.43,0,0,0,2.68,0l10.07-26.89,6.42-2.83Z"/><polygon class="cls-21" points="70.07 989.88 72.72 989.88 74.14 1006.31 71.77 1009.62 69.06 1006.36 70.07 989.88"/><polygon class="cls-21" points="71.41 986.46 69.66 988.28 70.11 989.61 72.72 989.61 73.16 988.26 71.41 986.46"/><polygon class="cls-21" points="71.65 986.27 77.42 984.97 74.89 989.88 71.65 986.27"/><polygon class="cls-21" points="71.15 986.27 65.38 984.97 67.92 989.88 71.15 986.27"/></g></svg>