<svg xmlns="http://www.w3.org/2000/svg" xmlns:xlink="http://www.w3.org/1999/xlink" viewBox="0 0 1079 1080"><defs><style>.cls-1,.cls-109,.cls-137,.cls-51{fill:none;}.cls-2{fill:#2b2c2b;}.cls-3{fill:#c59e30;}.cls-4{fill:#414142;}.cls-5{font-size:22.5px;letter-spacing:-0.03em;}.cls-10,.cls-19,.cls-21,.cls-24,.cls-39,.cls-42,.cls-48,.cls-5,.cls-52,.cls-73,.cls-76,.cls-8,.cls-9{fill:#fff;}.cls-148,.cls-24,.cls-5,.cls-73,.cls-76{font-family:Montserrat-Medium, Montserrat;font-weight:500;}.cls-6{letter-spacing:0em;}.cls-7{letter-spacing:-0.01em;}.cls-8{font-size:58.13px;}.cls-10,.cls-33,.cls-36,.cls-8,.cls-81,.cls-84{font-family:Montserrat-SemiBold, Montserrat;}.cls-10,.cls-33,.cls-36,.cls-8,.cls-81,.cls-84,.cls-85,.cls-91,.cls-96{font-weight:600;}.cls-9{font-size:22px;}.cls-115,.cls-129,.cls-52,.cls-9{font-family:Montserrat-Regular, Montserrat;}.cls-10{font-size:39.76px;}.cls-11{letter-spacing:0em;}.cls-12{letter-spacing:-0.01em;}.cls-13{letter-spacing:-0.01em;}.cls-14{letter-spacing:-0.01em;}.cls-15{letter-spacing:-0.01em;}.cls-16{letter-spacing:-0.02em;}.cls-17{letter-spacing:0em;}.cls-18{letter-spacing:0em;}.cls-19{stroke:#0f1322;}.cls-109,.cls-137,.cls-19,.cls-51{stroke-miterlimit:10;}.cls-20,.cls-33,.cls-36,.cls-81,.cls-84{fill:#0f1322;}.cls-103,.cls-138,.cls-145,.cls-146,.cls-21,.cls-48{font-size:16.95px;font-family:Averta-ExtraBold, Averta;font-weight:800;}.cls-103,.cls-21,.cls-50{letter-spacing:0.02em;}.cls-22{letter-spacing:0em;}.cls-23{letter-spacing:0.02em;}.cls-24{font-size:12.25px;}.cls-25{letter-spacing:-0.01em;}.cls-26{letter-spacing:0em;}.cls-27{letter-spacing:-0.01em;}.cls-28{letter-spacing:-0.02em;}.cls-29{letter-spacing:-0.01em;}.cls-30{fill:#b3abab;}.cls-31{letter-spacing:0em;}.cls-32{letter-spacing:-0.01em;}.cls-33,.cls-36{font-size:7.93px;}.cls-33{letter-spacing:-0.02em;}.cls-34{letter-spacing:-0.01em;}.cls-35{letter-spacing:0em;}.cls-37{clip-path:url(#clip-path);}.cls-38{fill:#a8822e;}.cls-39{font-size:33.38px;}.cls-110,.cls-39{font-family:Montserrat-Bold, Montserrat;font-weight:700;}.cls-40{letter-spacing:-0.01em;}.cls-41{letter-spacing:-0.02em;}.cls-42{font-size:13.35px;font-family:Montserrat-Light, Montserrat;}.cls-100,.cls-101,.cls-102,.cls-42,.cls-89,.cls-90,.cls-93,.cls-94,.cls-95,.cls-99{font-weight:300;}.cls-43{letter-spacing:-0.01em;}.cls-44{letter-spacing:-0.01em;}.cls-45{letter-spacing:0em;}.cls-46{letter-spacing:0em;}.cls-47{letter-spacing:0em;}.cls-105,.cls-145,.cls-48{letter-spacing:0.02em;}.cls-49{letter-spacing:-0.02em;}.cls-51{stroke:#fff;}.cls-52{font-size:7.46px;}.cls-53{letter-spacing:-0.01em;}.cls-54{letter-spacing:-0.01em;}.cls-55{letter-spacing:-0.02em;}.cls-56{letter-spacing:-0.02em;}.cls-57{letter-spacing:0em;}.cls-58{letter-spacing:-0.02em;}.cls-59{letter-spacing:-0.01em;}.cls-60{letter-spacing:-0.01em;}.cls-61{letter-spacing:-0.01em;}.cls-62{letter-spacing:-0.01em;}.cls-63{letter-spacing:-0.01em;}.cls-64{letter-spacing:-0.02em;}.cls-65{letter-spacing:0.01em;}.cls-66{letter-spacing:0em;}.cls-67{letter-spacing:0em;}.cls-68{letter-spacing:0em;}.cls-69{letter-spacing:-0.02em;}.cls-70{letter-spacing:-0.02em;}.cls-71{letter-spacing:-0.01em;}.cls-72{letter-spacing:0em;}.cls-73,.cls-76{font-size:12.26px;}.cls-73{letter-spacing:-0.05em;}.cls-74{letter-spacing:0em;}.cls-75{letter-spacing:-0.01em;}.cls-77{letter-spacing:-0.01em;}.cls-78{letter-spacing:-0.02em;}.cls-79{letter-spacing:-0.01em;}.cls-80{letter-spacing:-0.02em;}.cls-81,.cls-84{font-size:7.93px;}.cls-81{letter-spacing:-0.02em;}.cls-82{letter-spacing:-0.01em;}.cls-83{letter-spacing:0em;}.cls-85,.cls-91,.cls-96{font-size:9.05px;fill:#231f20;font-family:Averta-Semibold, Averta;}.cls-85{letter-spacing:-0.07em;}.cls-86,.cls-91,.cls-99{letter-spacing:0.02em;}.cls-87{letter-spacing:0.01em;}.cls-88,.cls-89,.cls-96{letter-spacing:0.02em;}.cls-100,.cls-101,.cls-102,.cls-89,.cls-90,.cls-93,.cls-94,.cls-95,.cls-99{font-family:Averta-Light, Averta;}.cls-90,.cls-92{letter-spacing:0.01em;}.cls-94{letter-spacing:0.01em;}.cls-95{letter-spacing:0em;}.cls-97{letter-spacing:0em;}.cls-98{letter-spacing:-0.01em;}.cls-100{letter-spacing:0.02em;}.cls-101{letter-spacing:0em;}.cls-102{letter-spacing:0em;}.cls-103,.cls-138,.cls-145,.cls-146{fill:#11172d;}.cls-104,.cls-138{letter-spacing:-0.02em;}.cls-106{letter-spacing:0em;}.cls-107{letter-spacing:0.01em;}.cls-108{letter-spacing:0.04em;}.cls-109{stroke:#141b31;stroke-width:0.4px;}.cls-110,.cls-148{font-size:11.73px;}.cls-110,.cls-115,.cls-129,.cls-148{fill:#141b31;}.cls-111{letter-spacing:-0.01em;}.cls-112{letter-spacing:0em;}.cls-113{letter-spacing:-0.02em;}.cls-114{letter-spacing:-0.01em;}.cls-115{font-size:8.53px;}.cls-116{letter-spacing:-0.01em;}.cls-117{letter-spacing:-0.01em;}.cls-118{letter-spacing:0em;}.cls-119{letter-spacing:-0.01em;}.cls-120{letter-spacing:-0.01em;}.cls-121{letter-spacing:-0.02em;}.cls-122{letter-spacing:0em;}.cls-123{letter-spacing:-0.01em;}.cls-124{letter-spacing:0em;}.cls-125{letter-spacing:-0.02em;}.cls-126{letter-spacing:0.01em;}.cls-127{letter-spacing:-0.01em;}.cls-128{letter-spacing:-0.01em;}.cls-129{font-size:7.11px;}.cls-130{letter-spacing:-0.02em;}.cls-131{letter-spacing:-0.01em;}.cls-132{letter-spacing:0em;}.cls-133{letter-spacing:0em;}.cls-134{letter-spacing:-0.02em;}.cls-135{letter-spacing:-0.01em;}.cls-136{letter-spacing:0em;}.cls-137{stroke:#11172d;}.cls-139{letter-spacing:0em;}.cls-140{letter-spacing:-0.01em;}.cls-141{letter-spacing:0em;}.cls-142{letter-spacing:-0.02em;}.cls-143{letter-spacing:0em;}.cls-144{letter-spacing:-0.03em;}.cls-146{letter-spacing:0.01em;}.cls-147{letter-spacing:0.02em;}.cls-149{letter-spacing:-0.01em;}.cls-150{letter-spacing:0em;}.cls-151{letter-spacing:-0.02em;}.cls-152{letter-spacing:0em;}.cls-153{clip-path:url(#clip-path-2);}</style><clipPath id="clip-path"><rect class="cls-1" x="449.9" y="97.66" width="269.72" height="266.73"/></clipPath><clipPath id="clip-path-2"><rect class="cls-1" x="-719.9" y="95.91" width="303.94" height="362.7"/></clipPath></defs><g id="PRINT"><rect class="cls-2" x="85.21" y="181.33" width="260.32" height="56.71"/><rect class="cls-3" x="40.07" y="69.8" width="143.79" height="5.3"/><rect class="cls-4" x="183.81" y="69.8" width="143.79" height="5.3"/><rect class="cls-4" x="40.07" y="90.37" width="143.76" height="38.31"/><text class="cls-5" transform="translate(52.14 117.53)">K<tspan class="cls-6" x="15.62" y="0">OD: 1</tspan><tspan class="cls-7" x="72.58" y="0">0.</tspan><tspan class="cls-6" x="92.16" y="0">00</tspan></text><rect class="cls-3" x="40.07" y="169.58" width="80.21" height="80.21"/><text class="cls-8" transform="translate(48.78 226.69)">10</text><text class="cls-9" transform="translate(67.92 240.86) scale(0.58)">azn</text><text class="cls-10" transform="translate(139 219.7) scale(0.58)"><tspan class="cls-11">A</tspan><tspan class="cls-12" x="29.7" y="0">z</tspan><tspan x="50.54" y="0">ə</tspan><tspan class="cls-13" x="75.27" y="0">r</tspan><tspan class="cls-14" x="91.77" y="0">b</tspan><tspan class="cls-15" x="118.77" y="0">a</tspan><tspan class="cls-16" x="142.51" y="0">y</tspan><tspan x="164.9" y="0">ca</tspan><tspan class="cls-17" x="212.14" y="0">n</tspan><tspan class="cls-18" x="239.57" y="0">dilli</tspan></text><rect class="cls-2" x="85.21" y="305.1" width="260.32" height="56.71"/><rect class="cls-3" x="40.07" y="293.35" width="80.21" height="80.21"/><text class="cls-8" transform="translate(48.78 350.46)">15</text><text class="cls-10" transform="translate(139 343.47) scale(0.58)">İ<tspan class="cls-17" x="12.68" y="0">n</tspan><tspan class="cls-18" x="40.12" y="0">gilisdilli</tspan></text><text class="cls-9" transform="translate(67.92 366.87) scale(0.58)">azn</text><path class="cls-2" d="M58.34,424.41c0,3-2.2,4.88-5.84,4.88H49v4.25H47v-14H52.5C56.14,419.53,58.34,421.37,58.34,424.41Zm-2,0c0-2-1.34-3.14-3.9-3.14H49v6.28h3.4C55,427.55,56.34,426.41,56.34,424.41Z"/><path class="cls-2" d="M66.52,422.83v1.86a3.39,3.39,0,0,0-.44,0c-2.06,0-3.34,1.26-3.34,3.58v5.29H60.82V422.93h1.84v1.78C63.34,423.47,64.66,422.83,66.52,422.83Z"/><path class="cls-2" d="M67.8,428.23a5.51,5.51,0,1,1,5.52,5.43A5.27,5.27,0,0,1,67.8,428.23Zm9.08,0a3.57,3.57,0,1,0-7.14,0,3.57,3.57,0,1,0,7.14,0Z"/><path class="cls-2" d="M83.64,422v.92h3.08v1.58h-3v9H81.76v-9H80v-1.58h1.8V422a3.19,3.19,0,0,1,3.5-3.42,3.58,3.58,0,0,1,2.16.62l-.58,1.46a2.49,2.49,0,0,0-1.48-.5C84.22,420.15,83.64,420.79,83.64,422Z"/><path class="cls-2" d="M97.92,428.87h-8.6A3.6,3.6,0,0,0,93.16,432a3.93,3.93,0,0,0,3.06-1.29l1.06,1.25a5.32,5.32,0,0,1-4.18,1.72c-3.42,0-5.7-2.27-5.7-5.43a5.19,5.19,0,0,1,5.32-5.4A5.11,5.11,0,0,1,98,428.29C98,428.45,97.94,428.69,97.92,428.87Zm-8.6-1.38h6.8a3.42,3.42,0,0,0-6.8,0Z"/><path class="cls-2" d="M99.28,432.42l.8-1.53A6.73,6.73,0,0,0,103.8,432c1.78,0,2.52-.54,2.52-1.44,0-2.39-6.7-.33-6.7-4.55,0-1.9,1.7-3.18,4.42-3.18a7.71,7.71,0,0,1,3.86,1l-.82,1.52a5.54,5.54,0,0,0-3.06-.84c-1.68,0-2.5.62-2.5,1.46,0,2.5,6.72.46,6.72,4.59,0,1.92-1.76,3.14-4.58,3.14A7.65,7.65,0,0,1,99.28,432.42Z"/><path class="cls-2" d="M109.3,432.42l.8-1.53a6.73,6.73,0,0,0,3.72,1.11c1.78,0,2.52-.54,2.52-1.44,0-2.39-6.7-.33-6.7-4.55,0-1.9,1.7-3.18,4.42-3.18a7.71,7.71,0,0,1,3.86,1l-.82,1.52a5.54,5.54,0,0,0-3.06-.84c-1.68,0-2.5.62-2.5,1.46,0,2.5,6.72.46,6.72,4.59,0,1.92-1.76,3.14-4.58,3.14A7.65,7.65,0,0,1,109.3,432.42Z"/><path class="cls-2" d="M120.44,419.85a1.18,1.18,0,1,1,2.36,0,1.18,1.18,0,1,1-2.36,0Zm.22,3.08h1.92v10.61h-1.92Z"/><path class="cls-2" d="M125.26,428.23a5.51,5.51,0,1,1,5.52,5.43A5.27,5.27,0,0,1,125.26,428.23Zm9.08,0a3.57,3.57,0,1,0-7.14,0,3.57,3.57,0,1,0,7.14,0Z"/><path class="cls-2" d="M149,427.43v6.11h-1.92v-5.89c0-2.08-1-3.1-2.86-3.1-2,0-3.36,1.22-3.36,3.52v5.47h-1.92V422.93h1.84v1.6a4.54,4.54,0,0,1,3.82-1.7C147.18,422.83,149,424.31,149,427.43Z"/><path class="cls-2" d="M161,427.13v6.41h-1.82v-1.4a3.93,3.93,0,0,1-3.48,1.52c-2.4,0-3.92-1.28-3.92-3.13,0-1.7,1.1-3.1,4.26-3.1h3v-.38c0-1.62-.94-2.56-2.84-2.56a5.36,5.36,0,0,0-3.36,1.14l-.8-1.44a7.06,7.06,0,0,1,4.38-1.36C159.32,422.83,161,424.23,161,427.13ZM159,430.3v-1.49h-3c-1.9,0-2.44.75-2.44,1.64,0,1.07.88,1.73,2.34,1.73A3.07,3.07,0,0,0,159,430.3Z"/><path class="cls-2" d="M164.52,418.69h1.92v14.85h-1.92Z"/><path class="cls-2" d="M178.38,426.53a7.08,7.08,0,0,1,7.42-7.16,6.92,6.92,0,0,1,5.32,2.18l-1.3,1.26a5.19,5.19,0,0,0-3.94-1.66,5.39,5.39,0,1,0,0,10.77,5.18,5.18,0,0,0,3.94-1.69l1.3,1.27a7,7,0,0,1-5.34,2.2A7.08,7.08,0,0,1,178.38,426.53Z"/><path class="cls-2" d="M206,419.53l-6.14,14h-2l-6.16-14h2.16l5,11.5,5.08-11.5Z"/><path class="cls-2" d="M227,427.43v6.11h-1.92v-5.89c0-2.08-1-3.1-2.86-3.1-2,0-3.36,1.22-3.36,3.52v5.47h-1.92V418.69h1.92v5.74a4.6,4.6,0,0,1,3.74-1.6C225.18,422.83,227,424.31,227,427.43Z"/><path class="cls-2" d="M239,427.13v6.41h-1.82v-1.4a3.93,3.93,0,0,1-3.48,1.52c-2.4,0-3.92-1.28-3.92-3.13,0-1.7,1.1-3.1,4.26-3.1h3v-.38c0-1.62-.94-2.56-2.84-2.56a5.36,5.36,0,0,0-3.36,1.14l-.8-1.44a7.06,7.06,0,0,1,4.38-1.36C237.32,422.83,239,424.23,239,427.13ZM237,430.3v-1.49h-3c-1.9,0-2.44.75-2.44,1.64,0,1.07.88,1.73,2.34,1.73A3.07,3.07,0,0,0,237,430.3Z"/><path class="cls-2" d="M250.38,432v1.58H241.5V432.3l6.26-7.79h-6.14v-1.58h8.6v1.26L244,432Z"/><path class="cls-2" d="M252.94,422.93h1.92v10.61h-1.92Z"/><path class="cls-2" d="M264.22,422.83v1.86a3.39,3.39,0,0,0-.44,0c-2.06,0-3.34,1.26-3.34,3.58v5.29h-1.92V422.93h1.84v1.78C261,423.47,262.36,422.83,264.22,422.83Z"/><path class="cls-2" d="M266.58,418.69h1.92v14.85h-1.92Z"/><path class="cls-2" d="M280.56,427.13v6.41h-1.82v-1.4a3.93,3.93,0,0,1-3.48,1.52c-2.4,0-3.92-1.28-3.92-3.13,0-1.7,1.1-3.1,4.26-3.1h3v-.38c0-1.62-.94-2.56-2.84-2.56a5.36,5.36,0,0,0-3.36,1.14l-.8-1.44a7.06,7.06,0,0,1,4.38-1.36C278.92,422.83,280.56,424.23,280.56,427.13Zm-1.92,3.17v-1.49h-3c-1.9,0-2.44.75-2.44,1.64,0,1.07.88,1.73,2.34,1.73A3.07,3.07,0,0,0,278.64,430.3Z"/><path class="cls-2" d="M301.72,427.43v6.11H299.8v-5.89c0-2.08-1-3.1-2.74-3.1-1.92,0-3.18,1.22-3.18,3.52v5.47H292v-5.89c0-2.08-1-3.1-2.74-3.1-1.92,0-3.18,1.22-3.18,3.52v5.47h-1.92V422.93H286v1.58a4.3,4.3,0,0,1,3.66-1.68,3.92,3.92,0,0,1,3.68,2,4.78,4.78,0,0,1,4.08-2C300,422.83,301.72,424.31,301.72,427.43Z"/><path class="cls-2" d="M313.66,427.13v6.41h-1.82v-1.4a3.93,3.93,0,0,1-3.48,1.52c-2.4,0-3.92-1.28-3.92-3.13,0-1.7,1.1-3.1,4.26-3.1h3v-.38c0-1.62-.94-2.56-2.84-2.56a5.36,5.36,0,0,0-3.36,1.14l-.8-1.44a7.06,7.06,0,0,1,4.38-1.36C312,422.83,313.66,424.23,313.66,427.13Zm-1.92,3.17v-1.49h-3c-1.9,0-2.44.75-2.44,1.64,0,1.07.88,1.73,2.34,1.73A3.07,3.07,0,0,0,311.74,430.3Z"/><path class="cls-2" d="M333.12,433.54l-3.06-4.06-3.1,4.06h-2.14l4.18-5.43-4-5.18h2.14l2.92,3.82,2.9-3.82h2.1l-4,5.18,4.22,5.43Z"/><path class="cls-2" d="M337.18,419.85a1.18,1.18,0,0,1,2.36,0,1.18,1.18,0,1,1-2.36,0Zm.22,3.08h1.92v10.61H337.4Z"/><path class="cls-2" d="M353,418.69v14.85h-1.84v-1.69a4.46,4.46,0,0,1-3.78,1.81,5.42,5.42,0,0,1,0-10.83,4.51,4.51,0,0,1,3.7,1.7v-5.84Zm-1.9,9.54a3.57,3.57,0,1,0-3.56,3.75A3.49,3.49,0,0,0,351.08,428.23Z"/><path class="cls-2" d="M374.22,427.43v6.11H372.3v-5.89c0-2.08-1-3.1-2.74-3.1-1.92,0-3.18,1.22-3.18,3.52v5.47h-1.92v-5.89c0-2.08-1-3.1-2.74-3.1-1.92,0-3.18,1.22-3.18,3.52v5.47h-1.92V422.93h1.84v1.58a4.3,4.3,0,0,1,3.66-1.68,3.92,3.92,0,0,1,3.68,2,4.78,4.78,0,0,1,4.08-2C372.46,422.83,374.22,424.31,374.22,427.43Z"/><path class="cls-2" d="M387.4,428.23a5.19,5.19,0,0,1-5.32,5.41,5.11,5.11,0,0,1-5.24-5.47c0-.16,0-.4,0-.58h8.6a3.59,3.59,0,0,0-3.84-3.1,4,4,0,0,0-3.06,1.28l-1.06-1.24a5.32,5.32,0,0,1,4.18-1.72C385.12,422.81,387.4,425.07,387.4,428.23Zm-1.92.75h-6.8a3.42,3.42,0,0,0,6.8,0Z"/><path class="cls-2" d="M389.38,427.21h5.38v1.66h-5.38Z"/><path class="cls-2" d="M52.72,456.92a3.62,3.62,0,0,1-2.32.74A3,3,0,0,1,47,454.34v-5.83h-1.8v-1.58H47v-2.32H49v2.32h3v1.58H49v5.75A1.57,1.57,0,0,0,50.62,456a2.48,2.48,0,0,0,1.5-.5Z"/><path class="cls-2" d="M54.6,443.85a1.18,1.18,0,0,1,2.36,0,1.18,1.18,0,0,1-2.36,0Zm.22,3.08h1.92v10.61H54.82Z"/><path class="cls-2" d="M70.24,451.43v6.11H68.31v-5.89c0-2.08-1-3.1-2.86-3.1-2,0-3.36,1.22-3.36,3.52v5.47H60.17V446.93H62v1.6a4.54,4.54,0,0,1,3.82-1.7C68.42,446.83,70.24,448.31,70.24,451.43Z"/><path class="cls-2" d="M83.63,442.69v14.85H81.79v-1.69A4.46,4.46,0,0,1,78,457.66a5.42,5.42,0,0,1,0-10.83,4.51,4.51,0,0,1,3.7,1.7v-5.84Zm-1.9,9.54A3.57,3.57,0,1,0,78.17,456,3.49,3.49,0,0,0,81.73,452.23Z"/><path class="cls-2" d="M96.63,452.23a5.19,5.19,0,0,1-5.32,5.41,5.11,5.11,0,0,1-5.24-5.47c0-.16,0-.4,0-.58h8.6a3.59,3.59,0,0,0-3.84-3.1,4,4,0,0,0-3.06,1.28l-1.06-1.24a5.32,5.32,0,0,1,4.18-1.72C94.35,446.81,96.63,449.07,96.63,452.23Zm-1.92.75h-6.8a3.42,3.42,0,0,0,6.8,0Z"/><path class="cls-2" d="M114.58,452.23a5.16,5.16,0,0,1-5.37,5.43,4.53,4.53,0,0,1-3.7-1.72v5.48h-1.92V446.93h1.84v1.68a4.51,4.51,0,0,1,3.78-1.78A5.15,5.15,0,0,1,114.58,452.23Zm-2,0a3.57,3.57,0,1,0-3.58,3.75A3.5,3.5,0,0,0,112.63,452.23Z"/><path class="cls-2" d="M126.55,452.87H118a3.6,3.6,0,0,0,3.84,3.11,3.93,3.93,0,0,0,3.06-1.29l1.06,1.25a5.32,5.32,0,0,1-4.18,1.72c-3.42,0-5.7-2.27-5.7-5.43a5.19,5.19,0,0,1,5.32-5.4,5.11,5.11,0,0,1,5.24,5.46C126.59,452.45,126.57,452.69,126.55,452.87Zm-8.6-1.38h6.8a3.42,3.42,0,0,0-6.8,0Z"/><path class="cls-2" d="M132.65,457.64l-.24.9c1.16.12,1.74.78,1.74,1.66,0,1.12-1,1.82-2.48,1.82a3.36,3.36,0,0,1-1.78-.44l.42-1a2.64,2.64,0,0,0,1.36.34c.76,0,1.12-.3,1.12-.8s-.34-.78-1.14-.78h-.54l.44-1.72a7.17,7.17,0,0,1-3.86-1.22l.8-1.53a6.73,6.73,0,0,0,3.72,1.11c1.78,0,2.52-.54,2.52-1.44,0-2.39-6.7-.33-6.7-4.55,0-1.9,1.7-3.18,4.42-3.18a7.71,7.71,0,0,1,3.86,1l-.82,1.52a5.54,5.54,0,0,0-3.06-.84c-1.68,0-2.5.62-2.5,1.46,0,2.5,6.72.46,6.72,4.59C136.65,456.3,135.13,457.48,132.65,457.64Z"/><path class="cls-2" d="M148.41,452.23a5.19,5.19,0,0,1-5.32,5.41,5.11,5.11,0,0,1-5.24-5.47c0-.16,0-.4,0-.58h8.6a3.59,3.59,0,0,0-3.84-3.1,4,4,0,0,0-3.06,1.28l-1.06-1.24a5.32,5.32,0,0,1,4.18-1.72C146.13,446.81,148.41,449.07,148.41,452.23Zm-1.92.75h-6.8a3.42,3.42,0,0,0,6.8,0Z"/><path class="cls-2" d="M155,452.59l-2.2,2.05v2.9h-1.93V442.69h1.93v9.52l5.78-5.28h2.32l-4.46,4.38,4.9,6.23H159Z"/><path class="cls-2" d="M171.15,451.13v6.41h-1.83v-1.4a3.93,3.93,0,0,1-3.48,1.52c-2.4,0-3.92-1.28-3.92-3.13,0-1.7,1.1-3.1,4.26-3.1h3v-.38c0-1.62-.94-2.56-2.84-2.56a5.36,5.36,0,0,0-3.36,1.14l-.8-1.44a7.06,7.06,0,0,1,4.38-1.36C169.5,446.83,171.15,448.23,171.15,451.13Zm-1.93,3.17v-1.49h-3c-1.9,0-2.44.75-2.44,1.64,0,1.07.88,1.73,2.34,1.73A3.07,3.07,0,0,0,169.22,454.3Z"/><path class="cls-2" d="M180.18,446.83v1.86a3.39,3.39,0,0,0-.44,0c-2.06,0-3.34,1.26-3.34,3.58v5.29h-1.92V446.93h1.84v1.78C177,447.47,178.32,446.83,180.18,446.83Z"/><path class="cls-2" d="M191.11,452.59l-2.2,2.05v2.9H187V442.69h1.92v9.52l5.78-5.28H197l-4.46,4.38,4.9,6.23h-2.36Z"/><path class="cls-2" d="M197.66,452.23a5.52,5.52,0,1,1,5.52,5.43A5.27,5.27,0,0,1,197.66,452.23Zm9.09,0a3.58,3.58,0,1,0-3.57,3.75A3.49,3.49,0,0,0,206.75,452.23Z"/><path class="cls-2" d="M228.73,451.43v6.11h-1.92v-5.89c0-2.08-1-3.1-2.75-3.1-1.92,0-3.18,1.22-3.18,3.52v5.47H219v-5.89c0-2.08-1-3.1-2.74-3.1-1.92,0-3.18,1.22-3.18,3.52v5.47h-1.92V446.93H213v1.58a4.3,4.3,0,0,1,3.66-1.68,3.92,3.92,0,0,1,3.68,2,4.78,4.78,0,0,1,4.08-2C227,446.83,228.73,448.31,228.73,451.43Z"/><path class="cls-2" d="M240.44,451.13v6.41h-1.82v-1.4a3.93,3.93,0,0,1-3.48,1.52c-2.4,0-3.92-1.28-3.92-3.13,0-1.7,1.1-3.1,4.26-3.1h3v-.38c0-1.62-.94-2.56-2.84-2.56a5.36,5.36,0,0,0-3.36,1.14l-.8-1.44a7.06,7.06,0,0,1,4.38-1.36C238.8,446.83,240.44,448.23,240.44,451.13Zm-1.92,3.17v-1.49h-3c-1.9,0-2.44.75-2.44,1.64,0,1.07.88,1.73,2.34,1.73A3.07,3.07,0,0,0,238.52,454.3Z"/><path class="cls-2" d="M253.84,451.43v6.11h-1.92v-5.89c0-2.08-1-3.1-2.86-3.1-2,0-3.36,1.22-3.36,3.52v5.47h-1.92V446.93h1.84v1.6a4.54,4.54,0,0,1,3.82-1.7C252,446.83,253.84,448.31,253.84,451.43Z"/><path class="cls-2" d="M267.24,442.69v14.85H265.4v-1.69a4.46,4.46,0,0,1-3.78,1.81,5.42,5.42,0,0,1,0-10.83,4.51,4.51,0,0,1,3.7,1.7v-5.84Zm-1.9,9.54a3.57,3.57,0,1,0-3.56,3.75A3.49,3.49,0,0,0,265.34,452.23Z"/><path class="cls-2" d="M279.06,451.13v6.41h-1.83v-1.4a3.93,3.93,0,0,1-3.48,1.52c-2.4,0-3.92-1.28-3.92-3.13,0-1.7,1.1-3.1,4.26-3.1h3v-.38c0-1.62-.94-2.56-2.84-2.56a5.36,5.36,0,0,0-3.36,1.14l-.8-1.44a7.06,7.06,0,0,1,4.38-1.36C277.42,446.83,279.06,448.23,279.06,451.13Zm-1.93,3.17v-1.49h-3c-1.9,0-2.44.75-2.44,1.64,0,1.07.88,1.73,2.34,1.73A3.07,3.07,0,0,0,277.13,454.3Z"/><path class="cls-2" d="M300,451.43v6.11h-1.92v-5.89c0-2.08-1-3.1-2.75-3.1-1.92,0-3.18,1.22-3.18,3.52v5.47h-1.92v-5.89c0-2.08-1-3.1-2.74-3.1-1.92,0-3.18,1.22-3.18,3.52v5.47h-1.92V446.93h1.84v1.58a4.3,4.3,0,0,1,3.66-1.68,3.92,3.92,0,0,1,3.68,2,4.78,4.78,0,0,1,4.08-2C298.24,446.83,300,448.31,300,451.43Z"/><path class="cls-2" d="M303.31,446.93h1.92v10.61h-1.92Z"/><path class="cls-2" d="M316.53,456v1.58h-8.88V456.3l6.26-7.79h-6.14v-1.58h8.6v1.26L310.11,456Z"/><path class="cls-2" d="M329.35,456.92a3.62,3.62,0,0,1-2.32.74,3,3,0,0,1-3.36-3.32v-5.83h-1.8v-1.58h1.8v-2.32h1.92v2.32h3v1.58h-3v5.75a1.57,1.57,0,0,0,1.66,1.78,2.48,2.48,0,0,0,1.5-.5Z"/><path class="cls-2" d="M340.67,452.23a5.19,5.19,0,0,1-5.32,5.41,5.11,5.11,0,0,1-5.24-5.47c0-.16,0-.4,0-.58h8.6a3.59,3.59,0,0,0-3.84-3.1,4,4,0,0,0-3.06,1.28l-1.06-1.24a5.32,5.32,0,0,1,4.18-1.72C338.39,446.81,340.67,449.07,340.67,452.23Zm-1.92.75H332a3.42,3.42,0,0,0,6.8,0Z"/><path class="cls-2" d="M348.81,446.83v1.86a3.39,3.39,0,0,0-.44,0c-2.06,0-3.34,1.26-3.34,3.58v5.29h-1.92V446.93H345v1.78C345.63,447.47,347,446.83,348.81,446.83Z"/><path class="cls-2" d="M360.43,452.23a5.19,5.19,0,0,1-5.32,5.41,5.12,5.12,0,0,1-5.25-5.47c0-.16,0-.4,0-.58h8.61a3.59,3.59,0,0,0-3.84-3.1,4,4,0,0,0-3.07,1.28l-1.06-1.24a5.33,5.33,0,0,1,4.19-1.72C358.15,446.81,360.43,449.07,360.43,452.23Zm-1.92.75h-6.8a3.42,3.42,0,0,0,6.8,0Z"/><path class="cls-2" d="M365,446v.92h3.08v1.58h-3v9h-1.92v-9h-1.8v-1.58h1.8V446a3.19,3.19,0,0,1,3.5-3.42,3.58,3.58,0,0,1,2.16.62l-.58,1.46a2.49,2.49,0,0,0-1.48-.5C365.6,444.15,365,444.79,365,446Z"/><path class="cls-2" d="M371.08,443.85a1.18,1.18,0,0,1,2.36,0,1.18,1.18,0,1,1-2.36,0Zm.22,3.08h1.92v10.61H371.3Z"/><path class="cls-2" d="M386.72,451.43v6.11H384.8v-5.89c0-2.08-1-3.1-2.86-3.1-2,0-3.36,1.22-3.36,3.52v5.47h-1.92V446.93h1.84v1.6a4.54,4.54,0,0,1,3.82-1.7C384.9,446.83,386.72,448.31,386.72,451.43Z"/><path class="cls-2" d="M389.38,451.21h5.38v1.66h-5.38Z"/><path class="cls-2" d="M56.76,466.69v14.85H54.92v-1.69a4.46,4.46,0,0,1-3.78,1.81,5.42,5.42,0,0,1,0-10.83,4.51,4.51,0,0,1,3.7,1.7v-5.84Zm-1.9,9.54A3.57,3.57,0,1,0,51.3,480,3.49,3.49,0,0,0,54.86,476.23Z"/><path class="cls-2" d="M70,476.23a5.19,5.19,0,0,1-5.32,5.41,5.11,5.11,0,0,1-5.24-5.47c0-.16,0-.4,0-.58h8.6a3.59,3.59,0,0,0-3.84-3.1,4,4,0,0,0-3.06,1.28l-1.06-1.24a5.32,5.32,0,0,1,4.18-1.72C67.7,470.81,70,473.07,70,476.23Zm-1.92.75h-6.8a3.42,3.42,0,0,0,6.8,0Z"/><path class="cls-2" d="M82.7,475.43v6.11H80.78v-5.89c0-2.08-1-3.1-2.86-3.1-2,0-3.36,1.22-3.36,3.52v5.47H72.64V470.93h1.84v1.6a4.54,4.54,0,0,1,3.82-1.7C80.88,470.83,82.7,472.31,82.7,475.43Z"/><path class="cls-2" d="M91.75,474.53a7.09,7.09,0,0,1,7.43-7.16,6.92,6.92,0,0,1,5.32,2.18l-1.3,1.26a5.19,5.19,0,0,0-3.94-1.66,5.39,5.39,0,1,0,0,10.77,5.18,5.18,0,0,0,3.94-1.69l1.3,1.27a7,7,0,0,1-5.34,2.2A7.09,7.09,0,0,1,91.75,474.53Z"/><path class="cls-2" d="M119.38,467.53l-6.14,14h-2l-6.17-14h2.16l5,11.5,5.08-11.5Z"/><path class="cls-2" d="M120.62,467.53h1.67l-.13,5.4h-1.43Z"/><path class="cls-2" d="M135.44,475.43v6.11h-1.92v-5.89c0-2.08-1-3.1-2.86-3.1-2,0-3.36,1.22-3.36,3.52v5.47h-1.93V470.93h1.85v1.6a4.54,4.54,0,0,1,3.82-1.7C133.62,470.83,135.44,472.31,135.44,475.43Z"/><path class="cls-2" d="M138.78,467.85A1.18,1.18,0,1,1,140,469,1.15,1.15,0,0,1,138.78,467.85Zm.22,3.08h1.92v10.61H139Z"/><path class="cls-2" d="M152.44,480v1.58h-8.89V480.3l6.27-7.79h-6.15v-1.58h8.61v1.26L146,480Z"/><path class="cls-2" d="M154.78,467.85A1.18,1.18,0,1,1,156,469,1.15,1.15,0,0,1,154.78,467.85Zm.22,3.08h1.92v10.61H155Z"/><path class="cls-2" d="M176.93,470.93v14.49H175v-5.48a4.53,4.53,0,0,1-3.7,1.72,5.42,5.42,0,0,1,0-10.83,4.51,4.51,0,0,1,3.78,1.78v-1.68Zm-1.9,5.3a3.57,3.57,0,1,0-3.56,3.75A3.5,3.5,0,0,0,175,476.23Z"/><path class="cls-2" d="M190.45,470.93v10.61h-1.82v-1.6a4.31,4.31,0,0,1-3.6,1.72c-2.74,0-4.56-1.5-4.56-4.63v-6.1h1.92v5.88c0,2.08,1,3.13,2.86,3.13,2,0,3.28-1.25,3.28-3.53v-5.48Z"/><path class="cls-2" d="M199.81,470.83v1.86a3.39,3.39,0,0,0-.44,0c-2.06,0-3.34,1.26-3.34,3.58v5.29h-1.92V470.93H196v1.78C196.63,471.47,198,470.83,199.81,470.83Z"/><path class="cls-2" d="M212.19,470.93v10.61h-1.82v-1.6a4.31,4.31,0,0,1-3.6,1.72c-2.74,0-4.56-1.5-4.56-4.63v-6.1h1.92v5.88c0,2.08,1,3.13,2.86,3.13,2,0,3.28-1.25,3.28-3.53v-5.48Z"/><path class="cls-2" d="M215.85,466.69h1.92v14.85h-1.92Z"/><path class="cls-2" d="M231.31,470.93v10.61h-1.82v-1.6a4.31,4.31,0,0,1-3.6,1.72c-2.74,0-4.56-1.5-4.56-4.63v-6.1h1.92v5.88c0,2.08,1,3.13,2.86,3.13,2,0,3.28-1.25,3.28-3.53v-5.48Z"/><path class="cls-2" d="M238.59,481.64l-.24.9c1.16.12,1.74.78,1.74,1.66,0,1.12-1,1.82-2.48,1.82a3.36,3.36,0,0,1-1.78-.44l.42-1a2.64,2.64,0,0,0,1.36.34c.76,0,1.12-.3,1.12-.8s-.34-.78-1.14-.78h-.54l.44-1.72a7.17,7.17,0,0,1-3.86-1.22l.8-1.53a6.73,6.73,0,0,0,3.72,1.11c1.78,0,2.52-.54,2.52-1.44,0-2.39-6.7-.33-6.7-4.55,0-1.9,1.7-3.18,4.42-3.18a7.71,7.71,0,0,1,3.86,1l-.82,1.52a5.54,5.54,0,0,0-3.06-.84c-1.68,0-2.5.62-2.5,1.46,0,2.5,6.72.46,6.72,4.59C242.59,480.3,241.07,481.48,238.59,481.64Z"/><path class="cls-2" d="M260.73,470.93l-4.64,10.61h-2l-4.64-10.61h2l3.64,8.51,3.72-8.51Z"/><path class="cls-2" d="M271.81,476.23a5.19,5.19,0,0,1-5.32,5.41,5.11,5.11,0,0,1-5.24-5.47c0-.16,0-.4,0-.58h8.6a3.59,3.59,0,0,0-3.84-3.1,4,4,0,0,0-3.06,1.28l-1.06-1.24a5.32,5.32,0,0,1,4.18-1.72C269.53,470.81,271.81,473.07,271.81,476.23Zm-1.92.75h-6.8a3.42,3.42,0,0,0,6.8,0Z"/><path class="cls-2" d="M283,470v.92h3.08v1.58h-3v9H281.1v-9h-1.8v-1.58h1.8V470a3.19,3.19,0,0,1,3.5-3.42,3.58,3.58,0,0,1,2.16.62l-.58,1.46a2.49,2.49,0,0,0-1.48-.5C283.56,468.15,283,468.79,283,470Z"/><path class="cls-2" d="M286.74,476.23a5.51,5.51,0,1,1,5.52,5.43A5.27,5.27,0,0,1,286.74,476.23Zm9.08,0a3.57,3.57,0,1,0-7.14,0,3.57,3.57,0,1,0,7.14,0Z"/><path class="cls-2" d="M306.12,470.83v1.86a3.39,3.39,0,0,0-.44,0c-2.06,0-3.34,1.26-3.34,3.58v5.29h-1.92V470.93h1.84v1.78C302.94,471.47,304.26,470.83,306.12,470.83Z"/><path class="cls-2" d="M326.09,475.43v6.11h-1.92v-5.89c0-2.08-1-3.1-2.75-3.1-1.92,0-3.18,1.22-3.18,3.52v5.47h-1.92v-5.89c0-2.08-1-3.1-2.74-3.1-1.92,0-3.18,1.22-3.18,3.52v5.47h-1.92V470.93h1.84v1.58a4.3,4.3,0,0,1,3.66-1.68,3.92,3.92,0,0,1,3.68,2,4.8,4.8,0,0,1,4.09-2C324.33,470.83,326.09,472.31,326.09,475.43Z"/><path class="cls-2" d="M338,475.13v6.41H336.2v-1.4a3.93,3.93,0,0,1-3.48,1.52c-2.4,0-3.92-1.28-3.92-3.13,0-1.7,1.1-3.1,4.26-3.1h3v-.38c0-1.62-.94-2.56-2.84-2.56a5.36,5.36,0,0,0-3.36,1.14l-.8-1.44a7.06,7.06,0,0,1,4.38-1.36C336.38,470.83,338,472.23,338,475.13Zm-1.92,3.17v-1.49h-3c-1.9,0-2.44.75-2.44,1.64,0,1.07.88,1.73,2.34,1.73A3.07,3.07,0,0,0,336.1,478.3Z"/><path class="cls-2" d="M358.92,476.23a5.16,5.16,0,0,1-5.36,5.43,4.46,4.46,0,0,1-3.78-1.81v1.69h-1.84V466.69h1.92v5.84a4.51,4.51,0,0,1,3.7-1.7A5.14,5.14,0,0,1,358.92,476.23Zm-1.94,0A3.57,3.57,0,1,0,353.4,480,3.49,3.49,0,0,0,357,476.23Z"/><path class="cls-2" d="M369.88,475.13v6.41h-1.82v-1.4a3.93,3.93,0,0,1-3.48,1.52c-2.4,0-3.92-1.28-3.92-3.13,0-1.7,1.1-3.1,4.26-3.1h3v-.38c0-1.62-.94-2.56-2.84-2.56a5.36,5.36,0,0,0-3.36,1.14l-.8-1.44a7.06,7.06,0,0,1,4.38-1.36C368.24,470.83,369.88,472.23,369.88,475.13ZM368,478.3v-1.49h-3c-1.9,0-2.44.75-2.44,1.64,0,1.07.88,1.73,2.34,1.73A3.07,3.07,0,0,0,368,478.3Z"/><path class="cls-2" d="M380.2,481.54l-3.06-4.06-3.1,4.06H371.9l4.18-5.43-4-5.18h2.14l2.92,3.82,2.9-3.82h2.1l-4,5.18,4.22,5.43Z"/><path class="cls-2" d="M384.48,470.93h1.92v10.61h-1.92Z"/><path class="cls-2" d="M389.38,475.21h5.38v1.66h-5.38Z"/><path class="cls-2" d="M64.36,499.43v6.11H62.44v-5.89c0-2.08-1-3.1-2.74-3.1-1.92,0-3.18,1.22-3.18,3.52v5.47H54.6v-5.89c0-2.08-1-3.1-2.74-3.1-1.92,0-3.18,1.22-3.18,3.52v5.47H46.76V494.93H48.6v1.58a4.3,4.3,0,0,1,3.66-1.68,3.92,3.92,0,0,1,3.68,2,4.78,4.78,0,0,1,4.08-2C62.6,494.83,64.36,496.31,64.36,499.43Z"/><path class="cls-2" d="M67.9,494.93h1.92v10.61H67.9Z"/><path class="cls-2" d="M83.54,499.43v6.11H81.62v-5.89c0-2.08-1-3.1-2.86-3.1-2,0-3.36,1.22-3.36,3.52v5.47H73.48V494.93h1.84v1.6a4.54,4.54,0,0,1,3.82-1.7C81.72,494.83,83.54,496.31,83.54,499.43Z"/><path class="cls-2" d="M97.16,490.69v14.85H95.32v-1.69a4.46,4.46,0,0,1-3.78,1.81,5.42,5.42,0,0,1,0-10.83,4.51,4.51,0,0,1,3.7,1.7v-5.84Zm-1.9,9.54A3.57,3.57,0,1,0,91.7,504,3.49,3.49,0,0,0,95.26,500.23Z"/><path class="cls-2" d="M109.2,499.13v6.41h-1.82v-1.4a3.93,3.93,0,0,1-3.48,1.52c-2.4,0-3.92-1.28-3.92-3.13,0-1.7,1.1-3.1,4.26-3.1h3v-.38c0-1.62-.94-2.56-2.84-2.56a5.36,5.36,0,0,0-3.36,1.14l-.8-1.44a7.06,7.06,0,0,1,4.38-1.36C107.56,494.83,109.2,496.23,109.2,499.13Zm-1.92,3.17v-1.49h-3c-1.9,0-2.44.75-2.44,1.64,0,1.07.88,1.73,2.34,1.73A3.07,3.07,0,0,0,107.28,502.3Z"/><path class="cls-2" d="M122.82,499.43v6.11H120.9v-5.89c0-2.08-1-3.1-2.86-3.1-2,0-3.36,1.22-3.36,3.52v5.47h-1.92V494.93h1.84v1.6a4.54,4.54,0,0,1,3.82-1.7C121,494.83,122.82,496.31,122.82,499.43Z"/><path class="cls-2" d="M142.65,494.93v9.17c0,3.74-1.9,5.44-5.5,5.44a7.85,7.85,0,0,1-5.06-1.58l.92-1.48a6.47,6.47,0,0,0,4.08,1.38c2.5,0,3.64-1.16,3.64-3.56v-.84a4.85,4.85,0,0,1-3.82,1.64,5.14,5.14,0,1,1,0-10.27,4.84,4.84,0,0,1,3.92,1.74v-1.64Zm-1.88,5a3.66,3.66,0,0,0-7.3,0,3.65,3.65,0,0,0,7.3,0Z"/><path class="cls-2" d="M156.19,494.93v10.61h-1.82v-1.6a4.31,4.31,0,0,1-3.6,1.72c-2.74,0-4.56-1.5-4.56-4.63v-6.1h1.92v5.88c0,2.08,1,3.13,2.86,3.13,2,0,3.28-1.25,3.28-3.53v-5.48Zm-7.86-2.9a1,1,0,1,1,2,0,1,1,0,0,1-2,0Zm3.72,0a1,1,0,1,1,2,0,1,1,0,0,1-2,0Z"/><path class="cls-2" d="M158.87,500.23a5.3,5.3,0,0,1,5.6-5.4,4.73,4.73,0,0,1,4.32,2.26l-1.46.94a3.3,3.3,0,0,0-2.88-1.52,3.74,3.74,0,0,0,0,7.47,3.29,3.29,0,0,0,2.88-1.53l1.46.93a4.74,4.74,0,0,1-4.32,2.28A5.32,5.32,0,0,1,158.87,500.23Z"/><path class="cls-2" d="M171.13,490.69h1.92v14.85h-1.92Z"/><path class="cls-2" d="M186.29,500.23a5.19,5.19,0,0,1-5.32,5.41,5.11,5.11,0,0,1-5.24-5.47c0-.16,0-.4,0-.58h8.6a3.59,3.59,0,0,0-3.84-3.1,4,4,0,0,0-3.06,1.28l-1.06-1.24a5.32,5.32,0,0,1,4.18-1.72C184,494.81,186.29,497.07,186.29,500.23Zm-1.92.75h-6.8a3.42,3.42,0,0,0,6.8,0Z"/><path class="cls-2" d="M199,499.43v6.11h-1.92v-5.89c0-2.08-1-3.1-2.86-3.1-2,0-3.36,1.22-3.36,3.52v5.47H189V494.93h1.84v1.6a4.54,4.54,0,0,1,3.82-1.7C197.19,494.83,199,496.31,199,499.43Z"/><path class="cls-2" d="M212.63,490.69v14.85h-1.84v-1.69a4.46,4.46,0,0,1-3.78,1.81,5.42,5.42,0,0,1,0-10.83,4.51,4.51,0,0,1,3.7,1.7v-5.84Zm-1.9,9.54a3.57,3.57,0,1,0-3.56,3.75A3.49,3.49,0,0,0,210.73,500.23Z"/><path class="cls-2" d="M216.05,491.85a1.18,1.18,0,0,1,2.36,0,1.18,1.18,0,1,1-2.36,0Zm.22,3.08h1.92v10.61h-1.92Z"/><path class="cls-2" d="M227.55,494.83v1.86a3.39,3.39,0,0,0-.44,0c-2.06,0-3.34,1.26-3.34,3.58v5.29h-1.92V494.93h1.84v1.78C224.37,495.47,225.69,494.83,227.55,494.83Z"/><path class="cls-2" d="M229.69,491.85a1.18,1.18,0,0,1,2.36,0,1.18,1.18,0,1,1-2.36,0Zm.22,3.08h1.92v10.61h-1.92Z"/><path class="cls-2" d="M246.47,500.23a5.16,5.16,0,0,1-5.36,5.43,4.46,4.46,0,0,1-3.78-1.81v1.69h-1.84V490.69h1.92v5.84a4.51,4.51,0,0,1,3.7-1.7A5.14,5.14,0,0,1,246.47,500.23Zm-1.94,0A3.57,3.57,0,1,0,241,504,3.49,3.49,0,0,0,244.53,500.23Z"/><path class="cls-2" d="M250.67,504.27a4,4,0,0,1-.34,1.45l-.94,2.78h-1.26l.74-3a1.28,1.28,0,0,1-.84-1.25,1.31,1.31,0,0,1,1.34-1.35A1.29,1.29,0,0,1,250.67,504.27Z"/><path class="cls-2" d="M258.58,500.23a5.52,5.52,0,1,1,5.53,5.43A5.28,5.28,0,0,1,258.58,500.23Zm9.09,0a3.57,3.57,0,1,0-7.14,0,3.57,3.57,0,1,0,7.14,0Zm-6.46-8.2a1,1,0,1,1,2,0,1,1,0,0,1-2,0Zm3.72,0a1,1,0,1,1,2,0,1,1,0,0,1-2,0Z"/><path class="cls-2" d="M280,504v1.58h-8.89V504.3l6.27-7.79H271.2v-1.58h8.61v1.26L273.54,504Z"/><path class="cls-2" d="M292,500.23a5.2,5.2,0,0,1-5.33,5.41,5.11,5.11,0,0,1-5.24-5.47c0-.16,0-.4,0-.58H290a3.59,3.59,0,0,0-3.84-3.1,4,4,0,0,0-3.07,1.28l-1.06-1.24a5.33,5.33,0,0,1,4.19-1.72C289.67,494.81,292,497.07,292,500.23ZM290,501h-6.81a3.43,3.43,0,0,0,6.81,0Z"/><path class="cls-2" d="M294.6,490.69h1.93v14.85H294.6Z"/><path class="cls-2" d="M316.32,490.69v14.85h-1.84v-1.69a4.46,4.46,0,0,1-3.78,1.81,5.42,5.42,0,0,1,0-10.83,4.51,4.51,0,0,1,3.7,1.7v-5.84Zm-1.9,9.54a3.57,3.57,0,1,0-3.56,3.75A3.49,3.49,0,0,0,314.42,500.23Z"/><path class="cls-2" d="M319.74,491.85a1.18,1.18,0,1,1,2.36,0,1.18,1.18,0,1,1-2.36,0Zm.22,3.08h1.92v10.61H320Z"/><path class="cls-2" d="M333.4,504v1.58h-8.88V504.3l6.26-7.79h-6.14v-1.58h8.6v1.26L327,504Z"/><path class="cls-2" d="M344.36,499.13v6.41h-1.82v-1.4a3.93,3.93,0,0,1-3.48,1.52c-2.4,0-3.92-1.28-3.92-3.13,0-1.7,1.1-3.1,4.26-3.1h3v-.38c0-1.62-.94-2.56-2.84-2.56a5.36,5.36,0,0,0-3.36,1.14l-.8-1.44a7.06,7.06,0,0,1,4.38-1.36C342.72,494.83,344.36,496.23,344.36,499.13Zm-1.92,3.17v-1.49h-3c-1.9,0-2.44.75-2.44,1.64,0,1.07.88,1.73,2.34,1.73A3.07,3.07,0,0,0,342.44,502.3Z"/><path class="cls-2" d="M357.1,494.93,352,506.6c-.94,2.24-2.16,2.94-3.78,2.94a4,4,0,0,1-2.72-1l.82-1.44a2.71,2.71,0,0,0,1.9.78c.92,0,1.5-.42,2-1.64l.34-.74-4.68-10.59h2l3.7,8.49,3.66-8.49Z"/><path class="cls-2" d="M369,499.43v6.11H367v-5.89c0-2.08-1-3.1-2.86-3.1-2,0-3.36,1.22-3.36,3.52v5.47H358.9V494.93h1.84v1.6a4.54,4.54,0,0,1,3.82-1.7C367.14,494.83,369,496.31,369,499.43Z"/><path class="cls-2" d="M372.52,490.69h1.92v14.85h-1.92Z"/><path class="cls-2" d="M386.5,499.13v6.41h-1.82v-1.4a3.93,3.93,0,0,1-3.48,1.52c-2.4,0-3.92-1.28-3.92-3.13,0-1.7,1.1-3.1,4.26-3.1h3v-.38c0-1.62-.94-2.56-2.84-2.56a5.36,5.36,0,0,0-3.36,1.14l-.8-1.44a7.06,7.06,0,0,1,4.38-1.36C384.86,494.83,386.5,496.23,386.5,499.13Zm-1.92,3.17v-1.49h-3c-1.9,0-2.44.75-2.44,1.64,0,1.07.88,1.73,2.34,1.73A3.07,3.07,0,0,0,384.58,502.3Z"/><path class="cls-2" d="M389.38,499.21h5.38v1.66h-5.38Z"/><path class="cls-2" d="M52.46,518.83v1.86a3.39,3.39,0,0,0-.44,0c-2.06,0-3.34,1.26-3.34,3.58v5.29H46.76V518.93H48.6v1.78C49.28,519.47,50.6,518.83,52.46,518.83Z"/><path class="cls-2" d="M54.64,518.93h1.92v10.61H54.64Z"/><path class="cls-2" d="M77.64,523.43v6.11H75.72v-5.89c0-2.08-1-3.1-2.74-3.1-1.92,0-3.18,1.22-3.18,3.52v5.47H67.88v-5.89c0-2.08-1-3.1-2.74-3.1-1.93,0-3.18,1.22-3.18,3.52v5.47H60V518.93h1.84v1.58a4.32,4.32,0,0,1,3.67-1.68,3.92,3.92,0,0,1,3.68,2,4.78,4.78,0,0,1,4.08-2C75.88,518.83,77.64,520.31,77.64,523.43Z"/><path class="cls-2" d="M81,518.93h1.92v10.61H81Z"/><path class="cls-2" d="M94.25,528v1.58H85.37V528.3l6.26-7.79H85.49v-1.58h8.6v1.26L87.83,528Z"/><path class="cls-2" d="M100.89,515.85a1.18,1.18,0,1,1,2.36,0,1.18,1.18,0,1,1-2.36,0Zm.22,3.08H103v10.61h-1.93Z"/><path class="cls-2" d="M106.51,514.69h1.92v14.85h-1.92Z"/><path class="cls-2" d="M121.49,524.23a5.19,5.19,0,0,1-5.32,5.41,5.11,5.11,0,0,1-5.24-5.47c0-.16,0-.4,0-.58h8.6a3.59,3.59,0,0,0-3.84-3.1,4,4,0,0,0-3.06,1.28l-1.06-1.24a5.32,5.32,0,0,1,4.18-1.72C119.21,518.81,121.49,521.07,121.49,524.23Zm-1.92.75h-6.8a3.42,3.42,0,0,0,6.8,0Z"/><path class="cls-2" d="M128.24,515.85a1.18,1.18,0,1,1,1.18,1.18A1.15,1.15,0,0,1,128.24,515.85Zm.22,3.08h1.92v10.61h-1.92Z"/><path class="cls-2" d="M137.47,529.64l-.24.9c1.16.12,1.74.78,1.74,1.66,0,1.12-1,1.82-2.48,1.82a3.36,3.36,0,0,1-1.78-.44l.42-1a2.64,2.64,0,0,0,1.36.34c.76,0,1.12-.3,1.12-.8s-.34-.78-1.14-.78h-.54l.44-1.72a7.17,7.17,0,0,1-3.86-1.22l.8-1.53A6.73,6.73,0,0,0,137,528c1.78,0,2.52-.54,2.52-1.44,0-2.39-6.7-.33-6.7-4.55,0-1.9,1.7-3.18,4.42-3.18a7.71,7.71,0,0,1,3.86,1l-.82,1.52a5.54,5.54,0,0,0-3.06-.84c-1.68,0-2.5.62-2.5,1.46,0,2.5,6.72.46,6.72,4.59C141.47,528.3,140,529.48,137.47,529.64Z"/><path class="cls-2" d="M165.78,523.43v6.11h-1.92v-5.89c0-2.08-1-3.1-2.74-3.1-1.92,0-3.18,1.22-3.18,3.52v5.47H156v-5.89c0-2.08-1-3.1-2.74-3.1-1.92,0-3.18,1.22-3.18,3.52v5.47h-1.92V518.93H150v1.58a4.3,4.3,0,0,1,3.66-1.68,3.92,3.92,0,0,1,3.68,2,4.78,4.78,0,0,1,4.08-2C164,518.83,165.78,520.31,165.78,523.43Z"/><path class="cls-2" d="M179,518.93v10.61H177.2v-1.6a4.33,4.33,0,0,1-3.61,1.72c-2.74,0-4.56-1.5-4.56-4.63v-6.1H171v5.88c0,2.08,1,3.13,2.86,3.13,2,0,3.29-1.25,3.29-3.53v-5.48Zm-7.87-2.9a1,1,0,1,1,2,0,1,1,0,0,1-2,0Zm3.72,0a1,1,0,1,1,2,0,1,1,0,0,1-2,0Z"/><path class="cls-2" d="M188.19,518.83v1.86a3.39,3.39,0,0,0-.44,0c-2.06,0-3.34,1.26-3.34,3.58v5.29h-1.92V518.93h1.84v1.78C185,519.47,186.33,518.83,188.19,518.83Z"/><path class="cls-2" d="M198.75,523.13v6.41h-1.82v-1.4a3.93,3.93,0,0,1-3.48,1.52c-2.4,0-3.92-1.28-3.92-3.13,0-1.7,1.1-3.1,4.26-3.1h3v-.38c0-1.62-.94-2.56-2.84-2.56a5.36,5.36,0,0,0-3.36,1.14l-.8-1.44a7.06,7.06,0,0,1,4.38-1.36C197.11,518.83,198.75,520.23,198.75,523.13Zm-1.92,3.17v-1.49h-3c-1.9,0-2.44.75-2.44,1.64,0,1.07.88,1.73,2.34,1.73A3.07,3.07,0,0,0,196.83,526.3Z"/><path class="cls-2" d="M201.21,524.23a5.3,5.3,0,0,1,5.6-5.4,4.73,4.73,0,0,1,4.32,2.26l-1.46.94a3.3,3.3,0,0,0-2.88-1.52,3.74,3.74,0,0,0,0,7.47,3.29,3.29,0,0,0,2.88-1.53l1.46.93a4.74,4.74,0,0,1-4.32,2.28A5.32,5.32,0,0,1,201.21,524.23Z"/><path class="cls-2" d="M213.21,515.85a1.18,1.18,0,1,1,2.36,0,1.18,1.18,0,1,1-2.36,0Zm.22,3.08h1.92v10.61h-1.92Z"/><path class="cls-2" d="M228.41,524.23a5.2,5.2,0,0,1-5.33,5.41,5.11,5.11,0,0,1-5.24-5.47c0-.16,0-.4,0-.58h8.61a3.59,3.59,0,0,0-3.84-3.1,4,4,0,0,0-3.07,1.28l-1.06-1.24a5.33,5.33,0,0,1,4.19-1.72C226.13,518.81,228.41,521.07,228.41,524.23Zm-1.92.75h-6.81a3.43,3.43,0,0,0,6.81,0Z"/><path class="cls-2" d="M236.84,528.92a3.62,3.62,0,0,1-2.32.74,3,3,0,0,1-3.36-3.32v-5.83h-1.8v-1.58h1.8v-2.32h1.92v2.32h3v1.58h-3v5.75a1.57,1.57,0,0,0,1.66,1.78,2.48,2.48,0,0,0,1.5-.5Z"/><path class="cls-2" d="M239,514.69h1.92v14.85H239Z"/><path class="cls-2" d="M254,524.23a5.19,5.19,0,0,1-5.32,5.41,5.11,5.11,0,0,1-5.24-5.47c0-.16,0-.4,0-.58H252a3.59,3.59,0,0,0-3.84-3.1,4,4,0,0,0-3.06,1.28l-1.06-1.24a5.32,5.32,0,0,1,4.18-1.72C251.68,518.81,254,521.07,254,524.23ZM252,525h-6.8a3.42,3.42,0,0,0,6.8,0Z"/><path class="cls-2" d="M262.14,518.83v1.86a3.39,3.39,0,0,0-.44,0c-2.06,0-3.34,1.26-3.34,3.58v5.29h-1.92V518.93h1.84v1.78C259,519.47,260.28,518.83,262.14,518.83Z"/><path class="cls-2" d="M264.09,515.85a1.19,1.19,0,1,1,1.18,1.18A1.16,1.16,0,0,1,264.09,515.85Zm.22,3.08h1.93v10.61h-1.93Z"/><path class="cls-2" d="M279.78,523.43v6.11h-1.93v-5.89c0-2.08-1-3.1-2.86-3.1-2,0-3.36,1.22-3.36,3.52v5.47h-1.92V518.93h1.84v1.6a4.54,4.54,0,0,1,3.82-1.7C278,518.83,279.78,520.31,279.78,523.43Z"/><path class="cls-2" d="M293.21,514.69v14.85h-1.84v-1.69a4.46,4.46,0,0,1-3.78,1.81,5.42,5.42,0,0,1,0-10.83,4.51,4.51,0,0,1,3.7,1.7v-5.84Zm-1.9,9.54a3.57,3.57,0,1,0-3.56,3.75A3.49,3.49,0,0,0,291.31,524.23Z"/><path class="cls-2" d="M306.25,524.23a5.19,5.19,0,0,1-5.32,5.41,5.11,5.11,0,0,1-5.24-5.47c0-.16,0-.4,0-.58h8.6a3.59,3.59,0,0,0-3.84-3.1,4,4,0,0,0-3.06,1.28l-1.06-1.24a5.32,5.32,0,0,1,4.18-1.72C304,518.81,306.25,521.07,306.25,524.23Zm-1.92.75h-6.8a3.42,3.42,0,0,0,6.8,0Z"/><path class="cls-2" d="M323.09,518.93v10.61h-1.82v-1.6a4.31,4.31,0,0,1-3.6,1.72c-2.74,0-4.56-1.5-4.56-4.63v-6.1H315v5.88c0,2.08,1,3.13,2.86,3.13,2,0,3.28-1.25,3.28-3.53v-5.48Zm-7.86-2.9a1,1,0,1,1,2,0,1,1,0,0,1-2,0Zm3.72,0a1,1,0,1,1,1,1A1,1,0,0,1,319,516Z"/><path class="cls-2" d="M325.23,528.42l.8-1.53a6.73,6.73,0,0,0,3.72,1.11c1.78,0,2.52-.54,2.52-1.44,0-2.39-6.7-.33-6.7-4.55,0-1.9,1.7-3.18,4.42-3.18a7.71,7.71,0,0,1,3.86,1l-.82,1.52a5.54,5.54,0,0,0-3.06-.84c-1.68,0-2.5.62-2.5,1.46,0,2.5,6.72.46,6.72,4.59,0,1.92-1.76,3.14-4.58,3.14A7.65,7.65,0,0,1,325.23,528.42Z"/><path class="cls-2" d="M342.37,528.92a3.62,3.62,0,0,1-2.32.74,3,3,0,0,1-3.36-3.32v-5.83h-1.8v-1.58h1.8v-2.32h1.92v2.32h3v1.58h-3v5.75a1.57,1.57,0,0,0,1.66,1.78,2.48,2.48,0,0,0,1.5-.5Z"/><path class="cls-2" d="M354.39,518.93v10.61h-1.82v-1.6a4.31,4.31,0,0,1-3.6,1.72c-2.74,0-4.56-1.5-4.56-4.63v-6.1h1.92v5.88c0,2.08,1,3.13,2.86,3.13,2,0,3.28-1.25,3.28-3.53v-5.48Zm-7.86-2.9a1,1,0,1,1,2,0,1,1,0,1,1-2,0Zm3.72,0a1,1,0,1,1,2,0,1,1,0,1,1-2,0Z"/><path class="cls-2" d="M367.93,523.43v6.11H366v-5.89c0-2.08-1-3.1-2.86-3.1-2,0-3.36,1.22-3.36,3.52v5.47h-1.93V518.93h1.85v1.6a4.53,4.53,0,0,1,3.82-1.7C366.11,518.83,367.93,520.31,367.93,523.43Z"/><path class="cls-2" d="M371.3,514.69h1.92v14.85H371.3Z"/><path class="cls-2" d="M386.58,518.93v10.61h-1.82v-1.6a4.31,4.31,0,0,1-3.6,1.72c-2.74,0-4.56-1.5-4.56-4.63v-6.1h1.92v5.88c0,2.08,1,3.13,2.86,3.13,2,0,3.28-1.25,3.28-3.53v-5.48Zm-7.86-2.9a1,1,0,1,1,2,0,1,1,0,0,1-2,0Zm3.72,0a1,1,0,1,1,2,0,1,1,0,1,1-2,0Z"/><path class="cls-2" d="M389.38,523.21h5.38v1.66h-5.38Z"/><path class="cls-2" d="M56.14,542.93,51,554.6c-.94,2.24-2.16,2.94-3.78,2.94a4,4,0,0,1-2.72-1l.82-1.44a2.71,2.71,0,0,0,1.9.78c.92,0,1.5-.42,2-1.64l.34-.74L44.9,542.93h2l3.7,8.49,3.66-8.49Z"/><path class="cls-2" d="M67.82,542.93v10.61H66v-1.6a4.31,4.31,0,0,1-3.6,1.72c-2.74,0-4.56-1.5-4.56-4.63v-6.1h1.92v5.88c0,2.08,1,3.13,2.86,3.13,2,0,3.28-1.25,3.28-3.53v-5.48ZM60,540a1,1,0,1,1,2,0,1,1,0,0,1-2,0Zm3.72,0a1,1,0,1,1,2,0,1,1,0,1,1-2,0Z"/><path class="cls-2" d="M81.54,547.43v6.11H79.62v-5.89c0-2.08-1-3.1-2.86-3.1-2,0-3.36,1.22-3.36,3.52v5.47H71.48V542.93h1.84v1.6a4.54,4.54,0,0,1,3.82-1.7C79.72,542.83,81.54,544.31,81.54,547.43Z"/><path class="cls-2" d="M95,542.93v10.61H93.16v-1.6a4.31,4.31,0,0,1-3.6,1.72c-2.74,0-4.56-1.5-4.56-4.63v-6.1h1.92v5.88c0,2.08,1,3.13,2.86,3.13,2,0,3.28-1.25,3.28-3.53v-5.48ZM87.12,540a1,1,0,1,1,2,0,1,1,0,0,1-2,0Zm3.72,0a1,1,0,1,1,2,0,1,1,0,0,1-2,0Z"/><path class="cls-2" d="M106.5,552v1.58H97.62V552.3l6.26-7.79H97.74v-1.58h8.6v1.26L100.08,552Z"/><path class="cls-2" d="M118.94,542.93v10.61h-1.82v-1.6a4.31,4.31,0,0,1-3.6,1.72c-2.74,0-4.56-1.5-4.56-4.63v-6.1h1.92v5.88c0,2.08,1,3.13,2.86,3.13,2,0,3.28-1.25,3.28-3.53v-5.48Zm-7.86-2.9a1,1,0,1,1,2,0,1,1,0,0,1-2,0Zm3.72,0a1,1,0,1,1,2,0,1,1,0,0,1-2,0Z"/><path class="cls-2" d="M127,548.23a5.51,5.51,0,1,1,5.52,5.43A5.27,5.27,0,0,1,127,548.23Zm9.08,0a3.57,3.57,0,1,0-7.14,0,3.57,3.57,0,1,0,7.14,0Z"/><path class="cls-2" d="M146.38,542.83v1.86a3.39,3.39,0,0,0-.44,0c-2.06,0-3.34,1.26-3.34,3.58v5.29h-1.92V542.93h1.84v1.78C143.2,543.47,144.52,542.83,146.38,542.83Z"/><path class="cls-2" d="M155.14,552.92a3.62,3.62,0,0,1-2.32.74,3,3,0,0,1-3.36-3.32v-5.83h-1.8v-1.58h1.8v-2.32h1.92v2.32h3v1.58h-3v5.75A1.57,1.57,0,0,0,153,552a2.48,2.48,0,0,0,1.5-.5Z"/><path class="cls-2" d="M165.86,547.13v6.41H164v-1.4a3.93,3.93,0,0,1-3.48,1.52c-2.4,0-3.92-1.28-3.92-3.13,0-1.7,1.1-3.1,4.26-3.1h3v-.38c0-1.62-.94-2.56-2.84-2.56a5.36,5.36,0,0,0-3.36,1.14l-.8-1.44a7.06,7.06,0,0,1,4.38-1.36C164.22,542.83,165.86,544.23,165.86,547.13Zm-1.92,3.17v-1.49h-3c-1.9,0-2.44.75-2.44,1.64,0,1.07.88,1.73,2.34,1.73A3.07,3.07,0,0,0,163.94,550.3Z"/><path class="cls-2" d="M178.6,542.93l-5.14,11.67c-.94,2.24-2.16,2.94-3.78,2.94a4,4,0,0,1-2.72-1l.82-1.44a2.71,2.71,0,0,0,1.9.78c.92,0,1.5-.42,2-1.64l.34-.74-4.68-10.59h2l3.7,8.49,3.66-8.49Z"/><path class="cls-2" d="M188.46,547.13v6.41h-1.82v-1.4a3.93,3.93,0,0,1-3.48,1.52c-2.4,0-3.92-1.28-3.92-3.13,0-1.7,1.1-3.1,4.26-3.1h3v-.38c0-1.62-.94-2.56-2.84-2.56a5.36,5.36,0,0,0-3.36,1.14l-.8-1.44a7.06,7.06,0,0,1,4.38-1.36C186.82,542.83,188.46,544.23,188.46,547.13Zm-1.92,3.17v-1.49h-3c-1.9,0-2.44.75-2.44,1.64,0,1.07.88,1.73,2.34,1.73A3.07,3.07,0,0,0,186.54,550.3Z"/><path class="cls-2" d="M204.88,550.45l1.46.93a4.7,4.7,0,0,1-4.28,2.28l-.24.88c1.16.12,1.74.78,1.74,1.66,0,1.12-1,1.82-2.48,1.82a3.36,3.36,0,0,1-1.78-.44l.42-1a2.64,2.64,0,0,0,1.36.34c.76,0,1.12-.3,1.12-.8s-.34-.78-1.14-.78h-.54l.46-1.78a5.41,5.41,0,0,1,1-10.75,4.73,4.73,0,0,1,4.32,2.26l-1.46.94a3.3,3.3,0,0,0-2.88-1.52,3.74,3.74,0,0,0,0,7.47A3.29,3.29,0,0,0,204.88,550.45Z"/><path class="cls-2" d="M208.82,542.93h1.92v10.61h-1.92Z"/><path class="cls-2" d="M221.16,553.54l-3.06-4.06-3.1,4.06h-2.14l4.18-5.43-4-5.18h2.14l2.92,3.82,2.9-3.82h2.1l-4,5.18,4.22,5.43Z"/><path class="cls-2" d="M233.64,547.13v6.41h-1.82v-1.4a3.93,3.93,0,0,1-3.48,1.52c-2.4,0-3.92-1.28-3.92-3.13,0-1.7,1.1-3.1,4.26-3.1h3v-.38c0-1.62-.94-2.56-2.84-2.56a5.36,5.36,0,0,0-3.36,1.14l-.8-1.44a7.06,7.06,0,0,1,4.38-1.36C232,542.83,233.64,544.23,233.64,547.13Zm-1.92,3.17v-1.49h-3c-1.9,0-2.44.75-2.44,1.64,0,1.07.88,1.73,2.34,1.73A3.07,3.07,0,0,0,231.72,550.3Z"/><path class="cls-2" d="M242.9,542.83v1.86a3.39,3.39,0,0,0-.44,0c-2.06,0-3.34,1.26-3.34,3.58v5.29H237.2V542.93H239v1.78C239.72,543.47,241,542.83,242.9,542.83Z"/><path class="cls-2" d="M255.16,538.69v14.85h-1.84v-1.69a4.46,4.46,0,0,1-3.78,1.81,5.42,5.42,0,0,1,0-10.83,4.51,4.51,0,0,1,3.7,1.7v-5.84Zm-1.9,9.54A3.57,3.57,0,1,0,249.7,552,3.49,3.49,0,0,0,253.26,548.23Z"/><path class="cls-2" d="M267.2,547.13v6.41h-1.82v-1.4a3.93,3.93,0,0,1-3.48,1.52c-2.4,0-3.92-1.28-3.92-3.13,0-1.7,1.1-3.1,4.26-3.1h3v-.38c0-1.62-.94-2.56-2.84-2.56a5.36,5.36,0,0,0-3.36,1.14l-.8-1.44a7.06,7.06,0,0,1,4.38-1.36C265.56,542.83,267.2,544.23,267.2,547.13Zm-1.92,3.17v-1.49h-3c-1.9,0-2.44.75-2.44,1.64,0,1.07.88,1.73,2.34,1.73A3.07,3.07,0,0,0,265.28,550.3Z"/><path class="cls-2" d="M287.12,548.23a5.16,5.16,0,0,1-5.36,5.43,4.46,4.46,0,0,1-3.78-1.81v1.69h-1.84V538.69h1.92v5.84a4.51,4.51,0,0,1,3.7-1.7A5.14,5.14,0,0,1,287.12,548.23Zm-1.94,0A3.57,3.57,0,1,0,281.6,552,3.49,3.49,0,0,0,285.18,548.23Z"/><path class="cls-2" d="M289.56,539.85a1.18,1.18,0,1,1,2.36,0,1.18,1.18,0,1,1-2.36,0Zm.22,3.08h1.92v10.61h-1.92Z"/><path class="cls-2" d="M295.36,538.69h1.92v14.85h-1.92Z"/><path class="cls-2" d="M310.52,548.23a5.19,5.19,0,0,1-5.32,5.41,5.11,5.11,0,0,1-5.24-5.47c0-.16,0-.4,0-.58h8.6a3.59,3.59,0,0,0-3.84-3.1,4,4,0,0,0-3.06,1.28l-1.06-1.24a5.32,5.32,0,0,1,4.18-1.72C308.24,542.81,310.52,545.07,310.52,548.23Zm-1.92.75h-6.8a3.42,3.42,0,0,0,6.8,0Z"/><path class="cls-2" d="M318.88,542.83v1.86a3.39,3.39,0,0,0-.44,0c-2.06,0-3.34,1.26-3.34,3.58v5.29h-1.92V542.93H315v1.78C315.7,543.47,317,542.83,318.88,542.83Z"/><path class="cls-2" d="M320,552.42l.8-1.53A6.73,6.73,0,0,0,324.5,552c1.78,0,2.52-.54,2.52-1.44,0-2.39-6.7-.33-6.7-4.55,0-1.9,1.7-3.18,4.42-3.18a7.71,7.71,0,0,1,3.86,1l-.82,1.52a5.54,5.54,0,0,0-3.06-.84c-1.68,0-2.5.62-2.5,1.46,0,2.5,6.72.46,6.72,4.59,0,1.92-1.76,3.14-4.58,3.14A7.65,7.65,0,0,1,320,552.42Z"/><path class="cls-2" d="M331.12,539.85a1.18,1.18,0,1,1,2.36,0,1.18,1.18,0,1,1-2.36,0Zm.22,3.08h1.92v10.61h-1.92Z"/><path class="cls-2" d="M347,547.43v6.11h-1.92v-5.89c0-2.08-1-3.1-2.86-3.1-2,0-3.36,1.22-3.36,3.52v5.47h-1.92V542.93h1.84v1.6a4.54,4.54,0,0,1,3.82-1.7C345.16,542.83,347,544.31,347,547.43Z"/><path class="cls-2" d="M350.32,539.85a1.18,1.18,0,1,1,2.36,0,1.18,1.18,0,1,1-2.36,0Zm.22,3.08h1.92v10.61h-1.92Z"/><path class="cls-2" d="M364,552v1.58H355.1V552.3l6.26-7.79h-6.14v-1.58h8.6v1.26L357.56,552Z"/><path class="cls-2" d="M365.7,552.27a1.33,1.33,0,0,1,1.36-1.35,1.31,1.31,0,0,1,1.32,1.35,1.34,1.34,0,0,1-1.32,1.39A1.36,1.36,0,0,1,365.7,552.27Z"/><path class="cls-3" d="M778.07,549.25c.34.23,1.16-.53,1.1.55,0,.63,0,1.27,0,1.91v363.6c-.6.18-1.21.36-1.82.52L703.4,934.74l-171.81,44q-85.91,22-171.8,44-89.21,22.82-178.39,45.66c-8.92,2.29-17.93,4.29-26.73,7.06q-76.21,0-152.43,0c-1.87,0-2.24-.37-2.24-2.24Q.09,910.94.05,748.67l85.26-21.84,174-44.51,174.21-44.58,167.37-42.86q77.37-19.82,154.74-39.64C763.1,553.31,770.71,551.75,778.07,549.25Z"/><path class="cls-3" d="M1080.48,836.11V998.66c-.61.17-1.21.36-1.82.52l-88.2,22.59q-89.38,22.88-178.77,45.74c-8.85,2.27-17.67,4.67-26.51,7-4.6,0-9.2-.08-13.79,0-1.56,0-2-.23-2-1.91.08-16.68.05-33.36.05-50V915.22a5.6,5.6,0,0,0,2.62-.37q57.39-14.73,114.79-29.4,85.3-21.83,170.62-43.65C1065.14,839.85,1072.72,837.6,1080.48,836.11Z"/><rect class="cls-19" x="415.22" y="70.99" width="634.71" height="897.66"/><rect class="cls-20" x="449.9" y="97.57" width="269.72" height="854.4"/><text class="cls-21" transform="translate(471.81 599.53)">DİL BİLİK<tspan class="cls-22" x="75.15" y="0">L</tspan><tspan x="84.45" y="0">Ə</tspan><tspan class="cls-23" x="96.94" y="0">R</tspan><tspan x="108.15" y="0">İ</tspan></text><text class="cls-24" transform="translate(471.81 630.35)"><tspan class="cls-25">T</tspan><tspan class="cls-26" x="7.03" y="0">ü</tspan><tspan class="cls-27" x="15.33" y="0">r</tspan><tspan class="cls-28" x="20.27" y="0">k</tspan><tspan class="cls-29" x="27.54" y="0">c</tspan><tspan x="34.44" y="0">ə</tspan></text><rect class="cls-30" x="471.81" y="635.6" width="227.79" height="8.51"/><text class="cls-24" transform="translate(471.81 674.84)">İ<tspan class="cls-31" x="3.8" y="0">n</tspan><tspan x="12.18" y="0">gilis</tspan><tspan class="cls-32" x="37.03" y="0">c</tspan><tspan x="43.93" y="0">ə</tspan></text><rect class="cls-30" x="471.81" y="680.08" width="227.79" height="8.51"/><text class="cls-24" transform="translate(471.81 719.32)">Rusca</text><rect class="cls-30" x="471.81" y="724.56" width="227.79" height="8.51"/><polygon class="cls-3" points="670.89 708.33 670.89 724.56 471.81 724.56 471.81 733.07 664.95 733.07 696.57 733.07 696.57 724.56 696.57 708.33 670.89 708.33"/><polygon class="cls-3" points="659.35 663.85 659.35 680.08 471.81 680.08 471.81 688.59 653.4 688.59 685.02 688.59 685.02 680.08 685.02 663.85 659.35 663.85"/><polygon class="cls-3" points="632.14 619.37 632.14 635.6 471.81 635.6 471.81 644.11 626.2 644.11 657.82 644.11 657.82 635.6 657.82 619.37 632.14 619.37"/><text class="cls-33" transform="translate(635.63 630.36)">7<tspan class="cls-34" x="4.68" y="0">5</tspan><tspan class="cls-35" x="9.23" y="0">%</tspan></text><text class="cls-36" transform="translate(662.84 674.84)">90%</text><text class="cls-36" transform="translate(674.38 719.32)">99%</text><polygon class="cls-3" points="1005.98 70.99 1049.93 111.46 1049.93 70.99 1005.98 70.99"/><polygon class="cls-3" points="1005.98 968.65 1049.93 928.18 1049.93 968.65 1005.98 968.65"/><rect class="cls-3" x="434.83" y="368.79" width="299.86" height="75"/><polygon class="cls-38" points="434.83 368.79 449.9 356.89 449.9 368.79 434.83 368.79"/><polyline class="cls-38" points="719.63 368.79 734.69 368.79 719.63 356.89"/><polygon class="cls-38" points="434.83 443.79 449.9 455.69 449.9 443.79 434.83 443.79"/><polyline class="cls-38" points="719.63 443.79 734.69 443.79 719.63 455.69"/><text class="cls-39" transform="translate(473.42 406.62)">ƏLİ <tspan class="cls-40" x="67.83" y="0">Q</tspan><tspan x="95.67" y="0">ASIM</tspan><tspan class="cls-41" x="185.36" y="0">O</tspan><tspan x="212.76" y="0">V</tspan></text><text class="cls-42" transform="translate(511.02 432.44)">Doğum ta<tspan class="cls-43" x="68.08" y="0">r</tspan><tspan x="73.22" y="0">ixi: 15</tspan><tspan class="cls-44" x="105.39" y="0">.</tspan><tspan class="cls-45" x="107.91" y="0">1</tspan><tspan class="cls-44" x="112.62" y="0">0.</tspan><tspan class="cls-45" x="123.79" y="0">19</tspan><tspan class="cls-46" x="136.54" y="0">9</tspan><tspan class="cls-47" x="144.56" y="0">2</tspan></text><text class="cls-48" transform="translate(471.13 476.38)">H<tspan class="cls-49" x="12.41" y="0">A</tspan><tspan class="cls-50" x="23.8" y="0">QQIM</tspan><tspan class="cls-49" x="72.43" y="0">D</tspan><tspan class="cls-50" x="84.18" y="0">A</tspan></text><line class="cls-51" x1="471.13" y1="482.06" x2="566.47" y2="482.06"/><text class="cls-52" transform="translate(471.81 498.75) scale(1.1 1)">Sizin <tspan class="cls-53" x="19.43" y="0">k</tspan><tspan x="23.85" y="0">imi uğu</tspan><tspan class="cls-54" x="52.91" y="0">r</tspan><tspan x="55.84" y="0">lu bir şi</tspan><tspan class="cls-53" x="82.5" y="0">r</tspan><tspan class="cls-55" x="85.44" y="0">k</tspan><tspan x="89.77" y="0">ə</tspan><tspan class="cls-56" x="94.27" y="0">t</tspan><tspan x="97.16" y="0">də işlə</tspan><tspan class="cls-57" x="120.86" y="0">m</tspan><tspan x="128.79" y="0">ək is</tspan><tspan class="cls-56" x="145.4" y="0">t</tspan><tspan class="cls-58" x="148.29" y="0">ə</tspan><tspan x="152.69" y="0">yimi ça</tspan><tspan class="cls-56" x="179.23" y="0">t</tspan><tspan x="182.12" y="0">dı</tspan><tspan class="cls-53" x="189.18" y="0">r</tspan><tspan x="192.12" y="0">m</tspan><tspan class="cls-57" x="200.04" y="0">a</tspan><tspan x="204.45" y="0">q </tspan><tspan x="0" y="10.66">is</tspan><tspan class="cls-56" x="5.66" y="10.66">t</tspan><tspan class="cls-59" x="8.55" y="10.66">ə</tspan><tspan x="12.94" y="10.66">yi</tspan><tspan class="cls-60" x="19" y="10.66">r</tspan><tspan x="21.89" y="10.66">əm, bu</tspan><tspan class="cls-61" x="47.94" y="10.66">r</tspan><tspan class="cls-57" x="50.86" y="10.66">a</tspan><tspan x="55.28" y="10.66">da şi</tspan><tspan class="cls-53" x="72.36" y="10.66">r</tspan><tspan class="cls-55" x="75.29" y="10.66">k</tspan><tspan x="79.62" y="10.66">ətini</tspan><tspan class="cls-61" x="96.23" y="10.66">z</tspan><tspan x="99.98" y="10.66">ə d</tspan><tspan class="cls-59" x="111.5" y="10.66">əy</tspan><tspan x="119.83" y="10.66">ər əl</tspan><tspan class="cls-62" x="135.8" y="10.66">a</tspan><tspan class="cls-59" x="140.13" y="10.66">v</tspan><tspan x="144.06" y="10.66">ə edə bilə</tspan><tspan class="cls-61" x="180.14" y="10.66">c</tspan><tspan class="cls-59" x="184.28" y="10.66">ə</tspan><tspan x="188.68" y="10.66">yi</tspan><tspan class="cls-57" x="194.73" y="10.66">m</tspan><tspan x="202.66" y="10.66">ə </tspan><tspan x="0" y="21.32">şüb</tspan><tspan class="cls-57" x="13.73" y="21.32">h</tspan><tspan x="18.8" y="21.32">əm </tspan><tspan class="cls-58" x="33.18" y="21.32">y</tspan><tspan class="cls-56" x="37.12" y="21.32">ox</tspan><tspan x="45.5" y="21.32">du</tspan><tspan class="cls-62" x="55.58" y="21.32">r</tspan><tspan x="58.5" y="21.32">. Düşünü</tspan><tspan class="cls-63" x="91.97" y="21.32">r</tspan><tspan x="94.87" y="21.32">əm </tspan><tspan class="cls-54" x="109.25" y="21.32">k</tspan><tspan x="113.68" y="21.32">i, </tspan><tspan class="cls-53" x="119.22" y="21.32">C</tspan><tspan class="cls-64" x="124.53" y="21.32">V</tspan><tspan class="cls-65" x="129.58" y="21.32">-</tspan><tspan x="132.5" y="21.32">də q</tspan><tspan class="cls-62" x="149.09" y="21.32">e</tspan><tspan class="cls-58" x="153.52" y="21.32">y</tspan><tspan x="157.45" y="21.32">d e</tspan><tspan class="cls-56" x="168.98" y="21.32">t</tspan><tspan x="171.86" y="21.32">diyim </tspan><tspan class="cls-66" x="0" y="31.99">b</tspan><tspan class="cls-57" x="5.04" y="31.99">a</tspan><tspan x="9.46" y="31.99">ca</tspan><tspan class="cls-54" x="18.06" y="31.99">r</tspan><tspan x="20.99" y="31.99">ıqla</tspan><tspan class="cls-53" x="34.47" y="31.99">r</tspan><tspan x="37.41" y="31.99">ım iş </tspan><tspan class="cls-56" x="56.9" y="31.99">t</tspan><tspan x="59.79" y="31.99">ə</tspan><tspan class="cls-62" x="64.3" y="31.99">s</tspan><tspan x="67.88" y="31.99">vi</tspan><tspan class="cls-54" x="73.93" y="31.99">r</tspan><tspan x="76.86" y="31.99">i</tspan><tspan class="cls-57" x="78.87" y="31.99">n</tspan><tspan x="83.94" y="31.99">ə </tspan><tspan class="cls-59" x="90.4" y="31.99">v</tspan><tspan x="94.33" y="31.99">ə şi</tspan><tspan class="cls-54" x="106.46" y="31.99">r</tspan><tspan class="cls-55" x="109.39" y="31.99">k</tspan><tspan x="113.72" y="31.99">ətinizin pe</tspan><tspan class="cls-67" x="152.72" y="31.99">r</tspan><tspan x="155.69" y="31.99">spektivi</tspan><tspan class="cls-57" x="184.48" y="31.99">n</tspan><tspan x="189.55" y="31.99">ə </tspan><tspan x="0" y="42.65">u</tspan><tspan class="cls-59" x="5.02" y="42.65">y</tspan><tspan x="8.96" y="42.65">ğu</tspan><tspan class="cls-68" x="19.1" y="42.65">n</tspan><tspan x="24.17" y="42.65">du</tspan><tspan class="cls-62" x="34.25" y="42.65">r</tspan><tspan x="37.17" y="42.65">.</tspan><tspan class="cls-53" x="0" y="53.31">C</tspan><tspan class="cls-69" x="5.31" y="53.31">V</tspan><tspan x="10.35" y="53.31">-ni </tspan><tspan class="cls-57" x="22.22" y="53.31">n</tspan><tspan class="cls-61" x="27.29" y="53.31">əz</tspan><tspan x="35.48" y="53.31">ə</tspan><tspan class="cls-60" x="39.98" y="53.31">r</tspan><tspan x="42.88" y="53.31">dən </tspan><tspan class="cls-55" x="59.46" y="53.31">k</tspan><tspan x="63.79" y="53.31">eçi</tspan><tspan class="cls-53" x="74.5" y="53.31">r</tspan><tspan class="cls-57" x="77.44" y="53.31">m</tspan><tspan class="cls-58" x="85.37" y="53.31">əy</tspan><tspan x="93.7" y="53.31">ə </tspan><tspan class="cls-70" x="100.16" y="53.31">v</tspan><tspan x="104.09" y="53.31">axt </tspan><tspan class="cls-62" x="117.46" y="53.31">a</tspan><tspan x="121.79" y="53.31">yı</tspan><tspan class="cls-63" x="127.85" y="53.31">r</tspan><tspan x="130.74" y="53.31">dığınız üçün </tspan><tspan class="cls-56" x="179.02" y="53.31">t</tspan><tspan x="181.91" y="53.31">əşək</tspan><tspan class="cls-71" x="199.07" y="53.31">k</tspan><tspan x="203.48" y="53.31">ür </tspan><tspan x="0" y="63.97">edi</tspan><tspan class="cls-63" x="11.58" y="63.97">r</tspan><tspan x="14.47" y="63.97">əm. Si</tspan><tspan class="cls-61" x="37.03" y="63.97">z</tspan><tspan x="40.78" y="63.97">dən müsbət </tspan><tspan class="cls-56" x="88.5" y="63.97">x</tspan><tspan x="92.35" y="63.97">əbər alm</tspan><tspan class="cls-57" x="125.7" y="63.97">a</tspan><tspan x="130.12" y="63.97">q dil</tspan><tspan class="cls-58" x="146.21" y="63.97">ə</tspan><tspan x="150.61" y="63.97">yi il</tspan><tspan class="cls-59" x="162.63" y="63.97">ə</tspan><tspan x="167.03" y="63.97">.</tspan></text><text class="cls-48" transform="translate(471.65 769.05)">P<tspan class="cls-72" x="10.67" y="0">R</tspan><tspan x="21.54" y="0">OQRAM</tspan></text><text class="cls-73" transform="translate(471.13 794.91)">W<tspan class="cls-74" x="13.13" y="0">o</tspan><tspan class="cls-75" x="20.91" y="0">r</tspan><tspan class="cls-74" x="25.79" y="0">d</tspan></text><rect class="cls-30" x="471.13" y="800.16" width="227.11" height="8.51"/><text class="cls-76" transform="translate(471.13 839.4)"><tspan class="cls-77">E</tspan><tspan class="cls-78" x="8.06" y="0">x</tspan><tspan class="cls-79" x="14.61" y="0">c</tspan><tspan x="21.51" y="0">el</tspan></text><rect class="cls-30" x="471.13" y="844.65" width="227.11" height="8.51"/><text class="cls-76" transform="translate(471.13 883.89)"><tspan class="cls-77">P</tspan><tspan class="cls-80" x="8.7" y="0">ow</tspan><tspan x="27.13" y="0">e</tspan><tspan class="cls-77" x="34.64" y="0">rP</tspan><tspan class="cls-74" x="48.22" y="0">oint</tspan></text><rect class="cls-30" x="471.13" y="889.14" width="227.11" height="8.51"/><polygon class="cls-3" points="669.61 872.91 669.61 889.14 471.13 889.14 471.13 897.65 663.68 897.65 695.2 897.65 695.2 889.14 695.2 872.91 669.61 872.91"/><polygon class="cls-3" points="658.1 828.41 658.1 844.65 471.13 844.65 471.13 853.16 652.17 853.16 683.7 853.16 683.7 844.65 683.7 828.41 658.1 828.41"/><polygon class="cls-3" points="630.97 783.92 630.97 800.16 471.13 800.16 471.13 808.67 625.05 808.67 656.57 808.67 656.57 800.16 656.57 783.92 630.97 783.92"/><text class="cls-81" transform="translate(634.45 794.91)">7<tspan class="cls-82" x="4.68" y="0">5</tspan><tspan class="cls-83" x="9.23" y="0">%</tspan></text><text class="cls-84" transform="translate(661.58 839.4)">90%</text><text class="cls-84" transform="translate(673.08 883.89)">99%</text><text class="cls-76" transform="translate(471.13 921.73)">Outlook</text><rect class="cls-30" x="471.13" y="926.98" width="227.11" height="8.51"/><polygon class="cls-3" points="669.61 910.74 669.61 926.98 471.13 926.98 471.13 935.49 663.68 935.49 695.2 935.49 695.2 926.98 695.2 910.74 669.61 910.74"/><text class="cls-84" transform="translate(673.08 921.73)">99%</text><path class="cls-3" d="M743,153.5l0,0c.24-.21.46-.43.67-.65l.08-.08.37-.38a1.27,1.27,0,0,1,1.91,0l2,2a1.29,1.29,0,0,1,.43.93,1.34,1.34,0,0,1-.43.94l-1.22,1.22a.2.2,0,0,0-.08.14.15.15,0,0,0,0,.08v0l.21.38a2.93,2.93,0,0,0,.21.39,12.5,12.5,0,0,0,2.75,3h0a7.19,7.19,0,0,0,1.71,1.05h0c.12,0,.15,0,.23-.05h0c.27-.3.55-.58.88-.9.07-.07.13-.14.21-.21l.09-.1a1.24,1.24,0,0,1,1.91,0l1,1c.06.06.12.11.18.18s.11.1.16.16l.66.65h0a1.3,1.3,0,0,1,.41.92,1.39,1.39,0,0,1-.4.93l0,0-1.21,1.21a2.22,2.22,0,0,1-1.41.66,5.53,5.53,0,0,1-2.48-.44,14.9,14.9,0,0,1-4.43-2.66,16.5,16.5,0,0,1-4.27-5.46,8.43,8.43,0,0,1-.89-3v-.2A2.28,2.28,0,0,1,743,153.5Z"/><text class="cls-85" transform="translate(768.76 163.13)">T<tspan class="cls-86" x="4.7" y="0">el</tspan><tspan class="cls-87" x="12.62" y="0">ef</tspan><tspan class="cls-88" x="21.01" y="0" xml:space="preserve">on:   </tspan><tspan class="cls-89" x="42.64" y="0">+9</tspan><tspan class="cls-90" x="53.54" y="0">9</tspan><tspan class="cls-89" x="58.84" y="0">4xx xxx xx xx</tspan></text><path class="cls-3" d="M757.89,189.62v-.07s0,0,0-.05,0,0,0-.06l0-.05s0,0,0,0l0-.05,0,0h0l0-.05,0,0s0,0,0,0l-.05,0-.06,0,0,0H742.55l-.06,0,0,0-.05,0-.06,0,0,0,0,.05h0l0,0,0,.05,0,0s0,0,0,.05a.14.14,0,0,0,0,.06.43.43,0,0,1,0,.05.2.2,0,0,0,0,.07V200.1a.6.6,0,0,0,.6.6H757.3a.6.6,0,0,0,.6-.6V189.65S757.89,189.63,757.89,189.62Zm-2.22.63L750,195.09l-5.67-4.84Zm-6.07,6.08a.59.59,0,0,0,.39.14.57.57,0,0,0,.39-.14"/><text class="cls-91" transform="translate(768.76 198.12)">Elekt<tspan class="cls-92" x="22.12" y="0">r</tspan><tspan x="25.55" y="0" xml:space="preserve">on poçt:  </tspan><tspan class="cls-93" x="67.1" y="0">cvhazirlama@gmai</tspan><tspan class="cls-94" x="149.03" y="0">l</tspan><tspan class="cls-95" x="151.2" y="0">.</tspan><tspan class="cls-93" x="153.25" y="0">com</tspan></text><path class="cls-3" d="M748.94,220a7.57,7.57,0,1,0,7.56,7.57A7.57,7.57,0,0,0,748.94,220Zm6.39,7H753.5a10,10,0,0,0-1.46-5A6.42,6.42,0,0,1,755.33,226.94Zm-7-5.75v5.75h-2.84C745.67,224.08,746.87,221.69,748.37,221.19Zm0,6.9v5.75c-1.5-.49-2.7-2.88-2.84-5.75Zm1.15,5.75v-5.75h2.84C752.21,231,751,233.35,749.52,233.84Zm0-6.9v-5.75c1.5.5,2.69,2.89,2.84,5.75Zm-3.67-5a10,10,0,0,0-1.47,5h-1.82A6.42,6.42,0,0,1,745.85,221.9Zm-3.29,6.19h1.82a10,10,0,0,0,1.47,5A6.46,6.46,0,0,1,742.56,228.09Zm9.48,5a10,10,0,0,0,1.46-5h1.83A6.46,6.46,0,0,1,752,233.14Z"/><text class="cls-96" transform="translate(769.95 231)">Ü<tspan class="cls-97" x="6.7" y="0">n</tspan><tspan class="cls-98" x="12.09" y="0">v</tspan><tspan class="cls-86" x="16.86" y="0" xml:space="preserve">an:   </tspan><tspan class="cls-99" x="38.59" y="0">Bakı </tspan><tspan class="cls-100" x="59.86" y="0">ş</tspan><tspan class="cls-93" x="63.95" y="0">əhəri, A</tspan><tspan class="cls-101" x="96.08" y="0">z</tspan><tspan class="cls-93" x="100.22" y="0">ərba</tspan><tspan class="cls-102" x="119.96" y="0">y</tspan><tspan class="cls-99" x="124.65" y="0">can</tspan></text><text class="cls-103" transform="translate(741.6 296.4)">İŞ <tspan class="cls-104" x="19.9" y="0">T</tspan><tspan class="cls-105" x="29.45" y="0">ƏC</tspan><tspan class="cls-106" x="54.3" y="0">R</tspan><tspan x="65.27" y="0">Ü</tspan><tspan class="cls-107" x="77.43" y="0">B</tspan><tspan x="88.31" y="0">ƏSİ</tspan></text><text class="cls-103" transform="translate(741.6 120.17)">Ə<tspan class="cls-108" x="12.49" y="0">L</tspan><tspan class="cls-49" x="22.44" y="0">A</tspan><tspan x="33.83" y="0">QƏ</tspan></text><line class="cls-109" x1="746.47" y1="315.93" x2="746.47" y2="535.37"/><circle class="cls-3" cx="746.47" cy="325.38" r="4.87"/><circle class="cls-3" cx="746.47" cy="448.03" r="4.87"/><line class="cls-109" x1="746.47" y1="429.4" x2="1033.62" y2="429.4"/><line class="cls-109" x1="746.47" y1="535.37" x2="1033.62" y2="535.37"/><text class="cls-110" transform="translate(772.94 339.17)">A<tspan class="cls-111" x="8.98" y="0">r</tspan><tspan x="13.96" y="0">az Ma</tspan><tspan class="cls-112" x="49.32" y="0">r</tspan><tspan class="cls-113" x="54.33" y="0">k</tspan><tspan x="61.8" y="0">et</tspan><tspan class="cls-114" x="0" y="14.93">K</tspan><tspan x="8.54" y="14.93">assir</tspan></text><text class="cls-115" transform="translate(774.07 368.25)">- Malın d<tspan class="cls-116" x="37.05" y="0">əy</tspan><tspan x="46.57" y="0">ə</tspan><tspan class="cls-117" x="51.72" y="0">r</tspan><tspan x="55.08" y="0">inin </tspan><tspan class="cls-118" x="73.45" y="0">h</tspan><tspan x="79.24" y="0">esablanması </tspan><tspan class="cls-116" x="135.26" y="0">v</tspan><tspan x="139.76" y="0">ə </tspan><tspan class="cls-119" x="147.15" y="0">k</tspan><tspan x="152.19" y="0">assa ə</tspan><tspan class="cls-118" x="177.98" y="0">m</tspan><tspan x="187.05" y="0">əli</tspan><tspan class="cls-120" x="196.79" y="0">y</tspan><tspan class="cls-121" x="201.37" y="0">y</tspan><tspan x="205.86" y="0">atının </tspan><tspan class="cls-116" x="232.72" y="0">y</tspan><tspan x="237.22" y="0">e</tspan><tspan class="cls-117" x="242.37" y="0">r</tspan><tspan x="245.72" y="0">i</tspan><tspan class="cls-122" x="248.02" y="0">n</tspan><tspan x="253.81" y="0">ə </tspan><tspan class="cls-116" x="0" y="10.66">y</tspan><tspan x="4.5" y="10.66">eti</tspan><tspan class="cls-117" x="15.41" y="10.66">r</tspan><tspan x="18.76" y="10.66">il</tspan><tspan class="cls-118" x="23.35" y="10.66">m</tspan><tspan x="32.41" y="10.66">əsi;</tspan><tspan x="0" y="21.32">- </tspan><tspan class="cls-123" x="5.49" y="21.32">K</tspan><tspan x="11.44" y="21.32">assa </tspan><tspan class="cls-122" x="32.08" y="21.32">h</tspan><tspan x="37.87" y="21.32">esa</tspan><tspan class="cls-124" x="52.23" y="21.32">b</tspan><tspan x="57.98" y="21.32">atını </tspan><tspan class="cls-125" x="79.08" y="21.32">t</tspan><tspan x="82.38" y="21.32">ə</tspan><tspan class="cls-126" x="87.53" y="21.32">r</tspan><tspan x="91.08" y="21.32">tib et</tspan><tspan class="cls-118" x="113.47" y="21.32">m</tspan><tspan x="122.54" y="21.32">ək;</tspan><tspan x="0" y="31.99">- Malın alınması zamanı s</tspan><tspan class="cls-127" x="107.4" y="31.99">a</tspan><tspan x="112.34" y="31.99">yının, </tspan><tspan class="cls-128" x="137.15" y="31.99">ç</tspan><tspan x="141.87" y="31.99">eşidinin </tspan><tspan class="cls-116" x="177.65" y="31.99">y</tspan><tspan class="cls-125" x="182.14" y="31.99">o</tspan><tspan x="187.33" y="31.99">xlanılmas</tspan></text><text class="cls-129" transform="translate(772.94 327.82)">05<tspan class="cls-130" x="8.73" y="0">/</tspan><tspan class="cls-131" x="10.97" y="0">0</tspan><tspan x="15.6" y="0">3/</tspan><tspan class="cls-132" x="21.99" y="0">2</tspan><tspan class="cls-133" x="26" y="0">0</tspan><tspan x="30.69" y="0">19–</tspan><tspan class="cls-134" x="41.14" y="0">P</tspan><tspan class="cls-135" x="46.08" y="0">r</tspan><tspan class="cls-136" x="48.83" y="0">esent</tspan></text><text class="cls-110" transform="translate(772.94 459.39)">A<tspan class="cls-111" x="8.98" y="0">r</tspan><tspan x="13.96" y="0">az Ma</tspan><tspan class="cls-112" x="49.32" y="0">r</tspan><tspan class="cls-113" x="54.33" y="0">k</tspan><tspan x="61.8" y="0">et</tspan><tspan class="cls-114" x="0" y="14.93">K</tspan><tspan x="8.54" y="14.93">assir</tspan></text><text class="cls-115" transform="translate(774.07 488.46)">- Malın d<tspan class="cls-116" x="37.05" y="0">əy</tspan><tspan x="46.57" y="0">ə</tspan><tspan class="cls-117" x="51.72" y="0">r</tspan><tspan x="55.08" y="0">inin </tspan><tspan class="cls-118" x="73.45" y="0">h</tspan><tspan x="79.24" y="0">esablanması </tspan><tspan class="cls-116" x="135.26" y="0">v</tspan><tspan x="139.76" y="0">ə </tspan><tspan class="cls-119" x="147.15" y="0">k</tspan><tspan x="152.19" y="0">assa ə</tspan><tspan class="cls-118" x="177.98" y="0">m</tspan><tspan x="187.05" y="0">əli</tspan><tspan class="cls-120" x="196.79" y="0">y</tspan><tspan class="cls-121" x="201.37" y="0">y</tspan><tspan x="205.86" y="0">atının </tspan><tspan class="cls-116" x="232.72" y="0">y</tspan><tspan x="237.22" y="0">e</tspan><tspan class="cls-117" x="242.37" y="0">r</tspan><tspan x="245.72" y="0">i</tspan><tspan class="cls-122" x="248.02" y="0">n</tspan><tspan x="253.81" y="0">ə </tspan><tspan class="cls-116" x="0" y="10.66">y</tspan><tspan x="4.5" y="10.66">eti</tspan><tspan class="cls-117" x="15.41" y="10.66">r</tspan><tspan x="18.76" y="10.66">il</tspan><tspan class="cls-118" x="23.35" y="10.66">m</tspan><tspan x="32.41" y="10.66">əsi;</tspan><tspan x="0" y="21.32">- </tspan><tspan class="cls-123" x="5.49" y="21.32">K</tspan><tspan x="11.44" y="21.32">assa </tspan><tspan class="cls-122" x="32.08" y="21.32">h</tspan><tspan x="37.87" y="21.32">esa</tspan><tspan class="cls-124" x="52.23" y="21.32">b</tspan><tspan x="57.98" y="21.32">atını </tspan><tspan class="cls-125" x="79.08" y="21.32">t</tspan><tspan x="82.38" y="21.32">ə</tspan><tspan class="cls-126" x="87.53" y="21.32">r</tspan><tspan x="91.08" y="21.32">tib et</tspan><tspan class="cls-118" x="113.47" y="21.32">m</tspan><tspan x="122.54" y="21.32">ək;</tspan><tspan x="0" y="31.99">- Malın alınması zamanı s</tspan><tspan class="cls-127" x="107.4" y="31.99">a</tspan><tspan x="112.34" y="31.99">yının, </tspan><tspan class="cls-128" x="137.15" y="31.99">ç</tspan><tspan x="141.87" y="31.99">eşidinin </tspan><tspan class="cls-116" x="177.65" y="31.99">y</tspan><tspan class="cls-125" x="182.14" y="31.99">o</tspan><tspan x="187.33" y="31.99">xlanılmas</tspan></text><text class="cls-129" transform="translate(772.94 448.03)">05<tspan class="cls-130" x="8.73" y="0">/</tspan><tspan class="cls-131" x="10.97" y="0">0</tspan><tspan x="15.6" y="0">3/</tspan><tspan class="cls-132" x="21.99" y="0">2</tspan><tspan class="cls-133" x="26" y="0">0</tspan><tspan x="30.69" y="0">19–</tspan><tspan class="cls-134" x="41.14" y="0">P</tspan><tspan class="cls-135" x="46.08" y="0">r</tspan><tspan class="cls-136" x="48.83" y="0">esent</tspan></text><line class="cls-137" x1="741.6" y1="307.71" x2="857.19" y2="307.71"/><line class="cls-137" x1="741.6" y1="134.52" x2="857.19" y2="134.52"/><line class="cls-109" x1="751.56" y1="656.4" x2="1038.71" y2="656.4"/><text class="cls-138" transform="translate(751.57 576.49)">T<tspan class="cls-105" x="9.55" y="0">ƏHSİL</tspan></text><line class="cls-109" x1="751.56" y1="596.01" x2="751.56" y2="656.4"/><line class="cls-109" x1="751.56" y1="760.9" x2="751.56" y2="821.29"/><circle class="cls-3" cx="751.56" cy="606.17" r="4.87"/><circle class="cls-3" cx="751.56" cy="765.52" r="4.87"/><circle class="cls-3" cx="751.56" cy="784.48" r="4.87"/><circle class="cls-3" cx="751.56" cy="803.43" r="4.87"/><circle class="cls-3" cx="751.56" cy="823.74" r="4.87"/><text class="cls-110" transform="translate(778.03 623.87)">Ba<tspan class="cls-139" x="16.21" y="0">k</tspan><tspan x="23.9" y="0">ı D</tspan><tspan class="cls-140" x="40.44" y="0">ö</tspan><tspan x="47.95" y="0">vlət Uni</tspan><tspan class="cls-140" x="95.19" y="0">v</tspan><tspan x="102.03" y="0">e</tspan><tspan class="cls-141" x="109.43" y="0">r</tspan><tspan x="114.46" y="0">si</tspan><tspan class="cls-142" x="124.22" y="0">t</tspan><tspan class="cls-143" x="129.12" y="0">eti</tspan></text><text class="cls-115" transform="translate(779.17 638.87)"><tspan class="cls-144">T</tspan><tspan x="4.65" y="0">a</tspan><tspan class="cls-117" x="9.68" y="0">r</tspan><tspan x="13.03" y="0">ix </tspan><tspan class="cls-127" x="22.12" y="0">f</tspan><tspan x="24.92" y="0">a</tspan><tspan class="cls-119" x="29.96" y="0">k</tspan><tspan x="35" y="0">ü</tspan><tspan class="cls-118" x="40.74" y="0">l</tspan><tspan class="cls-125" x="43.05" y="0">t</tspan><tspan x="46.35" y="0">əsi</tspan></text><text class="cls-129" transform="translate(778.03 607.9)">05<tspan class="cls-130" x="8.73" y="0">/</tspan><tspan class="cls-131" x="10.97" y="0">0</tspan><tspan x="15.6" y="0">3/</tspan><tspan class="cls-132" x="21.99" y="0">2</tspan><tspan class="cls-133" x="26" y="0">0</tspan><tspan x="30.69" y="0">19–</tspan></text><text class="cls-145" transform="translate(746.69 890.59)">HOBBİ</text><path class="cls-3" d="M827.28,929.39c-.62-1.13-2.45-1.3-4.09-.4s-2.44,2.55-1.82,3.68,2.45,1.3,4.09.4S827.9,930.51,827.28,929.39Z"/><path class="cls-3" d="M841.72,927.34c-.63-1.13-2.46-1.31-4.09-.4s-2.45,2.55-1.82,3.67,2.45,1.31,4.08.4S842.34,928.46,841.72,927.34Z"/><polygon class="cls-3" points="841.92 914.85 841.92 927.88 841.43 927.88 841.43 918.11 827.42 920.68 827.42 930.45 826.92 930.45 826.92 917.42 841.92 914.85"/><path class="cls-3" d="M774,913.6a11.14,11.14,0,0,0-1.51,1h0l-1.92,1.93-1.7-.39-4.56-1-4.22-1-3.2,1.37,9.51,5.18-5.6,5.6,0,0s-.29.44-.59,1l-3.82-1.23-1.68,1.69,4.18,2.55-.43.44.56.56.43-.43,2.53,4.15,1.69-1.69-1.21-3.75c.55-.33,1-.64,1-.66h0l5.59-5.59,5.17,9.49,1.37-3.2-2-8.78-.38-1.68,1.93-1.94,0,0a16.27,16.27,0,0,0,1-1.51c.68-1.24.8-2,.37-2.44S775.23,912.93,774,913.6Z"/><path class="cls-3" d="M909,932.72s-8-.42-11.08,1.33c-3.07-1.75-11.09-1.33-11.09-1.33V919.58h1.11l.13,9.46.53-12.43c.79-.08,7-.61,9.32,1.68,2.28-2.29,8.52-1.76,9.31-1.68l.13,13.13.53-10.16H909Z"/><path class="cls-3" d="M963.16,919.18a6.09,6.09,0,1,0,6.09,6.09A6.11,6.11,0,0,0,963.16,919.18Zm0,11.77a5.64,5.64,0,1,1,5.65-5.65A5.65,5.65,0,0,1,963.18,931Z"/><path class="cls-3" d="M972.5,917.63h-.19a1.05,1.05,0,0,0-1-.65H970a1.08,1.08,0,0,0-1,.65h-1.27l-1.22-2.21a.7.7,0,0,0-.62-.35h-4.57a.73.73,0,0,0-.6.31l-1.47,2.25h-.57a.77.77,0,0,0-.75-.65h-2.51a.77.77,0,0,0-.76.65h-.17a1.92,1.92,0,0,0-1.91,1.92v11.51A1.92,1.92,0,0,0,954.5,933h18a1.91,1.91,0,0,0,1.91-1.92V919.55A1.91,1.91,0,0,0,972.5,917.63Zm-17.42,2.58a.84.84,0,0,1,.84-.85.85.85,0,1,1,0,1.69A.84.84,0,0,1,955.08,920.21Zm8.08,11.84a6.78,6.78,0,1,1,6.78-6.78A6.79,6.79,0,0,1,963.16,932.05Z"/><line class="cls-137" x1="750.98" y1="583.1" x2="811.51" y2="583.1"/><text class="cls-146" transform="translate(751.57 723.59)">B<tspan class="cls-49" x="10.81" y="0">A</tspan><tspan class="cls-105" x="22.21" y="0">CA</tspan><tspan class="cls-147" x="46.63" y="0">R</tspan><tspan class="cls-105" x="57.84" y="0">IQ</tspan><tspan class="cls-108" x="77.47" y="0">L</tspan><tspan class="cls-50" x="87.42" y="0">AR</tspan></text><line class="cls-137" x1="750.98" y1="730.2" x2="861.9" y2="730.2"/><line class="cls-137" x1="746.47" y1="897.91" x2="807.01" y2="897.91"/><text class="cls-148" transform="translate(781.13 769.44)">Əla ünsi<tspan class="cls-149" x="48.1" y="0">y</tspan><tspan class="cls-140" x="54.56" y="0">y</tspan><tspan x="60.94" y="0">ət qabili</tspan><tspan class="cls-149" x="108.96" y="0">y</tspan><tspan class="cls-140" x="115.42" y="0">y</tspan><tspan x="121.8" y="0">əti</tspan><tspan x="0" y="19.19">Sü</tspan><tspan class="cls-114" x="15.22" y="19.19">r</tspan><tspan x="19.89" y="19.19">ətli </tspan><tspan class="cls-150" x="41.63" y="19.19">m</tspan><tspan x="54.06" y="19.19">ənimsə</tspan><tspan class="cls-150" x="97.95" y="19.19">m</tspan><tspan x="110.38" y="19.19">ə qabili</tspan><tspan class="cls-149" x="153.54" y="19.19">y</tspan><tspan class="cls-140" x="160" y="19.19">y</tspan><tspan x="166.38" y="19.19">əti </tspan><tspan x="0" y="38.38">Sə</tspan><tspan class="cls-111" x="14.46" y="38.38">r</tspan><tspan x="19.19" y="38.38">bəst </tspan><tspan class="cls-140" x="48.25" y="38.38">v</tspan><tspan x="54.63" y="38.38">ə </tspan><tspan class="cls-151" x="64.96" y="38.38">k</tspan><tspan x="71.93" y="38.38">ollekti</tspan><tspan class="cls-140" x="108.45" y="38.38">v</tspan><tspan x="114.83" y="38.38">də işlə</tspan><tspan class="cls-150" x="152.77" y="38.38">m</tspan><tspan x="165.2" y="38.38">ə </tspan><tspan class="cls-152" x="175.53" y="38.38">b</tspan><tspan class="cls-150" x="183.47" y="38.38">a</tspan><tspan x="190.52" y="38.38">ca</tspan><tspan class="cls-111" x="204.23" y="38.38">r</tspan><tspan x="208.96" y="38.38">ığı </tspan><tspan x="0" y="57.58">Ciddi, </tspan><tspan class="cls-150" x="36.84" y="57.58">m</tspan><tspan x="49.27" y="57.58">əsuli</tspan><tspan class="cls-149" x="76.81" y="57.58">y</tspan><tspan class="cls-140" x="83.27" y="57.58">y</tspan><tspan x="89.66" y="57.58">ətli, işgüzar </tspan></text></g></svg>