<svg xmlns="http://www.w3.org/2000/svg" xmlns:xlink="http://www.w3.org/1999/xlink" viewBox="0 0 1079 1080"><defs><style>.cls-1,.cls-53,.cls-82{fill:none;}.cls-2{fill:#2b2c2b;}.cls-110,.cls-3,.cls-95{fill:#119ccc;}.cls-4{fill:#414142;}.cls-5{font-size:22.5px;letter-spacing:-0.03em;}.cls-10,.cls-11,.cls-115,.cls-119,.cls-130,.cls-133,.cls-20,.cls-21,.cls-22,.cls-27,.cls-5,.cls-9{fill:#fff;}.cls-119,.cls-133,.cls-5{font-family:Montserrat-Medium, Montserrat;font-weight:500;}.cls-6{letter-spacing:0em;}.cls-7{letter-spacing:-0.01em;}.cls-8{letter-spacing:0em;}.cls-9{font-size:58.13px;}.cls-11,.cls-127,.cls-141,.cls-9{font-family:Montserrat-SemiBold, Montserrat;}.cls-11,.cls-127,.cls-141,.cls-31,.cls-37,.cls-9{font-weight:600;}.cls-10{font-size:22px;}.cls-10,.cls-59,.cls-75{font-family:Montserrat-Regular, Montserrat;}.cls-11{font-size:39.76px;}.cls-12{letter-spacing:0em;}.cls-13{letter-spacing:-0.01em;}.cls-14{letter-spacing:-0.01em;}.cls-15{letter-spacing:-0.01em;}.cls-16{letter-spacing:-0.01em;}.cls-17{letter-spacing:-0.02em;}.cls-18{letter-spacing:0em;}.cls-19{letter-spacing:0em;}.cls-21{fill-rule:evenodd;}.cls-22{font-size:30.55px;font-family:Averta-Bold, Averta;}.cls-22,.cls-54,.cls-95{font-weight:700;}.cls-23{letter-spacing:0em;}.cls-24{letter-spacing:0em;}.cls-25{letter-spacing:0.01em;}.cls-26{letter-spacing:0em;}.cls-27{stroke:#343584;}.cls-27,.cls-53,.cls-82{stroke-miterlimit:10;}.cls-28{fill:#232941;}.cls-29{fill:#242a42;}.cls-30{clip-path:url(#clip-path);}.cls-31,.cls-37{font-size:12px;fill:#231f20;font-family:Averta-Semibold, Averta;}.cls-31{letter-spacing:-0.07em;}.cls-32,.cls-35,.cls-37{letter-spacing:0.02em;}.cls-33{letter-spacing:0.01em;}.cls-34{letter-spacing:0.02em;}.cls-35,.cls-36,.cls-40,.cls-41,.cls-42,.cls-45,.cls-46,.cls-47{font-family:Averta-Light, Averta;}.cls-110,.cls-35,.cls-36,.cls-40,.cls-41,.cls-42,.cls-45,.cls-46,.cls-47{font-weight:300;}.cls-36{letter-spacing:0.01em;}.cls-38{letter-spacing:0.01em;}.cls-39{letter-spacing:0.02em;}.cls-41{letter-spacing:0.01em;}.cls-42{letter-spacing:0em;}.cls-43{letter-spacing:0em;}.cls-44{letter-spacing:-0.01em;}.cls-45{letter-spacing:0.02em;}.cls-46{letter-spacing:0em;}.cls-47{letter-spacing:0em;}.cls-48,.cls-83{font-size:17.99px;fill:#11172d;}.cls-115,.cls-130,.cls-48,.cls-83{font-family:Averta-ExtraBold, Averta;font-weight:800;}.cls-48,.cls-84{letter-spacing:0.02em;}.cls-49{letter-spacing:-0.02em;}.cls-50{letter-spacing:0.02em;}.cls-51{letter-spacing:0em;}.cls-52{letter-spacing:0.01em;}.cls-53{stroke:#141b31;stroke-width:0.4px;}.cls-54{font-size:12.45px;font-family:Montserrat-Bold, Montserrat;}.cls-54,.cls-59,.cls-75{fill:#141b31;}.cls-55{letter-spacing:-0.01em;}.cls-56{letter-spacing:0em;}.cls-57{letter-spacing:-0.02em;}.cls-58{letter-spacing:-0.01em;}.cls-59{font-size:9.05px;}.cls-60{letter-spacing:-0.01em;}.cls-61{letter-spacing:-0.01em;}.cls-62{letter-spacing:0em;}.cls-63{letter-spacing:-0.01em;}.cls-64{letter-spacing:0em;}.cls-65{letter-spacing:-0.02em;}.cls-66{letter-spacing:-0.01em;}.cls-67{letter-spacing:0em;}.cls-68{letter-spacing:0em;}.cls-69{letter-spacing:-0.01em;}.cls-70{letter-spacing:0em;}.cls-71{letter-spacing:-0.02em;}.cls-72{letter-spacing:0.01em;}.cls-73{letter-spacing:-0.01em;}.cls-74{letter-spacing:-0.01em;}.cls-75{font-size:7.54px;}.cls-76{letter-spacing:-0.02em;}.cls-77{letter-spacing:-0.01em;}.cls-78{letter-spacing:0em;}.cls-79{letter-spacing:0em;}.cls-80{letter-spacing:-0.02em;}.cls-81{letter-spacing:-0.01em;}.cls-82{stroke:#11172d;}.cls-83,.cls-99{letter-spacing:-0.02em;}.cls-85{letter-spacing:0em;}.cls-86{letter-spacing:-0.01em;}.cls-87{letter-spacing:-0.02em;}.cls-88{letter-spacing:0em;}.cls-89{letter-spacing:-0.02em;}.cls-90{letter-spacing:-0.03em;}.cls-91{letter-spacing:-0.02em;}.cls-92{letter-spacing:-0.01em;}.cls-93{letter-spacing:0em;}.cls-94{letter-spacing:0em;}.cls-95{font-size:36.14px;font-family:Nivea-Bold, Nivea;}.cls-96{letter-spacing:0em;}.cls-97{letter-spacing:-0.04em;}.cls-98{letter-spacing:-0.08em;}.cls-100{letter-spacing:0.02em;}.cls-101{letter-spacing:-0.02em;}.cls-102{letter-spacing:-0.01em;}.cls-103{letter-spacing:-0.01em;}.cls-104{letter-spacing:-0.02em;}.cls-105{letter-spacing:-0.02em;}.cls-106{letter-spacing:0.01em;}.cls-107{letter-spacing:-0.02em;}.cls-108{letter-spacing:0em;}.cls-109{letter-spacing:-0.01em;}.cls-110{font-size:13.31px;font-family:Montserrat-Light, Montserrat;}.cls-111{letter-spacing:-0.01em;}.cls-112{letter-spacing:0em;}.cls-113{letter-spacing:-0.01em;}.cls-114{letter-spacing:0em;}.cls-115,.cls-130{font-size:13.71px;}.cls-115,.cls-132{letter-spacing:0.02em;}.cls-116{letter-spacing:0em;}.cls-117,.cls-130{letter-spacing:0.02em;}.cls-118{letter-spacing:0.02em;}.cls-119{font-size:9.92px;}.cls-120{letter-spacing:-0.01em;}.cls-121{letter-spacing:0em;}.cls-122{letter-spacing:-0.01em;}.cls-123{letter-spacing:-0.02em;}.cls-124{letter-spacing:-0.01em;}.cls-125{fill:#b3abab;}.cls-126{letter-spacing:0em;}.cls-127{font-size:6.41px;}.cls-127,.cls-141{fill:#0f1322;}.cls-128{letter-spacing:-0.02em;}.cls-129{letter-spacing:-0.01em;}.cls-131{letter-spacing:0em;}.cls-133{font-size:9.92px;}.cls-134{letter-spacing:-0.06em;}.cls-135{letter-spacing:-0.01em;}.cls-136{letter-spacing:0em;}.cls-137{letter-spacing:-0.01em;}.cls-138{letter-spacing:-0.02em;}.cls-139{letter-spacing:-0.01em;}.cls-140{letter-spacing:-0.02em;}.cls-141{font-size:6.41px;}.cls-142{letter-spacing:-0.02em;}.cls-143{letter-spacing:-0.01em;}.cls-144{clip-path:url(#clip-path-2);}.cls-145{clip-path:url(#clip-path-3);}</style><clipPath id="clip-path"><rect class="cls-1" x="450.85" y="95.91" width="303.94" height="362.7"/></clipPath><clipPath id="clip-path-2"><polygon class="cls-1" points="-764.46 68.08 -764.46 93.54 -564.04 212.41 -564.04 179.15 -478.44 125.89 -393.48 177.16 -393.48 209.02 -189.74 93.54 -189.74 68.08 -764.46 68.08"/></clipPath><clipPath id="clip-path-3"><polygon class="cls-1" points="-398.09 181.99 -477.1 136.38 -556.11 181.99 -556.11 273.22 -477.1 318.84 -398.09 273.22 -398.09 181.99"/></clipPath></defs><g id="PRINT"><rect class="cls-2" x="85.21" y="181.33" width="260.32" height="56.71"/><rect class="cls-3" x="40.07" y="69.8" width="143.79" height="5.3"/><rect class="cls-4" x="183.81" y="69.8" width="143.79" height="5.3"/><rect class="cls-4" x="40.07" y="90.37" width="143.76" height="38.31"/><text class="cls-5" transform="translate(52.14 117.53)">K<tspan class="cls-6" x="15.62" y="0">OD: 1</tspan><tspan class="cls-7" x="72.58" y="0">0.</tspan><tspan class="cls-8" x="92.16" y="0">0</tspan><tspan class="cls-6" x="107.1" y="0">1</tspan></text><rect class="cls-3" x="40.07" y="169.58" width="80.21" height="80.21"/><text class="cls-9" transform="translate(48.78 226.69)">12</text><text class="cls-10" transform="translate(67.92 240.86) scale(0.58)">azn</text><text class="cls-11" transform="translate(139 219.7) scale(0.58)"><tspan class="cls-12">A</tspan><tspan class="cls-13" x="29.7" y="0">z</tspan><tspan x="50.54" y="0">ə</tspan><tspan class="cls-14" x="75.27" y="0">r</tspan><tspan class="cls-15" x="91.77" y="0">b</tspan><tspan class="cls-16" x="118.77" y="0">a</tspan><tspan class="cls-17" x="142.51" y="0">y</tspan><tspan x="164.9" y="0">ca</tspan><tspan class="cls-18" x="212.14" y="0">n</tspan><tspan class="cls-19" x="239.57" y="0">dilli</tspan></text><rect class="cls-2" x="85.21" y="305.1" width="260.32" height="56.71"/><rect class="cls-3" x="40.07" y="293.35" width="80.21" height="80.21"/><text class="cls-9" transform="translate(48.78 350.46)">17</text><text class="cls-11" transform="translate(139 343.47) scale(0.58)">İ<tspan class="cls-18" x="12.68" y="0">n</tspan><tspan class="cls-19" x="40.12" y="0">gilisdilli</tspan></text><text class="cls-10" transform="translate(67.92 366.87) scale(0.58)">azn</text><path class="cls-2" d="M58.34,424.41c0,3-2.2,4.88-5.84,4.88H49v4.25H47v-14H52.5C56.14,419.53,58.34,421.37,58.34,424.41Zm-2,0c0-2-1.34-3.14-3.9-3.14H49v6.28h3.4C55,427.55,56.34,426.41,56.34,424.41Z"/><path class="cls-2" d="M66.52,422.83v1.86a3.39,3.39,0,0,0-.44,0c-2.06,0-3.34,1.26-3.34,3.58v5.29H60.82V422.93h1.84v1.78C63.34,423.47,64.66,422.83,66.52,422.83Z"/><path class="cls-2" d="M67.8,428.23a5.51,5.51,0,1,1,5.52,5.43A5.27,5.27,0,0,1,67.8,428.23Zm9.08,0a3.57,3.57,0,1,0-7.14,0,3.57,3.57,0,1,0,7.14,0Z"/><path class="cls-2" d="M83.64,422v.92h3.08v1.58h-3v9H81.76v-9H80v-1.58h1.8V422a3.19,3.19,0,0,1,3.5-3.42,3.58,3.58,0,0,1,2.16.62l-.58,1.46a2.49,2.49,0,0,0-1.48-.5C84.22,420.15,83.64,420.79,83.64,422Z"/><path class="cls-2" d="M97.92,428.87h-8.6A3.6,3.6,0,0,0,93.16,432a3.93,3.93,0,0,0,3.06-1.29l1.06,1.25a5.32,5.32,0,0,1-4.18,1.72c-3.42,0-5.7-2.27-5.7-5.43a5.19,5.19,0,0,1,5.32-5.4A5.11,5.11,0,0,1,98,428.29C98,428.45,97.94,428.69,97.92,428.87Zm-8.6-1.38h6.8a3.42,3.42,0,0,0-6.8,0Z"/><path class="cls-2" d="M99.28,432.42l.8-1.53A6.73,6.73,0,0,0,103.8,432c1.78,0,2.52-.54,2.52-1.44,0-2.39-6.7-.33-6.7-4.55,0-1.9,1.7-3.18,4.42-3.18a7.71,7.71,0,0,1,3.86,1l-.82,1.52a5.54,5.54,0,0,0-3.06-.84c-1.68,0-2.5.62-2.5,1.46,0,2.5,6.72.46,6.72,4.59,0,1.92-1.76,3.14-4.58,3.14A7.65,7.65,0,0,1,99.28,432.42Z"/><path class="cls-2" d="M109.3,432.42l.8-1.53a6.73,6.73,0,0,0,3.72,1.11c1.78,0,2.52-.54,2.52-1.44,0-2.39-6.7-.33-6.7-4.55,0-1.9,1.7-3.18,4.42-3.18a7.71,7.71,0,0,1,3.86,1l-.82,1.52a5.54,5.54,0,0,0-3.06-.84c-1.68,0-2.5.62-2.5,1.46,0,2.5,6.72.46,6.72,4.59,0,1.92-1.76,3.14-4.58,3.14A7.65,7.65,0,0,1,109.3,432.42Z"/><path class="cls-2" d="M120.44,419.85a1.18,1.18,0,1,1,2.36,0,1.18,1.18,0,1,1-2.36,0Zm.22,3.08h1.92v10.61h-1.92Z"/><path class="cls-2" d="M125.26,428.23a5.51,5.51,0,1,1,5.52,5.43A5.27,5.27,0,0,1,125.26,428.23Zm9.08,0a3.57,3.57,0,1,0-7.14,0,3.57,3.57,0,1,0,7.14,0Z"/><path class="cls-2" d="M149,427.43v6.11h-1.92v-5.89c0-2.08-1-3.1-2.86-3.1-2,0-3.36,1.22-3.36,3.52v5.47h-1.92V422.93h1.84v1.6a4.54,4.54,0,0,1,3.82-1.7C147.18,422.83,149,424.31,149,427.43Z"/><path class="cls-2" d="M161,427.13v6.41h-1.82v-1.4a3.93,3.93,0,0,1-3.48,1.52c-2.4,0-3.92-1.28-3.92-3.13,0-1.7,1.1-3.1,4.26-3.1h3v-.38c0-1.62-.94-2.56-2.84-2.56a5.36,5.36,0,0,0-3.36,1.14l-.8-1.44a7.06,7.06,0,0,1,4.38-1.36C159.32,422.83,161,424.23,161,427.13ZM159,430.3v-1.49h-3c-1.9,0-2.44.75-2.44,1.64,0,1.07.88,1.73,2.34,1.73A3.07,3.07,0,0,0,159,430.3Z"/><path class="cls-2" d="M164.52,418.69h1.92v14.85h-1.92Z"/><path class="cls-2" d="M178.38,426.53a7.08,7.08,0,0,1,7.42-7.16,6.92,6.92,0,0,1,5.32,2.18l-1.3,1.26a5.19,5.19,0,0,0-3.94-1.66,5.39,5.39,0,1,0,0,10.77,5.18,5.18,0,0,0,3.94-1.69l1.3,1.27a7,7,0,0,1-5.34,2.2A7.08,7.08,0,0,1,178.38,426.53Z"/><path class="cls-2" d="M206,419.53l-6.14,14h-2l-6.16-14h2.16l5,11.5,5.08-11.5Z"/><path class="cls-2" d="M227,427.43v6.11h-1.92v-5.89c0-2.08-1-3.1-2.86-3.1-2,0-3.36,1.22-3.36,3.52v5.47h-1.92V418.69h1.92v5.74a4.6,4.6,0,0,1,3.74-1.6C225.18,422.83,227,424.31,227,427.43Z"/><path class="cls-2" d="M239,427.13v6.41h-1.82v-1.4a3.93,3.93,0,0,1-3.48,1.52c-2.4,0-3.92-1.28-3.92-3.13,0-1.7,1.1-3.1,4.26-3.1h3v-.38c0-1.62-.94-2.56-2.84-2.56a5.36,5.36,0,0,0-3.36,1.14l-.8-1.44a7.06,7.06,0,0,1,4.38-1.36C237.32,422.83,239,424.23,239,427.13ZM237,430.3v-1.49h-3c-1.9,0-2.44.75-2.44,1.64,0,1.07.88,1.73,2.34,1.73A3.07,3.07,0,0,0,237,430.3Z"/><path class="cls-2" d="M250.38,432v1.58H241.5V432.3l6.26-7.79h-6.14v-1.58h8.6v1.26L244,432Z"/><path class="cls-2" d="M252.94,422.93h1.92v10.61h-1.92Z"/><path class="cls-2" d="M264.22,422.83v1.86a3.39,3.39,0,0,0-.44,0c-2.06,0-3.34,1.26-3.34,3.58v5.29h-1.92V422.93h1.84v1.78C261,423.47,262.36,422.83,264.22,422.83Z"/><path class="cls-2" d="M266.58,418.69h1.92v14.85h-1.92Z"/><path class="cls-2" d="M280.56,427.13v6.41h-1.82v-1.4a3.93,3.93,0,0,1-3.48,1.52c-2.4,0-3.92-1.28-3.92-3.13,0-1.7,1.1-3.1,4.26-3.1h3v-.38c0-1.62-.94-2.56-2.84-2.56a5.36,5.36,0,0,0-3.36,1.14l-.8-1.44a7.06,7.06,0,0,1,4.38-1.36C278.92,422.83,280.56,424.23,280.56,427.13Zm-1.92,3.17v-1.49h-3c-1.9,0-2.44.75-2.44,1.64,0,1.07.88,1.73,2.34,1.73A3.07,3.07,0,0,0,278.64,430.3Z"/><path class="cls-2" d="M301.72,427.43v6.11H299.8v-5.89c0-2.08-1-3.1-2.74-3.1-1.92,0-3.18,1.22-3.18,3.52v5.47H292v-5.89c0-2.08-1-3.1-2.74-3.1-1.92,0-3.18,1.22-3.18,3.52v5.47h-1.92V422.93H286v1.58a4.3,4.3,0,0,1,3.66-1.68,3.92,3.92,0,0,1,3.68,2,4.78,4.78,0,0,1,4.08-2C300,422.83,301.72,424.31,301.72,427.43Z"/><path class="cls-2" d="M313.66,427.13v6.41h-1.82v-1.4a3.93,3.93,0,0,1-3.48,1.52c-2.4,0-3.92-1.28-3.92-3.13,0-1.7,1.1-3.1,4.26-3.1h3v-.38c0-1.62-.94-2.56-2.84-2.56a5.36,5.36,0,0,0-3.36,1.14l-.8-1.44a7.06,7.06,0,0,1,4.38-1.36C312,422.83,313.66,424.23,313.66,427.13Zm-1.92,3.17v-1.49h-3c-1.9,0-2.44.75-2.44,1.64,0,1.07.88,1.73,2.34,1.73A3.07,3.07,0,0,0,311.74,430.3Z"/><path class="cls-2" d="M333.12,433.54l-3.06-4.06-3.1,4.06h-2.14l4.18-5.43-4-5.18h2.14l2.92,3.82,2.9-3.82h2.1l-4,5.18,4.22,5.43Z"/><path class="cls-2" d="M337.18,419.85a1.18,1.18,0,0,1,2.36,0,1.18,1.18,0,1,1-2.36,0Zm.22,3.08h1.92v10.61H337.4Z"/><path class="cls-2" d="M353,418.69v14.85h-1.84v-1.69a4.46,4.46,0,0,1-3.78,1.81,5.42,5.42,0,0,1,0-10.83,4.51,4.51,0,0,1,3.7,1.7v-5.84Zm-1.9,9.54a3.57,3.57,0,1,0-3.56,3.75A3.49,3.49,0,0,0,351.08,428.23Z"/><path class="cls-2" d="M374.22,427.43v6.11H372.3v-5.89c0-2.08-1-3.1-2.74-3.1-1.92,0-3.18,1.22-3.18,3.52v5.47h-1.92v-5.89c0-2.08-1-3.1-2.74-3.1-1.92,0-3.18,1.22-3.18,3.52v5.47h-1.92V422.93h1.84v1.58a4.3,4.3,0,0,1,3.66-1.68,3.92,3.92,0,0,1,3.68,2,4.78,4.78,0,0,1,4.08-2C372.46,422.83,374.22,424.31,374.22,427.43Z"/><path class="cls-2" d="M387.4,428.23a5.19,5.19,0,0,1-5.32,5.41,5.11,5.11,0,0,1-5.24-5.47c0-.16,0-.4,0-.58h8.6a3.59,3.59,0,0,0-3.84-3.1,4,4,0,0,0-3.06,1.28l-1.06-1.24a5.32,5.32,0,0,1,4.18-1.72C385.12,422.81,387.4,425.07,387.4,428.23Zm-1.92.75h-6.8a3.42,3.42,0,0,0,6.8,0Z"/><path class="cls-2" d="M389.38,427.21h5.38v1.66h-5.38Z"/><path class="cls-2" d="M52.72,456.92a3.62,3.62,0,0,1-2.32.74A3,3,0,0,1,47,454.34v-5.83h-1.8v-1.58H47v-2.32H49v2.32h3v1.58H49v5.75A1.57,1.57,0,0,0,50.62,456a2.48,2.48,0,0,0,1.5-.5Z"/><path class="cls-2" d="M54.59,443.85A1.19,1.19,0,1,1,55.77,445,1.16,1.16,0,0,1,54.59,443.85Zm.22,3.08h1.93v10.61H54.81Z"/><path class="cls-2" d="M70.23,451.43v6.11H68.31v-5.89c0-2.08-1-3.1-2.86-3.1-2,0-3.36,1.22-3.36,3.52v5.47H60.17V446.93H62v1.6a4.54,4.54,0,0,1,3.82-1.7C68.41,446.83,70.23,448.31,70.23,451.43Z"/><path class="cls-2" d="M83.63,442.69v14.85H81.79v-1.69A4.46,4.46,0,0,1,78,457.66a5.42,5.42,0,0,1,0-10.83,4.51,4.51,0,0,1,3.7,1.7v-5.84Zm-1.9,9.54A3.57,3.57,0,1,0,78.17,456,3.49,3.49,0,0,0,81.73,452.23Z"/><path class="cls-2" d="M96.63,452.23a5.19,5.19,0,0,1-5.32,5.41,5.11,5.11,0,0,1-5.24-5.47c0-.16,0-.4,0-.58h8.6a3.59,3.59,0,0,0-3.84-3.1,4,4,0,0,0-3.06,1.28l-1.06-1.24a5.32,5.32,0,0,1,4.18-1.72C94.35,446.81,96.63,449.07,96.63,452.23Zm-1.92.75h-6.8a3.42,3.42,0,0,0,6.8,0Z"/><path class="cls-2" d="M114.57,452.23a5.15,5.15,0,0,1-5.36,5.43,4.53,4.53,0,0,1-3.7-1.72v5.48h-1.92V446.93h1.84v1.68a4.51,4.51,0,0,1,3.78-1.78A5.14,5.14,0,0,1,114.57,452.23Zm-1.94,0a3.57,3.57,0,1,0-3.58,3.75A3.5,3.5,0,0,0,112.63,452.23Z"/><path class="cls-2" d="M126.55,452.87H118a3.6,3.6,0,0,0,3.84,3.11,3.93,3.93,0,0,0,3.06-1.29l1.06,1.25a5.32,5.32,0,0,1-4.18,1.72c-3.42,0-5.7-2.27-5.7-5.43a5.19,5.19,0,0,1,5.32-5.4,5.11,5.11,0,0,1,5.24,5.46C126.59,452.45,126.57,452.69,126.55,452.87Zm-8.6-1.38h6.8a3.42,3.42,0,0,0-6.8,0Z"/><path class="cls-2" d="M132.65,457.64l-.24.9c1.16.12,1.74.78,1.74,1.66,0,1.12-1,1.82-2.48,1.82a3.36,3.36,0,0,1-1.78-.44l.42-1a2.64,2.64,0,0,0,1.36.34c.76,0,1.12-.3,1.12-.8s-.34-.78-1.14-.78h-.54l.44-1.72a7.17,7.17,0,0,1-3.86-1.22l.8-1.53a6.73,6.73,0,0,0,3.72,1.11c1.78,0,2.52-.54,2.52-1.44,0-2.39-6.7-.33-6.7-4.55,0-1.9,1.7-3.18,4.42-3.18a7.71,7.71,0,0,1,3.86,1l-.82,1.52a5.54,5.54,0,0,0-3.06-.84c-1.68,0-2.5.62-2.5,1.46,0,2.5,6.72.46,6.72,4.59C136.65,456.3,135.13,457.48,132.65,457.64Z"/><path class="cls-2" d="M148.41,452.23a5.19,5.19,0,0,1-5.32,5.41,5.12,5.12,0,0,1-5.25-5.47c0-.16,0-.4,0-.58h8.61a3.59,3.59,0,0,0-3.84-3.1,4,4,0,0,0-3.07,1.28l-1.05-1.24a5.32,5.32,0,0,1,4.18-1.72C146.13,446.81,148.41,449.07,148.41,452.23Zm-1.92.75h-6.8a3.42,3.42,0,0,0,6.8,0Z"/><path class="cls-2" d="M155,452.59l-2.2,2.05v2.9h-1.92V442.69h1.92v9.52l5.79-5.28h2.32l-4.46,4.38,4.9,6.23H159Z"/><path class="cls-2" d="M171.14,451.13v6.41h-1.82v-1.4a3.93,3.93,0,0,1-3.48,1.52c-2.4,0-3.92-1.28-3.92-3.13,0-1.7,1.1-3.1,4.26-3.1h3v-.38c0-1.62-.94-2.56-2.84-2.56a5.36,5.36,0,0,0-3.36,1.14l-.8-1.44a7.06,7.06,0,0,1,4.38-1.36C169.5,446.83,171.14,448.23,171.14,451.13Zm-1.92,3.17v-1.49h-3c-1.9,0-2.44.75-2.44,1.64,0,1.07.88,1.73,2.34,1.73A3.07,3.07,0,0,0,169.22,454.3Z"/><path class="cls-2" d="M180.18,446.83v1.86a3.39,3.39,0,0,0-.44,0c-2.06,0-3.34,1.26-3.34,3.58v5.29h-1.92V446.93h1.84v1.78C177,447.47,178.32,446.83,180.18,446.83Z"/><path class="cls-2" d="M191.11,452.59l-2.2,2.05v2.9H187V442.69h1.93v9.52l5.78-5.28H197l-4.46,4.38,4.9,6.23h-2.36Z"/><path class="cls-2" d="M197.66,452.23a5.51,5.51,0,1,1,5.52,5.43A5.27,5.27,0,0,1,197.66,452.23Zm9.08,0a3.57,3.57,0,1,0-7.14,0,3.57,3.57,0,1,0,7.14,0Z"/><path class="cls-2" d="M228.72,451.43v6.11H226.8v-5.89c0-2.08-1-3.1-2.74-3.1-1.92,0-3.18,1.22-3.18,3.52v5.47H219v-5.89c0-2.08-1-3.1-2.74-3.1-1.92,0-3.18,1.22-3.18,3.52v5.47h-1.92V446.93H213v1.58a4.3,4.3,0,0,1,3.66-1.68,3.92,3.92,0,0,1,3.68,2,4.78,4.78,0,0,1,4.08-2C227,446.83,228.72,448.31,228.72,451.43Z"/><path class="cls-2" d="M240.44,451.13v6.41h-1.82v-1.4a3.93,3.93,0,0,1-3.48,1.52c-2.4,0-3.92-1.28-3.92-3.13,0-1.7,1.1-3.1,4.26-3.1h3v-.38c0-1.62-.94-2.56-2.84-2.56a5.36,5.36,0,0,0-3.36,1.14l-.8-1.44a7.06,7.06,0,0,1,4.38-1.36C238.8,446.83,240.44,448.23,240.44,451.13Zm-1.92,3.17v-1.49h-3c-1.9,0-2.44.75-2.44,1.64,0,1.07.88,1.73,2.34,1.73A3.07,3.07,0,0,0,238.52,454.3Z"/><path class="cls-2" d="M253.84,451.43v6.11h-1.92v-5.89c0-2.08-1-3.1-2.86-3.1-2,0-3.36,1.22-3.36,3.52v5.47h-1.92V446.93h1.84v1.6a4.54,4.54,0,0,1,3.82-1.7C252,446.83,253.84,448.31,253.84,451.43Z"/><path class="cls-2" d="M267.24,442.69v14.85H265.4v-1.69a4.46,4.46,0,0,1-3.78,1.81,5.42,5.42,0,0,1,0-10.83,4.51,4.51,0,0,1,3.7,1.7v-5.84Zm-1.9,9.54a3.57,3.57,0,1,0-3.56,3.75A3.49,3.49,0,0,0,265.34,452.23Z"/><path class="cls-2" d="M279.05,451.13v6.41h-1.82v-1.4a3.93,3.93,0,0,1-3.48,1.52c-2.4,0-3.92-1.28-3.92-3.13,0-1.7,1.1-3.1,4.26-3.1h3v-.38c0-1.62-.94-2.56-2.84-2.56a5.36,5.36,0,0,0-3.36,1.14l-.8-1.44a7.06,7.06,0,0,1,4.38-1.36C277.41,446.83,279.05,448.23,279.05,451.13Zm-1.92,3.17v-1.49h-3c-1.9,0-2.44.75-2.44,1.64,0,1.07.88,1.73,2.34,1.73A3.07,3.07,0,0,0,277.13,454.3Z"/><path class="cls-2" d="M300,451.43v6.11h-1.92v-5.89c0-2.08-1-3.1-2.74-3.1-1.92,0-3.18,1.22-3.18,3.52v5.47h-1.92v-5.89c0-2.08-1-3.1-2.74-3.1-1.92,0-3.18,1.22-3.18,3.52v5.47h-1.92V446.93h1.84v1.58a4.3,4.3,0,0,1,3.66-1.68,3.92,3.92,0,0,1,3.68,2,4.78,4.78,0,0,1,4.08-2C298.23,446.83,300,448.31,300,451.43Z"/><path class="cls-2" d="M303.31,446.93h1.92v10.61h-1.92Z"/><path class="cls-2" d="M316.53,456v1.58h-8.88V456.3l6.26-7.79h-6.14v-1.58h8.6v1.26L310.11,456Z"/><path class="cls-2" d="M329.35,456.92a3.62,3.62,0,0,1-2.32.74,3,3,0,0,1-3.36-3.32v-5.83h-1.8v-1.58h1.8v-2.32h1.92v2.32h3v1.58h-3v5.75a1.57,1.57,0,0,0,1.66,1.78,2.48,2.48,0,0,0,1.5-.5Z"/><path class="cls-2" d="M340.67,452.23a5.19,5.19,0,0,1-5.32,5.41,5.11,5.11,0,0,1-5.24-5.47c0-.16,0-.4,0-.58h8.6a3.59,3.59,0,0,0-3.84-3.1,4,4,0,0,0-3.06,1.28l-1.06-1.24a5.32,5.32,0,0,1,4.18-1.72C338.39,446.81,340.67,449.07,340.67,452.23Zm-1.92.75H332a3.42,3.42,0,0,0,6.8,0Z"/><path class="cls-2" d="M348.81,446.83v1.86a3.39,3.39,0,0,0-.44,0c-2.06,0-3.34,1.26-3.34,3.58v5.29h-1.92V446.93H345v1.78C345.63,447.47,347,446.83,348.81,446.83Z"/><path class="cls-2" d="M360.43,452.23a5.2,5.2,0,0,1-5.33,5.41,5.11,5.11,0,0,1-5.24-5.47c0-.16,0-.4,0-.58h8.61a3.6,3.6,0,0,0-3.84-3.1,4,4,0,0,0-3.07,1.28l-1.06-1.24a5.32,5.32,0,0,1,4.18-1.72C358.15,446.81,360.43,449.07,360.43,452.23Zm-1.92.75H351.7a3.43,3.43,0,0,0,6.81,0Z"/><path class="cls-2" d="M365,446v.92h3.08v1.58h-3v9h-1.92v-9h-1.8v-1.58h1.8V446a3.19,3.19,0,0,1,3.5-3.42,3.58,3.58,0,0,1,2.16.62l-.58,1.46a2.49,2.49,0,0,0-1.48-.5C365.6,444.15,365,444.79,365,446Z"/><path class="cls-2" d="M371.08,443.85a1.18,1.18,0,0,1,2.36,0,1.18,1.18,0,1,1-2.36,0Zm.22,3.08h1.92v10.61H371.3Z"/><path class="cls-2" d="M386.72,451.43v6.11H384.8v-5.89c0-2.08-1-3.1-2.86-3.1-2,0-3.36,1.22-3.36,3.52v5.47h-1.92V446.93h1.84v1.6a4.54,4.54,0,0,1,3.82-1.7C384.9,446.83,386.72,448.31,386.72,451.43Z"/><path class="cls-2" d="M389.38,451.21h5.38v1.66h-5.38Z"/><path class="cls-2" d="M56.76,466.69v14.85H54.92v-1.69a4.46,4.46,0,0,1-3.78,1.81,5.42,5.42,0,0,1,0-10.83,4.51,4.51,0,0,1,3.7,1.7v-5.84Zm-1.9,9.54A3.57,3.57,0,1,0,51.3,480,3.49,3.49,0,0,0,54.86,476.23Z"/><path class="cls-2" d="M70,476.23a5.19,5.19,0,0,1-5.32,5.41,5.11,5.11,0,0,1-5.24-5.47c0-.16,0-.4,0-.58h8.6a3.59,3.59,0,0,0-3.84-3.1,4,4,0,0,0-3.06,1.28l-1.06-1.24a5.32,5.32,0,0,1,4.18-1.72C67.7,470.81,70,473.07,70,476.23Zm-1.92.75h-6.8a3.42,3.42,0,0,0,6.8,0Z"/><path class="cls-2" d="M82.7,475.43v6.11H80.78v-5.89c0-2.08-1-3.1-2.86-3.1-2,0-3.36,1.22-3.36,3.52v5.47H72.64V470.93h1.84v1.6a4.54,4.54,0,0,1,3.82-1.7C80.88,470.83,82.7,472.31,82.7,475.43Z"/><path class="cls-2" d="M91.75,474.53a7.08,7.08,0,0,1,7.42-7.16,6.94,6.94,0,0,1,5.33,2.18l-1.3,1.26a5.21,5.21,0,0,0-4-1.66,5.39,5.39,0,1,0,0,10.77,5.2,5.2,0,0,0,4-1.69l1.3,1.27a7,7,0,0,1-5.35,2.2A7.08,7.08,0,0,1,91.75,474.53Z"/><path class="cls-2" d="M119.38,467.53l-6.14,14h-2l-6.16-14h2.16l5,11.5,5.09-11.5Z"/><path class="cls-2" d="M120.61,467.53h1.68l-.14,5.4h-1.42Z"/><path class="cls-2" d="M135.44,475.43v6.11h-1.92v-5.89c0-2.08-1-3.1-2.86-3.1-2,0-3.37,1.22-3.37,3.52v5.47h-1.92V470.93h1.84v1.6a4.56,4.56,0,0,1,3.83-1.7C133.62,470.83,135.44,472.31,135.44,475.43Z"/><path class="cls-2" d="M138.77,467.85a1.18,1.18,0,0,1,2.36,0,1.18,1.18,0,1,1-2.36,0Zm.22,3.08h1.93v10.61H139Z"/><path class="cls-2" d="M152.44,480v1.58h-8.89V480.3l6.27-7.79h-6.15v-1.58h8.61v1.26L146,480Z"/><path class="cls-2" d="M154.77,467.85a1.18,1.18,0,0,1,2.36,0,1.18,1.18,0,1,1-2.36,0Zm.22,3.08h1.93v10.61H155Z"/><path class="cls-2" d="M176.93,470.93v14.49H175v-5.48a4.53,4.53,0,0,1-3.7,1.72,5.42,5.42,0,0,1,0-10.83,4.51,4.51,0,0,1,3.78,1.78v-1.68Zm-1.9,5.3a3.57,3.57,0,1,0-3.56,3.75A3.5,3.5,0,0,0,175,476.23Z"/><path class="cls-2" d="M190.45,470.93v10.61h-1.82v-1.6a4.31,4.31,0,0,1-3.6,1.72c-2.74,0-4.56-1.5-4.56-4.63v-6.1h1.92v5.88c0,2.08,1,3.13,2.86,3.13,2,0,3.28-1.25,3.28-3.53v-5.48Z"/><path class="cls-2" d="M199.81,470.83v1.86a3.39,3.39,0,0,0-.44,0c-2.06,0-3.34,1.26-3.34,3.58v5.29h-1.92V470.93H196v1.78C196.63,471.47,198,470.83,199.81,470.83Z"/><path class="cls-2" d="M212.19,470.93v10.61h-1.82v-1.6a4.31,4.31,0,0,1-3.6,1.72c-2.74,0-4.56-1.5-4.56-4.63v-6.1h1.92v5.88c0,2.08,1,3.13,2.86,3.13,2,0,3.28-1.25,3.28-3.53v-5.48Z"/><path class="cls-2" d="M215.85,466.69h1.92v14.85h-1.92Z"/><path class="cls-2" d="M231.31,470.93v10.61h-1.82v-1.6a4.31,4.31,0,0,1-3.6,1.72c-2.74,0-4.56-1.5-4.56-4.63v-6.1h1.92v5.88c0,2.08,1,3.13,2.86,3.13,2,0,3.28-1.25,3.28-3.53v-5.48Z"/><path class="cls-2" d="M238.59,481.64l-.24.9c1.16.12,1.74.78,1.74,1.66,0,1.12-1,1.82-2.48,1.82a3.36,3.36,0,0,1-1.78-.44l.42-1a2.64,2.64,0,0,0,1.36.34c.76,0,1.12-.3,1.12-.8s-.34-.78-1.14-.78h-.54l.44-1.72a7.17,7.17,0,0,1-3.86-1.22l.8-1.53a6.73,6.73,0,0,0,3.72,1.11c1.78,0,2.52-.54,2.52-1.44,0-2.39-6.7-.33-6.7-4.55,0-1.9,1.7-3.18,4.42-3.18a7.71,7.71,0,0,1,3.86,1l-.82,1.52a5.54,5.54,0,0,0-3.06-.84c-1.68,0-2.5.62-2.5,1.46,0,2.5,6.72.46,6.72,4.59C242.59,480.3,241.07,481.48,238.59,481.64Z"/><path class="cls-2" d="M260.73,470.93l-4.64,10.61h-2l-4.64-10.61h2l3.64,8.51,3.72-8.51Z"/><path class="cls-2" d="M271.81,476.23a5.19,5.19,0,0,1-5.32,5.41,5.11,5.11,0,0,1-5.24-5.47c0-.16,0-.4,0-.58h8.6a3.59,3.59,0,0,0-3.84-3.1,4,4,0,0,0-3.06,1.28l-1.06-1.24a5.32,5.32,0,0,1,4.18-1.72C269.53,470.81,271.81,473.07,271.81,476.23Zm-1.92.75h-6.8a3.42,3.42,0,0,0,6.8,0Z"/><path class="cls-2" d="M283,470v.92h3.08v1.58h-3v9H281.1v-9h-1.8v-1.58h1.8V470a3.19,3.19,0,0,1,3.5-3.42,3.58,3.58,0,0,1,2.16.62l-.58,1.46a2.49,2.49,0,0,0-1.48-.5C283.56,468.15,283,468.79,283,470Z"/><path class="cls-2" d="M286.74,476.23a5.51,5.51,0,1,1,5.52,5.43A5.27,5.27,0,0,1,286.74,476.23Zm9.08,0a3.57,3.57,0,1,0-7.14,0,3.57,3.57,0,1,0,7.14,0Z"/><path class="cls-2" d="M306.12,470.83v1.86a3.39,3.39,0,0,0-.44,0c-2.06,0-3.34,1.26-3.34,3.58v5.29h-1.92V470.93h1.84v1.78C302.94,471.47,304.26,470.83,306.12,470.83Z"/><path class="cls-2" d="M326.08,475.43v6.11h-1.91v-5.89c0-2.08-1-3.1-2.75-3.1-1.92,0-3.18,1.22-3.18,3.52v5.47h-1.92v-5.89c0-2.08-1-3.1-2.74-3.1-1.92,0-3.18,1.22-3.18,3.52v5.47h-1.92V470.93h1.84v1.58a4.3,4.3,0,0,1,3.66-1.68,3.92,3.92,0,0,1,3.68,2,4.78,4.78,0,0,1,4.08-2C324.33,470.83,326.08,472.31,326.08,475.43Z"/><path class="cls-2" d="M338,475.13v6.41H336.2v-1.4a3.93,3.93,0,0,1-3.48,1.52c-2.4,0-3.92-1.28-3.92-3.13,0-1.7,1.1-3.1,4.26-3.1h3v-.38c0-1.62-.94-2.56-2.84-2.56a5.36,5.36,0,0,0-3.36,1.14l-.8-1.44a7.06,7.06,0,0,1,4.38-1.36C336.38,470.83,338,472.23,338,475.13Zm-1.92,3.17v-1.49h-3c-1.9,0-2.44.75-2.44,1.64,0,1.07.88,1.73,2.34,1.73A3.07,3.07,0,0,0,336.1,478.3Z"/><path class="cls-2" d="M358.92,476.23a5.16,5.16,0,0,1-5.36,5.43,4.46,4.46,0,0,1-3.78-1.81v1.69h-1.84V466.69h1.92v5.84a4.51,4.51,0,0,1,3.7-1.7A5.14,5.14,0,0,1,358.92,476.23Zm-1.94,0A3.57,3.57,0,1,0,353.4,480,3.49,3.49,0,0,0,357,476.23Z"/><path class="cls-2" d="M369.88,475.13v6.41h-1.82v-1.4a3.93,3.93,0,0,1-3.48,1.52c-2.4,0-3.92-1.28-3.92-3.13,0-1.7,1.1-3.1,4.26-3.1h3v-.38c0-1.62-.94-2.56-2.84-2.56a5.36,5.36,0,0,0-3.36,1.14l-.8-1.44a7.06,7.06,0,0,1,4.38-1.36C368.24,470.83,369.88,472.23,369.88,475.13ZM368,478.3v-1.49h-3c-1.9,0-2.44.75-2.44,1.64,0,1.07.88,1.73,2.34,1.73A3.07,3.07,0,0,0,368,478.3Z"/><path class="cls-2" d="M380.2,481.54l-3.06-4.06-3.1,4.06H371.9l4.18-5.43-4-5.18h2.14l2.92,3.82,2.9-3.82h2.1l-4,5.18,4.22,5.43Z"/><path class="cls-2" d="M384.48,470.93h1.92v10.61h-1.92Z"/><path class="cls-2" d="M389.38,475.21h5.38v1.66h-5.38Z"/><path class="cls-2" d="M64.36,499.43v6.11H62.44v-5.89c0-2.08-1-3.1-2.74-3.1-1.92,0-3.18,1.22-3.18,3.52v5.47H54.6v-5.89c0-2.08-1-3.1-2.74-3.1-1.92,0-3.18,1.22-3.18,3.52v5.47H46.76V494.93H48.6v1.58a4.3,4.3,0,0,1,3.66-1.68,3.92,3.92,0,0,1,3.68,2,4.78,4.78,0,0,1,4.08-2C62.6,494.83,64.36,496.31,64.36,499.43Z"/><path class="cls-2" d="M67.9,494.93h1.92v10.61H67.9Z"/><path class="cls-2" d="M83.54,499.43v6.11H81.62v-5.89c0-2.08-1-3.1-2.86-3.1-2,0-3.36,1.22-3.36,3.52v5.47H73.48V494.93h1.84v1.6a4.54,4.54,0,0,1,3.82-1.7C81.72,494.83,83.54,496.31,83.54,499.43Z"/><path class="cls-2" d="M97.16,490.69v14.85H95.32v-1.69a4.46,4.46,0,0,1-3.78,1.81,5.42,5.42,0,0,1,0-10.83,4.51,4.51,0,0,1,3.7,1.7v-5.84Zm-1.9,9.54A3.57,3.57,0,1,0,91.7,504,3.49,3.49,0,0,0,95.26,500.23Z"/><path class="cls-2" d="M109.2,499.13v6.41h-1.82v-1.4a3.93,3.93,0,0,1-3.48,1.52c-2.4,0-3.92-1.28-3.92-3.13,0-1.7,1.1-3.1,4.26-3.1h3v-.38c0-1.62-.94-2.56-2.84-2.56a5.36,5.36,0,0,0-3.36,1.14l-.8-1.44a7.06,7.06,0,0,1,4.38-1.36C107.56,494.83,109.2,496.23,109.2,499.13Zm-1.92,3.17v-1.49h-3c-1.9,0-2.44.75-2.44,1.64,0,1.07.88,1.73,2.34,1.73A3.07,3.07,0,0,0,107.28,502.3Z"/><path class="cls-2" d="M122.82,499.43v6.11H120.9v-5.89c0-2.08-1-3.1-2.86-3.1-2,0-3.36,1.22-3.36,3.52v5.47h-1.92V494.93h1.84v1.6a4.54,4.54,0,0,1,3.82-1.7C121,494.83,122.82,496.31,122.82,499.43Z"/><path class="cls-2" d="M142.65,494.93v9.17c0,3.74-1.9,5.44-5.5,5.44a7.85,7.85,0,0,1-5.06-1.58l.92-1.48a6.47,6.47,0,0,0,4.08,1.38c2.5,0,3.64-1.16,3.64-3.56v-.84a4.85,4.85,0,0,1-3.82,1.64,5.14,5.14,0,1,1,0-10.27,4.84,4.84,0,0,1,3.92,1.74v-1.64Zm-1.88,5a3.66,3.66,0,0,0-7.3,0,3.65,3.65,0,0,0,7.3,0Z"/><path class="cls-2" d="M156.19,494.93v10.61h-1.82v-1.6a4.31,4.31,0,0,1-3.6,1.72c-2.74,0-4.56-1.5-4.56-4.63v-6.1h1.92v5.88c0,2.08,1,3.13,2.86,3.13,2,0,3.28-1.25,3.28-3.53v-5.48Zm-7.86-2.9a1,1,0,1,1,2,0,1,1,0,0,1-2,0Zm3.72,0a1,1,0,1,1,2,0,1,1,0,0,1-2,0Z"/><path class="cls-2" d="M158.87,500.23a5.3,5.3,0,0,1,5.6-5.4,4.73,4.73,0,0,1,4.32,2.26l-1.46.94a3.3,3.3,0,0,0-2.88-1.52,3.74,3.74,0,0,0,0,7.47,3.29,3.29,0,0,0,2.88-1.53l1.46.93a4.74,4.74,0,0,1-4.32,2.28A5.32,5.32,0,0,1,158.87,500.23Z"/><path class="cls-2" d="M171.13,490.69h1.92v14.85h-1.92Z"/><path class="cls-2" d="M186.29,500.23a5.19,5.19,0,0,1-5.32,5.41,5.11,5.11,0,0,1-5.24-5.47c0-.16,0-.4,0-.58h8.6a3.59,3.59,0,0,0-3.84-3.1,4,4,0,0,0-3.06,1.28l-1.06-1.24a5.32,5.32,0,0,1,4.18-1.72C184,494.81,186.29,497.07,186.29,500.23Zm-1.92.75h-6.8a3.42,3.42,0,0,0,6.8,0Z"/><path class="cls-2" d="M199,499.43v6.11h-1.92v-5.89c0-2.08-1-3.1-2.86-3.1-2,0-3.36,1.22-3.36,3.52v5.47H189V494.93h1.84v1.6a4.54,4.54,0,0,1,3.82-1.7C197.19,494.83,199,496.31,199,499.43Z"/><path class="cls-2" d="M212.63,490.69v14.85h-1.84v-1.69a4.46,4.46,0,0,1-3.78,1.81,5.42,5.42,0,0,1,0-10.83,4.51,4.51,0,0,1,3.7,1.7v-5.84Zm-1.9,9.54a3.57,3.57,0,1,0-3.56,3.75A3.49,3.49,0,0,0,210.73,500.23Z"/><path class="cls-2" d="M216.05,491.85a1.18,1.18,0,0,1,2.36,0,1.18,1.18,0,1,1-2.36,0Zm.22,3.08h1.92v10.61h-1.92Z"/><path class="cls-2" d="M227.55,494.83v1.86a3.39,3.39,0,0,0-.44,0c-2.06,0-3.34,1.26-3.34,3.58v5.29h-1.92V494.93h1.84v1.78C224.37,495.47,225.69,494.83,227.55,494.83Z"/><path class="cls-2" d="M229.69,491.85a1.18,1.18,0,0,1,2.36,0,1.18,1.18,0,1,1-2.36,0Zm.22,3.08h1.92v10.61h-1.92Z"/><path class="cls-2" d="M246.47,500.23a5.16,5.16,0,0,1-5.36,5.43,4.46,4.46,0,0,1-3.78-1.81v1.69h-1.84V490.69h1.92v5.84a4.51,4.51,0,0,1,3.7-1.7A5.14,5.14,0,0,1,246.47,500.23Zm-1.94,0A3.57,3.57,0,1,0,241,504,3.49,3.49,0,0,0,244.53,500.23Z"/><path class="cls-2" d="M250.67,504.27a4,4,0,0,1-.34,1.45l-.94,2.78h-1.26l.74-3a1.28,1.28,0,0,1-.84-1.25,1.31,1.31,0,0,1,1.34-1.35A1.29,1.29,0,0,1,250.67,504.27Z"/><path class="cls-2" d="M258.58,500.23a5.52,5.52,0,1,1,5.53,5.43A5.28,5.28,0,0,1,258.58,500.23Zm9.09,0a3.58,3.58,0,1,0-7.15,0,3.58,3.58,0,1,0,7.15,0Zm-6.46-8.2a1,1,0,1,1,2,0,1,1,0,1,1-2,0Zm3.72,0a1,1,0,1,1,2,0,1,1,0,0,1-2,0Z"/><path class="cls-2" d="M280,504v1.58h-8.88V504.3l6.26-7.79H271.2v-1.58h8.61v1.26L273.54,504Z"/><path class="cls-2" d="M292,500.23a5.2,5.2,0,0,1-5.33,5.41,5.11,5.11,0,0,1-5.24-5.47c0-.16,0-.4,0-.58H290a3.6,3.6,0,0,0-3.85-3.1,4,4,0,0,0-3.06,1.28l-1.06-1.24a5.32,5.32,0,0,1,4.18-1.72C289.67,494.81,292,497.07,292,500.23ZM290,501h-6.81a3.43,3.43,0,0,0,6.81,0Z"/><path class="cls-2" d="M294.6,490.69h1.92v14.85H294.6Z"/><path class="cls-2" d="M316.32,490.69v14.85h-1.84v-1.69a4.46,4.46,0,0,1-3.78,1.81,5.42,5.42,0,0,1,0-10.83,4.51,4.51,0,0,1,3.7,1.7v-5.84Zm-1.9,9.54a3.57,3.57,0,1,0-3.56,3.75A3.49,3.49,0,0,0,314.42,500.23Z"/><path class="cls-2" d="M319.74,491.85a1.18,1.18,0,1,1,2.36,0,1.18,1.18,0,1,1-2.36,0Zm.22,3.08h1.92v10.61H320Z"/><path class="cls-2" d="M333.4,504v1.58h-8.88V504.3l6.26-7.79h-6.14v-1.58h8.6v1.26L327,504Z"/><path class="cls-2" d="M344.36,499.13v6.41h-1.82v-1.4a3.93,3.93,0,0,1-3.48,1.52c-2.4,0-3.92-1.28-3.92-3.13,0-1.7,1.1-3.1,4.26-3.1h3v-.38c0-1.62-.94-2.56-2.84-2.56a5.36,5.36,0,0,0-3.36,1.14l-.8-1.44a7.06,7.06,0,0,1,4.38-1.36C342.72,494.83,344.36,496.23,344.36,499.13Zm-1.92,3.17v-1.49h-3c-1.9,0-2.44.75-2.44,1.64,0,1.07.88,1.73,2.34,1.73A3.07,3.07,0,0,0,342.44,502.3Z"/><path class="cls-2" d="M357.1,494.93,352,506.6c-.94,2.24-2.16,2.94-3.78,2.94a4,4,0,0,1-2.72-1l.82-1.44a2.71,2.71,0,0,0,1.9.78c.92,0,1.5-.42,2-1.64l.34-.74-4.68-10.59h2l3.7,8.49,3.66-8.49Z"/><path class="cls-2" d="M369,499.43v6.11H367v-5.89c0-2.08-1-3.1-2.86-3.1-2,0-3.36,1.22-3.36,3.52v5.47H358.9V494.93h1.84v1.6a4.54,4.54,0,0,1,3.82-1.7C367.14,494.83,369,496.31,369,499.43Z"/><path class="cls-2" d="M372.52,490.69h1.92v14.85h-1.92Z"/><path class="cls-2" d="M386.5,499.13v6.41h-1.82v-1.4a3.93,3.93,0,0,1-3.48,1.52c-2.4,0-3.92-1.28-3.92-3.13,0-1.7,1.1-3.1,4.26-3.1h3v-.38c0-1.62-.94-2.56-2.84-2.56a5.36,5.36,0,0,0-3.36,1.14l-.8-1.44a7.06,7.06,0,0,1,4.38-1.36C384.86,494.83,386.5,496.23,386.5,499.13Zm-1.92,3.17v-1.49h-3c-1.9,0-2.44.75-2.44,1.64,0,1.07.88,1.73,2.34,1.73A3.07,3.07,0,0,0,384.58,502.3Z"/><path class="cls-2" d="M389.38,499.21h5.38v1.66h-5.38Z"/><path class="cls-2" d="M52.46,518.83v1.86a3.39,3.39,0,0,0-.44,0c-2.06,0-3.34,1.26-3.34,3.58v5.29H46.76V518.93H48.6v1.78C49.28,519.47,50.6,518.83,52.46,518.83Z"/><path class="cls-2" d="M54.64,518.93h1.92v10.61H54.64Z"/><path class="cls-2" d="M77.64,523.43v6.11H75.72v-5.89c0-2.08-1-3.1-2.74-3.1-1.92,0-3.19,1.22-3.19,3.52v5.47H67.87v-5.89c0-2.08-1-3.1-2.74-3.1-1.92,0-3.18,1.22-3.18,3.52v5.47H60V518.93h1.84v1.58a4.3,4.3,0,0,1,3.66-1.68,3.91,3.91,0,0,1,3.68,2,4.81,4.81,0,0,1,4.09-2C75.88,518.83,77.64,520.31,77.64,523.43Z"/><path class="cls-2" d="M81,518.93h1.92v10.61H81Z"/><path class="cls-2" d="M94.25,528v1.58H85.37V528.3l6.26-7.79H85.49v-1.58h8.6v1.26L87.83,528Z"/><path class="cls-2" d="M100.89,515.85a1.18,1.18,0,1,1,2.36,0,1.18,1.18,0,1,1-2.36,0Zm.22,3.08H103v10.61h-1.92Z"/><path class="cls-2" d="M106.51,514.69h1.92v14.85h-1.92Z"/><path class="cls-2" d="M121.49,524.23a5.19,5.19,0,0,1-5.32,5.41,5.11,5.11,0,0,1-5.24-5.47c0-.16,0-.4,0-.58h8.6a3.59,3.59,0,0,0-3.84-3.1,4,4,0,0,0-3.06,1.28l-1.06-1.24a5.32,5.32,0,0,1,4.18-1.72C119.21,518.81,121.49,521.07,121.49,524.23Zm-1.92.75h-6.8a3.42,3.42,0,0,0,6.8,0Z"/><path class="cls-2" d="M128.23,515.85a1.18,1.18,0,1,1,2.36,0,1.18,1.18,0,1,1-2.36,0Zm.22,3.08h1.92v10.61h-1.92Z"/><path class="cls-2" d="M137.47,529.64l-.24.9c1.16.12,1.74.78,1.74,1.66,0,1.12-1,1.82-2.48,1.82a3.36,3.36,0,0,1-1.78-.44l.42-1a2.64,2.64,0,0,0,1.36.34c.76,0,1.12-.3,1.12-.8s-.34-.78-1.14-.78h-.54l.44-1.72a7.17,7.17,0,0,1-3.86-1.22l.8-1.53A6.73,6.73,0,0,0,137,528c1.78,0,2.52-.54,2.52-1.44,0-2.39-6.7-.33-6.7-4.55,0-1.9,1.7-3.18,4.42-3.18a7.71,7.71,0,0,1,3.86,1l-.82,1.52a5.54,5.54,0,0,0-3.06-.84c-1.68,0-2.5.62-2.5,1.46,0,2.5,6.72.46,6.72,4.59C141.47,528.3,140,529.48,137.47,529.64Z"/><path class="cls-2" d="M165.78,523.43v6.11h-1.92v-5.89c0-2.08-1-3.1-2.74-3.1-1.92,0-3.18,1.22-3.18,3.52v5.47H156v-5.89c0-2.08-1-3.1-2.74-3.1-1.92,0-3.18,1.22-3.18,3.52v5.47h-1.92V518.93H150v1.58a4.3,4.3,0,0,1,3.66-1.68,3.92,3.92,0,0,1,3.68,2,4.78,4.78,0,0,1,4.08-2C164,518.83,165.78,520.31,165.78,523.43Z"/><path class="cls-2" d="M179,518.93v10.61h-1.82v-1.6a4.31,4.31,0,0,1-3.6,1.72c-2.74,0-4.56-1.5-4.56-4.63v-6.1H171v5.88c0,2.08,1,3.13,2.86,3.13,2,0,3.28-1.25,3.28-3.53v-5.48Zm-7.86-2.9a1,1,0,1,1,2,0,1,1,0,0,1-2,0Zm3.72,0a1,1,0,1,1,2,0,1,1,0,0,1-2,0Z"/><path class="cls-2" d="M188.19,518.83v1.86a3.39,3.39,0,0,0-.44,0c-2.06,0-3.34,1.26-3.34,3.58v5.29h-1.92V518.93h1.84v1.78C185,519.47,186.33,518.83,188.19,518.83Z"/><path class="cls-2" d="M198.75,523.13v6.41h-1.82v-1.4a3.93,3.93,0,0,1-3.48,1.52c-2.4,0-3.92-1.28-3.92-3.13,0-1.7,1.1-3.1,4.26-3.1h3v-.38c0-1.62-.94-2.56-2.84-2.56a5.36,5.36,0,0,0-3.36,1.14l-.8-1.44a7.06,7.06,0,0,1,4.38-1.36C197.11,518.83,198.75,520.23,198.75,523.13Zm-1.92,3.17v-1.49h-3c-1.9,0-2.44.75-2.44,1.64,0,1.07.88,1.73,2.34,1.73A3.07,3.07,0,0,0,196.83,526.3Z"/><path class="cls-2" d="M201.21,524.23a5.3,5.3,0,0,1,5.6-5.4,4.73,4.73,0,0,1,4.32,2.26l-1.46.94a3.3,3.3,0,0,0-2.88-1.52,3.74,3.74,0,0,0,0,7.47,3.29,3.29,0,0,0,2.88-1.53l1.46.93a4.74,4.74,0,0,1-4.32,2.28A5.32,5.32,0,0,1,201.21,524.23Z"/><path class="cls-2" d="M213.21,515.85a1.16,1.16,0,0,1,1.17-1.18,1.18,1.18,0,0,1,1.19,1.18,1.17,1.17,0,0,1-1.19,1.18A1.15,1.15,0,0,1,213.21,515.85Zm.21,3.08h1.93v10.61h-1.93Z"/><path class="cls-2" d="M228.41,524.23a5.2,5.2,0,0,1-5.33,5.41,5.11,5.11,0,0,1-5.24-5.47c0-.16,0-.4,0-.58h8.61a3.6,3.6,0,0,0-3.85-3.1,4,4,0,0,0-3.06,1.28l-1.06-1.24a5.32,5.32,0,0,1,4.18-1.72C226.12,518.81,228.41,521.07,228.41,524.23Zm-1.92.75h-6.81a3.43,3.43,0,0,0,6.81,0Z"/><path class="cls-2" d="M236.84,528.92a3.62,3.62,0,0,1-2.32.74,3,3,0,0,1-3.36-3.32v-5.83h-1.8v-1.58h1.8v-2.32h1.92v2.32h3v1.58h-3v5.75a1.57,1.57,0,0,0,1.66,1.78,2.48,2.48,0,0,0,1.5-.5Z"/><path class="cls-2" d="M239,514.69h1.92v14.85H239Z"/><path class="cls-2" d="M254,524.23a5.19,5.19,0,0,1-5.32,5.41,5.11,5.11,0,0,1-5.24-5.47c0-.16,0-.4,0-.58H252a3.59,3.59,0,0,0-3.84-3.1,4,4,0,0,0-3.06,1.28l-1.06-1.24a5.32,5.32,0,0,1,4.18-1.72C251.68,518.81,254,521.07,254,524.23ZM252,525h-6.8a3.42,3.42,0,0,0,6.8,0Z"/><path class="cls-2" d="M262.14,518.83v1.86a3.39,3.39,0,0,0-.44,0c-2.06,0-3.34,1.26-3.34,3.58v5.29h-1.92V518.93h1.84v1.78C259,519.47,260.28,518.83,262.14,518.83Z"/><path class="cls-2" d="M264.09,515.85a1.18,1.18,0,1,1,2.36,0,1.18,1.18,0,1,1-2.36,0Zm.22,3.08h1.92v10.61h-1.92Z"/><path class="cls-2" d="M279.77,523.43v6.11h-1.92v-5.89c0-2.08-1-3.1-2.86-3.1-2,0-3.36,1.22-3.36,3.52v5.47h-1.92V518.93h1.84v1.6a4.54,4.54,0,0,1,3.82-1.7C278,518.83,279.77,520.31,279.77,523.43Z"/><path class="cls-2" d="M293.21,514.69v14.85h-1.84v-1.69a4.46,4.46,0,0,1-3.78,1.81,5.42,5.42,0,0,1,0-10.83,4.51,4.51,0,0,1,3.7,1.7v-5.84Zm-1.9,9.54a3.57,3.57,0,1,0-3.56,3.75A3.49,3.49,0,0,0,291.31,524.23Z"/><path class="cls-2" d="M306.25,524.23a5.19,5.19,0,0,1-5.32,5.41,5.11,5.11,0,0,1-5.24-5.47c0-.16,0-.4,0-.58h8.6a3.59,3.59,0,0,0-3.84-3.1,4,4,0,0,0-3.06,1.28l-1.06-1.24a5.32,5.32,0,0,1,4.18-1.72C304,518.81,306.25,521.07,306.25,524.23Zm-1.92.75h-6.8a3.42,3.42,0,0,0,6.8,0Z"/><path class="cls-2" d="M323.09,518.93v10.61h-1.82v-1.6a4.31,4.31,0,0,1-3.6,1.72c-2.74,0-4.56-1.5-4.56-4.63v-6.1H315v5.88c0,2.08,1,3.13,2.86,3.13,2,0,3.28-1.25,3.28-3.53v-5.48Zm-7.86-2.9a1,1,0,1,1,2,0,1,1,0,0,1-2,0Zm3.72,0a1,1,0,1,1,2,0,1,1,0,1,1-2,0Z"/><path class="cls-2" d="M325.23,528.42l.8-1.53a6.73,6.73,0,0,0,3.72,1.11c1.78,0,2.52-.54,2.52-1.44,0-2.39-6.7-.33-6.7-4.55,0-1.9,1.7-3.18,4.42-3.18a7.71,7.71,0,0,1,3.86,1l-.82,1.52a5.54,5.54,0,0,0-3.06-.84c-1.68,0-2.5.62-2.5,1.46,0,2.5,6.72.46,6.72,4.59,0,1.92-1.76,3.14-4.58,3.14A7.65,7.65,0,0,1,325.23,528.42Z"/><path class="cls-2" d="M342.37,528.92a3.62,3.62,0,0,1-2.32.74,3,3,0,0,1-3.36-3.32v-5.83h-1.8v-1.58h1.8v-2.32h1.92v2.32h3v1.58h-3v5.75a1.57,1.57,0,0,0,1.66,1.78,2.48,2.48,0,0,0,1.5-.5Z"/><path class="cls-2" d="M354.39,518.93v10.61h-1.82v-1.6a4.31,4.31,0,0,1-3.6,1.72c-2.74,0-4.56-1.5-4.56-4.63v-6.1h1.92v5.88c0,2.08,1,3.13,2.86,3.13,2,0,3.28-1.25,3.28-3.53v-5.48Zm-7.86-2.9a1,1,0,1,1,2,0,1,1,0,1,1-2,0Zm3.72,0a1,1,0,1,1,2,0,1,1,0,1,1-2,0Z"/><path class="cls-2" d="M367.93,523.43v6.11H366v-5.89c0-2.08-1-3.1-2.86-3.1-2,0-3.36,1.22-3.36,3.52v5.47h-1.92V518.93h1.84v1.6a4.54,4.54,0,0,1,3.82-1.7C366.11,518.83,367.93,520.31,367.93,523.43Z"/><path class="cls-2" d="M371.3,514.69h1.92v14.85H371.3Z"/><path class="cls-2" d="M386.58,518.93v10.61h-1.82v-1.6a4.31,4.31,0,0,1-3.6,1.72c-2.74,0-4.56-1.5-4.56-4.63v-6.1h1.92v5.88c0,2.08,1,3.13,2.86,3.13,2,0,3.28-1.25,3.28-3.53v-5.48Zm-7.86-2.9a1,1,0,1,1,2,0,1,1,0,0,1-2,0Zm3.72,0a1,1,0,1,1,2,0,1,1,0,1,1-2,0Z"/><path class="cls-2" d="M389.38,523.21h5.38v1.66h-5.38Z"/><path class="cls-2" d="M56.14,542.93,51,554.6c-.94,2.24-2.16,2.94-3.78,2.94a4,4,0,0,1-2.72-1l.82-1.44a2.71,2.71,0,0,0,1.9.78c.92,0,1.5-.42,2-1.64l.34-.74L44.9,542.93h2l3.7,8.49,3.66-8.49Z"/><path class="cls-2" d="M67.82,542.93v10.61H66v-1.6a4.31,4.31,0,0,1-3.6,1.72c-2.74,0-4.56-1.5-4.56-4.63v-6.1h1.92v5.88c0,2.08,1,3.13,2.86,3.13,2,0,3.28-1.25,3.28-3.53v-5.48ZM60,540a1,1,0,1,1,2,0,1,1,0,0,1-2,0Zm3.72,0a1,1,0,1,1,2,0,1,1,0,1,1-2,0Z"/><path class="cls-2" d="M81.54,547.43v6.11H79.62v-5.89c0-2.08-1-3.1-2.86-3.1-2,0-3.36,1.22-3.36,3.52v5.47H71.48V542.93h1.84v1.6a4.54,4.54,0,0,1,3.82-1.7C79.72,542.83,81.54,544.31,81.54,547.43Z"/><path class="cls-2" d="M95,542.93v10.61H93.16v-1.6a4.31,4.31,0,0,1-3.6,1.72c-2.74,0-4.56-1.5-4.56-4.63v-6.1h1.92v5.88c0,2.08,1,3.13,2.86,3.13,2,0,3.28-1.25,3.28-3.53v-5.48ZM87.12,540a1,1,0,1,1,2,0,1,1,0,0,1-2,0Zm3.72,0a1,1,0,1,1,2,0,1,1,0,0,1-2,0Z"/><path class="cls-2" d="M106.5,552v1.58H97.62V552.3l6.26-7.79H97.74v-1.58h8.6v1.26L100.08,552Z"/><path class="cls-2" d="M118.94,542.93v10.61h-1.82v-1.6a4.31,4.31,0,0,1-3.6,1.72c-2.74,0-4.56-1.5-4.56-4.63v-6.1h1.92v5.88c0,2.08,1,3.13,2.86,3.13,2,0,3.28-1.25,3.28-3.53v-5.48Zm-7.86-2.9a1,1,0,1,1,2,0,1,1,0,0,1-2,0Zm3.72,0a1,1,0,1,1,2,0,1,1,0,0,1-2,0Z"/><path class="cls-2" d="M127,548.23a5.51,5.51,0,1,1,5.52,5.43A5.27,5.27,0,0,1,127,548.23Zm9.08,0a3.57,3.57,0,1,0-7.14,0,3.57,3.57,0,1,0,7.14,0Z"/><path class="cls-2" d="M146.38,542.83v1.86a3.39,3.39,0,0,0-.44,0c-2.06,0-3.34,1.26-3.34,3.58v5.29h-1.92V542.93h1.84v1.78C143.2,543.47,144.52,542.83,146.38,542.83Z"/><path class="cls-2" d="M155.14,552.92a3.62,3.62,0,0,1-2.32.74,3,3,0,0,1-3.36-3.32v-5.83h-1.8v-1.58h1.8v-2.32h1.92v2.32h3v1.58h-3v5.75A1.57,1.57,0,0,0,153,552a2.48,2.48,0,0,0,1.5-.5Z"/><path class="cls-2" d="M165.86,547.13v6.41H164v-1.4a3.93,3.93,0,0,1-3.48,1.52c-2.4,0-3.92-1.28-3.92-3.13,0-1.7,1.1-3.1,4.26-3.1h3v-.38c0-1.62-.94-2.56-2.84-2.56a5.36,5.36,0,0,0-3.36,1.14l-.8-1.44a7.06,7.06,0,0,1,4.38-1.36C164.22,542.83,165.86,544.23,165.86,547.13Zm-1.92,3.17v-1.49h-3c-1.9,0-2.44.75-2.44,1.64,0,1.07.88,1.73,2.34,1.73A3.07,3.07,0,0,0,163.94,550.3Z"/><path class="cls-2" d="M178.6,542.93l-5.14,11.67c-.94,2.24-2.16,2.94-3.78,2.94a4,4,0,0,1-2.72-1l.82-1.44a2.71,2.71,0,0,0,1.9.78c.92,0,1.5-.42,2-1.64l.34-.74-4.68-10.59h2l3.7,8.49,3.66-8.49Z"/><path class="cls-2" d="M188.46,547.13v6.41h-1.82v-1.4a3.93,3.93,0,0,1-3.48,1.52c-2.4,0-3.92-1.28-3.92-3.13,0-1.7,1.1-3.1,4.26-3.1h3v-.38c0-1.62-.94-2.56-2.84-2.56a5.36,5.36,0,0,0-3.36,1.14l-.8-1.44a7.06,7.06,0,0,1,4.38-1.36C186.82,542.83,188.46,544.23,188.46,547.13Zm-1.92,3.17v-1.49h-3c-1.9,0-2.44.75-2.44,1.64,0,1.07.88,1.73,2.34,1.73A3.07,3.07,0,0,0,186.54,550.3Z"/><path class="cls-2" d="M204.88,550.45l1.46.93a4.7,4.7,0,0,1-4.28,2.28l-.24.88c1.16.12,1.74.78,1.74,1.66,0,1.12-1,1.82-2.48,1.82a3.36,3.36,0,0,1-1.78-.44l.42-1a2.64,2.64,0,0,0,1.36.34c.76,0,1.12-.3,1.12-.8s-.34-.78-1.14-.78h-.54l.46-1.78a5.41,5.41,0,0,1,1-10.75,4.73,4.73,0,0,1,4.32,2.26l-1.46.94a3.3,3.3,0,0,0-2.88-1.52,3.74,3.74,0,0,0,0,7.47A3.29,3.29,0,0,0,204.88,550.45Z"/><path class="cls-2" d="M208.82,542.93h1.92v10.61h-1.92Z"/><path class="cls-2" d="M221.16,553.54l-3.06-4.06-3.1,4.06h-2.14l4.18-5.43-4-5.18h2.14l2.92,3.82,2.9-3.82h2.1l-4,5.18,4.22,5.43Z"/><path class="cls-2" d="M233.64,547.13v6.41h-1.82v-1.4a3.93,3.93,0,0,1-3.48,1.52c-2.4,0-3.92-1.28-3.92-3.13,0-1.7,1.1-3.1,4.26-3.1h3v-.38c0-1.62-.94-2.56-2.84-2.56a5.36,5.36,0,0,0-3.36,1.14l-.8-1.44a7.06,7.06,0,0,1,4.38-1.36C232,542.83,233.64,544.23,233.64,547.13Zm-1.92,3.17v-1.49h-3c-1.9,0-2.44.75-2.44,1.64,0,1.07.88,1.73,2.34,1.73A3.07,3.07,0,0,0,231.72,550.3Z"/><path class="cls-2" d="M242.9,542.83v1.86a3.39,3.39,0,0,0-.44,0c-2.06,0-3.34,1.26-3.34,3.58v5.29H237.2V542.93H239v1.78C239.72,543.47,241,542.83,242.9,542.83Z"/><path class="cls-2" d="M255.16,538.69v14.85h-1.84v-1.69a4.46,4.46,0,0,1-3.78,1.81,5.42,5.42,0,0,1,0-10.83,4.51,4.51,0,0,1,3.7,1.7v-5.84Zm-1.9,9.54A3.57,3.57,0,1,0,249.7,552,3.49,3.49,0,0,0,253.26,548.23Z"/><path class="cls-2" d="M267.2,547.13v6.41h-1.82v-1.4a3.93,3.93,0,0,1-3.48,1.52c-2.4,0-3.92-1.28-3.92-3.13,0-1.7,1.1-3.1,4.26-3.1h3v-.38c0-1.62-.94-2.56-2.84-2.56a5.36,5.36,0,0,0-3.36,1.14l-.8-1.44a7.06,7.06,0,0,1,4.38-1.36C265.56,542.83,267.2,544.23,267.2,547.13Zm-1.92,3.17v-1.49h-3c-1.9,0-2.44.75-2.44,1.64,0,1.07.88,1.73,2.34,1.73A3.07,3.07,0,0,0,265.28,550.3Z"/><path class="cls-2" d="M287.12,548.23a5.16,5.16,0,0,1-5.36,5.43,4.46,4.46,0,0,1-3.78-1.81v1.69h-1.84V538.69h1.92v5.84a4.51,4.51,0,0,1,3.7-1.7A5.14,5.14,0,0,1,287.12,548.23Zm-1.94,0A3.57,3.57,0,1,0,281.6,552,3.49,3.49,0,0,0,285.18,548.23Z"/><path class="cls-2" d="M289.56,539.85a1.18,1.18,0,1,1,2.36,0,1.18,1.18,0,1,1-2.36,0Zm.22,3.08h1.92v10.61h-1.92Z"/><path class="cls-2" d="M295.36,538.69h1.92v14.85h-1.92Z"/><path class="cls-2" d="M310.52,548.23a5.19,5.19,0,0,1-5.32,5.41,5.11,5.11,0,0,1-5.24-5.47c0-.16,0-.4,0-.58h8.6a3.59,3.59,0,0,0-3.84-3.1,4,4,0,0,0-3.06,1.28l-1.06-1.24a5.32,5.32,0,0,1,4.18-1.72C308.24,542.81,310.52,545.07,310.52,548.23Zm-1.92.75h-6.8a3.42,3.42,0,0,0,6.8,0Z"/><path class="cls-2" d="M318.88,542.83v1.86a3.39,3.39,0,0,0-.44,0c-2.06,0-3.34,1.26-3.34,3.58v5.29h-1.92V542.93H315v1.78C315.7,543.47,317,542.83,318.88,542.83Z"/><path class="cls-2" d="M320,552.42l.8-1.53A6.73,6.73,0,0,0,324.5,552c1.78,0,2.52-.54,2.52-1.44,0-2.39-6.7-.33-6.7-4.55,0-1.9,1.7-3.18,4.42-3.18a7.71,7.71,0,0,1,3.86,1l-.82,1.52a5.54,5.54,0,0,0-3.06-.84c-1.68,0-2.5.62-2.5,1.46,0,2.5,6.72.46,6.72,4.59,0,1.92-1.76,3.14-4.58,3.14A7.65,7.65,0,0,1,320,552.42Z"/><path class="cls-2" d="M331.12,539.85a1.18,1.18,0,1,1,2.36,0,1.18,1.18,0,1,1-2.36,0Zm.22,3.08h1.92v10.61h-1.92Z"/><path class="cls-2" d="M347,547.43v6.11h-1.92v-5.89c0-2.08-1-3.1-2.86-3.1-2,0-3.36,1.22-3.36,3.52v5.47h-1.92V542.93h1.84v1.6a4.54,4.54,0,0,1,3.82-1.7C345.16,542.83,347,544.31,347,547.43Z"/><path class="cls-2" d="M350.32,539.85a1.18,1.18,0,1,1,2.36,0,1.18,1.18,0,1,1-2.36,0Zm.22,3.08h1.92v10.61h-1.92Z"/><path class="cls-2" d="M364,552v1.58H355.1V552.3l6.26-7.79h-6.14v-1.58h8.6v1.26L357.56,552Z"/><path class="cls-2" d="M365.7,552.27a1.33,1.33,0,0,1,1.36-1.35,1.31,1.31,0,0,1,1.32,1.35,1.34,1.34,0,0,1-1.32,1.39A1.36,1.36,0,0,1,365.7,552.27Z"/><path class="cls-3" d="M778.07,549.25c.34.23,1.16-.53,1.1.55,0,.63,0,1.27,0,1.91v363.6c-.6.18-1.21.36-1.82.52L703.4,934.74l-171.81,44q-85.91,22-171.8,44-89.21,22.82-178.39,45.66c-8.92,2.29-17.93,4.29-26.73,7.06q-76.21,0-152.43,0c-1.87,0-2.24-.37-2.24-2.24Q.09,910.94.05,748.67l85.26-21.84,174-44.51,174.21-44.58,167.37-42.86q77.37-19.82,154.74-39.64C763.1,553.31,770.71,551.75,778.07,549.25Z"/><path class="cls-3" d="M1080.48,836.11V998.66c-.61.17-1.21.36-1.82.52l-88.2,22.59q-89.38,22.88-178.77,45.74c-8.85,2.27-17.67,4.67-26.51,7-4.6,0-9.2-.08-13.79,0-1.56,0-2-.23-2-1.91.08-16.68.05-33.36.05-50V915.22a5.6,5.6,0,0,0,2.62-.37q57.39-14.73,114.79-29.4,85.3-21.83,170.62-43.65C1065.14,839.85,1072.72,837.6,1080.48,836.11Z"/><path class="cls-20" d="M850.47,1031.16a20.26,20.26,0,1,1,20.26-20.26A20.28,20.28,0,0,1,850.47,1031.16Zm0-39a18.72,18.72,0,1,0,18.72,18.72A18.74,18.74,0,0,0,850.47,992.18Z"/><path class="cls-21" d="M861.16,1010.36a10.5,10.5,0,0,0-21-.19c0,.15,0,.3,0,.45a10.36,10.36,0,0,0,1.5,5.38l-1.89,5.59,5.81-1.85a10.51,10.51,0,0,0,15.57-9.12Zm-10.49,9a8.79,8.79,0,0,1-4.86-1.45l-3.39,1.08,1.1-3.25a8.66,8.66,0,0,1-1.68-5.14,8.06,8.06,0,0,1,0-.85,8.83,8.83,0,0,1,17.58.17c0,.23,0,.45,0,.68A8.8,8.8,0,0,1,850.67,1019.38Z"/><path class="cls-21" d="M855.48,1012.73c-.26-.13-1.53-.75-1.76-.83s-.41-.13-.58.12-.67.83-.82,1-.3.19-.56.06a6.94,6.94,0,0,1-2.07-1.26,7.79,7.79,0,0,1-1.43-1.77c-.14-.25,0-.39.12-.52s.25-.3.38-.45l.1-.12a2.72,2.72,0,0,0,.16-.3.47.47,0,0,0,0-.45c-.06-.13-.58-1.39-.8-1.9s-.42-.42-.58-.42l-.49,0a1,1,0,0,0-.69.31,2.91,2.91,0,0,0-.89,2.14,3.22,3.22,0,0,0,.13.87,5.77,5.77,0,0,0,.92,1.77,10.53,10.53,0,0,0,4.39,3.85c2.62,1,2.62.68,3.09.64a2.61,2.61,0,0,0,1.74-1.22A2.19,2.19,0,0,0,856,1013,1.4,1.4,0,0,0,855.48,1012.73Z"/><rect class="cls-20" x="898.46" y="1006.28" width="4.03" height="13.03"/><path class="cls-20" d="M900.45,1004.57a2.41,2.41,0,1,0-2.38-2.4A2.4,2.4,0,0,0,900.45,1004.57Z"/><path class="cls-20" d="M908.94,1012.47c0-1.83.84-2.92,2.46-2.92s2.19,1,2.19,2.92v6.84h4v-8.25c0-3.49-2-5.18-4.75-5.18a4.53,4.53,0,0,0-3.92,2.15v-1.75h-3.87v13h3.87Z"/><path class="cls-20" d="M907.84,1031.16a20.26,20.26,0,1,1,20.26-20.26A20.28,20.28,0,0,1,907.84,1031.16Zm0-39a18.72,18.72,0,1,0,18.72,18.72A18.74,18.74,0,0,0,907.84,992.18Z"/><path class="cls-20" d="M962.23,1022.48H967V1010.6h3.31l.35-4H967v-2.26c0-.94.19-1.31,1.09-1.31h2.57v-4.13h-3.28c-3.54,0-5.13,1.56-5.13,4.53v3.17h-2.47v4h2.47Z"/><path class="cls-20" d="M965.2,1031.16a20.26,20.26,0,1,1,20.26-20.26A20.28,20.28,0,0,1,965.2,1031.16Zm0-39a18.72,18.72,0,1,0,18.73,18.72A18.74,18.74,0,0,0,965.2,992.18Z"/><path class="cls-20" d="M1022.27,1001.37c2.85,0,3.19,0,4.32.06a5.81,5.81,0,0,1,2,.37,3.54,3.54,0,0,1,2,2,5.81,5.81,0,0,1,.37,2c0,1.13.06,1.47.06,4.32s0,3.19-.06,4.32a5.81,5.81,0,0,1-.37,2,3.54,3.54,0,0,1-2,2,5.81,5.81,0,0,1-2,.37c-1.13,0-1.46.06-4.32.06s-3.19,0-4.32-.06a5.87,5.87,0,0,1-2-.37,3.16,3.16,0,0,1-1.23-.8,3.28,3.28,0,0,1-.8-1.23,5.81,5.81,0,0,1-.37-2c-.05-1.13-.06-1.47-.06-4.32s0-3.19.06-4.32a5.81,5.81,0,0,1,.37-2,3.28,3.28,0,0,1,.8-1.23,3.16,3.16,0,0,1,1.23-.8,5.87,5.87,0,0,1,2-.37c1.13,0,1.47-.06,4.32-.06m0-1.93c-2.9,0-3.27,0-4.41.07a7.94,7.94,0,0,0-2.59.49,5.25,5.25,0,0,0-1.89,1.24,5.09,5.09,0,0,0-1.23,1.89,7.66,7.66,0,0,0-.5,2.59c0,1.14-.07,1.51-.07,4.41s0,3.27.07,4.41a7.66,7.66,0,0,0,.5,2.59,5.09,5.09,0,0,0,1.23,1.89,5.25,5.25,0,0,0,1.89,1.24,7.94,7.94,0,0,0,2.59.49c1.14,0,1.51.07,4.41.07s3.27,0,4.41-.07a7.88,7.88,0,0,0,2.59-.49,5.56,5.56,0,0,0,3.13-3.13,7.94,7.94,0,0,0,.49-2.59c.06-1.14.07-1.51.07-4.41s0-3.27-.07-4.41a7.94,7.94,0,0,0-.49-2.59,5.56,5.56,0,0,0-3.13-3.13,7.88,7.88,0,0,0-2.59-.49c-1.14,0-1.51-.07-4.41-.07"/><path class="cls-20" d="M1022.27,1004.64a5.49,5.49,0,1,0,5.49,5.49,5.49,5.49,0,0,0-5.49-5.49m0,9.05a3.56,3.56,0,1,1,3.56-3.56,3.56,3.56,0,0,1-3.56,3.56"/><path class="cls-20" d="M1029.26,1004.43a1.29,1.29,0,1,1-1.28-1.29,1.29,1.29,0,0,1,1.28,1.29"/><path class="cls-20" d="M1022.27,1031.16a20.26,20.26,0,1,1,20.26-20.26A20.28,20.28,0,0,1,1022.27,1031.16Zm0-39A18.72,18.72,0,1,0,1041,1010.9,18.74,18.74,0,0,0,1022.27,992.18Z"/><text class="cls-22" transform="translate(97.98 992.74)">CV <tspan class="cls-23" x="0" y="36.66">H</tspan><tspan x="22.18" y="36.66">AZI</tspan><tspan class="cls-24" x="71.93" y="36.66">R</tspan><tspan class="cls-25" x="91.89" y="36.66">L</tspan><tspan x="109.57" y="36.66">A</tspan><tspan class="cls-23" x="130.9" y="36.66">M</tspan><tspan class="cls-26" x="157.58" y="36.66">A</tspan></text><path class="cls-20" d="M71.65,968.49l-4.42,5.72H45.3a3.1,3.1,0,0,0-3.11,3.1v43.87a3.1,3.1,0,0,0,3.11,3.1H68.88L71,1030H36.47V968.49Z"/><path class="cls-20" d="M71.5,1030,53.57,982.5,60,985.33l10.14,26.89a1.43,1.43,0,0,0,2.68,0l10.07-26.89,6.42-2.83Z"/><polygon class="cls-20" points="70.07 985.33 72.72 985.33 74.14 1001.76 71.77 1005.07 69.06 1001.81 70.07 985.33"/><polygon class="cls-20" points="71.41 981.91 69.66 983.74 70.11 985.06 72.72 985.06 73.16 983.71 71.41 981.91"/><polygon class="cls-20" points="71.65 981.73 77.42 980.42 74.89 985.33 71.65 981.73"/><polygon class="cls-20" points="71.15 981.73 65.38 980.42 67.92 985.33 71.15 981.73"/><rect class="cls-27" x="415.92" y="68.08" width="632.78" height="894.93"/><rect class="cls-3" x="415.92" y="68.08" width="82.3" height="548.29"/><rect class="cls-3" x="1006.83" y="307.79" width="41.86" height="655.22"/><rect class="cls-28" x="461.37" y="468.6" width="36.85" height="126.42"/><rect class="cls-29" x="415.92" y="614.78" width="16.16" height="350.21"/><rect class="cls-29" x="786.85" y="657.16" width="245.29" height="305.85"/><path class="cls-20" d="M474.45,491.91l0,0c.24-.21.46-.43.67-.65l.08-.08c.12-.13.24-.25.37-.37a1.25,1.25,0,0,1,1.9,0l2,1.95a1.26,1.26,0,0,1,.43.92,1.32,1.32,0,0,1-.43.94l-1.22,1.22a.23.23,0,0,0-.07.14.2.2,0,0,0,0,.08v0l.21.38a3.72,3.72,0,0,0,.21.39,12.21,12.21,0,0,0,2.74,3h0a7.53,7.53,0,0,0,1.71,1.05h0c.13,0,.15,0,.24,0h0c.27-.31.54-.58.87-.9l.21-.22.1-.09a1.23,1.23,0,0,1,1.9,0l1,1,.18.18.17.16c.24.24.45.44.65.66h0a1.3,1.3,0,0,1,.41.92,1.41,1.41,0,0,1-.4.93h0l-1.21,1.21a2.2,2.2,0,0,1-1.4.66,5.58,5.58,0,0,1-2.47-.43,15.08,15.08,0,0,1-4.42-2.66,16.37,16.37,0,0,1-4.25-5.44,8,8,0,0,1-.89-3v-.2A2.28,2.28,0,0,1,474.45,491.91Z"/><text class="cls-31" transform="translate(509.95 501.52)">T<tspan class="cls-32" x="6.23" y="0">el</tspan><tspan class="cls-33" x="16.74" y="0">ef</tspan><tspan class="cls-34" x="27.87" y="0" xml:space="preserve">on:   </tspan><tspan class="cls-35" x="56.57" y="0">+9</tspan><tspan class="cls-36" x="71.03" y="0">9</tspan><tspan class="cls-35" x="78.06" y="0">4xx xxx xx xx</tspan></text><path class="cls-20" d="M489.29,527.92a49991620378.62,49991620378.62,0,0,1,0-.12.43.43,0,0,0,0,0l0-.06a.17.17,0,0,0,0-.05l0,0,0,0h0l0,0,0,0-.05,0-.05,0-.06,0h-.05l-.06,0H474.05l-.06,0h-.05l-.06,0-.05,0-.05,0,0,0-.05,0h0l0,0,0,0a.17.17,0,0,0,0,.05l0,.06a.43.43,0,0,0,0,0s0,0,0,.06v10.51a.6.6,0,0,0,.6.6H488.7a.59.59,0,0,0,.59-.6V527.92Zm-2.22.63-5.66,4.82-5.65-4.82Zm-6,6.06a.56.56,0,0,0,.38.14.57.57,0,0,0,.39-.14"/><text class="cls-37" transform="translate(509.95 536.39)">Elekt<tspan class="cls-38" x="29.34" y="0">r</tspan><tspan class="cls-39" x="33.9" y="0" xml:space="preserve">on poçt:  </tspan><tspan class="cls-40" x="89.02" y="0">cvhazirlama@gmai</tspan><tspan class="cls-41" x="197.71" y="0">l</tspan><tspan class="cls-42" x="200.59" y="0">.</tspan><tspan class="cls-40" x="203.31" y="0">com</tspan></text><path class="cls-20" d="M480.37,558.16a7.55,7.55,0,1,0,7.53,7.54A7.54,7.54,0,0,0,480.37,558.16Zm6.36,7h-1.81a9.93,9.93,0,0,0-1.47-5A6.39,6.39,0,0,1,486.73,565.13Zm-6.93-5.73v5.73H477C477.11,562.27,478.3,559.89,479.8,559.4Zm0,6.88V572c-1.5-.5-2.69-2.88-2.83-5.73Zm1.14,5.73v-5.73h2.83C483.63,569.13,482.43,571.51,480.94,572Zm0-6.88V559.4c1.49.49,2.69,2.87,2.83,5.73Zm-3.65-5a9.93,9.93,0,0,0-1.47,5H474A6.39,6.39,0,0,1,477.29,560.1ZM474,566.28h1.81a10,10,0,0,0,1.47,5A6.4,6.4,0,0,1,474,566.28Zm9.44,5a10,10,0,0,0,1.47-5h1.81A6.4,6.4,0,0,1,483.45,571.31Z"/><text class="cls-37" transform="translate(511.13 569.18)">Ü<tspan class="cls-43" x="8.88" y="0">n</tspan><tspan class="cls-44" x="16.04" y="0">v</tspan><tspan x="22.37" y="0" xml:space="preserve">an:   </tspan><tspan class="cls-40" x="51.2" y="0">Bakı </tspan><tspan class="cls-45" x="79.41" y="0">ş</tspan><tspan class="cls-40" x="84.83" y="0">əhəri, A</tspan><tspan class="cls-46" x="127.46" y="0">z</tspan><tspan class="cls-40" x="132.96" y="0">ərba</tspan><tspan class="cls-47" x="159.15" y="0">y</tspan><tspan class="cls-40" x="165.37" y="0">can</tspan></text><text class="cls-48" transform="translate(455.79 658.57)">İŞ <tspan class="cls-49" x="21.12" y="0">T</tspan><tspan class="cls-50" x="31.26" y="0">ƏC</tspan><tspan class="cls-51" x="57.64" y="0">R</tspan><tspan class="cls-50" x="69.28" y="0">Ü</tspan><tspan class="cls-52" x="82.18" y="0">B</tspan><tspan x="93.73" y="0">ƏSİ</tspan></text><line class="cls-53" x1="460.96" y1="682.64" x2="460.96" y2="915.55"/><circle class="cls-3" cx="460.96" cy="692.67" r="5.17"/><circle class="cls-3" cx="460.96" cy="822.85" r="5.17"/><line class="cls-53" x1="460.96" y1="803.08" x2="765.73" y2="803.08"/><line class="cls-53" x1="460.96" y1="915.55" x2="765.73" y2="915.55"/><text class="cls-54" transform="translate(489.05 707.31)">A<tspan class="cls-55" x="9.54" y="0">r</tspan><tspan x="14.81" y="0">az Ma</tspan><tspan class="cls-56" x="52.35" y="0">r</tspan><tspan class="cls-57" x="57.66" y="0">k</tspan><tspan x="65.59" y="0">et</tspan><tspan class="cls-58" x="0" y="15.84">K</tspan><tspan x="9.06" y="15.84">assir</tspan></text><text class="cls-59" transform="translate(490.25 738.17)">- Malın d<tspan class="cls-60" x="39.33" y="0">əy</tspan><tspan x="49.43" y="0">ə</tspan><tspan class="cls-61" x="54.9" y="0">r</tspan><tspan x="58.46" y="0">inin </tspan><tspan class="cls-62" x="77.96" y="0">h</tspan><tspan x="84.11" y="0">esablanması </tspan><tspan class="cls-60" x="143.57" y="0">v</tspan><tspan x="148.34" y="0">ə </tspan><tspan class="cls-63" x="156.18" y="0">k</tspan><tspan x="161.53" y="0">assa ə</tspan><tspan class="cls-62" x="188.91" y="0">m</tspan><tspan x="198.53" y="0">əli</tspan><tspan class="cls-64" x="208.87" y="0">y</tspan><tspan class="cls-65" x="213.73" y="0">y</tspan><tspan x="218.5" y="0">atının </tspan><tspan class="cls-60" x="247.01" y="0">y</tspan><tspan x="251.79" y="0">e</tspan><tspan class="cls-66" x="257.25" y="0">r</tspan><tspan x="260.81" y="0">i</tspan><tspan class="cls-67" x="263.25" y="0">n</tspan><tspan x="269.39" y="0">ə </tspan><tspan class="cls-60" x="0" y="11.32">y</tspan><tspan x="4.77" y="11.32">eti</tspan><tspan class="cls-61" x="16.35" y="11.32">r</tspan><tspan x="19.91" y="11.32">il</tspan><tspan class="cls-68" x="24.78" y="11.32">m</tspan><tspan x="34.4" y="11.32">əsi;</tspan><tspan x="0" y="22.63">- </tspan><tspan class="cls-69" x="5.83" y="22.63">K</tspan><tspan x="12.14" y="22.63">assa </tspan><tspan class="cls-68" x="34.05" y="22.63">h</tspan><tspan x="40.2" y="22.63">esa</tspan><tspan class="cls-70" x="55.44" y="22.63">b</tspan><tspan x="61.55" y="22.63">atını </tspan><tspan class="cls-71" x="83.94" y="22.63">t</tspan><tspan x="87.44" y="22.63">ə</tspan><tspan class="cls-72" x="92.91" y="22.63">r</tspan><tspan x="96.67" y="22.63">tib et</tspan><tspan class="cls-67" x="120.44" y="22.63">m</tspan><tspan x="130.06" y="22.63">ək;</tspan><tspan x="0" y="33.95">- Malın alınması zamanı s</tspan><tspan class="cls-73" x="113.99" y="33.95">a</tspan><tspan x="119.24" y="33.95">yının, </tspan><tspan class="cls-74" x="145.57" y="33.95">ç</tspan><tspan x="150.59" y="33.95">eşidinin </tspan><tspan class="cls-60" x="188.56" y="33.95">y</tspan><tspan class="cls-71" x="193.33" y="33.95">o</tspan><tspan x="198.83" y="33.95">xlanılmas</tspan></text><text class="cls-75" transform="translate(489.05 695.26)">05<tspan class="cls-76" x="9.26" y="0">/</tspan><tspan class="cls-77" x="11.64" y="0">0</tspan><tspan x="16.56" y="0">3/</tspan><tspan class="cls-78" x="23.34" y="0">2</tspan><tspan class="cls-79" x="27.59" y="0">0</tspan><tspan x="32.57" y="0">19–</tspan><tspan class="cls-80" x="43.66" y="0">P</tspan><tspan class="cls-81" x="48.9" y="0">r</tspan><tspan x="51.83" y="0">esent</tspan></text><text class="cls-54" transform="translate(489.05 834.9)">A<tspan class="cls-55" x="9.54" y="0">r</tspan><tspan x="14.81" y="0">az Ma</tspan><tspan class="cls-56" x="52.35" y="0">r</tspan><tspan class="cls-57" x="57.66" y="0">k</tspan><tspan x="65.59" y="0">et</tspan><tspan class="cls-58" x="0" y="15.84">K</tspan><tspan x="9.06" y="15.84">assir</tspan></text><text class="cls-59" transform="translate(490.25 865.77)">- Malın d<tspan class="cls-60" x="39.33" y="0">əy</tspan><tspan x="49.43" y="0">ə</tspan><tspan class="cls-61" x="54.9" y="0">r</tspan><tspan x="58.46" y="0">inin </tspan><tspan class="cls-62" x="77.96" y="0">h</tspan><tspan x="84.11" y="0">esablanması </tspan><tspan class="cls-60" x="143.57" y="0">v</tspan><tspan x="148.34" y="0">ə </tspan><tspan class="cls-63" x="156.18" y="0">k</tspan><tspan x="161.53" y="0">assa ə</tspan><tspan class="cls-62" x="188.91" y="0">m</tspan><tspan x="198.53" y="0">əli</tspan><tspan class="cls-64" x="208.87" y="0">y</tspan><tspan class="cls-65" x="213.73" y="0">y</tspan><tspan x="218.5" y="0">atının </tspan><tspan class="cls-60" x="247.01" y="0">y</tspan><tspan x="251.79" y="0">e</tspan><tspan class="cls-66" x="257.25" y="0">r</tspan><tspan x="260.81" y="0">i</tspan><tspan class="cls-67" x="263.25" y="0">n</tspan><tspan x="269.39" y="0">ə </tspan><tspan class="cls-60" x="0" y="11.32">y</tspan><tspan x="4.77" y="11.32">eti</tspan><tspan class="cls-61" x="16.35" y="11.32">r</tspan><tspan x="19.91" y="11.32">il</tspan><tspan class="cls-68" x="24.78" y="11.32">m</tspan><tspan x="34.4" y="11.32">əsi;</tspan><tspan x="0" y="22.63">- </tspan><tspan class="cls-69" x="5.83" y="22.63">K</tspan><tspan x="12.14" y="22.63">assa </tspan><tspan class="cls-68" x="34.05" y="22.63">h</tspan><tspan x="40.2" y="22.63">esa</tspan><tspan class="cls-70" x="55.44" y="22.63">b</tspan><tspan x="61.55" y="22.63">atını </tspan><tspan class="cls-71" x="83.94" y="22.63">t</tspan><tspan x="87.44" y="22.63">ə</tspan><tspan class="cls-72" x="92.91" y="22.63">r</tspan><tspan x="96.67" y="22.63">tib et</tspan><tspan class="cls-67" x="120.44" y="22.63">m</tspan><tspan x="130.06" y="22.63">ək;</tspan><tspan x="0" y="33.95">- Malın alınması zamanı s</tspan><tspan class="cls-73" x="113.99" y="33.95">a</tspan><tspan x="119.24" y="33.95">yının, </tspan><tspan class="cls-74" x="145.57" y="33.95">ç</tspan><tspan x="150.59" y="33.95">eşidinin </tspan><tspan class="cls-60" x="188.56" y="33.95">y</tspan><tspan class="cls-71" x="193.33" y="33.95">o</tspan><tspan x="198.83" y="33.95">xlanılmas</tspan></text><text class="cls-75" transform="translate(489.05 822.85)">05<tspan class="cls-76" x="9.26" y="0">/</tspan><tspan class="cls-77" x="11.64" y="0">0</tspan><tspan x="16.56" y="0">3/</tspan><tspan class="cls-78" x="23.34" y="0">2</tspan><tspan class="cls-79" x="27.59" y="0">0</tspan><tspan x="32.57" y="0">19–</tspan><tspan class="cls-80" x="43.66" y="0">P</tspan><tspan class="cls-81" x="48.9" y="0">r</tspan><tspan x="51.83" y="0">esent</tspan></text><line class="cls-82" x1="455.78" y1="670.58" x2="578.47" y2="670.58"/><line class="cls-53" x1="781.69" y1="558.95" x2="994.03" y2="558.95"/><line class="cls-53" x1="781.69" y1="628.79" x2="994.03" y2="628.79"/><text class="cls-83" transform="translate(781.69 474.12)">T<tspan class="cls-84" x="10.13" y="0">ƏHSİL</tspan></text><line class="cls-53" x1="781.69" y1="494.85" x2="781.69" y2="628.79"/><circle class="cls-3" cx="781.69" cy="505.63" r="5.17"/><circle class="cls-3" cx="781.69" cy="582.42" r="5.17"/><text class="cls-54" transform="translate(809.78 524.42)">Ba<tspan class="cls-85" x="17.2" y="0">k</tspan><tspan x="25.37" y="0">ı D</tspan><tspan class="cls-86" x="42.92" y="0">ö</tspan><tspan x="50.89" y="0">vlət Uni</tspan><tspan class="cls-87" x="101.03" y="0">v</tspan><tspan x="108.29" y="0">e</tspan><tspan class="cls-88" x="116.14" y="0">r</tspan><tspan x="121.48" y="0">si</tspan><tspan class="cls-89" x="131.84" y="0">t</tspan><tspan x="137.04" y="0">eti</tspan></text><text class="cls-59" transform="translate(810.98 540.33)"><tspan class="cls-90">T</tspan><tspan x="4.93" y="0">a</tspan><tspan class="cls-61" x="10.28" y="0">r</tspan><tspan x="13.83" y="0">ix </tspan><tspan class="cls-73" x="23.48" y="0">f</tspan><tspan x="26.45" y="0">a</tspan><tspan class="cls-63" x="31.8" y="0">k</tspan><tspan x="37.15" y="0">ü</tspan><tspan class="cls-62" x="43.24" y="0">l</tspan><tspan class="cls-71" x="45.69" y="0">t</tspan><tspan x="49.2" y="0">əsi</tspan></text><text class="cls-75" transform="translate(809.78 507.47)">05<tspan class="cls-91" x="9.26" y="0">/</tspan><tspan class="cls-92" x="11.64" y="0">0</tspan><tspan x="16.56" y="0">3/</tspan><tspan class="cls-93" x="23.34" y="0">2</tspan><tspan class="cls-94" x="27.59" y="0">0</tspan><tspan x="32.57" y="0">19–</tspan></text><text class="cls-54" transform="translate(809.78 600.81)">Ba<tspan class="cls-85" x="17.2" y="0">k</tspan><tspan x="25.37" y="0">ı D</tspan><tspan class="cls-86" x="42.92" y="0">ö</tspan><tspan x="50.89" y="0">vlət Uni</tspan><tspan class="cls-87" x="101.03" y="0">v</tspan><tspan x="108.29" y="0">e</tspan><tspan class="cls-88" x="116.14" y="0">r</tspan><tspan x="121.48" y="0">si</tspan><tspan class="cls-89" x="131.84" y="0">t</tspan><tspan x="137.04" y="0">eti</tspan></text><text class="cls-59" transform="translate(810.98 616.72)"><tspan class="cls-90">T</tspan><tspan x="4.93" y="0">a</tspan><tspan class="cls-61" x="10.28" y="0">r</tspan><tspan x="13.83" y="0">ix </tspan><tspan class="cls-73" x="23.48" y="0">f</tspan><tspan x="26.45" y="0">a</tspan><tspan class="cls-63" x="31.8" y="0">k</tspan><tspan x="37.15" y="0">ü</tspan><tspan class="cls-62" x="43.24" y="0">l</tspan><tspan class="cls-71" x="45.69" y="0">t</tspan><tspan x="49.2" y="0">əsi</tspan></text><text class="cls-75" transform="translate(809.78 583.85)">05<tspan class="cls-91" x="9.26" y="0">/</tspan><tspan class="cls-92" x="11.64" y="0">0</tspan><tspan x="16.56" y="0">3/</tspan><tspan class="cls-93" x="23.34" y="0">2</tspan><tspan class="cls-94" x="27.59" y="0">0</tspan><tspan x="32.57" y="0">19–</tspan></text><line class="cls-82" x1="781.06" y1="481.15" x2="845.32" y2="481.15"/><text class="cls-95" transform="translate(776.52 319.9)">GÜNEL<tspan class="cls-29"><tspan x="0" y="46.77">RƏVƏ</tspan><tspan class="cls-96" x="108.53" y="46.77">B</tspan><tspan class="cls-97" x="131.45" y="46.77">O</tspan><tspan class="cls-98" x="159.89" y="46.77">V</tspan><tspan x="182.05" y="46.77">A</tspan></tspan></text><text class="cls-48" transform="translate(776.52 129.44)">H<tspan class="cls-49" x="13.17" y="0">A</tspan><tspan x="25.27" y="0">QQIM</tspan><tspan class="cls-99" x="76.88" y="0">D</tspan><tspan class="cls-100" x="89.35" y="0">A</tspan></text><text class="cls-59" transform="translate(777.2 152.92)">Sizin <tspan class="cls-61" x="23.57" y="0">k</tspan><tspan x="28.93" y="0">imi uğu</tspan><tspan class="cls-61" x="64.18" y="0">r</tspan><tspan x="67.74" y="0">lu bir şi</tspan><tspan class="cls-61" x="100.08" y="0">r</tspan><tspan class="cls-101" x="103.63" y="0">k</tspan><tspan x="108.88" y="0">ə</tspan><tspan class="cls-71" x="114.35" y="0">t</tspan><tspan x="117.86" y="0">də işlə</tspan><tspan class="cls-62" x="146.6" y="0">m</tspan><tspan x="156.22" y="0">ək is</tspan><tspan class="cls-71" x="176.37" y="0">t</tspan><tspan class="cls-60" x="179.87" y="0">ə</tspan><tspan x="185.2" y="0">yimi ça</tspan><tspan class="cls-71" x="217.4" y="0">t</tspan><tspan x="220.9" y="0">dı</tspan><tspan class="cls-61" x="229.48" y="0">r</tspan><tspan x="233.03" y="0">m</tspan><tspan class="cls-67" x="242.64" y="0">a</tspan><tspan x="248" y="0">q </tspan><tspan x="0" y="11.32">is</tspan><tspan class="cls-71" x="6.86" y="11.32">t</tspan><tspan class="cls-60" x="10.37" y="11.32">ə</tspan><tspan x="15.7" y="11.32">yi</tspan><tspan class="cls-102" x="23.04" y="11.32">r</tspan><tspan x="26.55" y="11.32">əm, bu</tspan><tspan class="cls-74" x="58.15" y="11.32">r</tspan><tspan class="cls-67" x="61.7" y="11.32">a</tspan><tspan x="67.06" y="11.32">da şi</tspan><tspan class="cls-61" x="87.77" y="11.32">r</tspan><tspan class="cls-101" x="91.33" y="11.32">k</tspan><tspan x="96.58" y="11.32">ətini</tspan><tspan class="cls-74" x="116.72" y="11.32">z</tspan><tspan x="121.27" y="11.32">ə d</tspan><tspan class="cls-60" x="135.25" y="11.32">əy</tspan><tspan x="145.35" y="11.32">ər əl</tspan><tspan class="cls-73" x="164.72" y="11.32">a</tspan><tspan class="cls-60" x="169.98" y="11.32">v</tspan><tspan x="174.75" y="11.32">ə edə bilə</tspan><tspan class="cls-103" x="218.51" y="11.32">c</tspan><tspan class="cls-60" x="223.53" y="11.32">ə</tspan><tspan x="228.86" y="11.32">yi</tspan><tspan class="cls-67" x="236.2" y="11.32">m</tspan><tspan x="245.82" y="11.32">ə </tspan><tspan x="0" y="22.63">şüb</tspan><tspan class="cls-67" x="16.66" y="22.63">h</tspan><tspan x="22.81" y="22.63">əm </tspan><tspan class="cls-104" x="40.25" y="22.63">y</tspan><tspan class="cls-71" x="45.02" y="22.63">ox</tspan><tspan x="55.19" y="22.63">du</tspan><tspan class="cls-63" x="67.42" y="22.63">r</tspan><tspan x="70.96" y="22.63">. Düşünü</tspan><tspan class="cls-102" x="111.56" y="22.63">r</tspan><tspan x="115.08" y="22.63">əm </tspan><tspan class="cls-61" x="132.52" y="22.63">k</tspan><tspan x="137.89" y="22.63">i, </tspan><tspan class="cls-61" x="144.62" y="22.63">C</tspan><tspan class="cls-105" x="151.05" y="22.63">V</tspan><tspan class="cls-106" x="157.17" y="22.63">-</tspan><tspan x="160.72" y="22.63">də q</tspan><tspan class="cls-73" x="180.84" y="22.63">e</tspan><tspan class="cls-60" x="186.22" y="22.63">y</tspan><tspan x="190.99" y="22.63">d e</tspan><tspan class="cls-71" x="204.97" y="22.63">t</tspan><tspan x="208.47" y="22.63">diyim </tspan><tspan class="cls-70" x="0" y="33.95">b</tspan><tspan class="cls-67" x="6.11" y="33.95">a</tspan><tspan x="11.47" y="33.95">ca</tspan><tspan class="cls-61" x="21.91" y="33.95">r</tspan><tspan x="25.47" y="33.95">ıqla</tspan><tspan class="cls-61" x="41.82" y="33.95">r</tspan><tspan x="45.38" y="33.95">ım iş </tspan><tspan class="cls-107" x="69.02" y="33.95">t</tspan><tspan x="72.53" y="33.95">ə</tspan><tspan class="cls-63" x="78" y="33.95">s</tspan><tspan x="82.33" y="33.95">vi</tspan><tspan class="cls-61" x="89.67" y="33.95">r</tspan><tspan x="93.23" y="33.95">i</tspan><tspan class="cls-62" x="95.67" y="33.95">n</tspan><tspan x="101.81" y="33.95">ə </tspan><tspan class="cls-60" x="109.65" y="33.95">v</tspan><tspan x="114.43" y="33.95">ə şi</tspan><tspan class="cls-61" x="129.13" y="33.95">r</tspan><tspan class="cls-101" x="132.69" y="33.95">k</tspan><tspan x="137.94" y="33.95">ətinizin pe</tspan><tspan class="cls-108" x="185.25" y="33.95">r</tspan><tspan x="188.84" y="33.95">spektivi</tspan><tspan class="cls-67" x="223.77" y="33.95">n</tspan><tspan x="229.92" y="33.95">ə </tspan><tspan x="0" y="45.27">u</tspan><tspan class="cls-60" x="6.09" y="45.27">y</tspan><tspan x="10.86" y="45.27">ğu</tspan><tspan class="cls-62" x="23.17" y="45.27">n</tspan><tspan x="29.31" y="45.27">du</tspan><tspan class="cls-63" x="41.55" y="45.27">r</tspan><tspan x="45.09" y="45.27">.</tspan><tspan class="cls-61" x="0" y="67.9">C</tspan><tspan class="cls-105" x="6.44" y="67.9">V</tspan><tspan x="12.56" y="67.9">-ni </tspan><tspan class="cls-67" x="26.95" y="67.9">n</tspan><tspan class="cls-103" x="33.1" y="67.9">əz</tspan><tspan x="43.03" y="67.9">ə</tspan><tspan class="cls-109" x="48.5" y="67.9">r</tspan><tspan x="52.01" y="67.9">dən </tspan><tspan class="cls-101" x="72.12" y="67.9">k</tspan><tspan x="77.37" y="67.9">eçi</tspan><tspan class="cls-61" x="90.37" y="67.9">r</tspan><tspan class="cls-62" x="93.93" y="67.9">m</tspan><tspan class="cls-60" x="103.55" y="67.9">əy</tspan><tspan x="113.65" y="67.9">ə </tspan><tspan class="cls-65" x="121.49" y="67.9">v</tspan><tspan x="126.26" y="67.9">axt </tspan><tspan class="cls-73" x="142.48" y="67.9">a</tspan><tspan x="147.73" y="67.9">yı</tspan><tspan class="cls-109" x="155.07" y="67.9">r</tspan><tspan x="158.59" y="67.9">dığınız üçün </tspan><tspan class="cls-71" x="217.15" y="67.9">t</tspan><tspan x="220.66" y="67.9">əşək</tspan><tspan class="cls-73" x="241.46" y="67.9">k</tspan><tspan x="246.81" y="67.9">ür </tspan><tspan x="0" y="79.22">edi</tspan><tspan class="cls-109" x="14.04" y="79.22">r</tspan><tspan x="17.55" y="79.22">əm. Si</tspan><tspan class="cls-103" x="44.92" y="79.22">z</tspan><tspan x="49.47" y="79.22">dən müsbət </tspan><tspan class="cls-71" x="107.35" y="79.22">x</tspan><tspan x="112.02" y="79.22">əbər alm</tspan><tspan class="cls-67" x="152.47" y="79.22">a</tspan><tspan x="157.83" y="79.22">q dil</tspan><tspan class="cls-60" x="177.36" y="79.22">ə</tspan><tspan x="182.69" y="79.22">yi il</tspan><tspan class="cls-60" x="197.27" y="79.22">ə</tspan><tspan x="202.61" y="79.22">.</tspan></text><text class="cls-110" transform="translate(778.18 396.19)">Doğum ta<tspan class="cls-111" x="67.87" y="0">r</tspan><tspan class="cls-112" x="73" y="0">ixi: 15</tspan><tspan class="cls-113" x="105.07" y="0">.</tspan><tspan x="107.58" y="0">1</tspan><tspan class="cls-113" x="112.28" y="0">0.</tspan><tspan x="123.41" y="0">19</tspan><tspan class="cls-114" x="136.12" y="0">9</tspan><tspan x="144.12" y="0">2</tspan></text><text class="cls-115" transform="translate(810.34 677.37)">DİL BİLİK<tspan class="cls-116" x="60.81" y="0">L</tspan><tspan class="cls-117" x="68.33" y="0">Ə</tspan><tspan class="cls-118" x="78.44" y="0">R</tspan><tspan x="87.51" y="0">İ</tspan></text><text class="cls-119" transform="translate(810.34 702.31)"><tspan class="cls-120">T</tspan><tspan class="cls-121" x="5.69" y="0">ü</tspan><tspan class="cls-122" x="12.4" y="0">r</tspan><tspan class="cls-123" x="16.4" y="0">k</tspan><tspan class="cls-124" x="22.29" y="0">c</tspan><tspan x="27.87" y="0">ə</tspan></text><rect class="cls-125" x="810.34" y="706.56" width="184.33" height="6.89"/><text class="cls-119" transform="translate(810.34 738.31)">İ<tspan class="cls-126" x="3.07" y="0">n</tspan><tspan x="9.86" y="0">gilis</tspan><tspan class="cls-124" x="29.96" y="0">c</tspan><tspan x="35.54" y="0">ə</tspan></text><rect class="cls-125" x="810.34" y="742.55" width="184.33" height="6.89"/><text class="cls-119" transform="translate(810.34 774.3)">Rusca</text><rect class="cls-125" x="810.34" y="778.55" width="184.33" height="6.89"/><polygon class="cls-3" points="971.43 765.41 971.43 778.55 810.34 778.55 810.34 785.43 966.62 785.43 992.21 785.43 992.21 778.55 992.21 765.41 971.43 765.41"/><polygon class="cls-3" points="962.09 729.42 962.09 742.55 810.34 742.55 810.34 749.44 957.28 749.44 982.87 749.44 982.87 742.55 982.87 729.42 962.09 729.42"/><polygon class="cls-3" points="940.07 693.42 940.07 706.56 810.34 706.56 810.34 713.44 935.26 713.44 960.85 713.44 960.85 706.56 960.85 693.42 940.07 693.42"/><text class="cls-127" transform="translate(942.9 702.31)"><tspan class="cls-128">7</tspan><tspan class="cls-129" x="3.78" y="0">5</tspan><tspan x="7.46" y="0">%</tspan></text><text class="cls-127" transform="translate(964.91 738.31)">90%</text><text class="cls-127" transform="translate(974.25 774.3)">99%</text><text class="cls-130" transform="translate(810.21 814.54)">P<tspan class="cls-131" x="8.63" y="0">R</tspan><tspan class="cls-132" x="17.43" y="0">OQRAM</tspan></text><text class="cls-133" transform="translate(809.78 835.47)"><tspan class="cls-134">W</tspan><tspan x="10.62" y="0">o</tspan><tspan class="cls-135" x="16.92" y="0">r</tspan><tspan class="cls-136" x="20.87" y="0">d</tspan></text><rect class="cls-125" x="809.78" y="839.71" width="183.77" height="6.89"/><text class="cls-133" transform="translate(809.78 871.47)"><tspan class="cls-137">E</tspan><tspan class="cls-138" x="6.53" y="0">x</tspan><tspan class="cls-139" x="11.82" y="0">c</tspan><tspan x="17.41" y="0">el</tspan></text><rect class="cls-125" x="809.78" y="875.72" width="183.77" height="6.89"/><text class="cls-133" transform="translate(809.78 907.47)"><tspan class="cls-137">P</tspan><tspan class="cls-140" x="7.04" y="0">ow</tspan><tspan x="21.96" y="0">e</tspan><tspan class="cls-135" x="28.03" y="0">rP</tspan><tspan x="39.02" y="0">oint</tspan></text><rect class="cls-125" x="809.78" y="911.72" width="183.77" height="6.89"/><polygon class="cls-3" points="970.39 898.58 970.39 911.72 809.78 911.72 809.78 918.61 965.6 918.61 991.1 918.61 991.1 911.72 991.1 898.58 970.39 898.58"/><polygon class="cls-3" points="961.08 862.58 961.08 875.72 809.78 875.72 809.78 882.6 956.28 882.6 981.79 882.6 981.79 875.72 981.79 862.58 961.08 862.58"/><polygon class="cls-3" points="939.13 826.58 939.13 839.71 809.78 839.71 809.78 846.6 934.34 846.6 959.84 846.6 959.84 839.71 959.84 826.58 939.13 826.58"/><text class="cls-141" transform="translate(941.94 835.47)"><tspan class="cls-142">7</tspan><tspan class="cls-143" x="3.78" y="0">5</tspan><tspan x="7.47" y="0">%</tspan></text><text class="cls-141" transform="translate(963.89 871.47)">90%</text><text class="cls-141" transform="translate(973.21 907.47)">99%</text><text class="cls-133" transform="translate(809.78 938.09)">Outlook</text><rect class="cls-125" x="809.78" y="942.34" width="183.77" height="6.89"/><polygon class="cls-3" points="970.39 929.2 970.39 942.34 809.78 942.34 809.78 949.22 965.6 949.22 991.1 949.22 991.1 942.34 991.1 929.2 970.39 929.2"/><text class="cls-141" transform="translate(973.21 938.09)">99%</text></g></svg>