<svg xmlns="http://www.w3.org/2000/svg" xmlns:xlink="http://www.w3.org/1999/xlink" viewBox="0 0 1079 1080"><defs><style>.cls-1,.cls-48{fill:none;}.cls-2{clip-path:url(#clip-path);}.cls-3{fill:#f8f9fa;}.cls-31,.cls-4,.cls-45,.cls-49,.cls-54,.cls-70{fill:#141b31;}.cls-5{fill:#5754a4;}.cls-11,.cls-15,.cls-6{font-size:9.59px;fill:#231f20;font-family:Averta-Semibold, Averta;}.cls-109,.cls-11,.cls-111,.cls-15,.cls-39,.cls-6{font-weight:600;}.cls-6{letter-spacing:-0.07em;}.cls-15,.cls-7,.cls-9{letter-spacing:0.02em;}.cls-8{letter-spacing:0.01em;}.cls-18,.cls-9{font-family:Averta-Light, Averta;}.cls-18,.cls-9,.cls-92{font-weight:300;}.cls-10{letter-spacing:0.01em;}.cls-11{letter-spacing:0.02em;}.cls-12{letter-spacing:0.01em;}.cls-13{letter-spacing:0.01em;}.cls-14{letter-spacing:0em;}.cls-16{letter-spacing:0em;}.cls-17{letter-spacing:-0.01em;}.cls-19{letter-spacing:0.02em;}.cls-20{letter-spacing:0em;}.cls-21{letter-spacing:0em;}.cls-22{letter-spacing:0.02em;}.cls-23,.cls-26,.cls-78{font-size:16.93px;font-family:Averta-ExtraBold, Averta;font-weight:800;}.cls-105,.cls-109,.cls-110,.cls-111,.cls-23,.cls-26,.cls-39,.cls-78,.cls-84,.cls-85,.cls-92,.cls-97,.cls-98{fill:#fff;}.cls-23,.cls-28{letter-spacing:0.02em;}.cls-24{letter-spacing:0.04em;}.cls-25{letter-spacing:-0.02em;}.cls-26{letter-spacing:0.02em;}.cls-27,.cls-78{letter-spacing:-0.02em;}.cls-29{letter-spacing:0em;}.cls-30{letter-spacing:0.01em;}.cls-31,.cls-45{font-size:9.38px;}.cls-105,.cls-31,.cls-45{font-family:Montserrat-Medium, Montserrat;font-weight:500;}.cls-32{letter-spacing:-0.01em;}.cls-33{letter-spacing:-0.01em;}.cls-34{letter-spacing:-0.02em;}.cls-35{letter-spacing:-0.01em;}.cls-36{fill:#fafbfc;}.cls-37{letter-spacing:0em;}.cls-38{letter-spacing:0em;}.cls-39{font-size:6.07px;}.cls-109,.cls-111,.cls-39{font-family:Montserrat-SemiBold, Montserrat;}.cls-40{letter-spacing:-0.02em;}.cls-41{letter-spacing:-0.01em;}.cls-42{letter-spacing:0em;}.cls-43{letter-spacing:-0.05em;}.cls-44,.cls-45{letter-spacing:-0.01em;}.cls-46{letter-spacing:-0.02em;}.cls-47{letter-spacing:-0.01em;}.cls-48{stroke:#141b31;stroke-miterlimit:10;stroke-width:0.4px;}.cls-49{font-size:11.72px;}.cls-49,.cls-85{font-family:Montserrat-Bold, Montserrat;}.cls-49,.cls-85,.cls-98{font-weight:700;}.cls-50{letter-spacing:-0.01em;}.cls-51{letter-spacing:0em;}.cls-52{letter-spacing:-0.02em;}.cls-53{letter-spacing:-0.01em;}.cls-54{font-size:8.52px;}.cls-110,.cls-54,.cls-70{font-family:Montserrat-Regular, Montserrat;}.cls-55{letter-spacing:-0.02em;}.cls-56{letter-spacing:-0.01em;}.cls-57{letter-spacing:0em;}.cls-58{letter-spacing:-0.01em;}.cls-59{letter-spacing:0em;}.cls-60{letter-spacing:-0.02em;}.cls-61{letter-spacing:-0.01em;}.cls-62{letter-spacing:0em;}.cls-63{letter-spacing:-0.01em;}.cls-64{letter-spacing:0em;}.cls-65{letter-spacing:-0.02em;}.cls-66{letter-spacing:0.01em;}.cls-67{letter-spacing:-0.01em;}.cls-68{letter-spacing:-0.01em;}.cls-69{letter-spacing:-0.02em;}.cls-70{font-size:7.1px;}.cls-71{letter-spacing:-0.02em;}.cls-72{letter-spacing:-0.01em;}.cls-73{letter-spacing:0em;}.cls-74{letter-spacing:0em;}.cls-75{letter-spacing:0em;}.cls-76{letter-spacing:-0.02em;}.cls-77{letter-spacing:-0.01em;}.cls-79{letter-spacing:-0.02em;}.cls-80{letter-spacing:0em;}.cls-81{letter-spacing:0em;}.cls-82{letter-spacing:-0.02em;}.cls-83{letter-spacing:-0.03em;}.cls-85{font-size:37.28px;}.cls-86{letter-spacing:0.01em;}.cls-87{letter-spacing:-0.04em;}.cls-88{letter-spacing:-0.01em;}.cls-89{letter-spacing:-0.01em;}.cls-90{letter-spacing:0em;}.cls-91{letter-spacing:0em;}.cls-92{font-size:14.91px;font-family:Montserrat-Light, Montserrat;}.cls-93{letter-spacing:-0.01em;}.cls-94{letter-spacing:-0.01em;}.cls-95{letter-spacing:0em;}.cls-96{letter-spacing:0em;}.cls-97{fill-rule:evenodd;}.cls-98{font-size:30.55px;font-family:Averta-Bold, Averta;}.cls-99{letter-spacing:0em;}.cls-100{letter-spacing:0em;}.cls-101{letter-spacing:0.01em;}.cls-102{letter-spacing:0em;}.cls-103{fill:#2b2c2b;}.cls-104{fill:#414142;}.cls-105{font-size:22.5px;}.cls-106{letter-spacing:-0.03em;}.cls-107{letter-spacing:0em;}.cls-108{letter-spacing:-0.01em;}.cls-109{font-size:58.13px;}.cls-110{font-size:22px;}.cls-111{font-size:39.76px;}.cls-112{letter-spacing:0em;}.cls-113{letter-spacing:-0.01em;}.cls-114{letter-spacing:-0.01em;}.cls-115{letter-spacing:-0.01em;}.cls-116{letter-spacing:-0.01em;}.cls-117{letter-spacing:-0.02em;}.cls-118{letter-spacing:0em;}.cls-119{letter-spacing:0em;}.cls-120{clip-path:url(#clip-path-4);}</style><clipPath id="clip-path"><rect class="cls-1" x="451.85" y="129.93" width="240.06" height="199.42"/></clipPath><clipPath id="clip-path-4"><circle class="cls-1" cx="431.79" cy="-1054.72" r="90.88"/></clipPath></defs><g id="PRINT"><rect class="cls-3" x="415.22" y="74.35" width="634.03" height="896.7"/><rect class="cls-4" x="592.03" y="129.93" width="387.37" height="242.38"/><rect class="cls-5" x="559.93" y="104.47" width="464.85" height="256.77"/><rect class="cls-5" x="457.08" y="408.73" width="34.66" height="26.69"/><rect class="cls-4" x="491.74" y="408.73" width="139.68" height="26.69"/><path class="cls-5" d="M463.35,466l0,0c.25-.22.49-.46.71-.69l.08-.08.4-.4a1.34,1.34,0,0,1,2,0l2.07,2.08a1.35,1.35,0,0,1,.47,1,1.43,1.43,0,0,1-.46,1l-1.29,1.29a.2.2,0,0,0-.09.15.19.19,0,0,0,0,.09v0c.08.13.15.27.22.41a4.1,4.1,0,0,0,.22.41,13.22,13.22,0,0,0,2.92,3.21h0a7.81,7.81,0,0,0,1.82,1.12h0c.13,0,.16,0,.25-.05h0c.29-.33.58-.62.93-1l.22-.23.1-.1a1.32,1.32,0,0,1,2,0l1,1,.19.18.17.17c.26.26.48.47.69.7h0a1.38,1.38,0,0,1,.44,1,1.45,1.45,0,0,1-.43,1h0l-1.28,1.29a2.39,2.39,0,0,1-1.5.7,6,6,0,0,1-2.62-.46A16,16,0,0,1,468,477a17.27,17.27,0,0,1-4.52-5.79,8.52,8.52,0,0,1-.94-3.17,1.41,1.41,0,0,1,0-.21A2.43,2.43,0,0,1,463.35,466Z"/><path class="cls-5" d="M478.94,506.3v-.07s0,0,0-.06,0,0,0-.06l0-.06,0-.05a.1.1,0,0,0,0-.05v0s0,0,0,0l0,0-.05,0a.1.1,0,0,0-.05,0l-.05,0-.06,0h-.06l-.06,0H462.74l-.06,0h-.06l-.06,0-.05,0a.1.1,0,0,0-.05,0l0,0-.05,0s0,0,0,0v0a.1.1,0,0,0,0,.05l0,.05,0,.06s0,0,0,.06,0,0,0,.06V517.4a.64.64,0,0,0,.64.64h15.48a.64.64,0,0,0,.64-.64V506.3Zm-2.35.67-6,5.12-6-5.12Zm-6.43,6.44a.64.64,0,0,0,.82,0"/><path class="cls-5" d="M470.57,545.65a8,8,0,1,0,8,8A8,8,0,0,0,470.57,545.65Zm6.76,7.41H475.4a10.7,10.7,0,0,0-1.55-5.35A6.82,6.82,0,0,1,477.33,553.06ZM470,547v6.09h-3C467.1,550,468.37,547.49,470,547Zm0,7.31v6.09c-1.59-.52-2.86-3-3-6.09Zm1.22,6.09v-6.09h3C474,557.32,472.77,559.85,471.18,560.37Zm0-7.31V547c1.59.52,2.86,3,3,6.09Zm-3.89-5.35a10.7,10.7,0,0,0-1.55,5.35h-1.93A6.8,6.8,0,0,1,467.29,547.71Zm-3.48,6.57h1.93a10.63,10.63,0,0,0,1.55,5.34A6.77,6.77,0,0,1,463.81,554.28Zm10,5.34a10.63,10.63,0,0,0,1.55-5.34h1.93A6.79,6.79,0,0,1,473.85,559.62Z"/><text class="cls-6" transform="translate(503.2 469.43)">T<tspan class="cls-7" x="4.98" y="0">el</tspan><tspan class="cls-8" x="13.37" y="0">ef</tspan><tspan class="cls-7" x="22.27" y="0">on:</tspan><tspan class="cls-9"><tspan x="0" y="11.5">+9</tspan><tspan class="cls-10" x="11.55" y="11.5">9</tspan><tspan x="17.17" y="11.5">4xx xxx xx xx</tspan></tspan></text><text class="cls-11" transform="translate(503.2 508.52)">Elekt<tspan class="cls-12" x="23.44" y="0">r</tspan><tspan class="cls-7" x="27.08" y="0">on poçt:</tspan><tspan class="cls-9"><tspan x="0" y="11.5">cvhazirlama@gmai</tspan><tspan class="cls-13" x="86.83" y="11.5">l</tspan><tspan class="cls-14" x="89.13" y="11.5">.</tspan><tspan x="91.3" y="11.5">com</tspan></tspan></text><text class="cls-15" transform="translate(503.2 553.06)">Ü<tspan class="cls-16" x="7.1" y="0">n</tspan><tspan class="cls-17" x="12.81" y="0">v</tspan><tspan x="17.87" y="0">an:</tspan><tspan class="cls-18"><tspan x="0" y="11.5">Bakı </tspan><tspan class="cls-19" x="22.54" y="11.5">ş</tspan><tspan x="26.87" y="11.5">əhəri, A</tspan><tspan class="cls-20" x="60.92" y="11.5">z</tspan><tspan x="65.31" y="11.5">ərba</tspan><tspan class="cls-21" x="86.23" y="11.5">y</tspan><tspan class="cls-22" x="91.2" y="11.5">can</tspan></tspan></text><text class="cls-23" transform="translate(503.2 429.26)">Ə<tspan class="cls-24" x="12.48" y="0">L</tspan><tspan class="cls-25" x="22.42" y="0">A</tspan><tspan x="33.8" y="0">QƏ</tspan></text><rect class="cls-5" x="732.23" y="408.73" width="34.66" height="26.69"/><rect class="cls-4" x="766.89" y="408.73" width="197.91" height="26.69"/><text class="cls-26" transform="translate(781.72 429.26)">İŞ <tspan class="cls-27" x="19.88" y="0">T</tspan><tspan class="cls-28" x="29.42" y="0">ƏC</tspan><tspan class="cls-29" x="54.25" y="0">R</tspan><tspan class="cls-28" x="65.21" y="0">Ü</tspan><tspan class="cls-30" x="77.35" y="0">B</tspan><tspan class="cls-28" x="88.22" y="0">ƏSİ</tspan></text><rect class="cls-5" x="457.08" y="604.75" width="34.66" height="26.69"/><rect class="cls-4" x="491.74" y="604.75" width="139.68" height="26.69"/><text class="cls-23" transform="translate(503.2 625.28)">Ə<tspan class="cls-24" x="12.48" y="0">L</tspan><tspan class="cls-25" x="22.42" y="0">A</tspan><tspan x="33.8" y="0">QƏ</tspan></text><text class="cls-31" transform="translate(457.08 660.82)"><tspan class="cls-32">T</tspan><tspan x="5.38" y="0">ü</tspan><tspan class="cls-33" x="11.73" y="0">r</tspan><tspan class="cls-34" x="15.51" y="0">k</tspan><tspan class="cls-35" x="21.08" y="0">c</tspan><tspan x="26.36" y="0">ə</tspan></text><rect class="cls-36" x="457.08" y="664.84" width="174.34" height="6.51"/><text class="cls-31" transform="translate(457.08 694.86)">İ<tspan class="cls-37" x="2.91" y="0">n</tspan><tspan x="9.32" y="0">gilis</tspan><tspan class="cls-35" x="28.34" y="0">c</tspan><tspan class="cls-38" x="33.62" y="0">ə</tspan></text><rect class="cls-36" x="457.08" y="698.88" width="174.34" height="6.51"/><text class="cls-31" transform="translate(457.08 728.91)">Rusca</text><rect class="cls-36" x="457.08" y="732.92" width="174.34" height="6.51"/><polygon class="cls-5" points="609.45 720.5 609.45 732.92 457.08 732.92 457.08 739.43 604.9 739.43 629.1 739.43 629.1 732.92 629.1 720.5 609.45 720.5"/><polygon class="cls-5" points="600.62 686.46 600.62 698.88 457.08 698.88 457.08 705.39 596.07 705.39 620.27 705.39 620.27 698.88 620.27 686.46 600.62 686.46"/><polygon class="cls-5" points="579.79 652.41 579.79 664.84 457.08 664.84 457.08 671.35 575.24 671.35 599.44 671.35 599.44 664.84 599.44 652.41 579.79 652.41"/><text class="cls-39" transform="translate(582.46 660.82)"><tspan class="cls-40">7</tspan><tspan class="cls-41" x="3.58" y="0">5</tspan><tspan x="7.06" y="0">%</tspan></text><text class="cls-39" transform="translate(603.28 694.86)">90%</text><text class="cls-39" transform="translate(612.12 728.91)">99%</text><rect class="cls-5" x="457.08" y="788.55" width="34.66" height="26.69"/><rect class="cls-4" x="491.74" y="788.55" width="139.68" height="26.69"/><text class="cls-23" transform="translate(503.2 809.08)">P<tspan class="cls-42" x="10.65" y="0">R</tspan><tspan x="21.51" y="0">OQRAM</tspan></text><text class="cls-31" transform="translate(457.08 844.63)"><tspan class="cls-43">W</tspan><tspan x="10.04" y="0">o</tspan><tspan class="cls-44" x="16" y="0">r</tspan><tspan x="19.73" y="0">d</tspan></text><rect class="cls-36" x="457.08" y="848.64" width="174.34" height="6.51"/><text class="cls-45" transform="translate(457.08 878.67)">E<tspan class="cls-46" x="6.17" y="0">x</tspan><tspan class="cls-35" x="11.18" y="0">c</tspan><tspan class="cls-38" x="16.46" y="0">el</tspan></text><rect class="cls-36" x="457.08" y="882.68" width="174.34" height="6.51"/><text class="cls-31" transform="translate(457.08 912.71)"><tspan class="cls-44">P</tspan><tspan class="cls-47" x="6.66" y="0">ow</tspan><tspan x="20.76" y="0">e</tspan><tspan class="cls-44" x="26.5" y="0">rP</tspan><tspan x="36.89" y="0">oint</tspan></text><rect class="cls-36" x="457.08" y="916.73" width="174.34" height="6.51"/><polygon class="cls-5" points="609.45 904.31 609.45 916.73 457.08 916.73 457.08 923.24 604.9 923.24 629.1 923.24 629.1 916.73 629.1 904.31 609.45 904.31"/><polygon class="cls-5" points="600.62 870.26 600.62 882.68 457.08 882.68 457.08 889.2 596.07 889.2 620.27 889.2 620.27 882.68 620.27 870.26 600.62 870.26"/><polygon class="cls-5" points="579.79 836.22 579.79 848.64 457.08 848.64 457.08 855.15 575.24 855.15 599.44 855.15 599.44 848.64 599.44 836.22 579.79 836.22"/><text class="cls-39" transform="translate(582.46 844.63)"><tspan class="cls-40">7</tspan><tspan class="cls-41" x="3.58" y="0">5</tspan><tspan x="7.06" y="0">%</tspan></text><text class="cls-39" transform="translate(603.28 878.67)">90%</text><text class="cls-39" transform="translate(612.12 912.71)">99%</text><text class="cls-31" transform="translate(457.08 941.66)">Outlook</text><rect class="cls-36" x="457.08" y="945.68" width="174.34" height="6.51"/><polygon class="cls-5" points="609.45 933.26 609.45 945.68 457.08 945.68 457.08 952.19 604.9 952.19 629.1 952.19 629.1 945.68 629.1 933.26 609.45 933.26"/><text class="cls-39" transform="translate(612.12 941.66)">99%</text><line class="cls-48" x1="735.91" y1="448.76" x2="735.91" y2="667.97"/><circle class="cls-5" cx="735.91" cy="458.2" r="4.87"/><circle class="cls-5" cx="735.91" cy="580.73" r="4.87"/><line class="cls-48" x1="735.91" y1="562.12" x2="1022.75" y2="562.12"/><line class="cls-48" x1="735.91" y1="667.97" x2="1022.75" y2="667.97"/><line class="cls-48" x1="735.91" y1="801.64" x2="1022.75" y2="801.64"/><text class="cls-49" transform="translate(762.35 471.98)">A<tspan class="cls-50" x="8.97" y="0">r</tspan><tspan x="13.94" y="0">az Ma</tspan><tspan class="cls-51" x="49.27" y="0">r</tspan><tspan class="cls-52" x="54.27" y="0">k</tspan><tspan x="61.73" y="0">et</tspan><tspan class="cls-53" x="0" y="14.91">K</tspan><tspan x="8.53" y="14.91">assir</tspan></text><text class="cls-54" transform="translate(763.48 501.02)">- Malın d<tspan class="cls-55" x="37.01" y="0">əy</tspan><tspan x="46.52" y="0">ə</tspan><tspan class="cls-56" x="51.67" y="0">r</tspan><tspan x="55.02" y="0">inin </tspan><tspan class="cls-57" x="73.37" y="0">h</tspan><tspan x="79.16" y="0">esablanması </tspan><tspan class="cls-55" x="135.12" y="0">v</tspan><tspan x="139.61" y="0">ə </tspan><tspan class="cls-58" x="146.99" y="0">k</tspan><tspan x="152.03" y="0">assa ə</tspan><tspan class="cls-57" x="177.8" y="0">m</tspan><tspan x="186.85" y="0">əli</tspan><tspan class="cls-59" x="196.58" y="0">y</tspan><tspan class="cls-60" x="201.16" y="0">y</tspan><tspan x="205.64" y="0">atının </tspan><tspan class="cls-55" x="232.48" y="0">y</tspan><tspan x="236.97" y="0">e</tspan><tspan class="cls-56" x="242.12" y="0">r</tspan><tspan x="245.47" y="0">i</tspan><tspan class="cls-57" x="247.76" y="0">n</tspan><tspan x="253.54" y="0">ə </tspan><tspan class="cls-55" x="0" y="10.65">y</tspan><tspan x="4.49" y="10.65">eti</tspan><tspan class="cls-61" x="15.39" y="10.65">r</tspan><tspan x="18.74" y="10.65">il</tspan><tspan class="cls-62" x="23.32" y="10.65">m</tspan><tspan x="32.38" y="10.65">əsi;</tspan><tspan x="0" y="21.3">- </tspan><tspan class="cls-63" x="5.49" y="21.3">K</tspan><tspan x="11.43" y="21.3">assa </tspan><tspan class="cls-57" x="32.05" y="21.3">h</tspan><tspan x="37.83" y="21.3">esa</tspan><tspan class="cls-64" x="52.17" y="21.3">b</tspan><tspan x="57.93" y="21.3">atını </tspan><tspan class="cls-65" x="79" y="21.3">t</tspan><tspan x="82.29" y="21.3">ə</tspan><tspan class="cls-66" x="87.44" y="21.3">r</tspan><tspan x="90.99" y="21.3">tib et</tspan><tspan class="cls-62" x="113.35" y="21.3">m</tspan><tspan x="122.41" y="21.3">ək;</tspan><tspan x="0" y="31.95">- Malın alınması zamanı s</tspan><tspan class="cls-58" x="107.29" y="31.95">a</tspan><tspan x="112.23" y="31.95">yının, </tspan><tspan class="cls-67" x="137.01" y="31.95">ç</tspan><tspan x="141.73" y="31.95">eşidinin </tspan><tspan class="cls-68" x="177.46" y="31.95">y</tspan><tspan class="cls-69" x="181.95" y="31.95">o</tspan><tspan x="187.13" y="31.95">xlanılmas</tspan></text><text class="cls-70" transform="translate(762.35 460.64)">05<tspan class="cls-71" x="8.72" y="0">/</tspan><tspan class="cls-72" x="10.95" y="0">0</tspan><tspan class="cls-73" x="15.58" y="0">3/</tspan><tspan class="cls-74" x="21.97" y="0">2</tspan><tspan class="cls-75" x="25.97" y="0">0</tspan><tspan class="cls-73" x="30.66" y="0">19–</tspan><tspan class="cls-76" x="41.09" y="0">P</tspan><tspan class="cls-77" x="46.03" y="0">r</tspan><tspan x="48.78" y="0">esent</tspan></text><text class="cls-49" transform="translate(762.35 592.07)">A<tspan class="cls-50" x="8.97" y="0">r</tspan><tspan x="13.94" y="0">az Ma</tspan><tspan class="cls-51" x="49.27" y="0">r</tspan><tspan class="cls-52" x="54.27" y="0">k</tspan><tspan x="61.73" y="0">et</tspan><tspan class="cls-53" x="0" y="14.91">K</tspan><tspan x="8.53" y="14.91">assir</tspan></text><text class="cls-54" transform="translate(763.48 621.11)">- Malın d<tspan class="cls-55" x="37.01" y="0">əy</tspan><tspan x="46.52" y="0">ə</tspan><tspan class="cls-56" x="51.67" y="0">r</tspan><tspan x="55.02" y="0">inin </tspan><tspan class="cls-57" x="73.37" y="0">h</tspan><tspan x="79.16" y="0">esablanması </tspan><tspan class="cls-55" x="135.12" y="0">v</tspan><tspan x="139.61" y="0">ə </tspan><tspan class="cls-58" x="146.99" y="0">k</tspan><tspan x="152.03" y="0">assa ə</tspan><tspan class="cls-57" x="177.8" y="0">m</tspan><tspan x="186.85" y="0">əli</tspan><tspan class="cls-59" x="196.58" y="0">y</tspan><tspan class="cls-60" x="201.16" y="0">y</tspan><tspan x="205.64" y="0">atının </tspan><tspan class="cls-55" x="232.48" y="0">y</tspan><tspan x="236.97" y="0">e</tspan><tspan class="cls-56" x="242.12" y="0">r</tspan><tspan x="245.47" y="0">i</tspan><tspan class="cls-57" x="247.76" y="0">n</tspan><tspan x="253.54" y="0">ə </tspan><tspan class="cls-55" x="0" y="10.65">y</tspan><tspan x="4.49" y="10.65">eti</tspan><tspan class="cls-61" x="15.39" y="10.65">r</tspan><tspan x="18.74" y="10.65">il</tspan><tspan class="cls-62" x="23.32" y="10.65">m</tspan><tspan x="32.38" y="10.65">əsi;</tspan><tspan x="0" y="21.3">- </tspan><tspan class="cls-63" x="5.49" y="21.3">K</tspan><tspan x="11.43" y="21.3">assa </tspan><tspan class="cls-57" x="32.05" y="21.3">h</tspan><tspan x="37.83" y="21.3">esa</tspan><tspan class="cls-64" x="52.17" y="21.3">b</tspan><tspan x="57.93" y="21.3">atını </tspan><tspan class="cls-65" x="79" y="21.3">t</tspan><tspan x="82.29" y="21.3">ə</tspan><tspan class="cls-66" x="87.44" y="21.3">r</tspan><tspan x="90.99" y="21.3">tib et</tspan><tspan class="cls-62" x="113.35" y="21.3">m</tspan><tspan x="122.41" y="21.3">ək;</tspan><tspan x="0" y="31.95">- Malın alınması zamanı s</tspan><tspan class="cls-58" x="107.29" y="31.95">a</tspan><tspan x="112.23" y="31.95">yının, </tspan><tspan class="cls-67" x="137.01" y="31.95">ç</tspan><tspan x="141.73" y="31.95">eşidinin </tspan><tspan class="cls-68" x="177.46" y="31.95">y</tspan><tspan class="cls-69" x="181.95" y="31.95">o</tspan><tspan x="187.13" y="31.95">xlanılmas</tspan></text><text class="cls-70" transform="translate(762.35 580.73)">05<tspan class="cls-71" x="8.72" y="0">/</tspan><tspan class="cls-72" x="10.95" y="0">0</tspan><tspan class="cls-73" x="15.58" y="0">3/</tspan><tspan class="cls-74" x="21.97" y="0">2</tspan><tspan class="cls-75" x="25.97" y="0">0</tspan><tspan class="cls-73" x="30.66" y="0">19–</tspan><tspan class="cls-76" x="41.09" y="0">P</tspan><tspan class="cls-77" x="46.03" y="0">r</tspan><tspan x="48.78" y="0">esent</tspan></text><rect class="cls-5" x="732.23" y="701.28" width="34.66" height="26.69"/><rect class="cls-4" x="766.89" y="701.28" width="197.91" height="26.69"/><text class="cls-78" transform="translate(781.72 721.81)">T<tspan class="cls-28" x="9.54" y="0">ƏHSİL</tspan></text><line class="cls-48" x1="735.91" y1="741.32" x2="735.91" y2="801.64"/><circle class="cls-5" cx="735.91" cy="750.76" r="4.87"/><text class="cls-49" transform="translate(762.35 769.15)">Ba<tspan class="cls-51" x="16.19" y="0">k</tspan><tspan x="23.88" y="0">ı D</tspan><tspan class="cls-79" x="40.4" y="0">ö</tspan><tspan class="cls-80" x="47.89" y="0">vlət Uni</tspan><tspan class="cls-79" x="95.09" y="0">v</tspan><tspan class="cls-80" x="101.92" y="0">e</tspan><tspan class="cls-81" x="109.31" y="0">r</tspan><tspan class="cls-80" x="114.34" y="0">si</tspan><tspan class="cls-82" x="124.08" y="0">t</tspan><tspan x="128.98" y="0">eti</tspan></text><text class="cls-54" transform="translate(763.48 784.12)"><tspan class="cls-83">T</tspan><tspan x="4.64" y="0">a</tspan><tspan class="cls-61" x="9.67" y="0">r</tspan><tspan x="13.02" y="0">ix </tspan><tspan class="cls-58" x="22.09" y="0">f</tspan><tspan x="24.9" y="0">a</tspan><tspan class="cls-58" x="29.92" y="0">k</tspan><tspan x="34.96" y="0">ü</tspan><tspan class="cls-57" x="40.7" y="0">l</tspan><tspan class="cls-65" x="43" y="0">t</tspan><tspan x="46.3" y="0">əsi</tspan></text><text class="cls-70" transform="translate(762.35 753.19)">05<tspan class="cls-71" x="8.72" y="0">/</tspan><tspan class="cls-72" x="10.95" y="0">0</tspan><tspan class="cls-73" x="15.58" y="0">3/</tspan><tspan class="cls-74" x="21.97" y="0">2</tspan><tspan class="cls-75" x="25.97" y="0">0</tspan><tspan class="cls-73" x="30.66" y="0">19–</tspan></text><rect class="cls-5" x="732.23" y="828.62" width="34.66" height="26.69"/><rect class="cls-4" x="766.89" y="828.62" width="197.91" height="26.69"/><text class="cls-23" transform="translate(781.72 849.14)">HOBBİ</text><path class="cls-5" d="M811.54,902.73c-.62-1.12-2.45-1.3-4.08-.4s-2.44,2.55-1.82,3.67,2.45,1.31,4.08.4S812.17,903.85,811.54,902.73Z"/><path class="cls-5" d="M826,900.68c-.62-1.13-2.45-1.3-4.08-.4s-2.44,2.55-1.82,3.67,2.45,1.3,4.08.4S826.59,901.8,826,900.68Z"/><polygon class="cls-5" points="826.17 888.21 826.17 901.22 825.67 901.22 825.67 891.47 811.68 894.03 811.68 903.79 811.18 903.79 811.18 890.77 826.17 888.21"/><path class="cls-5" d="M758.33,887a14.52,14.52,0,0,0-1.5,1l0,0-1.93,1.92-1.69-.39-4.56-1-4.21-1-3.21,1.37,9.51,5.17-5.6,5.59,0,0s-.29.44-.59,1l-3.81-1.22L739,901.12l4.18,2.55-.44.44.57.56.42-.43,2.53,4.14L748,906.7,746.76,903c.55-.33,1-.64,1-.66h0l5.59-5.59,5.16,9.49,1.37-3.2-2-8.77-.38-1.68,1.93-1.93,0,0a13.8,13.8,0,0,0,1-1.51c.69-1.23.8-2,.38-2.44S759.55,886.29,758.33,887Z"/><path class="cls-5" d="M893.17,906.05s-8-.41-11.08,1.34C879,905.64,871,906.05,871,906.05V892.93h1.11l.13,9.45.53-12.42c.79-.08,7-.61,9.3,1.68,2.28-2.29,8.52-1.76,9.31-1.68l.12,13.12.54-10.15h1.11Z"/><path class="cls-5" d="M947.28,892.54a6.08,6.08,0,1,0,6.08,6.08A6.08,6.08,0,0,0,947.28,892.54Zm0,11.75a5.64,5.64,0,1,1,5.64-5.64A5.64,5.64,0,0,1,947.3,904.29Z"/><path class="cls-5" d="M956.61,891h-.19a1.05,1.05,0,0,0-1-.65H954.1a1.06,1.06,0,0,0-1,.65h-1.27l-1.22-2.21a.69.69,0,0,0-.62-.35h-4.56a.68.68,0,0,0-.6.31L943.39,891h-.58a.76.76,0,0,0-.75-.65h-2.51a.76.76,0,0,0-.75.65h-.17a1.91,1.91,0,0,0-1.91,1.91v11.5a1.92,1.92,0,0,0,1.91,1.92h18a1.92,1.92,0,0,0,1.91-1.92V892.9A1.91,1.91,0,0,0,956.61,891Zm-17.41,2.57a.85.85,0,1,1,.84.84A.85.85,0,0,1,939.2,893.56Zm8.08,11.83a6.78,6.78,0,1,1,6.77-6.77A6.78,6.78,0,0,1,947.28,905.39Z"/><path class="cls-84" d="M470.18,417.28a.56.56,0,0,1-.54.57h-1.18a.57.57,0,0,1,0-1.14h1.17a.55.55,0,0,1,.55.57Zm0,3.19a.56.56,0,0,0-.54-.57h-1.18a.58.58,0,0,0,0,1.15h1.17a.56.56,0,0,0,.55-.58Zm0,3.2a.56.56,0,0,0-.54-.57h-1.18a.57.57,0,0,0-.55.57.56.56,0,0,0,.55.57h1.17a.55.55,0,0,0,.55-.57Zm0,3.2a.55.55,0,0,0-.54-.57h-1.18a.57.57,0,0,0,0,1.14h1.17a.55.55,0,0,0,.55-.57Zm10.73-11.16v12.73a.62.62,0,0,1-.62.62H469.68a.62.62,0,0,1-.62-.62v-.55h.57a1,1,0,0,0,0-2h-.57V424.7h.57a1,1,0,0,0,0-2.05h-.57V421.5h.57a1,1,0,0,0,0-2.05h-.57V418.3h.57a1,1,0,0,0,0-2h-.57v-.55a.62.62,0,0,1,.62-.62h10.61a.62.62,0,0,1,.62.62Zm-7.08,4.68c0-.18.13-.38.28-.36a4.31,4.31,0,0,1,.75.42c.41.21,1.08-1.44.77-1.64a5,5,0,0,0-.73-.46.58.58,0,0,0-.14,0,2.07,2.07,0,0,0-2.3,2.1c0,.53-.06,1.07-.08,1.61h0v.09h0c0,.54,0,1.07.08,1.61a2.07,2.07,0,0,0,2.3,2.1.58.58,0,0,0,.14,0,4.32,4.32,0,0,0,.73-.47c.31-.19-.36-1.84-.77-1.63a4.31,4.31,0,0,1-.75.42c-.15,0-.27-.18-.28-.37,0-.49,0-1.11,0-1.63h0V422h0c0-.52,0-1.15,0-1.64Zm2.69,3.09a2,2,0,0,0,0-2.81l-.42.41a1.41,1.41,0,0,1,0,2Zm.73.74a3,3,0,0,0,0-4.29l-.41.41a2.44,2.44,0,0,1,0,3.46Zm.72-5-.42.41a3.46,3.46,0,0,1,0,4.89l.42.41a4,4,0,0,0,0-5.71Zm0,0"/><path class="cls-84" d="M481.18,617.5a6.81,6.81,0,1,0-5.13,6.56.42.42,0,0,1,.31,0l2.65,1.34a.18.18,0,0,0,.26-.17l-.11-2.76a.51.51,0,0,1,.13-.33A6.69,6.69,0,0,0,481.18,617.5Zm-3.31-.77a.63.63,0,0,1,0,1.25.63.63,0,0,1,0-1.25Zm-6.7,1.25a.63.63,0,1,1,.62-.63A.63.63,0,0,1,471.17,618Zm3.24,0a.63.63,0,1,1,.62-.63A.63.63,0,0,1,474.41,618Z"/><path class="cls-84" d="M481.69,799.89a1.36,1.36,0,0,0-1.92.16l-.3.35,2.09,1.76.28-.35A1.35,1.35,0,0,0,481.69,799.89Z"/><path class="cls-84" d="M474.93,807.27a.47.47,0,0,0,.15.46.45.45,0,0,0,.47.07l1.67-.73a1.31,1.31,0,0,0,.5-.37l.16-.18-2.09-1.76-.16.19a1.41,1.41,0,0,0-.28.56Z"/><polygon class="cls-84" points="476.37 804.07 478.46 805.82 480.98 802.85 478.89 801.1 476.37 804.07"/><path class="cls-84" d="M478.05,796.16l-1.73-1.64a1.28,1.28,0,0,0-.57-.31v2.66h2.69A1.32,1.32,0,0,0,478.05,796.16Z"/><path class="cls-84" d="M477.58,807.91l-1.67.72a1.36,1.36,0,0,1-1.87-1.57l.43-1.76a2.36,2.36,0,0,1,.46-.94l3.54-4.18v-2.4h-3.18a.45.45,0,0,1-.45-.46v-3.18H468a1.36,1.36,0,0,0-1.36,1.37v12.78a1.37,1.37,0,0,0,1.36,1.37h9.09a1.37,1.37,0,0,0,1.36-1.37v-1.07l-.06.07A2.32,2.32,0,0,1,477.58,807.91Zm-8.65-11h4.54a.46.46,0,1,1,0,.91h-4.54a.46.46,0,0,1,0-.91Zm0,2.76h7.27a.46.46,0,0,1,.46.45.47.47,0,0,1-.46.46h-7.27a.46.46,0,0,1-.45-.46A.45.45,0,0,1,468.93,799.63Zm0,2.72h5.45a.47.47,0,0,1,.46.46.46.46,0,0,1-.46.45h-5.45a.45.45,0,0,1-.45-.45A.46.46,0,0,1,468.93,802.35Zm3.64,3.64h-3.64a.46.46,0,0,1,0-.91h3.64a.46.46,0,0,1,0,.91Z"/><path class="cls-84" d="M756.1,421.61v3.84a.68.68,0,0,1-.41.62l-5.82,2.51a.72.72,0,0,1-.61,0l-5.65-2.44a.67.67,0,0,1-.41-.62v-3.84l6,2.57a1.06,1.06,0,0,0,.82,0Z"/><path class="cls-84" d="M758.74,419.67a.18.18,0,0,0,0-.32l-8.86-3.8a.72.72,0,0,0-.5,0l-9,3.8a.18.18,0,0,0,0,.32l8.92,3.85a.65.65,0,0,0,.51,0l7.43-3.21v6.29a1,1,0,0,0-.76,1,1.05,1.05,0,1,0,2.1,0,1,1,0,0,0-.76-1v-6.54Z"/><path class="cls-84" d="M750.36,716.18v-.36a.8.8,0,0,0-.8-.8.79.79,0,0,0-.79.8v.36a.79.79,0,0,0,.79.79.79.79,0,0,0,.8-.79Zm0,0"/><path class="cls-84" d="M756.39,716.62h-5.48a1.4,1.4,0,0,1-2.69,0h-5.48a2.26,2.26,0,0,1-1-.22v4.22a.71.71,0,0,0,.72.71h14.15a.71.71,0,0,0,.71-.71V716.4A2.22,2.22,0,0,1,756.39,716.62Z"/><path class="cls-84" d="M757,710.08h-3.6v-.22a1.93,1.93,0,0,0-1.94-1.93h-3.83a1.93,1.93,0,0,0-1.94,1.93v.22h-3.49a.71.71,0,0,0-.71.71v3.56a1.28,1.28,0,0,0,1.29,1.29h5.42a1.39,1.39,0,0,1,.44-.94,0,0,0,0,1,0,0l.17-.15.07,0,.16-.08.14,0,.12,0,.29,0,.28,0,.11,0,.14,0,.16.08.08,0,.17.15,0,0a1.52,1.52,0,0,1,.43.94h5.42a1.29,1.29,0,0,0,1.29-1.29v-3.56A.71.71,0,0,0,757,710.08Zm-10.24,0v-.22a.87.87,0,0,1,.87-.87h3.83a.87.87,0,0,1,.87.87v.22Z"/><path class="cls-84" d="M755,836.86a3.16,3.16,0,0,0-4.5.79,6.82,6.82,0,0,0-.92,1.79,6.82,6.82,0,0,0-.92-1.79,3.15,3.15,0,0,0-4.49-.79c-3,2.38-.56,6.6,2,8.57a32.7,32.7,0,0,0,3.37,2.26,32.7,32.7,0,0,0,3.37-2.26C755.54,843.46,758,839.24,755,836.86Z"/><text class="cls-85" transform="translate(721.32 177.75)">ABDUL<tspan class="cls-86" x="139.76" y="0">L</tspan><tspan class="cls-87" x="162.5" y="0">A</tspan><tspan class="cls-88" x="189.45" y="0">Y</tspan><tspan class="cls-89" x="214.39" y="0">E</tspan><tspan class="cls-90" x="239.03" y="0">V</tspan><tspan x="0" y="47.93">E</tspan><tspan class="cls-91" x="25.01" y="47.93">L</tspan><tspan x="47.38" y="47.93">ŞƏN</tspan></text><text class="cls-92" transform="translate(723.31 259.19)">Doğum ta<tspan class="cls-93" x="76.03" y="0">r</tspan><tspan x="81.77" y="0">ixi: 15</tspan><tspan class="cls-94" x="117.69" y="0">.</tspan><tspan x="120.51" y="0">1</tspan><tspan class="cls-94" x="125.78" y="0">0.</tspan><tspan class="cls-95" x="138.24" y="0">19</tspan><tspan class="cls-96" x="152.48" y="0">9</tspan><tspan class="cls-95" x="161.44" y="0">2</tspan></text><path class="cls-84" d="M850.47,1035.71a20.26,20.26,0,1,1,20.26-20.26A20.28,20.28,0,0,1,850.47,1035.71Zm0-39a18.72,18.72,0,1,0,18.72,18.72A18.74,18.74,0,0,0,850.47,996.73Z"/><path class="cls-97" d="M861.16,1014.91a10.5,10.5,0,0,0-21-.19c0,.15,0,.3,0,.45a10.36,10.36,0,0,0,1.5,5.38l-1.89,5.59,5.81-1.85a10.51,10.51,0,0,0,15.57-9.12Zm-10.49,9a8.79,8.79,0,0,1-4.86-1.45l-3.39,1.08,1.1-3.25a8.66,8.66,0,0,1-1.68-5.14,8.06,8.06,0,0,1,0-.85,8.83,8.83,0,0,1,17.58.17c0,.23,0,.45,0,.68A8.8,8.8,0,0,1,850.67,1023.93Z"/><path class="cls-97" d="M855.48,1017.28c-.26-.13-1.53-.75-1.76-.83s-.41-.13-.58.12-.67.83-.82,1-.3.19-.56.06a6.94,6.94,0,0,1-2.07-1.26,7.79,7.79,0,0,1-1.43-1.77c-.14-.25,0-.39.12-.52s.25-.3.38-.45l.1-.12a2.72,2.72,0,0,0,.16-.3.47.47,0,0,0,0-.45c-.06-.13-.58-1.39-.8-1.9s-.42-.42-.58-.42l-.49,0a1,1,0,0,0-.69.31,2.91,2.91,0,0,0-.89,2.14,3.22,3.22,0,0,0,.13.87,5.77,5.77,0,0,0,.92,1.77,10.53,10.53,0,0,0,4.39,3.85c2.62,1,2.62.68,3.09.64a2.61,2.61,0,0,0,1.74-1.22,2.19,2.19,0,0,0,.15-1.21A1.4,1.4,0,0,0,855.48,1017.28Z"/><rect class="cls-84" x="898.46" y="1010.83" width="4.03" height="13.03"/><path class="cls-84" d="M900.45,1009.12a2.41,2.41,0,1,0-2.38-2.4A2.4,2.4,0,0,0,900.45,1009.12Z"/><path class="cls-84" d="M908.94,1017c0-1.83.84-2.93,2.46-2.93s2.19,1,2.19,2.93v6.84h4v-8.25c0-3.49-2-5.18-4.75-5.18a4.53,4.53,0,0,0-3.92,2.15v-1.75h-3.87v13h3.87Z"/><path class="cls-84" d="M907.84,1035.71a20.26,20.26,0,1,1,20.26-20.26A20.28,20.28,0,0,1,907.84,1035.71Zm0-39a18.72,18.72,0,1,0,18.72,18.72A18.74,18.74,0,0,0,907.84,996.73Z"/><path class="cls-84" d="M962.23,1027H967v-11.88h3.31l.35-4H967v-2.26c0-.94.19-1.31,1.09-1.31h2.57v-4.13h-3.28c-3.54,0-5.13,1.56-5.13,4.53v3.17h-2.47v4h2.47Z"/><path class="cls-84" d="M965.2,1035.71a20.26,20.26,0,1,1,20.26-20.26A20.28,20.28,0,0,1,965.2,1035.71Zm0-39a18.72,18.72,0,1,0,18.73,18.72A18.74,18.74,0,0,0,965.2,996.73Z"/><path class="cls-84" d="M1022.27,1005.92c2.85,0,3.19,0,4.32.06a5.81,5.81,0,0,1,2,.37,3.54,3.54,0,0,1,2,2,5.81,5.81,0,0,1,.37,2c0,1.13.06,1.47.06,4.32s0,3.19-.06,4.32a5.81,5.81,0,0,1-.37,2,3.54,3.54,0,0,1-2,2,5.81,5.81,0,0,1-2,.37c-1.13,0-1.46.06-4.32.06s-3.19,0-4.32-.06a5.87,5.87,0,0,1-2-.37,3.16,3.16,0,0,1-1.23-.8,3.28,3.28,0,0,1-.8-1.23,5.81,5.81,0,0,1-.37-2c-.05-1.13-.06-1.47-.06-4.32s0-3.19.06-4.32a5.81,5.81,0,0,1,.37-2,3.28,3.28,0,0,1,.8-1.23,3.16,3.16,0,0,1,1.23-.8,5.87,5.87,0,0,1,2-.37c1.13-.05,1.47-.06,4.32-.06m0-1.93c-2.9,0-3.27,0-4.41.07a7.94,7.94,0,0,0-2.59.49,5.25,5.25,0,0,0-1.89,1.24,5.09,5.09,0,0,0-1.23,1.89,7.66,7.66,0,0,0-.5,2.59c0,1.14-.07,1.51-.07,4.41s0,3.27.07,4.41a7.66,7.66,0,0,0,.5,2.59,5.09,5.09,0,0,0,1.23,1.89,5.25,5.25,0,0,0,1.89,1.24,7.94,7.94,0,0,0,2.59.49c1.14,0,1.51.07,4.41.07s3.27,0,4.41-.07a7.88,7.88,0,0,0,2.59-.49,5.56,5.56,0,0,0,3.13-3.13,7.94,7.94,0,0,0,.49-2.59c.06-1.14.07-1.51.07-4.41s0-3.27-.07-4.41a7.94,7.94,0,0,0-.49-2.59,5.56,5.56,0,0,0-3.13-3.13,7.88,7.88,0,0,0-2.59-.49c-1.14,0-1.51-.07-4.41-.07"/><path class="cls-84" d="M1022.27,1009.19a5.49,5.49,0,1,0,5.49,5.49,5.49,5.49,0,0,0-5.49-5.49m0,9a3.56,3.56,0,1,1,3.56-3.56,3.56,3.56,0,0,1-3.56,3.56"/><path class="cls-84" d="M1029.26,1009a1.29,1.29,0,1,1-1.28-1.29,1.29,1.29,0,0,1,1.28,1.29"/><path class="cls-84" d="M1022.27,1035.71a20.26,20.26,0,1,1,20.26-20.26A20.28,20.28,0,0,1,1022.27,1035.71Zm0-39a18.72,18.72,0,1,0,18.72,18.72A18.74,18.74,0,0,0,1022.27,996.73Z"/><text class="cls-98" transform="translate(97.98 997.29)">CV <tspan class="cls-99" x="0" y="36.66">H</tspan><tspan x="22.18" y="36.66">AZI</tspan><tspan class="cls-100" x="71.93" y="36.66">R</tspan><tspan class="cls-101" x="91.89" y="36.66">L</tspan><tspan x="109.57" y="36.66">A</tspan><tspan class="cls-99" x="130.9" y="36.66">M</tspan><tspan class="cls-102" x="157.58" y="36.66">A</tspan></text><path class="cls-84" d="M71.65,973l-4.42,5.72H45.3a3.1,3.1,0,0,0-3.11,3.1v43.87a3.1,3.1,0,0,0,3.11,3.1H68.88l2.16,5.72H36.47V973Z"/><path class="cls-84" d="M71.5,1034.55l-17.93-47.5L60,989.88l10.14,26.89a1.43,1.43,0,0,0,2.68,0l10.07-26.89,6.42-2.83Z"/><polygon class="cls-84" points="70.07 989.88 72.72 989.88 74.14 1006.31 71.77 1009.62 69.06 1006.36 70.07 989.88"/><polygon class="cls-84" points="71.41 986.46 69.66 988.28 70.11 989.61 72.72 989.61 73.16 988.26 71.41 986.46"/><polygon class="cls-84" points="71.65 986.27 77.42 984.97 74.89 989.88 71.65 986.27"/><polygon class="cls-84" points="71.15 986.27 65.38 984.97 67.92 989.88 71.15 986.27"/><rect class="cls-103" x="85.21" y="185.88" width="260.32" height="56.71"/><rect class="cls-5" x="40.07" y="74.35" width="143.79" height="5.3"/><rect class="cls-104" x="183.81" y="74.35" width="143.79" height="5.3"/><rect class="cls-104" x="40.07" y="94.92" width="143.76" height="38.31"/><text class="cls-105" transform="translate(52.14 122.08)"><tspan class="cls-106">K</tspan><tspan class="cls-107" x="15.62" y="0">OD: 0</tspan><tspan class="cls-108" x="79.27" y="0">9.</tspan><tspan x="97.72" y="0">05</tspan></text><rect class="cls-5" x="40.07" y="174.13" width="80.21" height="80.21"/><text class="cls-109" transform="translate(59.2 231.24)">6</text><text class="cls-110" transform="translate(67.92 245.41) scale(0.58)">azn</text><text class="cls-111" transform="translate(139 224.25) scale(0.58)"><tspan class="cls-112">A</tspan><tspan class="cls-113" x="29.7" y="0">z</tspan><tspan x="50.54" y="0">ə</tspan><tspan class="cls-114" x="75.27" y="0">r</tspan><tspan class="cls-115" x="91.77" y="0">b</tspan><tspan class="cls-116" x="118.77" y="0">a</tspan><tspan class="cls-117" x="142.51" y="0">y</tspan><tspan x="164.9" y="0">ca</tspan><tspan class="cls-118" x="212.14" y="0">n</tspan><tspan class="cls-119" x="239.57" y="0">dilli</tspan></text><rect class="cls-103" x="85.21" y="309.65" width="260.32" height="56.71"/><rect class="cls-5" x="40.07" y="297.9" width="80.21" height="80.21"/><text class="cls-109" transform="translate(48.78 355.01)">10</text><text class="cls-111" transform="translate(139 348.02) scale(0.58)">İ<tspan class="cls-118" x="12.68" y="0">n</tspan><tspan class="cls-119" x="40.12" y="0">gilisdilli</tspan></text><text class="cls-110" transform="translate(67.92 371.42) scale(0.58)">azn</text><path class="cls-103" d="M58.34,429c0,3-2.2,4.88-5.84,4.88H49v4.25H47v-14H52.5C56.14,424.08,58.34,425.92,58.34,429Zm-2,0c0-2-1.34-3.14-3.9-3.14H49v6.28h3.4C55,432.1,56.34,431,56.34,429Z"/><path class="cls-103" d="M66.52,427.38v1.86a3.39,3.39,0,0,0-.44,0c-2.06,0-3.34,1.26-3.34,3.58v5.29H60.82V427.48h1.84v1.78C63.34,428,64.66,427.38,66.52,427.38Z"/><path class="cls-103" d="M67.8,432.78a5.51,5.51,0,1,1,5.52,5.43A5.27,5.27,0,0,1,67.8,432.78Zm9.08,0a3.57,3.57,0,1,0-3.56,3.74A3.48,3.48,0,0,0,76.88,432.78Z"/><path class="cls-103" d="M83.64,426.56v.92h3.08v1.58h-3v9H81.76v-9H80v-1.58h1.8v-.94a3.19,3.19,0,0,1,3.5-3.42,3.58,3.58,0,0,1,2.16.62l-.58,1.46a2.49,2.49,0,0,0-1.48-.5C84.22,424.7,83.64,425.34,83.64,426.56Z"/><path class="cls-103" d="M97.92,433.42h-8.6a3.59,3.59,0,0,0,3.84,3.1,4,4,0,0,0,3.06-1.28l1.06,1.24a5.33,5.33,0,0,1-4.18,1.73c-3.42,0-5.7-2.27-5.7-5.43a5.19,5.19,0,0,1,5.32-5.4A5.11,5.11,0,0,1,98,432.84C98,433,97.94,433.24,97.92,433.42ZM89.32,432h6.8a3.42,3.42,0,0,0-6.8,0Z"/><path class="cls-103" d="M99.28,437l.8-1.53a6.73,6.73,0,0,0,3.72,1.11c1.78,0,2.52-.54,2.52-1.45,0-2.38-6.7-.32-6.7-4.54,0-1.9,1.7-3.18,4.42-3.18a7.71,7.71,0,0,1,3.86,1l-.82,1.52A5.54,5.54,0,0,0,104,429c-1.68,0-2.5.62-2.5,1.46,0,2.5,6.72.46,6.72,4.58,0,1.92-1.76,3.15-4.58,3.15A7.65,7.65,0,0,1,99.28,437Z"/><path class="cls-103" d="M109.3,437l.8-1.53a6.73,6.73,0,0,0,3.72,1.11c1.78,0,2.52-.54,2.52-1.45,0-2.38-6.7-.32-6.7-4.54,0-1.9,1.7-3.18,4.42-3.18a7.71,7.71,0,0,1,3.86,1l-.82,1.52A5.54,5.54,0,0,0,114,429c-1.68,0-2.5.62-2.5,1.46,0,2.5,6.72.46,6.72,4.58,0,1.92-1.76,3.15-4.58,3.15A7.65,7.65,0,0,1,109.3,437Z"/><path class="cls-103" d="M120.44,424.4a1.18,1.18,0,0,1,2.36,0,1.18,1.18,0,1,1-2.36,0Zm.22,3.08h1.92v10.61h-1.92Z"/><path class="cls-103" d="M125.26,432.78a5.51,5.51,0,1,1,5.52,5.43A5.27,5.27,0,0,1,125.26,432.78Zm9.08,0a3.57,3.57,0,1,0-3.56,3.74A3.48,3.48,0,0,0,134.34,432.78Z"/><path class="cls-103" d="M149,432v6.11h-1.92V432.2c0-2.08-1-3.1-2.86-3.1-2,0-3.36,1.22-3.36,3.52v5.47h-1.92V427.48h1.84v1.6a4.54,4.54,0,0,1,3.82-1.7C147.18,427.38,149,428.86,149,432Z"/><path class="cls-103" d="M161,431.68v6.41h-1.82v-1.4a4,4,0,0,1-3.48,1.52c-2.4,0-3.92-1.28-3.92-3.13,0-1.7,1.1-3.1,4.26-3.1h3v-.38c0-1.62-.94-2.56-2.84-2.56a5.36,5.36,0,0,0-3.36,1.14l-.8-1.44a7.06,7.06,0,0,1,4.38-1.36C159.32,427.38,161,428.78,161,431.68ZM159,434.85v-1.49h-3c-1.9,0-2.44.74-2.44,1.64,0,1.06.88,1.73,2.34,1.73A3.09,3.09,0,0,0,159,434.85Z"/><path class="cls-103" d="M164.52,423.24h1.92v14.85h-1.92Z"/><path class="cls-103" d="M178.38,431.08a7.08,7.08,0,0,1,7.42-7.16,6.92,6.92,0,0,1,5.32,2.18l-1.3,1.26a5.19,5.19,0,0,0-3.94-1.66,5.39,5.39,0,1,0,0,10.77,5.18,5.18,0,0,0,3.94-1.69l1.3,1.27a7,7,0,0,1-5.34,2.2A7.08,7.08,0,0,1,178.38,431.08Z"/><path class="cls-103" d="M206,424.08l-6.14,14h-2l-6.16-14h2.16l5,11.5,5.08-11.5Z"/><path class="cls-103" d="M227,432v6.11h-1.92V432.2c0-2.08-1-3.1-2.86-3.1-2,0-3.36,1.22-3.36,3.52v5.47h-1.92V423.24h1.92V429a4.6,4.6,0,0,1,3.74-1.6C225.18,427.38,227,428.86,227,432Z"/><path class="cls-103" d="M239,431.68v6.41h-1.82v-1.4a4,4,0,0,1-3.48,1.52c-2.4,0-3.92-1.28-3.92-3.13,0-1.7,1.1-3.1,4.26-3.1h3v-.38c0-1.62-.94-2.56-2.84-2.56a5.36,5.36,0,0,0-3.36,1.14l-.8-1.44a7.06,7.06,0,0,1,4.38-1.36C237.32,427.38,239,428.78,239,431.68ZM237,434.85v-1.49h-3c-1.9,0-2.44.74-2.44,1.64,0,1.06.88,1.73,2.34,1.73A3.09,3.09,0,0,0,237,434.85Z"/><path class="cls-103" d="M250.38,436.51v1.58H241.5v-1.24l6.26-7.79h-6.14v-1.58h8.6v1.26L244,436.51Z"/><path class="cls-103" d="M252.94,427.48h1.92v10.61h-1.92Z"/><path class="cls-103" d="M264.22,427.38v1.86a3.39,3.39,0,0,0-.44,0c-2.06,0-3.34,1.26-3.34,3.58v5.29h-1.92V427.48h1.84v1.78C261,428,262.36,427.38,264.22,427.38Z"/><path class="cls-103" d="M266.58,423.24h1.92v14.85h-1.92Z"/><path class="cls-103" d="M280.56,431.68v6.41h-1.82v-1.4a4,4,0,0,1-3.48,1.52c-2.4,0-3.92-1.28-3.92-3.13,0-1.7,1.1-3.1,4.26-3.1h3v-.38c0-1.62-.94-2.56-2.84-2.56a5.36,5.36,0,0,0-3.36,1.14l-.8-1.44a7.06,7.06,0,0,1,4.38-1.36C278.92,427.38,280.56,428.78,280.56,431.68Zm-1.92,3.17v-1.49h-3c-1.9,0-2.44.74-2.44,1.64,0,1.06.88,1.73,2.34,1.73A3.09,3.09,0,0,0,278.64,434.85Z"/><path class="cls-103" d="M301.72,432v6.11H299.8V432.2c0-2.08-1-3.1-2.74-3.1-1.92,0-3.18,1.22-3.18,3.52v5.47H292V432.2c0-2.08-1-3.1-2.74-3.1-1.92,0-3.18,1.22-3.18,3.52v5.47h-1.92V427.48H286v1.58a4.3,4.3,0,0,1,3.66-1.68,3.92,3.92,0,0,1,3.68,2,4.78,4.78,0,0,1,4.08-2C300,427.38,301.72,428.86,301.72,432Z"/><path class="cls-103" d="M313.66,431.68v6.41h-1.82v-1.4a4,4,0,0,1-3.48,1.52c-2.4,0-3.92-1.28-3.92-3.13,0-1.7,1.1-3.1,4.26-3.1h3v-.38c0-1.62-.94-2.56-2.84-2.56a5.36,5.36,0,0,0-3.36,1.14l-.8-1.44a7.06,7.06,0,0,1,4.38-1.36C312,427.38,313.66,428.78,313.66,431.68Zm-1.92,3.17v-1.49h-3c-1.9,0-2.44.74-2.44,1.64,0,1.06.88,1.73,2.34,1.73A3.09,3.09,0,0,0,311.74,434.85Z"/><path class="cls-103" d="M333.12,438.09,330.06,434l-3.1,4.07h-2.14l4.18-5.43-4-5.18h2.14l2.92,3.82,2.9-3.82h2.1l-4,5.18,4.22,5.43Z"/><path class="cls-103" d="M337.18,424.4a1.18,1.18,0,0,1,2.36,0,1.18,1.18,0,0,1-2.36,0Zm.22,3.08h1.92v10.61H337.4Z"/><path class="cls-103" d="M353,423.24v14.85h-1.84V436.4a4.49,4.49,0,0,1-3.78,1.81,5.42,5.42,0,0,1,0-10.83,4.51,4.51,0,0,1,3.7,1.7v-5.84Zm-1.9,9.54a3.57,3.57,0,1,0-3.56,3.74A3.49,3.49,0,0,0,351.08,432.78Z"/><path class="cls-103" d="M374.22,432v6.11H372.3V432.2c0-2.08-1-3.1-2.74-3.1-1.92,0-3.18,1.22-3.18,3.52v5.47h-1.92V432.2c0-2.08-1-3.1-2.74-3.1-1.92,0-3.18,1.22-3.18,3.52v5.47h-1.92V427.48h1.84v1.58a4.3,4.3,0,0,1,3.66-1.68,3.92,3.92,0,0,1,3.68,2,4.78,4.78,0,0,1,4.08-2C372.46,427.38,374.22,428.86,374.22,432Z"/><path class="cls-103" d="M387.4,432.78a5.19,5.19,0,0,1-5.32,5.41,5.12,5.12,0,0,1-5.24-5.47c0-.16,0-.4,0-.58h8.6a3.59,3.59,0,0,0-3.84-3.1,4,4,0,0,0-3.06,1.28l-1.06-1.24a5.32,5.32,0,0,1,4.18-1.72C385.12,427.36,387.4,429.62,387.4,432.78Zm-1.92.74h-6.8a3.42,3.42,0,0,0,6.8,0Z"/><path class="cls-103" d="M389.38,431.76h5.38v1.66h-5.38Z"/><path class="cls-103" d="M52.72,461.47a3.62,3.62,0,0,1-2.32.74A3,3,0,0,1,47,458.89v-5.83h-1.8v-1.58H47v-2.32H49v2.32h3v1.58H49v5.75a1.57,1.57,0,0,0,1.66,1.78,2.48,2.48,0,0,0,1.5-.5Z"/><path class="cls-103" d="M54.6,448.4a1.18,1.18,0,0,1,2.36,0,1.18,1.18,0,0,1-2.36,0Zm.22,3.08h1.92v10.61H54.82Z"/><path class="cls-103" d="M70.24,456v6.11H68.31V456.2c0-2.08-1-3.1-2.86-3.1-2,0-3.36,1.22-3.36,3.52v5.47H60.17V451.48H62v1.6a4.54,4.54,0,0,1,3.82-1.7C68.41,451.38,70.24,452.86,70.24,456Z"/><path class="cls-103" d="M83.63,447.24v14.85H81.79V460.4A4.49,4.49,0,0,1,78,462.21a5.42,5.42,0,0,1,0-10.83,4.51,4.51,0,0,1,3.7,1.7v-5.84Zm-1.9,9.54a3.57,3.57,0,1,0-3.56,3.74A3.49,3.49,0,0,0,81.73,456.78Z"/><path class="cls-103" d="M96.63,456.78a5.19,5.19,0,0,1-5.32,5.41,5.12,5.12,0,0,1-5.24-5.47c0-.16,0-.4,0-.58h8.6a3.59,3.59,0,0,0-3.84-3.1,4,4,0,0,0-3.06,1.28l-1.06-1.24a5.32,5.32,0,0,1,4.18-1.72C94.35,451.36,96.63,453.62,96.63,456.78Zm-1.92.74h-6.8a3.42,3.42,0,0,0,6.8,0Z"/><path class="cls-103" d="M114.58,456.78a5.16,5.16,0,0,1-5.37,5.43,4.51,4.51,0,0,1-3.7-1.73V466h-1.92V451.48h1.84v1.68a4.51,4.51,0,0,1,3.78-1.78A5.15,5.15,0,0,1,114.58,456.78Zm-2,0a3.57,3.57,0,1,0-3.58,3.74A3.5,3.5,0,0,0,112.63,456.78Z"/><path class="cls-103" d="M126.55,457.42H118a3.59,3.59,0,0,0,3.84,3.1,4,4,0,0,0,3.06-1.28l1.06,1.24a5.33,5.33,0,0,1-4.18,1.73c-3.42,0-5.7-2.27-5.7-5.43a5.19,5.19,0,0,1,5.32-5.4,5.11,5.11,0,0,1,5.24,5.46C126.59,457,126.57,457.24,126.55,457.42ZM118,456h6.8a3.42,3.42,0,0,0-6.8,0Z"/><path class="cls-103" d="M132.65,462.19l-.24.9c1.16.12,1.74.78,1.74,1.66,0,1.12-1,1.82-2.48,1.82a3.36,3.36,0,0,1-1.78-.44l.42-1a2.64,2.64,0,0,0,1.36.34c.76,0,1.12-.3,1.12-.8s-.34-.78-1.14-.78h-.54l.44-1.72a7.34,7.34,0,0,1-3.86-1.22l.8-1.53a6.73,6.73,0,0,0,3.72,1.11c1.78,0,2.52-.54,2.52-1.45,0-2.38-6.7-.32-6.7-4.54,0-1.9,1.7-3.18,4.42-3.18a7.71,7.71,0,0,1,3.86,1l-.82,1.52a5.54,5.54,0,0,0-3.06-.84c-1.68,0-2.5.62-2.5,1.46,0,2.5,6.72.46,6.72,4.58C136.65,460.85,135.13,462,132.65,462.19Z"/><path class="cls-103" d="M148.41,456.78a5.19,5.19,0,0,1-5.32,5.41,5.12,5.12,0,0,1-5.24-5.47c0-.16,0-.4,0-.58h8.6a3.59,3.59,0,0,0-3.84-3.1,4,4,0,0,0-3.06,1.28l-1.06-1.24a5.32,5.32,0,0,1,4.18-1.72C146.13,451.36,148.41,453.62,148.41,456.78Zm-1.92.74h-6.8a3.42,3.42,0,0,0,6.8,0Z"/><path class="cls-103" d="M155,457.14l-2.2,2.05v2.9h-1.93V447.24h1.93v9.52l5.78-5.28h2.32l-4.46,4.38,4.9,6.23H159Z"/><path class="cls-103" d="M171.15,455.68v6.41h-1.83v-1.4a4,4,0,0,1-3.48,1.52c-2.4,0-3.92-1.28-3.92-3.13,0-1.7,1.1-3.1,4.26-3.1h3v-.38c0-1.62-.94-2.56-2.84-2.56a5.36,5.36,0,0,0-3.36,1.14l-.8-1.44a7.06,7.06,0,0,1,4.38-1.36C169.5,451.38,171.15,452.78,171.15,455.68Zm-1.93,3.17v-1.49h-3c-1.9,0-2.44.74-2.44,1.64,0,1.06.88,1.73,2.34,1.73A3.09,3.09,0,0,0,169.22,458.85Z"/><path class="cls-103" d="M180.18,451.38v1.86a3.39,3.39,0,0,0-.44,0c-2.06,0-3.34,1.26-3.34,3.58v5.29h-1.92V451.48h1.84v1.78C177,452,178.32,451.38,180.18,451.38Z"/><path class="cls-103" d="M191.11,457.14l-2.2,2.05v2.9H187V447.24h1.92v9.52l5.78-5.28H197l-4.46,4.38,4.9,6.23h-2.36Z"/><path class="cls-103" d="M197.66,456.78a5.52,5.52,0,1,1,5.52,5.43A5.27,5.27,0,0,1,197.66,456.78Zm9.08,0a3.57,3.57,0,1,0-3.56,3.74A3.48,3.48,0,0,0,206.74,456.78Z"/><path class="cls-103" d="M228.73,456v6.11h-1.92V456.2c0-2.08-1-3.1-2.75-3.1-1.92,0-3.18,1.22-3.18,3.52v5.47H219V456.2c0-2.08-1-3.1-2.74-3.1-1.92,0-3.18,1.22-3.18,3.52v5.47h-1.92V451.48H213v1.58a4.3,4.3,0,0,1,3.66-1.68,3.92,3.92,0,0,1,3.68,2,4.78,4.78,0,0,1,4.08-2C227,451.38,228.73,452.86,228.73,456Z"/><path class="cls-103" d="M240.44,455.68v6.41h-1.82v-1.4a4,4,0,0,1-3.48,1.52c-2.4,0-3.92-1.28-3.92-3.13,0-1.7,1.1-3.1,4.26-3.1h3v-.38c0-1.62-.94-2.56-2.84-2.56a5.36,5.36,0,0,0-3.36,1.14l-.8-1.44a7.06,7.06,0,0,1,4.38-1.36C238.8,451.38,240.44,452.78,240.44,455.68Zm-1.92,3.17v-1.49h-3c-1.9,0-2.44.74-2.44,1.64,0,1.06.88,1.73,2.34,1.73A3.09,3.09,0,0,0,238.52,458.85Z"/><path class="cls-103" d="M253.84,456v6.11h-1.92V456.2c0-2.08-1-3.1-2.86-3.1-2,0-3.36,1.22-3.36,3.52v5.47h-1.92V451.48h1.84v1.6a4.54,4.54,0,0,1,3.82-1.7C252,451.38,253.84,452.86,253.84,456Z"/><path class="cls-103" d="M267.24,447.24v14.85H265.4V460.4a4.49,4.49,0,0,1-3.78,1.81,5.42,5.42,0,0,1,0-10.83,4.51,4.51,0,0,1,3.7,1.7v-5.84Zm-1.9,9.54a3.57,3.57,0,1,0-3.56,3.74A3.49,3.49,0,0,0,265.34,456.78Z"/><path class="cls-103" d="M279.06,455.68v6.41h-1.83v-1.4a4,4,0,0,1-3.48,1.52c-2.4,0-3.92-1.28-3.92-3.13,0-1.7,1.1-3.1,4.26-3.1h3v-.38c0-1.62-.94-2.56-2.84-2.56a5.36,5.36,0,0,0-3.36,1.14l-.8-1.44a7.06,7.06,0,0,1,4.38-1.36C277.41,451.38,279.06,452.78,279.06,455.68Zm-1.93,3.17v-1.49h-3c-1.9,0-2.44.74-2.44,1.64,0,1.06.88,1.73,2.34,1.73A3.09,3.09,0,0,0,277.13,458.85Z"/><path class="cls-103" d="M300,456v6.11h-1.91V456.2c0-2.08-1-3.1-2.75-3.1-1.92,0-3.18,1.22-3.18,3.52v5.47h-1.92V456.2c0-2.08-1-3.1-2.74-3.1-1.92,0-3.18,1.22-3.18,3.52v5.47h-1.92V451.48h1.84v1.58a4.3,4.3,0,0,1,3.66-1.68,3.92,3.92,0,0,1,3.68,2,4.78,4.78,0,0,1,4.08-2C298.24,451.38,300,452.86,300,456Z"/><path class="cls-103" d="M303.31,451.48h1.92v10.61h-1.92Z"/><path class="cls-103" d="M316.53,460.51v1.58h-8.88v-1.24l6.26-7.79h-6.14v-1.58h8.6v1.26l-6.26,7.77Z"/><path class="cls-103" d="M329.35,461.47a3.62,3.62,0,0,1-2.32.74,3,3,0,0,1-3.36-3.32v-5.83h-1.8v-1.58h1.8v-2.32h1.92v2.32h3v1.58h-3v5.75a1.57,1.57,0,0,0,1.66,1.78,2.48,2.48,0,0,0,1.5-.5Z"/><path class="cls-103" d="M340.67,456.78a5.19,5.19,0,0,1-5.32,5.41,5.12,5.12,0,0,1-5.24-5.47c0-.16,0-.4,0-.58h8.6a3.59,3.59,0,0,0-3.84-3.1,4,4,0,0,0-3.06,1.28l-1.06-1.24a5.32,5.32,0,0,1,4.18-1.72C338.39,451.36,340.67,453.62,340.67,456.78Zm-1.92.74H332a3.42,3.42,0,0,0,6.8,0Z"/><path class="cls-103" d="M348.81,451.38v1.86a3.39,3.39,0,0,0-.44,0c-2.06,0-3.34,1.26-3.34,3.58v5.29h-1.92V451.48H345v1.78C345.63,452,347,451.38,348.81,451.38Z"/><path class="cls-103" d="M360.43,456.78a5.19,5.19,0,0,1-5.32,5.41,5.12,5.12,0,0,1-5.25-5.47c0-.16,0-.4,0-.58h8.61a3.59,3.59,0,0,0-3.84-3.1,4,4,0,0,0-3.07,1.28l-1.06-1.24a5.33,5.33,0,0,1,4.19-1.72C358.15,451.36,360.43,453.62,360.43,456.78Zm-1.92.74H351.7a3.43,3.43,0,0,0,6.81,0Z"/><path class="cls-103" d="M365,450.56v.92h3.08v1.58h-3v9h-1.92v-9h-1.8v-1.58h1.8v-.94a3.19,3.19,0,0,1,3.5-3.42,3.58,3.58,0,0,1,2.16.62l-.58,1.46a2.49,2.49,0,0,0-1.48-.5C365.6,448.7,365,449.34,365,450.56Z"/><path class="cls-103" d="M371.08,448.4a1.18,1.18,0,0,1,2.36,0,1.18,1.18,0,0,1-2.36,0Zm.22,3.08h1.92v10.61H371.3Z"/><path class="cls-103" d="M386.72,456v6.11H384.8V456.2c0-2.08-1-3.1-2.86-3.1-2,0-3.36,1.22-3.36,3.52v5.47h-1.92V451.48h1.84v1.6a4.54,4.54,0,0,1,3.82-1.7C384.9,451.38,386.72,452.86,386.72,456Z"/><path class="cls-103" d="M389.38,455.76h5.38v1.66h-5.38Z"/><path class="cls-103" d="M56.76,471.24v14.85H54.92V484.4a4.49,4.49,0,0,1-3.78,1.81,5.42,5.42,0,0,1,0-10.83,4.51,4.51,0,0,1,3.7,1.7v-5.84Zm-1.9,9.54a3.57,3.57,0,1,0-3.56,3.74A3.49,3.49,0,0,0,54.86,480.78Z"/><path class="cls-103" d="M70,480.78a5.19,5.19,0,0,1-5.32,5.41,5.12,5.12,0,0,1-5.24-5.47c0-.16,0-.4,0-.58h8.6a3.59,3.59,0,0,0-3.84-3.1,4,4,0,0,0-3.06,1.28l-1.06-1.24a5.32,5.32,0,0,1,4.18-1.72C67.7,475.36,70,477.62,70,480.78Zm-1.92.74h-6.8a3.42,3.42,0,0,0,6.8,0Z"/><path class="cls-103" d="M82.7,480v6.11H80.78V480.2c0-2.08-1-3.1-2.86-3.1-2,0-3.36,1.22-3.36,3.52v5.47H72.64V475.48h1.84v1.6a4.54,4.54,0,0,1,3.82-1.7C80.88,475.38,82.7,476.86,82.7,480Z"/><path class="cls-103" d="M91.75,479.08a7.08,7.08,0,0,1,7.43-7.16,6.92,6.92,0,0,1,5.32,2.18l-1.3,1.26a5.19,5.19,0,0,0-3.94-1.66,5.39,5.39,0,1,0,0,10.77,5.18,5.18,0,0,0,3.94-1.69l1.3,1.27a7,7,0,0,1-5.34,2.2A7.08,7.08,0,0,1,91.75,479.08Z"/><path class="cls-103" d="M119.38,472.08l-6.14,14h-2l-6.17-14h2.16l5,11.5,5.08-11.5Z"/><path class="cls-103" d="M120.62,472.08h1.67l-.13,5.4h-1.43Z"/><path class="cls-103" d="M135.44,480v6.11h-1.92V480.2c0-2.08-1-3.1-2.86-3.1-2,0-3.36,1.22-3.36,3.52v5.47h-1.93V475.48h1.85v1.6a4.54,4.54,0,0,1,3.82-1.7C133.62,475.38,135.44,476.86,135.44,480Z"/><path class="cls-103" d="M138.78,472.4a1.18,1.18,0,1,1,1.17,1.18A1.15,1.15,0,0,1,138.78,472.4Zm.21,3.08h1.93v10.61H139Z"/><path class="cls-103" d="M152.44,484.51v1.58h-8.89v-1.24l6.27-7.79h-6.15v-1.58h8.61v1.26L146,484.51Z"/><path class="cls-103" d="M154.78,472.4a1.18,1.18,0,1,1,1.17,1.18A1.15,1.15,0,0,1,154.78,472.4Zm.21,3.08h1.93v10.61H155Z"/><path class="cls-103" d="M176.93,475.48V490H175v-5.49a4.51,4.51,0,0,1-3.7,1.73,5.42,5.42,0,0,1,0-10.83,4.51,4.51,0,0,1,3.78,1.78v-1.68Zm-1.9,5.3a3.57,3.57,0,1,0-3.56,3.74A3.5,3.5,0,0,0,175,480.78Z"/><path class="cls-103" d="M190.45,475.48v10.61h-1.82v-1.61a4.29,4.29,0,0,1-3.6,1.73c-2.74,0-4.56-1.5-4.56-4.63v-6.1h1.92v5.88c0,2.08,1,3.12,2.86,3.12,2,0,3.28-1.24,3.28-3.52v-5.48Z"/><path class="cls-103" d="M199.81,475.38v1.86a3.39,3.39,0,0,0-.44,0c-2.06,0-3.34,1.26-3.34,3.58v5.29h-1.92V475.48H196v1.78C196.63,476,198,475.38,199.81,475.38Z"/><path class="cls-103" d="M212.19,475.48v10.61h-1.82v-1.61a4.29,4.29,0,0,1-3.6,1.73c-2.74,0-4.56-1.5-4.56-4.63v-6.1h1.92v5.88c0,2.08,1,3.12,2.86,3.12,2,0,3.28-1.24,3.28-3.52v-5.48Z"/><path class="cls-103" d="M215.85,471.24h1.92v14.85h-1.92Z"/><path class="cls-103" d="M231.31,475.48v10.61h-1.82v-1.61a4.29,4.29,0,0,1-3.6,1.73c-2.74,0-4.56-1.5-4.56-4.63v-6.1h1.92v5.88c0,2.08,1,3.12,2.86,3.12,2,0,3.28-1.24,3.28-3.52v-5.48Z"/><path class="cls-103" d="M238.59,486.19l-.24.9c1.16.12,1.74.78,1.74,1.66,0,1.12-1,1.82-2.48,1.82a3.36,3.36,0,0,1-1.78-.44l.42-1a2.64,2.64,0,0,0,1.36.34c.76,0,1.12-.3,1.12-.8s-.34-.78-1.14-.78h-.54l.44-1.72a7.34,7.34,0,0,1-3.86-1.22l.8-1.53a6.73,6.73,0,0,0,3.72,1.11c1.78,0,2.52-.54,2.52-1.45,0-2.38-6.7-.32-6.7-4.54,0-1.9,1.7-3.18,4.42-3.18a7.71,7.71,0,0,1,3.86,1l-.82,1.52a5.54,5.54,0,0,0-3.06-.84c-1.68,0-2.5.62-2.5,1.46,0,2.5,6.72.46,6.72,4.58C242.59,484.85,241.07,486,238.59,486.19Z"/><path class="cls-103" d="M260.73,475.48l-4.64,10.61h-2l-4.64-10.61h2l3.64,8.5,3.72-8.5Z"/><path class="cls-103" d="M271.81,480.78a5.19,5.19,0,0,1-5.32,5.41,5.12,5.12,0,0,1-5.24-5.47c0-.16,0-.4,0-.58h8.6a3.59,3.59,0,0,0-3.84-3.1,4,4,0,0,0-3.06,1.28l-1.06-1.24a5.32,5.32,0,0,1,4.18-1.72C269.53,475.36,271.81,477.62,271.81,480.78Zm-1.92.74h-6.8a3.42,3.42,0,0,0,6.8,0Z"/><path class="cls-103" d="M283,474.56v.92h3.08v1.58h-3v9H281.1v-9h-1.8v-1.58h1.8v-.94a3.19,3.19,0,0,1,3.5-3.42,3.58,3.58,0,0,1,2.16.62l-.58,1.46a2.49,2.49,0,0,0-1.48-.5C283.56,472.7,283,473.34,283,474.56Z"/><path class="cls-103" d="M286.74,480.78a5.51,5.51,0,1,1,5.52,5.43A5.27,5.27,0,0,1,286.74,480.78Zm9.08,0a3.57,3.57,0,1,0-3.56,3.74A3.48,3.48,0,0,0,295.82,480.78Z"/><path class="cls-103" d="M306.12,475.38v1.86a3.39,3.39,0,0,0-.44,0c-2.06,0-3.34,1.26-3.34,3.58v5.29h-1.92V475.48h1.84v1.78C302.94,476,304.26,475.38,306.12,475.38Z"/><path class="cls-103" d="M326.09,480v6.11h-1.92V480.2c0-2.08-1-3.1-2.75-3.1-1.92,0-3.18,1.22-3.18,3.52v5.47h-1.92V480.2c0-2.08-1-3.1-2.74-3.1-1.92,0-3.18,1.22-3.18,3.52v5.47h-1.92V475.48h1.84v1.58a4.3,4.3,0,0,1,3.66-1.68,3.92,3.92,0,0,1,3.68,2,4.79,4.79,0,0,1,4.08-2C324.33,475.38,326.09,476.86,326.09,480Z"/><path class="cls-103" d="M338,479.68v6.41H336.2v-1.4a4,4,0,0,1-3.48,1.52c-2.4,0-3.92-1.28-3.92-3.13,0-1.7,1.1-3.1,4.26-3.1h3v-.38c0-1.62-.94-2.56-2.84-2.56a5.36,5.36,0,0,0-3.36,1.14l-.8-1.44a7.06,7.06,0,0,1,4.38-1.36C336.38,475.38,338,476.78,338,479.68Zm-1.92,3.17v-1.49h-3c-1.9,0-2.44.74-2.44,1.64,0,1.06.88,1.73,2.34,1.73A3.09,3.09,0,0,0,336.1,482.85Z"/><path class="cls-103" d="M358.92,480.78a5.17,5.17,0,0,1-5.36,5.43,4.49,4.49,0,0,1-3.78-1.81v1.69h-1.84V471.24h1.92v5.84a4.51,4.51,0,0,1,3.7-1.7A5.14,5.14,0,0,1,358.92,480.78Zm-1.94,0a3.57,3.57,0,1,0-3.58,3.74A3.49,3.49,0,0,0,357,480.78Z"/><path class="cls-103" d="M369.88,479.68v6.41h-1.82v-1.4a4,4,0,0,1-3.48,1.52c-2.4,0-3.92-1.28-3.92-3.13,0-1.7,1.1-3.1,4.26-3.1h3v-.38c0-1.62-.94-2.56-2.84-2.56a5.36,5.36,0,0,0-3.36,1.14l-.8-1.44a7.06,7.06,0,0,1,4.38-1.36C368.24,475.38,369.88,476.78,369.88,479.68ZM368,482.85v-1.49h-3c-1.9,0-2.44.74-2.44,1.64,0,1.06.88,1.73,2.34,1.73A3.09,3.09,0,0,0,368,482.85Z"/><path class="cls-103" d="M380.2,486.09,377.14,482l-3.1,4.07H371.9l4.18-5.43-4-5.18h2.14l2.92,3.82,2.9-3.82h2.1l-4,5.18,4.22,5.43Z"/><path class="cls-103" d="M384.48,475.48h1.92v10.61h-1.92Z"/><path class="cls-103" d="M389.38,479.76h5.38v1.66h-5.38Z"/><path class="cls-103" d="M64.36,504v6.11H62.44V504.2c0-2.08-1-3.1-2.74-3.1-1.92,0-3.18,1.22-3.18,3.52v5.47H54.6V504.2c0-2.08-1-3.1-2.74-3.1-1.92,0-3.18,1.22-3.18,3.52v5.47H46.76V499.48H48.6v1.58a4.3,4.3,0,0,1,3.66-1.68,3.92,3.92,0,0,1,3.68,2,4.78,4.78,0,0,1,4.08-2C62.6,499.38,64.36,500.86,64.36,504Z"/><path class="cls-103" d="M67.9,499.48h1.92v10.61H67.9Z"/><path class="cls-103" d="M83.54,504v6.11H81.62V504.2c0-2.08-1-3.1-2.86-3.1-2,0-3.36,1.22-3.36,3.52v5.47H73.48V499.48h1.84v1.6a4.54,4.54,0,0,1,3.82-1.7C81.72,499.38,83.54,500.86,83.54,504Z"/><path class="cls-103" d="M97.16,495.24v14.85H95.32V508.4a4.49,4.49,0,0,1-3.78,1.81,5.42,5.42,0,0,1,0-10.83,4.51,4.51,0,0,1,3.7,1.7v-5.84Zm-1.9,9.54a3.57,3.57,0,1,0-3.56,3.74A3.49,3.49,0,0,0,95.26,504.78Z"/><path class="cls-103" d="M109.2,503.68v6.41h-1.82v-1.4a4,4,0,0,1-3.48,1.52c-2.4,0-3.92-1.28-3.92-3.13,0-1.7,1.1-3.1,4.26-3.1h3v-.38c0-1.62-.94-2.56-2.84-2.56a5.36,5.36,0,0,0-3.36,1.14l-.8-1.44a7.06,7.06,0,0,1,4.38-1.36C107.56,499.38,109.2,500.78,109.2,503.68Zm-1.92,3.17v-1.49h-3c-1.9,0-2.44.74-2.44,1.64,0,1.06.88,1.73,2.34,1.73A3.09,3.09,0,0,0,107.28,506.85Z"/><path class="cls-103" d="M122.82,504v6.11H120.9V504.2c0-2.08-1-3.1-2.86-3.1-2,0-3.36,1.22-3.36,3.52v5.47h-1.92V499.48h1.84v1.6a4.54,4.54,0,0,1,3.82-1.7C121,499.38,122.82,500.86,122.82,504Z"/><path class="cls-103" d="M142.65,499.48v9.16c0,3.75-1.9,5.45-5.5,5.45a7.85,7.85,0,0,1-5.06-1.58L133,511a6.47,6.47,0,0,0,4.08,1.38c2.5,0,3.64-1.16,3.64-3.56V508a4.87,4.87,0,0,1-3.82,1.63,5.14,5.14,0,1,1,0-10.26,4.84,4.84,0,0,1,3.92,1.74v-1.64Zm-1.88,5a3.66,3.66,0,0,0-7.3,0,3.65,3.65,0,0,0,7.3,0Z"/><path class="cls-103" d="M156.19,499.48v10.61h-1.82v-1.61a4.29,4.29,0,0,1-3.6,1.73c-2.74,0-4.56-1.5-4.56-4.63v-6.1h1.92v5.88c0,2.08,1,3.12,2.86,3.12,2,0,3.28-1.24,3.28-3.52v-5.48Zm-7.86-2.9a1,1,0,1,1,2,0,1,1,0,0,1-2,0Zm3.72,0a1,1,0,1,1,2,0,1,1,0,0,1-2,0Z"/><path class="cls-103" d="M158.87,504.78a5.3,5.3,0,0,1,5.6-5.4,4.73,4.73,0,0,1,4.32,2.26l-1.46.94a3.3,3.3,0,0,0-2.88-1.52,3.73,3.73,0,0,0,0,7.46,3.28,3.28,0,0,0,2.88-1.52l1.46.93a4.74,4.74,0,0,1-4.32,2.28A5.32,5.32,0,0,1,158.87,504.78Z"/><path class="cls-103" d="M171.13,495.24h1.92v14.85h-1.92Z"/><path class="cls-103" d="M186.29,504.78a5.19,5.19,0,0,1-5.32,5.41,5.12,5.12,0,0,1-5.24-5.47c0-.16,0-.4,0-.58h8.6a3.59,3.59,0,0,0-3.84-3.1,4,4,0,0,0-3.06,1.28l-1.06-1.24a5.32,5.32,0,0,1,4.18-1.72C184,499.36,186.29,501.62,186.29,504.78Zm-1.92.74h-6.8a3.42,3.42,0,0,0,6.8,0Z"/><path class="cls-103" d="M199,504v6.11h-1.92V504.2c0-2.08-1-3.1-2.86-3.1-2,0-3.36,1.22-3.36,3.52v5.47H189V499.48h1.84v1.6a4.54,4.54,0,0,1,3.82-1.7C197.19,499.38,199,500.86,199,504Z"/><path class="cls-103" d="M212.63,495.24v14.85h-1.84V508.4a4.49,4.49,0,0,1-3.78,1.81,5.42,5.42,0,0,1,0-10.83,4.51,4.51,0,0,1,3.7,1.7v-5.84Zm-1.9,9.54a3.57,3.57,0,1,0-3.56,3.74A3.49,3.49,0,0,0,210.73,504.78Z"/><path class="cls-103" d="M216.05,496.4a1.18,1.18,0,0,1,2.36,0,1.18,1.18,0,0,1-2.36,0Zm.22,3.08h1.92v10.61h-1.92Z"/><path class="cls-103" d="M227.55,499.38v1.86a3.39,3.39,0,0,0-.44,0c-2.06,0-3.34,1.26-3.34,3.58v5.29h-1.92V499.48h1.84v1.78C224.37,500,225.69,499.38,227.55,499.38Z"/><path class="cls-103" d="M229.69,496.4a1.18,1.18,0,0,1,2.36,0,1.18,1.18,0,0,1-2.36,0Zm.22,3.08h1.92v10.61h-1.92Z"/><path class="cls-103" d="M246.47,504.78a5.17,5.17,0,0,1-5.36,5.43,4.49,4.49,0,0,1-3.78-1.81v1.69h-1.84V495.24h1.92v5.84a4.51,4.51,0,0,1,3.7-1.7A5.14,5.14,0,0,1,246.47,504.78Zm-1.94,0a3.57,3.57,0,1,0-3.58,3.74A3.49,3.49,0,0,0,244.53,504.78Z"/><path class="cls-103" d="M250.67,508.82a4.09,4.09,0,0,1-.34,1.45l-.94,2.78h-1.26l.74-3a1.28,1.28,0,0,1-.84-1.25,1.3,1.3,0,0,1,1.34-1.35A1.29,1.29,0,0,1,250.67,508.82Z"/><path class="cls-103" d="M258.58,504.78a5.52,5.52,0,1,1,5.53,5.43A5.28,5.28,0,0,1,258.58,504.78Zm9.09,0a3.57,3.57,0,1,0-3.56,3.74A3.48,3.48,0,0,0,267.67,504.78Zm-6.46-8.2a1,1,0,1,1,2,0,1,1,0,0,1-2,0Zm3.72,0a1,1,0,1,1,2,0,1,1,0,0,1-2,0Z"/><path class="cls-103" d="M280,508.51v1.58h-8.89v-1.24l6.27-7.79H271.2v-1.58h8.61v1.26l-6.27,7.77Z"/><path class="cls-103" d="M292,504.78a5.2,5.2,0,0,1-5.33,5.41,5.12,5.12,0,0,1-5.24-5.47c0-.16,0-.4,0-.58H290a3.59,3.59,0,0,0-3.84-3.1,4,4,0,0,0-3.07,1.28l-1.06-1.24a5.32,5.32,0,0,1,4.18-1.72C289.67,499.36,292,501.62,292,504.78Zm-1.92.74h-6.81a3.43,3.43,0,0,0,6.81,0Z"/><path class="cls-103" d="M294.6,495.24h1.93v14.85H294.6Z"/><path class="cls-103" d="M316.32,495.24v14.85h-1.84V508.4a4.49,4.49,0,0,1-3.78,1.81,5.42,5.42,0,0,1,0-10.83,4.51,4.51,0,0,1,3.7,1.7v-5.84Zm-1.9,9.54a3.57,3.57,0,1,0-3.56,3.74A3.49,3.49,0,0,0,314.42,504.78Z"/><path class="cls-103" d="M319.74,496.4a1.18,1.18,0,0,1,2.36,0,1.18,1.18,0,1,1-2.36,0Zm.22,3.08h1.92v10.61H320Z"/><path class="cls-103" d="M333.4,508.51v1.58h-8.88v-1.24l6.26-7.79h-6.14v-1.58h8.6v1.26L327,508.51Z"/><path class="cls-103" d="M344.36,503.68v6.41h-1.82v-1.4a4,4,0,0,1-3.48,1.52c-2.4,0-3.92-1.28-3.92-3.13,0-1.7,1.1-3.1,4.26-3.1h3v-.38c0-1.62-.94-2.56-2.84-2.56a5.36,5.36,0,0,0-3.36,1.14l-.8-1.44a7.06,7.06,0,0,1,4.38-1.36C342.72,499.38,344.36,500.78,344.36,503.68Zm-1.92,3.17v-1.49h-3c-1.9,0-2.44.74-2.44,1.64,0,1.06.88,1.73,2.34,1.73A3.09,3.09,0,0,0,342.44,506.85Z"/><path class="cls-103" d="M357.1,499.48,352,511.15c-.94,2.24-2.16,2.94-3.78,2.94a4,4,0,0,1-2.72-1l.82-1.44a2.71,2.71,0,0,0,1.9.78c.92,0,1.5-.42,2-1.64l.34-.74-4.68-10.59h2l3.7,8.49,3.66-8.49Z"/><path class="cls-103" d="M369,504v6.11H367V504.2c0-2.08-1-3.1-2.86-3.1-2,0-3.36,1.22-3.36,3.52v5.47H358.9V499.48h1.84v1.6a4.54,4.54,0,0,1,3.82-1.7C367.14,499.38,369,500.86,369,504Z"/><path class="cls-103" d="M372.52,495.24h1.92v14.85h-1.92Z"/><path class="cls-103" d="M386.5,503.68v6.41h-1.82v-1.4a4,4,0,0,1-3.48,1.52c-2.4,0-3.92-1.28-3.92-3.13,0-1.7,1.1-3.1,4.26-3.1h3v-.38c0-1.62-.94-2.56-2.84-2.56a5.36,5.36,0,0,0-3.36,1.14l-.8-1.44a7.06,7.06,0,0,1,4.38-1.36C384.86,499.38,386.5,500.78,386.5,503.68Zm-1.92,3.17v-1.49h-3c-1.9,0-2.44.74-2.44,1.64,0,1.06.88,1.73,2.34,1.73A3.09,3.09,0,0,0,384.58,506.85Z"/><path class="cls-103" d="M389.38,503.76h5.38v1.66h-5.38Z"/><path class="cls-103" d="M52.46,523.38v1.86a3.39,3.39,0,0,0-.44,0c-2.06,0-3.34,1.26-3.34,3.58v5.29H46.76V523.48H48.6v1.78C49.28,524,50.6,523.38,52.46,523.38Z"/><path class="cls-103" d="M54.64,523.48h1.92v10.61H54.64Z"/><path class="cls-103" d="M77.64,528v6.11H75.72V528.2c0-2.08-1-3.1-2.74-3.1-1.92,0-3.18,1.22-3.18,3.52v5.47H67.88V528.2c0-2.08-1-3.1-2.74-3.1-1.93,0-3.19,1.22-3.19,3.52v5.47H60V523.48h1.84v1.58a4.32,4.32,0,0,1,3.67-1.68,3.92,3.92,0,0,1,3.68,2,4.78,4.78,0,0,1,4.08-2C75.88,523.38,77.64,524.86,77.64,528Z"/><path class="cls-103" d="M81,523.48h1.92v10.61H81Z"/><path class="cls-103" d="M94.25,532.51v1.58H85.37v-1.24l6.26-7.79H85.49v-1.58h8.6v1.26l-6.26,7.77Z"/><path class="cls-103" d="M100.89,520.4a1.18,1.18,0,0,1,2.36,0,1.18,1.18,0,1,1-2.36,0Zm.22,3.08H103v10.61h-1.93Z"/><path class="cls-103" d="M106.51,519.24h1.92v14.85h-1.92Z"/><path class="cls-103" d="M121.49,528.78a5.19,5.19,0,0,1-5.32,5.41,5.12,5.12,0,0,1-5.24-5.47c0-.16,0-.4,0-.58h8.6a3.59,3.59,0,0,0-3.84-3.1,4,4,0,0,0-3.06,1.28l-1.06-1.24a5.32,5.32,0,0,1,4.18-1.72C119.21,523.36,121.49,525.62,121.49,528.78Zm-1.92.74h-6.8a3.42,3.42,0,0,0,6.8,0Z"/><path class="cls-103" d="M128.24,520.4a1.18,1.18,0,1,1,1.17,1.18A1.15,1.15,0,0,1,128.24,520.4Zm.21,3.08h1.93v10.61h-1.93Z"/><path class="cls-103" d="M137.47,534.19l-.24.9c1.16.12,1.74.78,1.74,1.66,0,1.12-1,1.82-2.48,1.82a3.36,3.36,0,0,1-1.78-.44l.42-1a2.64,2.64,0,0,0,1.36.34c.76,0,1.12-.3,1.12-.8s-.34-.78-1.14-.78h-.54l.44-1.72a7.34,7.34,0,0,1-3.86-1.22l.8-1.53a6.73,6.73,0,0,0,3.72,1.11c1.78,0,2.52-.54,2.52-1.45,0-2.38-6.7-.32-6.7-4.54,0-1.9,1.7-3.18,4.42-3.18a7.71,7.71,0,0,1,3.86,1l-.82,1.52a5.54,5.54,0,0,0-3.06-.84c-1.68,0-2.5.62-2.5,1.46,0,2.5,6.72.46,6.72,4.58C141.47,532.85,140,534,137.47,534.19Z"/><path class="cls-103" d="M165.78,528v6.11h-1.92V528.2c0-2.08-1-3.1-2.74-3.1-1.92,0-3.18,1.22-3.18,3.52v5.47H156V528.2c0-2.08-1-3.1-2.74-3.1-1.92,0-3.18,1.22-3.18,3.52v5.47h-1.92V523.48H150v1.58a4.3,4.3,0,0,1,3.66-1.68,3.92,3.92,0,0,1,3.68,2,4.78,4.78,0,0,1,4.08-2C164,523.38,165.78,524.86,165.78,528Z"/><path class="cls-103" d="M179,523.48v10.61H177.2v-1.61a4.33,4.33,0,0,1-3.61,1.73c-2.74,0-4.56-1.5-4.56-4.63v-6.1H171v5.88c0,2.08,1,3.12,2.86,3.12,2,0,3.29-1.24,3.29-3.52v-5.48Zm-7.87-2.9a1,1,0,1,1,2,0,1,1,0,0,1-2,0Zm3.72,0a1,1,0,1,1,2,0,1,1,0,1,1-2,0Z"/><path class="cls-103" d="M188.19,523.38v1.86a3.39,3.39,0,0,0-.44,0c-2.06,0-3.34,1.26-3.34,3.58v5.29h-1.92V523.48h1.84v1.78C185,524,186.33,523.38,188.19,523.38Z"/><path class="cls-103" d="M198.75,527.68v6.41h-1.82v-1.4a4,4,0,0,1-3.48,1.52c-2.4,0-3.92-1.28-3.92-3.13s1.1-3.1,4.26-3.1h3v-.38c0-1.62-.94-2.56-2.84-2.56a5.36,5.36,0,0,0-3.36,1.14l-.8-1.44a7.06,7.06,0,0,1,4.38-1.36C197.11,523.38,198.75,524.78,198.75,527.68Zm-1.92,3.17v-1.49h-3c-1.9,0-2.44.74-2.44,1.64,0,1.06.88,1.73,2.34,1.73A3.09,3.09,0,0,0,196.83,530.85Z"/><path class="cls-103" d="M201.21,528.78a5.3,5.3,0,0,1,5.6-5.4,4.73,4.73,0,0,1,4.32,2.26l-1.46.94a3.3,3.3,0,0,0-2.88-1.52,3.73,3.73,0,0,0,0,7.46,3.28,3.28,0,0,0,2.88-1.52l1.46.93a4.74,4.74,0,0,1-4.32,2.28A5.32,5.32,0,0,1,201.21,528.78Z"/><path class="cls-103" d="M213.21,520.4a1.18,1.18,0,0,1,2.36,0,1.18,1.18,0,1,1-2.36,0Zm.22,3.08h1.92v10.61h-1.92Z"/><path class="cls-103" d="M228.41,528.78a5.2,5.2,0,0,1-5.33,5.41,5.12,5.12,0,0,1-5.24-5.47c0-.16,0-.4,0-.58h8.61a3.6,3.6,0,0,0-3.84-3.1,4,4,0,0,0-3.07,1.28l-1.06-1.24a5.32,5.32,0,0,1,4.18-1.72C226.13,523.36,228.41,525.62,228.41,528.78Zm-1.92.74h-6.81a3.43,3.43,0,0,0,6.81,0Z"/><path class="cls-103" d="M236.84,533.47a3.62,3.62,0,0,1-2.32.74,3,3,0,0,1-3.36-3.32v-5.83h-1.8v-1.58h1.8v-2.32h1.92v2.32h3v1.58h-3v5.75a1.57,1.57,0,0,0,1.66,1.78,2.48,2.48,0,0,0,1.5-.5Z"/><path class="cls-103" d="M239,519.24h1.92v14.85H239Z"/><path class="cls-103" d="M254,528.78a5.19,5.19,0,0,1-5.32,5.41,5.12,5.12,0,0,1-5.24-5.47c0-.16,0-.4,0-.58H252a3.59,3.59,0,0,0-3.84-3.1,4,4,0,0,0-3.06,1.28l-1.06-1.24a5.32,5.32,0,0,1,4.18-1.72C251.68,523.36,254,525.62,254,528.78Zm-1.92.74h-6.8a3.42,3.42,0,0,0,6.8,0Z"/><path class="cls-103" d="M262.14,523.38v1.86a3.39,3.39,0,0,0-.44,0c-2.06,0-3.34,1.26-3.34,3.58v5.29h-1.92V523.48h1.84v1.78C259,524,260.28,523.38,262.14,523.38Z"/><path class="cls-103" d="M264.09,520.4a1.18,1.18,0,0,1,2.36,0,1.18,1.18,0,0,1-2.36,0Zm.22,3.08h1.93v10.61h-1.93Z"/><path class="cls-103" d="M279.78,528v6.11h-1.93V528.2c0-2.08-1-3.1-2.86-3.1-2,0-3.36,1.22-3.36,3.52v5.47h-1.92V523.48h1.84v1.6a4.54,4.54,0,0,1,3.82-1.7C278,523.38,279.78,524.86,279.78,528Z"/><path class="cls-103" d="M293.21,519.24v14.85h-1.84V532.4a4.49,4.49,0,0,1-3.78,1.81,5.42,5.42,0,0,1,0-10.83,4.51,4.51,0,0,1,3.7,1.7v-5.84Zm-1.9,9.54a3.57,3.57,0,1,0-3.56,3.74A3.49,3.49,0,0,0,291.31,528.78Z"/><path class="cls-103" d="M306.25,528.78a5.19,5.19,0,0,1-5.32,5.41,5.12,5.12,0,0,1-5.24-5.47c0-.16,0-.4,0-.58h8.6a3.59,3.59,0,0,0-3.84-3.1,4,4,0,0,0-3.06,1.28l-1.06-1.24a5.32,5.32,0,0,1,4.18-1.72C304,523.36,306.25,525.62,306.25,528.78Zm-1.92.74h-6.8a3.42,3.42,0,0,0,6.8,0Z"/><path class="cls-103" d="M323.09,523.48v10.61h-1.82v-1.61a4.29,4.29,0,0,1-3.6,1.73c-2.74,0-4.56-1.5-4.56-4.63v-6.1H315v5.88c0,2.08,1,3.12,2.86,3.12,2,0,3.28-1.24,3.28-3.52v-5.48Zm-7.86-2.9a1,1,0,1,1,2,0,1,1,0,0,1-2,0Zm3.72,0a1,1,0,1,1,2,0,1,1,0,1,1-2,0Z"/><path class="cls-103" d="M325.23,533l.8-1.53a6.73,6.73,0,0,0,3.72,1.11c1.78,0,2.52-.54,2.52-1.45,0-2.38-6.7-.32-6.7-4.54,0-1.9,1.7-3.18,4.42-3.18a7.71,7.71,0,0,1,3.86,1l-.82,1.52A5.54,5.54,0,0,0,330,525c-1.68,0-2.5.62-2.5,1.46,0,2.5,6.72.46,6.72,4.58,0,1.92-1.76,3.15-4.58,3.15A7.65,7.65,0,0,1,325.23,533Z"/><path class="cls-103" d="M342.37,533.47a3.62,3.62,0,0,1-2.32.74,3,3,0,0,1-3.36-3.32v-5.83h-1.8v-1.58h1.8v-2.32h1.92v2.32h3v1.58h-3v5.75a1.57,1.57,0,0,0,1.66,1.78,2.48,2.48,0,0,0,1.5-.5Z"/><path class="cls-103" d="M354.39,523.48v10.61h-1.82v-1.61a4.29,4.29,0,0,1-3.6,1.73c-2.74,0-4.56-1.5-4.56-4.63v-6.1h1.92v5.88c0,2.08,1,3.12,2.86,3.12,2,0,3.28-1.24,3.28-3.52v-5.48Zm-7.86-2.9a1,1,0,1,1,2,0,1,1,0,1,1-2,0Zm3.72,0a1,1,0,1,1,2,0,1,1,0,1,1-2,0Z"/><path class="cls-103" d="M367.93,528v6.11H366V528.2c0-2.08-1-3.1-2.86-3.1-2,0-3.36,1.22-3.36,3.52v5.47h-1.93V523.48h1.84v1.6a4.56,4.56,0,0,1,3.83-1.7C366.11,523.38,367.93,524.86,367.93,528Z"/><path class="cls-103" d="M371.3,519.24h1.92v14.85H371.3Z"/><path class="cls-103" d="M386.58,523.48v10.61h-1.82v-1.61a4.29,4.29,0,0,1-3.6,1.73c-2.74,0-4.56-1.5-4.56-4.63v-6.1h1.92v5.88c0,2.08,1,3.12,2.86,3.12,2,0,3.28-1.24,3.28-3.52v-5.48Zm-7.86-2.9a1,1,0,1,1,2,0,1,1,0,0,1-2,0Zm3.72,0a1,1,0,1,1,2,0,1,1,0,1,1-2,0Z"/><path class="cls-103" d="M389.38,527.76h5.38v1.66h-5.38Z"/><path class="cls-103" d="M56.14,547.48,51,559.15c-.94,2.24-2.16,2.94-3.78,2.94a4,4,0,0,1-2.72-1l.82-1.44a2.71,2.71,0,0,0,1.9.78c.92,0,1.5-.42,2-1.64l.34-.74L44.9,547.48h2L50.6,556l3.66-8.49Z"/><path class="cls-103" d="M67.82,547.48v10.61H66v-1.61a4.29,4.29,0,0,1-3.6,1.73c-2.74,0-4.56-1.5-4.56-4.63v-6.1h1.92v5.88c0,2.08,1,3.12,2.86,3.12,2,0,3.28-1.24,3.28-3.52v-5.48ZM60,544.58a1,1,0,1,1,2,0,1,1,0,0,1-2,0Zm3.72,0a1,1,0,1,1,2,0,1,1,0,1,1-2,0Z"/><path class="cls-103" d="M81.54,552v6.11H79.62V552.2c0-2.08-1-3.1-2.86-3.1-2,0-3.36,1.22-3.36,3.52v5.47H71.48V547.48h1.84v1.6a4.54,4.54,0,0,1,3.82-1.7C79.72,547.38,81.54,548.86,81.54,552Z"/><path class="cls-103" d="M95,547.48v10.61H93.16v-1.61a4.29,4.29,0,0,1-3.6,1.73c-2.74,0-4.56-1.5-4.56-4.63v-6.1h1.92v5.88c0,2.08,1,3.12,2.86,3.12,2,0,3.28-1.24,3.28-3.52v-5.48Zm-7.86-2.9a1,1,0,1,1,2,0,1,1,0,0,1-2,0Zm3.72,0a1,1,0,1,1,2,0,1,1,0,0,1-2,0Z"/><path class="cls-103" d="M106.5,556.51v1.58H97.62v-1.24l6.26-7.79H97.74v-1.58h8.6v1.26l-6.26,7.77Z"/><path class="cls-103" d="M118.94,547.48v10.61h-1.82v-1.61a4.29,4.29,0,0,1-3.6,1.73c-2.74,0-4.56-1.5-4.56-4.63v-6.1h1.92v5.88c0,2.08,1,3.12,2.86,3.12,2,0,3.28-1.24,3.28-3.52v-5.48Zm-7.86-2.9a1,1,0,1,1,2,0,1,1,0,0,1-2,0Zm3.72,0a1,1,0,1,1,2,0,1,1,0,0,1-2,0Z"/><path class="cls-103" d="M127,552.78a5.51,5.51,0,1,1,5.52,5.43A5.27,5.27,0,0,1,127,552.78Zm9.08,0a3.57,3.57,0,1,0-3.56,3.74A3.48,3.48,0,0,0,136.08,552.78Z"/><path class="cls-103" d="M146.38,547.38v1.86a3.39,3.39,0,0,0-.44,0c-2.06,0-3.34,1.26-3.34,3.58v5.29h-1.92V547.48h1.84v1.78C143.2,548,144.52,547.38,146.38,547.38Z"/><path class="cls-103" d="M155.14,557.47a3.62,3.62,0,0,1-2.32.74,3,3,0,0,1-3.36-3.32v-5.83h-1.8v-1.58h1.8v-2.32h1.92v2.32h3v1.58h-3v5.75a1.57,1.57,0,0,0,1.66,1.78,2.48,2.48,0,0,0,1.5-.5Z"/><path class="cls-103" d="M165.86,551.68v6.41H164v-1.4a4,4,0,0,1-3.48,1.52c-2.4,0-3.92-1.28-3.92-3.13s1.1-3.1,4.26-3.1h3v-.38c0-1.62-.94-2.56-2.84-2.56a5.36,5.36,0,0,0-3.36,1.14l-.8-1.44a7.06,7.06,0,0,1,4.38-1.36C164.22,547.38,165.86,548.78,165.86,551.68Zm-1.92,3.17v-1.49h-3c-1.9,0-2.44.74-2.44,1.64,0,1.06.88,1.73,2.34,1.73A3.09,3.09,0,0,0,163.94,554.85Z"/><path class="cls-103" d="M178.6,547.48l-5.14,11.67c-.94,2.24-2.16,2.94-3.78,2.94a4,4,0,0,1-2.72-1l.82-1.44a2.71,2.71,0,0,0,1.9.78c.92,0,1.5-.42,2-1.64l.34-.74-4.68-10.59h2l3.7,8.49,3.66-8.49Z"/><path class="cls-103" d="M188.46,551.68v6.41h-1.82v-1.4a4,4,0,0,1-3.48,1.52c-2.4,0-3.92-1.28-3.92-3.13s1.1-3.1,4.26-3.1h3v-.38c0-1.62-.94-2.56-2.84-2.56a5.36,5.36,0,0,0-3.36,1.14l-.8-1.44a7.06,7.06,0,0,1,4.38-1.36C186.82,547.38,188.46,548.78,188.46,551.68Zm-1.92,3.17v-1.49h-3c-1.9,0-2.44.74-2.44,1.64,0,1.06.88,1.73,2.34,1.73A3.09,3.09,0,0,0,186.54,554.85Z"/><path class="cls-103" d="M204.88,555l1.46.93a4.7,4.7,0,0,1-4.28,2.28l-.24.88c1.16.12,1.74.78,1.74,1.66,0,1.12-1,1.82-2.48,1.82a3.36,3.36,0,0,1-1.78-.44l.42-1a2.64,2.64,0,0,0,1.36.34c.76,0,1.12-.3,1.12-.8s-.34-.78-1.14-.78h-.54l.46-1.78a5.41,5.41,0,0,1,1-10.75,4.73,4.73,0,0,1,4.32,2.26l-1.46.94a3.3,3.3,0,0,0-2.88-1.52,3.73,3.73,0,0,0,0,7.46A3.28,3.28,0,0,0,204.88,555Z"/><path class="cls-103" d="M208.82,547.48h1.92v10.61h-1.92Z"/><path class="cls-103" d="M221.16,558.09,218.1,554l-3.1,4.07h-2.14l4.18-5.43-4-5.18h2.14l2.92,3.82,2.9-3.82h2.1l-4,5.18,4.22,5.43Z"/><path class="cls-103" d="M233.64,551.68v6.41h-1.82v-1.4a4,4,0,0,1-3.48,1.52c-2.4,0-3.92-1.28-3.92-3.13s1.1-3.1,4.26-3.1h3v-.38c0-1.62-.94-2.56-2.84-2.56a5.36,5.36,0,0,0-3.36,1.14l-.8-1.44a7.06,7.06,0,0,1,4.38-1.36C232,547.38,233.64,548.78,233.64,551.68Zm-1.92,3.17v-1.49h-3c-1.9,0-2.44.74-2.44,1.64,0,1.06.88,1.73,2.34,1.73A3.09,3.09,0,0,0,231.72,554.85Z"/><path class="cls-103" d="M242.9,547.38v1.86a3.39,3.39,0,0,0-.44,0c-2.06,0-3.34,1.26-3.34,3.58v5.29H237.2V547.48H239v1.78C239.72,548,241,547.38,242.9,547.38Z"/><path class="cls-103" d="M255.16,543.24v14.85h-1.84V556.4a4.49,4.49,0,0,1-3.78,1.81,5.42,5.42,0,0,1,0-10.83,4.51,4.51,0,0,1,3.7,1.7v-5.84Zm-1.9,9.54a3.57,3.57,0,1,0-3.56,3.74A3.49,3.49,0,0,0,253.26,552.78Z"/><path class="cls-103" d="M267.2,551.68v6.41h-1.82v-1.4a4,4,0,0,1-3.48,1.52c-2.4,0-3.92-1.28-3.92-3.13s1.1-3.1,4.26-3.1h3v-.38c0-1.62-.94-2.56-2.84-2.56a5.36,5.36,0,0,0-3.36,1.14l-.8-1.44a7.06,7.06,0,0,1,4.38-1.36C265.56,547.38,267.2,548.78,267.2,551.68Zm-1.92,3.17v-1.49h-3c-1.9,0-2.44.74-2.44,1.64,0,1.06.88,1.73,2.34,1.73A3.09,3.09,0,0,0,265.28,554.85Z"/><path class="cls-103" d="M287.12,552.78a5.17,5.17,0,0,1-5.36,5.43A4.49,4.49,0,0,1,278,556.4v1.69h-1.84V543.24h1.92v5.84a4.51,4.51,0,0,1,3.7-1.7A5.14,5.14,0,0,1,287.12,552.78Zm-1.94,0a3.57,3.57,0,1,0-3.58,3.74A3.49,3.49,0,0,0,285.18,552.78Z"/><path class="cls-103" d="M289.56,544.4a1.18,1.18,0,0,1,2.36,0,1.18,1.18,0,0,1-2.36,0Zm.22,3.08h1.92v10.61h-1.92Z"/><path class="cls-103" d="M295.36,543.24h1.92v14.85h-1.92Z"/><path class="cls-103" d="M310.52,552.78a5.19,5.19,0,0,1-5.32,5.41,5.12,5.12,0,0,1-5.24-5.47c0-.16,0-.4,0-.58h8.6a3.59,3.59,0,0,0-3.84-3.1,4,4,0,0,0-3.06,1.28l-1.06-1.24a5.32,5.32,0,0,1,4.18-1.72C308.24,547.36,310.52,549.62,310.52,552.78Zm-1.92.74h-6.8a3.42,3.42,0,0,0,6.8,0Z"/><path class="cls-103" d="M318.88,547.38v1.86a3.39,3.39,0,0,0-.44,0c-2.06,0-3.34,1.26-3.34,3.58v5.29h-1.92V547.48H315v1.78C315.7,548,317,547.38,318.88,547.38Z"/><path class="cls-103" d="M320,557l.8-1.53a6.73,6.73,0,0,0,3.72,1.11c1.78,0,2.52-.54,2.52-1.45,0-2.38-6.7-.32-6.7-4.54,0-1.9,1.7-3.18,4.42-3.18a7.71,7.71,0,0,1,3.86,1l-.82,1.52a5.54,5.54,0,0,0-3.06-.84c-1.68,0-2.5.62-2.5,1.46,0,2.5,6.72.46,6.72,4.58,0,1.92-1.76,3.15-4.58,3.15A7.65,7.65,0,0,1,320,557Z"/><path class="cls-103" d="M331.12,544.4a1.18,1.18,0,0,1,2.36,0,1.18,1.18,0,0,1-2.36,0Zm.22,3.08h1.92v10.61h-1.92Z"/><path class="cls-103" d="M347,552v6.11h-1.92V552.2c0-2.08-1-3.1-2.86-3.1-2,0-3.36,1.22-3.36,3.52v5.47h-1.92V547.48h1.84v1.6a4.54,4.54,0,0,1,3.82-1.7C345.16,547.38,347,548.86,347,552Z"/><path class="cls-103" d="M350.32,544.4a1.18,1.18,0,0,1,2.36,0,1.18,1.18,0,0,1-2.36,0Zm.22,3.08h1.92v10.61h-1.92Z"/><path class="cls-103" d="M364,556.51v1.58H355.1v-1.24l6.26-7.79h-6.14v-1.58h8.6v1.26l-6.26,7.77Z"/><path class="cls-103" d="M365.7,556.82a1.33,1.33,0,0,1,1.36-1.35,1.31,1.31,0,0,1,1.32,1.35,1.34,1.34,0,0,1-1.32,1.39A1.36,1.36,0,0,1,365.7,556.82Z"/></g></svg>