<svg xmlns="http://www.w3.org/2000/svg" viewBox="0 0 1079 1080"><defs><style>.cls-1{fill:#2b2c2b;}.cls-2{fill:#d61e3b;}.cls-3{fill:#414142;}.cls-4{font-size:22.5px;font-family:Montserrat-Medium, Montserrat;}.cls-10,.cls-11,.cls-12,.cls-22,.cls-23,.cls-24,.cls-30,.cls-33,.cls-4,.cls-41,.cls-42,.cls-44,.cls-50,.cls-53{fill:#fff;}.cls-33,.cls-4,.cls-41,.cls-42,.cls-44,.cls-53,.cls-85,.cls-87,.cls-91{font-weight:500;}.cls-5{letter-spacing:-0.03em;}.cls-6{letter-spacing:0em;}.cls-7{letter-spacing:0.01em;}.cls-8{letter-spacing:-0.01em;}.cls-9{letter-spacing:-0.01em;}.cls-10{font-size:58.13px;}.cls-10,.cls-12{font-family:Montserrat-SemiBold, Montserrat;font-weight:600;}.cls-11{font-size:22px;font-family:Montserrat-Regular, Montserrat;}.cls-12{font-size:39.76px;}.cls-13{letter-spacing:0em;}.cls-14{letter-spacing:-0.01em;}.cls-15{letter-spacing:-0.01em;}.cls-16{letter-spacing:-0.01em;}.cls-17{letter-spacing:-0.01em;}.cls-18{letter-spacing:-0.02em;}.cls-19{letter-spacing:0em;}.cls-20{letter-spacing:0em;}.cls-21{fill:#1c223a;}.cls-23{fill-rule:evenodd;}.cls-24{font-size:30.55px;font-family:Averta-Bold, Averta;font-weight:700;}.cls-25{letter-spacing:0em;}.cls-26{letter-spacing:0em;}.cls-27{letter-spacing:0.01em;}.cls-28{letter-spacing:0em;}.cls-29{fill:#f2efeb;}.cls-30{font-size:14.65px;}.cls-30,.cls-90{font-family:Lato-Black, Lato Black;}.cls-30,.cls-50,.cls-90{font-weight:800;}.cls-31{letter-spacing:0em;}.cls-32{letter-spacing:-0.08em;}.cls-33,.cls-41,.cls-42,.cls-53{font-size:7.26px;}.cls-33,.cls-41,.cls-42,.cls-44,.cls-53,.cls-85,.cls-87,.cls-91{font-family:Lato-Medium, Lato Medium;}.cls-33,.cls-54{letter-spacing:0.16em;}.cls-34,.cls-53{letter-spacing:0.2em;}.cls-35{letter-spacing:0.2em;}.cls-36{letter-spacing:0.19em;}.cls-37,.cls-41{letter-spacing:0.2em;}.cls-38{letter-spacing:0.18em;}.cls-39{letter-spacing:0.2em;}.cls-40{letter-spacing:0.18em;}.cls-42{letter-spacing:0.16em;}.cls-43{letter-spacing:0.22em;}.cls-44{font-size:14.53px;}.cls-45{letter-spacing:-0.02em;}.cls-46{letter-spacing:0em;}.cls-47{letter-spacing:-0.07em;}.cls-48{letter-spacing:-0.01em;}.cls-49{letter-spacing:0.03em;}.cls-50{font-size:21px;font-family:Montserrat-ExtraBold, Montserrat;}.cls-51{letter-spacing:-0.02em;}.cls-52{letter-spacing:-0.02em;}.cls-55{letter-spacing:0.2em;}.cls-56{letter-spacing:-0.03em;}.cls-57{letter-spacing:0.12em;}.cls-58{letter-spacing:0.2em;}.cls-59{letter-spacing:0.15em;}.cls-60{letter-spacing:0.19em;}.cls-61{letter-spacing:0.12em;}.cls-62,.cls-91{font-size:8.37px;}.cls-62{fill:#9c9c9c;font-family:Lato-Regular, Lato Regular;}.cls-63{letter-spacing:-0.01em;}.cls-64{letter-spacing:-0.01em;}.cls-65{letter-spacing:0.14em;}.cls-66{letter-spacing:0.15em;}.cls-67{letter-spacing:0em;}.cls-68{letter-spacing:-0.01em;}.cls-69{letter-spacing:0.01em;}.cls-70{letter-spacing:-0.01em;}.cls-71{letter-spacing:0em;}.cls-72{letter-spacing:-0.01em;}.cls-73{letter-spacing:0em;}.cls-74{letter-spacing:0.14em;}.cls-75{letter-spacing:0.14em;}.cls-76{letter-spacing:0em;}.cls-77{letter-spacing:0.1em;}.cls-78{letter-spacing:0.1em;}.cls-79{letter-spacing:-0.01em;}.cls-80{letter-spacing:0em;}.cls-81{letter-spacing:-0.01em;}.cls-82{letter-spacing:0em;}.cls-83{letter-spacing:-0.01em;}.cls-84{letter-spacing:0.02em;}.cls-85{font-size:16.75px;}.cls-85,.cls-91{fill:gray;}.cls-86{letter-spacing:-0.04em;}.cls-87{font-size:10.47px;fill:#010101;}.cls-88{letter-spacing:-0.01em;}.cls-89{letter-spacing:-0.01em;}.cls-90{font-size:12.56px;fill:#666;}.cls-92{letter-spacing:0em;}.cls-93{letter-spacing:0em;}.cls-94{letter-spacing:-0.02em;}.cls-95{fill:none;stroke:#b2b5c0;stroke-miterlimit:10;stroke-width:0.52px;}</style></defs><g id="PRINT"><rect class="cls-1" x="85.21" y="181.33" width="260.32" height="56.71"/><rect class="cls-2" x="40.07" y="69.8" width="143.79" height="5.3"/><rect class="cls-3" x="183.81" y="69.8" width="143.79" height="5.3"/><rect class="cls-3" x="40.07" y="90.37" width="143.76" height="38.31"/><text class="cls-4" transform="translate(52.14 117.53)"><tspan class="cls-5">K</tspan><tspan class="cls-6" x="15.62" y="0">OD: 1</tspan><tspan class="cls-7" x="72.58" y="0">2</tspan><tspan class="cls-8" x="85.72" y="0">.</tspan><tspan class="cls-9" x="90.56" y="0">0</tspan><tspan x="105.34" y="0">3</tspan></text><rect class="cls-2" x="40.07" y="169.58" width="80.21" height="80.21"/><text class="cls-10" transform="translate(48.78 226.69)">10</text><text class="cls-11" transform="translate(67.92 240.86) scale(0.58)">azn</text><text class="cls-12" transform="translate(139 219.7) scale(0.58)"><tspan class="cls-13">A</tspan><tspan class="cls-14" x="29.7" y="0">z</tspan><tspan x="50.54" y="0">ə</tspan><tspan class="cls-15" x="75.27" y="0">r</tspan><tspan class="cls-16" x="91.77" y="0">b</tspan><tspan class="cls-17" x="118.77" y="0">a</tspan><tspan class="cls-18" x="142.51" y="0">y</tspan><tspan x="164.9" y="0">ca</tspan><tspan class="cls-19" x="212.14" y="0">n</tspan><tspan class="cls-20" x="239.57" y="0">dilli</tspan></text><rect class="cls-1" x="85.21" y="305.1" width="260.32" height="56.71"/><rect class="cls-2" x="40.07" y="293.35" width="80.21" height="80.21"/><text class="cls-10" transform="translate(52.14 350.46)">15</text><text class="cls-12" transform="translate(139 343.47) scale(0.58)">İ<tspan class="cls-19" x="12.68" y="0">n</tspan><tspan class="cls-20" x="40.12" y="0">gilisdilli</tspan></text><text class="cls-11" transform="translate(67.92 366.87) scale(0.58)">azn</text><path class="cls-1" d="M58.34,424.41c0,3-2.2,4.88-5.84,4.88H49v4.25H47v-14H52.5C56.14,419.53,58.34,421.37,58.34,424.41Zm-2,0c0-2-1.34-3.14-3.9-3.14H49v6.28h3.4C55,427.55,56.34,426.41,56.34,424.41Z"/><path class="cls-1" d="M66.52,422.83v1.86a3.39,3.39,0,0,0-.44,0c-2.06,0-3.34,1.26-3.34,3.58v5.29H60.82V422.93h1.84v1.78C63.34,423.47,64.66,422.83,66.52,422.83Z"/><path class="cls-1" d="M67.8,428.23a5.51,5.51,0,1,1,5.52,5.43A5.27,5.27,0,0,1,67.8,428.23Zm9.08,0a3.57,3.57,0,1,0-7.14,0,3.57,3.57,0,1,0,7.14,0Z"/><path class="cls-1" d="M83.64,422v.92h3.08v1.58h-3v9H81.76v-9H80v-1.58h1.8V422a3.19,3.19,0,0,1,3.5-3.42,3.58,3.58,0,0,1,2.16.62l-.58,1.46a2.49,2.49,0,0,0-1.48-.5C84.22,420.15,83.64,420.79,83.64,422Z"/><path class="cls-1" d="M97.92,428.87h-8.6A3.6,3.6,0,0,0,93.16,432a3.93,3.93,0,0,0,3.06-1.29l1.06,1.25a5.32,5.32,0,0,1-4.18,1.72c-3.42,0-5.7-2.26-5.7-5.43a5.19,5.19,0,0,1,5.32-5.4A5.11,5.11,0,0,1,98,428.29C98,428.45,97.94,428.69,97.92,428.87Zm-8.6-1.38h6.8a3.42,3.42,0,0,0-6.8,0Z"/><path class="cls-1" d="M99.28,432.42l.8-1.52a6.81,6.81,0,0,0,3.72,1.1c1.78,0,2.52-.54,2.52-1.44,0-2.39-6.7-.33-6.7-4.55,0-1.9,1.7-3.18,4.42-3.18a7.71,7.71,0,0,1,3.86,1l-.82,1.52a5.54,5.54,0,0,0-3.06-.84c-1.68,0-2.5.62-2.5,1.46,0,2.5,6.72.46,6.72,4.59,0,1.92-1.76,3.14-4.58,3.14A7.65,7.65,0,0,1,99.28,432.42Z"/><path class="cls-1" d="M109.3,432.42l.8-1.52a6.81,6.81,0,0,0,3.72,1.1c1.78,0,2.52-.54,2.52-1.44,0-2.39-6.7-.33-6.7-4.55,0-1.9,1.7-3.18,4.42-3.18a7.71,7.71,0,0,1,3.86,1l-.82,1.52a5.54,5.54,0,0,0-3.06-.84c-1.68,0-2.5.62-2.5,1.46,0,2.5,6.72.46,6.72,4.59,0,1.92-1.76,3.14-4.58,3.14A7.65,7.65,0,0,1,109.3,432.42Z"/><path class="cls-1" d="M120.44,419.85a1.18,1.18,0,1,1,2.36,0,1.18,1.18,0,1,1-2.36,0Zm.22,3.08h1.92v10.61h-1.92Z"/><path class="cls-1" d="M125.26,428.23a5.51,5.51,0,1,1,5.52,5.43A5.27,5.27,0,0,1,125.26,428.23Zm9.08,0a3.57,3.57,0,1,0-7.14,0,3.57,3.57,0,1,0,7.14,0Z"/><path class="cls-1" d="M149,427.43v6.11h-1.92v-5.89c0-2.08-1-3.1-2.86-3.1-2,0-3.36,1.22-3.36,3.52v5.47h-1.92V422.93h1.84v1.6a4.54,4.54,0,0,1,3.82-1.7C147.18,422.83,149,424.31,149,427.43Z"/><path class="cls-1" d="M161,427.13v6.41h-1.82v-1.4a3.93,3.93,0,0,1-3.48,1.52c-2.4,0-3.92-1.28-3.92-3.13,0-1.7,1.1-3.1,4.26-3.1h3v-.38c0-1.62-.94-2.56-2.84-2.56a5.36,5.36,0,0,0-3.36,1.14l-.8-1.44a7.06,7.06,0,0,1,4.38-1.36C159.32,422.83,161,424.23,161,427.13ZM159,430.3v-1.48h-3c-1.9,0-2.44.74-2.44,1.63,0,1.07.88,1.73,2.34,1.73A3.07,3.07,0,0,0,159,430.3Z"/><path class="cls-1" d="M164.52,418.69h1.92v14.85h-1.92Z"/><path class="cls-1" d="M178.38,426.53a7.08,7.08,0,0,1,7.42-7.16,6.92,6.92,0,0,1,5.32,2.18l-1.3,1.26a5.19,5.19,0,0,0-3.94-1.66,5.39,5.39,0,1,0,0,10.77,5.18,5.18,0,0,0,3.94-1.69l1.3,1.27a7,7,0,0,1-5.34,2.2A7.08,7.08,0,0,1,178.38,426.53Z"/><path class="cls-1" d="M206,419.53l-6.14,14h-2l-6.16-14h2.16l5,11.5,5.08-11.5Z"/><path class="cls-1" d="M227,427.43v6.11h-1.92v-5.89c0-2.08-1-3.1-2.86-3.1-2,0-3.36,1.22-3.36,3.52v5.47h-1.92V418.69h1.92v5.74a4.6,4.6,0,0,1,3.74-1.6C225.18,422.83,227,424.31,227,427.43Z"/><path class="cls-1" d="M239,427.13v6.41h-1.82v-1.4a3.93,3.93,0,0,1-3.48,1.52c-2.4,0-3.92-1.28-3.92-3.13,0-1.7,1.1-3.1,4.26-3.1h3v-.38c0-1.62-.94-2.56-2.84-2.56a5.36,5.36,0,0,0-3.36,1.14l-.8-1.44a7.06,7.06,0,0,1,4.38-1.36C237.32,422.83,239,424.23,239,427.13ZM237,430.3v-1.48h-3c-1.9,0-2.44.74-2.44,1.63,0,1.07.88,1.73,2.34,1.73A3.07,3.07,0,0,0,237,430.3Z"/><path class="cls-1" d="M250.38,432v1.58H241.5V432.3l6.26-7.79h-6.14v-1.58h8.6v1.26L244,432Z"/><path class="cls-1" d="M252.94,422.93h1.92v10.61h-1.92Z"/><path class="cls-1" d="M264.22,422.83v1.86a3.39,3.39,0,0,0-.44,0c-2.06,0-3.34,1.26-3.34,3.58v5.29h-1.92V422.93h1.84v1.78C261,423.47,262.36,422.83,264.22,422.83Z"/><path class="cls-1" d="M266.58,418.69h1.92v14.85h-1.92Z"/><path class="cls-1" d="M280.56,427.13v6.41h-1.82v-1.4a3.93,3.93,0,0,1-3.48,1.52c-2.4,0-3.92-1.28-3.92-3.13,0-1.7,1.1-3.1,4.26-3.1h3v-.38c0-1.62-.94-2.56-2.84-2.56a5.36,5.36,0,0,0-3.36,1.14l-.8-1.44a7.06,7.06,0,0,1,4.38-1.36C278.92,422.83,280.56,424.23,280.56,427.13Zm-1.92,3.17v-1.48h-3c-1.9,0-2.44.74-2.44,1.63,0,1.07.88,1.73,2.34,1.73A3.07,3.07,0,0,0,278.64,430.3Z"/><path class="cls-1" d="M301.72,427.43v6.11H299.8v-5.89c0-2.08-1-3.1-2.74-3.1-1.92,0-3.18,1.22-3.18,3.52v5.47H292v-5.89c0-2.08-1-3.1-2.74-3.1-1.92,0-3.18,1.22-3.18,3.52v5.47h-1.92V422.93H286v1.58a4.3,4.3,0,0,1,3.66-1.68,3.92,3.92,0,0,1,3.68,2,4.78,4.78,0,0,1,4.08-2C300,422.83,301.72,424.31,301.72,427.43Z"/><path class="cls-1" d="M313.66,427.13v6.41h-1.82v-1.4a3.93,3.93,0,0,1-3.48,1.52c-2.4,0-3.92-1.28-3.92-3.13,0-1.7,1.1-3.1,4.26-3.1h3v-.38c0-1.62-.94-2.56-2.84-2.56a5.36,5.36,0,0,0-3.36,1.14l-.8-1.44a7.06,7.06,0,0,1,4.38-1.36C312,422.83,313.66,424.23,313.66,427.13Zm-1.92,3.17v-1.48h-3c-1.9,0-2.44.74-2.44,1.63,0,1.07.88,1.73,2.34,1.73A3.07,3.07,0,0,0,311.74,430.3Z"/><path class="cls-1" d="M333.12,433.54l-3.06-4.06-3.1,4.06h-2.14l4.18-5.43-4-5.18h2.14l2.92,3.82,2.9-3.82h2.1l-4,5.18,4.22,5.43Z"/><path class="cls-1" d="M337.18,419.85a1.18,1.18,0,0,1,2.36,0,1.18,1.18,0,1,1-2.36,0Zm.22,3.08h1.92v10.61H337.4Z"/><path class="cls-1" d="M353,418.69v14.85h-1.84v-1.68a4.48,4.48,0,0,1-3.78,1.8,5.42,5.42,0,0,1,0-10.83,4.51,4.51,0,0,1,3.7,1.7v-5.84Zm-1.9,9.54a3.57,3.57,0,1,0-3.56,3.75A3.49,3.49,0,0,0,351.08,428.23Z"/><path class="cls-1" d="M374.22,427.43v6.11H372.3v-5.89c0-2.08-1-3.1-2.74-3.1-1.92,0-3.18,1.22-3.18,3.52v5.47h-1.92v-5.89c0-2.08-1-3.1-2.74-3.1-1.92,0-3.18,1.22-3.18,3.52v5.47h-1.92V422.93h1.84v1.58a4.3,4.3,0,0,1,3.66-1.68,3.92,3.92,0,0,1,3.68,2,4.78,4.78,0,0,1,4.08-2C372.46,422.83,374.22,424.31,374.22,427.43Z"/><path class="cls-1" d="M387.4,428.23a5.19,5.19,0,0,1-5.32,5.41,5.11,5.11,0,0,1-5.24-5.47c0-.16,0-.4,0-.58h8.6a3.59,3.59,0,0,0-3.84-3.1,4,4,0,0,0-3.06,1.28l-1.06-1.24a5.32,5.32,0,0,1,4.18-1.72C385.12,422.81,387.4,425.07,387.4,428.23Zm-1.92.75h-6.8a3.42,3.42,0,0,0,6.8,0Z"/><path class="cls-1" d="M389.38,427.21h5.38v1.66h-5.38Z"/><path class="cls-1" d="M52.72,456.92a3.62,3.62,0,0,1-2.32.74A3,3,0,0,1,47,454.34v-5.83h-1.8v-1.58H47v-2.32H49v2.32h3v1.58H49v5.75A1.56,1.56,0,0,0,50.62,456a2.42,2.42,0,0,0,1.5-.5Z"/><path class="cls-1" d="M54.59,443.85a1.18,1.18,0,0,1,2.36,0,1.18,1.18,0,0,1-2.36,0Zm.22,3.08h1.92v10.61H54.81Z"/><path class="cls-1" d="M70.23,451.43v6.11H68.31v-5.89c0-2.08-1-3.1-2.86-3.1-2,0-3.36,1.22-3.36,3.52v5.47H60.17V446.93H62v1.6a4.54,4.54,0,0,1,3.82-1.7C68.41,446.83,70.23,448.31,70.23,451.43Z"/><path class="cls-1" d="M83.63,442.69v14.85H81.79v-1.68a4.48,4.48,0,0,1-3.78,1.8,5.42,5.42,0,0,1,0-10.83,4.51,4.51,0,0,1,3.7,1.7v-5.84Zm-1.9,9.54A3.57,3.57,0,1,0,78.17,456,3.49,3.49,0,0,0,81.73,452.23Z"/><path class="cls-1" d="M96.63,452.23a5.19,5.19,0,0,1-5.32,5.41,5.11,5.11,0,0,1-5.24-5.47c0-.16,0-.4,0-.58h8.6a3.59,3.59,0,0,0-3.84-3.1,4,4,0,0,0-3.06,1.28l-1.06-1.24a5.32,5.32,0,0,1,4.18-1.72C94.35,446.81,96.63,449.07,96.63,452.23Zm-1.92.75h-6.8a3.42,3.42,0,0,0,6.8,0Z"/><path class="cls-1" d="M114.57,452.23a5.15,5.15,0,0,1-5.36,5.43,4.53,4.53,0,0,1-3.7-1.72v5.48h-1.92V446.93h1.84v1.68a4.51,4.51,0,0,1,3.78-1.78A5.14,5.14,0,0,1,114.57,452.23Zm-1.94,0a3.57,3.57,0,1,0-3.58,3.75A3.5,3.5,0,0,0,112.63,452.23Z"/><path class="cls-1" d="M126.55,452.87H118a3.6,3.6,0,0,0,3.84,3.11,3.93,3.93,0,0,0,3.06-1.29l1.06,1.25a5.32,5.32,0,0,1-4.18,1.72c-3.42,0-5.7-2.26-5.7-5.43a5.19,5.19,0,0,1,5.32-5.4,5.11,5.11,0,0,1,5.24,5.46C126.59,452.45,126.57,452.69,126.55,452.87Zm-8.6-1.38h6.8a3.42,3.42,0,0,0-6.8,0Z"/><path class="cls-1" d="M132.65,457.64l-.24.9c1.16.12,1.74.78,1.74,1.66,0,1.12-1,1.82-2.48,1.82a3.36,3.36,0,0,1-1.78-.44l.42-1a2.64,2.64,0,0,0,1.36.34c.76,0,1.12-.3,1.12-.8s-.34-.78-1.14-.78h-.54l.44-1.72a7.17,7.17,0,0,1-3.86-1.22l.8-1.52a6.81,6.81,0,0,0,3.72,1.1c1.78,0,2.52-.54,2.52-1.44,0-2.39-6.7-.33-6.7-4.55,0-1.9,1.7-3.18,4.42-3.18a7.71,7.71,0,0,1,3.86,1l-.82,1.52a5.54,5.54,0,0,0-3.06-.84c-1.68,0-2.5.62-2.5,1.46,0,2.5,6.72.46,6.72,4.59C136.65,456.3,135.13,457.48,132.65,457.64Z"/><path class="cls-1" d="M148.41,452.23a5.19,5.19,0,0,1-5.32,5.41,5.12,5.12,0,0,1-5.25-5.47c0-.16,0-.4,0-.58h8.61a3.59,3.59,0,0,0-3.84-3.1,4,4,0,0,0-3.07,1.28l-1.06-1.24a5.33,5.33,0,0,1,4.19-1.72C146.13,446.81,148.41,449.07,148.41,452.23Zm-1.92.75h-6.81a3.43,3.43,0,0,0,6.81,0Z"/><path class="cls-1" d="M155,452.59l-2.2,2.05v2.9h-1.92V442.69h1.92v9.52l5.79-5.28h2.32l-4.47,4.38,4.9,6.23h-2.36Z"/><path class="cls-1" d="M171.14,451.13v6.41h-1.82v-1.4a3.93,3.93,0,0,1-3.48,1.52c-2.4,0-3.92-1.28-3.92-3.13,0-1.7,1.1-3.1,4.26-3.1h3v-.38c0-1.62-.94-2.56-2.84-2.56a5.36,5.36,0,0,0-3.36,1.14l-.8-1.44a7.06,7.06,0,0,1,4.38-1.36C169.5,446.83,171.14,448.23,171.14,451.13Zm-1.92,3.17v-1.48h-3c-1.9,0-2.44.74-2.44,1.63,0,1.07.88,1.73,2.34,1.73A3.07,3.07,0,0,0,169.22,454.3Z"/><path class="cls-1" d="M180.18,446.83v1.86a3.39,3.39,0,0,0-.44,0c-2.06,0-3.34,1.26-3.34,3.58v5.29h-1.92V446.93h1.84v1.78C177,447.47,178.32,446.83,180.18,446.83Z"/><path class="cls-1" d="M191.1,452.59l-2.2,2.05v2.9H187V442.69h1.92v9.52l5.79-5.28H197l-4.46,4.38,4.9,6.23h-2.36Z"/><path class="cls-1" d="M197.66,452.23a5.51,5.51,0,1,1,5.52,5.43A5.27,5.27,0,0,1,197.66,452.23Zm9.08,0a3.57,3.57,0,1,0-7.14,0,3.57,3.57,0,1,0,7.14,0Z"/><path class="cls-1" d="M228.72,451.43v6.11H226.8v-5.89c0-2.08-1-3.1-2.74-3.1-1.92,0-3.18,1.22-3.18,3.52v5.47H219v-5.89c0-2.08-1-3.1-2.74-3.1-1.92,0-3.18,1.22-3.18,3.52v5.47h-1.92V446.93H213v1.58a4.3,4.3,0,0,1,3.66-1.68,3.92,3.92,0,0,1,3.68,2,4.78,4.78,0,0,1,4.08-2C227,446.83,228.72,448.31,228.72,451.43Z"/><path class="cls-1" d="M240.44,451.13v6.41h-1.82v-1.4a3.93,3.93,0,0,1-3.48,1.52c-2.4,0-3.92-1.28-3.92-3.13,0-1.7,1.1-3.1,4.26-3.1h3v-.38c0-1.62-.94-2.56-2.84-2.56a5.36,5.36,0,0,0-3.36,1.14l-.8-1.44a7.06,7.06,0,0,1,4.38-1.36C238.8,446.83,240.44,448.23,240.44,451.13Zm-1.92,3.17v-1.48h-3c-1.9,0-2.44.74-2.44,1.63,0,1.07.88,1.73,2.34,1.73A3.07,3.07,0,0,0,238.52,454.3Z"/><path class="cls-1" d="M253.84,451.43v6.11h-1.92v-5.89c0-2.08-1-3.1-2.86-3.1-2,0-3.36,1.22-3.36,3.52v5.47h-1.92V446.93h1.84v1.6a4.54,4.54,0,0,1,3.82-1.7C252,446.83,253.84,448.31,253.84,451.43Z"/><path class="cls-1" d="M267.24,442.69v14.85H265.4v-1.68a4.48,4.48,0,0,1-3.78,1.8,5.42,5.42,0,0,1,0-10.83,4.51,4.51,0,0,1,3.7,1.7v-5.84Zm-1.9,9.54a3.58,3.58,0,1,0-7.15,0,3.58,3.58,0,1,0,7.15,0Z"/><path class="cls-1" d="M279.05,451.13v6.41h-1.82v-1.4a3.93,3.93,0,0,1-3.48,1.52c-2.4,0-3.92-1.28-3.92-3.13,0-1.7,1.1-3.1,4.26-3.1h3v-.38c0-1.62-.94-2.56-2.84-2.56a5.36,5.36,0,0,0-3.36,1.14l-.8-1.44a7.06,7.06,0,0,1,4.38-1.36C277.41,446.83,279.05,448.23,279.05,451.13Zm-1.92,3.17v-1.48h-3c-1.9,0-2.44.74-2.44,1.63,0,1.07.88,1.73,2.34,1.73A3.07,3.07,0,0,0,277.13,454.3Z"/><path class="cls-1" d="M300,451.43v6.11h-1.92v-5.89c0-2.08-1-3.1-2.74-3.1-1.92,0-3.18,1.22-3.18,3.52v5.47h-1.92v-5.89c0-2.08-1-3.1-2.74-3.1-1.92,0-3.18,1.22-3.18,3.52v5.47h-1.92V446.93h1.84v1.58a4.3,4.3,0,0,1,3.66-1.68,3.92,3.92,0,0,1,3.68,2,4.78,4.78,0,0,1,4.08-2C298.23,446.83,300,448.31,300,451.43Z"/><path class="cls-1" d="M303.31,446.93h1.92v10.61h-1.92Z"/><path class="cls-1" d="M316.53,456v1.58h-8.89V456.3l6.27-7.79h-6.15v-1.58h8.61v1.26L310.11,456Z"/><path class="cls-1" d="M329.35,456.92a3.62,3.62,0,0,1-2.32.74,3,3,0,0,1-3.36-3.32v-5.83h-1.8v-1.58h1.8v-2.32h1.92v2.32h3v1.58h-3v5.75a1.56,1.56,0,0,0,1.66,1.78,2.42,2.42,0,0,0,1.5-.5Z"/><path class="cls-1" d="M340.67,452.23a5.19,5.19,0,0,1-5.32,5.41,5.11,5.11,0,0,1-5.24-5.47c0-.16,0-.4,0-.58h8.6a3.59,3.59,0,0,0-3.84-3.1,4,4,0,0,0-3.06,1.28l-1.06-1.24a5.32,5.32,0,0,1,4.18-1.72C338.39,446.81,340.67,449.07,340.67,452.23Zm-1.92.75H332a3.42,3.42,0,0,0,6.8,0Z"/><path class="cls-1" d="M348.81,446.83v1.86a3.39,3.39,0,0,0-.44,0c-2.06,0-3.34,1.26-3.34,3.58v5.29H343.1V446.93H345v1.78C345.63,447.47,347,446.83,348.81,446.83Z"/><path class="cls-1" d="M360.43,452.23a5.2,5.2,0,0,1-5.33,5.41,5.11,5.11,0,0,1-5.24-5.47c0-.16,0-.4,0-.58h8.61a3.61,3.61,0,0,0-3.85-3.1,4,4,0,0,0-3.06,1.28l-1.06-1.24a5.32,5.32,0,0,1,4.18-1.72C358.14,446.81,360.43,449.07,360.43,452.23Zm-1.92.75H351.7a3.43,3.43,0,0,0,6.81,0Z"/><path class="cls-1" d="M365,446v.92h3.08v1.58h-3v9h-1.92v-9h-1.8v-1.58h1.8V446a3.19,3.19,0,0,1,3.5-3.42,3.58,3.58,0,0,1,2.16.62l-.58,1.46a2.49,2.49,0,0,0-1.48-.5C365.6,444.15,365,444.79,365,446Z"/><path class="cls-1" d="M371.08,443.85a1.18,1.18,0,0,1,2.36,0,1.18,1.18,0,1,1-2.36,0Zm.22,3.08h1.92v10.61H371.3Z"/><path class="cls-1" d="M386.72,451.43v6.11H384.8v-5.89c0-2.08-1-3.1-2.86-3.1-2,0-3.36,1.22-3.36,3.52v5.47h-1.92V446.93h1.84v1.6a4.54,4.54,0,0,1,3.82-1.7C384.9,446.83,386.72,448.31,386.72,451.43Z"/><path class="cls-1" d="M389.38,451.21h5.38v1.66h-5.38Z"/><path class="cls-1" d="M56.76,466.69v14.85H54.92v-1.68a4.48,4.48,0,0,1-3.78,1.8,5.42,5.42,0,0,1,0-10.83,4.51,4.51,0,0,1,3.7,1.7v-5.84Zm-1.9,9.54A3.57,3.57,0,1,0,51.3,480,3.49,3.49,0,0,0,54.86,476.23Z"/><path class="cls-1" d="M70,476.23a5.19,5.19,0,0,1-5.32,5.41,5.11,5.11,0,0,1-5.24-5.47c0-.16,0-.4,0-.58h8.6a3.59,3.59,0,0,0-3.84-3.1,4,4,0,0,0-3.06,1.28l-1.06-1.24a5.32,5.32,0,0,1,4.18-1.72C67.7,470.81,70,473.07,70,476.23Zm-1.92.75h-6.8a3.42,3.42,0,0,0,6.8,0Z"/><path class="cls-1" d="M82.7,475.43v6.11H80.78v-5.89c0-2.08-1-3.1-2.86-3.1-2,0-3.36,1.22-3.36,3.52v5.47H72.64V470.93h1.84v1.6a4.54,4.54,0,0,1,3.82-1.7C80.88,470.83,82.7,472.31,82.7,475.43Z"/><path class="cls-1" d="M91.75,474.53a7.08,7.08,0,0,1,7.42-7.16,6.94,6.94,0,0,1,5.33,2.18l-1.31,1.26a5.19,5.19,0,0,0-3.94-1.66,5.39,5.39,0,1,0,0,10.77,5.18,5.18,0,0,0,3.94-1.69l1.31,1.27a7,7,0,0,1-5.35,2.2A7.08,7.08,0,0,1,91.75,474.53Z"/><path class="cls-1" d="M119.38,467.53l-6.15,14h-2l-6.16-14h2.16l5,11.5,5.09-11.5Z"/><path class="cls-1" d="M120.61,467.53h1.68l-.14,5.4h-1.42Z"/><path class="cls-1" d="M135.44,475.43v6.11h-1.93v-5.89c0-2.08-1-3.1-2.86-3.1-2,0-3.36,1.22-3.36,3.52v5.47h-1.92V470.93h1.84v1.6a4.54,4.54,0,0,1,3.82-1.7C133.62,470.83,135.44,472.31,135.44,475.43Z"/><path class="cls-1" d="M138.77,467.85a1.18,1.18,0,0,1,2.36,0,1.18,1.18,0,1,1-2.36,0Zm.22,3.08h1.92v10.61H139Z"/><path class="cls-1" d="M152.43,480v1.58h-8.88V480.3l6.26-7.79h-6.14v-1.58h8.61v1.26L146,480Z"/><path class="cls-1" d="M154.77,467.85a1.18,1.18,0,0,1,2.36,0,1.18,1.18,0,1,1-2.36,0Zm.22,3.08h1.92v10.61H155Z"/><path class="cls-1" d="M176.93,470.93v14.49H175v-5.48a4.53,4.53,0,0,1-3.7,1.72,5.42,5.42,0,0,1,0-10.83,4.51,4.51,0,0,1,3.78,1.78v-1.68Zm-1.9,5.3a3.57,3.57,0,1,0-3.56,3.75A3.5,3.5,0,0,0,175,476.23Z"/><path class="cls-1" d="M190.45,470.93v10.61h-1.82v-1.6a4.31,4.31,0,0,1-3.6,1.72c-2.74,0-4.56-1.5-4.56-4.63v-6.1h1.92v5.89c0,2.08,1,3.12,2.86,3.12,2,0,3.28-1.25,3.28-3.53v-5.48Z"/><path class="cls-1" d="M199.81,470.83v1.86a3.39,3.39,0,0,0-.44,0c-2.06,0-3.34,1.26-3.34,3.58v5.29h-1.92V470.93H196v1.78C196.63,471.47,198,470.83,199.81,470.83Z"/><path class="cls-1" d="M212.19,470.93v10.61h-1.82v-1.6a4.31,4.31,0,0,1-3.6,1.72c-2.74,0-4.56-1.5-4.56-4.63v-6.1h1.92v5.89c0,2.08,1,3.12,2.86,3.12,2,0,3.28-1.25,3.28-3.53v-5.48Z"/><path class="cls-1" d="M215.85,466.69h1.92v14.85h-1.92Z"/><path class="cls-1" d="M231.31,470.93v10.61h-1.82v-1.6a4.31,4.31,0,0,1-3.6,1.72c-2.74,0-4.56-1.5-4.56-4.63v-6.1h1.92v5.89c0,2.08,1,3.12,2.86,3.12,2,0,3.28-1.25,3.28-3.53v-5.48Z"/><path class="cls-1" d="M238.59,481.64l-.24.9c1.16.12,1.74.78,1.74,1.66,0,1.12-1,1.82-2.48,1.82a3.36,3.36,0,0,1-1.78-.44l.42-1a2.64,2.64,0,0,0,1.36.34c.76,0,1.12-.3,1.12-.8s-.34-.78-1.14-.78h-.54l.44-1.72a7.17,7.17,0,0,1-3.86-1.22l.8-1.52a6.81,6.81,0,0,0,3.72,1.1c1.78,0,2.52-.54,2.52-1.44,0-2.39-6.7-.33-6.7-4.55,0-1.9,1.7-3.18,4.42-3.18a7.71,7.71,0,0,1,3.86,1l-.82,1.52a5.54,5.54,0,0,0-3.06-.84c-1.68,0-2.5.62-2.5,1.46,0,2.5,6.72.46,6.72,4.59C242.59,480.3,241.07,481.48,238.59,481.64Z"/><path class="cls-1" d="M260.73,470.93l-4.64,10.61h-2l-4.65-10.61h2l3.65,8.51,3.72-8.51Z"/><path class="cls-1" d="M271.81,476.23a5.19,5.19,0,0,1-5.32,5.41,5.12,5.12,0,0,1-5.25-5.47c0-.16,0-.4,0-.58h8.61a3.59,3.59,0,0,0-3.84-3.1,4,4,0,0,0-3.07,1.28l-1.05-1.24a5.31,5.31,0,0,1,4.18-1.72C269.53,470.81,271.81,473.07,271.81,476.23Zm-1.92.75h-6.8a3.42,3.42,0,0,0,6.8,0Z"/><path class="cls-1" d="M283,470v.92h3.08v1.58h-3v9H281.1v-9h-1.8v-1.58h1.8V470a3.19,3.19,0,0,1,3.5-3.42,3.58,3.58,0,0,1,2.16.62l-.58,1.46a2.49,2.49,0,0,0-1.48-.5C283.56,468.15,283,468.79,283,470Z"/><path class="cls-1" d="M286.74,476.23a5.51,5.51,0,1,1,5.52,5.43A5.27,5.27,0,0,1,286.74,476.23Zm9.08,0a3.57,3.57,0,1,0-7.14,0,3.57,3.57,0,1,0,7.14,0Z"/><path class="cls-1" d="M306.12,470.83v1.86a3.39,3.39,0,0,0-.44,0c-2.06,0-3.34,1.26-3.34,3.58v5.29h-1.92V470.93h1.84v1.78C302.94,471.47,304.26,470.83,306.12,470.83Z"/><path class="cls-1" d="M326.08,475.43v6.11h-1.92v-5.89c0-2.08-1-3.1-2.74-3.1-1.92,0-3.18,1.22-3.18,3.52v5.47h-1.92v-5.89c0-2.08-1-3.1-2.74-3.1-1.92,0-3.18,1.22-3.18,3.52v5.47h-1.92V470.93h1.84v1.58a4.3,4.3,0,0,1,3.66-1.68,3.92,3.92,0,0,1,3.68,2,4.78,4.78,0,0,1,4.08-2C324.32,470.83,326.08,472.31,326.08,475.43Z"/><path class="cls-1" d="M338,475.13v6.41H336.2v-1.4a3.93,3.93,0,0,1-3.48,1.52c-2.4,0-3.92-1.28-3.92-3.13,0-1.7,1.1-3.1,4.26-3.1h3v-.38c0-1.62-.94-2.56-2.84-2.56a5.36,5.36,0,0,0-3.36,1.14l-.8-1.44a7.06,7.06,0,0,1,4.38-1.36C336.38,470.83,338,472.23,338,475.13Zm-1.92,3.17v-1.48h-3c-1.9,0-2.44.74-2.44,1.63,0,1.07.88,1.73,2.34,1.73A3.07,3.07,0,0,0,336.1,478.3Z"/><path class="cls-1" d="M358.92,476.23a5.16,5.16,0,0,1-5.36,5.43,4.48,4.48,0,0,1-3.78-1.8v1.68h-1.84V466.69h1.92v5.84a4.51,4.51,0,0,1,3.7-1.7A5.14,5.14,0,0,1,358.92,476.23Zm-1.94,0A3.57,3.57,0,1,0,353.4,480,3.49,3.49,0,0,0,357,476.23Z"/><path class="cls-1" d="M369.88,475.13v6.41h-1.82v-1.4a3.93,3.93,0,0,1-3.48,1.52c-2.4,0-3.92-1.28-3.92-3.13,0-1.7,1.1-3.1,4.26-3.1h3v-.38c0-1.62-.94-2.56-2.84-2.56a5.36,5.36,0,0,0-3.36,1.14l-.8-1.44a7.06,7.06,0,0,1,4.38-1.36C368.24,470.83,369.88,472.23,369.88,475.13ZM368,478.3v-1.48h-3c-1.9,0-2.44.74-2.44,1.63,0,1.07.88,1.73,2.34,1.73A3.07,3.07,0,0,0,368,478.3Z"/><path class="cls-1" d="M380.2,481.54l-3.06-4.06-3.1,4.06H371.9l4.18-5.43-4-5.18h2.14l2.92,3.82,2.9-3.82h2.1l-4,5.18,4.22,5.43Z"/><path class="cls-1" d="M384.48,470.93h1.92v10.61h-1.92Z"/><path class="cls-1" d="M389.38,475.21h5.38v1.66h-5.38Z"/><path class="cls-1" d="M64.36,499.43v6.11H62.44v-5.89c0-2.08-1-3.1-2.74-3.1-1.92,0-3.18,1.22-3.18,3.52v5.47H54.6v-5.89c0-2.08-1-3.1-2.74-3.1-1.92,0-3.18,1.22-3.18,3.52v5.47H46.76V494.93H48.6v1.58a4.3,4.3,0,0,1,3.66-1.68,3.92,3.92,0,0,1,3.68,2,4.78,4.78,0,0,1,4.08-2C62.6,494.83,64.36,496.31,64.36,499.43Z"/><path class="cls-1" d="M67.9,494.93h1.92v10.61H67.9Z"/><path class="cls-1" d="M83.54,499.43v6.11H81.62v-5.89c0-2.08-1-3.1-2.86-3.1-2,0-3.36,1.22-3.36,3.52v5.47H73.48V494.93h1.84v1.6a4.54,4.54,0,0,1,3.82-1.7C81.72,494.83,83.54,496.31,83.54,499.43Z"/><path class="cls-1" d="M97.16,490.69v14.85H95.32v-1.68a4.48,4.48,0,0,1-3.78,1.8,5.42,5.42,0,0,1,0-10.83,4.51,4.51,0,0,1,3.7,1.7v-5.84Zm-1.9,9.54A3.57,3.57,0,1,0,91.7,504,3.49,3.49,0,0,0,95.26,500.23Z"/><path class="cls-1" d="M109.2,499.13v6.41h-1.82v-1.4a3.93,3.93,0,0,1-3.48,1.52c-2.4,0-3.93-1.28-3.93-3.13,0-1.7,1.11-3.1,4.27-3.1h3v-.38c0-1.62-.94-2.56-2.84-2.56a5.36,5.36,0,0,0-3.36,1.14l-.81-1.44a7.11,7.11,0,0,1,4.39-1.36C107.56,494.83,109.2,496.23,109.2,499.13Zm-1.92,3.17v-1.48h-3c-1.9,0-2.44.74-2.44,1.63,0,1.07.88,1.73,2.34,1.73A3.07,3.07,0,0,0,107.28,502.3Z"/><path class="cls-1" d="M122.82,499.43v6.11H120.9v-5.89c0-2.08-1-3.1-2.86-3.1-2,0-3.36,1.22-3.36,3.52v5.47h-1.92V494.93h1.84v1.6a4.54,4.54,0,0,1,3.82-1.7C121,494.83,122.82,496.31,122.82,499.43Z"/><path class="cls-1" d="M142.65,494.93v9.17c0,3.74-1.9,5.44-5.5,5.44a7.85,7.85,0,0,1-5.06-1.58l.92-1.48a6.47,6.47,0,0,0,4.08,1.38c2.5,0,3.64-1.16,3.64-3.56v-.84a4.85,4.85,0,0,1-3.82,1.64,5.14,5.14,0,1,1,0-10.27,4.84,4.84,0,0,1,3.92,1.74v-1.64Zm-1.88,5a3.66,3.66,0,0,0-7.3,0,3.65,3.65,0,0,0,7.3,0Z"/><path class="cls-1" d="M156.19,494.93v10.61h-1.82v-1.6a4.31,4.31,0,0,1-3.6,1.72c-2.74,0-4.56-1.5-4.56-4.63v-6.1h1.92v5.89c0,2.08,1,3.12,2.86,3.12,2,0,3.28-1.25,3.28-3.53v-5.48Zm-7.86-2.9a1,1,0,1,1,2,0,1,1,0,0,1-2,0Zm3.72,0a1,1,0,1,1,2,0,1,1,0,0,1-2,0Z"/><path class="cls-1" d="M158.87,500.23a5.3,5.3,0,0,1,5.6-5.4,4.73,4.73,0,0,1,4.32,2.26l-1.46.94a3.3,3.3,0,0,0-2.88-1.52,3.74,3.74,0,0,0,0,7.47,3.29,3.29,0,0,0,2.88-1.53l1.46.93a4.74,4.74,0,0,1-4.32,2.28A5.31,5.31,0,0,1,158.87,500.23Z"/><path class="cls-1" d="M171.13,490.69h1.92v14.85h-1.92Z"/><path class="cls-1" d="M186.29,500.23a5.19,5.19,0,0,1-5.32,5.41,5.11,5.11,0,0,1-5.24-5.47c0-.16,0-.4,0-.58h8.6a3.59,3.59,0,0,0-3.84-3.1,4,4,0,0,0-3.06,1.28l-1.06-1.24a5.32,5.32,0,0,1,4.18-1.72C184,494.81,186.29,497.07,186.29,500.23Zm-1.92.75h-6.8a3.42,3.42,0,0,0,6.8,0Z"/><path class="cls-1" d="M199,499.43v6.11h-1.92v-5.89c0-2.08-1-3.1-2.86-3.1-2,0-3.36,1.22-3.36,3.52v5.47H189V494.93h1.84v1.6a4.54,4.54,0,0,1,3.82-1.7C197.19,494.83,199,496.31,199,499.43Z"/><path class="cls-1" d="M212.63,490.69v14.85h-1.84v-1.68a4.48,4.48,0,0,1-3.78,1.8,5.42,5.42,0,0,1,0-10.83,4.51,4.51,0,0,1,3.7,1.7v-5.84Zm-1.9,9.54a3.57,3.57,0,1,0-3.56,3.75A3.49,3.49,0,0,0,210.73,500.23Z"/><path class="cls-1" d="M216.05,491.85a1.18,1.18,0,0,1,2.36,0,1.18,1.18,0,1,1-2.36,0Zm.22,3.08h1.92v10.61h-1.92Z"/><path class="cls-1" d="M227.55,494.83v1.86a3.39,3.39,0,0,0-.44,0c-2.06,0-3.34,1.26-3.34,3.58v5.29h-1.92V494.93h1.84v1.78C224.37,495.47,225.69,494.83,227.55,494.83Z"/><path class="cls-1" d="M229.69,491.85a1.18,1.18,0,0,1,2.36,0,1.18,1.18,0,1,1-2.36,0Zm.22,3.08h1.92v10.61h-1.92Z"/><path class="cls-1" d="M246.47,500.23a5.16,5.16,0,0,1-5.36,5.43,4.48,4.48,0,0,1-3.78-1.8v1.68h-1.84V490.69h1.92v5.84a4.51,4.51,0,0,1,3.7-1.7A5.14,5.14,0,0,1,246.47,500.23Zm-1.94,0A3.57,3.57,0,1,0,241,504,3.49,3.49,0,0,0,244.53,500.23Z"/><path class="cls-1" d="M250.67,504.27a4,4,0,0,1-.34,1.45l-.94,2.78h-1.26l.74-3a1.28,1.28,0,0,1-.84-1.25,1.31,1.31,0,0,1,1.34-1.35A1.29,1.29,0,0,1,250.67,504.27Z"/><path class="cls-1" d="M258.58,500.23a5.52,5.52,0,1,1,5.52,5.43A5.27,5.27,0,0,1,258.58,500.23Zm9.09,0A3.58,3.58,0,1,0,264.1,504,3.49,3.49,0,0,0,267.67,500.23ZM261.2,492a1,1,0,1,1,2,0,1,1,0,0,1-2,0Zm3.73,0a1,1,0,1,1,2,0,1,1,0,0,1-2,0Z"/><path class="cls-1" d="M280,504v1.58h-8.88V504.3l6.26-7.79H271.2v-1.58h8.6v1.26L273.54,504Z"/><path class="cls-1" d="M291.94,500.23a5.19,5.19,0,0,1-5.32,5.41,5.11,5.11,0,0,1-5.24-5.47c0-.16,0-.4,0-.58H290a3.59,3.59,0,0,0-3.84-3.1,4,4,0,0,0-3.06,1.28l-1.06-1.24a5.32,5.32,0,0,1,4.18-1.72C289.66,494.81,291.94,497.07,291.94,500.23ZM290,501h-6.8a3.42,3.42,0,0,0,6.8,0Z"/><path class="cls-1" d="M294.6,490.69h1.92v14.85H294.6Z"/><path class="cls-1" d="M316.32,490.69v14.85h-1.84v-1.68a4.48,4.48,0,0,1-3.78,1.8,5.42,5.42,0,0,1,0-10.83,4.51,4.51,0,0,1,3.7,1.7v-5.84Zm-1.9,9.54a3.57,3.57,0,1,0-3.56,3.75A3.49,3.49,0,0,0,314.42,500.23Z"/><path class="cls-1" d="M319.74,491.85a1.18,1.18,0,1,1,2.36,0,1.18,1.18,0,1,1-2.36,0Zm.22,3.08h1.92v10.61H320Z"/><path class="cls-1" d="M333.4,504v1.58h-8.88V504.3l6.26-7.79h-6.14v-1.58h8.6v1.26L327,504Z"/><path class="cls-1" d="M344.36,499.13v6.41h-1.82v-1.4a3.93,3.93,0,0,1-3.48,1.52c-2.4,0-3.92-1.28-3.92-3.13,0-1.7,1.1-3.1,4.26-3.1h3v-.38c0-1.62-.94-2.56-2.84-2.56a5.36,5.36,0,0,0-3.36,1.14l-.8-1.44a7.06,7.06,0,0,1,4.38-1.36C342.72,494.83,344.36,496.23,344.36,499.13Zm-1.92,3.17v-1.48h-3c-1.9,0-2.44.74-2.44,1.63,0,1.07.88,1.73,2.34,1.73A3.07,3.07,0,0,0,342.44,502.3Z"/><path class="cls-1" d="M357.1,494.93,352,506.6c-.94,2.24-2.16,2.94-3.78,2.94a4,4,0,0,1-2.72-1l.82-1.44a2.71,2.71,0,0,0,1.9.78c.92,0,1.5-.42,2-1.64l.34-.74-4.68-10.59h2l3.7,8.49,3.66-8.49Z"/><path class="cls-1" d="M369,499.43v6.11H367v-5.89c0-2.08-1-3.1-2.86-3.1-2,0-3.36,1.22-3.36,3.52v5.47H358.9V494.93h1.84v1.6a4.54,4.54,0,0,1,3.82-1.7C367.14,494.83,369,496.31,369,499.43Z"/><path class="cls-1" d="M372.52,490.69h1.92v14.85h-1.92Z"/><path class="cls-1" d="M386.5,499.13v6.41h-1.82v-1.4a3.93,3.93,0,0,1-3.48,1.52c-2.4,0-3.92-1.28-3.92-3.13,0-1.7,1.1-3.1,4.26-3.1h3v-.38c0-1.62-.94-2.56-2.84-2.56a5.36,5.36,0,0,0-3.36,1.14l-.8-1.44a7.06,7.06,0,0,1,4.38-1.36C384.86,494.83,386.5,496.23,386.5,499.13Zm-1.92,3.17v-1.48h-3c-1.9,0-2.44.74-2.44,1.63,0,1.07.88,1.73,2.34,1.73A3.07,3.07,0,0,0,384.58,502.3Z"/><path class="cls-1" d="M389.38,499.21h5.38v1.66h-5.38Z"/><path class="cls-1" d="M52.46,518.83v1.86a3.39,3.39,0,0,0-.44,0c-2.06,0-3.34,1.26-3.34,3.58v5.29H46.76V518.93H48.6v1.78C49.28,519.47,50.6,518.83,52.46,518.83Z"/><path class="cls-1" d="M54.64,518.93h1.92v10.61H54.64Z"/><path class="cls-1" d="M77.64,523.43v6.11H75.72v-5.89c0-2.08-1-3.1-2.75-3.1-1.92,0-3.18,1.22-3.18,3.52v5.47H67.87v-5.89c0-2.08-1-3.1-2.74-3.1-1.92,0-3.18,1.22-3.18,3.52v5.47H60V518.93h1.84v1.58a4.3,4.3,0,0,1,3.66-1.68,3.92,3.92,0,0,1,3.68,2,4.8,4.8,0,0,1,4.09-2C75.88,518.83,77.64,520.31,77.64,523.43Z"/><path class="cls-1" d="M81,518.93h1.92v10.61H81Z"/><path class="cls-1" d="M94.25,528v1.58H85.37V528.3l6.26-7.79H85.49v-1.58h8.6v1.26L87.83,528Z"/><path class="cls-1" d="M100.89,515.85a1.18,1.18,0,1,1,2.36,0,1.18,1.18,0,1,1-2.36,0Zm.22,3.08H103v10.61h-1.92Z"/><path class="cls-1" d="M106.51,514.69h1.92v14.85h-1.92Z"/><path class="cls-1" d="M121.49,524.23a5.19,5.19,0,0,1-5.32,5.41,5.11,5.11,0,0,1-5.24-5.47c0-.16,0-.4,0-.58h8.6a3.59,3.59,0,0,0-3.84-3.1,4,4,0,0,0-3.06,1.28l-1.06-1.24a5.32,5.32,0,0,1,4.18-1.72C119.21,518.81,121.49,521.07,121.49,524.23Zm-1.92.75h-6.8a3.42,3.42,0,0,0,6.8,0Z"/><path class="cls-1" d="M128.23,515.85a1.18,1.18,0,1,1,2.36,0,1.18,1.18,0,1,1-2.36,0Zm.22,3.08h1.92v10.61h-1.92Z"/><path class="cls-1" d="M137.47,529.64l-.24.9c1.16.12,1.74.78,1.74,1.66,0,1.12-1,1.82-2.48,1.82a3.36,3.36,0,0,1-1.78-.44l.42-1a2.64,2.64,0,0,0,1.36.34c.76,0,1.12-.3,1.12-.8s-.34-.78-1.14-.78h-.54l.44-1.72a7.17,7.17,0,0,1-3.86-1.22l.8-1.52A6.81,6.81,0,0,0,137,528c1.78,0,2.52-.54,2.52-1.44,0-2.39-6.7-.33-6.7-4.55,0-1.9,1.7-3.18,4.42-3.18a7.71,7.71,0,0,1,3.86,1l-.82,1.52a5.54,5.54,0,0,0-3.06-.84c-1.68,0-2.5.62-2.5,1.46,0,2.5,6.72.46,6.72,4.59C141.47,528.3,140,529.48,137.47,529.64Z"/><path class="cls-1" d="M165.78,523.43v6.11h-1.92v-5.89c0-2.08-1-3.1-2.74-3.1-1.92,0-3.18,1.22-3.18,3.52v5.47H156v-5.89c0-2.08-1-3.1-2.74-3.1-1.92,0-3.18,1.22-3.18,3.52v5.47h-1.92V518.93H150v1.58a4.3,4.3,0,0,1,3.66-1.68,3.92,3.92,0,0,1,3.68,2,4.78,4.78,0,0,1,4.08-2C164,518.83,165.78,520.31,165.78,523.43Z"/><path class="cls-1" d="M179,518.93v10.61h-1.82v-1.6a4.31,4.31,0,0,1-3.6,1.72c-2.74,0-4.56-1.5-4.56-4.63v-6.1H171v5.89c0,2.08,1,3.12,2.86,3.12,2,0,3.28-1.25,3.28-3.53v-5.48Zm-7.86-2.9a1,1,0,1,1,2,0,1,1,0,0,1-2,0Zm3.72,0a1,1,0,1,1,2,0,1,1,0,0,1-2,0Z"/><path class="cls-1" d="M188.19,518.83v1.86a3.39,3.39,0,0,0-.44,0c-2.06,0-3.34,1.26-3.34,3.58v5.29h-1.92V518.93h1.84v1.78C185,519.47,186.33,518.83,188.19,518.83Z"/><path class="cls-1" d="M198.75,523.13v6.41h-1.82v-1.4a3.93,3.93,0,0,1-3.48,1.52c-2.4,0-3.92-1.28-3.92-3.13,0-1.7,1.1-3.1,4.26-3.1h3v-.38c0-1.62-.94-2.56-2.84-2.56a5.36,5.36,0,0,0-3.36,1.14l-.8-1.44a7.06,7.06,0,0,1,4.38-1.36C197.11,518.83,198.75,520.23,198.75,523.13Zm-1.92,3.17v-1.48h-3c-1.9,0-2.44.74-2.44,1.63,0,1.07.88,1.73,2.34,1.73A3.07,3.07,0,0,0,196.83,526.3Z"/><path class="cls-1" d="M201.21,524.23a5.3,5.3,0,0,1,5.6-5.4,4.73,4.73,0,0,1,4.32,2.26l-1.46.94a3.3,3.3,0,0,0-2.88-1.52,3.74,3.74,0,0,0,0,7.47,3.29,3.29,0,0,0,2.88-1.53l1.46.93a4.74,4.74,0,0,1-4.32,2.28A5.31,5.31,0,0,1,201.21,524.23Z"/><path class="cls-1" d="M213.2,515.85a1.18,1.18,0,1,1,2.36,0,1.18,1.18,0,1,1-2.36,0Zm.22,3.08h1.92v10.61h-1.92Z"/><path class="cls-1" d="M228.4,524.23a5.19,5.19,0,0,1-5.32,5.41,5.11,5.11,0,0,1-5.24-5.47c0-.16,0-.4,0-.58h8.6a3.59,3.59,0,0,0-3.84-3.1,4,4,0,0,0-3.06,1.28l-1.06-1.24a5.32,5.32,0,0,1,4.18-1.72C226.12,518.81,228.4,521.07,228.4,524.23Zm-1.92.75h-6.8a3.42,3.42,0,0,0,6.8,0Z"/><path class="cls-1" d="M236.84,528.92a3.62,3.62,0,0,1-2.32.74,3,3,0,0,1-3.36-3.32v-5.83h-1.8v-1.58h1.8v-2.32h1.92v2.32h3v1.58h-3v5.75a1.56,1.56,0,0,0,1.66,1.78,2.42,2.42,0,0,0,1.5-.5Z"/><path class="cls-1" d="M239,514.69h1.92v14.85H239Z"/><path class="cls-1" d="M254,524.23a5.19,5.19,0,0,1-5.32,5.41,5.11,5.11,0,0,1-5.24-5.47c0-.16,0-.4,0-.58H252a3.59,3.59,0,0,0-3.84-3.1,4,4,0,0,0-3.06,1.28l-1.06-1.24a5.32,5.32,0,0,1,4.18-1.72C251.68,518.81,254,521.07,254,524.23ZM252,525h-6.8a3.42,3.42,0,0,0,6.8,0Z"/><path class="cls-1" d="M262.14,518.83v1.86a3.39,3.39,0,0,0-.44,0c-2.06,0-3.34,1.26-3.34,3.58v5.29h-1.93V518.93h1.85v1.78C259,519.47,260.28,518.83,262.14,518.83Z"/><path class="cls-1" d="M264.09,515.85a1.18,1.18,0,1,1,2.36,0,1.18,1.18,0,1,1-2.36,0Zm.22,3.08h1.92v10.61h-1.92Z"/><path class="cls-1" d="M279.77,523.43v6.11h-1.92v-5.89c0-2.08-1-3.1-2.86-3.1-2,0-3.36,1.22-3.36,3.52v5.47h-1.92V518.93h1.84v1.6a4.54,4.54,0,0,1,3.82-1.7C278,518.83,279.77,520.31,279.77,523.43Z"/><path class="cls-1" d="M293.21,514.69v14.85h-1.84v-1.68a4.48,4.48,0,0,1-3.78,1.8,5.42,5.42,0,0,1,0-10.83,4.51,4.51,0,0,1,3.7,1.7v-5.84Zm-1.9,9.54a3.57,3.57,0,1,0-3.56,3.75A3.49,3.49,0,0,0,291.31,524.23Z"/><path class="cls-1" d="M306.25,524.23a5.19,5.19,0,0,1-5.32,5.41,5.11,5.11,0,0,1-5.24-5.47c0-.16,0-.4,0-.58h8.6a3.59,3.59,0,0,0-3.84-3.1,4,4,0,0,0-3.06,1.28l-1.06-1.24a5.32,5.32,0,0,1,4.18-1.72C304,518.81,306.25,521.07,306.25,524.23Zm-1.92.75h-6.8a3.42,3.42,0,0,0,6.8,0Z"/><path class="cls-1" d="M323.09,518.93v10.61h-1.82v-1.6a4.31,4.31,0,0,1-3.6,1.72c-2.74,0-4.56-1.5-4.56-4.63v-6.1H315v5.89c0,2.08,1,3.12,2.86,3.12,2,0,3.28-1.25,3.28-3.53v-5.48Zm-7.86-2.9a1,1,0,1,1,2,0,1,1,0,0,1-2,0Zm3.72,0a1,1,0,1,1,2,0,1,1,0,1,1-2,0Z"/><path class="cls-1" d="M325.23,528.42l.8-1.52a6.81,6.81,0,0,0,3.72,1.1c1.78,0,2.52-.54,2.52-1.44,0-2.39-6.7-.33-6.7-4.55,0-1.9,1.7-3.18,4.42-3.18a7.71,7.71,0,0,1,3.86,1l-.82,1.52a5.54,5.54,0,0,0-3.06-.84c-1.68,0-2.5.62-2.5,1.46,0,2.5,6.72.46,6.72,4.59,0,1.92-1.76,3.14-4.58,3.14A7.65,7.65,0,0,1,325.23,528.42Z"/><path class="cls-1" d="M342.37,528.92a3.62,3.62,0,0,1-2.32.74,3,3,0,0,1-3.36-3.32v-5.83h-1.8v-1.58h1.8v-2.32h1.92v2.32h3v1.58h-3v5.75a1.56,1.56,0,0,0,1.66,1.78,2.42,2.42,0,0,0,1.5-.5Z"/><path class="cls-1" d="M354.39,518.93v10.61h-1.82v-1.6a4.31,4.31,0,0,1-3.6,1.72c-2.74,0-4.56-1.5-4.56-4.63v-6.1h1.92v5.89c0,2.08,1,3.12,2.86,3.12,2,0,3.28-1.25,3.28-3.53v-5.48Zm-7.86-2.9a1,1,0,1,1,2,0,1,1,0,1,1-2,0Zm3.72,0a1,1,0,1,1,2,0,1,1,0,1,1-2,0Z"/><path class="cls-1" d="M367.93,523.43v6.11H366v-5.89c0-2.08-1-3.1-2.86-3.1-2,0-3.36,1.22-3.36,3.52v5.47h-1.92V518.93h1.84v1.6a4.54,4.54,0,0,1,3.82-1.7C366.1,518.83,367.93,520.31,367.93,523.43Z"/><path class="cls-1" d="M371.3,514.69h1.92v14.85H371.3Z"/><path class="cls-1" d="M386.58,518.93v10.61h-1.82v-1.6a4.31,4.31,0,0,1-3.6,1.72c-2.74,0-4.56-1.5-4.56-4.63v-6.1h1.92v5.89c0,2.08,1,3.12,2.86,3.12,2,0,3.28-1.25,3.28-3.53v-5.48Zm-7.86-2.9a1,1,0,1,1,2,0,1,1,0,0,1-2,0Zm3.72,0a1,1,0,1,1,2,0,1,1,0,1,1-2,0Z"/><path class="cls-1" d="M389.38,523.21h5.38v1.66h-5.38Z"/><path class="cls-1" d="M56.14,542.93,51,554.6c-.94,2.24-2.16,2.94-3.78,2.94a4,4,0,0,1-2.72-1l.82-1.44a2.71,2.71,0,0,0,1.9.78c.92,0,1.5-.42,2-1.64l.34-.74L44.9,542.93h2l3.7,8.49,3.66-8.49Z"/><path class="cls-1" d="M67.82,542.93v10.61H66v-1.6a4.31,4.31,0,0,1-3.6,1.72c-2.74,0-4.56-1.5-4.56-4.63v-6.1h1.92v5.89c0,2.08,1,3.12,2.86,3.12,2,0,3.28-1.25,3.28-3.53v-5.48ZM60,540a1,1,0,1,1,2,0,1,1,0,0,1-2,0Zm3.72,0a1,1,0,1,1,2,0,1,1,0,1,1-2,0Z"/><path class="cls-1" d="M81.54,547.43v6.11H79.62v-5.89c0-2.08-1-3.1-2.86-3.1-2,0-3.36,1.22-3.36,3.52v5.47H71.48V542.93h1.84v1.6a4.54,4.54,0,0,1,3.82-1.7C79.72,542.83,81.54,544.31,81.54,547.43Z"/><path class="cls-1" d="M95,542.93v10.61H93.16v-1.6a4.31,4.31,0,0,1-3.6,1.72c-2.74,0-4.56-1.5-4.56-4.63v-6.1h1.92v5.89c0,2.08,1,3.12,2.86,3.12,2,0,3.28-1.25,3.28-3.53v-5.48ZM87.12,540a1,1,0,1,1,2,0,1,1,0,0,1-2,0Zm3.72,0a1,1,0,1,1,2,0,1,1,0,0,1-2,0Z"/><path class="cls-1" d="M106.5,552v1.58H97.62V552.3l6.26-7.79H97.74v-1.58h8.6v1.26L100.08,552Z"/><path class="cls-1" d="M118.94,542.93v10.61h-1.82v-1.6a4.31,4.31,0,0,1-3.6,1.72c-2.74,0-4.56-1.5-4.56-4.63v-6.1h1.92v5.89c0,2.08,1,3.12,2.86,3.12,2,0,3.28-1.25,3.28-3.53v-5.48Zm-7.86-2.9a1,1,0,1,1,2,0,1,1,0,0,1-2,0Zm3.72,0a1,1,0,1,1,2,0,1,1,0,0,1-2,0Z"/><path class="cls-1" d="M127,548.23a5.51,5.51,0,1,1,5.52,5.43A5.27,5.27,0,0,1,127,548.23Zm9.08,0a3.57,3.57,0,1,0-7.14,0,3.57,3.57,0,1,0,7.14,0Z"/><path class="cls-1" d="M146.38,542.83v1.86a3.39,3.39,0,0,0-.44,0c-2.06,0-3.34,1.26-3.34,3.58v5.29h-1.92V542.93h1.84v1.78C143.2,543.47,144.52,542.83,146.38,542.83Z"/><path class="cls-1" d="M155.14,552.92a3.62,3.62,0,0,1-2.32.74,3,3,0,0,1-3.36-3.32v-5.83h-1.8v-1.58h1.8v-2.32h1.92v2.32h3v1.58h-3v5.75A1.56,1.56,0,0,0,153,552a2.42,2.42,0,0,0,1.5-.5Z"/><path class="cls-1" d="M165.86,547.13v6.41H164v-1.4a3.93,3.93,0,0,1-3.48,1.52c-2.4,0-3.92-1.28-3.92-3.13,0-1.7,1.1-3.1,4.26-3.1h3v-.38c0-1.62-.94-2.56-2.84-2.56a5.36,5.36,0,0,0-3.36,1.14l-.81-1.44a7.11,7.11,0,0,1,4.39-1.36C164.22,542.83,165.86,544.23,165.86,547.13Zm-1.92,3.17v-1.48h-3c-1.9,0-2.44.74-2.44,1.63,0,1.07.88,1.73,2.34,1.73A3.07,3.07,0,0,0,163.94,550.3Z"/><path class="cls-1" d="M178.6,542.93l-5.14,11.67c-.94,2.24-2.16,2.94-3.78,2.94a4,4,0,0,1-2.72-1l.82-1.44a2.71,2.71,0,0,0,1.9.78c.92,0,1.5-.42,2-1.64l.34-.74-4.68-10.59h2l3.7,8.49,3.66-8.49Z"/><path class="cls-1" d="M188.46,547.13v6.41h-1.82v-1.4a3.93,3.93,0,0,1-3.48,1.52c-2.4,0-3.93-1.28-3.93-3.13,0-1.7,1.11-3.1,4.27-3.1h3v-.38c0-1.62-.94-2.56-2.84-2.56a5.36,5.36,0,0,0-3.36,1.14l-.81-1.44a7.11,7.11,0,0,1,4.39-1.36C186.82,542.83,188.46,544.23,188.46,547.13Zm-1.92,3.17v-1.48h-3c-1.9,0-2.44.74-2.44,1.63,0,1.07.88,1.73,2.34,1.73A3.07,3.07,0,0,0,186.54,550.3Z"/><path class="cls-1" d="M204.88,550.45l1.46.93a4.7,4.7,0,0,1-4.28,2.28l-.24.88c1.16.12,1.74.78,1.74,1.66,0,1.12-1,1.82-2.48,1.82a3.36,3.36,0,0,1-1.78-.44l.42-1a2.64,2.64,0,0,0,1.36.34c.76,0,1.12-.3,1.12-.8s-.34-.78-1.14-.78h-.54l.46-1.78a5.24,5.24,0,0,1-4.57-5.35,5.3,5.3,0,0,1,5.61-5.4,4.73,4.73,0,0,1,4.32,2.26l-1.46.94a3.3,3.3,0,0,0-2.88-1.52,3.74,3.74,0,0,0,0,7.47A3.29,3.29,0,0,0,204.88,550.45Z"/><path class="cls-1" d="M208.81,542.93h1.93v10.61h-1.93Z"/><path class="cls-1" d="M221.16,553.54l-3.06-4.06-3.1,4.06h-2.15l4.19-5.43-4-5.18h2.14l2.93,3.82,2.9-3.82h2.1l-4,5.18,4.22,5.43Z"/><path class="cls-1" d="M233.64,547.13v6.41h-1.82v-1.4a3.93,3.93,0,0,1-3.48,1.52c-2.4,0-3.92-1.28-3.92-3.13,0-1.7,1.1-3.1,4.26-3.1h3v-.38c0-1.62-.94-2.56-2.84-2.56a5.36,5.36,0,0,0-3.36,1.14l-.8-1.44a7.06,7.06,0,0,1,4.38-1.36C232,542.83,233.64,544.23,233.64,547.13Zm-1.92,3.17v-1.48h-3c-1.9,0-2.44.74-2.44,1.63,0,1.07.88,1.73,2.34,1.73A3.07,3.07,0,0,0,231.72,550.3Z"/><path class="cls-1" d="M242.9,542.83v1.86a3.39,3.39,0,0,0-.44,0c-2.06,0-3.34,1.26-3.34,3.58v5.29H237.2V542.93H239v1.78C239.72,543.47,241,542.83,242.9,542.83Z"/><path class="cls-1" d="M255.16,538.69v14.85h-1.84v-1.68a4.48,4.48,0,0,1-3.78,1.8,5.42,5.42,0,0,1,0-10.83,4.51,4.51,0,0,1,3.7,1.7v-5.84Zm-1.9,9.54A3.57,3.57,0,1,0,249.7,552,3.49,3.49,0,0,0,253.26,548.23Z"/><path class="cls-1" d="M267.2,547.13v6.41h-1.82v-1.4a3.93,3.93,0,0,1-3.48,1.52c-2.4,0-3.93-1.28-3.93-3.13,0-1.7,1.11-3.1,4.27-3.1h3v-.38c0-1.62-.94-2.56-2.84-2.56a5.36,5.36,0,0,0-3.36,1.14l-.81-1.44a7.11,7.11,0,0,1,4.39-1.36C265.56,542.83,267.2,544.23,267.2,547.13Zm-1.92,3.17v-1.48h-3c-1.9,0-2.44.74-2.44,1.63,0,1.07.88,1.73,2.34,1.73A3.07,3.07,0,0,0,265.28,550.3Z"/><path class="cls-1" d="M287.12,548.23a5.16,5.16,0,0,1-5.36,5.43,4.48,4.48,0,0,1-3.78-1.8v1.68h-1.84V538.69h1.92v5.84a4.51,4.51,0,0,1,3.7-1.7A5.14,5.14,0,0,1,287.12,548.23Zm-1.94,0A3.57,3.57,0,1,0,281.6,552,3.49,3.49,0,0,0,285.18,548.23Z"/><path class="cls-1" d="M289.55,539.85a1.19,1.19,0,1,1,1.18,1.18A1.16,1.16,0,0,1,289.55,539.85Zm.22,3.08h1.93v10.61h-1.93Z"/><path class="cls-1" d="M295.35,538.69h1.93v14.85h-1.93Z"/><path class="cls-1" d="M310.52,548.23a5.19,5.19,0,0,1-5.32,5.41,5.12,5.12,0,0,1-5.25-5.47c0-.16,0-.4,0-.58h8.61a3.59,3.59,0,0,0-3.84-3.1,4,4,0,0,0-3.07,1.28l-1.05-1.24a5.29,5.29,0,0,1,4.18-1.72C308.24,542.81,310.52,545.07,310.52,548.23Zm-1.92.75h-6.8a3.42,3.42,0,0,0,6.8,0Z"/><path class="cls-1" d="M318.88,542.83v1.86a3.39,3.39,0,0,0-.44,0c-2.06,0-3.34,1.26-3.34,3.58v5.29h-1.92V542.93H315v1.78C315.7,543.47,317,542.83,318.88,542.83Z"/><path class="cls-1" d="M320,552.42l.8-1.52a6.81,6.81,0,0,0,3.72,1.1c1.78,0,2.52-.54,2.52-1.44,0-2.39-6.7-.33-6.7-4.55,0-1.9,1.7-3.18,4.42-3.18a7.71,7.71,0,0,1,3.86,1l-.82,1.52a5.54,5.54,0,0,0-3.06-.84c-1.68,0-2.5.62-2.5,1.46,0,2.5,6.72.46,6.72,4.59,0,1.92-1.76,3.14-4.58,3.14A7.65,7.65,0,0,1,320,552.42Z"/><path class="cls-1" d="M331.12,539.85a1.18,1.18,0,1,1,2.36,0,1.18,1.18,0,1,1-2.36,0Zm.22,3.08h1.92v10.61h-1.92Z"/><path class="cls-1" d="M347,547.43v6.11h-1.92v-5.89c0-2.08-1-3.1-2.86-3.1-2,0-3.36,1.22-3.36,3.52v5.47h-1.92V542.93h1.84v1.6a4.54,4.54,0,0,1,3.82-1.7C345.16,542.83,347,544.31,347,547.43Z"/><path class="cls-1" d="M350.32,539.85a1.18,1.18,0,1,1,2.36,0,1.18,1.18,0,1,1-2.36,0Zm.22,3.08h1.92v10.61h-1.92Z"/><path class="cls-1" d="M364,552v1.58h-8.89V552.3l6.27-7.79h-6.14v-1.58h8.6v1.26L357.56,552Z"/><path class="cls-1" d="M365.69,552.27a1.33,1.33,0,0,1,1.36-1.35,1.32,1.32,0,0,1,1.33,1.35,1.34,1.34,0,0,1-1.33,1.39A1.36,1.36,0,0,1,365.69,552.27Z"/><path class="cls-21" d="M778.07,553.8c.34.23,1.16-.53,1.1.55,0,.63,0,1.27,0,1.91v363.6c-.6.18-1.21.36-1.82.52L703.4,939.29l-171.81,44q-85.91,22-171.8,44Q270.58,1050,181.4,1072.89c-8.92,2.29-17.93,4.29-26.73,7.06q-76.21,0-152.43,0c-1.87,0-2.24-.37-2.24-2.24Q.09,915.49.05,753.22l85.26-21.84,174-44.51,174.21-44.58,167.37-42.87q77.37-19.8,154.74-39.63C763.1,557.86,770.71,556.29,778.07,553.8Z"/><path class="cls-21" d="M1080.48,841.55V1004.1c-.61.17-1.21.36-1.82.51l-88.2,22.6q-89.38,22.86-178.77,45.73c-8.85,2.27-17.67,4.67-26.51,7-4.6,0-9.2-.07-13.79,0-1.56,0-2-.23-2-1.92.08-16.68.05-33.36.05-50V920.66a5.6,5.6,0,0,0,2.62-.38q57.39-14.71,114.79-29.39,85.3-21.84,170.62-43.65C1065.14,845.29,1072.72,843,1080.48,841.55Z"/><path class="cls-22" d="M850.47,1031.16a20.26,20.26,0,1,1,20.26-20.26A20.28,20.28,0,0,1,850.47,1031.16Zm0-39a18.72,18.72,0,1,0,18.72,18.72A18.74,18.74,0,0,0,850.47,992.18Z"/><path class="cls-23" d="M861.16,1010.36a10.5,10.5,0,0,0-21-.19c0,.15,0,.3,0,.45a10.36,10.36,0,0,0,1.5,5.38l-1.89,5.59,5.81-1.85a10.51,10.51,0,0,0,15.57-9.12Zm-10.49,9a8.79,8.79,0,0,1-4.86-1.45l-3.39,1.08,1.1-3.25a8.66,8.66,0,0,1-1.68-5.14,8.06,8.06,0,0,1,0-.85,8.83,8.83,0,0,1,17.58.17c0,.23,0,.45,0,.68A8.8,8.8,0,0,1,850.67,1019.38Z"/><path class="cls-23" d="M855.48,1012.73c-.26-.13-1.53-.75-1.76-.83s-.41-.13-.58.12-.67.83-.82,1-.3.19-.56.06a6.94,6.94,0,0,1-2.07-1.26,7.79,7.79,0,0,1-1.43-1.77c-.14-.25,0-.39.12-.52s.25-.3.38-.45l.1-.12a2.72,2.72,0,0,0,.16-.3.47.47,0,0,0,0-.45c-.06-.13-.58-1.39-.8-1.9s-.42-.42-.58-.42l-.49,0a1,1,0,0,0-.69.31,2.91,2.91,0,0,0-.89,2.14,3.22,3.22,0,0,0,.13.87,5.77,5.77,0,0,0,.92,1.77,10.53,10.53,0,0,0,4.39,3.85c2.62,1,2.62.68,3.09.64a2.61,2.61,0,0,0,1.74-1.22A2.19,2.19,0,0,0,856,1013,1.4,1.4,0,0,0,855.48,1012.73Z"/><rect class="cls-22" x="898.46" y="1006.28" width="4.03" height="13.03"/><path class="cls-22" d="M900.45,1004.57a2.41,2.41,0,1,0-2.38-2.4A2.4,2.4,0,0,0,900.45,1004.57Z"/><path class="cls-22" d="M908.94,1012.47c0-1.83.84-2.92,2.46-2.92s2.19,1,2.19,2.92v6.84h4v-8.25c0-3.49-2-5.18-4.75-5.18a4.53,4.53,0,0,0-3.92,2.15v-1.75h-3.87v13h3.87Z"/><path class="cls-22" d="M907.84,1031.16a20.26,20.26,0,1,1,20.26-20.26A20.28,20.28,0,0,1,907.84,1031.16Zm0-39a18.72,18.72,0,1,0,18.72,18.72A18.74,18.74,0,0,0,907.84,992.18Z"/><path class="cls-22" d="M962.23,1022.48H967V1010.6h3.31l.35-4H967v-2.26c0-.94.19-1.31,1.09-1.31h2.57v-4.13h-3.28c-3.54,0-5.13,1.56-5.13,4.53v3.17h-2.47v4h2.47Z"/><path class="cls-22" d="M965.2,1031.16a20.26,20.26,0,1,1,20.26-20.26A20.28,20.28,0,0,1,965.2,1031.16Zm0-39a18.72,18.72,0,1,0,18.73,18.72A18.74,18.74,0,0,0,965.2,992.18Z"/><path class="cls-22" d="M1022.27,1001.37c2.85,0,3.19,0,4.32.06a5.81,5.81,0,0,1,2,.37,3.54,3.54,0,0,1,2,2,5.81,5.81,0,0,1,.37,2c0,1.13.06,1.47.06,4.32s0,3.19-.06,4.32a5.81,5.81,0,0,1-.37,2,3.54,3.54,0,0,1-2,2,5.81,5.81,0,0,1-2,.37c-1.13,0-1.46.06-4.32.06s-3.19,0-4.32-.06a5.87,5.87,0,0,1-2-.37,3.16,3.16,0,0,1-1.23-.8,3.28,3.28,0,0,1-.8-1.23,5.81,5.81,0,0,1-.37-2c-.05-1.13-.06-1.47-.06-4.32s0-3.19.06-4.32a5.81,5.81,0,0,1,.37-2,3.28,3.28,0,0,1,.8-1.23,3.16,3.16,0,0,1,1.23-.8,5.87,5.87,0,0,1,2-.37c1.13,0,1.47-.06,4.32-.06m0-1.93c-2.9,0-3.27,0-4.41.07a7.94,7.94,0,0,0-2.59.49,5.25,5.25,0,0,0-1.89,1.24,5.09,5.09,0,0,0-1.23,1.89,7.66,7.66,0,0,0-.5,2.59c0,1.14-.07,1.51-.07,4.41s0,3.27.07,4.41a7.66,7.66,0,0,0,.5,2.59,5.09,5.09,0,0,0,1.23,1.89,5.25,5.25,0,0,0,1.89,1.24,7.94,7.94,0,0,0,2.59.49c1.14,0,1.51.07,4.41.07s3.27,0,4.41-.07a7.88,7.88,0,0,0,2.59-.49,5.56,5.56,0,0,0,3.13-3.13,7.94,7.94,0,0,0,.49-2.59c.06-1.14.07-1.51.07-4.41s0-3.27-.07-4.41a7.94,7.94,0,0,0-.49-2.59,5.56,5.56,0,0,0-3.13-3.13,7.88,7.88,0,0,0-2.59-.49c-1.14,0-1.51-.07-4.41-.07"/><path class="cls-22" d="M1022.27,1004.64a5.49,5.49,0,1,0,5.49,5.49,5.49,5.49,0,0,0-5.49-5.49m0,9.05a3.56,3.56,0,1,1,3.56-3.56,3.56,3.56,0,0,1-3.56,3.56"/><path class="cls-22" d="M1029.26,1004.43a1.29,1.29,0,1,1-1.28-1.29,1.29,1.29,0,0,1,1.28,1.29"/><path class="cls-22" d="M1022.27,1031.16a20.26,20.26,0,1,1,20.26-20.26A20.28,20.28,0,0,1,1022.27,1031.16Zm0-39A18.72,18.72,0,1,0,1041,1010.9,18.74,18.74,0,0,0,1022.27,992.18Z"/><text class="cls-24" transform="translate(97.98 992.74)">CV <tspan class="cls-25" x="0" y="36.66">H</tspan><tspan x="22.18" y="36.66">AZI</tspan><tspan class="cls-26" x="71.93" y="36.66">R</tspan><tspan class="cls-27" x="91.89" y="36.66">L</tspan><tspan x="109.57" y="36.66">A</tspan><tspan class="cls-25" x="130.9" y="36.66">M</tspan><tspan class="cls-28" x="157.58" y="36.66">A</tspan></text><path class="cls-22" d="M71.65,968.49l-4.42,5.72H45.3a3.1,3.1,0,0,0-3.11,3.1v43.87a3.1,3.1,0,0,0,3.11,3.1H68.88L71,1030H36.47V968.49Z"/><path class="cls-22" d="M71.5,1030,53.57,982.5,60,985.33l10.14,26.89a1.43,1.43,0,0,0,2.68,0l10.07-26.89,6.42-2.83Z"/><polygon class="cls-22" points="70.07 985.33 72.72 985.33 74.14 1001.76 71.77 1005.07 69.06 1001.81 70.07 985.33"/><polygon class="cls-22" points="71.41 981.91 69.66 983.74 70.11 985.06 72.72 985.06 73.16 983.71 71.41 981.91"/><polygon class="cls-22" points="71.65 981.73 77.42 980.42 74.89 985.33 71.65 981.73"/><polygon class="cls-22" points="71.15 981.73 65.38 980.42 67.92 985.33 71.15 981.73"/><rect class="cls-22" x="421.35" y="53.82" width="622.88" height="870.24"/><rect class="cls-29" x="435.52" y="146.06" width="608.71" height="103.04"/><polygon class="cls-2" points="983.92 288.56 958.63 288.56 969.1 261.13 994.34 261.13 983.92 288.56"/><polygon class="cls-2" points="1002.28 288.56 987.46 288.56 997.92 261.13 1012.7 261.13 1002.28 288.56"/><polygon class="cls-2" points="954.89 288.56 638.01 288.56 638.01 261.13 965.36 261.13 954.89 288.56"/><polygon class="cls-22" points="688.44 277.94 681.78 274.53 681.78 279.47 688.46 283.37 695.14 279.47 695.14 274.51 688.44 277.94"/><polygon class="cls-22" points="698.05 271.67 698.05 271.67 688.44 266.75 678.84 271.67 678.84 271.67 678.84 271.67 678.84 271.67 678.84 271.67 688.44 276.58 698.05 271.67 698.05 271.67 698.05 271.67 698.05 271.67"/><polygon class="cls-22" points="696.82 272.93 696.17 273.23 696.17 278.17 696.83 278.17 696.82 272.93"/><path class="cls-22" d="M695.91,278.5h1.18v-.64a.59.59,0,0,0-.59-.59h0a.59.59,0,0,0-.59.59Z"/><text class="cls-30" transform="translate(711.63 279.77)">EDU<tspan class="cls-31" x="26.45" y="0">C</tspan><tspan class="cls-32" x="35.01" y="0">A</tspan><tspan x="42.85" y="0">TION</tspan></text><polygon class="cls-21" points="638.01 903.28 421.35 903.28 421.35 53.82 550.99 53.82 638.01 135.06 638.01 903.28"/><polygon class="cls-2" points="579.38 97.89 464.88 97.89 464.88 219.31 490.68 245.1 607.91 245.1 607.91 125.75 579.38 97.89"/><circle class="cls-22" cx="536.4" cy="167.3" r="58.88"/><circle class="cls-29" cx="536.4" cy="167.3" r="53.64"/><polygon class="cls-2" points="690.05 134.06 651.84 134.06 571.12 53.76 611.17 53.76 690.05 134.06"/><polygon class="cls-2" points="1044.23 134.06 703.14 134.06 626.17 53.83 1044.23 53.83 1044.23 134.06"/><rect class="cls-2" x="535.64" y="215.95" width="1.52" height="159.77" transform="translate(832.24 -240.56) rotate(90)"/><path class="cls-2" d="M478.84,400.75a6.23,6.23,0,0,1-2.69-.67,11.59,11.59,0,0,1-2-1.25,18.59,18.59,0,0,1-1.72-1.51,19.2,19.2,0,0,1-1.5-1.72,11.71,11.71,0,0,1-1.26-2c-.85-1.73-.9-3.63-.13-4.43l.13-.13L473,392.4l0,.11a1.29,1.29,0,0,0,.21,1.3c.37.44.8.9,1.33,1.43s1,.94,1.43,1.34h0a1.33,1.33,0,0,0,1.31.2l.11,0,3.33,3.34-.13.12A2.47,2.47,0,0,1,478.84,400.75Zm-9.13-11.16c-.52.76-.4,2.4.32,3.87a11.41,11.41,0,0,0,1.22,1.92,20.07,20.07,0,0,0,1.47,1.68,17.46,17.46,0,0,0,1.68,1.47,10.83,10.83,0,0,0,1.91,1.22c1.47.72,3.11.84,3.87.31l-2.9-2.9a1.69,1.69,0,0,1-1.56-.3h0c-.47-.41-.94-.86-1.44-1.36s-1-1-1.36-1.45a1.7,1.7,0,0,1-.31-1.56Zm11.34,10.14-3.33-3.33.19-.12.16-.13,1-1a.66.66,0,0,1,.92,0l2.37,2.37a.63.63,0,0,1,.18.46.68.68,0,0,1-.19.46Zm-2.76-3.28,2.76,2.77,1.05-1.05a.29.29,0,0,0,.09-.21.27.27,0,0,0-.08-.19l-2.37-2.37a.3.3,0,0,0-.41,0l-1,1Zm-4.92-4.4L470,388.72l.6-.6.71-.71a.65.65,0,0,1,.91,0l2.37,2.37a.6.6,0,0,1,.19.46.66.66,0,0,1-.19.46l-1,1-.14.16Zm-2.81-3.33,2.77,2.77,0-.05,1-1a.27.27,0,0,0,.09-.2.28.28,0,0,0-.08-.2L472,387.67a.28.28,0,0,0-.4,0l-.71.71Z"/><path class="cls-2" d="M475.79,425.9a.72.72,0,0,1-.52-.23c-.22-.25-5.4-6.06-5.4-10.05a5.92,5.92,0,1,1,11.84,0c0,4-5.18,9.8-5.4,10.05A.72.72,0,0,1,475.79,425.9Zm0-15.84a5.56,5.56,0,0,0-5.55,5.56c0,3.85,5.08,9.56,5.3,9.8a.33.33,0,0,0,.5,0c.21-.24,5.3-5.95,5.3-9.8A5.56,5.56,0,0,0,475.79,410.06Zm0,8.62a3.07,3.07,0,1,1,3.07-3.06A3.07,3.07,0,0,1,475.79,418.68Zm0-5.77a2.71,2.71,0,1,0,2.7,2.71A2.71,2.71,0,0,0,475.79,412.91Z"/><path class="cls-2" d="M475,449.18a7.57,7.57,0,1,1,7.57-7.57A7.58,7.58,0,0,1,475,449.18Zm0-14.77a7.2,7.2,0,1,0,7.21,7.2A7.21,7.21,0,0,0,475,434.41Z"/><path class="cls-2" d="M475,449.18c-2.17,0-3.82-3.26-3.82-7.57S472.78,434,475,434s3.82,3.26,3.82,7.57S477.13,449.18,475,449.18Zm0-14.77c-2,0-3.45,3.09-3.45,7.2s1.48,7.2,3.45,7.2,3.46-3.1,3.46-7.2S476.92,434.41,475,434.41Z"/><rect class="cls-2" x="467.57" y="441.61" width="14.76" height="0.37"/><rect class="cls-2" x="468.27" y="444.56" width="13.37" height="0.37"/><rect class="cls-2" x="468.27" y="438.29" width="13.37" height="0.37"/><path class="cls-2" d="M475.8,371.79a1.41,1.41,0,0,1-.45-.07,2.73,2.73,0,0,1-.46-.22,4.1,4.1,0,0,1-.4-.25l-.41-.29-.32-.22-1.95-1.37-1.53-1.06a3.9,3.9,0,0,1-.92-.9,1.93,1.93,0,0,1-.45-1.13,1.72,1.72,0,0,1,.35-1.09,1.26,1.26,0,0,1,1-.45h11a1.38,1.38,0,0,1,1.37,1.37,2.16,2.16,0,0,1-.39,1.23,3.85,3.85,0,0,1-1,1l-3.5,2.43-.31.22-.41.29a4.1,4.1,0,0,1-.4.25,3.15,3.15,0,0,1-.46.22A1.38,1.38,0,0,1,475.8,371.79Zm-5.51-6.69a.89.89,0,0,0-.74.32,1.34,1.34,0,0,0-.27.86,1.56,1.56,0,0,0,.37.91,3.56,3.56,0,0,0,.83.82h0l1.53,1.06,2,1.37.32.23.4.28.38.24a2.2,2.2,0,0,0,.39.18,1,1,0,0,0,.65,0,2.27,2.27,0,0,0,.4-.18l.37-.24.4-.28.32-.23,3.5-2.43a3.39,3.39,0,0,0,.86-.87,1.76,1.76,0,0,0,.34-1,1,1,0,0,0-.3-.71,1,1,0,0,0-.71-.3Z"/><path class="cls-2" d="M481.29,375.62h-11a1.32,1.32,0,0,1-1-.41,1.31,1.31,0,0,1-.41-1v-6.41l.32.36a3.92,3.92,0,0,0,.72.62c1.79,1.21,3,2.08,3.72,2.58.28.21.51.37.68.48a4.66,4.66,0,0,0,.68.35,1.83,1.83,0,0,0,1.52,0,4,4,0,0,0,.67-.35q.27-.17.69-.48c.83-.61,2-1.45,3.72-2.58a4.87,4.87,0,0,0,.72-.62l.31-.36v6.41a1.3,1.3,0,0,1-.4,1A1.34,1.34,0,0,1,481.29,375.62Zm-12-6.87v5.49a1,1,0,0,0,.3.72,1,1,0,0,0,.71.29h11A1,1,0,0,0,482,375a1,1,0,0,0,.3-.72v-5.49a4.06,4.06,0,0,1-.46.36h0c-1.67,1.13-2.89,2-3.72,2.57l-.7.5a4.43,4.43,0,0,1-.73.37,2.14,2.14,0,0,1-1.8,0,5.06,5.06,0,0,1-.74-.37l-.7-.5c-.67-.49-1.92-1.36-3.7-2.57A3.43,3.43,0,0,1,469.28,368.75Z"/><text class="cls-33" transform="translate(485.91 373.82) scale(1.02 1)">Y<tspan class="cls-34" x="5.12" y="0">OURN</tspan><tspan class="cls-35" x="29.32" y="0">A</tspan><tspan class="cls-34" x="35.19" y="0">ME@G</tspan><tspan class="cls-36" x="60.46" y="0">M</tspan><tspan class="cls-37" x="67.68" y="0">AIL.</tspan><tspan class="cls-38" x="84.6" y="0">C</tspan><tspan class="cls-34" x="90.11" y="0">OM</tspan></text><text class="cls-33" transform="translate(485.91 444.56) scale(1.02 1)">Y<tspan class="cls-34" x="5.12" y="0">OURN</tspan><tspan class="cls-35" x="29.32" y="0">A</tspan><tspan class="cls-34" x="35.19" y="0">M</tspan><tspan class="cls-39" x="42.48" y="0">E</tspan><tspan class="cls-34" x="47.48" y="0">.</tspan><tspan class="cls-40" x="50.43" y="0">C</tspan><tspan class="cls-37" x="55.95" y="0">OM</tspan></text><text class="cls-41" transform="translate(485.91 395.32) scale(1.02 1)">+51 123 456 78</text><text class="cls-42" transform="translate(485.91 419.8) scale(1.02 1)">L<tspan class="cls-37" x="4.6" y="0">OREM STRE</tspan><tspan class="cls-43" x="52.21" y="0">E</tspan><tspan class="cls-37" x="57.35" y="0">T 123</tspan></text><text class="cls-44" transform="translate(501.28 340.41)"><tspan class="cls-45">C</tspan><tspan class="cls-46" x="8.12" y="0">ON</tspan><tspan class="cls-47" x="27.69" y="0">T</tspan><tspan class="cls-48" x="33.82" y="0">A</tspan><tspan class="cls-49" x="42.49" y="0">C</tspan><tspan x="51.32" y="0">T</tspan></text><polygon class="cls-2" points="954.85 554.33 638.01 554.33 638.01 526.9 965.23 526.9 954.85 554.33"/><path class="cls-22" d="M694.33,536h-3.68v-1.86L689,532.51h-3.33L684,534.14V536h-3.69a1.55,1.55,0,0,0-1.55,1.56v9.61a1.55,1.55,0,0,0,1.55,1.56h14a1.56,1.56,0,0,0,1.56-1.56v-9.61A1.56,1.56,0,0,0,694.33,536Zm-5.05,0h-3.87v-2.13h3.87Z"/><text class="cls-30" transform="translate(711.63 547.63)">EXPERIENCE</text><polygon class="cls-2" points="983.92 554.33 958.63 554.33 969.1 526.9 994.34 526.9 983.92 554.33"/><polygon class="cls-2" points="1002.28 554.33 987.46 554.33 997.92 526.9 1012.7 526.9 1002.28 554.33"/><text class="cls-50" transform="translate(446.32 278.52)">MİRƏLİ İSA<tspan class="cls-51" x="123.12" y="0">K</tspan><tspan class="cls-52" x="138.39" y="0">O</tspan><tspan x="155.65" y="0">V</tspan></text><text class="cls-44" transform="translate(482.21 516.39)">SOCIAL MEDIA</text><rect class="cls-2" x="467.39" y="527.65" width="148.9" height="25.76"/><rect class="cls-2" x="467.39" y="568.79" width="148.9" height="25.76"/><path class="cls-22" d="M475.77,582.1v-.86a.53.53,0,0,0,0-.12,6.71,6.71,0,0,1,.83-2.87,7.19,7.19,0,0,1,6.16-3.89,6.73,6.73,0,0,1,3.73.84,7.19,7.19,0,0,1,3.89,6.16,6.75,6.75,0,0,1-.85,3.76,7.26,7.26,0,0,1-5.2,3.77c-.27.05-.55.07-.83.11h-.86l-.11,0a6.85,6.85,0,0,1-2.89-.84,7.23,7.23,0,0,1-3.78-5.19C475.84,582.67,475.81,582.38,475.77,582.1Zm7.34,3.8c.68,0,1.37,0,2.06-.08a2.18,2.18,0,0,0,1.69-1,2.61,2.61,0,0,0,.42-1.46c0-.95,0-1.9,0-2.84,0-.32,0-.63-.05-.95a2.24,2.24,0,0,0-1-1.69,2.55,2.55,0,0,0-1.45-.41c-.95,0-1.9,0-2.86,0-.31,0-.63,0-.94,0a2.22,2.22,0,0,0-1.69,1,2.61,2.61,0,0,0-.42,1.46c0,.82,0,1.64,0,2.46,0,.44,0,.87.05,1.3a2.21,2.21,0,0,0,2.1,2.11C481.73,585.88,482.41,585.88,483.11,585.9Z"/><path class="cls-22" d="M479.64,581.67c0-.63,0-1.26.06-1.89a1.48,1.48,0,0,1,1.51-1.51c1.18,0,2.36,0,3.54,0a2.47,2.47,0,0,1,.6.08,1.38,1.38,0,0,1,1.12,1.21,7.37,7.37,0,0,1,.07,1c0,.88,0,1.76,0,2.64a2.88,2.88,0,0,1-.07.65,1.43,1.43,0,0,1-1.43,1.2c-1.2,0-2.41,0-3.61,0a2.89,2.89,0,0,1-.58-.08,1.39,1.39,0,0,1-1.11-1.21c-.05-.45-.06-.91-.07-1.37,0-.26,0-.52,0-.77Zm3.46-2.16a2.16,2.16,0,1,0,2.16,2.16A2.16,2.16,0,0,0,483.1,579.51Zm2.24-.59a.51.51,0,0,0-.5.5.51.51,0,1,0,.5-.5Z"/><path class="cls-22" d="M484.5,581.68a1.4,1.4,0,1,1-1.39-1.41A1.4,1.4,0,0,1,484.5,581.68Z"/><path class="cls-22" d="M483.22,547.85h-.55l-.11,0a7,7,0,0,1-2.89-.83,7.25,7.25,0,0,1-3.78-5.2c-.05-.28-.08-.56-.12-.85v-.86a.61.61,0,0,0,0-.13,6.91,6.91,0,0,1,.31-1.63,7.31,7.31,0,0,1,8.25-5A7.32,7.32,0,0,1,489.54,544a7.29,7.29,0,0,1-3.27,3.11c-.36.17-.74.3-1.13.46v-5.44h1.56l.24-1.84h-1.8c0-.49,0-1,0-1.43a.57.57,0,0,1,.56-.59,9.1,9.1,0,0,1,.91,0H487v-1.66c-.57,0-1.13,0-1.68,0a2,2,0,0,0-.93.25,2.13,2.13,0,0,0-1.13,1.9c0,.47,0,.95,0,1.43v.18h-1.56v1.83h1.56v5.55S483.22,547.8,483.22,547.85Z"/><text class="cls-33" transform="translate(498.03 543.13) scale(1.02 1)">Y<tspan class="cls-34" x="5.12" y="0">OURN</tspan><tspan class="cls-35" x="29.32" y="0">A</tspan><tspan class="cls-34" x="35.19" y="0">ME</tspan></text><text class="cls-53" transform="translate(498.03 583.59) scale(1.02 1)">@<tspan class="cls-54" x="6.81" y="0">Y</tspan><tspan class="cls-37" x="11.93" y="0">OURN</tspan><tspan class="cls-55" x="36.13" y="0">A</tspan><tspan x="42" y="0">ME</tspan></text><text class="cls-44" transform="translate(494.86 633.37)">LENG<tspan class="cls-56" x="32.94" y="0">U</tspan><tspan class="cls-48" x="41.85" y="0">A</tspan><tspan x="50.52" y="0">GE</tspan></text><text class="cls-41" transform="translate(467.39 657.55) scale(1.02 1)">S<tspan class="cls-57" x="5.03" y="0">P</tspan><tspan class="cls-34" x="9.74" y="0">ANISH</tspan><tspan x="0" y="16.8">ENGLISH</tspan><tspan x="0" y="33.59">JA</tspan><tspan class="cls-57" x="10.04" y="33.59">P</tspan><tspan x="14.74" y="33.59">ANESE</tspan></text><rect class="cls-2" x="519.17" y="650.64" width="92.45" height="9.55"/><rect class="cls-2" x="519.17" y="667.97" width="74.86" height="9.55"/><rect class="cls-2" x="519.17" y="683.55" width="49.24" height="9.55"/><text class="cls-44" transform="translate(509.39 743.15)">SKILLS</text><text class="cls-53" transform="translate(488.55 768.71) scale(1.02 1)">G<tspan class="cls-58" x="6.14" y="0">R</tspan><tspan x="11.54" y="0">APHIC DESIGN</tspan><tspan x="0" y="16.8">UI DESIGN</tspan><tspan class="cls-37"><tspan x="0" y="33.59">D</tspan><tspan class="cls-58" x="6.29" y="33.59">R</tspan><tspan class="cls-59" x="11.69" y="33.59">A</tspan><tspan x="17.2" y="33.59">WING</tspan></tspan><tspan x="0" y="50.39">ANI</tspan><tspan class="cls-60" x="15.32" y="50.39">M</tspan><tspan class="cls-61" x="22.54" y="50.39">A</tspan><tspan class="cls-37" x="27.88" y="50.39">TION</tspan></text><path class="cls-2" d="M477.07,766.39a2.55,2.55,0,1,1-2.55-2.54A2.55,2.55,0,0,1,477.07,766.39Z"/><path class="cls-2" d="M477.07,782.24a2.55,2.55,0,1,1-2.55-2.55A2.55,2.55,0,0,1,477.07,782.24Z"/><path class="cls-2" d="M477.07,799.22a2.55,2.55,0,1,1-2.55-2.55A2.55,2.55,0,0,1,477.07,799.22Z"/><path class="cls-2" d="M477.19,816.18a2.55,2.55,0,1,1-2.55-2.55A2.55,2.55,0,0,1,477.19,816.18Z"/><text class="cls-62" transform="translate(652.9 200.89)"><tspan class="cls-63">L</tspan><tspan x="3.83" y="0">o</tspan><tspan class="cls-64" x="8.43" y="0">r</tspan><tspan x="11.09" y="0">em</tspan><tspan class="cls-65" x="22.27" y="0"> </tspan><tspan x="25.25" y="0">ipsum</tspan><tspan class="cls-66" x="46.89" y="0"> </tspan><tspan x="49.88" y="0">dolor</tspan><tspan class="cls-65" x="68.51" y="0"> </tspan><tspan x="71.5" y="0">sit</tspan><tspan class="cls-66" x="79.55" y="0"> </tspan><tspan x="82.54" y="0">ame</tspan><tspan class="cls-67" x="97.75" y="0">t</tspan><tspan x="100.5" y="0">,</tspan><tspan class="cls-65" x="102.23" y="0"> </tspan><tspan class="cls-68" x="105.22" y="0">c</tspan><tspan x="108.92" y="0">onse</tspan><tspan class="cls-69" x="125.68" y="0">c</tspan><tspan class="cls-70" x="129.54" y="0">t</tspan><tspan x="132.26" y="0">etuer</tspan><tspan class="cls-65" x="150.78" y="0"> </tspan><tspan x="153.76" y="0">adipiscing</tspan><tspan class="cls-65" x="189.56" y="0"> </tspan><tspan x="192.55" y="0">eli</tspan><tspan class="cls-71" x="200.68" y="0">t</tspan><tspan x="203.43" y="0">,</tspan><tspan class="cls-66" x="205.16" y="0"> </tspan><tspan x="208.15" y="0">sed</tspan><tspan class="cls-65" x="220.38" y="0"> </tspan><tspan x="223.37" y="0">diam</tspan><tspan class="cls-65" x="241.08" y="0"> </tspan><tspan x="244.06" y="0">nonum</tspan><tspan class="cls-72" x="269.55" y="0">m</tspan><tspan class="cls-73" x="276.43" y="0">y</tspan><tspan class="cls-74" x="280.37" y="0"> </tspan><tspan x="283.36" y="0">nibh</tspan><tspan class="cls-75" x="299.38" y="0"> </tspan><tspan x="302.37" y="0">euismod </tspan><tspan x="0" y="12.56">tincidu</tspan><tspan class="cls-76" x="24.43" y="12.56">n</tspan><tspan x="29.04" y="12.56">t</tspan><tspan class="cls-77" x="31.81" y="12.56"> </tspan><tspan x="34.39" y="12.56">ut</tspan><tspan class="cls-78" x="41.78" y="12.56"> </tspan><tspan x="44.36" y="12.56">lao</tspan><tspan class="cls-64" x="54.97" y="12.56">r</tspan><tspan x="57.62" y="12.56">eet</tspan><tspan class="cls-77" x="68.78" y="12.56"> </tspan><tspan x="71.36" y="12.56">dolo</tspan><tspan class="cls-64" x="87.26" y="12.56">r</tspan><tspan x="89.91" y="12.56">e</tspan><tspan class="cls-78" x="94.11" y="12.56"> </tspan><tspan x="96.69" y="12.56">ma</tspan><tspan class="cls-70" x="107.71" y="12.56">g</tspan><tspan x="112.34" y="12.56">na</tspan><tspan class="cls-77" x="121.02" y="12.56"> </tspan><tspan x="123.6" y="12.56">aliquam</tspan><tspan class="cls-78" x="151.92" y="12.56"> </tspan><tspan x="154.5" y="12.56">e</tspan><tspan class="cls-79" x="158.69" y="12.56">r</tspan><tspan class="cls-80" x="161.39" y="12.56">a</tspan><tspan x="165.39" y="12.56">t</tspan><tspan class="cls-77" x="168.17" y="12.56"> </tspan><tspan class="cls-81" x="170.75" y="12.56">v</tspan><tspan x="174.69" y="12.56">olutp</tspan><tspan class="cls-80" x="193.41" y="12.56">a</tspan><tspan class="cls-71" x="197.42" y="12.56">t</tspan><tspan x="200.16" y="12.56">.</tspan><tspan class="cls-78" x="201.9" y="12.56"> </tspan><tspan class="cls-82" x="204.48" y="12.56">U</tspan><tspan x="209.93" y="12.56">t</tspan><tspan class="cls-77" x="212.7" y="12.56"> </tspan><tspan x="215.28" y="12.56">wisi</tspan><tspan class="cls-78" x="228.68" y="12.56"> </tspan><tspan x="231.26" y="12.56">enim</tspan><tspan class="cls-78" x="249.04" y="12.56"> </tspan><tspan x="251.62" y="12.56">ad</tspan><tspan class="cls-77" x="260.38" y="12.56"> </tspan><tspan x="262.96" y="12.56">minim</tspan><tspan class="cls-78" x="285.5" y="12.56"> </tspan><tspan class="cls-64" x="288.08" y="12.56">v</tspan><tspan x="292.02" y="12.56">eniam,</tspan><tspan class="cls-77" x="315.58" y="12.56"> </tspan><tspan x="318.16" y="12.56">quis </tspan><tspan x="0" y="25.12">nostrud </tspan><tspan class="cls-71" x="29.18" y="25.12">e</tspan><tspan class="cls-83" x="33.35" y="25.12">x</tspan><tspan x="37.1" y="25.12">e</tspan><tspan class="cls-81" x="41.3" y="25.12">r</tspan><tspan x="43.95" y="25.12">ci t</tspan><tspan class="cls-80" x="54.21" y="25.12">a</tspan><tspan x="58.21" y="25.12">tion ullam</tspan><tspan class="cls-70" x="93.55" y="25.12">c</tspan><tspan x="97.25" y="25.12">o</tspan><tspan class="cls-82" x="101.85" y="25.12">r</tspan><tspan x="104.62" y="25.12">per suscipit lobo</tspan><tspan class="cls-84" x="162.26" y="25.12">r</tspan><tspan x="165.2" y="25.12">tis nisl ut aliquip </tspan><tspan class="cls-67" x="223.65" y="25.12">e</tspan><tspan x="227.82" y="25.12">x ea </tspan><tspan class="cls-68" x="243.48" y="25.12">c</tspan><tspan x="247.18" y="25.12">ommodo </tspan><tspan class="cls-70" x="281.44" y="25.12">c</tspan><tspan x="285.14" y="25.12">onsequ</tspan><tspan class="cls-80" x="311.23" y="25.12">a</tspan><tspan class="cls-67" x="315.23" y="25.12">t</tspan><tspan x="317.97" y="25.12">. </tspan></text><text class="cls-85" transform="translate(652.9 175.18)">A B O U<tspan class="cls-86" x="52.35" y="0"> </tspan><tspan x="55.22" y="0" xml:space="preserve">T     M E</tspan></text><text class="cls-87" transform="translate(698.3 832.61)"><tspan class="cls-88">L</tspan><tspan x="4.79" y="0">o</tspan><tspan class="cls-89" x="10.54" y="0">r</tspan><tspan x="13.86" y="0">em ipsum dolor </tspan></text><text class="cls-87" transform="translate(891.42 832.61)"><tspan class="cls-88">L</tspan><tspan x="4.79" y="0">o</tspan><tspan class="cls-89" x="10.54" y="0">r</tspan><tspan x="13.86" y="0">em ipsum dolor</tspan></text><polygon class="cls-2" points="954.76 812.43 638.01 812.43 638.01 785 965.23 785 954.76 812.43"/><polygon class="cls-2" points="983.92 812.43 958.63 812.43 969.1 785 994.34 785 983.92 812.43"/><polygon class="cls-2" points="1002.28 812.43 987.46 812.43 997.92 785 1012.7 785 1002.28 812.43"/><text class="cls-30" transform="translate(714.3 804.13)">REFERENCES</text><path class="cls-22" d="M692.09,797.33a3.49,3.49,0,1,0-3.77,0,4.48,4.48,0,0,0-4.06,4.45v3.68l.25.08a20.46,20.46,0,0,0,6.07,1,12.5,12.5,0,0,0,5.31-1l.23-.12h0v-3.62A4.48,4.48,0,0,0,692.09,797.33Z"/><rect class="cls-2" x="421.35" y="899.95" width="622.15" height="24.11"/><text class="cls-90" transform="translate(698.79 586.35)">2016 - 2017</text><text class="cls-91" transform="translate(698.79 605.57)"><tspan class="cls-63">L</tspan><tspan x="3.83" y="0">o</tspan><tspan class="cls-64" x="8.43" y="0">r</tspan><tspan class="cls-92" x="11.09" y="0">em ipsum dolor sit amet</tspan></text><text class="cls-62" transform="translate(698.79 619.77)"><tspan class="cls-93">U</tspan><tspan x="5.45" y="0">t enim ad minim </tspan><tspan class="cls-64" x="64.4" y="0">v</tspan><tspan class="cls-92" x="68.35" y="0">eniam, quis nostrud </tspan><tspan class="cls-71" x="139.24" y="0">e</tspan><tspan class="cls-83" x="143.41" y="0">x</tspan><tspan class="cls-92" x="147.16" y="0">e</tspan><tspan class="cls-64" x="151.35" y="0">r</tspan><tspan x="154.01" y="0">cit</tspan><tspan class="cls-76" x="162.49" y="0">a</tspan><tspan class="cls-73" x="166.49" y="0">tion</tspan><tspan x="0" y="12.56">ullam</tspan><tspan class="cls-70" x="19.59" y="12.56">c</tspan><tspan x="23.29" y="12.56">o labo</tspan><tspan class="cls-93" x="45.03" y="12.56">r</tspan><tspan x="47.81" y="12.56">is nisi ut aliquip </tspan><tspan class="cls-67" x="103.47" y="12.56">e</tspan><tspan x="107.64" y="12.56">x ea </tspan><tspan class="cls-70" x="123.3" y="12.56">c</tspan><tspan x="127" y="12.56">ommod</tspan><tspan class="cls-94" x="154.89" y="12.56">o</tspan><tspan x="159.28" y="12.56">.</tspan></text><text class="cls-90" transform="translate(698.79 655.28)">2017 - 2017</text><text class="cls-91" transform="translate(698.79 673.8)"><tspan class="cls-63">L</tspan><tspan x="3.83" y="0">o</tspan><tspan class="cls-64" x="8.43" y="0">r</tspan><tspan class="cls-92" x="11.09" y="0">em ipsum dolor sit amet</tspan></text><text class="cls-62" transform="translate(698.79 687.31)"><tspan class="cls-93">U</tspan><tspan x="5.45" y="0">t enim ad minim </tspan><tspan class="cls-64" x="64.4" y="0">v</tspan><tspan class="cls-92" x="68.35" y="0">eniam, quis nostrud </tspan><tspan class="cls-71" x="139.24" y="0">e</tspan><tspan class="cls-83" x="143.41" y="0">x</tspan><tspan class="cls-92" x="147.16" y="0">e</tspan><tspan class="cls-64" x="151.35" y="0">r</tspan><tspan x="154.01" y="0">cit</tspan><tspan class="cls-76" x="162.49" y="0">a</tspan><tspan class="cls-73" x="166.49" y="0">tion</tspan><tspan x="0" y="12.56">ullam</tspan><tspan class="cls-70" x="19.59" y="12.56">c</tspan><tspan x="23.29" y="12.56">o labo</tspan><tspan class="cls-93" x="45.03" y="12.56">r</tspan><tspan x="47.81" y="12.56">is nisi ut aliquip </tspan><tspan class="cls-67" x="103.47" y="12.56">e</tspan><tspan x="107.64" y="12.56">x ea </tspan><tspan class="cls-70" x="123.3" y="12.56">c</tspan><tspan x="127" y="12.56">ommod</tspan><tspan class="cls-94" x="154.89" y="12.56">o</tspan><tspan x="159.28" y="12.56">.</tspan></text><text class="cls-90" transform="translate(698.79 723.38)">201 8 - 2019</text><text class="cls-91" transform="translate(698.79 742.98)"><tspan class="cls-63">L</tspan><tspan x="3.83" y="0">o</tspan><tspan class="cls-64" x="8.43" y="0">r</tspan><tspan class="cls-92" x="11.09" y="0">em ipsum dolor sit amet</tspan></text><text class="cls-62" transform="translate(698.79 757.57)"><tspan class="cls-93">U</tspan><tspan x="5.45" y="0">t enim ad minim </tspan><tspan class="cls-64" x="64.4" y="0">v</tspan><tspan class="cls-92" x="68.35" y="0">eniam, quis nostrud </tspan><tspan class="cls-71" x="139.24" y="0">e</tspan><tspan class="cls-83" x="143.41" y="0">x</tspan><tspan class="cls-92" x="147.16" y="0">e</tspan><tspan class="cls-64" x="151.35" y="0">r</tspan><tspan x="154.01" y="0">cit</tspan><tspan class="cls-76" x="162.49" y="0">a</tspan><tspan class="cls-73" x="166.49" y="0">tion</tspan><tspan x="0" y="12.56">ullam</tspan><tspan class="cls-70" x="19.59" y="12.56">c</tspan><tspan x="23.29" y="12.56">o labo</tspan><tspan class="cls-93" x="45.03" y="12.56">r</tspan><tspan x="47.81" y="12.56">is nisi ut aliquip </tspan><tspan class="cls-67" x="103.47" y="12.56">e</tspan><tspan x="107.64" y="12.56">x ea </tspan><tspan class="cls-70" x="123.3" y="12.56">c</tspan><tspan x="127" y="12.56">ommod</tspan><tspan class="cls-94" x="154.89" y="12.56">o</tspan><tspan x="159.28" y="12.56">.</tspan></text><line class="cls-95" x1="677.31" y1="654.87" x2="682.99" y2="654.87"/><polyline class="cls-95" points="682.99 723.38 677.31 723.38 677.31 586.35 682.99 586.35"/><text class="cls-90" transform="translate(698.79 316.5)">2001 - 2007</text><text class="cls-91" transform="translate(698.79 335.71)"><tspan class="cls-63">L</tspan><tspan x="3.83" y="0">o</tspan><tspan class="cls-64" x="8.43" y="0">r</tspan><tspan class="cls-92" x="11.09" y="0">em ipsum dolor sit amet</tspan></text><text class="cls-62" transform="translate(698.79 349.92)"><tspan class="cls-93">U</tspan><tspan x="5.45" y="0">t enim ad minim </tspan><tspan class="cls-64" x="64.4" y="0">v</tspan><tspan class="cls-92" x="68.35" y="0">eniam, quis nostrud </tspan><tspan class="cls-71" x="139.24" y="0">e</tspan><tspan class="cls-83" x="143.41" y="0">x</tspan><tspan class="cls-92" x="147.16" y="0">e</tspan><tspan class="cls-64" x="151.35" y="0">r</tspan><tspan x="154.01" y="0">cit</tspan><tspan class="cls-76" x="162.49" y="0">a</tspan><tspan class="cls-73" x="166.49" y="0">tion</tspan><tspan x="0" y="12.56">ullam</tspan><tspan class="cls-70" x="19.59" y="12.56">c</tspan><tspan x="23.29" y="12.56">o labo</tspan><tspan class="cls-93" x="45.03" y="12.56">r</tspan><tspan x="47.81" y="12.56">is nisi ut aliquip </tspan><tspan class="cls-67" x="103.47" y="12.56">e</tspan><tspan x="107.64" y="12.56">x ea </tspan><tspan class="cls-70" x="123.3" y="12.56">c</tspan><tspan x="127" y="12.56">ommod</tspan><tspan class="cls-94" x="154.89" y="12.56">o</tspan><tspan x="159.28" y="12.56">.</tspan></text><text class="cls-90" transform="translate(698.79 388.45)">2007 - 2010</text><text class="cls-91" transform="translate(698.79 406.02)"><tspan class="cls-63">L</tspan><tspan x="3.83" y="0">o</tspan><tspan class="cls-64" x="8.43" y="0">r</tspan><tspan class="cls-92" x="11.09" y="0">em ipsum dolor sit amet</tspan></text><text class="cls-62" transform="translate(698.79 418.59)"><tspan class="cls-93">U</tspan><tspan x="5.45" y="0">t enim ad minim </tspan><tspan class="cls-64" x="64.4" y="0">v</tspan><tspan class="cls-92" x="68.35" y="0">eniam, quis nostrud </tspan><tspan class="cls-71" x="139.24" y="0">e</tspan><tspan class="cls-83" x="143.41" y="0">x</tspan><tspan class="cls-92" x="147.16" y="0">e</tspan><tspan class="cls-64" x="151.35" y="0">r</tspan><tspan x="154.01" y="0">cit</tspan><tspan class="cls-76" x="162.49" y="0">a</tspan><tspan class="cls-73" x="166.49" y="0">tion</tspan><tspan x="0" y="12.56">ullam</tspan><tspan class="cls-70" x="19.59" y="12.56">c</tspan><tspan x="23.29" y="12.56">o labo</tspan><tspan class="cls-93" x="45.03" y="12.56">r</tspan><tspan x="47.81" y="12.56">is nisi ut aliquip </tspan><tspan class="cls-67" x="103.47" y="12.56">e</tspan><tspan x="107.64" y="12.56">x ea </tspan><tspan class="cls-70" x="123.3" y="12.56">c</tspan><tspan x="127" y="12.56">ommod</tspan><tspan class="cls-94" x="154.89" y="12.56">o</tspan><tspan x="159.28" y="12.56">.</tspan></text><text class="cls-90" transform="translate(698.79 460.91)">201 1 - 2014</text><text class="cls-91" transform="translate(698.79 479.49)"><tspan class="cls-63">L</tspan><tspan x="3.83" y="0">o</tspan><tspan class="cls-64" x="8.43" y="0">r</tspan><tspan class="cls-92" x="11.09" y="0">em ipsum dolor sit amet</tspan></text><text class="cls-62" transform="translate(698.79 493.06)"><tspan class="cls-93">U</tspan><tspan x="5.45" y="0">t enim ad minim </tspan><tspan class="cls-64" x="64.4" y="0">v</tspan><tspan class="cls-92" x="68.35" y="0">eniam, quis nostrud </tspan><tspan class="cls-71" x="139.24" y="0">e</tspan><tspan class="cls-83" x="143.41" y="0">x</tspan><tspan class="cls-92" x="147.16" y="0">e</tspan><tspan class="cls-64" x="151.35" y="0">r</tspan><tspan x="154.01" y="0">cit</tspan><tspan class="cls-76" x="162.49" y="0">a</tspan><tspan class="cls-73" x="166.49" y="0">tion</tspan><tspan x="0" y="12.56">ullam</tspan><tspan class="cls-70" x="19.59" y="12.56">c</tspan><tspan x="23.29" y="12.56">o labo</tspan><tspan class="cls-93" x="45.03" y="12.56">r</tspan><tspan x="47.81" y="12.56">is nisi ut aliquip </tspan><tspan class="cls-67" x="103.47" y="12.56">e</tspan><tspan x="107.64" y="12.56">x ea </tspan><tspan class="cls-70" x="123.3" y="12.56">c</tspan><tspan x="127" y="12.56">ommod</tspan><tspan class="cls-94" x="154.89" y="12.56">o</tspan><tspan x="159.28" y="12.56">.</tspan></text><line class="cls-95" x1="677.31" y1="385.01" x2="682.99" y2="385.01"/><polyline class="cls-95" points="682.99 453.53 677.31 453.53 677.31 316.5 682.99 316.5"/><text class="cls-62" transform="translate(699.32 850.87)">name@<tspan class="cls-64" x="26.03" y="0">w</tspan><tspan class="cls-92" x="32.11" y="0">e</tspan><tspan class="cls-94" x="36.31" y="0">b</tspan><tspan x="40.87" y="0">.</tspan><tspan class="cls-70" x="42.61" y="0">c</tspan><tspan x="46.31" y="0">om</tspan></text><text class="cls-62" transform="translate(699.32 863.29)">+12 345 678</text><text class="cls-62" transform="translate(699.32 875.71)"><tspan class="cls-63">L</tspan><tspan x="3.83" y="0">o</tspan><tspan class="cls-64" x="8.43" y="0">r</tspan><tspan class="cls-92" x="11.09" y="0">em st</tspan><tspan class="cls-81" x="30.13" y="0">r</tspan><tspan x="32.78" y="0">eet 123</tspan></text><text class="cls-62" transform="translate(891.42 850.87)">name@<tspan class="cls-64" x="26.03" y="0">w</tspan><tspan class="cls-92" x="32.11" y="0">e</tspan><tspan class="cls-94" x="36.31" y="0">b</tspan><tspan x="40.87" y="0">.</tspan><tspan class="cls-70" x="42.61" y="0">c</tspan><tspan x="46.31" y="0">om</tspan></text><text class="cls-62" transform="translate(891.42 863.29)">+12 345 678</text><text class="cls-62" transform="translate(891.42 875.71)"><tspan class="cls-63">L</tspan><tspan x="3.83" y="0">o</tspan><tspan class="cls-64" x="8.43" y="0">r</tspan><tspan class="cls-92" x="11.09" y="0">em st</tspan><tspan class="cls-81" x="30.13" y="0">r</tspan><tspan x="32.78" y="0">eet 123</tspan></text></g></svg>